G04 #@! TF.GenerationSoftware,KiCad,Pcbnew,9.0.0*
G04 #@! TF.CreationDate,2025-03-07T15:21:45-06:00*
G04 #@! TF.ProjectId,robo-roach-v1.0,726f626f-2d72-46f6-9163-682d76312e30,rev?*
G04 #@! TF.SameCoordinates,Original*
G04 #@! TF.FileFunction,Legend,Bot*
G04 #@! TF.FilePolarity,Positive*
%FSLAX46Y46*%
G04 Gerber Fmt 4.6, Leading zero omitted, Abs format (unit mm)*
G04 Created by KiCad (PCBNEW 9.0.0) date 2025-03-07 15:21:45*
%MOMM*%
%LPD*%
G01*
G04 APERTURE LIST*
%ADD10C,0.150000*%
%ADD11C,0.120000*%
%ADD12R,1.400000X1.400000*%
%ADD13C,1.400000*%
%ADD14R,1.800000X1.800000*%
%ADD15C,1.800000*%
%ADD16R,1.600000X1.600000*%
%ADD17C,1.600000*%
G04 APERTURE END LIST*
D10*
X189319819Y-93805476D02*
X190034104Y-93805476D01*
X190034104Y-93805476D02*
X190176961Y-93757857D01*
X190176961Y-93757857D02*
X190272200Y-93662619D01*
X190272200Y-93662619D02*
X190319819Y-93519762D01*
X190319819Y-93519762D02*
X190319819Y-93424524D01*
X190319819Y-94805476D02*
X190319819Y-94234048D01*
X190319819Y-94519762D02*
X189319819Y-94519762D01*
X189319819Y-94519762D02*
X189462676Y-94424524D01*
X189462676Y-94424524D02*
X189557914Y-94329286D01*
X189557914Y-94329286D02*
X189605533Y-94234048D01*
X189415057Y-95186429D02*
X189367438Y-95234048D01*
X189367438Y-95234048D02*
X189319819Y-95329286D01*
X189319819Y-95329286D02*
X189319819Y-95567381D01*
X189319819Y-95567381D02*
X189367438Y-95662619D01*
X189367438Y-95662619D02*
X189415057Y-95710238D01*
X189415057Y-95710238D02*
X189510295Y-95757857D01*
X189510295Y-95757857D02*
X189605533Y-95757857D01*
X189605533Y-95757857D02*
X189748390Y-95710238D01*
X189748390Y-95710238D02*
X190319819Y-95138810D01*
X190319819Y-95138810D02*
X190319819Y-95757857D01*
D11*
X191135000Y-89535000D02*
X193675000Y-89535000D01*
X191135000Y-92075000D02*
X191135000Y-89535000D01*
X196215000Y-97155000D02*
X196215000Y-99695000D01*
X196215000Y-99695000D02*
X193675000Y-99695000D01*
%LPC*%
D12*
X193675000Y-98425000D03*
D13*
X193675000Y-95885000D03*
X193675000Y-93345000D03*
X193675000Y-90805000D03*
D14*
X189865000Y-90805000D03*
D15*
X189865000Y-88265000D03*
D16*
X187325000Y-102425000D03*
D17*
X189865000Y-102425000D03*
X192405000Y-102425000D03*
%LPD*%
M02*
