%TF.GenerationSoftware,KiCad,Pcbnew,9.0.0*%
%TF.CreationDate,2025-03-07T15:21:47-06:00*%
%TF.ProjectId,robo-roach-v1.0,726f626f-2d72-46f6-9163-682d76312e30,rev?*%
%TF.SameCoordinates,Original*%
%TF.FileFunction,Drillmap*%
%TF.FilePolarity,Positive*%
%FSLAX45Y45*%
G04 Gerber Fmt 4.5, Leading zero omitted, Abs format (unit mm)*
G04 Created by KiCad (PCBNEW 9.0.0) date 2025-03-07 15:21:47*
%MOMM*%
%LPD*%
G01*
G04 APERTURE LIST*
%ADD10C,0.050000*%
%ADD11C,0.200000*%
%ADD12C,0.100000*%
G04 APERTURE END LIST*
D10*
X18571500Y-8572500D02*
X19528500Y-8572500D01*
X18351500Y-10257500D02*
X18351500Y-8792500D01*
X19748500Y-8792500D02*
X19748500Y-10257500D01*
X19528500Y-8572500D02*
G75*
G02*
X19748500Y-8792500I0J-220000D01*
G01*
X18571500Y-10477500D02*
G75*
G02*
X18351500Y-10257500I0J220000D01*
G01*
X18351500Y-8792500D02*
G75*
G02*
X18571500Y-8572500I220000J0D01*
G01*
X19748500Y-10257500D02*
G75*
G02*
X19528500Y-10477500I-220000J0D01*
G01*
X19528500Y-10477500D02*
X18571500Y-10477500D01*
D11*
D12*
X19332500Y-9045500D02*
X19402500Y-9115500D01*
X19402500Y-9045500D02*
X19332500Y-9115500D01*
X19332500Y-9299500D02*
X19402500Y-9369500D01*
X19402500Y-9299500D02*
X19332500Y-9369500D01*
X19332500Y-9553500D02*
X19402500Y-9623500D01*
X19402500Y-9553500D02*
X19332500Y-9623500D01*
X19332500Y-9807500D02*
X19402500Y-9877500D01*
X19402500Y-9807500D02*
X19332500Y-9877500D01*
X18777500Y-10242500D02*
G75*
G02*
X18687500Y-10242500I-45000J0D01*
G01*
X18687500Y-10242500D02*
G75*
G02*
X18777500Y-10242500I45000J0D01*
G01*
X19031500Y-8826500D02*
G75*
G02*
X18941500Y-8826500I-45000J0D01*
G01*
X18941500Y-8826500D02*
G75*
G02*
X19031500Y-8826500I45000J0D01*
G01*
X19031500Y-9080500D02*
G75*
G02*
X18941500Y-9080500I-45000J0D01*
G01*
X18941500Y-9080500D02*
G75*
G02*
X19031500Y-9080500I45000J0D01*
G01*
X19031500Y-10242500D02*
G75*
G02*
X18941500Y-10242500I-45000J0D01*
G01*
X18941500Y-10242500D02*
G75*
G02*
X19031500Y-10242500I45000J0D01*
G01*
X19285500Y-10242500D02*
G75*
G02*
X19195500Y-10242500I-45000J0D01*
G01*
X19195500Y-10242500D02*
G75*
G02*
X19285500Y-10242500I45000J0D01*
G01*
D11*
X18609777Y-10791484D02*
X18609777Y-10591484D01*
X18609777Y-10591484D02*
X18657396Y-10591484D01*
X18657396Y-10591484D02*
X18685967Y-10601008D01*
X18685967Y-10601008D02*
X18705015Y-10620055D01*
X18705015Y-10620055D02*
X18714539Y-10639103D01*
X18714539Y-10639103D02*
X18724063Y-10677198D01*
X18724063Y-10677198D02*
X18724063Y-10705770D01*
X18724063Y-10705770D02*
X18714539Y-10743865D01*
X18714539Y-10743865D02*
X18705015Y-10762912D01*
X18705015Y-10762912D02*
X18685967Y-10781960D01*
X18685967Y-10781960D02*
X18657396Y-10791484D01*
X18657396Y-10791484D02*
X18609777Y-10791484D01*
X18809777Y-10791484D02*
X18809777Y-10658150D01*
X18809777Y-10696246D02*
X18819301Y-10677198D01*
X18819301Y-10677198D02*
X18828824Y-10667674D01*
X18828824Y-10667674D02*
X18847872Y-10658150D01*
X18847872Y-10658150D02*
X18866920Y-10658150D01*
X18933586Y-10791484D02*
X18933586Y-10658150D01*
X18933586Y-10591484D02*
X18924063Y-10601008D01*
X18924063Y-10601008D02*
X18933586Y-10610531D01*
X18933586Y-10610531D02*
X18943110Y-10601008D01*
X18943110Y-10601008D02*
X18933586Y-10591484D01*
X18933586Y-10591484D02*
X18933586Y-10610531D01*
X19057396Y-10791484D02*
X19038348Y-10781960D01*
X19038348Y-10781960D02*
X19028824Y-10762912D01*
X19028824Y-10762912D02*
X19028824Y-10591484D01*
X19162158Y-10791484D02*
X19143110Y-10781960D01*
X19143110Y-10781960D02*
X19133586Y-10762912D01*
X19133586Y-10762912D02*
X19133586Y-10591484D01*
X19390729Y-10791484D02*
X19390729Y-10591484D01*
X19390729Y-10591484D02*
X19457396Y-10734341D01*
X19457396Y-10734341D02*
X19524063Y-10591484D01*
X19524063Y-10591484D02*
X19524063Y-10791484D01*
X19705015Y-10791484D02*
X19705015Y-10686722D01*
X19705015Y-10686722D02*
X19695491Y-10667674D01*
X19695491Y-10667674D02*
X19676444Y-10658150D01*
X19676444Y-10658150D02*
X19638348Y-10658150D01*
X19638348Y-10658150D02*
X19619301Y-10667674D01*
X19705015Y-10781960D02*
X19685967Y-10791484D01*
X19685967Y-10791484D02*
X19638348Y-10791484D01*
X19638348Y-10791484D02*
X19619301Y-10781960D01*
X19619301Y-10781960D02*
X19609777Y-10762912D01*
X19609777Y-10762912D02*
X19609777Y-10743865D01*
X19609777Y-10743865D02*
X19619301Y-10724817D01*
X19619301Y-10724817D02*
X19638348Y-10715293D01*
X19638348Y-10715293D02*
X19685967Y-10715293D01*
X19685967Y-10715293D02*
X19705015Y-10705770D01*
X19800253Y-10658150D02*
X19800253Y-10858150D01*
X19800253Y-10667674D02*
X19819301Y-10658150D01*
X19819301Y-10658150D02*
X19857396Y-10658150D01*
X19857396Y-10658150D02*
X19876444Y-10667674D01*
X19876444Y-10667674D02*
X19885967Y-10677198D01*
X19885967Y-10677198D02*
X19895491Y-10696246D01*
X19895491Y-10696246D02*
X19895491Y-10753389D01*
X19895491Y-10753389D02*
X19885967Y-10772436D01*
X19885967Y-10772436D02*
X19876444Y-10781960D01*
X19876444Y-10781960D02*
X19857396Y-10791484D01*
X19857396Y-10791484D02*
X19819301Y-10791484D01*
X19819301Y-10791484D02*
X19800253Y-10781960D01*
X19981205Y-10772436D02*
X19990729Y-10781960D01*
X19990729Y-10781960D02*
X19981205Y-10791484D01*
X19981205Y-10791484D02*
X19971682Y-10781960D01*
X19971682Y-10781960D02*
X19981205Y-10772436D01*
X19981205Y-10772436D02*
X19981205Y-10791484D01*
X19981205Y-10667674D02*
X19990729Y-10677198D01*
X19990729Y-10677198D02*
X19981205Y-10686722D01*
X19981205Y-10686722D02*
X19971682Y-10677198D01*
X19971682Y-10677198D02*
X19981205Y-10667674D01*
X19981205Y-10667674D02*
X19981205Y-10686722D01*
D12*
X18279000Y-11085000D02*
X18349000Y-11155000D01*
X18349000Y-11085000D02*
X18279000Y-11155000D01*
D11*
X18647872Y-11011484D02*
X18666920Y-11011484D01*
X18666920Y-11011484D02*
X18685967Y-11021008D01*
X18685967Y-11021008D02*
X18695491Y-11030531D01*
X18695491Y-11030531D02*
X18705015Y-11049579D01*
X18705015Y-11049579D02*
X18714539Y-11087674D01*
X18714539Y-11087674D02*
X18714539Y-11135293D01*
X18714539Y-11135293D02*
X18705015Y-11173389D01*
X18705015Y-11173389D02*
X18695491Y-11192436D01*
X18695491Y-11192436D02*
X18685967Y-11201960D01*
X18685967Y-11201960D02*
X18666920Y-11211484D01*
X18666920Y-11211484D02*
X18647872Y-11211484D01*
X18647872Y-11211484D02*
X18628824Y-11201960D01*
X18628824Y-11201960D02*
X18619301Y-11192436D01*
X18619301Y-11192436D02*
X18609777Y-11173389D01*
X18609777Y-11173389D02*
X18600253Y-11135293D01*
X18600253Y-11135293D02*
X18600253Y-11087674D01*
X18600253Y-11087674D02*
X18609777Y-11049579D01*
X18609777Y-11049579D02*
X18619301Y-11030531D01*
X18619301Y-11030531D02*
X18628824Y-11021008D01*
X18628824Y-11021008D02*
X18647872Y-11011484D01*
X18800253Y-11192436D02*
X18809777Y-11201960D01*
X18809777Y-11201960D02*
X18800253Y-11211484D01*
X18800253Y-11211484D02*
X18790729Y-11201960D01*
X18790729Y-11201960D02*
X18800253Y-11192436D01*
X18800253Y-11192436D02*
X18800253Y-11211484D01*
X18876444Y-11011484D02*
X19009777Y-11011484D01*
X19009777Y-11011484D02*
X18924063Y-11211484D01*
X19124063Y-11011484D02*
X19143110Y-11011484D01*
X19143110Y-11011484D02*
X19162158Y-11021008D01*
X19162158Y-11021008D02*
X19171682Y-11030531D01*
X19171682Y-11030531D02*
X19181205Y-11049579D01*
X19181205Y-11049579D02*
X19190729Y-11087674D01*
X19190729Y-11087674D02*
X19190729Y-11135293D01*
X19190729Y-11135293D02*
X19181205Y-11173389D01*
X19181205Y-11173389D02*
X19171682Y-11192436D01*
X19171682Y-11192436D02*
X19162158Y-11201960D01*
X19162158Y-11201960D02*
X19143110Y-11211484D01*
X19143110Y-11211484D02*
X19124063Y-11211484D01*
X19124063Y-11211484D02*
X19105015Y-11201960D01*
X19105015Y-11201960D02*
X19095491Y-11192436D01*
X19095491Y-11192436D02*
X19085967Y-11173389D01*
X19085967Y-11173389D02*
X19076444Y-11135293D01*
X19076444Y-11135293D02*
X19076444Y-11087674D01*
X19076444Y-11087674D02*
X19085967Y-11049579D01*
X19085967Y-11049579D02*
X19095491Y-11030531D01*
X19095491Y-11030531D02*
X19105015Y-11021008D01*
X19105015Y-11021008D02*
X19124063Y-11011484D01*
X19314539Y-11011484D02*
X19333586Y-11011484D01*
X19333586Y-11011484D02*
X19352634Y-11021008D01*
X19352634Y-11021008D02*
X19362158Y-11030531D01*
X19362158Y-11030531D02*
X19371682Y-11049579D01*
X19371682Y-11049579D02*
X19381205Y-11087674D01*
X19381205Y-11087674D02*
X19381205Y-11135293D01*
X19381205Y-11135293D02*
X19371682Y-11173389D01*
X19371682Y-11173389D02*
X19362158Y-11192436D01*
X19362158Y-11192436D02*
X19352634Y-11201960D01*
X19352634Y-11201960D02*
X19333586Y-11211484D01*
X19333586Y-11211484D02*
X19314539Y-11211484D01*
X19314539Y-11211484D02*
X19295491Y-11201960D01*
X19295491Y-11201960D02*
X19285967Y-11192436D01*
X19285967Y-11192436D02*
X19276444Y-11173389D01*
X19276444Y-11173389D02*
X19266920Y-11135293D01*
X19266920Y-11135293D02*
X19266920Y-11087674D01*
X19266920Y-11087674D02*
X19276444Y-11049579D01*
X19276444Y-11049579D02*
X19285967Y-11030531D01*
X19285967Y-11030531D02*
X19295491Y-11021008D01*
X19295491Y-11021008D02*
X19314539Y-11011484D01*
X19466920Y-11211484D02*
X19466920Y-11078150D01*
X19466920Y-11097198D02*
X19476444Y-11087674D01*
X19476444Y-11087674D02*
X19495491Y-11078150D01*
X19495491Y-11078150D02*
X19524063Y-11078150D01*
X19524063Y-11078150D02*
X19543110Y-11087674D01*
X19543110Y-11087674D02*
X19552634Y-11106722D01*
X19552634Y-11106722D02*
X19552634Y-11211484D01*
X19552634Y-11106722D02*
X19562158Y-11087674D01*
X19562158Y-11087674D02*
X19581205Y-11078150D01*
X19581205Y-11078150D02*
X19609777Y-11078150D01*
X19609777Y-11078150D02*
X19628825Y-11087674D01*
X19628825Y-11087674D02*
X19638348Y-11106722D01*
X19638348Y-11106722D02*
X19638348Y-11211484D01*
X19733586Y-11211484D02*
X19733586Y-11078150D01*
X19733586Y-11097198D02*
X19743110Y-11087674D01*
X19743110Y-11087674D02*
X19762158Y-11078150D01*
X19762158Y-11078150D02*
X19790729Y-11078150D01*
X19790729Y-11078150D02*
X19809777Y-11087674D01*
X19809777Y-11087674D02*
X19819301Y-11106722D01*
X19819301Y-11106722D02*
X19819301Y-11211484D01*
X19819301Y-11106722D02*
X19828825Y-11087674D01*
X19828825Y-11087674D02*
X19847872Y-11078150D01*
X19847872Y-11078150D02*
X19876444Y-11078150D01*
X19876444Y-11078150D02*
X19895491Y-11087674D01*
X19895491Y-11087674D02*
X19905015Y-11106722D01*
X19905015Y-11106722D02*
X19905015Y-11211484D01*
X20295491Y-11001960D02*
X20124063Y-11259103D01*
X20552634Y-11011484D02*
X20571682Y-11011484D01*
X20571682Y-11011484D02*
X20590729Y-11021008D01*
X20590729Y-11021008D02*
X20600253Y-11030531D01*
X20600253Y-11030531D02*
X20609777Y-11049579D01*
X20609777Y-11049579D02*
X20619301Y-11087674D01*
X20619301Y-11087674D02*
X20619301Y-11135293D01*
X20619301Y-11135293D02*
X20609777Y-11173389D01*
X20609777Y-11173389D02*
X20600253Y-11192436D01*
X20600253Y-11192436D02*
X20590729Y-11201960D01*
X20590729Y-11201960D02*
X20571682Y-11211484D01*
X20571682Y-11211484D02*
X20552634Y-11211484D01*
X20552634Y-11211484D02*
X20533587Y-11201960D01*
X20533587Y-11201960D02*
X20524063Y-11192436D01*
X20524063Y-11192436D02*
X20514539Y-11173389D01*
X20514539Y-11173389D02*
X20505015Y-11135293D01*
X20505015Y-11135293D02*
X20505015Y-11087674D01*
X20505015Y-11087674D02*
X20514539Y-11049579D01*
X20514539Y-11049579D02*
X20524063Y-11030531D01*
X20524063Y-11030531D02*
X20533587Y-11021008D01*
X20533587Y-11021008D02*
X20552634Y-11011484D01*
X20705015Y-11192436D02*
X20714539Y-11201960D01*
X20714539Y-11201960D02*
X20705015Y-11211484D01*
X20705015Y-11211484D02*
X20695491Y-11201960D01*
X20695491Y-11201960D02*
X20705015Y-11192436D01*
X20705015Y-11192436D02*
X20705015Y-11211484D01*
X20838348Y-11011484D02*
X20857396Y-11011484D01*
X20857396Y-11011484D02*
X20876444Y-11021008D01*
X20876444Y-11021008D02*
X20885968Y-11030531D01*
X20885968Y-11030531D02*
X20895491Y-11049579D01*
X20895491Y-11049579D02*
X20905015Y-11087674D01*
X20905015Y-11087674D02*
X20905015Y-11135293D01*
X20905015Y-11135293D02*
X20895491Y-11173389D01*
X20895491Y-11173389D02*
X20885968Y-11192436D01*
X20885968Y-11192436D02*
X20876444Y-11201960D01*
X20876444Y-11201960D02*
X20857396Y-11211484D01*
X20857396Y-11211484D02*
X20838348Y-11211484D01*
X20838348Y-11211484D02*
X20819301Y-11201960D01*
X20819301Y-11201960D02*
X20809777Y-11192436D01*
X20809777Y-11192436D02*
X20800253Y-11173389D01*
X20800253Y-11173389D02*
X20790729Y-11135293D01*
X20790729Y-11135293D02*
X20790729Y-11087674D01*
X20790729Y-11087674D02*
X20800253Y-11049579D01*
X20800253Y-11049579D02*
X20809777Y-11030531D01*
X20809777Y-11030531D02*
X20819301Y-11021008D01*
X20819301Y-11021008D02*
X20838348Y-11011484D01*
X20981206Y-11030531D02*
X20990729Y-11021008D01*
X20990729Y-11021008D02*
X21009777Y-11011484D01*
X21009777Y-11011484D02*
X21057396Y-11011484D01*
X21057396Y-11011484D02*
X21076444Y-11021008D01*
X21076444Y-11021008D02*
X21085968Y-11030531D01*
X21085968Y-11030531D02*
X21095491Y-11049579D01*
X21095491Y-11049579D02*
X21095491Y-11068627D01*
X21095491Y-11068627D02*
X21085968Y-11097198D01*
X21085968Y-11097198D02*
X20971682Y-11211484D01*
X20971682Y-11211484D02*
X21095491Y-11211484D01*
X21162158Y-11011484D02*
X21295491Y-11011484D01*
X21295491Y-11011484D02*
X21209777Y-11211484D01*
X21457396Y-11011484D02*
X21419301Y-11011484D01*
X21419301Y-11011484D02*
X21400253Y-11021008D01*
X21400253Y-11021008D02*
X21390729Y-11030531D01*
X21390729Y-11030531D02*
X21371682Y-11059103D01*
X21371682Y-11059103D02*
X21362158Y-11097198D01*
X21362158Y-11097198D02*
X21362158Y-11173389D01*
X21362158Y-11173389D02*
X21371682Y-11192436D01*
X21371682Y-11192436D02*
X21381206Y-11201960D01*
X21381206Y-11201960D02*
X21400253Y-11211484D01*
X21400253Y-11211484D02*
X21438349Y-11211484D01*
X21438349Y-11211484D02*
X21457396Y-11201960D01*
X21457396Y-11201960D02*
X21466920Y-11192436D01*
X21466920Y-11192436D02*
X21476444Y-11173389D01*
X21476444Y-11173389D02*
X21476444Y-11125770D01*
X21476444Y-11125770D02*
X21466920Y-11106722D01*
X21466920Y-11106722D02*
X21457396Y-11097198D01*
X21457396Y-11097198D02*
X21438349Y-11087674D01*
X21438349Y-11087674D02*
X21400253Y-11087674D01*
X21400253Y-11087674D02*
X21381206Y-11097198D01*
X21381206Y-11097198D02*
X21371682Y-11106722D01*
X21371682Y-11106722D02*
X21362158Y-11125770D01*
X21552634Y-11011484D02*
X21552634Y-11049579D01*
X21628825Y-11011484D02*
X21628825Y-11049579D01*
X21924063Y-11287674D02*
X21914539Y-11278150D01*
X21914539Y-11278150D02*
X21895491Y-11249579D01*
X21895491Y-11249579D02*
X21885968Y-11230531D01*
X21885968Y-11230531D02*
X21876444Y-11201960D01*
X21876444Y-11201960D02*
X21866920Y-11154341D01*
X21866920Y-11154341D02*
X21866920Y-11116246D01*
X21866920Y-11116246D02*
X21876444Y-11068627D01*
X21876444Y-11068627D02*
X21885968Y-11040055D01*
X21885968Y-11040055D02*
X21895491Y-11021008D01*
X21895491Y-11021008D02*
X21914539Y-10992436D01*
X21914539Y-10992436D02*
X21924063Y-10982912D01*
X22085968Y-11078150D02*
X22085968Y-11211484D01*
X22038349Y-11001960D02*
X21990730Y-11144817D01*
X21990730Y-11144817D02*
X22114539Y-11144817D01*
X22343111Y-11211484D02*
X22343111Y-11011484D01*
X22428825Y-11211484D02*
X22428825Y-11106722D01*
X22428825Y-11106722D02*
X22419301Y-11087674D01*
X22419301Y-11087674D02*
X22400253Y-11078150D01*
X22400253Y-11078150D02*
X22371682Y-11078150D01*
X22371682Y-11078150D02*
X22352634Y-11087674D01*
X22352634Y-11087674D02*
X22343111Y-11097198D01*
X22552634Y-11211484D02*
X22533587Y-11201960D01*
X22533587Y-11201960D02*
X22524063Y-11192436D01*
X22524063Y-11192436D02*
X22514539Y-11173389D01*
X22514539Y-11173389D02*
X22514539Y-11116246D01*
X22514539Y-11116246D02*
X22524063Y-11097198D01*
X22524063Y-11097198D02*
X22533587Y-11087674D01*
X22533587Y-11087674D02*
X22552634Y-11078150D01*
X22552634Y-11078150D02*
X22581206Y-11078150D01*
X22581206Y-11078150D02*
X22600253Y-11087674D01*
X22600253Y-11087674D02*
X22609777Y-11097198D01*
X22609777Y-11097198D02*
X22619301Y-11116246D01*
X22619301Y-11116246D02*
X22619301Y-11173389D01*
X22619301Y-11173389D02*
X22609777Y-11192436D01*
X22609777Y-11192436D02*
X22600253Y-11201960D01*
X22600253Y-11201960D02*
X22581206Y-11211484D01*
X22581206Y-11211484D02*
X22552634Y-11211484D01*
X22733587Y-11211484D02*
X22714539Y-11201960D01*
X22714539Y-11201960D02*
X22705015Y-11182912D01*
X22705015Y-11182912D02*
X22705015Y-11011484D01*
X22885968Y-11201960D02*
X22866920Y-11211484D01*
X22866920Y-11211484D02*
X22828825Y-11211484D01*
X22828825Y-11211484D02*
X22809777Y-11201960D01*
X22809777Y-11201960D02*
X22800253Y-11182912D01*
X22800253Y-11182912D02*
X22800253Y-11106722D01*
X22800253Y-11106722D02*
X22809777Y-11087674D01*
X22809777Y-11087674D02*
X22828825Y-11078150D01*
X22828825Y-11078150D02*
X22866920Y-11078150D01*
X22866920Y-11078150D02*
X22885968Y-11087674D01*
X22885968Y-11087674D02*
X22895491Y-11106722D01*
X22895491Y-11106722D02*
X22895491Y-11125770D01*
X22895491Y-11125770D02*
X22800253Y-11144817D01*
X22971682Y-11201960D02*
X22990730Y-11211484D01*
X22990730Y-11211484D02*
X23028825Y-11211484D01*
X23028825Y-11211484D02*
X23047872Y-11201960D01*
X23047872Y-11201960D02*
X23057396Y-11182912D01*
X23057396Y-11182912D02*
X23057396Y-11173389D01*
X23057396Y-11173389D02*
X23047872Y-11154341D01*
X23047872Y-11154341D02*
X23028825Y-11144817D01*
X23028825Y-11144817D02*
X23000253Y-11144817D01*
X23000253Y-11144817D02*
X22981206Y-11135293D01*
X22981206Y-11135293D02*
X22971682Y-11116246D01*
X22971682Y-11116246D02*
X22971682Y-11106722D01*
X22971682Y-11106722D02*
X22981206Y-11087674D01*
X22981206Y-11087674D02*
X23000253Y-11078150D01*
X23000253Y-11078150D02*
X23028825Y-11078150D01*
X23028825Y-11078150D02*
X23047872Y-11087674D01*
X23124063Y-11287674D02*
X23133587Y-11278150D01*
X23133587Y-11278150D02*
X23152634Y-11249579D01*
X23152634Y-11249579D02*
X23162158Y-11230531D01*
X23162158Y-11230531D02*
X23171682Y-11201960D01*
X23171682Y-11201960D02*
X23181206Y-11154341D01*
X23181206Y-11154341D02*
X23181206Y-11116246D01*
X23181206Y-11116246D02*
X23171682Y-11068627D01*
X23171682Y-11068627D02*
X23162158Y-11040055D01*
X23162158Y-11040055D02*
X23152634Y-11021008D01*
X23152634Y-11021008D02*
X23133587Y-10992436D01*
X23133587Y-10992436D02*
X23124063Y-10982912D01*
D12*
X18349000Y-11384000D02*
G75*
G02*
X18259000Y-11384000I-45000J0D01*
G01*
X18259000Y-11384000D02*
G75*
G02*
X18349000Y-11384000I45000J0D01*
G01*
D11*
X18647872Y-11275484D02*
X18666920Y-11275484D01*
X18666920Y-11275484D02*
X18685967Y-11285008D01*
X18685967Y-11285008D02*
X18695491Y-11294531D01*
X18695491Y-11294531D02*
X18705015Y-11313579D01*
X18705015Y-11313579D02*
X18714539Y-11351674D01*
X18714539Y-11351674D02*
X18714539Y-11399293D01*
X18714539Y-11399293D02*
X18705015Y-11437388D01*
X18705015Y-11437388D02*
X18695491Y-11456436D01*
X18695491Y-11456436D02*
X18685967Y-11465960D01*
X18685967Y-11465960D02*
X18666920Y-11475484D01*
X18666920Y-11475484D02*
X18647872Y-11475484D01*
X18647872Y-11475484D02*
X18628824Y-11465960D01*
X18628824Y-11465960D02*
X18619301Y-11456436D01*
X18619301Y-11456436D02*
X18609777Y-11437388D01*
X18609777Y-11437388D02*
X18600253Y-11399293D01*
X18600253Y-11399293D02*
X18600253Y-11351674D01*
X18600253Y-11351674D02*
X18609777Y-11313579D01*
X18609777Y-11313579D02*
X18619301Y-11294531D01*
X18619301Y-11294531D02*
X18628824Y-11285008D01*
X18628824Y-11285008D02*
X18647872Y-11275484D01*
X18800253Y-11456436D02*
X18809777Y-11465960D01*
X18809777Y-11465960D02*
X18800253Y-11475484D01*
X18800253Y-11475484D02*
X18790729Y-11465960D01*
X18790729Y-11465960D02*
X18800253Y-11456436D01*
X18800253Y-11456436D02*
X18800253Y-11475484D01*
X18905015Y-11475484D02*
X18943110Y-11475484D01*
X18943110Y-11475484D02*
X18962158Y-11465960D01*
X18962158Y-11465960D02*
X18971682Y-11456436D01*
X18971682Y-11456436D02*
X18990729Y-11427865D01*
X18990729Y-11427865D02*
X19000253Y-11389769D01*
X19000253Y-11389769D02*
X19000253Y-11313579D01*
X19000253Y-11313579D02*
X18990729Y-11294531D01*
X18990729Y-11294531D02*
X18981205Y-11285008D01*
X18981205Y-11285008D02*
X18962158Y-11275484D01*
X18962158Y-11275484D02*
X18924063Y-11275484D01*
X18924063Y-11275484D02*
X18905015Y-11285008D01*
X18905015Y-11285008D02*
X18895491Y-11294531D01*
X18895491Y-11294531D02*
X18885967Y-11313579D01*
X18885967Y-11313579D02*
X18885967Y-11361198D01*
X18885967Y-11361198D02*
X18895491Y-11380246D01*
X18895491Y-11380246D02*
X18905015Y-11389769D01*
X18905015Y-11389769D02*
X18924063Y-11399293D01*
X18924063Y-11399293D02*
X18962158Y-11399293D01*
X18962158Y-11399293D02*
X18981205Y-11389769D01*
X18981205Y-11389769D02*
X18990729Y-11380246D01*
X18990729Y-11380246D02*
X19000253Y-11361198D01*
X19124063Y-11275484D02*
X19143110Y-11275484D01*
X19143110Y-11275484D02*
X19162158Y-11285008D01*
X19162158Y-11285008D02*
X19171682Y-11294531D01*
X19171682Y-11294531D02*
X19181205Y-11313579D01*
X19181205Y-11313579D02*
X19190729Y-11351674D01*
X19190729Y-11351674D02*
X19190729Y-11399293D01*
X19190729Y-11399293D02*
X19181205Y-11437388D01*
X19181205Y-11437388D02*
X19171682Y-11456436D01*
X19171682Y-11456436D02*
X19162158Y-11465960D01*
X19162158Y-11465960D02*
X19143110Y-11475484D01*
X19143110Y-11475484D02*
X19124063Y-11475484D01*
X19124063Y-11475484D02*
X19105015Y-11465960D01*
X19105015Y-11465960D02*
X19095491Y-11456436D01*
X19095491Y-11456436D02*
X19085967Y-11437388D01*
X19085967Y-11437388D02*
X19076444Y-11399293D01*
X19076444Y-11399293D02*
X19076444Y-11351674D01*
X19076444Y-11351674D02*
X19085967Y-11313579D01*
X19085967Y-11313579D02*
X19095491Y-11294531D01*
X19095491Y-11294531D02*
X19105015Y-11285008D01*
X19105015Y-11285008D02*
X19124063Y-11275484D01*
X19314539Y-11275484D02*
X19333586Y-11275484D01*
X19333586Y-11275484D02*
X19352634Y-11285008D01*
X19352634Y-11285008D02*
X19362158Y-11294531D01*
X19362158Y-11294531D02*
X19371682Y-11313579D01*
X19371682Y-11313579D02*
X19381205Y-11351674D01*
X19381205Y-11351674D02*
X19381205Y-11399293D01*
X19381205Y-11399293D02*
X19371682Y-11437388D01*
X19371682Y-11437388D02*
X19362158Y-11456436D01*
X19362158Y-11456436D02*
X19352634Y-11465960D01*
X19352634Y-11465960D02*
X19333586Y-11475484D01*
X19333586Y-11475484D02*
X19314539Y-11475484D01*
X19314539Y-11475484D02*
X19295491Y-11465960D01*
X19295491Y-11465960D02*
X19285967Y-11456436D01*
X19285967Y-11456436D02*
X19276444Y-11437388D01*
X19276444Y-11437388D02*
X19266920Y-11399293D01*
X19266920Y-11399293D02*
X19266920Y-11351674D01*
X19266920Y-11351674D02*
X19276444Y-11313579D01*
X19276444Y-11313579D02*
X19285967Y-11294531D01*
X19285967Y-11294531D02*
X19295491Y-11285008D01*
X19295491Y-11285008D02*
X19314539Y-11275484D01*
X19466920Y-11475484D02*
X19466920Y-11342150D01*
X19466920Y-11361198D02*
X19476444Y-11351674D01*
X19476444Y-11351674D02*
X19495491Y-11342150D01*
X19495491Y-11342150D02*
X19524063Y-11342150D01*
X19524063Y-11342150D02*
X19543110Y-11351674D01*
X19543110Y-11351674D02*
X19552634Y-11370722D01*
X19552634Y-11370722D02*
X19552634Y-11475484D01*
X19552634Y-11370722D02*
X19562158Y-11351674D01*
X19562158Y-11351674D02*
X19581205Y-11342150D01*
X19581205Y-11342150D02*
X19609777Y-11342150D01*
X19609777Y-11342150D02*
X19628825Y-11351674D01*
X19628825Y-11351674D02*
X19638348Y-11370722D01*
X19638348Y-11370722D02*
X19638348Y-11475484D01*
X19733586Y-11475484D02*
X19733586Y-11342150D01*
X19733586Y-11361198D02*
X19743110Y-11351674D01*
X19743110Y-11351674D02*
X19762158Y-11342150D01*
X19762158Y-11342150D02*
X19790729Y-11342150D01*
X19790729Y-11342150D02*
X19809777Y-11351674D01*
X19809777Y-11351674D02*
X19819301Y-11370722D01*
X19819301Y-11370722D02*
X19819301Y-11475484D01*
X19819301Y-11370722D02*
X19828825Y-11351674D01*
X19828825Y-11351674D02*
X19847872Y-11342150D01*
X19847872Y-11342150D02*
X19876444Y-11342150D01*
X19876444Y-11342150D02*
X19895491Y-11351674D01*
X19895491Y-11351674D02*
X19905015Y-11370722D01*
X19905015Y-11370722D02*
X19905015Y-11475484D01*
X20295491Y-11265960D02*
X20124063Y-11523103D01*
X20552634Y-11275484D02*
X20571682Y-11275484D01*
X20571682Y-11275484D02*
X20590729Y-11285008D01*
X20590729Y-11285008D02*
X20600253Y-11294531D01*
X20600253Y-11294531D02*
X20609777Y-11313579D01*
X20609777Y-11313579D02*
X20619301Y-11351674D01*
X20619301Y-11351674D02*
X20619301Y-11399293D01*
X20619301Y-11399293D02*
X20609777Y-11437388D01*
X20609777Y-11437388D02*
X20600253Y-11456436D01*
X20600253Y-11456436D02*
X20590729Y-11465960D01*
X20590729Y-11465960D02*
X20571682Y-11475484D01*
X20571682Y-11475484D02*
X20552634Y-11475484D01*
X20552634Y-11475484D02*
X20533587Y-11465960D01*
X20533587Y-11465960D02*
X20524063Y-11456436D01*
X20524063Y-11456436D02*
X20514539Y-11437388D01*
X20514539Y-11437388D02*
X20505015Y-11399293D01*
X20505015Y-11399293D02*
X20505015Y-11351674D01*
X20505015Y-11351674D02*
X20514539Y-11313579D01*
X20514539Y-11313579D02*
X20524063Y-11294531D01*
X20524063Y-11294531D02*
X20533587Y-11285008D01*
X20533587Y-11285008D02*
X20552634Y-11275484D01*
X20705015Y-11456436D02*
X20714539Y-11465960D01*
X20714539Y-11465960D02*
X20705015Y-11475484D01*
X20705015Y-11475484D02*
X20695491Y-11465960D01*
X20695491Y-11465960D02*
X20705015Y-11456436D01*
X20705015Y-11456436D02*
X20705015Y-11475484D01*
X20838348Y-11275484D02*
X20857396Y-11275484D01*
X20857396Y-11275484D02*
X20876444Y-11285008D01*
X20876444Y-11285008D02*
X20885968Y-11294531D01*
X20885968Y-11294531D02*
X20895491Y-11313579D01*
X20895491Y-11313579D02*
X20905015Y-11351674D01*
X20905015Y-11351674D02*
X20905015Y-11399293D01*
X20905015Y-11399293D02*
X20895491Y-11437388D01*
X20895491Y-11437388D02*
X20885968Y-11456436D01*
X20885968Y-11456436D02*
X20876444Y-11465960D01*
X20876444Y-11465960D02*
X20857396Y-11475484D01*
X20857396Y-11475484D02*
X20838348Y-11475484D01*
X20838348Y-11475484D02*
X20819301Y-11465960D01*
X20819301Y-11465960D02*
X20809777Y-11456436D01*
X20809777Y-11456436D02*
X20800253Y-11437388D01*
X20800253Y-11437388D02*
X20790729Y-11399293D01*
X20790729Y-11399293D02*
X20790729Y-11351674D01*
X20790729Y-11351674D02*
X20800253Y-11313579D01*
X20800253Y-11313579D02*
X20809777Y-11294531D01*
X20809777Y-11294531D02*
X20819301Y-11285008D01*
X20819301Y-11285008D02*
X20838348Y-11275484D01*
X20971682Y-11275484D02*
X21095491Y-11275484D01*
X21095491Y-11275484D02*
X21028825Y-11351674D01*
X21028825Y-11351674D02*
X21057396Y-11351674D01*
X21057396Y-11351674D02*
X21076444Y-11361198D01*
X21076444Y-11361198D02*
X21085968Y-11370722D01*
X21085968Y-11370722D02*
X21095491Y-11389769D01*
X21095491Y-11389769D02*
X21095491Y-11437388D01*
X21095491Y-11437388D02*
X21085968Y-11456436D01*
X21085968Y-11456436D02*
X21076444Y-11465960D01*
X21076444Y-11465960D02*
X21057396Y-11475484D01*
X21057396Y-11475484D02*
X21000253Y-11475484D01*
X21000253Y-11475484D02*
X20981206Y-11465960D01*
X20981206Y-11465960D02*
X20971682Y-11456436D01*
X21276444Y-11275484D02*
X21181206Y-11275484D01*
X21181206Y-11275484D02*
X21171682Y-11370722D01*
X21171682Y-11370722D02*
X21181206Y-11361198D01*
X21181206Y-11361198D02*
X21200253Y-11351674D01*
X21200253Y-11351674D02*
X21247872Y-11351674D01*
X21247872Y-11351674D02*
X21266920Y-11361198D01*
X21266920Y-11361198D02*
X21276444Y-11370722D01*
X21276444Y-11370722D02*
X21285968Y-11389769D01*
X21285968Y-11389769D02*
X21285968Y-11437388D01*
X21285968Y-11437388D02*
X21276444Y-11456436D01*
X21276444Y-11456436D02*
X21266920Y-11465960D01*
X21266920Y-11465960D02*
X21247872Y-11475484D01*
X21247872Y-11475484D02*
X21200253Y-11475484D01*
X21200253Y-11475484D02*
X21181206Y-11465960D01*
X21181206Y-11465960D02*
X21171682Y-11456436D01*
X21457396Y-11342150D02*
X21457396Y-11475484D01*
X21409777Y-11265960D02*
X21362158Y-11408817D01*
X21362158Y-11408817D02*
X21485968Y-11408817D01*
X21552634Y-11275484D02*
X21552634Y-11313579D01*
X21628825Y-11275484D02*
X21628825Y-11313579D01*
X21924063Y-11551674D02*
X21914539Y-11542150D01*
X21914539Y-11542150D02*
X21895491Y-11513579D01*
X21895491Y-11513579D02*
X21885968Y-11494531D01*
X21885968Y-11494531D02*
X21876444Y-11465960D01*
X21876444Y-11465960D02*
X21866920Y-11418341D01*
X21866920Y-11418341D02*
X21866920Y-11380246D01*
X21866920Y-11380246D02*
X21876444Y-11332627D01*
X21876444Y-11332627D02*
X21885968Y-11304055D01*
X21885968Y-11304055D02*
X21895491Y-11285008D01*
X21895491Y-11285008D02*
X21914539Y-11256436D01*
X21914539Y-11256436D02*
X21924063Y-11246912D01*
X22095491Y-11275484D02*
X22000253Y-11275484D01*
X22000253Y-11275484D02*
X21990730Y-11370722D01*
X21990730Y-11370722D02*
X22000253Y-11361198D01*
X22000253Y-11361198D02*
X22019301Y-11351674D01*
X22019301Y-11351674D02*
X22066920Y-11351674D01*
X22066920Y-11351674D02*
X22085968Y-11361198D01*
X22085968Y-11361198D02*
X22095491Y-11370722D01*
X22095491Y-11370722D02*
X22105015Y-11389769D01*
X22105015Y-11389769D02*
X22105015Y-11437388D01*
X22105015Y-11437388D02*
X22095491Y-11456436D01*
X22095491Y-11456436D02*
X22085968Y-11465960D01*
X22085968Y-11465960D02*
X22066920Y-11475484D01*
X22066920Y-11475484D02*
X22019301Y-11475484D01*
X22019301Y-11475484D02*
X22000253Y-11465960D01*
X22000253Y-11465960D02*
X21990730Y-11456436D01*
X22343111Y-11475484D02*
X22343111Y-11275484D01*
X22428825Y-11475484D02*
X22428825Y-11370722D01*
X22428825Y-11370722D02*
X22419301Y-11351674D01*
X22419301Y-11351674D02*
X22400253Y-11342150D01*
X22400253Y-11342150D02*
X22371682Y-11342150D01*
X22371682Y-11342150D02*
X22352634Y-11351674D01*
X22352634Y-11351674D02*
X22343111Y-11361198D01*
X22552634Y-11475484D02*
X22533587Y-11465960D01*
X22533587Y-11465960D02*
X22524063Y-11456436D01*
X22524063Y-11456436D02*
X22514539Y-11437388D01*
X22514539Y-11437388D02*
X22514539Y-11380246D01*
X22514539Y-11380246D02*
X22524063Y-11361198D01*
X22524063Y-11361198D02*
X22533587Y-11351674D01*
X22533587Y-11351674D02*
X22552634Y-11342150D01*
X22552634Y-11342150D02*
X22581206Y-11342150D01*
X22581206Y-11342150D02*
X22600253Y-11351674D01*
X22600253Y-11351674D02*
X22609777Y-11361198D01*
X22609777Y-11361198D02*
X22619301Y-11380246D01*
X22619301Y-11380246D02*
X22619301Y-11437388D01*
X22619301Y-11437388D02*
X22609777Y-11456436D01*
X22609777Y-11456436D02*
X22600253Y-11465960D01*
X22600253Y-11465960D02*
X22581206Y-11475484D01*
X22581206Y-11475484D02*
X22552634Y-11475484D01*
X22733587Y-11475484D02*
X22714539Y-11465960D01*
X22714539Y-11465960D02*
X22705015Y-11446912D01*
X22705015Y-11446912D02*
X22705015Y-11275484D01*
X22885968Y-11465960D02*
X22866920Y-11475484D01*
X22866920Y-11475484D02*
X22828825Y-11475484D01*
X22828825Y-11475484D02*
X22809777Y-11465960D01*
X22809777Y-11465960D02*
X22800253Y-11446912D01*
X22800253Y-11446912D02*
X22800253Y-11370722D01*
X22800253Y-11370722D02*
X22809777Y-11351674D01*
X22809777Y-11351674D02*
X22828825Y-11342150D01*
X22828825Y-11342150D02*
X22866920Y-11342150D01*
X22866920Y-11342150D02*
X22885968Y-11351674D01*
X22885968Y-11351674D02*
X22895491Y-11370722D01*
X22895491Y-11370722D02*
X22895491Y-11389769D01*
X22895491Y-11389769D02*
X22800253Y-11408817D01*
X22971682Y-11465960D02*
X22990730Y-11475484D01*
X22990730Y-11475484D02*
X23028825Y-11475484D01*
X23028825Y-11475484D02*
X23047872Y-11465960D01*
X23047872Y-11465960D02*
X23057396Y-11446912D01*
X23057396Y-11446912D02*
X23057396Y-11437388D01*
X23057396Y-11437388D02*
X23047872Y-11418341D01*
X23047872Y-11418341D02*
X23028825Y-11408817D01*
X23028825Y-11408817D02*
X23000253Y-11408817D01*
X23000253Y-11408817D02*
X22981206Y-11399293D01*
X22981206Y-11399293D02*
X22971682Y-11380246D01*
X22971682Y-11380246D02*
X22971682Y-11370722D01*
X22971682Y-11370722D02*
X22981206Y-11351674D01*
X22981206Y-11351674D02*
X23000253Y-11342150D01*
X23000253Y-11342150D02*
X23028825Y-11342150D01*
X23028825Y-11342150D02*
X23047872Y-11351674D01*
X23124063Y-11551674D02*
X23133587Y-11542150D01*
X23133587Y-11542150D02*
X23152634Y-11513579D01*
X23152634Y-11513579D02*
X23162158Y-11494531D01*
X23162158Y-11494531D02*
X23171682Y-11465960D01*
X23171682Y-11465960D02*
X23181206Y-11418341D01*
X23181206Y-11418341D02*
X23181206Y-11380246D01*
X23181206Y-11380246D02*
X23171682Y-11332627D01*
X23171682Y-11332627D02*
X23162158Y-11304055D01*
X23162158Y-11304055D02*
X23152634Y-11285008D01*
X23152634Y-11285008D02*
X23133587Y-11256436D01*
X23133587Y-11256436D02*
X23124063Y-11246912D01*
M02*
