%TF.GenerationSoftware,KiCad,Pcbnew,9.0.0*%
%TF.CreationDate,2025-03-07T15:21:47-06:00*%
%TF.ProjectId,robo-roach-v1.0,726f626f-2d72-46f6-9163-682d76312e30,rev?*%
%TF.SameCoordinates,Original*%
%TF.FileFunction,Drillmap*%
%TF.FilePolarity,Positive*%
%FSLAX45Y45*%
G04 Gerber Fmt 4.5, Leading zero omitted, Abs format (unit mm)*
G04 Created by KiCad (PCBNEW 9.0.0) date 2025-03-07 15:21:47*
%MOMM*%
%LPD*%
G01*
G04 APERTURE LIST*
%ADD10C,0.050000*%
%ADD11C,0.200000*%
G04 APERTURE END LIST*
D10*
X18571500Y-8572500D02*
X19528500Y-8572500D01*
X18351500Y-10257500D02*
X18351500Y-8792500D01*
X19748500Y-8792500D02*
X19748500Y-10257500D01*
X19528500Y-8572500D02*
G75*
G02*
X19748500Y-8792500I0J-220000D01*
G01*
X18571500Y-10477500D02*
G75*
G02*
X18351500Y-10257500I0J220000D01*
G01*
X18351500Y-8792500D02*
G75*
G02*
X18571500Y-8572500I220000J0D01*
G01*
X19748500Y-10257500D02*
G75*
G02*
X19528500Y-10477500I-220000J0D01*
G01*
X19528500Y-10477500D02*
X18571500Y-10477500D01*
D11*
X18609777Y-10791484D02*
X18609777Y-10591484D01*
X18609777Y-10591484D02*
X18657396Y-10591484D01*
X18657396Y-10591484D02*
X18685967Y-10601008D01*
X18685967Y-10601008D02*
X18705015Y-10620055D01*
X18705015Y-10620055D02*
X18714539Y-10639103D01*
X18714539Y-10639103D02*
X18724063Y-10677198D01*
X18724063Y-10677198D02*
X18724063Y-10705770D01*
X18724063Y-10705770D02*
X18714539Y-10743865D01*
X18714539Y-10743865D02*
X18705015Y-10762912D01*
X18705015Y-10762912D02*
X18685967Y-10781960D01*
X18685967Y-10781960D02*
X18657396Y-10791484D01*
X18657396Y-10791484D02*
X18609777Y-10791484D01*
X18809777Y-10791484D02*
X18809777Y-10658150D01*
X18809777Y-10696246D02*
X18819301Y-10677198D01*
X18819301Y-10677198D02*
X18828824Y-10667674D01*
X18828824Y-10667674D02*
X18847872Y-10658150D01*
X18847872Y-10658150D02*
X18866920Y-10658150D01*
X18933586Y-10791484D02*
X18933586Y-10658150D01*
X18933586Y-10591484D02*
X18924063Y-10601008D01*
X18924063Y-10601008D02*
X18933586Y-10610531D01*
X18933586Y-10610531D02*
X18943110Y-10601008D01*
X18943110Y-10601008D02*
X18933586Y-10591484D01*
X18933586Y-10591484D02*
X18933586Y-10610531D01*
X19057396Y-10791484D02*
X19038348Y-10781960D01*
X19038348Y-10781960D02*
X19028824Y-10762912D01*
X19028824Y-10762912D02*
X19028824Y-10591484D01*
X19162158Y-10791484D02*
X19143110Y-10781960D01*
X19143110Y-10781960D02*
X19133586Y-10762912D01*
X19133586Y-10762912D02*
X19133586Y-10591484D01*
X19390729Y-10791484D02*
X19390729Y-10591484D01*
X19390729Y-10591484D02*
X19457396Y-10734341D01*
X19457396Y-10734341D02*
X19524063Y-10591484D01*
X19524063Y-10591484D02*
X19524063Y-10791484D01*
X19705015Y-10791484D02*
X19705015Y-10686722D01*
X19705015Y-10686722D02*
X19695491Y-10667674D01*
X19695491Y-10667674D02*
X19676444Y-10658150D01*
X19676444Y-10658150D02*
X19638348Y-10658150D01*
X19638348Y-10658150D02*
X19619301Y-10667674D01*
X19705015Y-10781960D02*
X19685967Y-10791484D01*
X19685967Y-10791484D02*
X19638348Y-10791484D01*
X19638348Y-10791484D02*
X19619301Y-10781960D01*
X19619301Y-10781960D02*
X19609777Y-10762912D01*
X19609777Y-10762912D02*
X19609777Y-10743865D01*
X19609777Y-10743865D02*
X19619301Y-10724817D01*
X19619301Y-10724817D02*
X19638348Y-10715293D01*
X19638348Y-10715293D02*
X19685967Y-10715293D01*
X19685967Y-10715293D02*
X19705015Y-10705770D01*
X19800253Y-10658150D02*
X19800253Y-10858150D01*
X19800253Y-10667674D02*
X19819301Y-10658150D01*
X19819301Y-10658150D02*
X19857396Y-10658150D01*
X19857396Y-10658150D02*
X19876444Y-10667674D01*
X19876444Y-10667674D02*
X19885967Y-10677198D01*
X19885967Y-10677198D02*
X19895491Y-10696246D01*
X19895491Y-10696246D02*
X19895491Y-10753389D01*
X19895491Y-10753389D02*
X19885967Y-10772436D01*
X19885967Y-10772436D02*
X19876444Y-10781960D01*
X19876444Y-10781960D02*
X19857396Y-10791484D01*
X19857396Y-10791484D02*
X19819301Y-10791484D01*
X19819301Y-10791484D02*
X19800253Y-10781960D01*
X19981205Y-10772436D02*
X19990729Y-10781960D01*
X19990729Y-10781960D02*
X19981205Y-10791484D01*
X19981205Y-10791484D02*
X19971682Y-10781960D01*
X19971682Y-10781960D02*
X19981205Y-10772436D01*
X19981205Y-10772436D02*
X19981205Y-10791484D01*
X19981205Y-10667674D02*
X19990729Y-10677198D01*
X19990729Y-10677198D02*
X19981205Y-10686722D01*
X19981205Y-10686722D02*
X19971682Y-10677198D01*
X19971682Y-10677198D02*
X19981205Y-10667674D01*
X19981205Y-10667674D02*
X19981205Y-10686722D01*
M02*
