G04 #@! TF.GenerationSoftware,KiCad,Pcbnew,9.0.0*
G04 #@! TF.CreationDate,2025-03-07T15:22:25-06:00*
G04 #@! TF.ProjectId,robo-roach-v1.0,726f626f-2d72-46f6-9163-682d76312e30,rev?*
G04 #@! TF.SameCoordinates,Original*
G04 #@! TF.FileFunction,Legend,Bot*
G04 #@! TF.FilePolarity,Positive*
%FSLAX46Y46*%
G04 Gerber Fmt 4.6, Leading zero omitted, Abs format (unit mm)*
G04 Created by KiCad (PCBNEW 9.0.0) date 2025-03-07 15:22:25*
%MOMM*%
%LPD*%
G01*
G04 APERTURE LIST*
%ADD10C,0.100000*%
%ADD11C,0.120000*%
%ADD12R,1.800000X1.800000*%
%ADD13C,1.800000*%
%ADD14R,1.400000X1.400000*%
%ADD15C,1.400000*%
G04 APERTURE END LIST*
D10*
X132167419Y-70786666D02*
X132881704Y-70786666D01*
X132881704Y-70786666D02*
X133024561Y-70739047D01*
X133024561Y-70739047D02*
X133119800Y-70643809D01*
X133119800Y-70643809D02*
X133167419Y-70500952D01*
X133167419Y-70500952D02*
X133167419Y-70405714D01*
X132167419Y-71167619D02*
X132167419Y-71786666D01*
X132167419Y-71786666D02*
X132548371Y-71453333D01*
X132548371Y-71453333D02*
X132548371Y-71596190D01*
X132548371Y-71596190D02*
X132595990Y-71691428D01*
X132595990Y-71691428D02*
X132643609Y-71739047D01*
X132643609Y-71739047D02*
X132738847Y-71786666D01*
X132738847Y-71786666D02*
X132976942Y-71786666D01*
X132976942Y-71786666D02*
X133072180Y-71739047D01*
X133072180Y-71739047D02*
X133119800Y-71691428D01*
X133119800Y-71691428D02*
X133167419Y-71596190D01*
X133167419Y-71596190D02*
X133167419Y-71310476D01*
X133167419Y-71310476D02*
X133119800Y-71215238D01*
X133119800Y-71215238D02*
X133072180Y-71167619D01*
D11*
X133980000Y-73660000D02*
X133980000Y-71120000D01*
X133980000Y-73660000D02*
X136520000Y-73660000D01*
X136520000Y-68580000D02*
X139060000Y-68580000D01*
D10*
X136520000Y-73660000D02*
X133980000Y-73660000D01*
D11*
X139060000Y-68580000D02*
X139060000Y-71120000D01*
%LPC*%
D12*
X135250000Y-67310000D03*
D13*
X137790000Y-67310000D03*
D14*
X135250000Y-71120000D03*
D15*
X137790000Y-71120000D03*
%LPD*%
M02*
