G04 #@! TF.GenerationSoftware,KiCad,Pcbnew,9.0.0*
G04 #@! TF.CreationDate,2025-03-07T15:22:25-06:00*
G04 #@! TF.ProjectId,robo-roach-v1.0,726f626f-2d72-46f6-9163-682d76312e30,rev?*
G04 #@! TF.SameCoordinates,Original*
G04 #@! TF.FileFunction,Legend,Top*
G04 #@! TF.FilePolarity,Positive*
%FSLAX46Y46*%
G04 Gerber Fmt 4.6, Leading zero omitted, Abs format (unit mm)*
G04 Created by KiCad (PCBNEW 9.0.0) date 2025-03-07 15:22:25*
%MOMM*%
%LPD*%
G01*
G04 APERTURE LIST*
G04 Aperture macros list*
%AMRoundRect*
0 Rectangle with rounded corners*
0 $1 Rounding radius*
0 $2 $3 $4 $5 $6 $7 $8 $9 X,Y pos of 4 corners*
0 Add a 4 corners polygon primitive as box body*
4,1,4,$2,$3,$4,$5,$6,$7,$8,$9,$2,$3,0*
0 Add four circle primitives for the rounded corners*
1,1,$1+$1,$2,$3*
1,1,$1+$1,$4,$5*
1,1,$1+$1,$6,$7*
1,1,$1+$1,$8,$9*
0 Add four rect primitives between the rounded corners*
20,1,$1+$1,$2,$3,$4,$5,0*
20,1,$1+$1,$4,$5,$6,$7,0*
20,1,$1+$1,$6,$7,$8,$9,0*
20,1,$1+$1,$8,$9,$2,$3,0*%
G04 Aperture macros list end*
%ADD10C,0.150000*%
%ADD11C,0.120000*%
%ADD12R,1.800000X1.800000*%
%ADD13C,1.800000*%
%ADD14RoundRect,0.237500X0.237500X-0.250000X0.237500X0.250000X-0.237500X0.250000X-0.237500X-0.250000X0*%
%ADD15R,1.400000X1.400000*%
%ADD16C,1.400000*%
G04 APERTURE END LIST*
D10*
X133164819Y-68048094D02*
X132164819Y-68048094D01*
X132164819Y-68048094D02*
X132164819Y-67809999D01*
X132164819Y-67809999D02*
X132212438Y-67667142D01*
X132212438Y-67667142D02*
X132307676Y-67571904D01*
X132307676Y-67571904D02*
X132402914Y-67524285D01*
X132402914Y-67524285D02*
X132593390Y-67476666D01*
X132593390Y-67476666D02*
X132736247Y-67476666D01*
X132736247Y-67476666D02*
X132926723Y-67524285D01*
X132926723Y-67524285D02*
X133021961Y-67571904D01*
X133021961Y-67571904D02*
X133117200Y-67667142D01*
X133117200Y-67667142D02*
X133164819Y-67809999D01*
X133164819Y-67809999D02*
X133164819Y-68048094D01*
X132260057Y-67095713D02*
X132212438Y-67048094D01*
X132212438Y-67048094D02*
X132164819Y-66952856D01*
X132164819Y-66952856D02*
X132164819Y-66714761D01*
X132164819Y-66714761D02*
X132212438Y-66619523D01*
X132212438Y-66619523D02*
X132260057Y-66571904D01*
X132260057Y-66571904D02*
X132355295Y-66524285D01*
X132355295Y-66524285D02*
X132450533Y-66524285D01*
X132450533Y-66524285D02*
X132593390Y-66571904D01*
X132593390Y-66571904D02*
X133164819Y-67143332D01*
X133164819Y-67143332D02*
X133164819Y-66524285D01*
X141419819Y-66206666D02*
X140943628Y-66539999D01*
X141419819Y-66778094D02*
X140419819Y-66778094D01*
X140419819Y-66778094D02*
X140419819Y-66397142D01*
X140419819Y-66397142D02*
X140467438Y-66301904D01*
X140467438Y-66301904D02*
X140515057Y-66254285D01*
X140515057Y-66254285D02*
X140610295Y-66206666D01*
X140610295Y-66206666D02*
X140753152Y-66206666D01*
X140753152Y-66206666D02*
X140848390Y-66254285D01*
X140848390Y-66254285D02*
X140896009Y-66301904D01*
X140896009Y-66301904D02*
X140943628Y-66397142D01*
X140943628Y-66397142D02*
X140943628Y-66778094D01*
X140515057Y-65825713D02*
X140467438Y-65778094D01*
X140467438Y-65778094D02*
X140419819Y-65682856D01*
X140419819Y-65682856D02*
X140419819Y-65444761D01*
X140419819Y-65444761D02*
X140467438Y-65349523D01*
X140467438Y-65349523D02*
X140515057Y-65301904D01*
X140515057Y-65301904D02*
X140610295Y-65254285D01*
X140610295Y-65254285D02*
X140705533Y-65254285D01*
X140705533Y-65254285D02*
X140848390Y-65301904D01*
X140848390Y-65301904D02*
X141419819Y-65873332D01*
X141419819Y-65873332D02*
X141419819Y-65254285D01*
D11*
X133960000Y-65765000D02*
X133960000Y-68855000D01*
X133960000Y-65765170D02*
G75*
G02*
X139510000Y-67309952I2560000J-1544830D01*
G01*
X139510000Y-67310048D02*
G75*
G02*
X133960000Y-68854830I-2990000J48D01*
G01*
X139020000Y-67310000D02*
G75*
G02*
X134020000Y-67310000I-2500000J0D01*
G01*
X134020000Y-67310000D02*
G75*
G02*
X139020000Y-67310000I2500000J0D01*
G01*
X140442500Y-68834724D02*
X140442500Y-68325276D01*
X141487500Y-68834724D02*
X141487500Y-68325276D01*
%LPC*%
D12*
X135250000Y-67310000D03*
D13*
X137790000Y-67310000D03*
D14*
X140965000Y-69492500D03*
X140965000Y-67667500D03*
D15*
X135250000Y-71120000D03*
D16*
X137790000Y-71120000D03*
%LPD*%
M02*
