%TF.GenerationSoftware,KiCad,Pcbnew,9.0.0*%
%TF.CreationDate,2025-03-07T13:22:50-06:00*%
%TF.ProjectId,robo-roach-v1.0,726f626f-2d72-46f6-9163-682d76312e30,rev?*%
%TF.SameCoordinates,Original*%
%TF.FileFunction,Drillmap*%
%TF.FilePolarity,Positive*%
%FSLAX45Y45*%
G04 Gerber Fmt 4.5, Leading zero omitted, Abs format (unit mm)*
G04 Created by KiCad (PCBNEW 9.0.0) date 2025-03-07 13:22:50*
%MOMM*%
%LPD*%
G01*
G04 APERTURE LIST*
%ADD10C,0.050000*%
%ADD11C,0.200000*%
G04 APERTURE END LIST*
D10*
X12920000Y-13716000D02*
G75*
G02*
X12700000Y-13496000I0J220000D01*
G01*
X12700000Y-7840000D02*
G75*
G02*
X12920000Y-7620000I220000J0D01*
G01*
X16510000Y-13496000D02*
G75*
G02*
X16290000Y-13716000I-220000J0D01*
G01*
X16290000Y-7620000D02*
G75*
G02*
X16510000Y-7840000I0J-220000D01*
G01*
X12700000Y-13496000D02*
X12700000Y-7840000D01*
X16290000Y-13716000D02*
X12920000Y-13716000D01*
X12920000Y-7620000D02*
X16290000Y-7620000D01*
X16510000Y-7840000D02*
X16510000Y-13496000D01*
D11*
X12958277Y-14029984D02*
X12958277Y-13829984D01*
X12958277Y-13829984D02*
X13005896Y-13829984D01*
X13005896Y-13829984D02*
X13034467Y-13839508D01*
X13034467Y-13839508D02*
X13053515Y-13858555D01*
X13053515Y-13858555D02*
X13063039Y-13877603D01*
X13063039Y-13877603D02*
X13072562Y-13915698D01*
X13072562Y-13915698D02*
X13072562Y-13944269D01*
X13072562Y-13944269D02*
X13063039Y-13982365D01*
X13063039Y-13982365D02*
X13053515Y-14001412D01*
X13053515Y-14001412D02*
X13034467Y-14020460D01*
X13034467Y-14020460D02*
X13005896Y-14029984D01*
X13005896Y-14029984D02*
X12958277Y-14029984D01*
X13158277Y-14029984D02*
X13158277Y-13896650D01*
X13158277Y-13934746D02*
X13167801Y-13915698D01*
X13167801Y-13915698D02*
X13177324Y-13906174D01*
X13177324Y-13906174D02*
X13196372Y-13896650D01*
X13196372Y-13896650D02*
X13215420Y-13896650D01*
X13282086Y-14029984D02*
X13282086Y-13896650D01*
X13282086Y-13829984D02*
X13272562Y-13839508D01*
X13272562Y-13839508D02*
X13282086Y-13849031D01*
X13282086Y-13849031D02*
X13291610Y-13839508D01*
X13291610Y-13839508D02*
X13282086Y-13829984D01*
X13282086Y-13829984D02*
X13282086Y-13849031D01*
X13405896Y-14029984D02*
X13386848Y-14020460D01*
X13386848Y-14020460D02*
X13377324Y-14001412D01*
X13377324Y-14001412D02*
X13377324Y-13829984D01*
X13510658Y-14029984D02*
X13491610Y-14020460D01*
X13491610Y-14020460D02*
X13482086Y-14001412D01*
X13482086Y-14001412D02*
X13482086Y-13829984D01*
X13739229Y-14029984D02*
X13739229Y-13829984D01*
X13739229Y-13829984D02*
X13805896Y-13972841D01*
X13805896Y-13972841D02*
X13872562Y-13829984D01*
X13872562Y-13829984D02*
X13872562Y-14029984D01*
X14053515Y-14029984D02*
X14053515Y-13925222D01*
X14053515Y-13925222D02*
X14043991Y-13906174D01*
X14043991Y-13906174D02*
X14024943Y-13896650D01*
X14024943Y-13896650D02*
X13986848Y-13896650D01*
X13986848Y-13896650D02*
X13967801Y-13906174D01*
X14053515Y-14020460D02*
X14034467Y-14029984D01*
X14034467Y-14029984D02*
X13986848Y-14029984D01*
X13986848Y-14029984D02*
X13967801Y-14020460D01*
X13967801Y-14020460D02*
X13958277Y-14001412D01*
X13958277Y-14001412D02*
X13958277Y-13982365D01*
X13958277Y-13982365D02*
X13967801Y-13963317D01*
X13967801Y-13963317D02*
X13986848Y-13953793D01*
X13986848Y-13953793D02*
X14034467Y-13953793D01*
X14034467Y-13953793D02*
X14053515Y-13944269D01*
X14148753Y-13896650D02*
X14148753Y-14096650D01*
X14148753Y-13906174D02*
X14167801Y-13896650D01*
X14167801Y-13896650D02*
X14205896Y-13896650D01*
X14205896Y-13896650D02*
X14224943Y-13906174D01*
X14224943Y-13906174D02*
X14234467Y-13915698D01*
X14234467Y-13915698D02*
X14243991Y-13934746D01*
X14243991Y-13934746D02*
X14243991Y-13991888D01*
X14243991Y-13991888D02*
X14234467Y-14010936D01*
X14234467Y-14010936D02*
X14224943Y-14020460D01*
X14224943Y-14020460D02*
X14205896Y-14029984D01*
X14205896Y-14029984D02*
X14167801Y-14029984D01*
X14167801Y-14029984D02*
X14148753Y-14020460D01*
X14329705Y-14010936D02*
X14339229Y-14020460D01*
X14339229Y-14020460D02*
X14329705Y-14029984D01*
X14329705Y-14029984D02*
X14320182Y-14020460D01*
X14320182Y-14020460D02*
X14329705Y-14010936D01*
X14329705Y-14010936D02*
X14329705Y-14029984D01*
X14329705Y-13906174D02*
X14339229Y-13915698D01*
X14339229Y-13915698D02*
X14329705Y-13925222D01*
X14329705Y-13925222D02*
X14320182Y-13915698D01*
X14320182Y-13915698D02*
X14329705Y-13906174D01*
X14329705Y-13906174D02*
X14329705Y-13925222D01*
M02*
