G04 #@! TF.GenerationSoftware,KiCad,Pcbnew,9.0.0*
G04 #@! TF.CreationDate,2025-03-07T13:21:57-06:00*
G04 #@! TF.ProjectId,robo-roach-v1.0,726f626f-2d72-46f6-9163-682d76312e30,rev?*
G04 #@! TF.SameCoordinates,Original*
G04 #@! TF.FileFunction,Copper,L4,Bot*
G04 #@! TF.FilePolarity,Positive*
%FSLAX46Y46*%
G04 Gerber Fmt 4.6, Leading zero omitted, Abs format (unit mm)*
G04 Created by KiCad (PCBNEW 9.0.0) date 2025-03-07 13:21:57*
%MOMM*%
%LPD*%
G01*
G04 APERTURE LIST*
G04 #@! TA.AperFunction,ComponentPad*
%ADD10C,3.800000*%
G04 #@! TD*
G04 #@! TA.AperFunction,HeatsinkPad*
%ADD11O,1.000000X1.700000*%
G04 #@! TD*
G04 #@! TA.AperFunction,ComponentPad*
%ADD12R,1.600000X1.600000*%
G04 #@! TD*
G04 #@! TA.AperFunction,ComponentPad*
%ADD13C,1.600000*%
G04 #@! TD*
G04 #@! TA.AperFunction,ComponentPad*
%ADD14C,1.000000*%
G04 #@! TD*
G04 #@! TA.AperFunction,ComponentPad*
%ADD15R,1.400000X1.400000*%
G04 #@! TD*
G04 #@! TA.AperFunction,ComponentPad*
%ADD16C,1.400000*%
G04 #@! TD*
G04 #@! TA.AperFunction,ComponentPad*
%ADD17C,1.700000*%
G04 #@! TD*
G04 #@! TA.AperFunction,ViaPad*
%ADD18C,0.400000*%
G04 #@! TD*
G04 APERTURE END LIST*
D10*
X162560000Y-134620000D03*
X162560000Y-78740000D03*
X129540000Y-78740000D03*
D11*
X157990000Y-133515000D03*
X157990000Y-129715000D03*
X149350000Y-133515000D03*
X149350000Y-129715000D03*
D12*
X146050000Y-125730000D03*
D13*
X144050000Y-125730000D03*
D14*
X142240000Y-115570000D03*
X137160000Y-86360000D03*
X154940000Y-86360000D03*
X154940000Y-91440000D03*
X137160000Y-91440000D03*
X162560000Y-121920000D03*
X133350000Y-125730000D03*
X149860000Y-91440000D03*
D15*
X151130000Y-97060000D03*
D16*
X151130000Y-99060000D03*
X151130000Y-101060000D03*
X149130000Y-97060000D03*
X149130000Y-99060000D03*
X149130000Y-101060000D03*
X130810000Y-115570000D03*
D15*
X130810000Y-113030000D03*
D17*
X145670000Y-132715000D03*
X140970000Y-132715000D03*
X136270000Y-132715000D03*
D15*
X161290000Y-113030000D03*
D16*
X161290000Y-115570000D03*
D15*
X130810000Y-107950000D03*
D16*
X130810000Y-105410000D03*
D15*
X161290000Y-105410000D03*
D16*
X161290000Y-107950000D03*
D15*
X130810000Y-91440000D03*
D16*
X130810000Y-88900000D03*
X130810000Y-86360000D03*
X130810000Y-83820000D03*
D15*
X161290000Y-91440000D03*
D16*
X161290000Y-88900000D03*
X161290000Y-86360000D03*
X161290000Y-83820000D03*
D15*
X132080000Y-133350000D03*
D16*
X129540000Y-133350000D03*
D18*
X137160000Y-106680000D03*
X137310000Y-109085000D03*
X138735000Y-108085000D03*
X138885000Y-106680000D03*
X137567500Y-116205000D03*
X128905000Y-122165000D03*
X137292500Y-120650000D03*
X150495000Y-121512500D03*
X152532500Y-121600000D03*
X154807500Y-119700000D03*
X154832500Y-115570000D03*
X155802500Y-108585000D03*
X154077500Y-108585000D03*
X155652500Y-106180000D03*
X154227500Y-107180000D03*
X154807500Y-120650000D03*
X158750000Y-119737500D03*
X156845000Y-119787500D03*
X149225000Y-109577500D03*
X148162500Y-86685000D03*
X143937500Y-87335000D03*
X148162500Y-85385000D03*
X143937500Y-86035000D03*
X145187500Y-83185000D03*
X157202500Y-95885000D03*
X134897500Y-95885000D03*
X143917500Y-92075000D03*
X140107500Y-92075000D03*
X140400000Y-95250000D03*
X146912500Y-83185000D03*
X145642500Y-92075000D03*
X141832500Y-92075000D03*
X139292500Y-116205000D03*
X139567500Y-120650000D03*
X135255000Y-121562500D03*
X141605000Y-121512500D03*
X137517500Y-123825000D03*
X150920000Y-129535000D03*
X156420000Y-129535000D03*
X157757500Y-127000000D03*
X149582500Y-127000000D03*
X152757500Y-123825000D03*
X152532500Y-120650000D03*
X150495000Y-119787500D03*
X156845000Y-121512500D03*
X143830000Y-109552500D03*
X143867500Y-107315000D03*
X134922500Y-98110000D03*
X145350000Y-95250000D03*
X157177500Y-100010000D03*
G04 #@! TA.AperFunction,Conductor*
G36*
X161725578Y-76414852D02*
G01*
X161739930Y-76449500D01*
X161725578Y-76484148D01*
X161707114Y-76495750D01*
X161640107Y-76519196D01*
X161640101Y-76519199D01*
X161397257Y-76636147D01*
X161397247Y-76636152D01*
X161169001Y-76779567D01*
X161048899Y-76875345D01*
X161977263Y-77803709D01*
X161843398Y-77900967D01*
X161720967Y-78023398D01*
X161623709Y-78157263D01*
X160695345Y-77228899D01*
X160599567Y-77349001D01*
X160456152Y-77577247D01*
X160456147Y-77577257D01*
X160339199Y-77820101D01*
X160339196Y-77820107D01*
X160250163Y-78074550D01*
X160190180Y-78337356D01*
X160190180Y-78337360D01*
X160160000Y-78605218D01*
X160160000Y-78874781D01*
X160190180Y-79142639D01*
X160190180Y-79142643D01*
X160250163Y-79405449D01*
X160339196Y-79659892D01*
X160339199Y-79659898D01*
X160456147Y-79902742D01*
X160456152Y-79902752D01*
X160599567Y-80130998D01*
X160695345Y-80251099D01*
X161623708Y-79322736D01*
X161720967Y-79456602D01*
X161843398Y-79579033D01*
X161977262Y-79676290D01*
X161048899Y-80604653D01*
X161169001Y-80700432D01*
X161397247Y-80843847D01*
X161397257Y-80843852D01*
X161640101Y-80960800D01*
X161640107Y-80960803D01*
X161894550Y-81049836D01*
X161894549Y-81049836D01*
X162157358Y-81109819D01*
X162425218Y-81140000D01*
X162694782Y-81140000D01*
X162962639Y-81109819D01*
X162962643Y-81109819D01*
X163225449Y-81049836D01*
X163479892Y-80960803D01*
X163479898Y-80960800D01*
X163722742Y-80843852D01*
X163722752Y-80843847D01*
X163951000Y-80700430D01*
X163951007Y-80700426D01*
X164071098Y-80604654D01*
X164071099Y-80604653D01*
X163142736Y-79676290D01*
X163276602Y-79579033D01*
X163399033Y-79456602D01*
X163496290Y-79322736D01*
X164424653Y-80251099D01*
X164424654Y-80251098D01*
X164520426Y-80131007D01*
X164520430Y-80131000D01*
X164663847Y-79902752D01*
X164663852Y-79902742D01*
X164780800Y-79659898D01*
X164780803Y-79659892D01*
X164804250Y-79592885D01*
X164829240Y-79564922D01*
X164866684Y-79562819D01*
X164894647Y-79587809D01*
X164899500Y-79609069D01*
X164899500Y-133750930D01*
X164885148Y-133785578D01*
X164850500Y-133799930D01*
X164815852Y-133785578D01*
X164804250Y-133767114D01*
X164780803Y-133700107D01*
X164780800Y-133700101D01*
X164663852Y-133457257D01*
X164663847Y-133457247D01*
X164520432Y-133229001D01*
X164424653Y-133108899D01*
X163496290Y-134037262D01*
X163399033Y-133903398D01*
X163276602Y-133780967D01*
X163142735Y-133683708D01*
X164071099Y-132755345D01*
X163950998Y-132659567D01*
X163722752Y-132516152D01*
X163722742Y-132516147D01*
X163479898Y-132399199D01*
X163479892Y-132399196D01*
X163225449Y-132310163D01*
X163225450Y-132310163D01*
X162962641Y-132250180D01*
X162694782Y-132220000D01*
X162425218Y-132220000D01*
X162157360Y-132250180D01*
X162157356Y-132250180D01*
X161894550Y-132310163D01*
X161640107Y-132399196D01*
X161640101Y-132399199D01*
X161397257Y-132516147D01*
X161397247Y-132516152D01*
X161169001Y-132659567D01*
X161048899Y-132755345D01*
X161977263Y-133683709D01*
X161843398Y-133780967D01*
X161720967Y-133903398D01*
X161623709Y-134037263D01*
X160695345Y-133108899D01*
X160599567Y-133229001D01*
X160456152Y-133457247D01*
X160456147Y-133457257D01*
X160339199Y-133700101D01*
X160339196Y-133700107D01*
X160250163Y-133954550D01*
X160190180Y-134217356D01*
X160190180Y-134217360D01*
X160160000Y-134485218D01*
X160160000Y-134754781D01*
X160190180Y-135022639D01*
X160190180Y-135022643D01*
X160250163Y-135285449D01*
X160339196Y-135539892D01*
X160339199Y-135539898D01*
X160456147Y-135782742D01*
X160456152Y-135782752D01*
X160599567Y-136010998D01*
X160695345Y-136131099D01*
X161623708Y-135202736D01*
X161720967Y-135336602D01*
X161843398Y-135459033D01*
X161977262Y-135556290D01*
X161048899Y-136484653D01*
X161169001Y-136580432D01*
X161397247Y-136723847D01*
X161397257Y-136723852D01*
X161640101Y-136840800D01*
X161640107Y-136840803D01*
X161707114Y-136864250D01*
X161735078Y-136889240D01*
X161737180Y-136926684D01*
X161712190Y-136954648D01*
X161690930Y-136959500D01*
X129201603Y-136959500D01*
X129198398Y-136959395D01*
X128942213Y-136942603D01*
X128935864Y-136941767D01*
X128685636Y-136891994D01*
X128679457Y-136890339D01*
X128437862Y-136808328D01*
X128431941Y-136805875D01*
X128203129Y-136693038D01*
X128197582Y-136689835D01*
X128033849Y-136580432D01*
X127985451Y-136548093D01*
X127980366Y-136544191D01*
X127788554Y-136375977D01*
X127784022Y-136371445D01*
X127615808Y-136179633D01*
X127611906Y-136174548D01*
X127582874Y-136131099D01*
X127470161Y-135962413D01*
X127466966Y-135956878D01*
X127354122Y-135728054D01*
X127351671Y-135722137D01*
X127323589Y-135639410D01*
X127269657Y-135480534D01*
X127268007Y-135474373D01*
X127218229Y-135224122D01*
X127217396Y-135217786D01*
X127200605Y-134961601D01*
X127200500Y-134958396D01*
X127200500Y-134357883D01*
X128885669Y-134357883D01*
X128911063Y-134376331D01*
X129079361Y-134462084D01*
X129258998Y-134520451D01*
X129259001Y-134520452D01*
X129445559Y-134550000D01*
X129634441Y-134550000D01*
X129820998Y-134520452D01*
X129821001Y-134520451D01*
X130000638Y-134462084D01*
X130168933Y-134376333D01*
X130194328Y-134357882D01*
X129540000Y-133703554D01*
X128885669Y-134357883D01*
X127200500Y-134357883D01*
X127200500Y-133255558D01*
X128340000Y-133255558D01*
X128340000Y-133444441D01*
X128369547Y-133630998D01*
X128369548Y-133631001D01*
X128427915Y-133810638D01*
X128513669Y-133978939D01*
X128513671Y-133978943D01*
X128532115Y-134004328D01*
X128532116Y-134004328D01*
X129186446Y-133350000D01*
X129186446Y-133349999D01*
X129140369Y-133303922D01*
X129190000Y-133303922D01*
X129190000Y-133396078D01*
X129213852Y-133485095D01*
X129259930Y-133564905D01*
X129325095Y-133630070D01*
X129404905Y-133676148D01*
X129493922Y-133700000D01*
X129586078Y-133700000D01*
X129675095Y-133676148D01*
X129754905Y-133630070D01*
X129820070Y-133564905D01*
X129866148Y-133485095D01*
X129890000Y-133396078D01*
X129890000Y-133349999D01*
X129893554Y-133349999D01*
X129893554Y-133350000D01*
X130547882Y-134004328D01*
X130566333Y-133978933D01*
X130652084Y-133810638D01*
X130710451Y-133631001D01*
X130710452Y-133630998D01*
X130740000Y-133444441D01*
X130740000Y-133255558D01*
X130710452Y-133069001D01*
X130710451Y-133068998D01*
X130652084Y-132889361D01*
X130566331Y-132721063D01*
X130547883Y-132695669D01*
X129893554Y-133349999D01*
X129890000Y-133349999D01*
X129890000Y-133303922D01*
X129866148Y-133214905D01*
X129820070Y-133135095D01*
X129754905Y-133069930D01*
X129675095Y-133023852D01*
X129586078Y-133000000D01*
X129493922Y-133000000D01*
X129404905Y-133023852D01*
X129325095Y-133069930D01*
X129259930Y-133135095D01*
X129213852Y-133214905D01*
X129190000Y-133303922D01*
X129140369Y-133303922D01*
X128532117Y-132695670D01*
X128513666Y-132721066D01*
X128427915Y-132889361D01*
X128369548Y-133068998D01*
X128369547Y-133069001D01*
X128340000Y-133255558D01*
X127200500Y-133255558D01*
X127200500Y-132342117D01*
X128885670Y-132342117D01*
X129539999Y-132996445D01*
X129896350Y-132640095D01*
X131279500Y-132640095D01*
X131279500Y-134059894D01*
X131279501Y-134059898D01*
X131285331Y-134089213D01*
X131285331Y-134089214D01*
X131285332Y-134089215D01*
X131285332Y-134089216D01*
X131307542Y-134122456D01*
X131307543Y-134122457D01*
X131340787Y-134144669D01*
X131370101Y-134150500D01*
X132789898Y-134150499D01*
X132819213Y-134144669D01*
X132852457Y-134122457D01*
X132874669Y-134089213D01*
X132880500Y-134059899D01*
X132880499Y-132640102D01*
X132876776Y-132621384D01*
X135319500Y-132621384D01*
X135319500Y-132808616D01*
X135335561Y-132889361D01*
X135356026Y-132992248D01*
X135356029Y-132992258D01*
X135427675Y-133165225D01*
X135427676Y-133165227D01*
X135427678Y-133165231D01*
X135531698Y-133320908D01*
X135664092Y-133453302D01*
X135819769Y-133557322D01*
X135819774Y-133557324D01*
X135992741Y-133628970D01*
X135992743Y-133628970D01*
X135992749Y-133628973D01*
X136176384Y-133665500D01*
X136176387Y-133665500D01*
X136363613Y-133665500D01*
X136363616Y-133665500D01*
X136547251Y-133628973D01*
X136720231Y-133557322D01*
X136875908Y-133453302D01*
X137008302Y-133320908D01*
X137112322Y-133165231D01*
X137183973Y-132992251D01*
X137220500Y-132808616D01*
X137220500Y-132621384D01*
X140019500Y-132621384D01*
X140019500Y-132808616D01*
X140035561Y-132889361D01*
X140056026Y-132992248D01*
X140056029Y-132992258D01*
X140127675Y-133165225D01*
X140127676Y-133165227D01*
X140127678Y-133165231D01*
X140231698Y-133320908D01*
X140364092Y-133453302D01*
X140519769Y-133557322D01*
X140519774Y-133557324D01*
X140692741Y-133628970D01*
X140692743Y-133628970D01*
X140692749Y-133628973D01*
X140876384Y-133665500D01*
X140876387Y-133665500D01*
X141063613Y-133665500D01*
X141063616Y-133665500D01*
X141247251Y-133628973D01*
X141420231Y-133557322D01*
X141575908Y-133453302D01*
X141708302Y-133320908D01*
X141812322Y-133165231D01*
X141883973Y-132992251D01*
X141920500Y-132808616D01*
X141920500Y-132621384D01*
X144719500Y-132621384D01*
X144719500Y-132808616D01*
X144735561Y-132889361D01*
X144756026Y-132992248D01*
X144756029Y-132992258D01*
X144827675Y-133165225D01*
X144827676Y-133165227D01*
X144827678Y-133165231D01*
X144931698Y-133320908D01*
X145064092Y-133453302D01*
X145219769Y-133557322D01*
X145219774Y-133557324D01*
X145392741Y-133628970D01*
X145392743Y-133628970D01*
X145392749Y-133628973D01*
X145576384Y-133665500D01*
X145576387Y-133665500D01*
X145763613Y-133665500D01*
X145763616Y-133665500D01*
X145947251Y-133628973D01*
X146120231Y-133557322D01*
X146275908Y-133453302D01*
X146408302Y-133320908D01*
X146512322Y-133165231D01*
X146545166Y-133085939D01*
X148749500Y-133085939D01*
X148749500Y-133944060D01*
X148790422Y-134096782D01*
X148790423Y-134096786D01*
X148869475Y-134233709D01*
X148869478Y-134233713D01*
X148869480Y-134233716D01*
X148981284Y-134345520D01*
X148981287Y-134345521D01*
X148981290Y-134345524D01*
X149118213Y-134424576D01*
X149118215Y-134424576D01*
X149118216Y-134424577D01*
X149162766Y-134436514D01*
X149270939Y-134465499D01*
X149270940Y-134465500D01*
X149270943Y-134465500D01*
X149429060Y-134465500D01*
X149429060Y-134465499D01*
X149581784Y-134424577D01*
X149718716Y-134345520D01*
X149830520Y-134233716D01*
X149878565Y-134150499D01*
X149909576Y-134096786D01*
X149909576Y-134096785D01*
X149909577Y-134096784D01*
X149950499Y-133944060D01*
X149950500Y-133944060D01*
X149950500Y-133085940D01*
X149950499Y-133085939D01*
X157389500Y-133085939D01*
X157389500Y-133944060D01*
X157430422Y-134096782D01*
X157430423Y-134096786D01*
X157509475Y-134233709D01*
X157509478Y-134233713D01*
X157509480Y-134233716D01*
X157621284Y-134345520D01*
X157621287Y-134345521D01*
X157621290Y-134345524D01*
X157758213Y-134424576D01*
X157758215Y-134424576D01*
X157758216Y-134424577D01*
X157802766Y-134436514D01*
X157910939Y-134465499D01*
X157910940Y-134465500D01*
X157910943Y-134465500D01*
X158069060Y-134465500D01*
X158069060Y-134465499D01*
X158103406Y-134456295D01*
X158177236Y-134436514D01*
X158196851Y-134431257D01*
X158221784Y-134424577D01*
X158358716Y-134345520D01*
X158470520Y-134233716D01*
X158518565Y-134150499D01*
X158549576Y-134096786D01*
X158549576Y-134096785D01*
X158549577Y-134096784D01*
X158590499Y-133944060D01*
X158590500Y-133944060D01*
X158590500Y-133085940D01*
X158590499Y-133085939D01*
X158565395Y-132992251D01*
X158549577Y-132933216D01*
X158549576Y-132933215D01*
X158549576Y-132933213D01*
X158472083Y-132798990D01*
X158470524Y-132796290D01*
X158470521Y-132796287D01*
X158470520Y-132796284D01*
X158358716Y-132684480D01*
X158358713Y-132684478D01*
X158358709Y-132684475D01*
X158221786Y-132605423D01*
X158221782Y-132605422D01*
X158069060Y-132564500D01*
X158069057Y-132564500D01*
X157910943Y-132564500D01*
X157910940Y-132564500D01*
X157758217Y-132605422D01*
X157758213Y-132605423D01*
X157621290Y-132684475D01*
X157621281Y-132684482D01*
X157509482Y-132796281D01*
X157509475Y-132796290D01*
X157430423Y-132933213D01*
X157430422Y-132933217D01*
X157389500Y-133085939D01*
X149950499Y-133085939D01*
X149925395Y-132992251D01*
X149909577Y-132933216D01*
X149909576Y-132933215D01*
X149909576Y-132933213D01*
X149830524Y-132796290D01*
X149830521Y-132796287D01*
X149830520Y-132796284D01*
X149718716Y-132684480D01*
X149718713Y-132684478D01*
X149718709Y-132684475D01*
X149581786Y-132605423D01*
X149581782Y-132605422D01*
X149429060Y-132564500D01*
X149429057Y-132564500D01*
X149270943Y-132564500D01*
X149270940Y-132564500D01*
X149118217Y-132605422D01*
X149118213Y-132605423D01*
X148981290Y-132684475D01*
X148981281Y-132684482D01*
X148869482Y-132796281D01*
X148869475Y-132796290D01*
X148790423Y-132933213D01*
X148790422Y-132933217D01*
X148749500Y-133085939D01*
X146545166Y-133085939D01*
X146583973Y-132992251D01*
X146620500Y-132808616D01*
X146620500Y-132621384D01*
X146583973Y-132437749D01*
X146512322Y-132264769D01*
X146408302Y-132109092D01*
X146275908Y-131976698D01*
X146120231Y-131872678D01*
X146120227Y-131872676D01*
X146120225Y-131872675D01*
X145947258Y-131801029D01*
X145947248Y-131801026D01*
X145873194Y-131786296D01*
X145763616Y-131764500D01*
X145576384Y-131764500D01*
X145484986Y-131782680D01*
X145392751Y-131801026D01*
X145392741Y-131801029D01*
X145219774Y-131872675D01*
X145219770Y-131872677D01*
X145219769Y-131872678D01*
X145180195Y-131899120D01*
X145064092Y-131976697D01*
X144931697Y-132109092D01*
X144827675Y-132264774D01*
X144756029Y-132437741D01*
X144756026Y-132437751D01*
X144740433Y-132516147D01*
X144719500Y-132621384D01*
X141920500Y-132621384D01*
X141883973Y-132437749D01*
X141812322Y-132264769D01*
X141708302Y-132109092D01*
X141575908Y-131976698D01*
X141420231Y-131872678D01*
X141420227Y-131872676D01*
X141420225Y-131872675D01*
X141247258Y-131801029D01*
X141247248Y-131801026D01*
X141173194Y-131786296D01*
X141063616Y-131764500D01*
X140876384Y-131764500D01*
X140784986Y-131782680D01*
X140692751Y-131801026D01*
X140692741Y-131801029D01*
X140519774Y-131872675D01*
X140519770Y-131872677D01*
X140519769Y-131872678D01*
X140480195Y-131899120D01*
X140364092Y-131976697D01*
X140231697Y-132109092D01*
X140127675Y-132264774D01*
X140056029Y-132437741D01*
X140056026Y-132437751D01*
X140040433Y-132516147D01*
X140019500Y-132621384D01*
X137220500Y-132621384D01*
X137183973Y-132437749D01*
X137112322Y-132264769D01*
X137008302Y-132109092D01*
X136875908Y-131976698D01*
X136720231Y-131872678D01*
X136720227Y-131872676D01*
X136720225Y-131872675D01*
X136547258Y-131801029D01*
X136547248Y-131801026D01*
X136473194Y-131786296D01*
X136363616Y-131764500D01*
X136176384Y-131764500D01*
X136084986Y-131782680D01*
X135992751Y-131801026D01*
X135992741Y-131801029D01*
X135819774Y-131872675D01*
X135819770Y-131872677D01*
X135819769Y-131872678D01*
X135780195Y-131899120D01*
X135664092Y-131976697D01*
X135531697Y-132109092D01*
X135427675Y-132264774D01*
X135356029Y-132437741D01*
X135356026Y-132437751D01*
X135340433Y-132516147D01*
X135319500Y-132621384D01*
X132876776Y-132621384D01*
X132874669Y-132610787D01*
X132874667Y-132610784D01*
X132874667Y-132610783D01*
X132852457Y-132577543D01*
X132819212Y-132555330D01*
X132789901Y-132549500D01*
X131370105Y-132549500D01*
X131370104Y-132549500D01*
X131370102Y-132549501D01*
X131340787Y-132555331D01*
X131340786Y-132555331D01*
X131340784Y-132555332D01*
X131340783Y-132555332D01*
X131307543Y-132577542D01*
X131285330Y-132610786D01*
X131285330Y-132610787D01*
X131279500Y-132640095D01*
X129896350Y-132640095D01*
X129933399Y-132603046D01*
X130194328Y-132342116D01*
X130194328Y-132342115D01*
X130168943Y-132323671D01*
X130168939Y-132323669D01*
X130000638Y-132237915D01*
X129821001Y-132179548D01*
X129820998Y-132179547D01*
X129634441Y-132150000D01*
X129445559Y-132150000D01*
X129259001Y-132179547D01*
X129258998Y-132179548D01*
X129079361Y-132237915D01*
X128911066Y-132323666D01*
X128885670Y-132342117D01*
X127200500Y-132342117D01*
X127200500Y-129285939D01*
X148749500Y-129285939D01*
X148749500Y-130144060D01*
X148790422Y-130296782D01*
X148790423Y-130296786D01*
X148869475Y-130433709D01*
X148869478Y-130433713D01*
X148869480Y-130433716D01*
X148981284Y-130545520D01*
X148981287Y-130545521D01*
X148981290Y-130545524D01*
X149118213Y-130624576D01*
X149118215Y-130624576D01*
X149118216Y-130624577D01*
X149238665Y-130656851D01*
X149270939Y-130665499D01*
X149270940Y-130665500D01*
X149270943Y-130665500D01*
X149429060Y-130665500D01*
X149429060Y-130665499D01*
X149581784Y-130624577D01*
X149718716Y-130545520D01*
X149830520Y-130433716D01*
X149909577Y-130296784D01*
X149950499Y-130144060D01*
X149950500Y-130144060D01*
X149950500Y-129285940D01*
X149950499Y-129285939D01*
X157389500Y-129285939D01*
X157389500Y-130144060D01*
X157430422Y-130296782D01*
X157430423Y-130296786D01*
X157509475Y-130433709D01*
X157509478Y-130433713D01*
X157509480Y-130433716D01*
X157621284Y-130545520D01*
X157621287Y-130545521D01*
X157621290Y-130545524D01*
X157758213Y-130624576D01*
X157758215Y-130624576D01*
X157758216Y-130624577D01*
X157878665Y-130656851D01*
X157910939Y-130665499D01*
X157910940Y-130665500D01*
X157910943Y-130665500D01*
X158069060Y-130665500D01*
X158069060Y-130665499D01*
X158221784Y-130624577D01*
X158358716Y-130545520D01*
X158470520Y-130433716D01*
X158549577Y-130296784D01*
X158590499Y-130144060D01*
X158590500Y-130144060D01*
X158590500Y-129285940D01*
X158590499Y-129285939D01*
X158549577Y-129133217D01*
X158549576Y-129133213D01*
X158470524Y-128996290D01*
X158470521Y-128996287D01*
X158470520Y-128996284D01*
X158358716Y-128884480D01*
X158358713Y-128884478D01*
X158358709Y-128884475D01*
X158221786Y-128805423D01*
X158221782Y-128805422D01*
X158069060Y-128764500D01*
X158069057Y-128764500D01*
X157910943Y-128764500D01*
X157910940Y-128764500D01*
X157758217Y-128805422D01*
X157758213Y-128805423D01*
X157621290Y-128884475D01*
X157621281Y-128884482D01*
X157509482Y-128996281D01*
X157509475Y-128996290D01*
X157430423Y-129133213D01*
X157430422Y-129133217D01*
X157389500Y-129285939D01*
X149950499Y-129285939D01*
X149909577Y-129133217D01*
X149909576Y-129133213D01*
X149830524Y-128996290D01*
X149830521Y-128996287D01*
X149830520Y-128996284D01*
X149718716Y-128884480D01*
X149718713Y-128884478D01*
X149718709Y-128884475D01*
X149581786Y-128805423D01*
X149581782Y-128805422D01*
X149429060Y-128764500D01*
X149429057Y-128764500D01*
X149270943Y-128764500D01*
X149270940Y-128764500D01*
X149118217Y-128805422D01*
X149118213Y-128805423D01*
X148981290Y-128884475D01*
X148981281Y-128884482D01*
X148869482Y-128996281D01*
X148869475Y-128996290D01*
X148790423Y-129133213D01*
X148790422Y-129133217D01*
X148749500Y-129285939D01*
X127200500Y-129285939D01*
X127200500Y-125650939D01*
X132749500Y-125650939D01*
X132749500Y-125809060D01*
X132790422Y-125961782D01*
X132790423Y-125961786D01*
X132869475Y-126098709D01*
X132869478Y-126098713D01*
X132869480Y-126098716D01*
X132981284Y-126210520D01*
X132981287Y-126210521D01*
X132981290Y-126210524D01*
X133118213Y-126289576D01*
X133118215Y-126289576D01*
X133118216Y-126289577D01*
X133238665Y-126321851D01*
X133270939Y-126330499D01*
X133270940Y-126330500D01*
X133270943Y-126330500D01*
X133429060Y-126330500D01*
X133429060Y-126330499D01*
X133581784Y-126289577D01*
X133718716Y-126210520D01*
X133830520Y-126098716D01*
X133909577Y-125961784D01*
X133950499Y-125809060D01*
X133950500Y-125809060D01*
X133950500Y-125650940D01*
X133950499Y-125650939D01*
X133947152Y-125638445D01*
X133944270Y-125627688D01*
X142750000Y-125627688D01*
X142750000Y-125832311D01*
X142782009Y-126034414D01*
X142782010Y-126034417D01*
X142845243Y-126229028D01*
X142938138Y-126411346D01*
X142938139Y-126411348D01*
X142970524Y-126455921D01*
X143650000Y-125776445D01*
X143650000Y-125782661D01*
X143677259Y-125884394D01*
X143729920Y-125975606D01*
X143804394Y-126050080D01*
X143895606Y-126102741D01*
X143997339Y-126130000D01*
X144003553Y-126130000D01*
X143324076Y-126809475D01*
X143368653Y-126841861D01*
X143550971Y-126934756D01*
X143745582Y-126997989D01*
X143745585Y-126997990D01*
X143947689Y-127030000D01*
X144152311Y-127030000D01*
X144354414Y-126997990D01*
X144354417Y-126997989D01*
X144549028Y-126934756D01*
X144731343Y-126841863D01*
X144775921Y-126809474D01*
X144096447Y-126130000D01*
X144102661Y-126130000D01*
X144204394Y-126102741D01*
X144295606Y-126050080D01*
X144370080Y-125975606D01*
X144422741Y-125884394D01*
X144450000Y-125782661D01*
X144450000Y-125776447D01*
X145135148Y-126461595D01*
X145149500Y-126496242D01*
X145149500Y-126539894D01*
X145149501Y-126539898D01*
X145155331Y-126569213D01*
X145155331Y-126569214D01*
X145155332Y-126569215D01*
X145155332Y-126569216D01*
X145177542Y-126602456D01*
X145177543Y-126602457D01*
X145210787Y-126624669D01*
X145240101Y-126630500D01*
X146859898Y-126630499D01*
X146889213Y-126624669D01*
X146922457Y-126602457D01*
X146944669Y-126569213D01*
X146950500Y-126539899D01*
X146950499Y-124920102D01*
X146944669Y-124890787D01*
X146944667Y-124890784D01*
X146944667Y-124890783D01*
X146922457Y-124857543D01*
X146889212Y-124835330D01*
X146859901Y-124829500D01*
X145240105Y-124829500D01*
X145240104Y-124829500D01*
X145240102Y-124829501D01*
X145210787Y-124835331D01*
X145210786Y-124835331D01*
X145210784Y-124835332D01*
X145210783Y-124835332D01*
X145177543Y-124857542D01*
X145155330Y-124890786D01*
X145155330Y-124890787D01*
X145149500Y-124920095D01*
X145149500Y-124963756D01*
X145135148Y-124998404D01*
X144450000Y-125683552D01*
X144450000Y-125677339D01*
X144422741Y-125575606D01*
X144370080Y-125484394D01*
X144295606Y-125409920D01*
X144204394Y-125357259D01*
X144102661Y-125330000D01*
X144096445Y-125330000D01*
X144775921Y-124650524D01*
X144731348Y-124618139D01*
X144731346Y-124618138D01*
X144549028Y-124525243D01*
X144354417Y-124462010D01*
X144354414Y-124462009D01*
X144152311Y-124430000D01*
X143947689Y-124430000D01*
X143745585Y-124462009D01*
X143745582Y-124462010D01*
X143550971Y-124525243D01*
X143368653Y-124618138D01*
X143368644Y-124618143D01*
X143324077Y-124650523D01*
X143324077Y-124650524D01*
X144003553Y-125330000D01*
X143997339Y-125330000D01*
X143895606Y-125357259D01*
X143804394Y-125409920D01*
X143729920Y-125484394D01*
X143677259Y-125575606D01*
X143650000Y-125677339D01*
X143650000Y-125683553D01*
X142970524Y-125004077D01*
X142970523Y-125004077D01*
X142938143Y-125048644D01*
X142938138Y-125048653D01*
X142845243Y-125230971D01*
X142782010Y-125425582D01*
X142782009Y-125425585D01*
X142750000Y-125627688D01*
X133944270Y-125627688D01*
X133909577Y-125498217D01*
X133909576Y-125498213D01*
X133830524Y-125361290D01*
X133830521Y-125361287D01*
X133830520Y-125361284D01*
X133718716Y-125249480D01*
X133718713Y-125249478D01*
X133718709Y-125249475D01*
X133581786Y-125170423D01*
X133581782Y-125170422D01*
X133429060Y-125129500D01*
X133429057Y-125129500D01*
X133270943Y-125129500D01*
X133270940Y-125129500D01*
X133118217Y-125170422D01*
X133118213Y-125170423D01*
X132981290Y-125249475D01*
X132981281Y-125249482D01*
X132869482Y-125361281D01*
X132869475Y-125361290D01*
X132790423Y-125498213D01*
X132790422Y-125498217D01*
X132749500Y-125650939D01*
X127200500Y-125650939D01*
X127200500Y-122105688D01*
X128454500Y-122105688D01*
X128454500Y-122224311D01*
X128485200Y-122338884D01*
X128485201Y-122338887D01*
X128520788Y-122400524D01*
X128544511Y-122441613D01*
X128628387Y-122525489D01*
X128731114Y-122584799D01*
X128759758Y-122592474D01*
X128845688Y-122615500D01*
X128845691Y-122615500D01*
X128964311Y-122615500D01*
X129021597Y-122600149D01*
X129078886Y-122584799D01*
X129181613Y-122525489D01*
X129265489Y-122441613D01*
X129324799Y-122338886D01*
X129340149Y-122281597D01*
X129355500Y-122224311D01*
X129355500Y-122105688D01*
X129324799Y-121991115D01*
X129324798Y-121991112D01*
X129265488Y-121888386D01*
X129181613Y-121804511D01*
X129078887Y-121745201D01*
X129078884Y-121745200D01*
X128964312Y-121714500D01*
X128964309Y-121714500D01*
X128845691Y-121714500D01*
X128845688Y-121714500D01*
X128731115Y-121745200D01*
X128731112Y-121745201D01*
X128628386Y-121804511D01*
X128628386Y-121804512D01*
X128544512Y-121888386D01*
X128544511Y-121888386D01*
X128485201Y-121991112D01*
X128485200Y-121991115D01*
X128454500Y-122105688D01*
X127200500Y-122105688D01*
X127200500Y-121453188D01*
X150044500Y-121453188D01*
X150044500Y-121571811D01*
X150075200Y-121686384D01*
X150075201Y-121686387D01*
X150109158Y-121745201D01*
X150134511Y-121789113D01*
X150218387Y-121872989D01*
X150321114Y-121932299D01*
X150349758Y-121939974D01*
X150435688Y-121963000D01*
X150435691Y-121963000D01*
X150554311Y-121963000D01*
X150611597Y-121947649D01*
X150668886Y-121932299D01*
X150771613Y-121872989D01*
X150855489Y-121789113D01*
X150914799Y-121686386D01*
X150930149Y-121629097D01*
X150945500Y-121571811D01*
X150945500Y-121540688D01*
X152082000Y-121540688D01*
X152082000Y-121659311D01*
X152112700Y-121773884D01*
X152112701Y-121773887D01*
X152130383Y-121804512D01*
X152172011Y-121876613D01*
X152255887Y-121960489D01*
X152358614Y-122019799D01*
X152387258Y-122027474D01*
X152473188Y-122050500D01*
X152473191Y-122050500D01*
X152591811Y-122050500D01*
X152649097Y-122035149D01*
X152706386Y-122019799D01*
X152809113Y-121960489D01*
X152892989Y-121876613D01*
X152913586Y-121840939D01*
X161959500Y-121840939D01*
X161959500Y-121999060D01*
X162000422Y-122151782D01*
X162000423Y-122151786D01*
X162079475Y-122288709D01*
X162079478Y-122288713D01*
X162079480Y-122288716D01*
X162191284Y-122400520D01*
X162191287Y-122400521D01*
X162191290Y-122400524D01*
X162328213Y-122479576D01*
X162328215Y-122479576D01*
X162328216Y-122479577D01*
X162448665Y-122511851D01*
X162480939Y-122520499D01*
X162480940Y-122520500D01*
X162480943Y-122520500D01*
X162639060Y-122520500D01*
X162639060Y-122520499D01*
X162791784Y-122479577D01*
X162857539Y-122441614D01*
X162928709Y-122400524D01*
X162928708Y-122400524D01*
X162928716Y-122400520D01*
X163040520Y-122288716D01*
X163119577Y-122151784D01*
X163160499Y-121999060D01*
X163160500Y-121999060D01*
X163160500Y-121840940D01*
X163160499Y-121840939D01*
X163119577Y-121688217D01*
X163119576Y-121688213D01*
X163040524Y-121551290D01*
X163040521Y-121551287D01*
X163040520Y-121551284D01*
X162928716Y-121439480D01*
X162928713Y-121439478D01*
X162928709Y-121439475D01*
X162791786Y-121360423D01*
X162791782Y-121360422D01*
X162639060Y-121319500D01*
X162639057Y-121319500D01*
X162480943Y-121319500D01*
X162480940Y-121319500D01*
X162328217Y-121360422D01*
X162328213Y-121360423D01*
X162191290Y-121439475D01*
X162191281Y-121439482D01*
X162079482Y-121551281D01*
X162079475Y-121551290D01*
X162000423Y-121688213D01*
X162000422Y-121688217D01*
X161959500Y-121840939D01*
X152913586Y-121840939D01*
X152952299Y-121773886D01*
X152975254Y-121688217D01*
X152983000Y-121659311D01*
X152983000Y-121540688D01*
X152959554Y-121453191D01*
X152952299Y-121426114D01*
X152892989Y-121323387D01*
X152809113Y-121239511D01*
X152802834Y-121235886D01*
X152706387Y-121180201D01*
X152706384Y-121180200D01*
X152591812Y-121149500D01*
X152591809Y-121149500D01*
X152473191Y-121149500D01*
X152473188Y-121149500D01*
X152358615Y-121180200D01*
X152358612Y-121180201D01*
X152255886Y-121239511D01*
X152255886Y-121239512D01*
X152172012Y-121323386D01*
X152172011Y-121323386D01*
X152112701Y-121426112D01*
X152112700Y-121426115D01*
X152082000Y-121540688D01*
X150945500Y-121540688D01*
X150945500Y-121453188D01*
X150914799Y-121338615D01*
X150914798Y-121338612D01*
X150855488Y-121235886D01*
X150771613Y-121152011D01*
X150668887Y-121092701D01*
X150668884Y-121092700D01*
X150554312Y-121062000D01*
X150554309Y-121062000D01*
X150435691Y-121062000D01*
X150435688Y-121062000D01*
X150321115Y-121092700D01*
X150321112Y-121092701D01*
X150218386Y-121152011D01*
X150218386Y-121152012D01*
X150134512Y-121235886D01*
X150134511Y-121235886D01*
X150075201Y-121338612D01*
X150075200Y-121338615D01*
X150044500Y-121453188D01*
X127200500Y-121453188D01*
X127200500Y-120590688D01*
X136842000Y-120590688D01*
X136842000Y-120709311D01*
X136872700Y-120823884D01*
X136872701Y-120823887D01*
X136932011Y-120926613D01*
X137015887Y-121010489D01*
X137118614Y-121069799D01*
X137147258Y-121077474D01*
X137233188Y-121100500D01*
X137233191Y-121100500D01*
X137351811Y-121100500D01*
X137409097Y-121085149D01*
X137466386Y-121069799D01*
X137569113Y-121010489D01*
X137652989Y-120926613D01*
X137712299Y-120823886D01*
X137727649Y-120766597D01*
X137743000Y-120709311D01*
X137743000Y-120590688D01*
X137712299Y-120476115D01*
X137712298Y-120476112D01*
X137652988Y-120373386D01*
X137569113Y-120289511D01*
X137466387Y-120230201D01*
X137466384Y-120230200D01*
X137351812Y-120199500D01*
X137351809Y-120199500D01*
X137233191Y-120199500D01*
X137233188Y-120199500D01*
X137118615Y-120230200D01*
X137118612Y-120230201D01*
X137015886Y-120289511D01*
X137015886Y-120289512D01*
X136932012Y-120373386D01*
X136932011Y-120373386D01*
X136872701Y-120476112D01*
X136872700Y-120476115D01*
X136842000Y-120590688D01*
X127200500Y-120590688D01*
X127200500Y-119640688D01*
X154357000Y-119640688D01*
X154357000Y-119759311D01*
X154387700Y-119873884D01*
X154387701Y-119873887D01*
X154409352Y-119911387D01*
X154447011Y-119976613D01*
X154530887Y-120060489D01*
X154633614Y-120119799D01*
X154653750Y-120125194D01*
X154662988Y-120127670D01*
X154692740Y-120150500D01*
X154697635Y-120187683D01*
X154674805Y-120217435D01*
X154662988Y-120222330D01*
X154633613Y-120230201D01*
X154633612Y-120230201D01*
X154530886Y-120289511D01*
X154530886Y-120289512D01*
X154447012Y-120373386D01*
X154447011Y-120373386D01*
X154387701Y-120476112D01*
X154387700Y-120476115D01*
X154357000Y-120590688D01*
X154357000Y-120709311D01*
X154387700Y-120823884D01*
X154387701Y-120823887D01*
X154447011Y-120926613D01*
X154530887Y-121010489D01*
X154633614Y-121069799D01*
X154662258Y-121077474D01*
X154748188Y-121100500D01*
X154748191Y-121100500D01*
X154866811Y-121100500D01*
X154924097Y-121085149D01*
X154981386Y-121069799D01*
X155084113Y-121010489D01*
X155167989Y-120926613D01*
X155227299Y-120823886D01*
X155242649Y-120766597D01*
X155258000Y-120709311D01*
X155258000Y-120590688D01*
X155227299Y-120476115D01*
X155227298Y-120476112D01*
X155167988Y-120373386D01*
X155084113Y-120289511D01*
X154981387Y-120230201D01*
X154981384Y-120230200D01*
X154952012Y-120222330D01*
X154922259Y-120199500D01*
X154917364Y-120162318D01*
X154940194Y-120132565D01*
X154952012Y-120127670D01*
X154960362Y-120125432D01*
X154981386Y-120119799D01*
X155084113Y-120060489D01*
X155167989Y-119976613D01*
X155227299Y-119873886D01*
X155247952Y-119796809D01*
X155258000Y-119759311D01*
X155258000Y-119728188D01*
X156394500Y-119728188D01*
X156394500Y-119846811D01*
X156425200Y-119961384D01*
X156425201Y-119961387D01*
X156455643Y-120014113D01*
X156484511Y-120064113D01*
X156568387Y-120147989D01*
X156671114Y-120207299D01*
X156699758Y-120214974D01*
X156785688Y-120238000D01*
X156785691Y-120238000D01*
X156904311Y-120238000D01*
X156962790Y-120222330D01*
X157018886Y-120207299D01*
X157121613Y-120147989D01*
X157205489Y-120064113D01*
X157264799Y-119961386D01*
X157280149Y-119904097D01*
X157295500Y-119846811D01*
X157295500Y-119728188D01*
X157295499Y-119728187D01*
X157284641Y-119687661D01*
X157282102Y-119678188D01*
X158299500Y-119678188D01*
X158299500Y-119796811D01*
X158330200Y-119911384D01*
X158330201Y-119911387D01*
X158359069Y-119961387D01*
X158389511Y-120014113D01*
X158473387Y-120097989D01*
X158576114Y-120157299D01*
X158594845Y-120162318D01*
X158690688Y-120188000D01*
X158690691Y-120188000D01*
X158809311Y-120188000D01*
X158866597Y-120172649D01*
X158923886Y-120157299D01*
X159026613Y-120097989D01*
X159110489Y-120014113D01*
X159169799Y-119911386D01*
X159187102Y-119846811D01*
X159200500Y-119796811D01*
X159200500Y-119678188D01*
X159169799Y-119563615D01*
X159169798Y-119563612D01*
X159110488Y-119460886D01*
X159026613Y-119377011D01*
X158923887Y-119317701D01*
X158923884Y-119317700D01*
X158809312Y-119287000D01*
X158809309Y-119287000D01*
X158690691Y-119287000D01*
X158690688Y-119287000D01*
X158576115Y-119317700D01*
X158576112Y-119317701D01*
X158473386Y-119377011D01*
X158473386Y-119377012D01*
X158389512Y-119460886D01*
X158389511Y-119460886D01*
X158330201Y-119563612D01*
X158330200Y-119563615D01*
X158299500Y-119678188D01*
X157282102Y-119678188D01*
X157272054Y-119640691D01*
X157264799Y-119613614D01*
X157205489Y-119510887D01*
X157121613Y-119427011D01*
X157115334Y-119423386D01*
X157018887Y-119367701D01*
X157018884Y-119367700D01*
X156904312Y-119337000D01*
X156904309Y-119337000D01*
X156785691Y-119337000D01*
X156785688Y-119337000D01*
X156671115Y-119367700D01*
X156671112Y-119367701D01*
X156568386Y-119427011D01*
X156568386Y-119427012D01*
X156484512Y-119510886D01*
X156484511Y-119510886D01*
X156425201Y-119613612D01*
X156425200Y-119613615D01*
X156394500Y-119728188D01*
X155258000Y-119728188D01*
X155258000Y-119640688D01*
X155227299Y-119526115D01*
X155227298Y-119526112D01*
X155167988Y-119423386D01*
X155084113Y-119339511D01*
X154981387Y-119280201D01*
X154981384Y-119280200D01*
X154866812Y-119249500D01*
X154866809Y-119249500D01*
X154748191Y-119249500D01*
X154748188Y-119249500D01*
X154633615Y-119280200D01*
X154633612Y-119280201D01*
X154530886Y-119339511D01*
X154530886Y-119339512D01*
X154447012Y-119423386D01*
X154447011Y-119423386D01*
X154387701Y-119526112D01*
X154387700Y-119526115D01*
X154357000Y-119640688D01*
X127200500Y-119640688D01*
X127200500Y-115491152D01*
X130009500Y-115491152D01*
X130009500Y-115648847D01*
X130040260Y-115803487D01*
X130040263Y-115803498D01*
X130092864Y-115930488D01*
X130100606Y-115949179D01*
X130188211Y-116080289D01*
X130299711Y-116191789D01*
X130430821Y-116279394D01*
X130576503Y-116339737D01*
X130576509Y-116339738D01*
X130576512Y-116339739D01*
X130731152Y-116370499D01*
X130731158Y-116370500D01*
X130888842Y-116370500D01*
X131043497Y-116339737D01*
X131189179Y-116279394D01*
X131320289Y-116191789D01*
X131366390Y-116145688D01*
X137117000Y-116145688D01*
X137117000Y-116264311D01*
X137147700Y-116378884D01*
X137147701Y-116378887D01*
X137154009Y-116389812D01*
X137207011Y-116481613D01*
X137290887Y-116565489D01*
X137393614Y-116624799D01*
X137422258Y-116632474D01*
X137508188Y-116655500D01*
X137508191Y-116655500D01*
X137626811Y-116655500D01*
X137684097Y-116640149D01*
X137741386Y-116624799D01*
X137844113Y-116565489D01*
X137927989Y-116481613D01*
X137956303Y-116432572D01*
X141730978Y-116432572D01*
X141766324Y-116456190D01*
X141948310Y-116531570D01*
X142141512Y-116570000D01*
X142338488Y-116570000D01*
X142531689Y-116531570D01*
X142531690Y-116531570D01*
X142713672Y-116456191D01*
X142749019Y-116432572D01*
X142240000Y-115923553D01*
X141730978Y-116432572D01*
X137956303Y-116432572D01*
X137987299Y-116378886D01*
X138013958Y-116279394D01*
X138018000Y-116264311D01*
X138018000Y-116145688D01*
X137987299Y-116031115D01*
X137987298Y-116031112D01*
X137971405Y-116003585D01*
X137927989Y-115928387D01*
X137844113Y-115844511D01*
X137741387Y-115785201D01*
X137741384Y-115785200D01*
X137626812Y-115754500D01*
X137626809Y-115754500D01*
X137508191Y-115754500D01*
X137508188Y-115754500D01*
X137393615Y-115785200D01*
X137393612Y-115785201D01*
X137290886Y-115844511D01*
X137290886Y-115844512D01*
X137207012Y-115928386D01*
X137207011Y-115928386D01*
X137147701Y-116031112D01*
X137147700Y-116031115D01*
X137117000Y-116145688D01*
X131366390Y-116145688D01*
X131431789Y-116080289D01*
X131519394Y-115949179D01*
X131579737Y-115803497D01*
X131610500Y-115648842D01*
X131610500Y-115491158D01*
X131606592Y-115471512D01*
X141240000Y-115471512D01*
X141240000Y-115668487D01*
X141278429Y-115861689D01*
X141278429Y-115861690D01*
X141353810Y-116043677D01*
X141377426Y-116079020D01*
X141886446Y-115570000D01*
X141886446Y-115569999D01*
X141836719Y-115520272D01*
X141990000Y-115520272D01*
X141990000Y-115619728D01*
X142028060Y-115711614D01*
X142098386Y-115781940D01*
X142190272Y-115820000D01*
X142289728Y-115820000D01*
X142381614Y-115781940D01*
X142451940Y-115711614D01*
X142490000Y-115619728D01*
X142490000Y-115569999D01*
X142593553Y-115569999D01*
X142593553Y-115570000D01*
X143102572Y-116079019D01*
X143126191Y-116043672D01*
X143201570Y-115861690D01*
X143201570Y-115861689D01*
X143240000Y-115668487D01*
X143240000Y-115510688D01*
X154382000Y-115510688D01*
X154382000Y-115629311D01*
X154412700Y-115743884D01*
X154412701Y-115743887D01*
X154447118Y-115803498D01*
X154472011Y-115846613D01*
X154555887Y-115930489D01*
X154658614Y-115989799D01*
X154687258Y-115997474D01*
X154773188Y-116020500D01*
X154773191Y-116020500D01*
X154891811Y-116020500D01*
X154949097Y-116005149D01*
X155006386Y-115989799D01*
X155109113Y-115930489D01*
X155192989Y-115846613D01*
X155252299Y-115743886D01*
X155277766Y-115648842D01*
X155283000Y-115629311D01*
X155283000Y-115510689D01*
X155280520Y-115501434D01*
X155280520Y-115501433D01*
X155277765Y-115491152D01*
X160489500Y-115491152D01*
X160489500Y-115648847D01*
X160520260Y-115803487D01*
X160520263Y-115803498D01*
X160572864Y-115930488D01*
X160580606Y-115949179D01*
X160668211Y-116080289D01*
X160779711Y-116191789D01*
X160910821Y-116279394D01*
X161056503Y-116339737D01*
X161056509Y-116339738D01*
X161056512Y-116339739D01*
X161211152Y-116370499D01*
X161211158Y-116370500D01*
X161368842Y-116370500D01*
X161523497Y-116339737D01*
X161669179Y-116279394D01*
X161800289Y-116191789D01*
X161911789Y-116080289D01*
X161999394Y-115949179D01*
X162059737Y-115803497D01*
X162090500Y-115648842D01*
X162090500Y-115491158D01*
X162071595Y-115396115D01*
X162059739Y-115336512D01*
X162059736Y-115336501D01*
X162007136Y-115209512D01*
X161999394Y-115190821D01*
X161911789Y-115059711D01*
X161800289Y-114948211D01*
X161669179Y-114860606D01*
X161669176Y-114860604D01*
X161669175Y-114860604D01*
X161523498Y-114800263D01*
X161523487Y-114800260D01*
X161368847Y-114769500D01*
X161368842Y-114769500D01*
X161211158Y-114769500D01*
X161211152Y-114769500D01*
X161056512Y-114800260D01*
X161056501Y-114800263D01*
X160910824Y-114860604D01*
X160779711Y-114948210D01*
X160668210Y-115059711D01*
X160580604Y-115190824D01*
X160520263Y-115336501D01*
X160520260Y-115336512D01*
X160489500Y-115491152D01*
X155277765Y-115491152D01*
X155252299Y-115396115D01*
X155252298Y-115396112D01*
X155192988Y-115293386D01*
X155109113Y-115209511D01*
X155006387Y-115150201D01*
X155006384Y-115150200D01*
X154891812Y-115119500D01*
X154891809Y-115119500D01*
X154773191Y-115119500D01*
X154773188Y-115119500D01*
X154658615Y-115150200D01*
X154658612Y-115150201D01*
X154555886Y-115209511D01*
X154555886Y-115209512D01*
X154472012Y-115293386D01*
X154472011Y-115293386D01*
X154412701Y-115396112D01*
X154412700Y-115396115D01*
X154382000Y-115510688D01*
X143240000Y-115510688D01*
X143240000Y-115471512D01*
X143201570Y-115278310D01*
X143201570Y-115278309D01*
X143126190Y-115096324D01*
X143102572Y-115060978D01*
X142593553Y-115569999D01*
X142490000Y-115569999D01*
X142490000Y-115520272D01*
X142451940Y-115428386D01*
X142381614Y-115358060D01*
X142289728Y-115320000D01*
X142190272Y-115320000D01*
X142098386Y-115358060D01*
X142028060Y-115428386D01*
X141990000Y-115520272D01*
X141836719Y-115520272D01*
X141377426Y-115060979D01*
X141377425Y-115060979D01*
X141353810Y-115096321D01*
X141278429Y-115278309D01*
X141278429Y-115278310D01*
X141240000Y-115471512D01*
X131606592Y-115471512D01*
X131584025Y-115358060D01*
X131579737Y-115336503D01*
X131519394Y-115190821D01*
X131431789Y-115059711D01*
X131320289Y-114948211D01*
X131189179Y-114860606D01*
X131189176Y-114860604D01*
X131189175Y-114860604D01*
X131043498Y-114800263D01*
X131043487Y-114800260D01*
X130910186Y-114773745D01*
X130888847Y-114769500D01*
X130888842Y-114769500D01*
X130731158Y-114769500D01*
X130731152Y-114769500D01*
X130576512Y-114800260D01*
X130576501Y-114800263D01*
X130430824Y-114860604D01*
X130299711Y-114948210D01*
X130188210Y-115059711D01*
X130100604Y-115190824D01*
X130040263Y-115336501D01*
X130040260Y-115336512D01*
X130009500Y-115491152D01*
X127200500Y-115491152D01*
X127200500Y-114707425D01*
X141730979Y-114707425D01*
X141730979Y-114707426D01*
X142239999Y-115216446D01*
X142749020Y-114707426D01*
X142713677Y-114683810D01*
X142531689Y-114608429D01*
X142338488Y-114570000D01*
X142141512Y-114570000D01*
X141948310Y-114608429D01*
X141948309Y-114608429D01*
X141766321Y-114683810D01*
X141730979Y-114707425D01*
X127200500Y-114707425D01*
X127200500Y-112320095D01*
X130009500Y-112320095D01*
X130009500Y-113739894D01*
X130009501Y-113739898D01*
X130015331Y-113769213D01*
X130015331Y-113769214D01*
X130015332Y-113769215D01*
X130015332Y-113769216D01*
X130037542Y-113802456D01*
X130037543Y-113802457D01*
X130070787Y-113824669D01*
X130100101Y-113830500D01*
X131519898Y-113830499D01*
X131549213Y-113824669D01*
X131582457Y-113802457D01*
X131604669Y-113769213D01*
X131610500Y-113739899D01*
X131610499Y-112320102D01*
X131610498Y-112320095D01*
X160489500Y-112320095D01*
X160489500Y-113739894D01*
X160489501Y-113739898D01*
X160495331Y-113769213D01*
X160495331Y-113769214D01*
X160495332Y-113769215D01*
X160495332Y-113769216D01*
X160517542Y-113802456D01*
X160517543Y-113802457D01*
X160550787Y-113824669D01*
X160580101Y-113830500D01*
X161999898Y-113830499D01*
X162029213Y-113824669D01*
X162062457Y-113802457D01*
X162084669Y-113769213D01*
X162090500Y-113739899D01*
X162090499Y-112320102D01*
X162084669Y-112290787D01*
X162084667Y-112290784D01*
X162084667Y-112290783D01*
X162062457Y-112257543D01*
X162029212Y-112235330D01*
X161999901Y-112229500D01*
X160580105Y-112229500D01*
X160580104Y-112229500D01*
X160580102Y-112229501D01*
X160550787Y-112235331D01*
X160550786Y-112235331D01*
X160550784Y-112235332D01*
X160550783Y-112235332D01*
X160517543Y-112257542D01*
X160495330Y-112290786D01*
X160495330Y-112290787D01*
X160489500Y-112320095D01*
X131610498Y-112320095D01*
X131604669Y-112290787D01*
X131604667Y-112290784D01*
X131604667Y-112290783D01*
X131582457Y-112257543D01*
X131549212Y-112235330D01*
X131519901Y-112229500D01*
X130100105Y-112229500D01*
X130100104Y-112229500D01*
X130100102Y-112229501D01*
X130070787Y-112235331D01*
X130070786Y-112235331D01*
X130070784Y-112235332D01*
X130070783Y-112235332D01*
X130037543Y-112257542D01*
X130015330Y-112290786D01*
X130015330Y-112290787D01*
X130009500Y-112320095D01*
X127200500Y-112320095D01*
X127200500Y-109025688D01*
X136859500Y-109025688D01*
X136859500Y-109144311D01*
X136890200Y-109258884D01*
X136890201Y-109258887D01*
X136949511Y-109361613D01*
X137033387Y-109445489D01*
X137136114Y-109504799D01*
X137164758Y-109512474D01*
X137250688Y-109535500D01*
X137250691Y-109535500D01*
X137369311Y-109535500D01*
X137426597Y-109520149D01*
X137433916Y-109518188D01*
X148774500Y-109518188D01*
X148774500Y-109636811D01*
X148805200Y-109751384D01*
X148805201Y-109751387D01*
X148864511Y-109854113D01*
X148948387Y-109937989D01*
X149051114Y-109997299D01*
X149079758Y-110004974D01*
X149165688Y-110028000D01*
X149165691Y-110028000D01*
X149284311Y-110028000D01*
X149341597Y-110012649D01*
X149398886Y-109997299D01*
X149501613Y-109937989D01*
X149585489Y-109854113D01*
X149644799Y-109751386D01*
X149660149Y-109694097D01*
X149675500Y-109636811D01*
X149675500Y-109518188D01*
X149644799Y-109403615D01*
X149644798Y-109403612D01*
X149585488Y-109300886D01*
X149501613Y-109217011D01*
X149398887Y-109157701D01*
X149398884Y-109157700D01*
X149284312Y-109127000D01*
X149284309Y-109127000D01*
X149165691Y-109127000D01*
X149165688Y-109127000D01*
X149051115Y-109157700D01*
X149051112Y-109157701D01*
X148948386Y-109217011D01*
X148948386Y-109217012D01*
X148864512Y-109300886D01*
X148864511Y-109300886D01*
X148805201Y-109403612D01*
X148805200Y-109403615D01*
X148774500Y-109518188D01*
X137433916Y-109518188D01*
X137483886Y-109504799D01*
X137586613Y-109445489D01*
X137670489Y-109361613D01*
X137729799Y-109258886D01*
X137756912Y-109157700D01*
X137760500Y-109144311D01*
X137760500Y-109025688D01*
X137729799Y-108911115D01*
X137729798Y-108911112D01*
X137670488Y-108808386D01*
X137586613Y-108724511D01*
X137483887Y-108665201D01*
X137483884Y-108665200D01*
X137369312Y-108634500D01*
X137369309Y-108634500D01*
X137250691Y-108634500D01*
X137250688Y-108634500D01*
X137136115Y-108665200D01*
X137136112Y-108665201D01*
X137033386Y-108724511D01*
X137033386Y-108724512D01*
X136949512Y-108808386D01*
X136949511Y-108808386D01*
X136890201Y-108911112D01*
X136890200Y-108911115D01*
X136859500Y-109025688D01*
X127200500Y-109025688D01*
X127200500Y-107240095D01*
X130009500Y-107240095D01*
X130009500Y-108659894D01*
X130009501Y-108659898D01*
X130015331Y-108689213D01*
X130015331Y-108689214D01*
X130015332Y-108689215D01*
X130015332Y-108689216D01*
X130035727Y-108719739D01*
X130037543Y-108722457D01*
X130070787Y-108744669D01*
X130100101Y-108750500D01*
X131519898Y-108750499D01*
X131549213Y-108744669D01*
X131582457Y-108722457D01*
X131604669Y-108689213D01*
X131610500Y-108659899D01*
X131610500Y-108525688D01*
X155352000Y-108525688D01*
X155352000Y-108644311D01*
X155382700Y-108758884D01*
X155382701Y-108758887D01*
X155442011Y-108861613D01*
X155525887Y-108945489D01*
X155628614Y-109004799D01*
X155657258Y-109012474D01*
X155743188Y-109035500D01*
X155743191Y-109035500D01*
X155861811Y-109035500D01*
X155919097Y-109020149D01*
X155976386Y-109004799D01*
X156079113Y-108945489D01*
X156162989Y-108861613D01*
X156222299Y-108758886D01*
X156240967Y-108689216D01*
X156253000Y-108644311D01*
X156253000Y-108525688D01*
X156222299Y-108411115D01*
X156222298Y-108411112D01*
X156162988Y-108308386D01*
X156079113Y-108224511D01*
X155976387Y-108165201D01*
X155976384Y-108165200D01*
X155861812Y-108134500D01*
X155861809Y-108134500D01*
X155743191Y-108134500D01*
X155743188Y-108134500D01*
X155628615Y-108165200D01*
X155628612Y-108165201D01*
X155525886Y-108224511D01*
X155525886Y-108224512D01*
X155442012Y-108308386D01*
X155442011Y-108308386D01*
X155382701Y-108411112D01*
X155382700Y-108411115D01*
X155352000Y-108525688D01*
X131610500Y-108525688D01*
X131610499Y-107871152D01*
X160489500Y-107871152D01*
X160489500Y-108028847D01*
X160520260Y-108183487D01*
X160520263Y-108183498D01*
X160580604Y-108329175D01*
X160580606Y-108329179D01*
X160668211Y-108460289D01*
X160779711Y-108571789D01*
X160910821Y-108659394D01*
X161056503Y-108719737D01*
X161056509Y-108719738D01*
X161056512Y-108719739D01*
X161211152Y-108750499D01*
X161211158Y-108750500D01*
X161368842Y-108750500D01*
X161523497Y-108719737D01*
X161669179Y-108659394D01*
X161800289Y-108571789D01*
X161911789Y-108460289D01*
X161999394Y-108329179D01*
X162059737Y-108183497D01*
X162090500Y-108028842D01*
X162090500Y-107871158D01*
X162059737Y-107716503D01*
X161999394Y-107570821D01*
X161911789Y-107439711D01*
X161800289Y-107328211D01*
X161669179Y-107240606D01*
X161669176Y-107240604D01*
X161669175Y-107240604D01*
X161523498Y-107180263D01*
X161523487Y-107180260D01*
X161368847Y-107149500D01*
X161368842Y-107149500D01*
X161211158Y-107149500D01*
X161211152Y-107149500D01*
X161056512Y-107180260D01*
X161056501Y-107180263D01*
X160910824Y-107240604D01*
X160779711Y-107328210D01*
X160668210Y-107439711D01*
X160580604Y-107570824D01*
X160520263Y-107716501D01*
X160520260Y-107716512D01*
X160489500Y-107871152D01*
X131610499Y-107871152D01*
X131610499Y-107240102D01*
X131604669Y-107210787D01*
X131604667Y-107210784D01*
X131604667Y-107210783D01*
X131582457Y-107177543D01*
X131549212Y-107155330D01*
X131519901Y-107149500D01*
X130100105Y-107149500D01*
X130100104Y-107149500D01*
X130100102Y-107149501D01*
X130070787Y-107155331D01*
X130070786Y-107155331D01*
X130070784Y-107155332D01*
X130070783Y-107155332D01*
X130037543Y-107177542D01*
X130015330Y-107210786D01*
X130015330Y-107210787D01*
X130009500Y-107240095D01*
X127200500Y-107240095D01*
X127200500Y-106620688D01*
X136709500Y-106620688D01*
X136709500Y-106739311D01*
X136740200Y-106853884D01*
X136740201Y-106853887D01*
X136799511Y-106956613D01*
X136883387Y-107040489D01*
X136986114Y-107099799D01*
X137014758Y-107107474D01*
X137100688Y-107130500D01*
X137100691Y-107130500D01*
X137219311Y-107130500D01*
X137276597Y-107115149D01*
X137333886Y-107099799D01*
X137436613Y-107040489D01*
X137520489Y-106956613D01*
X137579799Y-106853886D01*
X137595149Y-106796597D01*
X137610500Y-106739311D01*
X137610500Y-106620688D01*
X137579799Y-106506115D01*
X137579798Y-106506112D01*
X137520488Y-106403386D01*
X137436613Y-106319511D01*
X137333887Y-106260201D01*
X137333884Y-106260200D01*
X137219312Y-106229500D01*
X137219309Y-106229500D01*
X137100691Y-106229500D01*
X137100688Y-106229500D01*
X136986115Y-106260200D01*
X136986112Y-106260201D01*
X136883386Y-106319511D01*
X136883386Y-106319512D01*
X136799512Y-106403386D01*
X136799511Y-106403386D01*
X136740201Y-106506112D01*
X136740200Y-106506115D01*
X136709500Y-106620688D01*
X127200500Y-106620688D01*
X127200500Y-105331152D01*
X130009500Y-105331152D01*
X130009500Y-105488847D01*
X130040260Y-105643487D01*
X130040263Y-105643498D01*
X130088603Y-105760201D01*
X130100606Y-105789179D01*
X130188211Y-105920289D01*
X130299711Y-106031789D01*
X130430821Y-106119394D01*
X130576503Y-106179737D01*
X130576509Y-106179738D01*
X130576512Y-106179739D01*
X130731152Y-106210499D01*
X130731158Y-106210500D01*
X130888842Y-106210500D01*
X131043497Y-106179737D01*
X131186055Y-106120688D01*
X155202000Y-106120688D01*
X155202000Y-106239311D01*
X155232700Y-106353884D01*
X155232701Y-106353887D01*
X155292011Y-106456613D01*
X155375887Y-106540489D01*
X155478614Y-106599799D01*
X155507258Y-106607474D01*
X155593188Y-106630500D01*
X155593191Y-106630500D01*
X155711811Y-106630500D01*
X155769097Y-106615149D01*
X155826386Y-106599799D01*
X155929113Y-106540489D01*
X156012989Y-106456613D01*
X156072299Y-106353886D01*
X156097402Y-106260201D01*
X156103000Y-106239311D01*
X156103000Y-106120688D01*
X156072299Y-106006115D01*
X156072298Y-106006112D01*
X156012988Y-105903386D01*
X155929113Y-105819511D01*
X155826387Y-105760201D01*
X155826384Y-105760200D01*
X155711812Y-105729500D01*
X155711809Y-105729500D01*
X155593191Y-105729500D01*
X155593188Y-105729500D01*
X155478615Y-105760200D01*
X155478612Y-105760201D01*
X155375886Y-105819511D01*
X155375886Y-105819512D01*
X155292012Y-105903386D01*
X155292011Y-105903386D01*
X155232701Y-106006112D01*
X155232700Y-106006115D01*
X155202000Y-106120688D01*
X131186055Y-106120688D01*
X131189179Y-106119394D01*
X131320289Y-106031789D01*
X131431789Y-105920289D01*
X131519394Y-105789179D01*
X131579737Y-105643497D01*
X131610500Y-105488842D01*
X131610500Y-105331158D01*
X131579737Y-105176503D01*
X131519394Y-105030821D01*
X131431789Y-104899711D01*
X131320289Y-104788211D01*
X131189179Y-104700606D01*
X131189176Y-104700604D01*
X131189175Y-104700604D01*
X131187946Y-104700095D01*
X160489500Y-104700095D01*
X160489500Y-106119894D01*
X160489501Y-106119898D01*
X160495331Y-106149213D01*
X160495331Y-106149214D01*
X160495332Y-106149215D01*
X160495332Y-106149216D01*
X160515727Y-106179739D01*
X160517543Y-106182457D01*
X160550787Y-106204669D01*
X160580101Y-106210500D01*
X161999898Y-106210499D01*
X162029213Y-106204669D01*
X162062457Y-106182457D01*
X162084669Y-106149213D01*
X162090500Y-106119899D01*
X162090499Y-104700102D01*
X162084669Y-104670787D01*
X162084667Y-104670784D01*
X162084667Y-104670783D01*
X162062457Y-104637543D01*
X162029212Y-104615330D01*
X161999901Y-104609500D01*
X160580105Y-104609500D01*
X160580104Y-104609500D01*
X160580102Y-104609501D01*
X160550787Y-104615331D01*
X160550786Y-104615331D01*
X160550784Y-104615332D01*
X160550783Y-104615332D01*
X160517543Y-104637542D01*
X160495330Y-104670786D01*
X160495330Y-104670787D01*
X160489500Y-104700095D01*
X131187946Y-104700095D01*
X131043498Y-104640263D01*
X131043487Y-104640260D01*
X130888847Y-104609500D01*
X130888842Y-104609500D01*
X130731158Y-104609500D01*
X130731152Y-104609500D01*
X130576512Y-104640260D01*
X130576501Y-104640263D01*
X130430824Y-104700604D01*
X130299711Y-104788210D01*
X130188210Y-104899711D01*
X130100604Y-105030824D01*
X130040263Y-105176501D01*
X130040260Y-105176512D01*
X130009500Y-105331152D01*
X127200500Y-105331152D01*
X127200500Y-100981152D01*
X148329500Y-100981152D01*
X148329500Y-101138847D01*
X148360260Y-101293487D01*
X148360263Y-101293497D01*
X148420606Y-101439179D01*
X148508211Y-101570289D01*
X148619711Y-101681789D01*
X148750821Y-101769394D01*
X148896503Y-101829737D01*
X148896509Y-101829738D01*
X148896512Y-101829739D01*
X149051152Y-101860499D01*
X149051158Y-101860500D01*
X149208842Y-101860500D01*
X149363497Y-101829737D01*
X149509179Y-101769394D01*
X149640289Y-101681789D01*
X149751789Y-101570289D01*
X149839394Y-101439179D01*
X149899737Y-101293497D01*
X149930500Y-101138842D01*
X149930500Y-100981158D01*
X149930499Y-100981152D01*
X150329500Y-100981152D01*
X150329500Y-101138847D01*
X150360260Y-101293487D01*
X150360263Y-101293497D01*
X150420606Y-101439179D01*
X150508211Y-101570289D01*
X150619711Y-101681789D01*
X150750821Y-101769394D01*
X150896503Y-101829737D01*
X150896509Y-101829738D01*
X150896512Y-101829739D01*
X151051152Y-101860499D01*
X151051158Y-101860500D01*
X151208842Y-101860500D01*
X151363497Y-101829737D01*
X151509179Y-101769394D01*
X151640289Y-101681789D01*
X151751789Y-101570289D01*
X151839394Y-101439179D01*
X151899737Y-101293497D01*
X151930500Y-101138842D01*
X151930500Y-100981158D01*
X151899737Y-100826503D01*
X151839394Y-100680821D01*
X151751789Y-100549711D01*
X151640289Y-100438211D01*
X151509179Y-100350606D01*
X151509176Y-100350604D01*
X151509175Y-100350604D01*
X151363498Y-100290263D01*
X151363487Y-100290260D01*
X151208847Y-100259500D01*
X151208842Y-100259500D01*
X151051158Y-100259500D01*
X151051152Y-100259500D01*
X150896512Y-100290260D01*
X150896501Y-100290263D01*
X150750824Y-100350604D01*
X150619711Y-100438210D01*
X150508210Y-100549711D01*
X150420604Y-100680824D01*
X150360263Y-100826501D01*
X150360260Y-100826512D01*
X150329500Y-100981152D01*
X149930499Y-100981152D01*
X149899737Y-100826503D01*
X149839394Y-100680821D01*
X149751789Y-100549711D01*
X149640289Y-100438211D01*
X149509179Y-100350606D01*
X149509176Y-100350604D01*
X149509175Y-100350604D01*
X149363498Y-100290263D01*
X149363487Y-100290260D01*
X149208847Y-100259500D01*
X149208842Y-100259500D01*
X149051158Y-100259500D01*
X149051152Y-100259500D01*
X148896512Y-100290260D01*
X148896501Y-100290263D01*
X148750824Y-100350604D01*
X148619711Y-100438210D01*
X148508210Y-100549711D01*
X148420604Y-100680824D01*
X148360263Y-100826501D01*
X148360260Y-100826512D01*
X148329500Y-100981152D01*
X127200500Y-100981152D01*
X127200500Y-98981152D01*
X148329500Y-98981152D01*
X148329500Y-99138847D01*
X148360260Y-99293487D01*
X148360263Y-99293497D01*
X148420606Y-99439179D01*
X148508211Y-99570289D01*
X148619711Y-99681789D01*
X148750821Y-99769394D01*
X148896503Y-99829737D01*
X148896509Y-99829738D01*
X148896512Y-99829739D01*
X149051152Y-99860499D01*
X149051158Y-99860500D01*
X149208842Y-99860500D01*
X149363497Y-99829737D01*
X149509179Y-99769394D01*
X149640289Y-99681789D01*
X149751789Y-99570289D01*
X149839394Y-99439179D01*
X149899737Y-99293497D01*
X149930500Y-99138842D01*
X149930500Y-98981158D01*
X149930499Y-98981152D01*
X150329500Y-98981152D01*
X150329500Y-99138847D01*
X150360260Y-99293487D01*
X150360263Y-99293497D01*
X150420606Y-99439179D01*
X150508211Y-99570289D01*
X150619711Y-99681789D01*
X150750821Y-99769394D01*
X150896503Y-99829737D01*
X150896509Y-99829738D01*
X150896512Y-99829739D01*
X151051152Y-99860499D01*
X151051158Y-99860500D01*
X151208842Y-99860500D01*
X151363497Y-99829737D01*
X151509179Y-99769394D01*
X151640289Y-99681789D01*
X151751789Y-99570289D01*
X151839394Y-99439179D01*
X151899737Y-99293497D01*
X151930500Y-99138842D01*
X151930500Y-98981158D01*
X151899737Y-98826503D01*
X151839394Y-98680821D01*
X151751789Y-98549711D01*
X151640289Y-98438211D01*
X151509179Y-98350606D01*
X151509176Y-98350604D01*
X151509175Y-98350604D01*
X151363498Y-98290263D01*
X151363487Y-98290260D01*
X151208847Y-98259500D01*
X151208842Y-98259500D01*
X151051158Y-98259500D01*
X151051152Y-98259500D01*
X150896512Y-98290260D01*
X150896501Y-98290263D01*
X150750824Y-98350604D01*
X150619711Y-98438210D01*
X150508210Y-98549711D01*
X150420604Y-98680824D01*
X150360263Y-98826501D01*
X150360260Y-98826512D01*
X150329500Y-98981152D01*
X149930499Y-98981152D01*
X149899737Y-98826503D01*
X149839394Y-98680821D01*
X149751789Y-98549711D01*
X149640289Y-98438211D01*
X149509179Y-98350606D01*
X149509176Y-98350604D01*
X149509175Y-98350604D01*
X149426169Y-98316222D01*
X149399650Y-98289704D01*
X149399650Y-98252201D01*
X149426168Y-98225682D01*
X149429778Y-98224350D01*
X149590638Y-98172084D01*
X149758933Y-98086333D01*
X149784328Y-98067882D01*
X149130000Y-97413554D01*
X148475669Y-98067883D01*
X148501063Y-98086331D01*
X148669361Y-98172084D01*
X148830221Y-98224350D01*
X148858738Y-98248706D01*
X148861681Y-98286094D01*
X148837325Y-98314611D01*
X148833831Y-98316222D01*
X148750822Y-98350605D01*
X148619711Y-98438210D01*
X148508210Y-98549711D01*
X148420604Y-98680824D01*
X148360263Y-98826501D01*
X148360260Y-98826512D01*
X148329500Y-98981152D01*
X127200500Y-98981152D01*
X127200500Y-96965558D01*
X147930000Y-96965558D01*
X147930000Y-97154441D01*
X147959547Y-97340998D01*
X147959548Y-97341001D01*
X148017915Y-97520638D01*
X148103669Y-97688939D01*
X148103671Y-97688943D01*
X148122115Y-97714328D01*
X148122116Y-97714328D01*
X148776446Y-97060000D01*
X148776446Y-97059999D01*
X148730369Y-97013922D01*
X148780000Y-97013922D01*
X148780000Y-97106078D01*
X148803852Y-97195095D01*
X148849930Y-97274905D01*
X148915095Y-97340070D01*
X148994905Y-97386148D01*
X149083922Y-97410000D01*
X149176078Y-97410000D01*
X149265095Y-97386148D01*
X149344905Y-97340070D01*
X149410070Y-97274905D01*
X149456148Y-97195095D01*
X149480000Y-97106078D01*
X149480000Y-97059999D01*
X149483554Y-97059999D01*
X149483554Y-97060000D01*
X150137882Y-97714328D01*
X150156335Y-97688931D01*
X150236841Y-97530928D01*
X150265358Y-97506571D01*
X150302745Y-97509514D01*
X150327102Y-97538031D01*
X150329500Y-97553173D01*
X150329500Y-97769894D01*
X150329501Y-97769898D01*
X150335331Y-97799213D01*
X150335331Y-97799214D01*
X150335332Y-97799215D01*
X150335332Y-97799216D01*
X150357542Y-97832456D01*
X150357543Y-97832457D01*
X150390787Y-97854669D01*
X150420101Y-97860500D01*
X151839898Y-97860499D01*
X151869213Y-97854669D01*
X151902457Y-97832457D01*
X151924669Y-97799213D01*
X151930500Y-97769899D01*
X151930499Y-96350102D01*
X151924669Y-96320787D01*
X151924667Y-96320784D01*
X151924667Y-96320783D01*
X151902457Y-96287543D01*
X151869212Y-96265330D01*
X151839901Y-96259500D01*
X150420105Y-96259500D01*
X150420104Y-96259500D01*
X150420102Y-96259501D01*
X150390787Y-96265331D01*
X150390786Y-96265331D01*
X150390784Y-96265332D01*
X150390783Y-96265332D01*
X150357543Y-96287542D01*
X150335330Y-96320786D01*
X150335330Y-96320787D01*
X150329500Y-96350095D01*
X150329500Y-96566824D01*
X150315148Y-96601472D01*
X150280500Y-96615824D01*
X150245852Y-96601472D01*
X150236841Y-96589070D01*
X150156331Y-96431063D01*
X150137883Y-96405669D01*
X149483554Y-97059999D01*
X149480000Y-97059999D01*
X149480000Y-97013922D01*
X149456148Y-96924905D01*
X149410070Y-96845095D01*
X149344905Y-96779930D01*
X149265095Y-96733852D01*
X149176078Y-96710000D01*
X149083922Y-96710000D01*
X148994905Y-96733852D01*
X148915095Y-96779930D01*
X148849930Y-96845095D01*
X148803852Y-96924905D01*
X148780000Y-97013922D01*
X148730369Y-97013922D01*
X148122117Y-96405670D01*
X148103666Y-96431066D01*
X148017915Y-96599361D01*
X147959548Y-96778998D01*
X147959547Y-96779001D01*
X147930000Y-96965558D01*
X127200500Y-96965558D01*
X127200500Y-95825688D01*
X134447000Y-95825688D01*
X134447000Y-95944311D01*
X134477700Y-96058884D01*
X134477701Y-96058887D01*
X134477703Y-96058890D01*
X134537011Y-96161613D01*
X134620887Y-96245489D01*
X134723614Y-96304799D01*
X134752258Y-96312474D01*
X134838188Y-96335500D01*
X134838191Y-96335500D01*
X134956811Y-96335500D01*
X135014097Y-96320149D01*
X135071386Y-96304799D01*
X135174113Y-96245489D01*
X135257989Y-96161613D01*
X135317299Y-96058886D01*
X135319113Y-96052117D01*
X148475670Y-96052117D01*
X149129999Y-96706446D01*
X149784328Y-96052116D01*
X149784328Y-96052115D01*
X149758943Y-96033671D01*
X149758939Y-96033669D01*
X149590638Y-95947915D01*
X149411001Y-95889548D01*
X149410998Y-95889547D01*
X149293111Y-95870876D01*
X149224441Y-95860000D01*
X149035559Y-95860000D01*
X148849001Y-95889547D01*
X148848998Y-95889548D01*
X148669361Y-95947915D01*
X148501066Y-96033666D01*
X148475670Y-96052117D01*
X135319113Y-96052117D01*
X135347034Y-95947915D01*
X135348000Y-95944310D01*
X135348000Y-95825688D01*
X156752000Y-95825688D01*
X156752000Y-95944311D01*
X156782700Y-96058884D01*
X156782701Y-96058887D01*
X156782703Y-96058890D01*
X156842011Y-96161613D01*
X156925887Y-96245489D01*
X157028614Y-96304799D01*
X157057258Y-96312474D01*
X157143188Y-96335500D01*
X157143191Y-96335500D01*
X157261811Y-96335500D01*
X157319097Y-96320149D01*
X157376386Y-96304799D01*
X157479113Y-96245489D01*
X157562989Y-96161613D01*
X157622299Y-96058886D01*
X157652034Y-95947915D01*
X157653000Y-95944311D01*
X157653000Y-95825688D01*
X157622299Y-95711115D01*
X157622298Y-95711112D01*
X157606405Y-95683585D01*
X157562989Y-95608387D01*
X157479113Y-95524511D01*
X157376387Y-95465201D01*
X157376384Y-95465200D01*
X157261812Y-95434500D01*
X157261809Y-95434500D01*
X157143191Y-95434500D01*
X157143188Y-95434500D01*
X157028615Y-95465200D01*
X157028612Y-95465201D01*
X156925886Y-95524511D01*
X156925886Y-95524512D01*
X156842012Y-95608386D01*
X156842011Y-95608386D01*
X156782701Y-95711112D01*
X156782700Y-95711115D01*
X156752000Y-95825688D01*
X135348000Y-95825688D01*
X135317299Y-95711115D01*
X135317298Y-95711112D01*
X135301405Y-95683585D01*
X135257989Y-95608387D01*
X135174113Y-95524511D01*
X135071387Y-95465201D01*
X135071384Y-95465200D01*
X134956812Y-95434500D01*
X134956809Y-95434500D01*
X134838191Y-95434500D01*
X134838188Y-95434500D01*
X134723615Y-95465200D01*
X134723612Y-95465201D01*
X134620886Y-95524511D01*
X134620886Y-95524512D01*
X134537012Y-95608386D01*
X134537011Y-95608386D01*
X134477701Y-95711112D01*
X134477700Y-95711115D01*
X134447000Y-95825688D01*
X127200500Y-95825688D01*
X127200500Y-95190688D01*
X139949500Y-95190688D01*
X139949500Y-95309311D01*
X139980200Y-95423884D01*
X139980201Y-95423887D01*
X139986329Y-95434500D01*
X140039511Y-95526613D01*
X140123387Y-95610489D01*
X140226114Y-95669799D01*
X140254758Y-95677474D01*
X140340688Y-95700500D01*
X140340691Y-95700500D01*
X140459311Y-95700500D01*
X140516597Y-95685149D01*
X140573886Y-95669799D01*
X140676613Y-95610489D01*
X140760489Y-95526613D01*
X140819799Y-95423886D01*
X140835149Y-95366597D01*
X140850500Y-95309311D01*
X140850500Y-95190688D01*
X140819799Y-95076115D01*
X140819798Y-95076112D01*
X140760488Y-94973386D01*
X140676613Y-94889511D01*
X140573887Y-94830201D01*
X140573884Y-94830200D01*
X140459312Y-94799500D01*
X140459309Y-94799500D01*
X140340691Y-94799500D01*
X140340688Y-94799500D01*
X140226115Y-94830200D01*
X140226112Y-94830201D01*
X140123386Y-94889511D01*
X140123386Y-94889512D01*
X140039512Y-94973386D01*
X140039511Y-94973386D01*
X139980201Y-95076112D01*
X139980200Y-95076115D01*
X139949500Y-95190688D01*
X127200500Y-95190688D01*
X127200500Y-90730095D01*
X130009500Y-90730095D01*
X130009500Y-92149894D01*
X130009501Y-92149898D01*
X130015331Y-92179213D01*
X130015331Y-92179214D01*
X130015332Y-92179215D01*
X130015332Y-92179216D01*
X130037542Y-92212456D01*
X130037543Y-92212457D01*
X130070787Y-92234669D01*
X130100101Y-92240500D01*
X131519898Y-92240499D01*
X131549213Y-92234669D01*
X131582457Y-92212457D01*
X131604669Y-92179213D01*
X131610500Y-92149899D01*
X131610499Y-91360939D01*
X136559500Y-91360939D01*
X136559500Y-91519060D01*
X136600422Y-91671782D01*
X136600423Y-91671786D01*
X136679475Y-91808709D01*
X136679478Y-91808713D01*
X136679480Y-91808716D01*
X136791284Y-91920520D01*
X136791287Y-91920521D01*
X136791290Y-91920524D01*
X136928213Y-91999576D01*
X136928215Y-91999576D01*
X136928216Y-91999577D01*
X137048665Y-92031851D01*
X137080939Y-92040499D01*
X137080940Y-92040500D01*
X137080943Y-92040500D01*
X137239060Y-92040500D01*
X137239060Y-92040499D01*
X137331657Y-92015688D01*
X139657000Y-92015688D01*
X139657000Y-92134311D01*
X139687700Y-92248884D01*
X139687701Y-92248887D01*
X139747011Y-92351613D01*
X139830887Y-92435489D01*
X139933614Y-92494799D01*
X139962258Y-92502474D01*
X140048188Y-92525500D01*
X140048191Y-92525500D01*
X140166811Y-92525500D01*
X140224097Y-92510149D01*
X140281386Y-92494799D01*
X140384113Y-92435489D01*
X140467989Y-92351613D01*
X140527299Y-92248886D01*
X140545967Y-92179216D01*
X140558000Y-92134311D01*
X140558000Y-92015688D01*
X143467000Y-92015688D01*
X143467000Y-92134311D01*
X143497700Y-92248884D01*
X143497701Y-92248887D01*
X143557011Y-92351613D01*
X143640887Y-92435489D01*
X143743614Y-92494799D01*
X143772258Y-92502474D01*
X143858188Y-92525500D01*
X143858191Y-92525500D01*
X143976811Y-92525500D01*
X144034097Y-92510149D01*
X144091386Y-92494799D01*
X144194113Y-92435489D01*
X144277989Y-92351613D01*
X144337299Y-92248886D01*
X144355967Y-92179216D01*
X144368000Y-92134311D01*
X144368000Y-92015688D01*
X144337299Y-91901115D01*
X144337298Y-91901112D01*
X144321405Y-91873585D01*
X144277989Y-91798387D01*
X144194113Y-91714511D01*
X144091387Y-91655201D01*
X144091384Y-91655200D01*
X143976812Y-91624500D01*
X143976809Y-91624500D01*
X143858191Y-91624500D01*
X143858188Y-91624500D01*
X143743615Y-91655200D01*
X143743612Y-91655201D01*
X143640886Y-91714511D01*
X143640886Y-91714512D01*
X143557012Y-91798386D01*
X143557011Y-91798386D01*
X143497701Y-91901112D01*
X143497700Y-91901115D01*
X143467000Y-92015688D01*
X140558000Y-92015688D01*
X140527299Y-91901115D01*
X140527298Y-91901112D01*
X140511405Y-91873585D01*
X140467989Y-91798387D01*
X140384113Y-91714511D01*
X140281387Y-91655201D01*
X140281384Y-91655200D01*
X140166812Y-91624500D01*
X140166809Y-91624500D01*
X140048191Y-91624500D01*
X140048188Y-91624500D01*
X139933615Y-91655200D01*
X139933612Y-91655201D01*
X139830886Y-91714511D01*
X139830886Y-91714512D01*
X139747012Y-91798386D01*
X139747011Y-91798386D01*
X139687701Y-91901112D01*
X139687700Y-91901115D01*
X139657000Y-92015688D01*
X137331657Y-92015688D01*
X137391784Y-91999577D01*
X137391786Y-91999576D01*
X137442938Y-91970044D01*
X137528709Y-91920524D01*
X137528708Y-91920524D01*
X137528716Y-91920520D01*
X137640520Y-91808716D01*
X137719577Y-91671784D01*
X137760499Y-91519060D01*
X137760500Y-91519060D01*
X137760500Y-91360940D01*
X137760499Y-91360939D01*
X149259500Y-91360939D01*
X149259500Y-91519060D01*
X149300422Y-91671782D01*
X149300423Y-91671786D01*
X149379475Y-91808709D01*
X149379478Y-91808713D01*
X149379480Y-91808716D01*
X149491284Y-91920520D01*
X149491287Y-91920521D01*
X149491290Y-91920524D01*
X149628213Y-91999576D01*
X149628215Y-91999576D01*
X149628216Y-91999577D01*
X149748665Y-92031851D01*
X149780939Y-92040499D01*
X149780940Y-92040500D01*
X149780943Y-92040500D01*
X149939060Y-92040500D01*
X149939060Y-92040499D01*
X150091784Y-91999577D01*
X150228716Y-91920520D01*
X150340520Y-91808716D01*
X150419577Y-91671784D01*
X150460499Y-91519060D01*
X150460500Y-91519060D01*
X150460500Y-91360940D01*
X150460499Y-91360939D01*
X154339500Y-91360939D01*
X154339500Y-91519060D01*
X154380422Y-91671782D01*
X154380423Y-91671786D01*
X154459475Y-91808709D01*
X154459478Y-91808713D01*
X154459480Y-91808716D01*
X154571284Y-91920520D01*
X154571287Y-91920521D01*
X154571290Y-91920524D01*
X154708213Y-91999576D01*
X154708215Y-91999576D01*
X154708216Y-91999577D01*
X154828665Y-92031851D01*
X154860939Y-92040499D01*
X154860940Y-92040500D01*
X154860943Y-92040500D01*
X155019060Y-92040500D01*
X155019060Y-92040499D01*
X155171784Y-91999577D01*
X155308716Y-91920520D01*
X155420520Y-91808716D01*
X155499577Y-91671784D01*
X155540499Y-91519060D01*
X155540500Y-91519060D01*
X155540500Y-91360940D01*
X155540499Y-91360939D01*
X155499577Y-91208217D01*
X155499576Y-91208213D01*
X155420524Y-91071290D01*
X155420521Y-91071287D01*
X155420520Y-91071284D01*
X155308716Y-90959480D01*
X155308713Y-90959478D01*
X155308709Y-90959475D01*
X155171786Y-90880423D01*
X155171782Y-90880422D01*
X155019060Y-90839500D01*
X155019057Y-90839500D01*
X154860943Y-90839500D01*
X154860940Y-90839500D01*
X154708217Y-90880422D01*
X154708213Y-90880423D01*
X154571290Y-90959475D01*
X154571281Y-90959482D01*
X154459482Y-91071281D01*
X154459475Y-91071290D01*
X154380423Y-91208213D01*
X154380422Y-91208217D01*
X154339500Y-91360939D01*
X150460499Y-91360939D01*
X150419577Y-91208217D01*
X150419576Y-91208213D01*
X150340524Y-91071290D01*
X150340521Y-91071287D01*
X150340520Y-91071284D01*
X150228716Y-90959480D01*
X150228713Y-90959478D01*
X150228709Y-90959475D01*
X150091786Y-90880423D01*
X150091782Y-90880422D01*
X149939060Y-90839500D01*
X149939057Y-90839500D01*
X149780943Y-90839500D01*
X149780940Y-90839500D01*
X149628217Y-90880422D01*
X149628213Y-90880423D01*
X149491290Y-90959475D01*
X149491281Y-90959482D01*
X149379482Y-91071281D01*
X149379475Y-91071290D01*
X149300423Y-91208213D01*
X149300422Y-91208217D01*
X149259500Y-91360939D01*
X137760499Y-91360939D01*
X137719577Y-91208217D01*
X137719576Y-91208213D01*
X137640524Y-91071290D01*
X137640521Y-91071287D01*
X137640520Y-91071284D01*
X137528716Y-90959480D01*
X137528713Y-90959478D01*
X137528709Y-90959475D01*
X137391786Y-90880423D01*
X137391782Y-90880422D01*
X137239060Y-90839500D01*
X137239057Y-90839500D01*
X137080943Y-90839500D01*
X137080940Y-90839500D01*
X136928217Y-90880422D01*
X136928213Y-90880423D01*
X136791290Y-90959475D01*
X136791281Y-90959482D01*
X136679482Y-91071281D01*
X136679475Y-91071290D01*
X136600423Y-91208213D01*
X136600422Y-91208217D01*
X136559500Y-91360939D01*
X131610499Y-91360939D01*
X131610499Y-90730102D01*
X131610498Y-90730095D01*
X160489500Y-90730095D01*
X160489500Y-92149894D01*
X160489501Y-92149898D01*
X160495331Y-92179213D01*
X160495331Y-92179214D01*
X160495332Y-92179215D01*
X160495332Y-92179216D01*
X160517542Y-92212456D01*
X160517543Y-92212457D01*
X160550787Y-92234669D01*
X160580101Y-92240500D01*
X161999898Y-92240499D01*
X162029213Y-92234669D01*
X162062457Y-92212457D01*
X162084669Y-92179213D01*
X162090500Y-92149899D01*
X162090499Y-90730102D01*
X162084669Y-90700787D01*
X162084667Y-90700784D01*
X162084667Y-90700783D01*
X162062457Y-90667543D01*
X162029212Y-90645330D01*
X161999901Y-90639500D01*
X160580105Y-90639500D01*
X160580104Y-90639500D01*
X160580102Y-90639501D01*
X160550787Y-90645331D01*
X160550786Y-90645331D01*
X160550784Y-90645332D01*
X160550783Y-90645332D01*
X160517543Y-90667542D01*
X160495330Y-90700786D01*
X160495330Y-90700787D01*
X160489500Y-90730095D01*
X131610498Y-90730095D01*
X131604669Y-90700787D01*
X131604667Y-90700784D01*
X131604667Y-90700783D01*
X131582457Y-90667543D01*
X131549212Y-90645330D01*
X131519901Y-90639500D01*
X130100105Y-90639500D01*
X130100104Y-90639500D01*
X130100102Y-90639501D01*
X130070787Y-90645331D01*
X130070786Y-90645331D01*
X130070784Y-90645332D01*
X130070783Y-90645332D01*
X130037543Y-90667542D01*
X130015330Y-90700786D01*
X130015330Y-90700787D01*
X130009500Y-90730095D01*
X127200500Y-90730095D01*
X127200500Y-88821152D01*
X130009500Y-88821152D01*
X130009500Y-88978847D01*
X130040260Y-89133487D01*
X130040263Y-89133497D01*
X130100606Y-89279179D01*
X130188211Y-89410289D01*
X130299711Y-89521789D01*
X130430821Y-89609394D01*
X130576503Y-89669737D01*
X130576509Y-89669738D01*
X130576512Y-89669739D01*
X130731152Y-89700499D01*
X130731158Y-89700500D01*
X130888842Y-89700500D01*
X131043497Y-89669737D01*
X131189179Y-89609394D01*
X131320289Y-89521789D01*
X131431789Y-89410289D01*
X131519394Y-89279179D01*
X131579737Y-89133497D01*
X131610500Y-88978842D01*
X131610500Y-88821158D01*
X131610499Y-88821152D01*
X160489500Y-88821152D01*
X160489500Y-88978847D01*
X160520260Y-89133487D01*
X160520263Y-89133497D01*
X160580606Y-89279179D01*
X160668211Y-89410289D01*
X160779711Y-89521789D01*
X160910821Y-89609394D01*
X161056503Y-89669737D01*
X161056509Y-89669738D01*
X161056512Y-89669739D01*
X161211152Y-89700499D01*
X161211158Y-89700500D01*
X161368842Y-89700500D01*
X161523497Y-89669737D01*
X161669179Y-89609394D01*
X161800289Y-89521789D01*
X161911789Y-89410289D01*
X161999394Y-89279179D01*
X162059737Y-89133497D01*
X162090500Y-88978842D01*
X162090500Y-88821158D01*
X162059737Y-88666503D01*
X161999394Y-88520821D01*
X161911789Y-88389711D01*
X161800289Y-88278211D01*
X161669179Y-88190606D01*
X161669176Y-88190604D01*
X161669175Y-88190604D01*
X161523498Y-88130263D01*
X161523487Y-88130260D01*
X161368847Y-88099500D01*
X161368842Y-88099500D01*
X161211158Y-88099500D01*
X161211152Y-88099500D01*
X161056512Y-88130260D01*
X161056501Y-88130263D01*
X160910824Y-88190604D01*
X160779711Y-88278210D01*
X160668210Y-88389711D01*
X160580604Y-88520824D01*
X160520263Y-88666501D01*
X160520260Y-88666512D01*
X160489500Y-88821152D01*
X131610499Y-88821152D01*
X131579737Y-88666503D01*
X131519394Y-88520821D01*
X131431789Y-88389711D01*
X131320289Y-88278211D01*
X131189179Y-88190606D01*
X131189176Y-88190604D01*
X131189175Y-88190604D01*
X131043498Y-88130263D01*
X131043487Y-88130260D01*
X130888847Y-88099500D01*
X130888842Y-88099500D01*
X130731158Y-88099500D01*
X130731152Y-88099500D01*
X130576512Y-88130260D01*
X130576501Y-88130263D01*
X130430824Y-88190604D01*
X130299711Y-88278210D01*
X130188210Y-88389711D01*
X130100604Y-88520824D01*
X130040263Y-88666501D01*
X130040260Y-88666512D01*
X130009500Y-88821152D01*
X127200500Y-88821152D01*
X127200500Y-87275688D01*
X143487000Y-87275688D01*
X143487000Y-87394311D01*
X143517700Y-87508884D01*
X143517701Y-87508887D01*
X143577011Y-87611613D01*
X143660887Y-87695489D01*
X143763614Y-87754799D01*
X143792258Y-87762474D01*
X143878188Y-87785500D01*
X143878191Y-87785500D01*
X143996811Y-87785500D01*
X144054097Y-87770149D01*
X144111386Y-87754799D01*
X144214113Y-87695489D01*
X144297989Y-87611613D01*
X144357299Y-87508886D01*
X144372649Y-87451597D01*
X144388000Y-87394311D01*
X144388000Y-87275688D01*
X144357299Y-87161115D01*
X144357298Y-87161112D01*
X144339183Y-87129736D01*
X144297989Y-87058387D01*
X144214113Y-86974511D01*
X144111387Y-86915201D01*
X144111384Y-86915200D01*
X143996812Y-86884500D01*
X143996809Y-86884500D01*
X143878191Y-86884500D01*
X143878188Y-86884500D01*
X143763615Y-86915200D01*
X143763612Y-86915201D01*
X143660886Y-86974511D01*
X143660886Y-86974512D01*
X143577012Y-87058386D01*
X143577011Y-87058386D01*
X143517701Y-87161112D01*
X143517700Y-87161115D01*
X143487000Y-87275688D01*
X127200500Y-87275688D01*
X127200500Y-86281152D01*
X130009500Y-86281152D01*
X130009500Y-86438847D01*
X130040260Y-86593487D01*
X130040263Y-86593497D01*
X130100606Y-86739179D01*
X130188211Y-86870289D01*
X130299711Y-86981789D01*
X130430821Y-87069394D01*
X130576503Y-87129737D01*
X130576509Y-87129738D01*
X130576512Y-87129739D01*
X130731152Y-87160499D01*
X130731158Y-87160500D01*
X130888842Y-87160500D01*
X131043497Y-87129737D01*
X131189179Y-87069394D01*
X131320289Y-86981789D01*
X131431789Y-86870289D01*
X131519394Y-86739179D01*
X131579737Y-86593497D01*
X131610500Y-86438842D01*
X131610500Y-86281158D01*
X131610500Y-86281155D01*
X131610457Y-86280939D01*
X136559500Y-86280939D01*
X136559500Y-86439060D01*
X136600422Y-86591782D01*
X136600423Y-86591786D01*
X136679475Y-86728709D01*
X136679478Y-86728713D01*
X136679480Y-86728716D01*
X136791284Y-86840520D01*
X136791287Y-86840521D01*
X136791290Y-86840524D01*
X136928213Y-86919576D01*
X136928215Y-86919576D01*
X136928216Y-86919577D01*
X137048665Y-86951851D01*
X137080939Y-86960499D01*
X137080940Y-86960500D01*
X137080943Y-86960500D01*
X137239060Y-86960500D01*
X137239060Y-86960499D01*
X137391784Y-86919577D01*
X137399366Y-86915200D01*
X137528709Y-86840524D01*
X137528708Y-86840524D01*
X137528716Y-86840520D01*
X137640520Y-86728716D01*
X137657218Y-86699792D01*
X137719576Y-86591786D01*
X137719576Y-86591785D01*
X137719577Y-86591784D01*
X137760499Y-86439060D01*
X137760500Y-86439060D01*
X137760500Y-86280940D01*
X137760499Y-86280939D01*
X154339500Y-86280939D01*
X154339500Y-86439060D01*
X154380422Y-86591782D01*
X154380423Y-86591786D01*
X154459475Y-86728709D01*
X154459478Y-86728713D01*
X154459480Y-86728716D01*
X154571284Y-86840520D01*
X154571287Y-86840521D01*
X154571290Y-86840524D01*
X154708213Y-86919576D01*
X154708215Y-86919576D01*
X154708216Y-86919577D01*
X154828665Y-86951851D01*
X154860939Y-86960499D01*
X154860940Y-86960500D01*
X154860943Y-86960500D01*
X155019060Y-86960500D01*
X155019060Y-86960499D01*
X155171784Y-86919577D01*
X155179366Y-86915200D01*
X155308709Y-86840524D01*
X155308708Y-86840524D01*
X155308716Y-86840520D01*
X155420520Y-86728716D01*
X155437218Y-86699792D01*
X155499576Y-86591786D01*
X155499576Y-86591785D01*
X155499577Y-86591784D01*
X155540499Y-86439060D01*
X155540500Y-86439060D01*
X155540500Y-86281152D01*
X160489500Y-86281152D01*
X160489500Y-86438847D01*
X160520260Y-86593487D01*
X160520263Y-86593497D01*
X160580606Y-86739179D01*
X160668211Y-86870289D01*
X160779711Y-86981789D01*
X160910821Y-87069394D01*
X161056503Y-87129737D01*
X161056509Y-87129738D01*
X161056512Y-87129739D01*
X161211152Y-87160499D01*
X161211158Y-87160500D01*
X161368842Y-87160500D01*
X161523497Y-87129737D01*
X161669179Y-87069394D01*
X161800289Y-86981789D01*
X161911789Y-86870289D01*
X161999394Y-86739179D01*
X162059737Y-86593497D01*
X162090500Y-86438842D01*
X162090500Y-86281158D01*
X162090499Y-86281152D01*
X162059739Y-86126512D01*
X162059736Y-86126501D01*
X162003728Y-85991284D01*
X161999394Y-85980821D01*
X161911789Y-85849711D01*
X161800289Y-85738211D01*
X161669179Y-85650606D01*
X161669176Y-85650604D01*
X161669175Y-85650604D01*
X161523498Y-85590263D01*
X161523487Y-85590260D01*
X161368847Y-85559500D01*
X161368842Y-85559500D01*
X161211158Y-85559500D01*
X161211152Y-85559500D01*
X161056512Y-85590260D01*
X161056501Y-85590263D01*
X160910824Y-85650604D01*
X160779711Y-85738210D01*
X160668210Y-85849711D01*
X160580604Y-85980824D01*
X160520263Y-86126501D01*
X160520260Y-86126512D01*
X160489500Y-86281152D01*
X155540500Y-86281152D01*
X155540500Y-86280940D01*
X155540499Y-86280939D01*
X155499577Y-86128217D01*
X155499576Y-86128213D01*
X155420524Y-85991290D01*
X155420521Y-85991287D01*
X155420520Y-85991284D01*
X155308716Y-85879480D01*
X155308713Y-85879478D01*
X155308709Y-85879475D01*
X155171786Y-85800423D01*
X155171782Y-85800422D01*
X155019060Y-85759500D01*
X155019057Y-85759500D01*
X154860943Y-85759500D01*
X154860940Y-85759500D01*
X154708217Y-85800422D01*
X154708213Y-85800423D01*
X154571290Y-85879475D01*
X154571281Y-85879482D01*
X154459482Y-85991281D01*
X154459475Y-85991290D01*
X154380423Y-86128213D01*
X154380422Y-86128217D01*
X154339500Y-86280939D01*
X137760499Y-86280939D01*
X137719577Y-86128217D01*
X137719576Y-86128213D01*
X137640524Y-85991290D01*
X137640521Y-85991287D01*
X137640520Y-85991284D01*
X137528716Y-85879480D01*
X137528713Y-85879478D01*
X137528709Y-85879475D01*
X137391786Y-85800423D01*
X137391782Y-85800422D01*
X137239060Y-85759500D01*
X137239057Y-85759500D01*
X137080943Y-85759500D01*
X137080940Y-85759500D01*
X136928217Y-85800422D01*
X136928213Y-85800423D01*
X136791290Y-85879475D01*
X136791281Y-85879482D01*
X136679482Y-85991281D01*
X136679475Y-85991290D01*
X136600423Y-86128213D01*
X136600422Y-86128217D01*
X136559500Y-86280939D01*
X131610457Y-86280939D01*
X131579739Y-86126512D01*
X131579736Y-86126501D01*
X131523728Y-85991284D01*
X131519394Y-85980821D01*
X131431789Y-85849711D01*
X131320289Y-85738211D01*
X131189179Y-85650606D01*
X131189176Y-85650604D01*
X131189175Y-85650604D01*
X131043498Y-85590263D01*
X131043487Y-85590260D01*
X130888847Y-85559500D01*
X130888842Y-85559500D01*
X130731158Y-85559500D01*
X130731152Y-85559500D01*
X130576512Y-85590260D01*
X130576501Y-85590263D01*
X130430824Y-85650604D01*
X130299711Y-85738210D01*
X130188210Y-85849711D01*
X130100604Y-85980824D01*
X130040263Y-86126501D01*
X130040260Y-86126512D01*
X130009500Y-86281152D01*
X127200500Y-86281152D01*
X127200500Y-84827883D01*
X130155669Y-84827883D01*
X130181063Y-84846331D01*
X130349361Y-84932084D01*
X130528998Y-84990451D01*
X130529001Y-84990452D01*
X130715559Y-85020000D01*
X130904441Y-85020000D01*
X131090998Y-84990452D01*
X131091001Y-84990451D01*
X131270638Y-84932084D01*
X131438933Y-84846333D01*
X131464327Y-84827883D01*
X160635669Y-84827883D01*
X160661063Y-84846331D01*
X160829361Y-84932084D01*
X161008998Y-84990451D01*
X161009001Y-84990452D01*
X161195559Y-85020000D01*
X161384441Y-85020000D01*
X161570998Y-84990452D01*
X161571001Y-84990451D01*
X161750638Y-84932084D01*
X161918933Y-84846333D01*
X161944328Y-84827882D01*
X161290000Y-84173554D01*
X160635669Y-84827883D01*
X131464327Y-84827883D01*
X131464328Y-84827882D01*
X130810000Y-84173554D01*
X130155669Y-84827883D01*
X127200500Y-84827883D01*
X127200500Y-83725558D01*
X129610000Y-83725558D01*
X129610000Y-83914441D01*
X129639547Y-84100998D01*
X129639548Y-84101001D01*
X129697915Y-84280638D01*
X129783669Y-84448939D01*
X129783671Y-84448943D01*
X129802115Y-84474328D01*
X129802116Y-84474328D01*
X130456446Y-83820000D01*
X130456446Y-83819999D01*
X130410369Y-83773922D01*
X130460000Y-83773922D01*
X130460000Y-83866078D01*
X130483852Y-83955095D01*
X130529930Y-84034905D01*
X130595095Y-84100070D01*
X130674905Y-84146148D01*
X130763922Y-84170000D01*
X130856078Y-84170000D01*
X130945095Y-84146148D01*
X131024905Y-84100070D01*
X131090070Y-84034905D01*
X131136148Y-83955095D01*
X131160000Y-83866078D01*
X131160000Y-83819999D01*
X131163554Y-83819999D01*
X131163554Y-83820000D01*
X131817882Y-84474328D01*
X131836333Y-84448933D01*
X131922084Y-84280638D01*
X131980451Y-84101001D01*
X131980452Y-84100998D01*
X132010000Y-83914441D01*
X132010000Y-83725558D01*
X160090000Y-83725558D01*
X160090000Y-83914441D01*
X160119547Y-84100998D01*
X160119548Y-84101001D01*
X160177915Y-84280638D01*
X160263669Y-84448939D01*
X160263671Y-84448943D01*
X160282115Y-84474328D01*
X160282116Y-84474328D01*
X160936446Y-83820000D01*
X160936446Y-83819999D01*
X160890369Y-83773922D01*
X160940000Y-83773922D01*
X160940000Y-83866078D01*
X160963852Y-83955095D01*
X161009930Y-84034905D01*
X161075095Y-84100070D01*
X161154905Y-84146148D01*
X161243922Y-84170000D01*
X161336078Y-84170000D01*
X161425095Y-84146148D01*
X161504905Y-84100070D01*
X161570070Y-84034905D01*
X161616148Y-83955095D01*
X161640000Y-83866078D01*
X161640000Y-83819999D01*
X161643554Y-83819999D01*
X161643554Y-83820000D01*
X162297882Y-84474328D01*
X162316333Y-84448933D01*
X162402084Y-84280638D01*
X162460451Y-84101001D01*
X162460452Y-84100998D01*
X162490000Y-83914441D01*
X162490000Y-83725558D01*
X162460452Y-83539001D01*
X162460451Y-83538998D01*
X162402084Y-83359361D01*
X162316331Y-83191063D01*
X162297883Y-83165669D01*
X161643554Y-83819999D01*
X161640000Y-83819999D01*
X161640000Y-83773922D01*
X161616148Y-83684905D01*
X161570070Y-83605095D01*
X161504905Y-83539930D01*
X161425095Y-83493852D01*
X161336078Y-83470000D01*
X161243922Y-83470000D01*
X161154905Y-83493852D01*
X161075095Y-83539930D01*
X161009930Y-83605095D01*
X160963852Y-83684905D01*
X160940000Y-83773922D01*
X160890369Y-83773922D01*
X160282117Y-83165670D01*
X160263666Y-83191066D01*
X160177915Y-83359361D01*
X160119548Y-83538998D01*
X160119547Y-83539001D01*
X160090000Y-83725558D01*
X132010000Y-83725558D01*
X131980452Y-83539001D01*
X131980451Y-83538998D01*
X131922084Y-83359361D01*
X131836331Y-83191063D01*
X131817882Y-83165670D01*
X131163554Y-83819999D01*
X131160000Y-83819999D01*
X131160000Y-83773922D01*
X131136148Y-83684905D01*
X131090070Y-83605095D01*
X131024905Y-83539930D01*
X130945095Y-83493852D01*
X130856078Y-83470000D01*
X130763922Y-83470000D01*
X130674905Y-83493852D01*
X130595095Y-83539930D01*
X130529930Y-83605095D01*
X130483852Y-83684905D01*
X130460000Y-83773922D01*
X130410369Y-83773922D01*
X129802117Y-83165670D01*
X129783666Y-83191066D01*
X129697915Y-83359361D01*
X129639548Y-83538998D01*
X129639547Y-83539001D01*
X129610000Y-83725558D01*
X127200500Y-83725558D01*
X127200500Y-82812117D01*
X130155670Y-82812117D01*
X130809999Y-83466446D01*
X131150756Y-83125688D01*
X144737000Y-83125688D01*
X144737000Y-83244311D01*
X144767700Y-83358884D01*
X144767701Y-83358887D01*
X144767975Y-83359361D01*
X144827011Y-83461613D01*
X144910887Y-83545489D01*
X145013614Y-83604799D01*
X145042258Y-83612474D01*
X145128188Y-83635500D01*
X145128191Y-83635500D01*
X145246811Y-83635500D01*
X145304097Y-83620149D01*
X145361386Y-83604799D01*
X145464113Y-83545489D01*
X145547989Y-83461613D01*
X145607299Y-83358886D01*
X145622649Y-83301597D01*
X145638000Y-83244311D01*
X145638000Y-83125688D01*
X145607299Y-83011115D01*
X145607298Y-83011112D01*
X145547988Y-82908386D01*
X145464113Y-82824511D01*
X145442646Y-82812117D01*
X160635670Y-82812117D01*
X161289999Y-83466446D01*
X161944328Y-82812116D01*
X161944328Y-82812115D01*
X161918943Y-82793671D01*
X161918939Y-82793669D01*
X161750638Y-82707915D01*
X161571001Y-82649548D01*
X161570998Y-82649547D01*
X161384441Y-82620000D01*
X161195559Y-82620000D01*
X161009001Y-82649547D01*
X161008998Y-82649548D01*
X160829361Y-82707915D01*
X160661066Y-82793666D01*
X160635670Y-82812117D01*
X145442646Y-82812117D01*
X145361387Y-82765201D01*
X145361384Y-82765200D01*
X145246812Y-82734500D01*
X145246809Y-82734500D01*
X145128191Y-82734500D01*
X145128188Y-82734500D01*
X145013615Y-82765200D01*
X145013612Y-82765201D01*
X144910886Y-82824511D01*
X144910886Y-82824512D01*
X144827012Y-82908386D01*
X144827011Y-82908386D01*
X144767701Y-83011112D01*
X144767700Y-83011115D01*
X144737000Y-83125688D01*
X131150756Y-83125688D01*
X131464328Y-82812116D01*
X131464328Y-82812115D01*
X131438943Y-82793671D01*
X131438939Y-82793669D01*
X131270638Y-82707915D01*
X131091001Y-82649548D01*
X131090998Y-82649547D01*
X130904441Y-82620000D01*
X130715559Y-82620000D01*
X130529001Y-82649547D01*
X130528998Y-82649548D01*
X130349361Y-82707915D01*
X130181066Y-82793666D01*
X130155670Y-82812117D01*
X127200500Y-82812117D01*
X127200500Y-79609069D01*
X127214852Y-79574421D01*
X127249500Y-79560069D01*
X127284148Y-79574421D01*
X127295750Y-79592885D01*
X127319196Y-79659892D01*
X127319199Y-79659898D01*
X127436147Y-79902742D01*
X127436152Y-79902752D01*
X127579567Y-80130998D01*
X127675345Y-80251099D01*
X128603708Y-79322736D01*
X128700967Y-79456602D01*
X128823398Y-79579033D01*
X128957262Y-79676290D01*
X128028899Y-80604653D01*
X128149001Y-80700432D01*
X128377247Y-80843847D01*
X128377257Y-80843852D01*
X128620101Y-80960800D01*
X128620107Y-80960803D01*
X128874550Y-81049836D01*
X128874549Y-81049836D01*
X129137358Y-81109819D01*
X129405218Y-81140000D01*
X129674782Y-81140000D01*
X129942639Y-81109819D01*
X129942643Y-81109819D01*
X130205449Y-81049836D01*
X130459892Y-80960803D01*
X130459898Y-80960800D01*
X130702742Y-80843852D01*
X130702752Y-80843847D01*
X130931000Y-80700430D01*
X130931007Y-80700426D01*
X131051098Y-80604654D01*
X131051099Y-80604653D01*
X130122736Y-79676290D01*
X130256602Y-79579033D01*
X130379033Y-79456602D01*
X130476290Y-79322736D01*
X131404653Y-80251099D01*
X131404654Y-80251098D01*
X131500426Y-80131007D01*
X131500430Y-80131000D01*
X131643847Y-79902752D01*
X131643852Y-79902742D01*
X131760800Y-79659898D01*
X131760803Y-79659892D01*
X131849836Y-79405449D01*
X131909819Y-79142643D01*
X131909819Y-79142639D01*
X131940000Y-78874781D01*
X131940000Y-78605218D01*
X131909819Y-78337360D01*
X131909819Y-78337356D01*
X131849836Y-78074550D01*
X131760803Y-77820107D01*
X131760800Y-77820101D01*
X131643852Y-77577257D01*
X131643847Y-77577247D01*
X131500432Y-77349001D01*
X131404653Y-77228899D01*
X130476290Y-78157262D01*
X130379033Y-78023398D01*
X130256602Y-77900967D01*
X130122736Y-77803708D01*
X131051099Y-76875345D01*
X130930998Y-76779567D01*
X130702752Y-76636152D01*
X130702742Y-76636147D01*
X130459898Y-76519199D01*
X130459892Y-76519196D01*
X130392886Y-76495750D01*
X130364922Y-76470760D01*
X130362820Y-76433316D01*
X130387810Y-76405352D01*
X130409070Y-76400500D01*
X161690930Y-76400500D01*
X161725578Y-76414852D01*
G37*
G04 #@! TD.AperFunction*
M02*
