G04 #@! TF.GenerationSoftware,KiCad,Pcbnew,9.0.0*
G04 #@! TF.CreationDate,2025-03-07T13:21:57-06:00*
G04 #@! TF.ProjectId,robo-roach-v1.0,726f626f-2d72-46f6-9163-682d76312e30,rev?*
G04 #@! TF.SameCoordinates,Original*
G04 #@! TF.FileFunction,Copper,L3,Inr*
G04 #@! TF.FilePolarity,Positive*
%FSLAX46Y46*%
G04 Gerber Fmt 4.6, Leading zero omitted, Abs format (unit mm)*
G04 Created by KiCad (PCBNEW 9.0.0) date 2025-03-07 13:21:57*
%MOMM*%
%LPD*%
G01*
G04 APERTURE LIST*
G04 #@! TA.AperFunction,ComponentPad*
%ADD10C,3.800000*%
G04 #@! TD*
G04 #@! TA.AperFunction,HeatsinkPad*
%ADD11O,1.000000X1.700000*%
G04 #@! TD*
G04 #@! TA.AperFunction,ComponentPad*
%ADD12R,1.600000X1.600000*%
G04 #@! TD*
G04 #@! TA.AperFunction,ComponentPad*
%ADD13C,1.600000*%
G04 #@! TD*
G04 #@! TA.AperFunction,ComponentPad*
%ADD14C,1.000000*%
G04 #@! TD*
G04 #@! TA.AperFunction,ComponentPad*
%ADD15R,1.400000X1.400000*%
G04 #@! TD*
G04 #@! TA.AperFunction,ComponentPad*
%ADD16C,1.400000*%
G04 #@! TD*
G04 #@! TA.AperFunction,ComponentPad*
%ADD17C,1.700000*%
G04 #@! TD*
G04 #@! TA.AperFunction,ViaPad*
%ADD18C,0.400000*%
G04 #@! TD*
G04 APERTURE END LIST*
D10*
X162560000Y-134620000D03*
X162560000Y-78740000D03*
X129540000Y-78740000D03*
D11*
X157990000Y-133515000D03*
X157990000Y-129715000D03*
X149350000Y-133515000D03*
X149350000Y-129715000D03*
D12*
X146050000Y-125730000D03*
D13*
X144050000Y-125730000D03*
D14*
X142240000Y-115570000D03*
X137160000Y-86360000D03*
X154940000Y-86360000D03*
X154940000Y-91440000D03*
X137160000Y-91440000D03*
X162560000Y-121920000D03*
X133350000Y-125730000D03*
X149860000Y-91440000D03*
D15*
X151130000Y-97060000D03*
D16*
X151130000Y-99060000D03*
X151130000Y-101060000D03*
X149130000Y-97060000D03*
X149130000Y-99060000D03*
X149130000Y-101060000D03*
X130810000Y-115570000D03*
D15*
X130810000Y-113030000D03*
D17*
X145670000Y-132715000D03*
X140970000Y-132715000D03*
X136270000Y-132715000D03*
D15*
X161290000Y-113030000D03*
D16*
X161290000Y-115570000D03*
D15*
X130810000Y-107950000D03*
D16*
X130810000Y-105410000D03*
D15*
X161290000Y-105410000D03*
D16*
X161290000Y-107950000D03*
D15*
X130810000Y-91440000D03*
D16*
X130810000Y-88900000D03*
X130810000Y-86360000D03*
X130810000Y-83820000D03*
D15*
X161290000Y-91440000D03*
D16*
X161290000Y-88900000D03*
X161290000Y-86360000D03*
X161290000Y-83820000D03*
D15*
X132080000Y-133350000D03*
D16*
X129540000Y-133350000D03*
D18*
X137160000Y-106680000D03*
X137310000Y-109085000D03*
X138735000Y-108085000D03*
X138885000Y-106680000D03*
X137567500Y-116205000D03*
X128905000Y-122165000D03*
X137292500Y-120650000D03*
X150495000Y-121512500D03*
X152532500Y-121600000D03*
X154807500Y-119700000D03*
X154832500Y-115570000D03*
X155802500Y-108585000D03*
X154077500Y-108585000D03*
X155652500Y-106180000D03*
X154227500Y-107180000D03*
X154807500Y-120650000D03*
X158750000Y-119737500D03*
X156845000Y-119787500D03*
X149225000Y-109577500D03*
X148162500Y-86685000D03*
X143937500Y-87335000D03*
X148162500Y-85385000D03*
X143937500Y-86035000D03*
X145187500Y-83185000D03*
X157202500Y-95885000D03*
X134897500Y-95885000D03*
X143917500Y-92075000D03*
X140107500Y-92075000D03*
X140400000Y-95250000D03*
X146912500Y-83185000D03*
X145642500Y-92075000D03*
X141832500Y-92075000D03*
X139292500Y-116205000D03*
X139567500Y-120650000D03*
X135255000Y-121562500D03*
X141605000Y-121512500D03*
X137517500Y-123825000D03*
X150920000Y-129535000D03*
X156420000Y-129535000D03*
X157757500Y-127000000D03*
X149582500Y-127000000D03*
X152757500Y-123825000D03*
X152532500Y-120650000D03*
X150495000Y-119787500D03*
X156845000Y-121512500D03*
X143830000Y-109552500D03*
X143867500Y-107315000D03*
X134922500Y-98110000D03*
X145350000Y-95250000D03*
X157177500Y-100010000D03*
G04 #@! TA.AperFunction,Conductor*
G36*
X162901601Y-76400604D02*
G01*
X163157788Y-76417396D01*
X163164122Y-76418229D01*
X163414373Y-76468007D01*
X163420534Y-76469657D01*
X163662142Y-76551673D01*
X163668054Y-76554122D01*
X163896878Y-76666966D01*
X163902413Y-76670161D01*
X164057414Y-76773730D01*
X164114548Y-76811906D01*
X164119633Y-76815808D01*
X164311445Y-76984022D01*
X164315977Y-76988554D01*
X164484191Y-77180366D01*
X164488093Y-77185451D01*
X164629833Y-77397578D01*
X164633036Y-77403126D01*
X164640445Y-77418149D01*
X164745875Y-77631941D01*
X164748328Y-77637862D01*
X164830339Y-77879457D01*
X164831994Y-77885636D01*
X164881767Y-78135859D01*
X164882603Y-78142213D01*
X164899395Y-78398398D01*
X164899500Y-78401603D01*
X164899500Y-134958396D01*
X164899395Y-134961601D01*
X164882603Y-135217786D01*
X164881767Y-135224137D01*
X164831995Y-135474359D01*
X164830339Y-135480542D01*
X164748328Y-135722137D01*
X164745875Y-135728058D01*
X164633038Y-135956870D01*
X164629833Y-135962421D01*
X164488093Y-136174548D01*
X164484191Y-136179633D01*
X164315977Y-136371445D01*
X164311445Y-136375977D01*
X164119633Y-136544191D01*
X164114548Y-136548093D01*
X163902421Y-136689833D01*
X163896870Y-136693038D01*
X163668058Y-136805875D01*
X163662137Y-136808328D01*
X163420542Y-136890339D01*
X163414359Y-136891995D01*
X163164137Y-136941767D01*
X163157786Y-136942603D01*
X162901602Y-136959395D01*
X162898397Y-136959500D01*
X153710500Y-136959500D01*
X153675852Y-136945148D01*
X153661500Y-136910500D01*
X153661500Y-134488880D01*
X160559500Y-134488880D01*
X160559500Y-134751120D01*
X160593730Y-135011116D01*
X160593731Y-135011120D01*
X160593732Y-135011127D01*
X160661599Y-135264412D01*
X160661602Y-135264419D01*
X160761957Y-135506697D01*
X160761959Y-135506700D01*
X160893074Y-135733800D01*
X160893084Y-135733815D01*
X161052709Y-135941841D01*
X161052720Y-135941853D01*
X161238146Y-136127279D01*
X161238158Y-136127290D01*
X161446184Y-136286915D01*
X161446193Y-136286921D01*
X161446197Y-136286924D01*
X161673303Y-136418043D01*
X161915581Y-136518398D01*
X161915584Y-136518398D01*
X161915587Y-136518400D01*
X162168872Y-136586267D01*
X162168873Y-136586267D01*
X162168884Y-136586270D01*
X162428880Y-136620500D01*
X162428883Y-136620500D01*
X162691117Y-136620500D01*
X162691120Y-136620500D01*
X162951116Y-136586270D01*
X163093595Y-136548093D01*
X163204412Y-136518400D01*
X163204412Y-136518399D01*
X163204419Y-136518398D01*
X163446697Y-136418043D01*
X163673803Y-136286924D01*
X163673815Y-136286915D01*
X163881841Y-136127290D01*
X163881843Y-136127287D01*
X163881851Y-136127282D01*
X164067282Y-135941851D01*
X164226924Y-135733803D01*
X164358043Y-135506697D01*
X164458398Y-135264419D01*
X164526270Y-135011116D01*
X164560500Y-134751120D01*
X164560500Y-134488880D01*
X164526270Y-134228884D01*
X164458398Y-133975581D01*
X164358043Y-133733303D01*
X164226924Y-133506197D01*
X164226921Y-133506193D01*
X164226915Y-133506184D01*
X164067290Y-133298158D01*
X164067279Y-133298146D01*
X163881853Y-133112720D01*
X163881841Y-133112709D01*
X163673815Y-132953084D01*
X163673800Y-132953074D01*
X163446700Y-132821959D01*
X163446701Y-132821959D01*
X163446697Y-132821957D01*
X163263209Y-132745953D01*
X163204422Y-132721603D01*
X163204412Y-132721599D01*
X162951127Y-132653732D01*
X162951120Y-132653731D01*
X162951116Y-132653730D01*
X162691120Y-132619500D01*
X162428880Y-132619500D01*
X162168884Y-132653730D01*
X162168880Y-132653730D01*
X162168872Y-132653732D01*
X161915587Y-132721599D01*
X161915577Y-132721603D01*
X161756435Y-132787522D01*
X161673303Y-132821957D01*
X161673300Y-132821958D01*
X161673299Y-132821959D01*
X161446199Y-132953074D01*
X161446184Y-132953084D01*
X161238158Y-133112709D01*
X161238146Y-133112720D01*
X161052720Y-133298146D01*
X161052709Y-133298158D01*
X160893084Y-133506184D01*
X160893074Y-133506199D01*
X160761959Y-133733299D01*
X160761957Y-133733303D01*
X160732582Y-133804220D01*
X160661603Y-133975577D01*
X160661599Y-133975587D01*
X160593732Y-134228872D01*
X160593730Y-134228880D01*
X160593730Y-134228884D01*
X160559500Y-134488880D01*
X153661500Y-134488880D01*
X153661500Y-133085939D01*
X157389500Y-133085939D01*
X157389500Y-133944060D01*
X157430422Y-134096782D01*
X157430423Y-134096786D01*
X157509475Y-134233709D01*
X157509478Y-134233713D01*
X157509480Y-134233716D01*
X157621284Y-134345520D01*
X157621287Y-134345521D01*
X157621290Y-134345524D01*
X157758213Y-134424576D01*
X157758215Y-134424576D01*
X157758216Y-134424577D01*
X157878665Y-134456851D01*
X157910939Y-134465499D01*
X157910940Y-134465500D01*
X157910943Y-134465500D01*
X158069060Y-134465500D01*
X158069060Y-134465499D01*
X158094653Y-134458641D01*
X158164428Y-134439946D01*
X158193075Y-134432269D01*
X158221784Y-134424577D01*
X158358716Y-134345520D01*
X158470520Y-134233716D01*
X158549577Y-134096784D01*
X158590499Y-133944060D01*
X158590500Y-133944060D01*
X158590500Y-133085940D01*
X158590499Y-133085939D01*
X158569191Y-133006418D01*
X158549577Y-132933216D01*
X158549576Y-132933215D01*
X158549576Y-132933213D01*
X158470524Y-132796290D01*
X158470521Y-132796287D01*
X158470520Y-132796284D01*
X158358716Y-132684480D01*
X158358713Y-132684478D01*
X158358709Y-132684475D01*
X158221786Y-132605423D01*
X158221782Y-132605422D01*
X158069060Y-132564500D01*
X158069057Y-132564500D01*
X157910943Y-132564500D01*
X157910940Y-132564500D01*
X157758217Y-132605422D01*
X157758213Y-132605423D01*
X157621290Y-132684475D01*
X157621281Y-132684482D01*
X157509482Y-132796281D01*
X157509475Y-132796290D01*
X157430423Y-132933213D01*
X157430422Y-132933217D01*
X157389500Y-133085939D01*
X153661500Y-133085939D01*
X153661500Y-129475688D01*
X155969500Y-129475688D01*
X155969500Y-129594311D01*
X156000200Y-129708884D01*
X156000201Y-129708887D01*
X156059511Y-129811613D01*
X156143387Y-129895489D01*
X156246114Y-129954799D01*
X156274758Y-129962474D01*
X156360688Y-129985500D01*
X156360691Y-129985500D01*
X156479311Y-129985500D01*
X156536597Y-129970149D01*
X156593886Y-129954799D01*
X156696613Y-129895489D01*
X156780489Y-129811613D01*
X156839799Y-129708886D01*
X156855149Y-129651597D01*
X156870500Y-129594311D01*
X156870500Y-129475688D01*
X156839799Y-129361115D01*
X156839799Y-129361114D01*
X156796396Y-129285939D01*
X157389500Y-129285939D01*
X157389500Y-130144060D01*
X157430422Y-130296782D01*
X157430423Y-130296786D01*
X157509475Y-130433709D01*
X157509478Y-130433713D01*
X157509480Y-130433716D01*
X157621284Y-130545520D01*
X157621287Y-130545521D01*
X157621290Y-130545524D01*
X157758213Y-130624576D01*
X157758215Y-130624576D01*
X157758216Y-130624577D01*
X157878665Y-130656851D01*
X157910939Y-130665499D01*
X157910940Y-130665500D01*
X157910943Y-130665500D01*
X158069060Y-130665500D01*
X158069060Y-130665499D01*
X158221784Y-130624577D01*
X158358716Y-130545520D01*
X158470520Y-130433716D01*
X158549577Y-130296784D01*
X158590499Y-130144060D01*
X158590500Y-130144060D01*
X158590500Y-129285940D01*
X158590499Y-129285939D01*
X158549577Y-129133217D01*
X158549576Y-129133213D01*
X158470524Y-128996290D01*
X158470521Y-128996287D01*
X158470520Y-128996284D01*
X158358716Y-128884480D01*
X158358713Y-128884478D01*
X158358709Y-128884475D01*
X158221786Y-128805423D01*
X158221782Y-128805422D01*
X158069060Y-128764500D01*
X158069057Y-128764500D01*
X157910943Y-128764500D01*
X157910940Y-128764500D01*
X157758217Y-128805422D01*
X157758213Y-128805423D01*
X157621290Y-128884475D01*
X157621281Y-128884482D01*
X157509482Y-128996281D01*
X157509475Y-128996290D01*
X157430423Y-129133213D01*
X157430422Y-129133217D01*
X157389500Y-129285939D01*
X156796396Y-129285939D01*
X156780489Y-129258387D01*
X156696613Y-129174511D01*
X156593887Y-129115201D01*
X156593884Y-129115200D01*
X156479312Y-129084500D01*
X156479309Y-129084500D01*
X156360691Y-129084500D01*
X156360688Y-129084500D01*
X156246115Y-129115200D01*
X156246112Y-129115201D01*
X156143386Y-129174511D01*
X156143386Y-129174512D01*
X156059512Y-129258386D01*
X156059511Y-129258386D01*
X156000201Y-129361112D01*
X156000200Y-129361115D01*
X155969500Y-129475688D01*
X153661500Y-129475688D01*
X153661500Y-126940688D01*
X157307000Y-126940688D01*
X157307000Y-127059311D01*
X157337700Y-127173884D01*
X157337701Y-127173887D01*
X157397011Y-127276613D01*
X157480887Y-127360489D01*
X157583614Y-127419799D01*
X157612258Y-127427474D01*
X157698188Y-127450500D01*
X157698191Y-127450500D01*
X157816811Y-127450500D01*
X157874097Y-127435149D01*
X157931386Y-127419799D01*
X158034113Y-127360489D01*
X158117989Y-127276613D01*
X158177299Y-127173886D01*
X158192649Y-127116597D01*
X158208000Y-127059311D01*
X158208000Y-126940688D01*
X158177299Y-126826115D01*
X158177298Y-126826112D01*
X158117988Y-126723386D01*
X158034113Y-126639511D01*
X157931387Y-126580201D01*
X157931384Y-126580200D01*
X157816812Y-126549500D01*
X157816809Y-126549500D01*
X157698191Y-126549500D01*
X157698188Y-126549500D01*
X157583615Y-126580200D01*
X157583612Y-126580201D01*
X157480886Y-126639511D01*
X157480886Y-126639512D01*
X157397012Y-126723386D01*
X157397011Y-126723386D01*
X157337701Y-126826112D01*
X157337700Y-126826115D01*
X157307000Y-126940688D01*
X153661500Y-126940688D01*
X153661500Y-121453188D01*
X156394500Y-121453188D01*
X156394500Y-121571811D01*
X156425200Y-121686384D01*
X156425201Y-121686387D01*
X156426258Y-121688217D01*
X156484511Y-121789113D01*
X156568387Y-121872989D01*
X156671114Y-121932299D01*
X156699758Y-121939974D01*
X156785688Y-121963000D01*
X156785691Y-121963000D01*
X156904311Y-121963000D01*
X156961597Y-121947649D01*
X157018886Y-121932299D01*
X157121613Y-121872989D01*
X157153663Y-121840939D01*
X161959500Y-121840939D01*
X161959500Y-121999060D01*
X162000422Y-122151782D01*
X162000423Y-122151786D01*
X162079475Y-122288709D01*
X162079478Y-122288713D01*
X162079480Y-122288716D01*
X162191284Y-122400520D01*
X162191287Y-122400521D01*
X162191290Y-122400524D01*
X162328213Y-122479576D01*
X162328215Y-122479576D01*
X162328216Y-122479577D01*
X162448665Y-122511851D01*
X162480939Y-122520499D01*
X162480940Y-122520500D01*
X162480943Y-122520500D01*
X162639060Y-122520500D01*
X162639060Y-122520499D01*
X162791784Y-122479577D01*
X162928716Y-122400520D01*
X163040520Y-122288716D01*
X163119577Y-122151784D01*
X163160499Y-121999060D01*
X163160500Y-121999060D01*
X163160500Y-121840940D01*
X163160499Y-121840939D01*
X163119577Y-121688217D01*
X163119576Y-121688213D01*
X163040524Y-121551290D01*
X163040521Y-121551287D01*
X163040520Y-121551284D01*
X162928716Y-121439480D01*
X162928713Y-121439478D01*
X162928709Y-121439475D01*
X162791786Y-121360423D01*
X162791782Y-121360422D01*
X162639060Y-121319500D01*
X162639057Y-121319500D01*
X162480943Y-121319500D01*
X162480940Y-121319500D01*
X162328217Y-121360422D01*
X162328213Y-121360423D01*
X162191290Y-121439475D01*
X162191281Y-121439482D01*
X162079482Y-121551281D01*
X162079475Y-121551290D01*
X162000423Y-121688213D01*
X162000422Y-121688217D01*
X161959500Y-121840939D01*
X157153663Y-121840939D01*
X157205489Y-121789113D01*
X157264799Y-121686386D01*
X157280149Y-121629097D01*
X157295500Y-121571811D01*
X157295500Y-121453188D01*
X157264799Y-121338615D01*
X157264798Y-121338612D01*
X157205488Y-121235886D01*
X157121613Y-121152011D01*
X157018887Y-121092701D01*
X157018884Y-121092700D01*
X156904312Y-121062000D01*
X156904309Y-121062000D01*
X156785691Y-121062000D01*
X156785688Y-121062000D01*
X156671115Y-121092700D01*
X156671112Y-121092701D01*
X156568386Y-121152011D01*
X156568386Y-121152012D01*
X156484512Y-121235886D01*
X156484511Y-121235886D01*
X156425201Y-121338612D01*
X156425200Y-121338615D01*
X156394500Y-121453188D01*
X153661500Y-121453188D01*
X153661500Y-120314500D01*
X153675852Y-120279852D01*
X153710500Y-120265500D01*
X155906998Y-120265500D01*
X155907000Y-120265500D01*
X155947374Y-120257469D01*
X155947376Y-120257468D01*
X155982013Y-120243121D01*
X155982024Y-120243116D01*
X155996769Y-120235603D01*
X155996768Y-120235603D01*
X155996771Y-120235602D01*
X156039117Y-120186022D01*
X156053469Y-120151374D01*
X156061500Y-120111000D01*
X156061500Y-117502500D01*
X156075852Y-117467852D01*
X156110500Y-117453500D01*
X158319998Y-117453500D01*
X158320000Y-117453500D01*
X158360374Y-117445469D01*
X158360376Y-117445468D01*
X158395013Y-117431121D01*
X158395024Y-117431116D01*
X158409769Y-117423603D01*
X158409768Y-117423603D01*
X158409771Y-117423602D01*
X158452117Y-117374022D01*
X158466469Y-117339374D01*
X158474500Y-117299000D01*
X158474500Y-116577883D01*
X160635669Y-116577883D01*
X160661063Y-116596331D01*
X160829361Y-116682084D01*
X161008998Y-116740451D01*
X161009001Y-116740452D01*
X161195559Y-116770000D01*
X161384441Y-116770000D01*
X161570998Y-116740452D01*
X161571001Y-116740451D01*
X161750638Y-116682084D01*
X161918933Y-116596333D01*
X161944328Y-116577882D01*
X161290000Y-115923554D01*
X160635669Y-116577883D01*
X158474500Y-116577883D01*
X158474500Y-115475558D01*
X160090000Y-115475558D01*
X160090000Y-115664441D01*
X160119547Y-115850998D01*
X160119548Y-115851001D01*
X160177915Y-116030638D01*
X160263669Y-116198939D01*
X160263671Y-116198943D01*
X160282115Y-116224328D01*
X160282116Y-116224328D01*
X160936446Y-115570000D01*
X160936446Y-115569999D01*
X160890369Y-115523922D01*
X160940000Y-115523922D01*
X160940000Y-115616078D01*
X160963852Y-115705095D01*
X161009930Y-115784905D01*
X161075095Y-115850070D01*
X161154905Y-115896148D01*
X161243922Y-115920000D01*
X161336078Y-115920000D01*
X161425095Y-115896148D01*
X161504905Y-115850070D01*
X161570070Y-115784905D01*
X161616148Y-115705095D01*
X161640000Y-115616078D01*
X161640000Y-115569999D01*
X161643554Y-115569999D01*
X161643554Y-115570000D01*
X162297882Y-116224328D01*
X162316333Y-116198933D01*
X162402084Y-116030638D01*
X162460451Y-115851001D01*
X162460452Y-115850998D01*
X162490000Y-115664441D01*
X162490000Y-115475558D01*
X162460452Y-115289001D01*
X162460451Y-115288998D01*
X162402084Y-115109361D01*
X162316331Y-114941063D01*
X162297883Y-114915669D01*
X161643554Y-115569999D01*
X161640000Y-115569999D01*
X161640000Y-115523922D01*
X161616148Y-115434905D01*
X161570070Y-115355095D01*
X161504905Y-115289930D01*
X161425095Y-115243852D01*
X161336078Y-115220000D01*
X161243922Y-115220000D01*
X161154905Y-115243852D01*
X161075095Y-115289930D01*
X161009930Y-115355095D01*
X160963852Y-115434905D01*
X160940000Y-115523922D01*
X160890369Y-115523922D01*
X160282117Y-114915670D01*
X160263666Y-114941066D01*
X160177915Y-115109361D01*
X160119548Y-115288998D01*
X160119547Y-115289001D01*
X160090000Y-115475558D01*
X158474500Y-115475558D01*
X158474500Y-114562117D01*
X160635670Y-114562117D01*
X161289999Y-115216446D01*
X161944328Y-114562116D01*
X161944328Y-114562115D01*
X161918943Y-114543671D01*
X161918939Y-114543669D01*
X161750638Y-114457915D01*
X161571001Y-114399548D01*
X161570998Y-114399547D01*
X161384441Y-114370000D01*
X161195559Y-114370000D01*
X161009001Y-114399547D01*
X161008998Y-114399548D01*
X160829361Y-114457915D01*
X160661066Y-114543666D01*
X160635670Y-114562117D01*
X158474500Y-114562117D01*
X158474500Y-112320095D01*
X160489500Y-112320095D01*
X160489500Y-113739894D01*
X160489501Y-113739898D01*
X160495331Y-113769213D01*
X160495331Y-113769214D01*
X160495332Y-113769215D01*
X160495332Y-113769216D01*
X160517542Y-113802456D01*
X160517543Y-113802457D01*
X160550787Y-113824669D01*
X160580101Y-113830500D01*
X161999898Y-113830499D01*
X162029213Y-113824669D01*
X162062457Y-113802457D01*
X162084669Y-113769213D01*
X162090500Y-113739899D01*
X162090499Y-112320102D01*
X162084669Y-112290787D01*
X162084667Y-112290784D01*
X162084667Y-112290783D01*
X162062457Y-112257543D01*
X162029212Y-112235330D01*
X161999901Y-112229500D01*
X160580105Y-112229500D01*
X160580104Y-112229500D01*
X160580102Y-112229501D01*
X160550787Y-112235331D01*
X160550786Y-112235331D01*
X160550784Y-112235332D01*
X160550783Y-112235332D01*
X160517543Y-112257542D01*
X160495330Y-112290786D01*
X160495330Y-112290787D01*
X160489500Y-112320095D01*
X158474500Y-112320095D01*
X158474500Y-107871152D01*
X160489500Y-107871152D01*
X160489500Y-108028847D01*
X160520260Y-108183487D01*
X160520263Y-108183497D01*
X160580606Y-108329179D01*
X160668211Y-108460289D01*
X160779711Y-108571789D01*
X160910821Y-108659394D01*
X161056503Y-108719737D01*
X161056509Y-108719738D01*
X161056512Y-108719739D01*
X161211152Y-108750499D01*
X161211158Y-108750500D01*
X161368842Y-108750500D01*
X161523497Y-108719737D01*
X161669179Y-108659394D01*
X161800289Y-108571789D01*
X161911789Y-108460289D01*
X161999394Y-108329179D01*
X162059737Y-108183497D01*
X162090500Y-108028842D01*
X162090500Y-107871158D01*
X162069483Y-107765500D01*
X162059739Y-107716512D01*
X162059736Y-107716501D01*
X161999394Y-107570821D01*
X161911789Y-107439711D01*
X161800289Y-107328211D01*
X161669179Y-107240606D01*
X161669176Y-107240604D01*
X161669175Y-107240604D01*
X161523498Y-107180263D01*
X161523487Y-107180260D01*
X161368847Y-107149500D01*
X161368842Y-107149500D01*
X161211158Y-107149500D01*
X161211152Y-107149500D01*
X161056512Y-107180260D01*
X161056501Y-107180263D01*
X160910824Y-107240604D01*
X160779711Y-107328210D01*
X160668210Y-107439711D01*
X160580604Y-107570824D01*
X160520263Y-107716501D01*
X160520260Y-107716512D01*
X160489500Y-107871152D01*
X158474500Y-107871152D01*
X158474500Y-105586000D01*
X158466469Y-105545626D01*
X158466468Y-105545623D01*
X158452121Y-105510986D01*
X158452116Y-105510975D01*
X158444603Y-105496230D01*
X158435953Y-105488842D01*
X158395022Y-105453883D01*
X158360374Y-105439531D01*
X158320000Y-105431500D01*
X151433000Y-105431500D01*
X151412813Y-105435515D01*
X151392624Y-105439531D01*
X151392623Y-105439531D01*
X151357986Y-105453878D01*
X151357975Y-105453883D01*
X151343230Y-105461396D01*
X151300883Y-105510978D01*
X151286531Y-105545626D01*
X151278500Y-105586002D01*
X151278500Y-113510500D01*
X151264148Y-113545148D01*
X151229500Y-113559500D01*
X139600500Y-113559500D01*
X139565852Y-113545148D01*
X139551500Y-113510500D01*
X139551500Y-109493188D01*
X143379500Y-109493188D01*
X143379500Y-109611811D01*
X143410200Y-109726384D01*
X143410201Y-109726387D01*
X143469511Y-109829113D01*
X143553387Y-109912989D01*
X143656114Y-109972299D01*
X143684758Y-109979974D01*
X143770688Y-110003000D01*
X143770691Y-110003000D01*
X143889311Y-110003000D01*
X143946597Y-109987649D01*
X144003886Y-109972299D01*
X144106613Y-109912989D01*
X144190489Y-109829113D01*
X144249799Y-109726386D01*
X144265149Y-109669097D01*
X144280500Y-109611811D01*
X144280500Y-109493188D01*
X144249799Y-109378615D01*
X144249798Y-109378612D01*
X144190488Y-109275886D01*
X144106613Y-109192011D01*
X144003887Y-109132701D01*
X144003884Y-109132700D01*
X143889312Y-109102000D01*
X143889309Y-109102000D01*
X143770691Y-109102000D01*
X143770688Y-109102000D01*
X143656115Y-109132700D01*
X143656112Y-109132701D01*
X143553386Y-109192011D01*
X143553386Y-109192012D01*
X143469512Y-109275886D01*
X143469511Y-109275886D01*
X143410201Y-109378612D01*
X143410200Y-109378615D01*
X143379500Y-109493188D01*
X139551500Y-109493188D01*
X139551500Y-107255688D01*
X143417000Y-107255688D01*
X143417000Y-107374311D01*
X143447700Y-107488884D01*
X143447701Y-107488887D01*
X143495007Y-107570821D01*
X143507011Y-107591613D01*
X143590887Y-107675489D01*
X143693614Y-107734799D01*
X143722258Y-107742474D01*
X143808188Y-107765500D01*
X143808191Y-107765500D01*
X143926811Y-107765500D01*
X143984097Y-107750149D01*
X144041386Y-107734799D01*
X144144113Y-107675489D01*
X144227989Y-107591613D01*
X144287299Y-107488886D01*
X144302649Y-107431597D01*
X144318000Y-107374311D01*
X144318000Y-107255688D01*
X144287299Y-107141115D01*
X144287298Y-107141112D01*
X144227988Y-107038386D01*
X144144113Y-106954511D01*
X144041387Y-106895201D01*
X144041384Y-106895200D01*
X143926812Y-106864500D01*
X143926809Y-106864500D01*
X143808191Y-106864500D01*
X143808188Y-106864500D01*
X143693615Y-106895200D01*
X143693612Y-106895201D01*
X143590886Y-106954511D01*
X143590886Y-106954512D01*
X143507012Y-107038386D01*
X143507011Y-107038386D01*
X143447701Y-107141112D01*
X143447700Y-107141115D01*
X143417000Y-107255688D01*
X139551500Y-107255688D01*
X139551500Y-105586002D01*
X139551500Y-105586000D01*
X139543469Y-105545626D01*
X139543468Y-105545623D01*
X139529121Y-105510986D01*
X139529116Y-105510975D01*
X139521603Y-105496230D01*
X139512953Y-105488842D01*
X139472022Y-105453883D01*
X139437374Y-105439531D01*
X139397000Y-105431500D01*
X133780000Y-105431500D01*
X133759813Y-105435515D01*
X133739624Y-105439531D01*
X133739623Y-105439531D01*
X133704986Y-105453878D01*
X133704975Y-105453883D01*
X133690230Y-105461396D01*
X133647883Y-105510978D01*
X133633531Y-105545626D01*
X133625500Y-105586002D01*
X133625500Y-117193500D01*
X133611148Y-117228148D01*
X133576500Y-117242500D01*
X127249500Y-117242500D01*
X127214852Y-117228148D01*
X127200500Y-117193500D01*
X127200500Y-116577883D01*
X130155669Y-116577883D01*
X130181063Y-116596331D01*
X130349361Y-116682084D01*
X130528998Y-116740451D01*
X130529001Y-116740452D01*
X130715559Y-116770000D01*
X130904441Y-116770000D01*
X131090998Y-116740452D01*
X131091001Y-116740451D01*
X131270638Y-116682084D01*
X131438933Y-116596333D01*
X131464328Y-116577882D01*
X130810000Y-115923554D01*
X130155669Y-116577883D01*
X127200500Y-116577883D01*
X127200500Y-115475558D01*
X129610000Y-115475558D01*
X129610000Y-115664441D01*
X129639547Y-115850998D01*
X129639548Y-115851001D01*
X129697915Y-116030638D01*
X129783669Y-116198939D01*
X129783671Y-116198943D01*
X129802115Y-116224328D01*
X129802116Y-116224328D01*
X130456446Y-115570000D01*
X130456446Y-115569999D01*
X130410369Y-115523922D01*
X130460000Y-115523922D01*
X130460000Y-115616078D01*
X130483852Y-115705095D01*
X130529930Y-115784905D01*
X130595095Y-115850070D01*
X130674905Y-115896148D01*
X130763922Y-115920000D01*
X130856078Y-115920000D01*
X130945095Y-115896148D01*
X131024905Y-115850070D01*
X131090070Y-115784905D01*
X131136148Y-115705095D01*
X131160000Y-115616078D01*
X131160000Y-115569999D01*
X131163554Y-115569999D01*
X131163554Y-115570000D01*
X131817882Y-116224328D01*
X131836333Y-116198933D01*
X131922084Y-116030638D01*
X131980451Y-115851001D01*
X131980452Y-115850998D01*
X132010000Y-115664441D01*
X132010000Y-115475558D01*
X131980452Y-115289001D01*
X131980451Y-115288998D01*
X131922084Y-115109361D01*
X131836331Y-114941063D01*
X131817883Y-114915669D01*
X131163554Y-115569999D01*
X131160000Y-115569999D01*
X131160000Y-115523922D01*
X131136148Y-115434905D01*
X131090070Y-115355095D01*
X131024905Y-115289930D01*
X130945095Y-115243852D01*
X130856078Y-115220000D01*
X130763922Y-115220000D01*
X130674905Y-115243852D01*
X130595095Y-115289930D01*
X130529930Y-115355095D01*
X130483852Y-115434905D01*
X130460000Y-115523922D01*
X130410369Y-115523922D01*
X129802117Y-114915670D01*
X129783666Y-114941066D01*
X129697915Y-115109361D01*
X129639548Y-115288998D01*
X129639547Y-115289001D01*
X129610000Y-115475558D01*
X127200500Y-115475558D01*
X127200500Y-114562117D01*
X130155670Y-114562117D01*
X130809999Y-115216446D01*
X131464328Y-114562116D01*
X131464328Y-114562115D01*
X131438943Y-114543671D01*
X131438939Y-114543669D01*
X131270638Y-114457915D01*
X131091001Y-114399548D01*
X131090998Y-114399547D01*
X130904441Y-114370000D01*
X130715559Y-114370000D01*
X130529001Y-114399547D01*
X130528998Y-114399548D01*
X130349361Y-114457915D01*
X130181066Y-114543666D01*
X130155670Y-114562117D01*
X127200500Y-114562117D01*
X127200500Y-112320095D01*
X130009500Y-112320095D01*
X130009500Y-113739894D01*
X130009501Y-113739898D01*
X130015331Y-113769213D01*
X130015331Y-113769214D01*
X130015332Y-113769215D01*
X130015332Y-113769216D01*
X130037542Y-113802456D01*
X130037543Y-113802457D01*
X130070787Y-113824669D01*
X130100101Y-113830500D01*
X131519898Y-113830499D01*
X131549213Y-113824669D01*
X131582457Y-113802457D01*
X131604669Y-113769213D01*
X131610500Y-113739899D01*
X131610499Y-112320102D01*
X131604669Y-112290787D01*
X131604667Y-112290784D01*
X131604667Y-112290783D01*
X131582457Y-112257543D01*
X131549212Y-112235330D01*
X131519901Y-112229500D01*
X130100105Y-112229500D01*
X130100104Y-112229500D01*
X130100102Y-112229501D01*
X130070787Y-112235331D01*
X130070786Y-112235331D01*
X130070784Y-112235332D01*
X130070783Y-112235332D01*
X130037543Y-112257542D01*
X130015330Y-112290786D01*
X130015330Y-112290787D01*
X130009500Y-112320095D01*
X127200500Y-112320095D01*
X127200500Y-107240095D01*
X130009500Y-107240095D01*
X130009500Y-108659894D01*
X130009501Y-108659898D01*
X130015331Y-108689213D01*
X130015331Y-108689214D01*
X130015332Y-108689215D01*
X130015332Y-108689216D01*
X130035727Y-108719739D01*
X130037543Y-108722457D01*
X130070787Y-108744669D01*
X130100101Y-108750500D01*
X131519898Y-108750499D01*
X131549213Y-108744669D01*
X131582457Y-108722457D01*
X131604669Y-108689213D01*
X131610500Y-108659899D01*
X131610499Y-107240102D01*
X131604669Y-107210787D01*
X131604667Y-107210784D01*
X131604667Y-107210783D01*
X131582457Y-107177543D01*
X131549212Y-107155330D01*
X131519901Y-107149500D01*
X130100105Y-107149500D01*
X130100104Y-107149500D01*
X130100102Y-107149501D01*
X130070787Y-107155331D01*
X130070786Y-107155331D01*
X130070784Y-107155332D01*
X130070783Y-107155332D01*
X130037543Y-107177542D01*
X130015330Y-107210786D01*
X130015330Y-107210787D01*
X130009500Y-107240095D01*
X127200500Y-107240095D01*
X127200500Y-105331152D01*
X130009500Y-105331152D01*
X130009500Y-105488847D01*
X130040260Y-105643487D01*
X130040263Y-105643497D01*
X130100606Y-105789179D01*
X130188211Y-105920289D01*
X130299711Y-106031789D01*
X130430821Y-106119394D01*
X130576503Y-106179737D01*
X130576509Y-106179738D01*
X130576512Y-106179739D01*
X130731152Y-106210499D01*
X130731158Y-106210500D01*
X130888842Y-106210500D01*
X131043497Y-106179737D01*
X131189179Y-106119394D01*
X131320289Y-106031789D01*
X131431789Y-105920289D01*
X131519394Y-105789179D01*
X131579737Y-105643497D01*
X131610500Y-105488842D01*
X131610500Y-105331158D01*
X131579737Y-105176503D01*
X131519394Y-105030821D01*
X131431789Y-104899711D01*
X131320289Y-104788211D01*
X131189179Y-104700606D01*
X131189176Y-104700604D01*
X131189175Y-104700604D01*
X131187946Y-104700095D01*
X160489500Y-104700095D01*
X160489500Y-106119894D01*
X160489501Y-106119898D01*
X160495331Y-106149213D01*
X160495331Y-106149214D01*
X160495332Y-106149215D01*
X160495332Y-106149216D01*
X160515727Y-106179739D01*
X160517543Y-106182457D01*
X160550787Y-106204669D01*
X160580101Y-106210500D01*
X161999898Y-106210499D01*
X162029213Y-106204669D01*
X162062457Y-106182457D01*
X162084669Y-106149213D01*
X162090500Y-106119899D01*
X162090499Y-104700102D01*
X162084669Y-104670787D01*
X162084667Y-104670784D01*
X162084667Y-104670783D01*
X162062457Y-104637543D01*
X162029212Y-104615330D01*
X161999901Y-104609500D01*
X160580105Y-104609500D01*
X160580104Y-104609500D01*
X160580102Y-104609501D01*
X160550787Y-104615331D01*
X160550786Y-104615331D01*
X160550784Y-104615332D01*
X160550783Y-104615332D01*
X160517543Y-104637542D01*
X160495330Y-104670786D01*
X160495330Y-104670787D01*
X160489500Y-104700095D01*
X131187946Y-104700095D01*
X131043498Y-104640263D01*
X131043487Y-104640260D01*
X130888847Y-104609500D01*
X130888842Y-104609500D01*
X130731158Y-104609500D01*
X130731152Y-104609500D01*
X130576512Y-104640260D01*
X130576501Y-104640263D01*
X130430824Y-104700604D01*
X130299711Y-104788210D01*
X130188210Y-104899711D01*
X130100604Y-105030824D01*
X130040263Y-105176501D01*
X130040260Y-105176512D01*
X130009500Y-105331152D01*
X127200500Y-105331152D01*
X127200500Y-102067883D01*
X148475669Y-102067883D01*
X148501063Y-102086331D01*
X148669361Y-102172084D01*
X148848998Y-102230451D01*
X148849001Y-102230452D01*
X149035559Y-102260000D01*
X149224441Y-102260000D01*
X149410998Y-102230452D01*
X149411001Y-102230451D01*
X149590638Y-102172084D01*
X149758933Y-102086333D01*
X149784328Y-102067882D01*
X149130000Y-101413554D01*
X148475669Y-102067883D01*
X127200500Y-102067883D01*
X127200500Y-100965558D01*
X147930000Y-100965558D01*
X147930000Y-101154441D01*
X147959547Y-101340998D01*
X147959548Y-101341001D01*
X148017915Y-101520638D01*
X148103669Y-101688939D01*
X148103671Y-101688943D01*
X148122115Y-101714328D01*
X148122116Y-101714328D01*
X148776446Y-101060000D01*
X148776446Y-101059999D01*
X148730369Y-101013922D01*
X148780000Y-101013922D01*
X148780000Y-101106078D01*
X148803852Y-101195095D01*
X148849930Y-101274905D01*
X148915095Y-101340070D01*
X148994905Y-101386148D01*
X149083922Y-101410000D01*
X149176078Y-101410000D01*
X149265095Y-101386148D01*
X149344905Y-101340070D01*
X149410070Y-101274905D01*
X149456148Y-101195095D01*
X149480000Y-101106078D01*
X149480000Y-101059999D01*
X149483554Y-101059999D01*
X149483554Y-101060000D01*
X150137882Y-101714328D01*
X150156333Y-101688933D01*
X150242084Y-101520638D01*
X150294350Y-101359778D01*
X150318706Y-101331261D01*
X150356094Y-101328318D01*
X150384611Y-101352674D01*
X150386222Y-101356169D01*
X150420604Y-101439175D01*
X150420606Y-101439179D01*
X150508211Y-101570289D01*
X150619711Y-101681789D01*
X150750821Y-101769394D01*
X150896503Y-101829737D01*
X150896509Y-101829738D01*
X150896512Y-101829739D01*
X151051152Y-101860499D01*
X151051158Y-101860500D01*
X151208842Y-101860500D01*
X151363497Y-101829737D01*
X151509179Y-101769394D01*
X151640289Y-101681789D01*
X151751789Y-101570289D01*
X151839394Y-101439179D01*
X151899737Y-101293497D01*
X151930500Y-101138842D01*
X151930500Y-100981158D01*
X151899737Y-100826503D01*
X151839394Y-100680821D01*
X151751789Y-100549711D01*
X151640289Y-100438211D01*
X151629591Y-100431063D01*
X151591588Y-100405670D01*
X151509179Y-100350606D01*
X151509176Y-100350604D01*
X151509175Y-100350604D01*
X151363498Y-100290263D01*
X151363487Y-100290260D01*
X151208847Y-100259500D01*
X151208842Y-100259500D01*
X151051158Y-100259500D01*
X151051152Y-100259500D01*
X150896512Y-100290260D01*
X150896501Y-100290263D01*
X150750824Y-100350604D01*
X150619711Y-100438210D01*
X150508210Y-100549711D01*
X150420605Y-100680822D01*
X150386222Y-100763831D01*
X150359703Y-100790349D01*
X150322200Y-100790349D01*
X150295682Y-100763830D01*
X150294350Y-100760221D01*
X150242084Y-100599361D01*
X150156331Y-100431063D01*
X150137883Y-100405669D01*
X149483554Y-101059999D01*
X149480000Y-101059999D01*
X149480000Y-101013922D01*
X149456148Y-100924905D01*
X149410070Y-100845095D01*
X149344905Y-100779930D01*
X149265095Y-100733852D01*
X149176078Y-100710000D01*
X149083922Y-100710000D01*
X148994905Y-100733852D01*
X148915095Y-100779930D01*
X148849930Y-100845095D01*
X148803852Y-100924905D01*
X148780000Y-101013922D01*
X148730369Y-101013922D01*
X148122117Y-100405670D01*
X148103666Y-100431066D01*
X148017915Y-100599361D01*
X147959548Y-100778998D01*
X147959547Y-100779001D01*
X147930000Y-100965558D01*
X127200500Y-100965558D01*
X127200500Y-98981152D01*
X148329500Y-98981152D01*
X148329500Y-99138847D01*
X148360260Y-99293487D01*
X148360263Y-99293497D01*
X148420606Y-99439179D01*
X148508211Y-99570289D01*
X148619711Y-99681789D01*
X148750821Y-99769394D01*
X148833830Y-99803777D01*
X148860349Y-99830295D01*
X148860349Y-99867798D01*
X148833831Y-99894317D01*
X148830221Y-99895649D01*
X148669361Y-99947915D01*
X148501066Y-100033666D01*
X148475670Y-100052117D01*
X149129999Y-100706446D01*
X149784328Y-100052116D01*
X149784328Y-100052115D01*
X149758943Y-100033671D01*
X149758939Y-100033669D01*
X149675467Y-99991138D01*
X149596080Y-99950688D01*
X156727000Y-99950688D01*
X156727000Y-100069311D01*
X156757700Y-100183884D01*
X156757701Y-100183887D01*
X156801357Y-100259500D01*
X156817011Y-100286613D01*
X156900887Y-100370489D01*
X157003614Y-100429799D01*
X157032258Y-100437474D01*
X157118188Y-100460500D01*
X157118191Y-100460500D01*
X157236811Y-100460500D01*
X157294097Y-100445149D01*
X157351386Y-100429799D01*
X157454113Y-100370489D01*
X157537989Y-100286613D01*
X157597299Y-100183886D01*
X157612649Y-100126597D01*
X157628000Y-100069311D01*
X157628000Y-99950688D01*
X157597299Y-99836115D01*
X157597298Y-99836112D01*
X157537988Y-99733386D01*
X157454113Y-99649511D01*
X157351387Y-99590201D01*
X157351384Y-99590200D01*
X157236812Y-99559500D01*
X157236809Y-99559500D01*
X157118191Y-99559500D01*
X157118188Y-99559500D01*
X157003615Y-99590200D01*
X157003612Y-99590201D01*
X156900886Y-99649511D01*
X156900886Y-99649512D01*
X156817012Y-99733386D01*
X156817011Y-99733386D01*
X156757701Y-99836112D01*
X156757700Y-99836115D01*
X156727000Y-99950688D01*
X149596080Y-99950688D01*
X149590638Y-99947915D01*
X149429778Y-99895649D01*
X149401261Y-99871293D01*
X149398318Y-99833905D01*
X149422674Y-99805388D01*
X149426156Y-99803782D01*
X149509179Y-99769394D01*
X149640289Y-99681789D01*
X149751789Y-99570289D01*
X149839394Y-99439179D01*
X149899737Y-99293497D01*
X149930500Y-99138842D01*
X149930500Y-98981158D01*
X149930499Y-98981152D01*
X150329500Y-98981152D01*
X150329500Y-99138847D01*
X150360260Y-99293487D01*
X150360263Y-99293497D01*
X150420606Y-99439179D01*
X150508211Y-99570289D01*
X150619711Y-99681789D01*
X150750821Y-99769394D01*
X150896503Y-99829737D01*
X150896509Y-99829738D01*
X150896512Y-99829739D01*
X151051152Y-99860499D01*
X151051158Y-99860500D01*
X151208842Y-99860500D01*
X151363497Y-99829737D01*
X151509179Y-99769394D01*
X151640289Y-99681789D01*
X151751789Y-99570289D01*
X151839394Y-99439179D01*
X151899737Y-99293497D01*
X151930500Y-99138842D01*
X151930500Y-98981158D01*
X151899737Y-98826503D01*
X151839394Y-98680821D01*
X151751789Y-98549711D01*
X151640289Y-98438211D01*
X151509179Y-98350606D01*
X151509176Y-98350604D01*
X151509175Y-98350604D01*
X151363498Y-98290263D01*
X151363487Y-98290260D01*
X151208847Y-98259500D01*
X151208842Y-98259500D01*
X151051158Y-98259500D01*
X151051152Y-98259500D01*
X150896512Y-98290260D01*
X150896501Y-98290263D01*
X150750824Y-98350604D01*
X150619711Y-98438210D01*
X150508210Y-98549711D01*
X150420604Y-98680824D01*
X150360263Y-98826501D01*
X150360260Y-98826512D01*
X150329500Y-98981152D01*
X149930499Y-98981152D01*
X149899737Y-98826503D01*
X149839394Y-98680821D01*
X149751789Y-98549711D01*
X149640289Y-98438211D01*
X149509179Y-98350606D01*
X149509176Y-98350604D01*
X149509175Y-98350604D01*
X149363498Y-98290263D01*
X149363487Y-98290260D01*
X149208847Y-98259500D01*
X149208842Y-98259500D01*
X149051158Y-98259500D01*
X149051152Y-98259500D01*
X148896512Y-98290260D01*
X148896501Y-98290263D01*
X148750824Y-98350604D01*
X148619711Y-98438210D01*
X148508210Y-98549711D01*
X148420604Y-98680824D01*
X148360263Y-98826501D01*
X148360260Y-98826512D01*
X148329500Y-98981152D01*
X127200500Y-98981152D01*
X127200500Y-98050688D01*
X134472000Y-98050688D01*
X134472000Y-98169311D01*
X134502700Y-98283884D01*
X134502701Y-98283887D01*
X134541221Y-98350604D01*
X134562011Y-98386613D01*
X134645887Y-98470489D01*
X134748614Y-98529799D01*
X134777258Y-98537474D01*
X134863188Y-98560500D01*
X134863191Y-98560500D01*
X134981811Y-98560500D01*
X135039097Y-98545149D01*
X135096386Y-98529799D01*
X135199113Y-98470489D01*
X135282989Y-98386613D01*
X135342299Y-98283886D01*
X135357649Y-98226597D01*
X135373000Y-98169311D01*
X135373000Y-98050688D01*
X135342299Y-97936115D01*
X135342298Y-97936112D01*
X135298642Y-97860499D01*
X135282989Y-97833387D01*
X135199113Y-97749511D01*
X135096387Y-97690201D01*
X135096384Y-97690200D01*
X134981812Y-97659500D01*
X134981809Y-97659500D01*
X134863191Y-97659500D01*
X134863188Y-97659500D01*
X134748615Y-97690200D01*
X134748612Y-97690201D01*
X134645886Y-97749511D01*
X134645886Y-97749512D01*
X134562012Y-97833386D01*
X134562011Y-97833386D01*
X134502701Y-97936112D01*
X134502700Y-97936115D01*
X134472000Y-98050688D01*
X127200500Y-98050688D01*
X127200500Y-96981152D01*
X148329500Y-96981152D01*
X148329500Y-97138847D01*
X148360260Y-97293487D01*
X148360263Y-97293497D01*
X148420606Y-97439179D01*
X148508211Y-97570289D01*
X148619711Y-97681789D01*
X148750821Y-97769394D01*
X148896503Y-97829737D01*
X148896509Y-97829738D01*
X148896512Y-97829739D01*
X149051152Y-97860499D01*
X149051158Y-97860500D01*
X149208842Y-97860500D01*
X149363497Y-97829737D01*
X149509179Y-97769394D01*
X149640289Y-97681789D01*
X149751789Y-97570289D01*
X149839394Y-97439179D01*
X149899737Y-97293497D01*
X149930500Y-97138842D01*
X149930500Y-96981158D01*
X149899737Y-96826503D01*
X149839394Y-96680821D01*
X149751789Y-96549711D01*
X149640289Y-96438211D01*
X149509179Y-96350606D01*
X149509176Y-96350604D01*
X149509175Y-96350604D01*
X149507946Y-96350095D01*
X150329500Y-96350095D01*
X150329500Y-97769894D01*
X150329501Y-97769898D01*
X150335331Y-97799213D01*
X150335331Y-97799214D01*
X150335332Y-97799215D01*
X150335332Y-97799216D01*
X150355727Y-97829739D01*
X150357543Y-97832457D01*
X150390787Y-97854669D01*
X150420101Y-97860500D01*
X151839898Y-97860499D01*
X151869213Y-97854669D01*
X151902457Y-97832457D01*
X151924669Y-97799213D01*
X151930500Y-97769899D01*
X151930499Y-96350102D01*
X151924669Y-96320787D01*
X151924667Y-96320784D01*
X151924667Y-96320783D01*
X151902457Y-96287543D01*
X151869212Y-96265330D01*
X151839901Y-96259500D01*
X150420105Y-96259500D01*
X150420104Y-96259500D01*
X150420102Y-96259501D01*
X150390787Y-96265331D01*
X150390786Y-96265331D01*
X150390784Y-96265332D01*
X150390783Y-96265332D01*
X150357543Y-96287542D01*
X150335330Y-96320786D01*
X150335330Y-96320787D01*
X150329500Y-96350095D01*
X149507946Y-96350095D01*
X149363498Y-96290263D01*
X149363487Y-96290260D01*
X149208847Y-96259500D01*
X149208842Y-96259500D01*
X149051158Y-96259500D01*
X149051152Y-96259500D01*
X148896512Y-96290260D01*
X148896501Y-96290263D01*
X148750824Y-96350604D01*
X148619711Y-96438210D01*
X148508210Y-96549711D01*
X148420604Y-96680824D01*
X148360263Y-96826501D01*
X148360260Y-96826512D01*
X148329500Y-96981152D01*
X127200500Y-96981152D01*
X127200500Y-95190688D01*
X144899500Y-95190688D01*
X144899500Y-95309311D01*
X144930200Y-95423884D01*
X144930201Y-95423887D01*
X144989511Y-95526613D01*
X145073387Y-95610489D01*
X145176114Y-95669799D01*
X145204758Y-95677474D01*
X145290688Y-95700500D01*
X145290691Y-95700500D01*
X145409311Y-95700500D01*
X145466597Y-95685149D01*
X145523886Y-95669799D01*
X145626613Y-95610489D01*
X145710489Y-95526613D01*
X145769799Y-95423886D01*
X145785149Y-95366597D01*
X145800500Y-95309311D01*
X145800500Y-95190688D01*
X145769799Y-95076115D01*
X145769798Y-95076112D01*
X145710488Y-94973386D01*
X145626613Y-94889511D01*
X145523887Y-94830201D01*
X145523884Y-94830200D01*
X145409312Y-94799500D01*
X145409309Y-94799500D01*
X145290691Y-94799500D01*
X145290688Y-94799500D01*
X145176115Y-94830200D01*
X145176112Y-94830201D01*
X145073386Y-94889511D01*
X145073386Y-94889512D01*
X144989512Y-94973386D01*
X144989511Y-94973386D01*
X144930201Y-95076112D01*
X144930200Y-95076115D01*
X144899500Y-95190688D01*
X127200500Y-95190688D01*
X127200500Y-92624721D01*
X129978829Y-92624721D01*
X130002625Y-92633598D01*
X130002629Y-92633599D01*
X130062165Y-92640000D01*
X131557835Y-92640000D01*
X131617370Y-92633599D01*
X131617374Y-92633598D01*
X131641170Y-92624722D01*
X131641169Y-92624721D01*
X160458829Y-92624721D01*
X160482625Y-92633598D01*
X160482629Y-92633599D01*
X160542165Y-92640000D01*
X162037835Y-92640000D01*
X162097370Y-92633599D01*
X162097374Y-92633598D01*
X162121170Y-92624722D01*
X161290000Y-91793552D01*
X160458829Y-92624721D01*
X131641169Y-92624721D01*
X130810000Y-91793552D01*
X129978829Y-92624721D01*
X127200500Y-92624721D01*
X127200500Y-90692165D01*
X129610000Y-90692165D01*
X129610000Y-92187834D01*
X129616401Y-92247376D01*
X129625276Y-92271169D01*
X129625276Y-92271170D01*
X130456448Y-91440000D01*
X130456448Y-91439999D01*
X130410371Y-91393922D01*
X130460000Y-91393922D01*
X130460000Y-91486078D01*
X130483852Y-91575095D01*
X130529930Y-91654905D01*
X130595095Y-91720070D01*
X130674905Y-91766148D01*
X130763922Y-91790000D01*
X130856078Y-91790000D01*
X130945095Y-91766148D01*
X131024905Y-91720070D01*
X131090070Y-91654905D01*
X131136148Y-91575095D01*
X131160000Y-91486078D01*
X131160000Y-91439999D01*
X131163552Y-91439999D01*
X131163552Y-91440000D01*
X131994722Y-92271170D01*
X132003598Y-92247374D01*
X132003599Y-92247370D01*
X132010000Y-92187834D01*
X132010000Y-91360939D01*
X136559500Y-91360939D01*
X136559500Y-91519060D01*
X136600422Y-91671782D01*
X136600423Y-91671786D01*
X136679475Y-91808709D01*
X136679478Y-91808713D01*
X136679480Y-91808716D01*
X136791284Y-91920520D01*
X136791287Y-91920521D01*
X136791290Y-91920524D01*
X136928213Y-91999576D01*
X136928215Y-91999576D01*
X136928216Y-91999577D01*
X137048665Y-92031851D01*
X137080939Y-92040499D01*
X137080940Y-92040500D01*
X137080943Y-92040500D01*
X137239060Y-92040500D01*
X137239060Y-92040499D01*
X137331657Y-92015688D01*
X141382000Y-92015688D01*
X141382000Y-92134311D01*
X141412700Y-92248884D01*
X141412701Y-92248887D01*
X141443697Y-92302572D01*
X141472011Y-92351613D01*
X141555887Y-92435489D01*
X141658614Y-92494799D01*
X141687258Y-92502474D01*
X141773188Y-92525500D01*
X141773191Y-92525500D01*
X141891811Y-92525500D01*
X141949097Y-92510149D01*
X142006386Y-92494799D01*
X142109113Y-92435489D01*
X142192989Y-92351613D01*
X142252299Y-92248886D01*
X142268658Y-92187834D01*
X142283000Y-92134311D01*
X142283000Y-92015688D01*
X145192000Y-92015688D01*
X145192000Y-92134311D01*
X145222700Y-92248884D01*
X145222701Y-92248887D01*
X145253697Y-92302572D01*
X145282011Y-92351613D01*
X145365887Y-92435489D01*
X145468614Y-92494799D01*
X145497258Y-92502474D01*
X145583188Y-92525500D01*
X145583191Y-92525500D01*
X145701811Y-92525500D01*
X145759097Y-92510149D01*
X145816386Y-92494799D01*
X145919113Y-92435489D01*
X146002989Y-92351613D01*
X146031303Y-92302572D01*
X149350978Y-92302572D01*
X149386324Y-92326190D01*
X149568310Y-92401570D01*
X149761512Y-92440000D01*
X149958488Y-92440000D01*
X150151689Y-92401570D01*
X150151690Y-92401570D01*
X150333672Y-92326191D01*
X150369019Y-92302572D01*
X149860000Y-91793553D01*
X149350978Y-92302572D01*
X146031303Y-92302572D01*
X146062299Y-92248886D01*
X146078658Y-92187834D01*
X146093000Y-92134311D01*
X146093000Y-92015688D01*
X146062299Y-91901115D01*
X146062298Y-91901112D01*
X146046405Y-91873585D01*
X146002989Y-91798387D01*
X145919113Y-91714511D01*
X145816387Y-91655201D01*
X145816384Y-91655200D01*
X145701812Y-91624500D01*
X145701809Y-91624500D01*
X145583191Y-91624500D01*
X145583188Y-91624500D01*
X145468615Y-91655200D01*
X145468612Y-91655201D01*
X145365886Y-91714511D01*
X145365886Y-91714512D01*
X145282012Y-91798386D01*
X145282011Y-91798386D01*
X145222701Y-91901112D01*
X145222700Y-91901115D01*
X145192000Y-92015688D01*
X142283000Y-92015688D01*
X142252299Y-91901115D01*
X142252298Y-91901112D01*
X142236405Y-91873585D01*
X142192989Y-91798387D01*
X142109113Y-91714511D01*
X142006387Y-91655201D01*
X142006384Y-91655200D01*
X141891812Y-91624500D01*
X141891809Y-91624500D01*
X141773191Y-91624500D01*
X141773188Y-91624500D01*
X141658615Y-91655200D01*
X141658612Y-91655201D01*
X141555886Y-91714511D01*
X141555886Y-91714512D01*
X141472012Y-91798386D01*
X141472011Y-91798386D01*
X141412701Y-91901112D01*
X141412700Y-91901115D01*
X141382000Y-92015688D01*
X137331657Y-92015688D01*
X137391784Y-91999577D01*
X137391786Y-91999576D01*
X137442938Y-91970044D01*
X137528709Y-91920524D01*
X137528708Y-91920524D01*
X137528716Y-91920520D01*
X137640520Y-91808716D01*
X137719577Y-91671784D01*
X137760499Y-91519060D01*
X137760500Y-91519060D01*
X137760500Y-91360942D01*
X137758046Y-91351783D01*
X137758046Y-91351781D01*
X137755294Y-91341512D01*
X148860000Y-91341512D01*
X148860000Y-91538487D01*
X148898429Y-91731689D01*
X148898429Y-91731690D01*
X148973810Y-91913677D01*
X148997426Y-91949020D01*
X149506446Y-91440000D01*
X149506446Y-91439999D01*
X149456719Y-91390272D01*
X149610000Y-91390272D01*
X149610000Y-91489728D01*
X149648060Y-91581614D01*
X149718386Y-91651940D01*
X149810272Y-91690000D01*
X149909728Y-91690000D01*
X150001614Y-91651940D01*
X150071940Y-91581614D01*
X150110000Y-91489728D01*
X150110000Y-91439999D01*
X150213553Y-91439999D01*
X150213553Y-91440000D01*
X150722572Y-91949019D01*
X150746191Y-91913672D01*
X150821570Y-91731690D01*
X150821570Y-91731689D01*
X150860000Y-91538487D01*
X150860000Y-91360939D01*
X154339500Y-91360939D01*
X154339500Y-91519060D01*
X154380422Y-91671782D01*
X154380423Y-91671786D01*
X154459475Y-91808709D01*
X154459478Y-91808713D01*
X154459480Y-91808716D01*
X154571284Y-91920520D01*
X154571287Y-91920521D01*
X154571290Y-91920524D01*
X154708213Y-91999576D01*
X154708215Y-91999576D01*
X154708216Y-91999577D01*
X154828665Y-92031851D01*
X154860939Y-92040499D01*
X154860940Y-92040500D01*
X154860943Y-92040500D01*
X155019060Y-92040500D01*
X155019060Y-92040499D01*
X155171784Y-91999577D01*
X155308716Y-91920520D01*
X155420520Y-91808716D01*
X155499577Y-91671784D01*
X155540499Y-91519060D01*
X155540500Y-91519060D01*
X155540500Y-91360940D01*
X155540499Y-91360939D01*
X155504894Y-91228060D01*
X155499577Y-91208216D01*
X155499576Y-91208215D01*
X155499576Y-91208213D01*
X155420524Y-91071290D01*
X155420521Y-91071287D01*
X155420520Y-91071284D01*
X155308716Y-90959480D01*
X155308713Y-90959478D01*
X155308709Y-90959475D01*
X155171786Y-90880423D01*
X155171782Y-90880422D01*
X155019060Y-90839500D01*
X155019057Y-90839500D01*
X154860943Y-90839500D01*
X154860940Y-90839500D01*
X154708217Y-90880422D01*
X154708213Y-90880423D01*
X154571290Y-90959475D01*
X154571281Y-90959482D01*
X154459482Y-91071281D01*
X154459475Y-91071290D01*
X154380423Y-91208213D01*
X154380422Y-91208217D01*
X154339500Y-91360939D01*
X150860000Y-91360939D01*
X150860000Y-91341512D01*
X150821570Y-91148310D01*
X150821570Y-91148309D01*
X150746190Y-90966324D01*
X150722572Y-90930978D01*
X150213553Y-91439999D01*
X150110000Y-91439999D01*
X150110000Y-91390272D01*
X150071940Y-91298386D01*
X150001614Y-91228060D01*
X149909728Y-91190000D01*
X149810272Y-91190000D01*
X149718386Y-91228060D01*
X149648060Y-91298386D01*
X149610000Y-91390272D01*
X149456719Y-91390272D01*
X148997426Y-90930979D01*
X148997425Y-90930979D01*
X148973810Y-90966321D01*
X148898429Y-91148309D01*
X148898429Y-91148310D01*
X148860000Y-91341512D01*
X137755294Y-91341512D01*
X137719577Y-91208217D01*
X137719576Y-91208213D01*
X137640524Y-91071290D01*
X137640521Y-91071287D01*
X137640520Y-91071284D01*
X137528716Y-90959480D01*
X137528713Y-90959478D01*
X137528709Y-90959475D01*
X137391786Y-90880423D01*
X137391782Y-90880422D01*
X137239060Y-90839500D01*
X137239057Y-90839500D01*
X137080943Y-90839500D01*
X137080940Y-90839500D01*
X136928217Y-90880422D01*
X136928213Y-90880423D01*
X136791290Y-90959475D01*
X136791281Y-90959482D01*
X136679482Y-91071281D01*
X136679475Y-91071290D01*
X136600423Y-91208213D01*
X136600422Y-91208217D01*
X136559500Y-91360939D01*
X132010000Y-91360939D01*
X132010000Y-90692165D01*
X132003599Y-90632629D01*
X132003597Y-90632622D01*
X131996208Y-90612811D01*
X131994721Y-90608828D01*
X131163552Y-91439999D01*
X131160000Y-91439999D01*
X131160000Y-91393922D01*
X131136148Y-91304905D01*
X131090070Y-91225095D01*
X131024905Y-91159930D01*
X130945095Y-91113852D01*
X130856078Y-91090000D01*
X130763922Y-91090000D01*
X130674905Y-91113852D01*
X130595095Y-91159930D01*
X130529930Y-91225095D01*
X130483852Y-91304905D01*
X130460000Y-91393922D01*
X130410371Y-91393922D01*
X129625277Y-90608828D01*
X129625276Y-90608828D01*
X129616403Y-90632619D01*
X129616401Y-90632627D01*
X129610000Y-90692165D01*
X127200500Y-90692165D01*
X127200500Y-90255276D01*
X129978828Y-90255276D01*
X129978828Y-90255277D01*
X130809999Y-91086448D01*
X131319021Y-90577425D01*
X149350979Y-90577425D01*
X149350979Y-90577426D01*
X149859999Y-91086446D01*
X150254282Y-90692165D01*
X160090000Y-90692165D01*
X160090000Y-92187834D01*
X160096401Y-92247376D01*
X160105276Y-92271169D01*
X160105276Y-92271170D01*
X160936448Y-91440000D01*
X160936448Y-91439999D01*
X160890371Y-91393922D01*
X160940000Y-91393922D01*
X160940000Y-91486078D01*
X160963852Y-91575095D01*
X161009930Y-91654905D01*
X161075095Y-91720070D01*
X161154905Y-91766148D01*
X161243922Y-91790000D01*
X161336078Y-91790000D01*
X161425095Y-91766148D01*
X161504905Y-91720070D01*
X161570070Y-91654905D01*
X161616148Y-91575095D01*
X161640000Y-91486078D01*
X161640000Y-91439999D01*
X161643552Y-91439999D01*
X161643552Y-91440000D01*
X162474722Y-92271170D01*
X162483598Y-92247374D01*
X162483599Y-92247370D01*
X162490000Y-92187834D01*
X162490000Y-90692165D01*
X162483599Y-90632629D01*
X162483598Y-90632625D01*
X162474721Y-90608829D01*
X161643552Y-91439999D01*
X161640000Y-91439999D01*
X161640000Y-91393922D01*
X161616148Y-91304905D01*
X161570070Y-91225095D01*
X161504905Y-91159930D01*
X161425095Y-91113852D01*
X161336078Y-91090000D01*
X161243922Y-91090000D01*
X161154905Y-91113852D01*
X161075095Y-91159930D01*
X161009930Y-91225095D01*
X160963852Y-91304905D01*
X160940000Y-91393922D01*
X160890371Y-91393922D01*
X160105277Y-90608828D01*
X160105276Y-90608828D01*
X160096403Y-90632619D01*
X160096401Y-90632627D01*
X160090000Y-90692165D01*
X150254282Y-90692165D01*
X150290235Y-90656212D01*
X150369020Y-90577426D01*
X150333677Y-90553810D01*
X150151689Y-90478429D01*
X149958488Y-90440000D01*
X149761512Y-90440000D01*
X149568310Y-90478429D01*
X149568309Y-90478429D01*
X149386321Y-90553810D01*
X149350979Y-90577425D01*
X131319021Y-90577425D01*
X131641170Y-90255276D01*
X160458828Y-90255276D01*
X160458828Y-90255277D01*
X161289999Y-91086448D01*
X162121170Y-90255276D01*
X162097375Y-90246401D01*
X162097376Y-90246401D01*
X162037835Y-90240000D01*
X160542166Y-90240000D01*
X160482627Y-90246401D01*
X160482619Y-90246403D01*
X160458828Y-90255276D01*
X131641170Y-90255276D01*
X131617375Y-90246401D01*
X131617376Y-90246401D01*
X131557835Y-90240000D01*
X130062166Y-90240000D01*
X130002627Y-90246401D01*
X130002619Y-90246403D01*
X129978828Y-90255276D01*
X127200500Y-90255276D01*
X127200500Y-88821152D01*
X130009500Y-88821152D01*
X130009500Y-88978847D01*
X130040260Y-89133487D01*
X130040263Y-89133497D01*
X130100606Y-89279179D01*
X130188211Y-89410289D01*
X130299711Y-89521789D01*
X130430821Y-89609394D01*
X130576503Y-89669737D01*
X130576509Y-89669738D01*
X130576512Y-89669739D01*
X130731152Y-89700499D01*
X130731158Y-89700500D01*
X130888842Y-89700500D01*
X131043497Y-89669737D01*
X131189179Y-89609394D01*
X131320289Y-89521789D01*
X131431789Y-89410289D01*
X131519394Y-89279179D01*
X131579737Y-89133497D01*
X131610500Y-88978842D01*
X131610500Y-88821158D01*
X131610499Y-88821152D01*
X160489500Y-88821152D01*
X160489500Y-88978847D01*
X160520260Y-89133487D01*
X160520263Y-89133497D01*
X160580606Y-89279179D01*
X160668211Y-89410289D01*
X160779711Y-89521789D01*
X160910821Y-89609394D01*
X161056503Y-89669737D01*
X161056509Y-89669738D01*
X161056512Y-89669739D01*
X161211152Y-89700499D01*
X161211158Y-89700500D01*
X161368842Y-89700500D01*
X161523497Y-89669737D01*
X161669179Y-89609394D01*
X161800289Y-89521789D01*
X161911789Y-89410289D01*
X161999394Y-89279179D01*
X162059737Y-89133497D01*
X162090500Y-88978842D01*
X162090500Y-88821158D01*
X162059737Y-88666503D01*
X161999394Y-88520821D01*
X161911789Y-88389711D01*
X161800289Y-88278211D01*
X161669179Y-88190606D01*
X161669176Y-88190604D01*
X161669175Y-88190604D01*
X161523498Y-88130263D01*
X161523487Y-88130260D01*
X161368847Y-88099500D01*
X161368842Y-88099500D01*
X161211158Y-88099500D01*
X161211152Y-88099500D01*
X161056512Y-88130260D01*
X161056501Y-88130263D01*
X160910824Y-88190604D01*
X160779711Y-88278210D01*
X160668210Y-88389711D01*
X160580604Y-88520824D01*
X160520263Y-88666501D01*
X160520260Y-88666512D01*
X160489500Y-88821152D01*
X131610499Y-88821152D01*
X131579737Y-88666503D01*
X131519394Y-88520821D01*
X131431789Y-88389711D01*
X131320289Y-88278211D01*
X131189179Y-88190606D01*
X131189176Y-88190604D01*
X131189175Y-88190604D01*
X131043498Y-88130263D01*
X131043487Y-88130260D01*
X130888847Y-88099500D01*
X130888842Y-88099500D01*
X130731158Y-88099500D01*
X130731152Y-88099500D01*
X130576512Y-88130260D01*
X130576501Y-88130263D01*
X130430824Y-88190604D01*
X130299711Y-88278210D01*
X130188210Y-88389711D01*
X130100604Y-88520824D01*
X130040263Y-88666501D01*
X130040260Y-88666512D01*
X130009500Y-88821152D01*
X127200500Y-88821152D01*
X127200500Y-86281152D01*
X130009500Y-86281152D01*
X130009500Y-86438847D01*
X130040260Y-86593487D01*
X130040263Y-86593498D01*
X130053598Y-86625691D01*
X130100606Y-86739179D01*
X130188211Y-86870289D01*
X130299711Y-86981789D01*
X130430821Y-87069394D01*
X130576503Y-87129737D01*
X130576509Y-87129738D01*
X130576512Y-87129739D01*
X130731152Y-87160499D01*
X130731158Y-87160500D01*
X130888842Y-87160500D01*
X131043497Y-87129737D01*
X131189179Y-87069394D01*
X131320289Y-86981789D01*
X131431789Y-86870289D01*
X131519394Y-86739179D01*
X131579737Y-86593497D01*
X131610500Y-86438842D01*
X131610500Y-86281158D01*
X131610500Y-86281155D01*
X131610457Y-86280939D01*
X136559500Y-86280939D01*
X136559500Y-86439060D01*
X136600422Y-86591782D01*
X136600423Y-86591786D01*
X136679475Y-86728709D01*
X136679478Y-86728713D01*
X136679480Y-86728716D01*
X136791284Y-86840520D01*
X136791287Y-86840521D01*
X136791290Y-86840524D01*
X136928213Y-86919576D01*
X136928215Y-86919576D01*
X136928216Y-86919577D01*
X137048665Y-86951851D01*
X137080939Y-86960499D01*
X137080940Y-86960500D01*
X137080943Y-86960500D01*
X137239060Y-86960500D01*
X137239060Y-86960499D01*
X137391784Y-86919577D01*
X137528716Y-86840520D01*
X137640520Y-86728716D01*
X137700003Y-86625688D01*
X147712000Y-86625688D01*
X147712000Y-86744311D01*
X147742700Y-86858884D01*
X147742701Y-86858887D01*
X147777741Y-86919577D01*
X147802011Y-86961613D01*
X147885887Y-87045489D01*
X147988614Y-87104799D01*
X148017258Y-87112474D01*
X148103188Y-87135500D01*
X148103191Y-87135500D01*
X148221811Y-87135500D01*
X148279097Y-87120149D01*
X148336386Y-87104799D01*
X148439113Y-87045489D01*
X148522989Y-86961613D01*
X148582299Y-86858886D01*
X148597649Y-86801597D01*
X148613000Y-86744311D01*
X148613000Y-86625688D01*
X148582299Y-86511115D01*
X148582298Y-86511112D01*
X148549785Y-86454799D01*
X148522989Y-86408387D01*
X148439113Y-86324511D01*
X148431585Y-86320164D01*
X148363646Y-86280939D01*
X154339500Y-86280939D01*
X154339500Y-86439060D01*
X154380422Y-86591782D01*
X154380423Y-86591786D01*
X154459475Y-86728709D01*
X154459478Y-86728713D01*
X154459480Y-86728716D01*
X154571284Y-86840520D01*
X154571287Y-86840521D01*
X154571290Y-86840524D01*
X154708213Y-86919576D01*
X154708215Y-86919576D01*
X154708216Y-86919577D01*
X154828665Y-86951851D01*
X154860939Y-86960499D01*
X154860940Y-86960500D01*
X154860943Y-86960500D01*
X155019060Y-86960500D01*
X155019060Y-86960499D01*
X155171784Y-86919577D01*
X155308716Y-86840520D01*
X155420520Y-86728716D01*
X155496000Y-86597979D01*
X155499576Y-86591786D01*
X155499576Y-86591785D01*
X155499577Y-86591784D01*
X155540499Y-86439060D01*
X155540500Y-86439060D01*
X155540500Y-86281152D01*
X160489500Y-86281152D01*
X160489500Y-86438847D01*
X160520260Y-86593487D01*
X160520263Y-86593498D01*
X160533598Y-86625691D01*
X160580606Y-86739179D01*
X160668211Y-86870289D01*
X160779711Y-86981789D01*
X160910821Y-87069394D01*
X161056503Y-87129737D01*
X161056509Y-87129738D01*
X161056512Y-87129739D01*
X161211152Y-87160499D01*
X161211158Y-87160500D01*
X161368842Y-87160500D01*
X161523497Y-87129737D01*
X161669179Y-87069394D01*
X161800289Y-86981789D01*
X161911789Y-86870289D01*
X161999394Y-86739179D01*
X162059737Y-86593497D01*
X162090500Y-86438842D01*
X162090500Y-86281158D01*
X162090499Y-86281152D01*
X162059739Y-86126512D01*
X162059736Y-86126501D01*
X162006086Y-85996978D01*
X161999394Y-85980821D01*
X161911789Y-85849711D01*
X161800289Y-85738211D01*
X161669179Y-85650606D01*
X161669176Y-85650604D01*
X161669175Y-85650604D01*
X161523498Y-85590263D01*
X161523487Y-85590260D01*
X161368847Y-85559500D01*
X161368842Y-85559500D01*
X161211158Y-85559500D01*
X161211152Y-85559500D01*
X161056512Y-85590260D01*
X161056501Y-85590263D01*
X160910824Y-85650604D01*
X160779711Y-85738210D01*
X160668210Y-85849711D01*
X160580604Y-85980824D01*
X160520263Y-86126501D01*
X160520260Y-86126512D01*
X160489500Y-86281152D01*
X155540500Y-86281152D01*
X155540500Y-86280940D01*
X155540499Y-86280939D01*
X155499577Y-86128217D01*
X155499576Y-86128213D01*
X155420524Y-85991290D01*
X155420521Y-85991287D01*
X155420520Y-85991284D01*
X155308716Y-85879480D01*
X155308713Y-85879478D01*
X155308709Y-85879475D01*
X155171786Y-85800423D01*
X155171782Y-85800422D01*
X155019060Y-85759500D01*
X155019057Y-85759500D01*
X154860943Y-85759500D01*
X154860940Y-85759500D01*
X154708217Y-85800422D01*
X154708213Y-85800423D01*
X154571290Y-85879475D01*
X154571281Y-85879482D01*
X154459482Y-85991281D01*
X154459475Y-85991290D01*
X154380423Y-86128213D01*
X154380422Y-86128217D01*
X154339500Y-86280939D01*
X148363646Y-86280939D01*
X148336387Y-86265201D01*
X148336384Y-86265200D01*
X148221812Y-86234500D01*
X148221809Y-86234500D01*
X148103191Y-86234500D01*
X148103188Y-86234500D01*
X147988615Y-86265200D01*
X147988612Y-86265201D01*
X147885886Y-86324511D01*
X147885886Y-86324512D01*
X147802012Y-86408386D01*
X147802011Y-86408386D01*
X147742701Y-86511112D01*
X147742700Y-86511115D01*
X147712000Y-86625688D01*
X137700003Y-86625688D01*
X137716001Y-86597979D01*
X137718587Y-86593498D01*
X137719577Y-86591784D01*
X137760499Y-86439060D01*
X137760500Y-86439060D01*
X137760500Y-86280940D01*
X137760499Y-86280939D01*
X137719577Y-86128217D01*
X137719576Y-86128213D01*
X137643809Y-85996979D01*
X137643808Y-85996978D01*
X137640526Y-85991293D01*
X137640522Y-85991288D01*
X137640520Y-85991284D01*
X137624924Y-85975688D01*
X143487000Y-85975688D01*
X143487000Y-86094311D01*
X143517700Y-86208884D01*
X143517701Y-86208887D01*
X143577011Y-86311613D01*
X143660887Y-86395489D01*
X143683227Y-86408387D01*
X143736353Y-86439060D01*
X143763614Y-86454799D01*
X143792258Y-86462474D01*
X143878188Y-86485500D01*
X143878191Y-86485500D01*
X143996811Y-86485500D01*
X144054097Y-86470149D01*
X144111386Y-86454799D01*
X144214113Y-86395489D01*
X144297989Y-86311613D01*
X144357299Y-86208886D01*
X144372649Y-86151597D01*
X144388000Y-86094311D01*
X144388000Y-85975688D01*
X144357299Y-85861115D01*
X144357298Y-85861112D01*
X144324785Y-85804799D01*
X144297989Y-85758387D01*
X144214113Y-85674511D01*
X144172709Y-85650606D01*
X144111387Y-85615201D01*
X144111384Y-85615200D01*
X143996812Y-85584500D01*
X143996809Y-85584500D01*
X143878191Y-85584500D01*
X143878188Y-85584500D01*
X143763615Y-85615200D01*
X143763612Y-85615201D01*
X143660886Y-85674511D01*
X143660886Y-85674512D01*
X143577012Y-85758386D01*
X143577011Y-85758386D01*
X143517701Y-85861112D01*
X143517700Y-85861115D01*
X143487000Y-85975688D01*
X137624924Y-85975688D01*
X137528716Y-85879480D01*
X137528713Y-85879478D01*
X137528709Y-85879475D01*
X137391786Y-85800423D01*
X137391782Y-85800422D01*
X137239060Y-85759500D01*
X137239057Y-85759500D01*
X137080943Y-85759500D01*
X137080940Y-85759500D01*
X136928217Y-85800422D01*
X136928213Y-85800423D01*
X136791290Y-85879475D01*
X136791281Y-85879482D01*
X136679482Y-85991281D01*
X136679475Y-85991290D01*
X136600423Y-86128213D01*
X136600422Y-86128217D01*
X136559500Y-86280939D01*
X131610457Y-86280939D01*
X131579739Y-86126512D01*
X131579736Y-86126501D01*
X131526086Y-85996978D01*
X131519394Y-85980821D01*
X131431789Y-85849711D01*
X131320289Y-85738211D01*
X131189179Y-85650606D01*
X131189176Y-85650604D01*
X131189175Y-85650604D01*
X131043498Y-85590263D01*
X131043487Y-85590260D01*
X130888847Y-85559500D01*
X130888842Y-85559500D01*
X130731158Y-85559500D01*
X130731152Y-85559500D01*
X130576512Y-85590260D01*
X130576501Y-85590263D01*
X130430824Y-85650604D01*
X130299711Y-85738210D01*
X130188210Y-85849711D01*
X130100604Y-85980824D01*
X130040263Y-86126501D01*
X130040260Y-86126512D01*
X130009500Y-86281152D01*
X127200500Y-86281152D01*
X127200500Y-85325688D01*
X147712000Y-85325688D01*
X147712000Y-85444311D01*
X147742700Y-85558884D01*
X147742701Y-85558887D01*
X147775214Y-85615200D01*
X147802011Y-85661613D01*
X147885887Y-85745489D01*
X147908227Y-85758387D01*
X147981034Y-85800423D01*
X147988614Y-85804799D01*
X148017258Y-85812474D01*
X148103188Y-85835500D01*
X148103191Y-85835500D01*
X148221811Y-85835500D01*
X148279097Y-85820149D01*
X148336386Y-85804799D01*
X148439113Y-85745489D01*
X148522989Y-85661613D01*
X148582299Y-85558886D01*
X148597649Y-85501597D01*
X148613000Y-85444311D01*
X148613000Y-85325688D01*
X148582299Y-85211115D01*
X148582298Y-85211112D01*
X148522988Y-85108386D01*
X148439113Y-85024511D01*
X148336387Y-84965201D01*
X148336384Y-84965200D01*
X148221812Y-84934500D01*
X148221809Y-84934500D01*
X148103191Y-84934500D01*
X148103188Y-84934500D01*
X147988615Y-84965200D01*
X147988612Y-84965201D01*
X147885886Y-85024511D01*
X147885886Y-85024512D01*
X147802012Y-85108386D01*
X147802011Y-85108386D01*
X147742701Y-85211112D01*
X147742700Y-85211115D01*
X147712000Y-85325688D01*
X127200500Y-85325688D01*
X127200500Y-83741152D01*
X130009500Y-83741152D01*
X130009500Y-83898847D01*
X130040260Y-84053487D01*
X130040263Y-84053497D01*
X130100606Y-84199179D01*
X130188211Y-84330289D01*
X130299711Y-84441789D01*
X130430821Y-84529394D01*
X130576503Y-84589737D01*
X130576509Y-84589738D01*
X130576512Y-84589739D01*
X130731152Y-84620499D01*
X130731158Y-84620500D01*
X130888842Y-84620500D01*
X131043497Y-84589737D01*
X131189179Y-84529394D01*
X131320289Y-84441789D01*
X131431789Y-84330289D01*
X131519394Y-84199179D01*
X131579737Y-84053497D01*
X131610500Y-83898842D01*
X131610500Y-83741158D01*
X131610499Y-83741152D01*
X160489500Y-83741152D01*
X160489500Y-83898847D01*
X160520260Y-84053487D01*
X160520263Y-84053497D01*
X160580606Y-84199179D01*
X160668211Y-84330289D01*
X160779711Y-84441789D01*
X160910821Y-84529394D01*
X161056503Y-84589737D01*
X161056509Y-84589738D01*
X161056512Y-84589739D01*
X161211152Y-84620499D01*
X161211158Y-84620500D01*
X161368842Y-84620500D01*
X161523497Y-84589737D01*
X161669179Y-84529394D01*
X161800289Y-84441789D01*
X161911789Y-84330289D01*
X161999394Y-84199179D01*
X162059737Y-84053497D01*
X162090500Y-83898842D01*
X162090500Y-83741158D01*
X162069483Y-83635500D01*
X162059739Y-83586512D01*
X162059736Y-83586501D01*
X161999394Y-83440821D01*
X161911789Y-83309711D01*
X161800289Y-83198211D01*
X161669179Y-83110606D01*
X161669176Y-83110604D01*
X161669175Y-83110604D01*
X161523498Y-83050263D01*
X161523487Y-83050260D01*
X161368847Y-83019500D01*
X161368842Y-83019500D01*
X161211158Y-83019500D01*
X161211152Y-83019500D01*
X161056512Y-83050260D01*
X161056501Y-83050263D01*
X160910824Y-83110604D01*
X160779711Y-83198210D01*
X160668210Y-83309711D01*
X160580604Y-83440824D01*
X160520263Y-83586501D01*
X160520260Y-83586512D01*
X160489500Y-83741152D01*
X131610499Y-83741152D01*
X131589483Y-83635500D01*
X131579739Y-83586512D01*
X131579736Y-83586501D01*
X131519394Y-83440821D01*
X131431789Y-83309711D01*
X131320289Y-83198211D01*
X131211751Y-83125688D01*
X146462000Y-83125688D01*
X146462000Y-83244311D01*
X146492700Y-83358884D01*
X146492701Y-83358887D01*
X146540007Y-83440821D01*
X146552011Y-83461613D01*
X146635887Y-83545489D01*
X146738614Y-83604799D01*
X146767258Y-83612474D01*
X146853188Y-83635500D01*
X146853191Y-83635500D01*
X146971811Y-83635500D01*
X147029097Y-83620149D01*
X147086386Y-83604799D01*
X147189113Y-83545489D01*
X147272989Y-83461613D01*
X147332299Y-83358886D01*
X147347649Y-83301597D01*
X147363000Y-83244311D01*
X147363000Y-83125688D01*
X147332299Y-83011115D01*
X147332298Y-83011112D01*
X147272988Y-82908386D01*
X147189113Y-82824511D01*
X147086387Y-82765201D01*
X147086384Y-82765200D01*
X146971812Y-82734500D01*
X146971809Y-82734500D01*
X146853191Y-82734500D01*
X146853188Y-82734500D01*
X146738615Y-82765200D01*
X146738612Y-82765201D01*
X146635886Y-82824511D01*
X146635886Y-82824512D01*
X146552012Y-82908386D01*
X146552011Y-82908386D01*
X146492701Y-83011112D01*
X146492700Y-83011115D01*
X146462000Y-83125688D01*
X131211751Y-83125688D01*
X131189179Y-83110606D01*
X131189176Y-83110604D01*
X131189175Y-83110604D01*
X131043498Y-83050263D01*
X131043487Y-83050260D01*
X130888847Y-83019500D01*
X130888842Y-83019500D01*
X130731158Y-83019500D01*
X130731152Y-83019500D01*
X130576512Y-83050260D01*
X130576501Y-83050263D01*
X130430824Y-83110604D01*
X130299711Y-83198210D01*
X130188210Y-83309711D01*
X130100604Y-83440824D01*
X130040263Y-83586501D01*
X130040260Y-83586512D01*
X130009500Y-83741152D01*
X127200500Y-83741152D01*
X127200500Y-78608880D01*
X127539500Y-78608880D01*
X127539500Y-78871120D01*
X127573730Y-79131116D01*
X127573731Y-79131120D01*
X127573732Y-79131127D01*
X127641599Y-79384412D01*
X127641602Y-79384419D01*
X127741957Y-79626697D01*
X127741959Y-79626700D01*
X127873074Y-79853800D01*
X127873084Y-79853815D01*
X128032709Y-80061841D01*
X128032720Y-80061853D01*
X128218146Y-80247279D01*
X128218158Y-80247290D01*
X128426184Y-80406915D01*
X128426193Y-80406921D01*
X128426197Y-80406924D01*
X128653303Y-80538043D01*
X128895581Y-80638398D01*
X128895584Y-80638398D01*
X128895587Y-80638400D01*
X129148872Y-80706267D01*
X129148873Y-80706267D01*
X129148884Y-80706270D01*
X129408880Y-80740500D01*
X129408883Y-80740500D01*
X129671117Y-80740500D01*
X129671120Y-80740500D01*
X129931116Y-80706270D01*
X130184419Y-80638398D01*
X130426697Y-80538043D01*
X130653803Y-80406924D01*
X130861851Y-80247282D01*
X131047282Y-80061851D01*
X131206924Y-79853803D01*
X131338043Y-79626697D01*
X131438398Y-79384419D01*
X131506270Y-79131116D01*
X131540500Y-78871120D01*
X131540500Y-78608880D01*
X160559500Y-78608880D01*
X160559500Y-78871120D01*
X160593730Y-79131116D01*
X160593731Y-79131120D01*
X160593732Y-79131127D01*
X160661599Y-79384412D01*
X160661602Y-79384419D01*
X160761957Y-79626697D01*
X160761959Y-79626700D01*
X160893074Y-79853800D01*
X160893084Y-79853815D01*
X161052709Y-80061841D01*
X161052720Y-80061853D01*
X161238146Y-80247279D01*
X161238158Y-80247290D01*
X161446184Y-80406915D01*
X161446193Y-80406921D01*
X161446197Y-80406924D01*
X161673303Y-80538043D01*
X161915581Y-80638398D01*
X161915584Y-80638398D01*
X161915587Y-80638400D01*
X162168872Y-80706267D01*
X162168873Y-80706267D01*
X162168884Y-80706270D01*
X162428880Y-80740500D01*
X162428883Y-80740500D01*
X162691117Y-80740500D01*
X162691120Y-80740500D01*
X162951116Y-80706270D01*
X163204419Y-80638398D01*
X163446697Y-80538043D01*
X163673803Y-80406924D01*
X163881851Y-80247282D01*
X164067282Y-80061851D01*
X164226924Y-79853803D01*
X164358043Y-79626697D01*
X164458398Y-79384419D01*
X164526270Y-79131116D01*
X164560500Y-78871120D01*
X164560500Y-78608880D01*
X164526270Y-78348884D01*
X164526267Y-78348872D01*
X164458400Y-78095587D01*
X164458396Y-78095577D01*
X164358043Y-77853303D01*
X164226924Y-77626197D01*
X164226921Y-77626193D01*
X164226915Y-77626184D01*
X164067290Y-77418158D01*
X164067279Y-77418146D01*
X163881853Y-77232720D01*
X163881841Y-77232709D01*
X163673815Y-77073084D01*
X163673800Y-77073074D01*
X163527406Y-76988554D01*
X163446697Y-76941957D01*
X163263209Y-76865953D01*
X163204422Y-76841603D01*
X163204412Y-76841599D01*
X162951127Y-76773732D01*
X162951120Y-76773731D01*
X162951116Y-76773730D01*
X162691120Y-76739500D01*
X162428880Y-76739500D01*
X162168884Y-76773730D01*
X162168880Y-76773730D01*
X162168872Y-76773732D01*
X161915587Y-76841599D01*
X161915577Y-76841603D01*
X161756435Y-76907522D01*
X161673303Y-76941957D01*
X161673300Y-76941958D01*
X161673299Y-76941959D01*
X161446199Y-77073074D01*
X161446184Y-77073084D01*
X161238158Y-77232709D01*
X161238146Y-77232720D01*
X161052720Y-77418146D01*
X161052709Y-77418158D01*
X160893084Y-77626184D01*
X160893074Y-77626199D01*
X160761959Y-77853299D01*
X160661603Y-78095577D01*
X160661599Y-78095587D01*
X160593732Y-78348872D01*
X160593730Y-78348880D01*
X160593730Y-78348884D01*
X160559500Y-78608880D01*
X131540500Y-78608880D01*
X131506270Y-78348884D01*
X131506267Y-78348872D01*
X131438400Y-78095587D01*
X131438396Y-78095577D01*
X131338043Y-77853303D01*
X131206924Y-77626197D01*
X131206921Y-77626193D01*
X131206915Y-77626184D01*
X131047290Y-77418158D01*
X131047279Y-77418146D01*
X130861853Y-77232720D01*
X130861841Y-77232709D01*
X130653815Y-77073084D01*
X130653800Y-77073074D01*
X130507406Y-76988554D01*
X130426697Y-76941957D01*
X130243209Y-76865953D01*
X130184422Y-76841603D01*
X130184412Y-76841599D01*
X129931127Y-76773732D01*
X129931120Y-76773731D01*
X129931116Y-76773730D01*
X129671120Y-76739500D01*
X129408880Y-76739500D01*
X129148884Y-76773730D01*
X129148880Y-76773730D01*
X129148872Y-76773732D01*
X128895587Y-76841599D01*
X128895577Y-76841603D01*
X128736435Y-76907522D01*
X128653303Y-76941957D01*
X128653300Y-76941958D01*
X128653299Y-76941959D01*
X128426199Y-77073074D01*
X128426184Y-77073084D01*
X128218158Y-77232709D01*
X128218146Y-77232720D01*
X128032720Y-77418146D01*
X128032709Y-77418158D01*
X127873084Y-77626184D01*
X127873074Y-77626199D01*
X127741959Y-77853299D01*
X127641603Y-78095577D01*
X127641599Y-78095587D01*
X127573732Y-78348872D01*
X127573730Y-78348880D01*
X127573730Y-78348884D01*
X127539500Y-78608880D01*
X127200500Y-78608880D01*
X127200500Y-78401603D01*
X127200605Y-78398398D01*
X127217396Y-78142213D01*
X127218229Y-78135879D01*
X127268008Y-77885622D01*
X127269656Y-77879469D01*
X127351675Y-77637852D01*
X127354120Y-77631950D01*
X127466969Y-77403114D01*
X127470157Y-77397593D01*
X127611910Y-77185444D01*
X127615802Y-77180373D01*
X127784029Y-76988546D01*
X127788546Y-76984029D01*
X127980373Y-76815802D01*
X127985444Y-76811910D01*
X128197593Y-76670157D01*
X128203114Y-76666969D01*
X128431950Y-76554120D01*
X128437852Y-76551675D01*
X128679469Y-76469656D01*
X128685622Y-76468008D01*
X128935879Y-76418229D01*
X128942209Y-76417396D01*
X129198398Y-76400604D01*
X129201603Y-76400500D01*
X129239882Y-76400500D01*
X162860118Y-76400500D01*
X162898397Y-76400500D01*
X162901601Y-76400604D01*
G37*
G04 #@! TD.AperFunction*
G04 #@! TA.AperFunction,Conductor*
G36*
X139431648Y-105551352D02*
G01*
X139446000Y-105586000D01*
X139446000Y-113665000D01*
X151384000Y-113665000D01*
X151384000Y-108525688D01*
X153627000Y-108525688D01*
X153627000Y-108644311D01*
X153657700Y-108758884D01*
X153657701Y-108758887D01*
X153717011Y-108861613D01*
X153800887Y-108945489D01*
X153903614Y-109004799D01*
X153932258Y-109012474D01*
X154018188Y-109035500D01*
X154018191Y-109035500D01*
X154136811Y-109035500D01*
X154194097Y-109020149D01*
X154251386Y-109004799D01*
X154354113Y-108945489D01*
X154437989Y-108861613D01*
X154497299Y-108758886D01*
X154523823Y-108659898D01*
X154528000Y-108644311D01*
X154528000Y-108525688D01*
X154497299Y-108411115D01*
X154497298Y-108411112D01*
X154437988Y-108308386D01*
X154354113Y-108224511D01*
X154251387Y-108165201D01*
X154251384Y-108165200D01*
X154136812Y-108134500D01*
X154136809Y-108134500D01*
X154018191Y-108134500D01*
X154018188Y-108134500D01*
X153903615Y-108165200D01*
X153903612Y-108165201D01*
X153800886Y-108224511D01*
X153800886Y-108224512D01*
X153717012Y-108308386D01*
X153717011Y-108308386D01*
X153657701Y-108411112D01*
X153657700Y-108411115D01*
X153627000Y-108525688D01*
X151384000Y-108525688D01*
X151384000Y-107120688D01*
X153777000Y-107120688D01*
X153777000Y-107239311D01*
X153807700Y-107353884D01*
X153807701Y-107353887D01*
X153819492Y-107374309D01*
X153867011Y-107456613D01*
X153950887Y-107540489D01*
X154026085Y-107583905D01*
X154039435Y-107591613D01*
X154053614Y-107599799D01*
X154082258Y-107607474D01*
X154168188Y-107630500D01*
X154168191Y-107630500D01*
X154286811Y-107630500D01*
X154344097Y-107615149D01*
X154401386Y-107599799D01*
X154504113Y-107540489D01*
X154587989Y-107456613D01*
X154647299Y-107353886D01*
X154662649Y-107296597D01*
X154678000Y-107239311D01*
X154678000Y-107120688D01*
X154647299Y-107006115D01*
X154647298Y-107006112D01*
X154587988Y-106903386D01*
X154504113Y-106819511D01*
X154401387Y-106760201D01*
X154401384Y-106760200D01*
X154286812Y-106729500D01*
X154286809Y-106729500D01*
X154168191Y-106729500D01*
X154168188Y-106729500D01*
X154053615Y-106760200D01*
X154053612Y-106760201D01*
X153950886Y-106819511D01*
X153950886Y-106819512D01*
X153867012Y-106903386D01*
X153867011Y-106903386D01*
X153807701Y-107006112D01*
X153807700Y-107006115D01*
X153777000Y-107120688D01*
X151384000Y-107120688D01*
X151384000Y-105586000D01*
X151398352Y-105551352D01*
X151433000Y-105537000D01*
X158320000Y-105537000D01*
X158354648Y-105551352D01*
X158369000Y-105586000D01*
X158369000Y-117299000D01*
X158354648Y-117333648D01*
X158320000Y-117348000D01*
X155956000Y-117348000D01*
X155956000Y-120111000D01*
X155941648Y-120145648D01*
X155907000Y-120160000D01*
X153556000Y-120160000D01*
X153556000Y-136910500D01*
X153541648Y-136945148D01*
X153507000Y-136959500D01*
X129201603Y-136959500D01*
X129198398Y-136959395D01*
X128942213Y-136942603D01*
X128935864Y-136941767D01*
X128685636Y-136891994D01*
X128679457Y-136890339D01*
X128437862Y-136808328D01*
X128431941Y-136805875D01*
X128203129Y-136693038D01*
X128197582Y-136689835D01*
X128090876Y-136618536D01*
X127985451Y-136548093D01*
X127980366Y-136544191D01*
X127788554Y-136375977D01*
X127784022Y-136371445D01*
X127615808Y-136179633D01*
X127611906Y-136174548D01*
X127603750Y-136162342D01*
X127470161Y-135962413D01*
X127466966Y-135956878D01*
X127354122Y-135728054D01*
X127351671Y-135722137D01*
X127335827Y-135675462D01*
X127269657Y-135480534D01*
X127268007Y-135474373D01*
X127218229Y-135224122D01*
X127217396Y-135217786D01*
X127200605Y-134961601D01*
X127200500Y-134958396D01*
X127200500Y-133271152D01*
X128739500Y-133271152D01*
X128739500Y-133428847D01*
X128770260Y-133583487D01*
X128770263Y-133583498D01*
X128804229Y-133665500D01*
X128830606Y-133729179D01*
X128885675Y-133811596D01*
X128898153Y-133830271D01*
X128918211Y-133860289D01*
X129029711Y-133971789D01*
X129160821Y-134059394D01*
X129306503Y-134119737D01*
X129306509Y-134119738D01*
X129306512Y-134119739D01*
X129461152Y-134150499D01*
X129461158Y-134150500D01*
X129618842Y-134150500D01*
X129773497Y-134119737D01*
X129919179Y-134059394D01*
X130050289Y-133971789D01*
X130161789Y-133860289D01*
X130249394Y-133729179D01*
X130309737Y-133583497D01*
X130340500Y-133428842D01*
X130340500Y-133271158D01*
X130332953Y-133233218D01*
X130309739Y-133116512D01*
X130309736Y-133116501D01*
X130258272Y-132992254D01*
X130249394Y-132970821D01*
X130161789Y-132839711D01*
X130050289Y-132728211D01*
X130030517Y-132715000D01*
X129984841Y-132684480D01*
X129919179Y-132640606D01*
X129919176Y-132640604D01*
X129919175Y-132640604D01*
X129917946Y-132640095D01*
X131279500Y-132640095D01*
X131279500Y-134059894D01*
X131279501Y-134059898D01*
X131285331Y-134089213D01*
X131285331Y-134089214D01*
X131285332Y-134089215D01*
X131285332Y-134089216D01*
X131305727Y-134119739D01*
X131307543Y-134122457D01*
X131340787Y-134144669D01*
X131370101Y-134150500D01*
X132789898Y-134150499D01*
X132819213Y-134144669D01*
X132852457Y-134122457D01*
X132874669Y-134089213D01*
X132880500Y-134059899D01*
X132880499Y-133320908D01*
X132880499Y-132640105D01*
X132880499Y-132640102D01*
X132874669Y-132610787D01*
X132874667Y-132610784D01*
X132874667Y-132610783D01*
X132873311Y-132608753D01*
X134920000Y-132608753D01*
X134920000Y-132821246D01*
X134953241Y-133031123D01*
X134953242Y-133031126D01*
X135018905Y-133233218D01*
X135115378Y-133422556D01*
X135115380Y-133422560D01*
X135154727Y-133476716D01*
X135154728Y-133476716D01*
X135787037Y-132844408D01*
X135804075Y-132907993D01*
X135869901Y-133022007D01*
X135962993Y-133115099D01*
X136077007Y-133180925D01*
X136140591Y-133197962D01*
X135508281Y-133830271D01*
X135562440Y-133869619D01*
X135562443Y-133869621D01*
X135751781Y-133966094D01*
X135953873Y-134031757D01*
X135953876Y-134031758D01*
X136163754Y-134065000D01*
X136376246Y-134065000D01*
X136586123Y-134031758D01*
X136586126Y-134031757D01*
X136788218Y-133966094D01*
X136977553Y-133869622D01*
X137031717Y-133830271D01*
X136399408Y-133197962D01*
X136462993Y-133180925D01*
X136577007Y-133115099D01*
X136670099Y-133022007D01*
X136735925Y-132907993D01*
X136752962Y-132844408D01*
X137385271Y-133476717D01*
X137424622Y-133422553D01*
X137521094Y-133233218D01*
X137586757Y-133031126D01*
X137586758Y-133031123D01*
X137620000Y-132821246D01*
X137620000Y-132621384D01*
X140019500Y-132621384D01*
X140019500Y-132808616D01*
X140039267Y-132907993D01*
X140056026Y-132992248D01*
X140056029Y-132992258D01*
X140127675Y-133165225D01*
X140127676Y-133165227D01*
X140127678Y-133165231D01*
X140231698Y-133320908D01*
X140364092Y-133453302D01*
X140519769Y-133557322D01*
X140519774Y-133557324D01*
X140692741Y-133628970D01*
X140692743Y-133628970D01*
X140692749Y-133628973D01*
X140876384Y-133665500D01*
X140876387Y-133665500D01*
X141063613Y-133665500D01*
X141063616Y-133665500D01*
X141247251Y-133628973D01*
X141420231Y-133557322D01*
X141575908Y-133453302D01*
X141708302Y-133320908D01*
X141812322Y-133165231D01*
X141883973Y-132992251D01*
X141920500Y-132808616D01*
X141920500Y-132621384D01*
X144719500Y-132621384D01*
X144719500Y-132808616D01*
X144739267Y-132907993D01*
X144756026Y-132992248D01*
X144756029Y-132992258D01*
X144827675Y-133165225D01*
X144827676Y-133165227D01*
X144827678Y-133165231D01*
X144931698Y-133320908D01*
X145064092Y-133453302D01*
X145219769Y-133557322D01*
X145219774Y-133557324D01*
X145392741Y-133628970D01*
X145392743Y-133628970D01*
X145392749Y-133628973D01*
X145576384Y-133665500D01*
X145576387Y-133665500D01*
X145763613Y-133665500D01*
X145763616Y-133665500D01*
X145947251Y-133628973D01*
X146120231Y-133557322D01*
X146275908Y-133453302D01*
X146408302Y-133320908D01*
X146512322Y-133165231D01*
X146545166Y-133085939D01*
X148749500Y-133085939D01*
X148749500Y-133944060D01*
X148790422Y-134096782D01*
X148790423Y-134096786D01*
X148869475Y-134233709D01*
X148869478Y-134233713D01*
X148869480Y-134233716D01*
X148981284Y-134345520D01*
X148981287Y-134345521D01*
X148981290Y-134345524D01*
X149118213Y-134424576D01*
X149118215Y-134424576D01*
X149118216Y-134424577D01*
X149238665Y-134456851D01*
X149270939Y-134465499D01*
X149270940Y-134465500D01*
X149270943Y-134465500D01*
X149429060Y-134465500D01*
X149429060Y-134465499D01*
X149581784Y-134424577D01*
X149718716Y-134345520D01*
X149830520Y-134233716D01*
X149878565Y-134150499D01*
X149909576Y-134096786D01*
X149909576Y-134096785D01*
X149909577Y-134096784D01*
X149950499Y-133944060D01*
X149950500Y-133944060D01*
X149950500Y-133085940D01*
X149950499Y-133085939D01*
X149925395Y-132992251D01*
X149909577Y-132933216D01*
X149909576Y-132933215D01*
X149909576Y-132933213D01*
X149830524Y-132796290D01*
X149830521Y-132796287D01*
X149830520Y-132796284D01*
X149718716Y-132684480D01*
X149718713Y-132684478D01*
X149718709Y-132684475D01*
X149581786Y-132605423D01*
X149581782Y-132605422D01*
X149429060Y-132564500D01*
X149429057Y-132564500D01*
X149270943Y-132564500D01*
X149270940Y-132564500D01*
X149118217Y-132605422D01*
X149118213Y-132605423D01*
X148981290Y-132684475D01*
X148981281Y-132684482D01*
X148869482Y-132796281D01*
X148869475Y-132796290D01*
X148790423Y-132933213D01*
X148790422Y-132933217D01*
X148749500Y-133085939D01*
X146545166Y-133085939D01*
X146583973Y-132992251D01*
X146620500Y-132808616D01*
X146620500Y-132621384D01*
X146583973Y-132437749D01*
X146512322Y-132264769D01*
X146408302Y-132109092D01*
X146275908Y-131976698D01*
X146240863Y-131953282D01*
X146237381Y-131950955D01*
X146120231Y-131872678D01*
X146120227Y-131872676D01*
X146120225Y-131872675D01*
X145947258Y-131801029D01*
X145947248Y-131801026D01*
X145873194Y-131786296D01*
X145763616Y-131764500D01*
X145576384Y-131764500D01*
X145484986Y-131782680D01*
X145392751Y-131801026D01*
X145392741Y-131801029D01*
X145219774Y-131872675D01*
X145219770Y-131872677D01*
X145219769Y-131872678D01*
X145180195Y-131899120D01*
X145064092Y-131976697D01*
X144931697Y-132109092D01*
X144854120Y-132225195D01*
X144838165Y-132249075D01*
X144827675Y-132264774D01*
X144756029Y-132437741D01*
X144756026Y-132437751D01*
X144739267Y-132522007D01*
X144719500Y-132621384D01*
X141920500Y-132621384D01*
X141883973Y-132437749D01*
X141812322Y-132264769D01*
X141708302Y-132109092D01*
X141575908Y-131976698D01*
X141540863Y-131953282D01*
X141537381Y-131950955D01*
X141420231Y-131872678D01*
X141420227Y-131872676D01*
X141420225Y-131872675D01*
X141247258Y-131801029D01*
X141247248Y-131801026D01*
X141173194Y-131786296D01*
X141063616Y-131764500D01*
X140876384Y-131764500D01*
X140784986Y-131782680D01*
X140692751Y-131801026D01*
X140692741Y-131801029D01*
X140519774Y-131872675D01*
X140519770Y-131872677D01*
X140519769Y-131872678D01*
X140480195Y-131899120D01*
X140364092Y-131976697D01*
X140231697Y-132109092D01*
X140154120Y-132225195D01*
X140138165Y-132249075D01*
X140127675Y-132264774D01*
X140056029Y-132437741D01*
X140056026Y-132437751D01*
X140039267Y-132522007D01*
X140019500Y-132621384D01*
X137620000Y-132621384D01*
X137620000Y-132608753D01*
X137586758Y-132398876D01*
X137586757Y-132398873D01*
X137521094Y-132196781D01*
X137424621Y-132007443D01*
X137424619Y-132007440D01*
X137385271Y-131953281D01*
X136752962Y-132585590D01*
X136735925Y-132522007D01*
X136670099Y-132407993D01*
X136577007Y-132314901D01*
X136462993Y-132249075D01*
X136399407Y-132232036D01*
X137031716Y-131599728D01*
X137031716Y-131599727D01*
X136977560Y-131560380D01*
X136977556Y-131560378D01*
X136788218Y-131463905D01*
X136586126Y-131398242D01*
X136586123Y-131398241D01*
X136376246Y-131365000D01*
X136163754Y-131365000D01*
X135953876Y-131398241D01*
X135953873Y-131398242D01*
X135751781Y-131463905D01*
X135562447Y-131560376D01*
X135562442Y-131560379D01*
X135508282Y-131599727D01*
X135508282Y-131599728D01*
X136140591Y-132232037D01*
X136077007Y-132249075D01*
X135962993Y-132314901D01*
X135869901Y-132407993D01*
X135804075Y-132522007D01*
X135787037Y-132585591D01*
X135154728Y-131953282D01*
X135154727Y-131953282D01*
X135115379Y-132007442D01*
X135115376Y-132007447D01*
X135018905Y-132196781D01*
X134953242Y-132398873D01*
X134953241Y-132398876D01*
X134920000Y-132608753D01*
X132873311Y-132608753D01*
X132852457Y-132577543D01*
X132819212Y-132555330D01*
X132789901Y-132549500D01*
X131370105Y-132549500D01*
X131370104Y-132549500D01*
X131370102Y-132549501D01*
X131340787Y-132555331D01*
X131340786Y-132555331D01*
X131340784Y-132555332D01*
X131340783Y-132555332D01*
X131307543Y-132577542D01*
X131285330Y-132610786D01*
X131285330Y-132610787D01*
X131279500Y-132640095D01*
X129917946Y-132640095D01*
X129773498Y-132580263D01*
X129773487Y-132580260D01*
X129618847Y-132549500D01*
X129618842Y-132549500D01*
X129461158Y-132549500D01*
X129461152Y-132549500D01*
X129306512Y-132580260D01*
X129306501Y-132580263D01*
X129160824Y-132640604D01*
X129029711Y-132728210D01*
X128918210Y-132839711D01*
X128830604Y-132970824D01*
X128770263Y-133116501D01*
X128770260Y-133116512D01*
X128739500Y-133271152D01*
X127200500Y-133271152D01*
X127200500Y-129285939D01*
X148749500Y-129285939D01*
X148749500Y-130144060D01*
X148790422Y-130296782D01*
X148790423Y-130296786D01*
X148869475Y-130433709D01*
X148869478Y-130433713D01*
X148869480Y-130433716D01*
X148981284Y-130545520D01*
X148981287Y-130545521D01*
X148981290Y-130545524D01*
X149118213Y-130624576D01*
X149118215Y-130624576D01*
X149118216Y-130624577D01*
X149238665Y-130656851D01*
X149270939Y-130665499D01*
X149270940Y-130665500D01*
X149270943Y-130665500D01*
X149429060Y-130665500D01*
X149429060Y-130665499D01*
X149581784Y-130624577D01*
X149718716Y-130545520D01*
X149830520Y-130433716D01*
X149909577Y-130296784D01*
X149950499Y-130144060D01*
X149950500Y-130144060D01*
X149950500Y-129475688D01*
X150469500Y-129475688D01*
X150469500Y-129594311D01*
X150500200Y-129708884D01*
X150500201Y-129708887D01*
X150559511Y-129811613D01*
X150643387Y-129895489D01*
X150746114Y-129954799D01*
X150774758Y-129962474D01*
X150860688Y-129985500D01*
X150860691Y-129985500D01*
X150979311Y-129985500D01*
X151036597Y-129970149D01*
X151093886Y-129954799D01*
X151196613Y-129895489D01*
X151280489Y-129811613D01*
X151339799Y-129708886D01*
X151355149Y-129651597D01*
X151370500Y-129594311D01*
X151370500Y-129475688D01*
X151339799Y-129361115D01*
X151339798Y-129361112D01*
X151323905Y-129333585D01*
X151280489Y-129258387D01*
X151196613Y-129174511D01*
X151093887Y-129115201D01*
X151093884Y-129115200D01*
X150979312Y-129084500D01*
X150979309Y-129084500D01*
X150860691Y-129084500D01*
X150860688Y-129084500D01*
X150746115Y-129115200D01*
X150746112Y-129115201D01*
X150643386Y-129174511D01*
X150643386Y-129174512D01*
X150559512Y-129258386D01*
X150559511Y-129258386D01*
X150500201Y-129361112D01*
X150500200Y-129361115D01*
X150469500Y-129475688D01*
X149950500Y-129475688D01*
X149950500Y-129285940D01*
X149950499Y-129285939D01*
X149909577Y-129133217D01*
X149909576Y-129133213D01*
X149830524Y-128996290D01*
X149830521Y-128996287D01*
X149830520Y-128996284D01*
X149718716Y-128884480D01*
X149718713Y-128884478D01*
X149718709Y-128884475D01*
X149581786Y-128805423D01*
X149581782Y-128805422D01*
X149429060Y-128764500D01*
X149429057Y-128764500D01*
X149270943Y-128764500D01*
X149270940Y-128764500D01*
X149118217Y-128805422D01*
X149118213Y-128805423D01*
X148981290Y-128884475D01*
X148981281Y-128884482D01*
X148869482Y-128996281D01*
X148869475Y-128996290D01*
X148790423Y-129133213D01*
X148790422Y-129133217D01*
X148749500Y-129285939D01*
X127200500Y-129285939D01*
X127200500Y-126592572D01*
X132840978Y-126592572D01*
X132876324Y-126616190D01*
X133058310Y-126691570D01*
X133251512Y-126730000D01*
X133448488Y-126730000D01*
X133641689Y-126691570D01*
X133641690Y-126691570D01*
X133823672Y-126616191D01*
X133859019Y-126592572D01*
X133350000Y-126083553D01*
X132840978Y-126592572D01*
X127200500Y-126592572D01*
X127200500Y-125631512D01*
X132350000Y-125631512D01*
X132350000Y-125828487D01*
X132388429Y-126021689D01*
X132388429Y-126021690D01*
X132463810Y-126203677D01*
X132487426Y-126239020D01*
X132996446Y-125730000D01*
X132996446Y-125729999D01*
X132946719Y-125680272D01*
X133100000Y-125680272D01*
X133100000Y-125779728D01*
X133138060Y-125871614D01*
X133208386Y-125941940D01*
X133300272Y-125980000D01*
X133399728Y-125980000D01*
X133491614Y-125941940D01*
X133561940Y-125871614D01*
X133600000Y-125779728D01*
X133600000Y-125729999D01*
X133703553Y-125729999D01*
X133703553Y-125730000D01*
X134212572Y-126239019D01*
X134236191Y-126203672D01*
X134311570Y-126021690D01*
X134311570Y-126021689D01*
X134350000Y-125828487D01*
X134350000Y-125641303D01*
X143149500Y-125641303D01*
X143149500Y-125818696D01*
X143184103Y-125992656D01*
X143184106Y-125992667D01*
X143196128Y-126021690D01*
X143251987Y-126156547D01*
X143291726Y-126216021D01*
X143350533Y-126304032D01*
X143475967Y-126429466D01*
X143534640Y-126468670D01*
X143623453Y-126528013D01*
X143787334Y-126595894D01*
X143787340Y-126595895D01*
X143787343Y-126595896D01*
X143961303Y-126630499D01*
X143961309Y-126630500D01*
X144138691Y-126630500D01*
X144312666Y-126595894D01*
X144476547Y-126528013D01*
X144624035Y-126429464D01*
X144666352Y-126387147D01*
X144701000Y-126372795D01*
X144735648Y-126387147D01*
X144750000Y-126421795D01*
X144750000Y-126577834D01*
X144756401Y-126637372D01*
X144756401Y-126637373D01*
X144806648Y-126772091D01*
X144892811Y-126887188D01*
X145007908Y-126973351D01*
X145142626Y-127023598D01*
X145202166Y-127030000D01*
X145800000Y-127030000D01*
X145800000Y-126045686D01*
X145804394Y-126050080D01*
X145895606Y-126102741D01*
X145997339Y-126130000D01*
X146102661Y-126130000D01*
X146204394Y-126102741D01*
X146295606Y-126050080D01*
X146300000Y-126045686D01*
X146300000Y-127030000D01*
X146897834Y-127030000D01*
X146957372Y-127023598D01*
X146957373Y-127023598D01*
X147092091Y-126973351D01*
X147135723Y-126940688D01*
X149132000Y-126940688D01*
X149132000Y-127059311D01*
X149162700Y-127173884D01*
X149162701Y-127173887D01*
X149222011Y-127276613D01*
X149305887Y-127360489D01*
X149408614Y-127419799D01*
X149437258Y-127427474D01*
X149523188Y-127450500D01*
X149523191Y-127450500D01*
X149641811Y-127450500D01*
X149699097Y-127435149D01*
X149756386Y-127419799D01*
X149859113Y-127360489D01*
X149942989Y-127276613D01*
X150002299Y-127173886D01*
X150017649Y-127116597D01*
X150033000Y-127059311D01*
X150033000Y-126940688D01*
X150002299Y-126826115D01*
X150002298Y-126826112D01*
X149986405Y-126798585D01*
X149942989Y-126723387D01*
X149859113Y-126639511D01*
X149818722Y-126616191D01*
X149756387Y-126580201D01*
X149756384Y-126580200D01*
X149641812Y-126549500D01*
X149641809Y-126549500D01*
X149523191Y-126549500D01*
X149523188Y-126549500D01*
X149408615Y-126580200D01*
X149408612Y-126580201D01*
X149305886Y-126639511D01*
X149305886Y-126639512D01*
X149222012Y-126723386D01*
X149222011Y-126723386D01*
X149162701Y-126826112D01*
X149162700Y-126826115D01*
X149132000Y-126940688D01*
X147135723Y-126940688D01*
X147192409Y-126898253D01*
X147207188Y-126887188D01*
X147293351Y-126772091D01*
X147343598Y-126637373D01*
X147343598Y-126637372D01*
X147350000Y-126577834D01*
X147350000Y-125980000D01*
X146365686Y-125980000D01*
X146370080Y-125975606D01*
X146422741Y-125884394D01*
X146450000Y-125782661D01*
X146450000Y-125677339D01*
X146422741Y-125575606D01*
X146370080Y-125484394D01*
X146365686Y-125480000D01*
X147350000Y-125480000D01*
X147350000Y-124882165D01*
X147343598Y-124822627D01*
X147343598Y-124822626D01*
X147293351Y-124687908D01*
X147207188Y-124572811D01*
X147092091Y-124486648D01*
X146957373Y-124436401D01*
X146897834Y-124430000D01*
X146300000Y-124430000D01*
X146300000Y-125414314D01*
X146295606Y-125409920D01*
X146204394Y-125357259D01*
X146102661Y-125330000D01*
X145997339Y-125330000D01*
X145895606Y-125357259D01*
X145804394Y-125409920D01*
X145800000Y-125414314D01*
X145800000Y-124430000D01*
X145202166Y-124430000D01*
X145142627Y-124436401D01*
X145142626Y-124436401D01*
X145007908Y-124486648D01*
X144892811Y-124572811D01*
X144806648Y-124687908D01*
X144756401Y-124822626D01*
X144756401Y-124822627D01*
X144750000Y-124882165D01*
X144750000Y-125038205D01*
X144735648Y-125072853D01*
X144701000Y-125087205D01*
X144666352Y-125072853D01*
X144624032Y-125030533D01*
X144536021Y-124971726D01*
X144476547Y-124931987D01*
X144476544Y-124931985D01*
X144476543Y-124931985D01*
X144312667Y-124864106D01*
X144312656Y-124864103D01*
X144138696Y-124829500D01*
X144138691Y-124829500D01*
X143961309Y-124829500D01*
X143961303Y-124829500D01*
X143787343Y-124864103D01*
X143787332Y-124864106D01*
X143623456Y-124931985D01*
X143475967Y-125030533D01*
X143350533Y-125155967D01*
X143251985Y-125303456D01*
X143184106Y-125467332D01*
X143184103Y-125467343D01*
X143149500Y-125641303D01*
X134350000Y-125641303D01*
X134350000Y-125631512D01*
X134311570Y-125438310D01*
X134311570Y-125438309D01*
X134236190Y-125256324D01*
X134212572Y-125220978D01*
X133703553Y-125729999D01*
X133600000Y-125729999D01*
X133600000Y-125680272D01*
X133561940Y-125588386D01*
X133491614Y-125518060D01*
X133399728Y-125480000D01*
X133300272Y-125480000D01*
X133208386Y-125518060D01*
X133138060Y-125588386D01*
X133100000Y-125680272D01*
X132946719Y-125680272D01*
X132487426Y-125220979D01*
X132487425Y-125220979D01*
X132463810Y-125256321D01*
X132388429Y-125438309D01*
X132388429Y-125438310D01*
X132350000Y-125631512D01*
X127200500Y-125631512D01*
X127200500Y-124867425D01*
X132840979Y-124867425D01*
X132840979Y-124867426D01*
X133349999Y-125376446D01*
X133859020Y-124867426D01*
X133823677Y-124843810D01*
X133641689Y-124768429D01*
X133448488Y-124730000D01*
X133251512Y-124730000D01*
X133058310Y-124768429D01*
X133058309Y-124768429D01*
X132876321Y-124843810D01*
X132840979Y-124867425D01*
X127200500Y-124867425D01*
X127200500Y-123765688D01*
X137067000Y-123765688D01*
X137067000Y-123884311D01*
X137097700Y-123998884D01*
X137097701Y-123998887D01*
X137157011Y-124101613D01*
X137240887Y-124185489D01*
X137343614Y-124244799D01*
X137372258Y-124252474D01*
X137458188Y-124275500D01*
X137458191Y-124275500D01*
X137576811Y-124275500D01*
X137634097Y-124260149D01*
X137691386Y-124244799D01*
X137794113Y-124185489D01*
X137877989Y-124101613D01*
X137937299Y-123998886D01*
X137952649Y-123941597D01*
X137968000Y-123884311D01*
X137968000Y-123765688D01*
X152307000Y-123765688D01*
X152307000Y-123884311D01*
X152337700Y-123998884D01*
X152337701Y-123998887D01*
X152397011Y-124101613D01*
X152480887Y-124185489D01*
X152583614Y-124244799D01*
X152612258Y-124252474D01*
X152698188Y-124275500D01*
X152698191Y-124275500D01*
X152816811Y-124275500D01*
X152874097Y-124260149D01*
X152931386Y-124244799D01*
X153034113Y-124185489D01*
X153117989Y-124101613D01*
X153177299Y-123998886D01*
X153192649Y-123941597D01*
X153208000Y-123884311D01*
X153208000Y-123765688D01*
X153177299Y-123651115D01*
X153177298Y-123651112D01*
X153117988Y-123548386D01*
X153034113Y-123464511D01*
X152931387Y-123405201D01*
X152931384Y-123405200D01*
X152816812Y-123374500D01*
X152816809Y-123374500D01*
X152698191Y-123374500D01*
X152698188Y-123374500D01*
X152583615Y-123405200D01*
X152583612Y-123405201D01*
X152480886Y-123464511D01*
X152480886Y-123464512D01*
X152397012Y-123548386D01*
X152397011Y-123548386D01*
X152337701Y-123651112D01*
X152337700Y-123651115D01*
X152307000Y-123765688D01*
X137968000Y-123765688D01*
X137937299Y-123651115D01*
X137937298Y-123651112D01*
X137877988Y-123548386D01*
X137794113Y-123464511D01*
X137691387Y-123405201D01*
X137691384Y-123405200D01*
X137576812Y-123374500D01*
X137576809Y-123374500D01*
X137458191Y-123374500D01*
X137458188Y-123374500D01*
X137343615Y-123405200D01*
X137343612Y-123405201D01*
X137240886Y-123464511D01*
X137240886Y-123464512D01*
X137157012Y-123548386D01*
X137157011Y-123548386D01*
X137097701Y-123651112D01*
X137097700Y-123651115D01*
X137067000Y-123765688D01*
X127200500Y-123765688D01*
X127200500Y-121503188D01*
X134804500Y-121503188D01*
X134804500Y-121621811D01*
X134835200Y-121736384D01*
X134835201Y-121736387D01*
X134865643Y-121789113D01*
X134894511Y-121839113D01*
X134978387Y-121922989D01*
X135081114Y-121982299D01*
X135109758Y-121989974D01*
X135195688Y-122013000D01*
X135195691Y-122013000D01*
X135314311Y-122013000D01*
X135371597Y-121997649D01*
X135428886Y-121982299D01*
X135531613Y-121922989D01*
X135615489Y-121839113D01*
X135674799Y-121736386D01*
X135690149Y-121679097D01*
X135705500Y-121621811D01*
X135705500Y-121503188D01*
X135705499Y-121503187D01*
X135694641Y-121462661D01*
X135692103Y-121453188D01*
X141154500Y-121453188D01*
X141154500Y-121571811D01*
X141185200Y-121686384D01*
X141185201Y-121686387D01*
X141214069Y-121736387D01*
X141244511Y-121789113D01*
X141328387Y-121872989D01*
X141431114Y-121932299D01*
X141459758Y-121939974D01*
X141545688Y-121963000D01*
X141545691Y-121963000D01*
X141664311Y-121963000D01*
X141721597Y-121947649D01*
X141778886Y-121932299D01*
X141881613Y-121872989D01*
X141965489Y-121789113D01*
X142024799Y-121686386D01*
X142042102Y-121621811D01*
X142055500Y-121571811D01*
X142055500Y-121453188D01*
X142024799Y-121338615D01*
X142024798Y-121338612D01*
X141965488Y-121235886D01*
X141881613Y-121152011D01*
X141778887Y-121092701D01*
X141778884Y-121092700D01*
X141664312Y-121062000D01*
X141664309Y-121062000D01*
X141545691Y-121062000D01*
X141545688Y-121062000D01*
X141431115Y-121092700D01*
X141431112Y-121092701D01*
X141328386Y-121152011D01*
X141328386Y-121152012D01*
X141244512Y-121235886D01*
X141244511Y-121235886D01*
X141185201Y-121338612D01*
X141185200Y-121338615D01*
X141154500Y-121453188D01*
X135692103Y-121453188D01*
X135674799Y-121388615D01*
X135674799Y-121388614D01*
X135615489Y-121285887D01*
X135531613Y-121202011D01*
X135428887Y-121142701D01*
X135428884Y-121142700D01*
X135314312Y-121112000D01*
X135314309Y-121112000D01*
X135195691Y-121112000D01*
X135195688Y-121112000D01*
X135081115Y-121142700D01*
X135081112Y-121142701D01*
X134978386Y-121202011D01*
X134978386Y-121202012D01*
X134894512Y-121285886D01*
X134894511Y-121285886D01*
X134835201Y-121388612D01*
X134835200Y-121388615D01*
X134804500Y-121503188D01*
X127200500Y-121503188D01*
X127200500Y-120590688D01*
X139117000Y-120590688D01*
X139117000Y-120709311D01*
X139147700Y-120823884D01*
X139147701Y-120823887D01*
X139207011Y-120926613D01*
X139290887Y-121010489D01*
X139393614Y-121069799D01*
X139422258Y-121077474D01*
X139508188Y-121100500D01*
X139508191Y-121100500D01*
X139626811Y-121100500D01*
X139684097Y-121085149D01*
X139741386Y-121069799D01*
X139844113Y-121010489D01*
X139927989Y-120926613D01*
X139987299Y-120823886D01*
X140002649Y-120766597D01*
X140018000Y-120709311D01*
X140018000Y-120590688D01*
X152082000Y-120590688D01*
X152082000Y-120709311D01*
X152112700Y-120823884D01*
X152112701Y-120823887D01*
X152172011Y-120926613D01*
X152255887Y-121010489D01*
X152358614Y-121069799D01*
X152387258Y-121077474D01*
X152473188Y-121100500D01*
X152473191Y-121100500D01*
X152591811Y-121100500D01*
X152649097Y-121085149D01*
X152706386Y-121069799D01*
X152809113Y-121010489D01*
X152892989Y-120926613D01*
X152952299Y-120823886D01*
X152967649Y-120766597D01*
X152983000Y-120709311D01*
X152983000Y-120590688D01*
X152952299Y-120476115D01*
X152952298Y-120476112D01*
X152892988Y-120373386D01*
X152809113Y-120289511D01*
X152706387Y-120230201D01*
X152706384Y-120230200D01*
X152591812Y-120199500D01*
X152591809Y-120199500D01*
X152473191Y-120199500D01*
X152473188Y-120199500D01*
X152358615Y-120230200D01*
X152358612Y-120230201D01*
X152255886Y-120289511D01*
X152255886Y-120289512D01*
X152172012Y-120373386D01*
X152172011Y-120373386D01*
X152112701Y-120476112D01*
X152112700Y-120476115D01*
X152082000Y-120590688D01*
X140018000Y-120590688D01*
X139987299Y-120476115D01*
X139987298Y-120476112D01*
X139927988Y-120373386D01*
X139844113Y-120289511D01*
X139741387Y-120230201D01*
X139741384Y-120230200D01*
X139626812Y-120199500D01*
X139626809Y-120199500D01*
X139508191Y-120199500D01*
X139508188Y-120199500D01*
X139393615Y-120230200D01*
X139393612Y-120230201D01*
X139290886Y-120289511D01*
X139290886Y-120289512D01*
X139207012Y-120373386D01*
X139207011Y-120373386D01*
X139147701Y-120476112D01*
X139147700Y-120476115D01*
X139117000Y-120590688D01*
X127200500Y-120590688D01*
X127200500Y-119728188D01*
X150044500Y-119728188D01*
X150044500Y-119846811D01*
X150075200Y-119961384D01*
X150075201Y-119961387D01*
X150105643Y-120014113D01*
X150134511Y-120064113D01*
X150218387Y-120147989D01*
X150321114Y-120207299D01*
X150349758Y-120214974D01*
X150435688Y-120238000D01*
X150435691Y-120238000D01*
X150554311Y-120238000D01*
X150611597Y-120222649D01*
X150668886Y-120207299D01*
X150771613Y-120147989D01*
X150855489Y-120064113D01*
X150914799Y-119961386D01*
X150930149Y-119904097D01*
X150945500Y-119846811D01*
X150945500Y-119728188D01*
X150914799Y-119613615D01*
X150914798Y-119613612D01*
X150855488Y-119510886D01*
X150771613Y-119427011D01*
X150668887Y-119367701D01*
X150668884Y-119367700D01*
X150554312Y-119337000D01*
X150554309Y-119337000D01*
X150435691Y-119337000D01*
X150435688Y-119337000D01*
X150321115Y-119367700D01*
X150321112Y-119367701D01*
X150218386Y-119427011D01*
X150218386Y-119427012D01*
X150134512Y-119510886D01*
X150134511Y-119510886D01*
X150075201Y-119613612D01*
X150075200Y-119613615D01*
X150044500Y-119728188D01*
X127200500Y-119728188D01*
X127200500Y-117397000D01*
X127214852Y-117362352D01*
X127249500Y-117348000D01*
X133731000Y-117348000D01*
X133731000Y-116145688D01*
X138842000Y-116145688D01*
X138842000Y-116264311D01*
X138872700Y-116378884D01*
X138872701Y-116378887D01*
X138932011Y-116481613D01*
X139015887Y-116565489D01*
X139118614Y-116624799D01*
X139147258Y-116632474D01*
X139233188Y-116655500D01*
X139233191Y-116655500D01*
X139351811Y-116655500D01*
X139409097Y-116640149D01*
X139466386Y-116624799D01*
X139569113Y-116565489D01*
X139652989Y-116481613D01*
X139712299Y-116378886D01*
X139738958Y-116279394D01*
X139743000Y-116264311D01*
X139743000Y-116145688D01*
X139712299Y-116031115D01*
X139712298Y-116031112D01*
X139664993Y-115949179D01*
X139652989Y-115928387D01*
X139569113Y-115844511D01*
X139466387Y-115785201D01*
X139466384Y-115785200D01*
X139351812Y-115754500D01*
X139351809Y-115754500D01*
X139233191Y-115754500D01*
X139233188Y-115754500D01*
X139118615Y-115785200D01*
X139118612Y-115785201D01*
X139015886Y-115844511D01*
X139015886Y-115844512D01*
X138932012Y-115928386D01*
X138932011Y-115928386D01*
X138872701Y-116031112D01*
X138872700Y-116031115D01*
X138842000Y-116145688D01*
X133731000Y-116145688D01*
X133731000Y-115490939D01*
X141639500Y-115490939D01*
X141639500Y-115649060D01*
X141680422Y-115801782D01*
X141680423Y-115801786D01*
X141759475Y-115938709D01*
X141759478Y-115938713D01*
X141759480Y-115938716D01*
X141871284Y-116050520D01*
X141871287Y-116050521D01*
X141871290Y-116050524D01*
X142008213Y-116129576D01*
X142008215Y-116129576D01*
X142008216Y-116129577D01*
X142128665Y-116161851D01*
X142160939Y-116170499D01*
X142160940Y-116170500D01*
X142160943Y-116170500D01*
X142319060Y-116170500D01*
X142319060Y-116170499D01*
X142471784Y-116129577D01*
X142608716Y-116050520D01*
X142720520Y-115938716D01*
X142799577Y-115801784D01*
X142840499Y-115649060D01*
X142840500Y-115649060D01*
X142840500Y-115490940D01*
X142840499Y-115490939D01*
X142799577Y-115338217D01*
X142799576Y-115338213D01*
X142720524Y-115201290D01*
X142720521Y-115201287D01*
X142720520Y-115201284D01*
X142608716Y-115089480D01*
X142608713Y-115089478D01*
X142608709Y-115089475D01*
X142471786Y-115010423D01*
X142471782Y-115010422D01*
X142319060Y-114969500D01*
X142319057Y-114969500D01*
X142160943Y-114969500D01*
X142160940Y-114969500D01*
X142008217Y-115010422D01*
X142008213Y-115010423D01*
X141871290Y-115089475D01*
X141871281Y-115089482D01*
X141759482Y-115201281D01*
X141759475Y-115201290D01*
X141680423Y-115338213D01*
X141680422Y-115338217D01*
X141639500Y-115490939D01*
X133731000Y-115490939D01*
X133731000Y-108025688D01*
X138284500Y-108025688D01*
X138284500Y-108144311D01*
X138315200Y-108258884D01*
X138315201Y-108258887D01*
X138374511Y-108361613D01*
X138458387Y-108445489D01*
X138561114Y-108504799D01*
X138589758Y-108512474D01*
X138675688Y-108535500D01*
X138675691Y-108535500D01*
X138794311Y-108535500D01*
X138851597Y-108520149D01*
X138908886Y-108504799D01*
X139011613Y-108445489D01*
X139095489Y-108361613D01*
X139154799Y-108258886D01*
X139179902Y-108165201D01*
X139185500Y-108144311D01*
X139185500Y-108025688D01*
X139154799Y-107911115D01*
X139154798Y-107911112D01*
X139095488Y-107808386D01*
X139011613Y-107724511D01*
X138908887Y-107665201D01*
X138908884Y-107665200D01*
X138794312Y-107634500D01*
X138794309Y-107634500D01*
X138675691Y-107634500D01*
X138675688Y-107634500D01*
X138561115Y-107665200D01*
X138561112Y-107665201D01*
X138458386Y-107724511D01*
X138458386Y-107724512D01*
X138374512Y-107808386D01*
X138374511Y-107808386D01*
X138315201Y-107911112D01*
X138315200Y-107911115D01*
X138284500Y-108025688D01*
X133731000Y-108025688D01*
X133731000Y-106620688D01*
X138434500Y-106620688D01*
X138434500Y-106739311D01*
X138465200Y-106853884D01*
X138465201Y-106853887D01*
X138523297Y-106954511D01*
X138524511Y-106956613D01*
X138608387Y-107040489D01*
X138711114Y-107099799D01*
X138739758Y-107107474D01*
X138825688Y-107130500D01*
X138825691Y-107130500D01*
X138944311Y-107130500D01*
X139001597Y-107115149D01*
X139058886Y-107099799D01*
X139161613Y-107040489D01*
X139245489Y-106956613D01*
X139304799Y-106853886D01*
X139329902Y-106760201D01*
X139335500Y-106739311D01*
X139335500Y-106620688D01*
X139304799Y-106506115D01*
X139304798Y-106506112D01*
X139245488Y-106403386D01*
X139161613Y-106319511D01*
X139058887Y-106260201D01*
X139058884Y-106260200D01*
X138944312Y-106229500D01*
X138944309Y-106229500D01*
X138825691Y-106229500D01*
X138825688Y-106229500D01*
X138711115Y-106260200D01*
X138711112Y-106260201D01*
X138608386Y-106319511D01*
X138608386Y-106319512D01*
X138524512Y-106403386D01*
X138524511Y-106403386D01*
X138465201Y-106506112D01*
X138465200Y-106506115D01*
X138434500Y-106620688D01*
X133731000Y-106620688D01*
X133731000Y-105586000D01*
X133745352Y-105551352D01*
X133780000Y-105537000D01*
X139397000Y-105537000D01*
X139431648Y-105551352D01*
G37*
G04 #@! TD.AperFunction*
M02*
