M48
; DRILL file {KiCad 9.0.0} date 2025-03-07T13:22:50-0600
; FORMAT={-:-/ absolute / metric / decimal}
; #@! TF.CreationDate,2025-03-07T13:22:50-06:00
; #@! TF.GenerationSoftware,Kicad,Pcbnew,9.0.0
; #@! TF.FileFunction,Plated,1,4,PTH
FMAT,2
METRIC
; #@! TA.AperFunction,Plated,PTH,ViaDrill
T1C0.300
; #@! TA.AperFunction,Plated,PTH,ComponentDrill
T2C0.500
; #@! TA.AperFunction,Plated,PTH,ComponentDrill
T3C0.700
; #@! TA.AperFunction,Plated,PTH,ComponentDrill
T4C0.800
; #@! TA.AperFunction,Plated,PTH,ComponentDrill
T5C1.000
; #@! TA.AperFunction,Plated,PTH,ComponentDrill
T6C2.200
%
G90
G05
T1
X128.905Y-122.165
X134.898Y-95.885
X134.922Y-98.11
X135.255Y-121.562
X137.16Y-106.68
X137.292Y-120.65
X137.31Y-109.085
X137.517Y-123.825
X137.567Y-116.205
X138.735Y-108.085
X138.885Y-106.68
X139.292Y-116.205
X139.567Y-120.65
X140.107Y-92.075
X140.4Y-95.25
X141.605Y-121.512
X141.832Y-92.075
X143.83Y-109.552
X143.868Y-107.315
X143.917Y-92.075
X143.938Y-86.035
X143.938Y-87.335
X145.188Y-83.185
X145.35Y-95.25
X145.642Y-92.075
X146.912Y-83.185
X148.162Y-85.385
X148.162Y-86.685
X149.225Y-109.578
X149.582Y-127.0
X150.495Y-119.787
X150.495Y-121.512
X150.92Y-129.535
X152.532Y-120.65
X152.532Y-121.6
X152.757Y-123.825
X154.077Y-108.585
X154.227Y-107.18
X154.808Y-119.7
X154.808Y-120.65
X154.832Y-115.57
X155.653Y-106.18
X155.802Y-108.585
X156.42Y-129.535
X156.845Y-119.787
X156.845Y-121.512
X157.177Y-100.01
X157.202Y-95.885
X157.757Y-127.0
X158.75Y-119.737
T2
X133.35Y-125.73
X137.16Y-86.36
X137.16Y-91.44
X142.24Y-115.57
X149.86Y-91.44
X154.94Y-86.36
X154.94Y-91.44
X162.56Y-121.92
T3
X129.54Y-133.35
X130.81Y-83.82
X130.81Y-86.36
X130.81Y-88.9
X130.81Y-91.44
X130.81Y-105.41
X130.81Y-107.95
X130.81Y-113.03
X130.81Y-115.57
X132.08Y-133.35
X149.13Y-97.06
X149.13Y-99.06
X149.13Y-101.06
X151.13Y-97.06
X151.13Y-99.06
X151.13Y-101.06
X161.29Y-83.82
X161.29Y-86.36
X161.29Y-88.9
X161.29Y-91.44
X161.29Y-105.41
X161.29Y-107.95
X161.29Y-113.03
X161.29Y-115.57
T4
X144.05Y-125.73
X146.05Y-125.73
T5
X136.27Y-132.715
X140.97Y-132.715
X145.67Y-132.715
T6
X129.54Y-78.74
X162.56Y-78.74
X162.56Y-134.62
T2
X149.35Y-129.365G85X149.35Y-130.065
G05
X149.35Y-133.165G85X149.35Y-133.865
G05
X157.99Y-129.365G85X157.99Y-130.065
G05
X157.99Y-133.165G85X157.99Y-133.865
G05
M30
