G04 #@! TF.GenerationSoftware,KiCad,Pcbnew,9.0.0*
G04 #@! TF.CreationDate,2025-03-07T15:22:54-06:00*
G04 #@! TF.ProjectId,robo-roach-v1.0,726f626f-2d72-46f6-9163-682d76312e30,rev?*
G04 #@! TF.SameCoordinates,Original*
G04 #@! TF.FileFunction,Copper,L2,Inr*
G04 #@! TF.FilePolarity,Positive*
%FSLAX46Y46*%
G04 Gerber Fmt 4.6, Leading zero omitted, Abs format (unit mm)*
G04 Created by KiCad (PCBNEW 9.0.0) date 2025-03-07 15:22:54*
%MOMM*%
%LPD*%
G01*
G04 APERTURE LIST*
G04 #@! TA.AperFunction,ComponentPad*
%ADD10R,1.400000X1.400000*%
G04 #@! TD*
G04 #@! TA.AperFunction,ComponentPad*
%ADD11C,1.400000*%
G04 #@! TD*
G04 #@! TA.AperFunction,ComponentPad*
%ADD12C,1.000000*%
G04 #@! TD*
G04 #@! TA.AperFunction,HeatsinkPad*
%ADD13O,1.000000X1.700000*%
G04 #@! TD*
G04 #@! TA.AperFunction,ComponentPad*
%ADD14R,1.600000X1.600000*%
G04 #@! TD*
G04 #@! TA.AperFunction,ComponentPad*
%ADD15C,1.600000*%
G04 #@! TD*
G04 #@! TA.AperFunction,ComponentPad*
%ADD16C,3.800000*%
G04 #@! TD*
G04 #@! TA.AperFunction,ComponentPad*
%ADD17C,1.700000*%
G04 #@! TD*
G04 #@! TA.AperFunction,ViaPad*
%ADD18C,0.400000*%
G04 #@! TD*
G04 APERTURE END LIST*
D10*
X130810000Y-91440000D03*
D11*
X130810000Y-88900000D03*
X130810000Y-86360000D03*
X130810000Y-83820000D03*
D12*
X154940000Y-86360000D03*
D10*
X132080000Y-133350000D03*
D11*
X129540000Y-133350000D03*
D13*
X149350000Y-129715000D03*
X149350000Y-133515000D03*
X157990000Y-129715000D03*
X157990000Y-133515000D03*
D10*
X130810000Y-113030000D03*
D11*
X130810000Y-115570000D03*
D12*
X137160000Y-91440000D03*
D10*
X161290000Y-91440000D03*
D11*
X161290000Y-88900000D03*
X161290000Y-86360000D03*
X161290000Y-83820000D03*
D12*
X162560000Y-121920000D03*
D14*
X146050000Y-125730000D03*
D15*
X144050000Y-125730000D03*
D16*
X162560000Y-134620000D03*
D10*
X151130000Y-97060000D03*
D11*
X151130000Y-99060000D03*
X151130000Y-101060000D03*
X149130000Y-97060000D03*
X149130000Y-99060000D03*
X149130000Y-101060000D03*
D16*
X162560000Y-78740000D03*
D10*
X161290000Y-105410000D03*
D11*
X161290000Y-107950000D03*
D12*
X149860000Y-91440000D03*
D17*
X136270000Y-132715000D03*
X140970000Y-132715000D03*
X145670000Y-132715000D03*
D12*
X133350000Y-125730000D03*
D16*
X129540000Y-78740000D03*
D12*
X154940000Y-91440000D03*
X137160000Y-86360000D03*
D10*
X161290000Y-113030000D03*
D11*
X161290000Y-115570000D03*
D12*
X142240000Y-115570000D03*
D10*
X130810000Y-107950000D03*
D11*
X130810000Y-105410000D03*
D18*
X158750000Y-119737500D03*
X145187500Y-83185000D03*
X137160000Y-106680000D03*
X154807500Y-120650000D03*
X150495000Y-121512500D03*
X155652500Y-106180000D03*
X149225000Y-109577500D03*
X137300000Y-109855000D03*
X155802500Y-108585000D03*
X153670000Y-81280000D03*
X145642500Y-92075000D03*
X154832500Y-118300000D03*
X137567500Y-116205000D03*
X143830000Y-109552500D03*
X154832500Y-118900000D03*
X137292500Y-120650000D03*
X152500000Y-122600000D03*
X128905000Y-122165000D03*
X139900000Y-106700000D03*
X156718000Y-105410000D03*
X129540000Y-127000000D03*
X149600000Y-118600000D03*
X154077500Y-108585000D03*
X153670000Y-127000000D03*
X153100000Y-108600000D03*
X143867500Y-107315000D03*
X139567500Y-120650000D03*
X148162500Y-85385000D03*
X140970000Y-111760000D03*
X156420000Y-129535000D03*
X138885000Y-106680000D03*
X140970000Y-88900000D03*
X153670000Y-134620000D03*
X140970000Y-134620000D03*
X149582500Y-127000000D03*
X139900000Y-108077000D03*
X143937500Y-86035000D03*
X146912500Y-83185000D03*
X152757500Y-123825000D03*
X137517500Y-123825000D03*
X152532500Y-120650000D03*
X152532500Y-121600000D03*
X134922500Y-98110000D03*
X139292500Y-116205000D03*
X141832500Y-92075000D03*
X151500000Y-122600000D03*
X137310000Y-109085000D03*
X140970000Y-127000000D03*
X155702000Y-105400000D03*
X150920000Y-129535000D03*
X140107500Y-92075000D03*
X150495000Y-119787500D03*
X153670000Y-88900000D03*
X153670000Y-111760000D03*
X135255000Y-121562500D03*
X140400000Y-95250000D03*
X136271000Y-109855000D03*
X134897500Y-95885000D03*
X154832500Y-117100000D03*
X151400000Y-118600000D03*
X143937500Y-87335000D03*
X153670000Y-104140000D03*
X156845000Y-119787500D03*
X156845000Y-121512500D03*
X143917500Y-92075000D03*
X153100000Y-107200000D03*
X154832500Y-117700000D03*
X150500000Y-118600000D03*
X145350000Y-95250000D03*
X157177500Y-100010000D03*
X141605000Y-121512500D03*
X153670000Y-96520000D03*
X150500000Y-122600000D03*
X148162500Y-86685000D03*
X154227500Y-107180000D03*
X162538288Y-127000000D03*
X138735000Y-108085000D03*
X157757500Y-127000000D03*
X157202500Y-95885000D03*
X140970000Y-81280000D03*
G04 #@! TA.AperFunction,Conductor*
G36*
X161410344Y-76420185D02*
G01*
X161456099Y-76472989D01*
X161466043Y-76542147D01*
X161437018Y-76605703D01*
X161400027Y-76633988D01*
X161400293Y-76634469D01*
X161397250Y-76636150D01*
X161169001Y-76779568D01*
X161048899Y-76875345D01*
X161977263Y-77803709D01*
X161843398Y-77900967D01*
X161720967Y-78023398D01*
X161623709Y-78157262D01*
X160695345Y-77228899D01*
X160599568Y-77349001D01*
X160456152Y-77577247D01*
X160339198Y-77820104D01*
X160339192Y-77820118D01*
X160250167Y-78074536D01*
X160250163Y-78074548D01*
X160190181Y-78337348D01*
X160190178Y-78337366D01*
X160160000Y-78605212D01*
X160160000Y-78874787D01*
X160190178Y-79142633D01*
X160190181Y-79142651D01*
X160250163Y-79405451D01*
X160250167Y-79405463D01*
X160339192Y-79659881D01*
X160339198Y-79659895D01*
X160456152Y-79902752D01*
X160599568Y-80130998D01*
X160695346Y-80251099D01*
X161623708Y-79322736D01*
X161720967Y-79456602D01*
X161843398Y-79579033D01*
X161977262Y-79676290D01*
X161048899Y-80604652D01*
X161048900Y-80604653D01*
X161168993Y-80700427D01*
X161168997Y-80700429D01*
X161397247Y-80843847D01*
X161640104Y-80960801D01*
X161640118Y-80960807D01*
X161894536Y-81049832D01*
X161894548Y-81049836D01*
X162157348Y-81109818D01*
X162157366Y-81109821D01*
X162425212Y-81139999D01*
X162425216Y-81140000D01*
X162694784Y-81140000D01*
X162694787Y-81139999D01*
X162962633Y-81109821D01*
X162962651Y-81109818D01*
X163225451Y-81049836D01*
X163225463Y-81049832D01*
X163479881Y-80960807D01*
X163479895Y-80960801D01*
X163722752Y-80843847D01*
X163950999Y-80700431D01*
X164071098Y-80604653D01*
X164071099Y-80604652D01*
X163142737Y-79676290D01*
X163276602Y-79579033D01*
X163399033Y-79456602D01*
X163496290Y-79322737D01*
X164424652Y-80251099D01*
X164424653Y-80251098D01*
X164520431Y-80130999D01*
X164663849Y-79902749D01*
X164665531Y-79899707D01*
X164666283Y-79900123D01*
X164710594Y-79851038D01*
X164778020Y-79832720D01*
X164844646Y-79853763D01*
X164889318Y-79907485D01*
X164899500Y-79956694D01*
X164899500Y-133403305D01*
X164879815Y-133470344D01*
X164827011Y-133516099D01*
X164757853Y-133526043D01*
X164694297Y-133497018D01*
X164666011Y-133460027D01*
X164665531Y-133460293D01*
X164663849Y-133457250D01*
X164520429Y-133228997D01*
X164520427Y-133228993D01*
X164424653Y-133108900D01*
X164424652Y-133108899D01*
X163496290Y-134037262D01*
X163399033Y-133903398D01*
X163276602Y-133780967D01*
X163142736Y-133683709D01*
X164071099Y-132755346D01*
X163950998Y-132659568D01*
X163722752Y-132516152D01*
X163479895Y-132399198D01*
X163479881Y-132399192D01*
X163225463Y-132310167D01*
X163225451Y-132310163D01*
X162962651Y-132250181D01*
X162962633Y-132250178D01*
X162694787Y-132220000D01*
X162425212Y-132220000D01*
X162157366Y-132250178D01*
X162157348Y-132250181D01*
X161894548Y-132310163D01*
X161894536Y-132310167D01*
X161640118Y-132399192D01*
X161640104Y-132399198D01*
X161397247Y-132516152D01*
X161169001Y-132659568D01*
X161048899Y-132755345D01*
X161977263Y-133683709D01*
X161843398Y-133780967D01*
X161720967Y-133903398D01*
X161623709Y-134037262D01*
X160695345Y-133108899D01*
X160599568Y-133229001D01*
X160456152Y-133457247D01*
X160339198Y-133700104D01*
X160339192Y-133700118D01*
X160250167Y-133954536D01*
X160250163Y-133954548D01*
X160190181Y-134217348D01*
X160190178Y-134217366D01*
X160160000Y-134485212D01*
X160160000Y-134754787D01*
X160190178Y-135022633D01*
X160190181Y-135022651D01*
X160250163Y-135285451D01*
X160250167Y-135285463D01*
X160339192Y-135539881D01*
X160339198Y-135539895D01*
X160456152Y-135782752D01*
X160599568Y-136010998D01*
X160695346Y-136131099D01*
X161623708Y-135202736D01*
X161720967Y-135336602D01*
X161843398Y-135459033D01*
X161977262Y-135556290D01*
X161048899Y-136484652D01*
X161048900Y-136484653D01*
X161168993Y-136580427D01*
X161168997Y-136580429D01*
X161397250Y-136723849D01*
X161400293Y-136725531D01*
X161399878Y-136726280D01*
X161448970Y-136770608D01*
X161467279Y-136838036D01*
X161446227Y-136904659D01*
X161392499Y-136949324D01*
X161343305Y-136959500D01*
X129204067Y-136959500D01*
X129195957Y-136959235D01*
X128947116Y-136942925D01*
X128931035Y-136940807D01*
X128690464Y-136892954D01*
X128674797Y-136888756D01*
X128442520Y-136809909D01*
X128427534Y-136803702D01*
X128207539Y-136695212D01*
X128193492Y-136687102D01*
X127989539Y-136550825D01*
X127976671Y-136540951D01*
X127912475Y-136484653D01*
X127792250Y-136379218D01*
X127780781Y-136367749D01*
X127619048Y-136183328D01*
X127609174Y-136170460D01*
X127472897Y-135966507D01*
X127464787Y-135952460D01*
X127381096Y-135782752D01*
X127356294Y-135732458D01*
X127350090Y-135717479D01*
X127271243Y-135485202D01*
X127267045Y-135469535D01*
X127240603Y-135336602D01*
X127219190Y-135228953D01*
X127217075Y-135212895D01*
X127200765Y-134964043D01*
X127200500Y-134955933D01*
X127200500Y-134357882D01*
X128885669Y-134357882D01*
X128885670Y-134357883D01*
X128911059Y-134376329D01*
X129079362Y-134462085D01*
X129258997Y-134520451D01*
X129445553Y-134550000D01*
X129634447Y-134550000D01*
X129821002Y-134520451D01*
X130000637Y-134462085D01*
X130168937Y-134376331D01*
X130194328Y-134357883D01*
X130194328Y-134357882D01*
X129540001Y-133703554D01*
X129540000Y-133703554D01*
X128885669Y-134357882D01*
X127200500Y-134357882D01*
X127200500Y-133255552D01*
X128340000Y-133255552D01*
X128340000Y-133444447D01*
X128369548Y-133631002D01*
X128427914Y-133810637D01*
X128513666Y-133978933D01*
X128532116Y-134004328D01*
X129186446Y-133350000D01*
X129186446Y-133349999D01*
X129140369Y-133303922D01*
X129190000Y-133303922D01*
X129190000Y-133396078D01*
X129213852Y-133485095D01*
X129259930Y-133564905D01*
X129325095Y-133630070D01*
X129404905Y-133676148D01*
X129493922Y-133700000D01*
X129586078Y-133700000D01*
X129675095Y-133676148D01*
X129754905Y-133630070D01*
X129820070Y-133564905D01*
X129866148Y-133485095D01*
X129890000Y-133396078D01*
X129890000Y-133349999D01*
X129893554Y-133349999D01*
X129893554Y-133350000D01*
X130547882Y-134004328D01*
X130547883Y-134004328D01*
X130566331Y-133978937D01*
X130645015Y-133824512D01*
X130692989Y-133773716D01*
X130760810Y-133756921D01*
X130826945Y-133779458D01*
X130870397Y-133834173D01*
X130879500Y-133880806D01*
X130879500Y-134097869D01*
X130879501Y-134097876D01*
X130885908Y-134157483D01*
X130936202Y-134292328D01*
X130936206Y-134292335D01*
X131022452Y-134407544D01*
X131022455Y-134407547D01*
X131137664Y-134493793D01*
X131137671Y-134493797D01*
X131272517Y-134544091D01*
X131272516Y-134544091D01*
X131279444Y-134544835D01*
X131332127Y-134550500D01*
X132827872Y-134550499D01*
X132887483Y-134544091D01*
X133022331Y-134493796D01*
X133137546Y-134407546D01*
X133223796Y-134292331D01*
X133274091Y-134157483D01*
X133280500Y-134097873D01*
X133280499Y-132608713D01*
X134919500Y-132608713D01*
X134919500Y-132821286D01*
X134947805Y-133000000D01*
X134952754Y-133031243D01*
X135017008Y-133228997D01*
X135018444Y-133233414D01*
X135114951Y-133422820D01*
X135239890Y-133594786D01*
X135390213Y-133745109D01*
X135562179Y-133870048D01*
X135562181Y-133870049D01*
X135562184Y-133870051D01*
X135751588Y-133966557D01*
X135953757Y-134032246D01*
X136163713Y-134065500D01*
X136163714Y-134065500D01*
X136376286Y-134065500D01*
X136376287Y-134065500D01*
X136586243Y-134032246D01*
X136788412Y-133966557D01*
X136977816Y-133870051D01*
X137027198Y-133834173D01*
X137149786Y-133745109D01*
X137149788Y-133745106D01*
X137149792Y-133745104D01*
X137300104Y-133594792D01*
X137300106Y-133594788D01*
X137300109Y-133594786D01*
X137425048Y-133422820D01*
X137425047Y-133422820D01*
X137425051Y-133422816D01*
X137521557Y-133233412D01*
X137587246Y-133031243D01*
X137620500Y-132821287D01*
X137620500Y-132608713D01*
X139619500Y-132608713D01*
X139619500Y-132821286D01*
X139647805Y-133000000D01*
X139652754Y-133031243D01*
X139717008Y-133228997D01*
X139718444Y-133233414D01*
X139814951Y-133422820D01*
X139939890Y-133594786D01*
X140090213Y-133745109D01*
X140262179Y-133870048D01*
X140262181Y-133870049D01*
X140262184Y-133870051D01*
X140451588Y-133966557D01*
X140653757Y-134032246D01*
X140863713Y-134065500D01*
X140863714Y-134065500D01*
X141076286Y-134065500D01*
X141076287Y-134065500D01*
X141286243Y-134032246D01*
X141488412Y-133966557D01*
X141677816Y-133870051D01*
X141727198Y-133834173D01*
X141849786Y-133745109D01*
X141849788Y-133745106D01*
X141849792Y-133745104D01*
X142000104Y-133594792D01*
X142000106Y-133594788D01*
X142000109Y-133594786D01*
X142125048Y-133422820D01*
X142125047Y-133422820D01*
X142125051Y-133422816D01*
X142221557Y-133233412D01*
X142287246Y-133031243D01*
X142320500Y-132821287D01*
X142320500Y-132608713D01*
X144319500Y-132608713D01*
X144319500Y-132821286D01*
X144347805Y-133000000D01*
X144352754Y-133031243D01*
X144417008Y-133228997D01*
X144418444Y-133233414D01*
X144514951Y-133422820D01*
X144639890Y-133594786D01*
X144790213Y-133745109D01*
X144962179Y-133870048D01*
X144962181Y-133870049D01*
X144962184Y-133870051D01*
X145151588Y-133966557D01*
X145353757Y-134032246D01*
X145563713Y-134065500D01*
X145563714Y-134065500D01*
X145776286Y-134065500D01*
X145776287Y-134065500D01*
X145986243Y-134032246D01*
X146188412Y-133966557D01*
X146194327Y-133963543D01*
X148349499Y-133963543D01*
X148387947Y-134156829D01*
X148387950Y-134156839D01*
X148463364Y-134338907D01*
X148463371Y-134338920D01*
X148572860Y-134502781D01*
X148572863Y-134502785D01*
X148712214Y-134642136D01*
X148712218Y-134642139D01*
X148876079Y-134751628D01*
X148876092Y-134751635D01*
X149058160Y-134827049D01*
X149058165Y-134827051D01*
X149058169Y-134827051D01*
X149058170Y-134827052D01*
X149251456Y-134865500D01*
X149251459Y-134865500D01*
X149448543Y-134865500D01*
X149578582Y-134839632D01*
X149641835Y-134827051D01*
X149823914Y-134751632D01*
X149987782Y-134642139D01*
X150127139Y-134502782D01*
X150236632Y-134338914D01*
X150312051Y-134156835D01*
X150347438Y-133978937D01*
X150350500Y-133963543D01*
X156989499Y-133963543D01*
X157027947Y-134156829D01*
X157027950Y-134156839D01*
X157103364Y-134338907D01*
X157103371Y-134338920D01*
X157212860Y-134502781D01*
X157212863Y-134502785D01*
X157352214Y-134642136D01*
X157352218Y-134642139D01*
X157516079Y-134751628D01*
X157516092Y-134751635D01*
X157698160Y-134827049D01*
X157698165Y-134827051D01*
X157698169Y-134827051D01*
X157698170Y-134827052D01*
X157891456Y-134865500D01*
X157891459Y-134865500D01*
X158088543Y-134865500D01*
X158218582Y-134839632D01*
X158281835Y-134827051D01*
X158463914Y-134751632D01*
X158627782Y-134642139D01*
X158767139Y-134502782D01*
X158795575Y-134460223D01*
X158827231Y-134412849D01*
X158876628Y-134338920D01*
X158876628Y-134338919D01*
X158876632Y-134338914D01*
X158952051Y-134156835D01*
X158987438Y-133978937D01*
X158990500Y-133963543D01*
X158990500Y-133066456D01*
X158952052Y-132873170D01*
X158952051Y-132873169D01*
X158952051Y-132873165D01*
X158878531Y-132695670D01*
X158876635Y-132691092D01*
X158876628Y-132691079D01*
X158767139Y-132527218D01*
X158767136Y-132527214D01*
X158627785Y-132387863D01*
X158627781Y-132387860D01*
X158463920Y-132278371D01*
X158463907Y-132278364D01*
X158281839Y-132202950D01*
X158281829Y-132202947D01*
X158088543Y-132164500D01*
X158088541Y-132164500D01*
X157891459Y-132164500D01*
X157891457Y-132164500D01*
X157698170Y-132202947D01*
X157698160Y-132202950D01*
X157516092Y-132278364D01*
X157516079Y-132278371D01*
X157352218Y-132387860D01*
X157352214Y-132387863D01*
X157212863Y-132527214D01*
X157212860Y-132527218D01*
X157103371Y-132691079D01*
X157103364Y-132691092D01*
X157027950Y-132873160D01*
X157027947Y-132873170D01*
X156989500Y-133066456D01*
X156989500Y-133066459D01*
X156989500Y-133963541D01*
X156989500Y-133963543D01*
X156989499Y-133963543D01*
X150350500Y-133963543D01*
X150350500Y-133066456D01*
X150312052Y-132873170D01*
X150312051Y-132873169D01*
X150312051Y-132873165D01*
X150290562Y-132821286D01*
X150236635Y-132691092D01*
X150236628Y-132691079D01*
X150127139Y-132527218D01*
X150127136Y-132527214D01*
X149987785Y-132387863D01*
X149987781Y-132387860D01*
X149823920Y-132278371D01*
X149823907Y-132278364D01*
X149641839Y-132202950D01*
X149641829Y-132202947D01*
X149448543Y-132164500D01*
X149448541Y-132164500D01*
X149251459Y-132164500D01*
X149251457Y-132164500D01*
X149058170Y-132202947D01*
X149058160Y-132202950D01*
X148876092Y-132278364D01*
X148876079Y-132278371D01*
X148712218Y-132387860D01*
X148712214Y-132387863D01*
X148572863Y-132527214D01*
X148572860Y-132527218D01*
X148463371Y-132691079D01*
X148463364Y-132691092D01*
X148387950Y-132873160D01*
X148387947Y-132873170D01*
X148349500Y-133066456D01*
X148349500Y-133066459D01*
X148349500Y-133963541D01*
X148349500Y-133963543D01*
X148349499Y-133963543D01*
X146194327Y-133963543D01*
X146377816Y-133870051D01*
X146427198Y-133834173D01*
X146549786Y-133745109D01*
X146549788Y-133745106D01*
X146549792Y-133745104D01*
X146700104Y-133594792D01*
X146700106Y-133594788D01*
X146700109Y-133594786D01*
X146825048Y-133422820D01*
X146825047Y-133422820D01*
X146825051Y-133422816D01*
X146921557Y-133233412D01*
X146987246Y-133031243D01*
X147020500Y-132821287D01*
X147020500Y-132608713D01*
X146987246Y-132398757D01*
X146921557Y-132196588D01*
X146825051Y-132007184D01*
X146825049Y-132007181D01*
X146825048Y-132007179D01*
X146700109Y-131835213D01*
X146549786Y-131684890D01*
X146377820Y-131559951D01*
X146188414Y-131463444D01*
X146188413Y-131463443D01*
X146188412Y-131463443D01*
X145986243Y-131397754D01*
X145986241Y-131397753D01*
X145986240Y-131397753D01*
X145824957Y-131372208D01*
X145776287Y-131364500D01*
X145563713Y-131364500D01*
X145515042Y-131372208D01*
X145353760Y-131397753D01*
X145151585Y-131463444D01*
X144962179Y-131559951D01*
X144790213Y-131684890D01*
X144639890Y-131835213D01*
X144514951Y-132007179D01*
X144418444Y-132196585D01*
X144418443Y-132196587D01*
X144418443Y-132196588D01*
X144391872Y-132278364D01*
X144352753Y-132398760D01*
X144319500Y-132608713D01*
X142320500Y-132608713D01*
X142287246Y-132398757D01*
X142221557Y-132196588D01*
X142125051Y-132007184D01*
X142125049Y-132007181D01*
X142125048Y-132007179D01*
X142000109Y-131835213D01*
X141849786Y-131684890D01*
X141677820Y-131559951D01*
X141488414Y-131463444D01*
X141488413Y-131463443D01*
X141488412Y-131463443D01*
X141286243Y-131397754D01*
X141286241Y-131397753D01*
X141286240Y-131397753D01*
X141124957Y-131372208D01*
X141076287Y-131364500D01*
X140863713Y-131364500D01*
X140815042Y-131372208D01*
X140653760Y-131397753D01*
X140451585Y-131463444D01*
X140262179Y-131559951D01*
X140090213Y-131684890D01*
X139939890Y-131835213D01*
X139814951Y-132007179D01*
X139718444Y-132196585D01*
X139718443Y-132196587D01*
X139718443Y-132196588D01*
X139691872Y-132278364D01*
X139652753Y-132398760D01*
X139619500Y-132608713D01*
X137620500Y-132608713D01*
X137587246Y-132398757D01*
X137521557Y-132196588D01*
X137425051Y-132007184D01*
X137425049Y-132007181D01*
X137425048Y-132007179D01*
X137300109Y-131835213D01*
X137149786Y-131684890D01*
X136977820Y-131559951D01*
X136788414Y-131463444D01*
X136788413Y-131463443D01*
X136788412Y-131463443D01*
X136586243Y-131397754D01*
X136586241Y-131397753D01*
X136586240Y-131397753D01*
X136424957Y-131372208D01*
X136376287Y-131364500D01*
X136163713Y-131364500D01*
X136115042Y-131372208D01*
X135953760Y-131397753D01*
X135751585Y-131463444D01*
X135562179Y-131559951D01*
X135390213Y-131684890D01*
X135239890Y-131835213D01*
X135114951Y-132007179D01*
X135018444Y-132196585D01*
X135018443Y-132196587D01*
X135018443Y-132196588D01*
X134991872Y-132278364D01*
X134952753Y-132398760D01*
X134919500Y-132608713D01*
X133280499Y-132608713D01*
X133280499Y-132602128D01*
X133274091Y-132542517D01*
X133268383Y-132527214D01*
X133223797Y-132407671D01*
X133223793Y-132407664D01*
X133137547Y-132292455D01*
X133137544Y-132292452D01*
X133022335Y-132206206D01*
X133022328Y-132206202D01*
X132887482Y-132155908D01*
X132887483Y-132155908D01*
X132827883Y-132149501D01*
X132827881Y-132149500D01*
X132827873Y-132149500D01*
X132827864Y-132149500D01*
X131332129Y-132149500D01*
X131332123Y-132149501D01*
X131272516Y-132155908D01*
X131137671Y-132206202D01*
X131137664Y-132206206D01*
X131022455Y-132292452D01*
X131022452Y-132292455D01*
X130936206Y-132407664D01*
X130936202Y-132407671D01*
X130885908Y-132542517D01*
X130879501Y-132602116D01*
X130879501Y-132602123D01*
X130879500Y-132602135D01*
X130879500Y-132819191D01*
X130859815Y-132886230D01*
X130807011Y-132931985D01*
X130737853Y-132941929D01*
X130674297Y-132912904D01*
X130645015Y-132875486D01*
X130566329Y-132721059D01*
X130547883Y-132695670D01*
X130547882Y-132695669D01*
X129893554Y-133349999D01*
X129890000Y-133349999D01*
X129890000Y-133303922D01*
X129866148Y-133214905D01*
X129820070Y-133135095D01*
X129754905Y-133069930D01*
X129675095Y-133023852D01*
X129586078Y-133000000D01*
X129493922Y-133000000D01*
X129404905Y-133023852D01*
X129325095Y-133069930D01*
X129259930Y-133135095D01*
X129213852Y-133214905D01*
X129190000Y-133303922D01*
X129140369Y-133303922D01*
X128532116Y-132695669D01*
X128532116Y-132695670D01*
X128513669Y-132721060D01*
X128427914Y-132889362D01*
X128369548Y-133068997D01*
X128340000Y-133255552D01*
X127200500Y-133255552D01*
X127200500Y-132342116D01*
X128885669Y-132342116D01*
X129540000Y-132996446D01*
X129540001Y-132996446D01*
X130194328Y-132342116D01*
X130168933Y-132323666D01*
X130000637Y-132237914D01*
X129821002Y-132179548D01*
X129634447Y-132150000D01*
X129445553Y-132150000D01*
X129258997Y-132179548D01*
X129079362Y-132237914D01*
X128911060Y-132323669D01*
X128885670Y-132342116D01*
X128885669Y-132342116D01*
X127200500Y-132342116D01*
X127200500Y-130163543D01*
X148349499Y-130163543D01*
X148387947Y-130356829D01*
X148387950Y-130356839D01*
X148463364Y-130538907D01*
X148463371Y-130538920D01*
X148572860Y-130702781D01*
X148572863Y-130702785D01*
X148712214Y-130842136D01*
X148712218Y-130842139D01*
X148876079Y-130951628D01*
X148876092Y-130951635D01*
X149058160Y-131027049D01*
X149058165Y-131027051D01*
X149058169Y-131027051D01*
X149058170Y-131027052D01*
X149251456Y-131065500D01*
X149251459Y-131065500D01*
X149448543Y-131065500D01*
X149578582Y-131039632D01*
X149641835Y-131027051D01*
X149823914Y-130951632D01*
X149987782Y-130842139D01*
X150127139Y-130702782D01*
X150236632Y-130538914D01*
X150312051Y-130356835D01*
X150350500Y-130163543D01*
X156989499Y-130163543D01*
X157027947Y-130356829D01*
X157027950Y-130356839D01*
X157103364Y-130538907D01*
X157103371Y-130538920D01*
X157212860Y-130702781D01*
X157212863Y-130702785D01*
X157352214Y-130842136D01*
X157352218Y-130842139D01*
X157516079Y-130951628D01*
X157516092Y-130951635D01*
X157698160Y-131027049D01*
X157698165Y-131027051D01*
X157698169Y-131027051D01*
X157698170Y-131027052D01*
X157891456Y-131065500D01*
X157891459Y-131065500D01*
X158088543Y-131065500D01*
X158218582Y-131039632D01*
X158281835Y-131027051D01*
X158463914Y-130951632D01*
X158627782Y-130842139D01*
X158767139Y-130702782D01*
X158876632Y-130538914D01*
X158952051Y-130356835D01*
X158990500Y-130163541D01*
X158990500Y-129266459D01*
X158990500Y-129266456D01*
X158952052Y-129073170D01*
X158952051Y-129073169D01*
X158952051Y-129073165D01*
X158952049Y-129073160D01*
X158876635Y-128891092D01*
X158876628Y-128891079D01*
X158767139Y-128727218D01*
X158767136Y-128727214D01*
X158627785Y-128587863D01*
X158627781Y-128587860D01*
X158463920Y-128478371D01*
X158463907Y-128478364D01*
X158281839Y-128402950D01*
X158281829Y-128402947D01*
X158088543Y-128364500D01*
X158088541Y-128364500D01*
X157891459Y-128364500D01*
X157891457Y-128364500D01*
X157698170Y-128402947D01*
X157698160Y-128402950D01*
X157516092Y-128478364D01*
X157516079Y-128478371D01*
X157352218Y-128587860D01*
X157352214Y-128587863D01*
X157212863Y-128727214D01*
X157212860Y-128727218D01*
X157103371Y-128891079D01*
X157103364Y-128891092D01*
X157027950Y-129073160D01*
X157027947Y-129073170D01*
X156989500Y-129266456D01*
X156989500Y-129266459D01*
X156989500Y-130163541D01*
X156989500Y-130163543D01*
X156989499Y-130163543D01*
X150350500Y-130163543D01*
X150350500Y-130163541D01*
X150350500Y-129266459D01*
X150350500Y-129266456D01*
X150312052Y-129073170D01*
X150312051Y-129073169D01*
X150312051Y-129073165D01*
X150312049Y-129073160D01*
X150236635Y-128891092D01*
X150236628Y-128891079D01*
X150127139Y-128727218D01*
X150127136Y-128727214D01*
X149987785Y-128587863D01*
X149987781Y-128587860D01*
X149823920Y-128478371D01*
X149823907Y-128478364D01*
X149641839Y-128402950D01*
X149641829Y-128402947D01*
X149448543Y-128364500D01*
X149448541Y-128364500D01*
X149251459Y-128364500D01*
X149251457Y-128364500D01*
X149058170Y-128402947D01*
X149058160Y-128402950D01*
X148876092Y-128478364D01*
X148876079Y-128478371D01*
X148712218Y-128587860D01*
X148712214Y-128587863D01*
X148572863Y-128727214D01*
X148572860Y-128727218D01*
X148463371Y-128891079D01*
X148463364Y-128891092D01*
X148387950Y-129073160D01*
X148387947Y-129073170D01*
X148349500Y-129266456D01*
X148349500Y-129266459D01*
X148349500Y-130163541D01*
X148349500Y-130163543D01*
X148349499Y-130163543D01*
X127200500Y-130163543D01*
X127200500Y-125828543D01*
X132349499Y-125828543D01*
X132387947Y-126021829D01*
X132387950Y-126021839D01*
X132463364Y-126203907D01*
X132463371Y-126203920D01*
X132572860Y-126367781D01*
X132572863Y-126367785D01*
X132712214Y-126507136D01*
X132712218Y-126507139D01*
X132876079Y-126616628D01*
X132876092Y-126616635D01*
X133058160Y-126692049D01*
X133058165Y-126692051D01*
X133058169Y-126692051D01*
X133058170Y-126692052D01*
X133251456Y-126730500D01*
X133251459Y-126730500D01*
X133448543Y-126730500D01*
X133578582Y-126704632D01*
X133641835Y-126692051D01*
X133823914Y-126616632D01*
X133987782Y-126507139D01*
X134127139Y-126367782D01*
X134236632Y-126203914D01*
X134312051Y-126021835D01*
X134350500Y-125828541D01*
X134350500Y-125631459D01*
X134349749Y-125627682D01*
X142750000Y-125627682D01*
X142750000Y-125832317D01*
X142782009Y-126034417D01*
X142845244Y-126229031D01*
X142938141Y-126411350D01*
X142938147Y-126411359D01*
X142970523Y-126455921D01*
X142970524Y-126455922D01*
X143650000Y-125776446D01*
X143650000Y-125782661D01*
X143677259Y-125884394D01*
X143729920Y-125975606D01*
X143804394Y-126050080D01*
X143895606Y-126102741D01*
X143997339Y-126130000D01*
X144003552Y-126130000D01*
X143324076Y-126809474D01*
X143368650Y-126841859D01*
X143550968Y-126934755D01*
X143745582Y-126997990D01*
X143947683Y-127030000D01*
X144152317Y-127030000D01*
X144354417Y-126997990D01*
X144549031Y-126934755D01*
X144730206Y-126842441D01*
X144798875Y-126829545D01*
X144863615Y-126855821D01*
X144885767Y-126878614D01*
X144892450Y-126887542D01*
X144892452Y-126887544D01*
X144892454Y-126887546D01*
X144892457Y-126887548D01*
X145007664Y-126973793D01*
X145007671Y-126973797D01*
X145142517Y-127024091D01*
X145142516Y-127024091D01*
X145149444Y-127024835D01*
X145202127Y-127030500D01*
X146897872Y-127030499D01*
X146957483Y-127024091D01*
X147092331Y-126973796D01*
X147207546Y-126887546D01*
X147293796Y-126772331D01*
X147344091Y-126637483D01*
X147350500Y-126577873D01*
X147350499Y-124882128D01*
X147344091Y-124822517D01*
X147323738Y-124767949D01*
X147293797Y-124687671D01*
X147293793Y-124687664D01*
X147207547Y-124572455D01*
X147207544Y-124572452D01*
X147092335Y-124486206D01*
X147092328Y-124486202D01*
X146957482Y-124435908D01*
X146957483Y-124435908D01*
X146897883Y-124429501D01*
X146897881Y-124429500D01*
X146897873Y-124429500D01*
X146897864Y-124429500D01*
X145202129Y-124429500D01*
X145202123Y-124429501D01*
X145142516Y-124435908D01*
X145007671Y-124486202D01*
X145007664Y-124486206D01*
X144892457Y-124572451D01*
X144892450Y-124572457D01*
X144885765Y-124581388D01*
X144829829Y-124623257D01*
X144760138Y-124628238D01*
X144730206Y-124617558D01*
X144549031Y-124525244D01*
X144354417Y-124462009D01*
X144152317Y-124430000D01*
X143947683Y-124430000D01*
X143745582Y-124462009D01*
X143550968Y-124525244D01*
X143368644Y-124618143D01*
X143324077Y-124650523D01*
X143324077Y-124650524D01*
X144003553Y-125330000D01*
X143997339Y-125330000D01*
X143895606Y-125357259D01*
X143804394Y-125409920D01*
X143729920Y-125484394D01*
X143677259Y-125575606D01*
X143650000Y-125677339D01*
X143650000Y-125683553D01*
X142970524Y-125004077D01*
X142970523Y-125004077D01*
X142938143Y-125048644D01*
X142845244Y-125230968D01*
X142782009Y-125425582D01*
X142750000Y-125627682D01*
X134349749Y-125627682D01*
X134312051Y-125438165D01*
X134267248Y-125330000D01*
X134236635Y-125256092D01*
X134236628Y-125256079D01*
X134127139Y-125092218D01*
X134127136Y-125092214D01*
X133987785Y-124952863D01*
X133987781Y-124952860D01*
X133823920Y-124843371D01*
X133823907Y-124843364D01*
X133749016Y-124812344D01*
X133641839Y-124767950D01*
X133641829Y-124767947D01*
X133448543Y-124729500D01*
X133448541Y-124729500D01*
X133251459Y-124729500D01*
X133251457Y-124729500D01*
X133058170Y-124767947D01*
X133058160Y-124767950D01*
X132876092Y-124843364D01*
X132876079Y-124843371D01*
X132712218Y-124952860D01*
X132712214Y-124952863D01*
X132572863Y-125092214D01*
X132572860Y-125092218D01*
X132463371Y-125256079D01*
X132463364Y-125256092D01*
X132387950Y-125438160D01*
X132387947Y-125438170D01*
X132349500Y-125631456D01*
X132349500Y-125631458D01*
X132349500Y-125631459D01*
X132349500Y-125828541D01*
X132349500Y-125828543D01*
X132349499Y-125828543D01*
X127200500Y-125828543D01*
X127200500Y-122233995D01*
X128204499Y-122233995D01*
X128231418Y-122369322D01*
X128231421Y-122369332D01*
X128284221Y-122496804D01*
X128284228Y-122496817D01*
X128360885Y-122611541D01*
X128360888Y-122611545D01*
X128458454Y-122709111D01*
X128458458Y-122709114D01*
X128573182Y-122785771D01*
X128573195Y-122785778D01*
X128700667Y-122838578D01*
X128700672Y-122838580D01*
X128700676Y-122838580D01*
X128700677Y-122838581D01*
X128836004Y-122865500D01*
X128836007Y-122865500D01*
X128973995Y-122865500D01*
X129065041Y-122847389D01*
X129109328Y-122838580D01*
X129236811Y-122785775D01*
X129351542Y-122709114D01*
X129449114Y-122611542D01*
X129525775Y-122496811D01*
X129578580Y-122369328D01*
X129598698Y-122268188D01*
X129605500Y-122233995D01*
X129605500Y-122096004D01*
X129578581Y-121960677D01*
X129578580Y-121960676D01*
X129578580Y-121960672D01*
X129566628Y-121931817D01*
X129525778Y-121833195D01*
X129525771Y-121833182D01*
X129449114Y-121718458D01*
X129449111Y-121718454D01*
X129351545Y-121620888D01*
X129351541Y-121620885D01*
X129292590Y-121581495D01*
X149794499Y-121581495D01*
X149821418Y-121716822D01*
X149821421Y-121716832D01*
X149874221Y-121844304D01*
X149874228Y-121844317D01*
X149950885Y-121959041D01*
X149950888Y-121959045D01*
X149962912Y-121971069D01*
X149996397Y-122032392D01*
X149991413Y-122102084D01*
X149962916Y-122146427D01*
X149955888Y-122153454D01*
X149955883Y-122153461D01*
X149879228Y-122268182D01*
X149879221Y-122268195D01*
X149826421Y-122395667D01*
X149826418Y-122395677D01*
X149799500Y-122531004D01*
X149799500Y-122531007D01*
X149799500Y-122668993D01*
X149799500Y-122668995D01*
X149799499Y-122668995D01*
X149826418Y-122804322D01*
X149826421Y-122804332D01*
X149879221Y-122931804D01*
X149879228Y-122931817D01*
X149955885Y-123046541D01*
X149955888Y-123046545D01*
X150053454Y-123144111D01*
X150053458Y-123144114D01*
X150168182Y-123220771D01*
X150168195Y-123220778D01*
X150295667Y-123273578D01*
X150295672Y-123273580D01*
X150295676Y-123273580D01*
X150295677Y-123273581D01*
X150431004Y-123300500D01*
X150431007Y-123300500D01*
X150568995Y-123300500D01*
X150660041Y-123282389D01*
X150704328Y-123273580D01*
X150831811Y-123220775D01*
X150931109Y-123154425D01*
X150997786Y-123133548D01*
X151065166Y-123152032D01*
X151068889Y-123154425D01*
X151168189Y-123220775D01*
X151168191Y-123220776D01*
X151168195Y-123220778D01*
X151295667Y-123273578D01*
X151295672Y-123273580D01*
X151295676Y-123273580D01*
X151295677Y-123273581D01*
X151431004Y-123300500D01*
X151431007Y-123300500D01*
X151568995Y-123300500D01*
X151660041Y-123282389D01*
X151704328Y-123273580D01*
X151831811Y-123220775D01*
X151931109Y-123154425D01*
X151997786Y-123133548D01*
X152065166Y-123152032D01*
X152068889Y-123154425D01*
X152168189Y-123220775D01*
X152168191Y-123220776D01*
X152168195Y-123220778D01*
X152295667Y-123273578D01*
X152295672Y-123273580D01*
X152295676Y-123273580D01*
X152295677Y-123273581D01*
X152431004Y-123300500D01*
X152431007Y-123300500D01*
X152568995Y-123300500D01*
X152660041Y-123282389D01*
X152704328Y-123273580D01*
X152831811Y-123220775D01*
X152946542Y-123144114D01*
X153044114Y-123046542D01*
X153120775Y-122931811D01*
X153173580Y-122804328D01*
X153182389Y-122760041D01*
X153200500Y-122668995D01*
X153200500Y-122531004D01*
X153173581Y-122395677D01*
X153173580Y-122395676D01*
X153173580Y-122395672D01*
X153162666Y-122369322D01*
X153120778Y-122268195D01*
X153120774Y-122268188D01*
X153097927Y-122233995D01*
X153070413Y-122192817D01*
X153049536Y-122126142D01*
X153068020Y-122058762D01*
X153074649Y-122049483D01*
X153095322Y-122018543D01*
X161559499Y-122018543D01*
X161597947Y-122211829D01*
X161597950Y-122211839D01*
X161673364Y-122393907D01*
X161673371Y-122393920D01*
X161782860Y-122557781D01*
X161782863Y-122557785D01*
X161922214Y-122697136D01*
X161922218Y-122697139D01*
X162086079Y-122806628D01*
X162086092Y-122806635D01*
X162163218Y-122838581D01*
X162268165Y-122882051D01*
X162268169Y-122882051D01*
X162268170Y-122882052D01*
X162461456Y-122920500D01*
X162461459Y-122920500D01*
X162658543Y-122920500D01*
X162788582Y-122894632D01*
X162851835Y-122882051D01*
X163033914Y-122806632D01*
X163197782Y-122697139D01*
X163337139Y-122557782D01*
X163446632Y-122393914D01*
X163522051Y-122211835D01*
X163545091Y-122096007D01*
X163560500Y-122018543D01*
X163560500Y-121821456D01*
X163522052Y-121628170D01*
X163522051Y-121628169D01*
X163522051Y-121628165D01*
X163502719Y-121581493D01*
X163446635Y-121446092D01*
X163446628Y-121446079D01*
X163337139Y-121282218D01*
X163337136Y-121282214D01*
X163197785Y-121142863D01*
X163197781Y-121142860D01*
X163033920Y-121033371D01*
X163033907Y-121033364D01*
X162851839Y-120957950D01*
X162851829Y-120957947D01*
X162658543Y-120919500D01*
X162658541Y-120919500D01*
X162461459Y-120919500D01*
X162461457Y-120919500D01*
X162268170Y-120957947D01*
X162268160Y-120957950D01*
X162086092Y-121033364D01*
X162086079Y-121033371D01*
X161922218Y-121142860D01*
X161922214Y-121142863D01*
X161782863Y-121282214D01*
X161782860Y-121282218D01*
X161673371Y-121446079D01*
X161673364Y-121446092D01*
X161597950Y-121628160D01*
X161597947Y-121628170D01*
X161559500Y-121821456D01*
X161559500Y-121821459D01*
X161559500Y-122018541D01*
X161559500Y-122018543D01*
X161559499Y-122018543D01*
X153095322Y-122018543D01*
X153153271Y-121931817D01*
X153153271Y-121931816D01*
X153153275Y-121931811D01*
X153206080Y-121804328D01*
X153233000Y-121668993D01*
X153233000Y-121531007D01*
X153233000Y-121531004D01*
X153206081Y-121395677D01*
X153206080Y-121395676D01*
X153206080Y-121395672D01*
X153176218Y-121323578D01*
X153153278Y-121268195D01*
X153153271Y-121268182D01*
X153076614Y-121153458D01*
X153076611Y-121153454D01*
X152979045Y-121055888D01*
X152979041Y-121055885D01*
X152864317Y-120979228D01*
X152864304Y-120979221D01*
X152736832Y-120926421D01*
X152736822Y-120926418D01*
X152601495Y-120899500D01*
X152601493Y-120899500D01*
X152463507Y-120899500D01*
X152463505Y-120899500D01*
X152328177Y-120926418D01*
X152328167Y-120926421D01*
X152200695Y-120979221D01*
X152200682Y-120979228D01*
X152085958Y-121055885D01*
X152085954Y-121055888D01*
X151988388Y-121153454D01*
X151988385Y-121153458D01*
X151911728Y-121268182D01*
X151911721Y-121268195D01*
X151858921Y-121395667D01*
X151858918Y-121395677D01*
X151832000Y-121531004D01*
X151832000Y-121668997D01*
X151854369Y-121781453D01*
X151848142Y-121851044D01*
X151805279Y-121906222D01*
X151739389Y-121929466D01*
X151708561Y-121927261D01*
X151568997Y-121899500D01*
X151568993Y-121899500D01*
X151431007Y-121899500D01*
X151431002Y-121899500D01*
X151290087Y-121927530D01*
X151220496Y-121921303D01*
X151165318Y-121878440D01*
X151142074Y-121812550D01*
X151151334Y-121758462D01*
X151168580Y-121716828D01*
X151187664Y-121620886D01*
X151195500Y-121581495D01*
X151195500Y-121443504D01*
X151168581Y-121308177D01*
X151168580Y-121308176D01*
X151168580Y-121308172D01*
X151121335Y-121194111D01*
X151115778Y-121180695D01*
X151115771Y-121180682D01*
X151039114Y-121065958D01*
X151039111Y-121065954D01*
X150941545Y-120968388D01*
X150941541Y-120968385D01*
X150826817Y-120891728D01*
X150826804Y-120891721D01*
X150699332Y-120838921D01*
X150699322Y-120838918D01*
X150563995Y-120812000D01*
X150563993Y-120812000D01*
X150426007Y-120812000D01*
X150426005Y-120812000D01*
X150290677Y-120838918D01*
X150290667Y-120838921D01*
X150163195Y-120891721D01*
X150163182Y-120891728D01*
X150048458Y-120968385D01*
X150048454Y-120968388D01*
X149950888Y-121065954D01*
X149950885Y-121065958D01*
X149874228Y-121180682D01*
X149874221Y-121180695D01*
X149821421Y-121308167D01*
X149821418Y-121308177D01*
X149794500Y-121443504D01*
X149794500Y-121443507D01*
X149794500Y-121581493D01*
X149794500Y-121581495D01*
X149794499Y-121581495D01*
X129292590Y-121581495D01*
X129236817Y-121544228D01*
X129236804Y-121544221D01*
X129109332Y-121491421D01*
X129109322Y-121491418D01*
X128973995Y-121464500D01*
X128973993Y-121464500D01*
X128836007Y-121464500D01*
X128836005Y-121464500D01*
X128700677Y-121491418D01*
X128700667Y-121491421D01*
X128573195Y-121544221D01*
X128573182Y-121544228D01*
X128458458Y-121620885D01*
X128458454Y-121620888D01*
X128360888Y-121718454D01*
X128360885Y-121718458D01*
X128284228Y-121833182D01*
X128284221Y-121833195D01*
X128231421Y-121960667D01*
X128231418Y-121960677D01*
X128204500Y-122096004D01*
X128204500Y-122096007D01*
X128204500Y-122233993D01*
X128204500Y-122233995D01*
X128204499Y-122233995D01*
X127200500Y-122233995D01*
X127200500Y-120718995D01*
X136591999Y-120718995D01*
X136618918Y-120854322D01*
X136618921Y-120854332D01*
X136671721Y-120981804D01*
X136671728Y-120981817D01*
X136748385Y-121096541D01*
X136748388Y-121096545D01*
X136845954Y-121194111D01*
X136845958Y-121194114D01*
X136960682Y-121270771D01*
X136960695Y-121270778D01*
X137086419Y-121322854D01*
X137088172Y-121323580D01*
X137088176Y-121323580D01*
X137088177Y-121323581D01*
X137223504Y-121350500D01*
X137223507Y-121350500D01*
X137361495Y-121350500D01*
X137452541Y-121332389D01*
X137496828Y-121323580D01*
X137496833Y-121323578D01*
X137498579Y-121322855D01*
X137498579Y-121322854D01*
X137534015Y-121308177D01*
X137624304Y-121270778D01*
X137624304Y-121270777D01*
X137624311Y-121270775D01*
X137739042Y-121194114D01*
X137836614Y-121096542D01*
X137913275Y-120981811D01*
X137966080Y-120854328D01*
X137993000Y-120718995D01*
X154106999Y-120718995D01*
X154133918Y-120854322D01*
X154133921Y-120854332D01*
X154186721Y-120981804D01*
X154186728Y-120981817D01*
X154263385Y-121096541D01*
X154263388Y-121096545D01*
X154360954Y-121194111D01*
X154360958Y-121194114D01*
X154475682Y-121270771D01*
X154475695Y-121270778D01*
X154601419Y-121322854D01*
X154603172Y-121323580D01*
X154603176Y-121323580D01*
X154603177Y-121323581D01*
X154738504Y-121350500D01*
X154738507Y-121350500D01*
X154876495Y-121350500D01*
X154967541Y-121332389D01*
X155011828Y-121323580D01*
X155139311Y-121270775D01*
X155254042Y-121194114D01*
X155351614Y-121096542D01*
X155428275Y-120981811D01*
X155481080Y-120854328D01*
X155508000Y-120718993D01*
X155508000Y-120581007D01*
X155508000Y-120581004D01*
X155481081Y-120445677D01*
X155481080Y-120445676D01*
X155481080Y-120445672D01*
X155465588Y-120408271D01*
X155428278Y-120318195D01*
X155428271Y-120318182D01*
X155351614Y-120203458D01*
X155351611Y-120203454D01*
X155254045Y-120105888D01*
X155254041Y-120105885D01*
X155139317Y-120029228D01*
X155139304Y-120029221D01*
X155011832Y-119976421D01*
X155011822Y-119976418D01*
X154876495Y-119949500D01*
X154876493Y-119949500D01*
X154738507Y-119949500D01*
X154738505Y-119949500D01*
X154603177Y-119976418D01*
X154603167Y-119976421D01*
X154475695Y-120029221D01*
X154475682Y-120029228D01*
X154360958Y-120105885D01*
X154360954Y-120105888D01*
X154263388Y-120203454D01*
X154263385Y-120203458D01*
X154186728Y-120318182D01*
X154186721Y-120318195D01*
X154133921Y-120445667D01*
X154133918Y-120445677D01*
X154107000Y-120581004D01*
X154107000Y-120581007D01*
X154107000Y-120718993D01*
X154107000Y-120718995D01*
X154106999Y-120718995D01*
X137993000Y-120718995D01*
X137993000Y-120718993D01*
X137993000Y-120581007D01*
X137993000Y-120581004D01*
X137966081Y-120445677D01*
X137966080Y-120445676D01*
X137966080Y-120445672D01*
X137950588Y-120408271D01*
X137913278Y-120318195D01*
X137913271Y-120318182D01*
X137836614Y-120203458D01*
X137836611Y-120203454D01*
X137739045Y-120105888D01*
X137739041Y-120105885D01*
X137624317Y-120029228D01*
X137624304Y-120029221D01*
X137496832Y-119976421D01*
X137496822Y-119976418D01*
X137361495Y-119949500D01*
X137361493Y-119949500D01*
X137223507Y-119949500D01*
X137223505Y-119949500D01*
X137088177Y-119976418D01*
X137088167Y-119976421D01*
X136960695Y-120029221D01*
X136960682Y-120029228D01*
X136845958Y-120105885D01*
X136845954Y-120105888D01*
X136748388Y-120203454D01*
X136748385Y-120203458D01*
X136671728Y-120318182D01*
X136671721Y-120318195D01*
X136618921Y-120445667D01*
X136618918Y-120445677D01*
X136592000Y-120581004D01*
X136592000Y-120581007D01*
X136592000Y-120718993D01*
X136592000Y-120718995D01*
X136591999Y-120718995D01*
X127200500Y-120718995D01*
X127200500Y-119856495D01*
X156144499Y-119856495D01*
X156171418Y-119991822D01*
X156171421Y-119991832D01*
X156224221Y-120119304D01*
X156224228Y-120119317D01*
X156300885Y-120234041D01*
X156300888Y-120234045D01*
X156398454Y-120331611D01*
X156398458Y-120331614D01*
X156513182Y-120408271D01*
X156513195Y-120408278D01*
X156640667Y-120461078D01*
X156640672Y-120461080D01*
X156640676Y-120461080D01*
X156640677Y-120461081D01*
X156776004Y-120488000D01*
X156776007Y-120488000D01*
X156913995Y-120488000D01*
X157005041Y-120469889D01*
X157049328Y-120461080D01*
X157176811Y-120408275D01*
X157291542Y-120331614D01*
X157389114Y-120234042D01*
X157465775Y-120119311D01*
X157518580Y-119991828D01*
X157545500Y-119856493D01*
X157545500Y-119806495D01*
X158049499Y-119806495D01*
X158076418Y-119941822D01*
X158076421Y-119941832D01*
X158129221Y-120069304D01*
X158129228Y-120069317D01*
X158205885Y-120184041D01*
X158205888Y-120184045D01*
X158303454Y-120281611D01*
X158303458Y-120281614D01*
X158418182Y-120358271D01*
X158418195Y-120358278D01*
X158538890Y-120408271D01*
X158545672Y-120411080D01*
X158545676Y-120411080D01*
X158545677Y-120411081D01*
X158681004Y-120438000D01*
X158681007Y-120438000D01*
X158818995Y-120438000D01*
X158910041Y-120419889D01*
X158954328Y-120411080D01*
X159081811Y-120358275D01*
X159196542Y-120281614D01*
X159294114Y-120184042D01*
X159370775Y-120069311D01*
X159423580Y-119941828D01*
X159450500Y-119806493D01*
X159450500Y-119668507D01*
X159450500Y-119668504D01*
X159423581Y-119533177D01*
X159423580Y-119533176D01*
X159423580Y-119533172D01*
X159386690Y-119444111D01*
X159370778Y-119405695D01*
X159370771Y-119405682D01*
X159294114Y-119290958D01*
X159294111Y-119290954D01*
X159196545Y-119193388D01*
X159196541Y-119193385D01*
X159081817Y-119116728D01*
X159081804Y-119116721D01*
X158954332Y-119063921D01*
X158954322Y-119063918D01*
X158818995Y-119037000D01*
X158818993Y-119037000D01*
X158681007Y-119037000D01*
X158681005Y-119037000D01*
X158545677Y-119063918D01*
X158545667Y-119063921D01*
X158418195Y-119116721D01*
X158418182Y-119116728D01*
X158303458Y-119193385D01*
X158303454Y-119193388D01*
X158205888Y-119290954D01*
X158205885Y-119290958D01*
X158129228Y-119405682D01*
X158129221Y-119405695D01*
X158076421Y-119533167D01*
X158076418Y-119533177D01*
X158049500Y-119668504D01*
X158049500Y-119668507D01*
X158049500Y-119806493D01*
X158049500Y-119806495D01*
X158049499Y-119806495D01*
X157545500Y-119806495D01*
X157545500Y-119718507D01*
X157545500Y-119718504D01*
X157539155Y-119686607D01*
X157539155Y-119686606D01*
X157518581Y-119583179D01*
X157518581Y-119583177D01*
X157518580Y-119583172D01*
X157514606Y-119573578D01*
X157465778Y-119455695D01*
X157465771Y-119455682D01*
X157389114Y-119340958D01*
X157389111Y-119340954D01*
X157291545Y-119243388D01*
X157291541Y-119243385D01*
X157176817Y-119166728D01*
X157176804Y-119166721D01*
X157049332Y-119113921D01*
X157049322Y-119113918D01*
X156913995Y-119087000D01*
X156913993Y-119087000D01*
X156776007Y-119087000D01*
X156776005Y-119087000D01*
X156640677Y-119113918D01*
X156640667Y-119113921D01*
X156513195Y-119166721D01*
X156513182Y-119166728D01*
X156398458Y-119243385D01*
X156398454Y-119243388D01*
X156300888Y-119340954D01*
X156300885Y-119340958D01*
X156224228Y-119455682D01*
X156224221Y-119455695D01*
X156171421Y-119583167D01*
X156171418Y-119583177D01*
X156144500Y-119718504D01*
X156144500Y-119718507D01*
X156144500Y-119856493D01*
X156144500Y-119856495D01*
X156144499Y-119856495D01*
X127200500Y-119856495D01*
X127200500Y-117168995D01*
X154131999Y-117168995D01*
X154158918Y-117304321D01*
X154158920Y-117304329D01*
X154178893Y-117352548D01*
X154186362Y-117422018D01*
X154178893Y-117447452D01*
X154158920Y-117495670D01*
X154158918Y-117495678D01*
X154132000Y-117631004D01*
X154132000Y-117631007D01*
X154132000Y-117768993D01*
X154132000Y-117768995D01*
X154131999Y-117768995D01*
X154158918Y-117904321D01*
X154158920Y-117904329D01*
X154178893Y-117952548D01*
X154186362Y-118022018D01*
X154178893Y-118047452D01*
X154158920Y-118095670D01*
X154158918Y-118095678D01*
X154132000Y-118231004D01*
X154132000Y-118231007D01*
X154132000Y-118368993D01*
X154132000Y-118368995D01*
X154131999Y-118368995D01*
X154158918Y-118504321D01*
X154158920Y-118504329D01*
X154178893Y-118552548D01*
X154186362Y-118622018D01*
X154178893Y-118647452D01*
X154158920Y-118695670D01*
X154158918Y-118695678D01*
X154132000Y-118831004D01*
X154132000Y-118831007D01*
X154132000Y-118968993D01*
X154132000Y-118968995D01*
X154131999Y-118968995D01*
X154158918Y-119104322D01*
X154158921Y-119104332D01*
X154211721Y-119231804D01*
X154211728Y-119231817D01*
X154288385Y-119346541D01*
X154288388Y-119346545D01*
X154385954Y-119444111D01*
X154385958Y-119444114D01*
X154500682Y-119520771D01*
X154500695Y-119520778D01*
X154628167Y-119573578D01*
X154628172Y-119573580D01*
X154628176Y-119573580D01*
X154628177Y-119573581D01*
X154763504Y-119600500D01*
X154763507Y-119600500D01*
X154901495Y-119600500D01*
X154950270Y-119590798D01*
X155009468Y-119579022D01*
X155036828Y-119573580D01*
X155164311Y-119520775D01*
X155279042Y-119444114D01*
X155376614Y-119346542D01*
X155453275Y-119231811D01*
X155506080Y-119104328D01*
X155514889Y-119060041D01*
X155533000Y-118968995D01*
X155533000Y-118831004D01*
X155506081Y-118695677D01*
X155506078Y-118695666D01*
X155486107Y-118647454D01*
X155478637Y-118577985D01*
X155486107Y-118552546D01*
X155506078Y-118504333D01*
X155506078Y-118504332D01*
X155506080Y-118504328D01*
X155533000Y-118368993D01*
X155533000Y-118231007D01*
X155533000Y-118231004D01*
X155506081Y-118095677D01*
X155506078Y-118095666D01*
X155486107Y-118047454D01*
X155478637Y-117977985D01*
X155486107Y-117952546D01*
X155506078Y-117904333D01*
X155506078Y-117904332D01*
X155506080Y-117904328D01*
X155533000Y-117768993D01*
X155533000Y-117631007D01*
X155533000Y-117631004D01*
X155506081Y-117495677D01*
X155506078Y-117495666D01*
X155486107Y-117447454D01*
X155478637Y-117377985D01*
X155486107Y-117352546D01*
X155506078Y-117304333D01*
X155506078Y-117304332D01*
X155506080Y-117304328D01*
X155533000Y-117168993D01*
X155533000Y-117031007D01*
X155533000Y-117031004D01*
X155506081Y-116895677D01*
X155506080Y-116895676D01*
X155506080Y-116895672D01*
X155499000Y-116878580D01*
X155453278Y-116768195D01*
X155453271Y-116768182D01*
X155376614Y-116653458D01*
X155376611Y-116653454D01*
X155279045Y-116555888D01*
X155279041Y-116555885D01*
X155164317Y-116479228D01*
X155164304Y-116479221D01*
X155036832Y-116426421D01*
X155036822Y-116426418D01*
X154901495Y-116399500D01*
X154901493Y-116399500D01*
X154763507Y-116399500D01*
X154763505Y-116399500D01*
X154628177Y-116426418D01*
X154628167Y-116426421D01*
X154500695Y-116479221D01*
X154500682Y-116479228D01*
X154385958Y-116555885D01*
X154385954Y-116555888D01*
X154288388Y-116653454D01*
X154288385Y-116653458D01*
X154211728Y-116768182D01*
X154211721Y-116768195D01*
X154158921Y-116895667D01*
X154158918Y-116895677D01*
X154132000Y-117031004D01*
X154132000Y-117031007D01*
X154132000Y-117168993D01*
X154132000Y-117168995D01*
X154131999Y-117168995D01*
X127200500Y-117168995D01*
X127200500Y-112282135D01*
X129609500Y-112282135D01*
X129609500Y-113777870D01*
X129609501Y-113777876D01*
X129615908Y-113837483D01*
X129666202Y-113972328D01*
X129666206Y-113972335D01*
X129752452Y-114087544D01*
X129752455Y-114087547D01*
X129867664Y-114173793D01*
X129867671Y-114173797D01*
X130002517Y-114224091D01*
X130002516Y-114224091D01*
X130009444Y-114224835D01*
X130062127Y-114230500D01*
X130278091Y-114230499D01*
X130345129Y-114250183D01*
X130390884Y-114302987D01*
X130400828Y-114372145D01*
X130371803Y-114435701D01*
X130334385Y-114464983D01*
X130180805Y-114543236D01*
X130091079Y-114608427D01*
X130027927Y-114654310D01*
X130027925Y-114654312D01*
X130027924Y-114654312D01*
X129894312Y-114787924D01*
X129894312Y-114787925D01*
X129894310Y-114787927D01*
X129894308Y-114787930D01*
X129783240Y-114940800D01*
X129697454Y-115109163D01*
X129639059Y-115288881D01*
X129609500Y-115475513D01*
X129609500Y-115664486D01*
X129639059Y-115851118D01*
X129697454Y-116030836D01*
X129751042Y-116136007D01*
X129783240Y-116199199D01*
X129894310Y-116352073D01*
X130027927Y-116485690D01*
X130180801Y-116596760D01*
X130260347Y-116637290D01*
X130349163Y-116682545D01*
X130349165Y-116682545D01*
X130349168Y-116682547D01*
X130445497Y-116713846D01*
X130528881Y-116740940D01*
X130715514Y-116770500D01*
X130715519Y-116770500D01*
X130904486Y-116770500D01*
X131091118Y-116740940D01*
X131270832Y-116682547D01*
X131439199Y-116596760D01*
X131592073Y-116485690D01*
X131725690Y-116352073D01*
X131782417Y-116273995D01*
X136866999Y-116273995D01*
X136893918Y-116409322D01*
X136893921Y-116409332D01*
X136946721Y-116536804D01*
X136946728Y-116536817D01*
X137023385Y-116651541D01*
X137023388Y-116651545D01*
X137120954Y-116749111D01*
X137120958Y-116749114D01*
X137235682Y-116825771D01*
X137235695Y-116825778D01*
X137363167Y-116878578D01*
X137363172Y-116878580D01*
X137363176Y-116878580D01*
X137363177Y-116878581D01*
X137498504Y-116905500D01*
X137498507Y-116905500D01*
X137636495Y-116905500D01*
X137647565Y-116903298D01*
X137647565Y-116903297D01*
X137771828Y-116878580D01*
X137899311Y-116825775D01*
X138014042Y-116749114D01*
X138111614Y-116651542D01*
X138188275Y-116536811D01*
X138231452Y-116432572D01*
X141730979Y-116432572D01*
X141766328Y-116456192D01*
X141948306Y-116531569D01*
X141948318Y-116531572D01*
X142141504Y-116569999D01*
X142141508Y-116570000D01*
X142338492Y-116570000D01*
X142338495Y-116569999D01*
X142531681Y-116531572D01*
X142531693Y-116531569D01*
X142713676Y-116456190D01*
X142713680Y-116456187D01*
X142749019Y-116432573D01*
X142749020Y-116432572D01*
X142240001Y-115923553D01*
X142240000Y-115923553D01*
X141730979Y-116432572D01*
X138231452Y-116432572D01*
X138241080Y-116409328D01*
X138243304Y-116398144D01*
X138250461Y-116362170D01*
X138250461Y-116362169D01*
X138267999Y-116273997D01*
X138268000Y-116273995D01*
X138268000Y-116136004D01*
X138241081Y-116000677D01*
X138241080Y-116000676D01*
X138241080Y-116000672D01*
X138241078Y-116000667D01*
X138188278Y-115873195D01*
X138188271Y-115873182D01*
X138111614Y-115758458D01*
X138111611Y-115758454D01*
X138014045Y-115660888D01*
X138014041Y-115660885D01*
X137899317Y-115584228D01*
X137899304Y-115584221D01*
X137889059Y-115579978D01*
X137771832Y-115531421D01*
X137771822Y-115531418D01*
X137636495Y-115504500D01*
X137636493Y-115504500D01*
X137498507Y-115504500D01*
X137498505Y-115504500D01*
X137363177Y-115531418D01*
X137363167Y-115531421D01*
X137235695Y-115584221D01*
X137235682Y-115584228D01*
X137120958Y-115660885D01*
X137120954Y-115660888D01*
X137023388Y-115758454D01*
X137023385Y-115758458D01*
X136946728Y-115873182D01*
X136946721Y-115873195D01*
X136893921Y-116000667D01*
X136893918Y-116000677D01*
X136867000Y-116136004D01*
X136867000Y-116136007D01*
X136867000Y-116273993D01*
X136867000Y-116273995D01*
X136866999Y-116273995D01*
X131782417Y-116273995D01*
X131836760Y-116199199D01*
X131879247Y-116115811D01*
X131900746Y-116073620D01*
X131900747Y-116073618D01*
X131922544Y-116030839D01*
X131922544Y-116030835D01*
X131922547Y-116030832D01*
X131980940Y-115851118D01*
X131995616Y-115758458D01*
X132010500Y-115664486D01*
X132010500Y-115475513D01*
X132009865Y-115471504D01*
X141240000Y-115471504D01*
X141240000Y-115668495D01*
X141278427Y-115861681D01*
X141278430Y-115861693D01*
X141353808Y-116043673D01*
X141353809Y-116043675D01*
X141377425Y-116079019D01*
X141886446Y-115570000D01*
X141886446Y-115569999D01*
X141836719Y-115520272D01*
X141990000Y-115520272D01*
X141990000Y-115619728D01*
X142028060Y-115711614D01*
X142098386Y-115781940D01*
X142190272Y-115820000D01*
X142289728Y-115820000D01*
X142381614Y-115781940D01*
X142451940Y-115711614D01*
X142490000Y-115619728D01*
X142490000Y-115569999D01*
X142593553Y-115569999D01*
X142593553Y-115570000D01*
X143102572Y-116079020D01*
X143102573Y-116079019D01*
X143126187Y-116043680D01*
X143126190Y-116043676D01*
X143201569Y-115861693D01*
X143201572Y-115861681D01*
X143239999Y-115668495D01*
X143240000Y-115668492D01*
X143240000Y-115471508D01*
X143239999Y-115471504D01*
X143201572Y-115278318D01*
X143201569Y-115278306D01*
X143126192Y-115096328D01*
X143102572Y-115060979D01*
X142593553Y-115569999D01*
X142490000Y-115569999D01*
X142490000Y-115520272D01*
X142451940Y-115428386D01*
X142381614Y-115358060D01*
X142289728Y-115320000D01*
X142190272Y-115320000D01*
X142098386Y-115358060D01*
X142028060Y-115428386D01*
X141990000Y-115520272D01*
X141836719Y-115520272D01*
X141377426Y-115060978D01*
X141377426Y-115060979D01*
X141353813Y-115096318D01*
X141353809Y-115096325D01*
X141278429Y-115278310D01*
X141278427Y-115278318D01*
X141240000Y-115471504D01*
X132009865Y-115471504D01*
X131980940Y-115288881D01*
X131922545Y-115109163D01*
X131836759Y-114940800D01*
X131725690Y-114787927D01*
X131645189Y-114707426D01*
X141730978Y-114707426D01*
X142240000Y-115216446D01*
X142240001Y-115216446D01*
X142749020Y-114707426D01*
X142713675Y-114683809D01*
X142713673Y-114683808D01*
X142531693Y-114608430D01*
X142531681Y-114608427D01*
X142338495Y-114570000D01*
X142141504Y-114570000D01*
X141948318Y-114608427D01*
X141948310Y-114608429D01*
X141766325Y-114683809D01*
X141766318Y-114683813D01*
X141730979Y-114707426D01*
X141730978Y-114707426D01*
X131645189Y-114707426D01*
X131592073Y-114654310D01*
X131439199Y-114543240D01*
X131285611Y-114464983D01*
X131234816Y-114417010D01*
X131218021Y-114349189D01*
X131240558Y-114283054D01*
X131295273Y-114239602D01*
X131341906Y-114230499D01*
X131557872Y-114230499D01*
X131617483Y-114224091D01*
X131752331Y-114173796D01*
X131867546Y-114087546D01*
X131953796Y-113972331D01*
X132004091Y-113837483D01*
X132010500Y-113777873D01*
X132010499Y-112282135D01*
X160089500Y-112282135D01*
X160089500Y-113777870D01*
X160089501Y-113777876D01*
X160095908Y-113837483D01*
X160146202Y-113972328D01*
X160146206Y-113972335D01*
X160232452Y-114087544D01*
X160232455Y-114087547D01*
X160347664Y-114173793D01*
X160347671Y-114173797D01*
X160482517Y-114224091D01*
X160482516Y-114224091D01*
X160489444Y-114224835D01*
X160542127Y-114230500D01*
X160758091Y-114230499D01*
X160825129Y-114250183D01*
X160870884Y-114302987D01*
X160880828Y-114372145D01*
X160851803Y-114435701D01*
X160814385Y-114464983D01*
X160660805Y-114543236D01*
X160571079Y-114608427D01*
X160507927Y-114654310D01*
X160507925Y-114654312D01*
X160507924Y-114654312D01*
X160374312Y-114787924D01*
X160374312Y-114787925D01*
X160374310Y-114787927D01*
X160374308Y-114787930D01*
X160263240Y-114940800D01*
X160177454Y-115109163D01*
X160119059Y-115288881D01*
X160089500Y-115475513D01*
X160089500Y-115664486D01*
X160119059Y-115851118D01*
X160177454Y-116030836D01*
X160231042Y-116136007D01*
X160263240Y-116199199D01*
X160374310Y-116352073D01*
X160507927Y-116485690D01*
X160660801Y-116596760D01*
X160740347Y-116637290D01*
X160829163Y-116682545D01*
X160829165Y-116682545D01*
X160829168Y-116682547D01*
X160925497Y-116713846D01*
X161008881Y-116740940D01*
X161195514Y-116770500D01*
X161195519Y-116770500D01*
X161384486Y-116770500D01*
X161571118Y-116740940D01*
X161750832Y-116682547D01*
X161919199Y-116596760D01*
X162072073Y-116485690D01*
X162205690Y-116352073D01*
X162316760Y-116199199D01*
X162402547Y-116030832D01*
X162460940Y-115851118D01*
X162475616Y-115758458D01*
X162490500Y-115664486D01*
X162490500Y-115475513D01*
X162460940Y-115288881D01*
X162402545Y-115109163D01*
X162316759Y-114940800D01*
X162205690Y-114787927D01*
X162072073Y-114654310D01*
X161919199Y-114543240D01*
X161765611Y-114464983D01*
X161714816Y-114417010D01*
X161698021Y-114349189D01*
X161720558Y-114283054D01*
X161775273Y-114239602D01*
X161821906Y-114230499D01*
X162037872Y-114230499D01*
X162097483Y-114224091D01*
X162232331Y-114173796D01*
X162347546Y-114087546D01*
X162433796Y-113972331D01*
X162484091Y-113837483D01*
X162490500Y-113777873D01*
X162490499Y-112282128D01*
X162484091Y-112222517D01*
X162433796Y-112087669D01*
X162433795Y-112087668D01*
X162433793Y-112087664D01*
X162347547Y-111972455D01*
X162347544Y-111972452D01*
X162232335Y-111886206D01*
X162232328Y-111886202D01*
X162097482Y-111835908D01*
X162097483Y-111835908D01*
X162037883Y-111829501D01*
X162037881Y-111829500D01*
X162037873Y-111829500D01*
X162037864Y-111829500D01*
X160542129Y-111829500D01*
X160542123Y-111829501D01*
X160482516Y-111835908D01*
X160347671Y-111886202D01*
X160347664Y-111886206D01*
X160232455Y-111972452D01*
X160232452Y-111972455D01*
X160146206Y-112087664D01*
X160146202Y-112087671D01*
X160095908Y-112222517D01*
X160089501Y-112282116D01*
X160089501Y-112282123D01*
X160089500Y-112282135D01*
X132010499Y-112282135D01*
X132010499Y-112282128D01*
X132004091Y-112222517D01*
X131953796Y-112087669D01*
X131953795Y-112087668D01*
X131953793Y-112087664D01*
X131867547Y-111972455D01*
X131867544Y-111972452D01*
X131752335Y-111886206D01*
X131752328Y-111886202D01*
X131617482Y-111835908D01*
X131617483Y-111835908D01*
X131557883Y-111829501D01*
X131557881Y-111829500D01*
X131557873Y-111829500D01*
X131557864Y-111829500D01*
X130062129Y-111829500D01*
X130062123Y-111829501D01*
X130002516Y-111835908D01*
X129867671Y-111886202D01*
X129867664Y-111886206D01*
X129752455Y-111972452D01*
X129752452Y-111972455D01*
X129666206Y-112087664D01*
X129666202Y-112087671D01*
X129615908Y-112222517D01*
X129609501Y-112282116D01*
X129609501Y-112282123D01*
X129609500Y-112282135D01*
X127200500Y-112282135D01*
X127200500Y-109923995D01*
X135570499Y-109923995D01*
X135597418Y-110059322D01*
X135597421Y-110059332D01*
X135650221Y-110186804D01*
X135650228Y-110186817D01*
X135726885Y-110301541D01*
X135726888Y-110301545D01*
X135824454Y-110399111D01*
X135824458Y-110399114D01*
X135939182Y-110475771D01*
X135939195Y-110475778D01*
X136066667Y-110528578D01*
X136066672Y-110528580D01*
X136066676Y-110528580D01*
X136066677Y-110528581D01*
X136202004Y-110555500D01*
X136202007Y-110555500D01*
X136339995Y-110555500D01*
X136431041Y-110537389D01*
X136475328Y-110528580D01*
X136602811Y-110475775D01*
X136716610Y-110399736D01*
X136783286Y-110378859D01*
X136850666Y-110397343D01*
X136854374Y-110399726D01*
X136968189Y-110475775D01*
X136968191Y-110475776D01*
X136968195Y-110475778D01*
X137095667Y-110528578D01*
X137095672Y-110528580D01*
X137095676Y-110528580D01*
X137095677Y-110528581D01*
X137231004Y-110555500D01*
X137231007Y-110555500D01*
X137368995Y-110555500D01*
X137460041Y-110537389D01*
X137504328Y-110528580D01*
X137631811Y-110475775D01*
X137746542Y-110399114D01*
X137844114Y-110301542D01*
X137920775Y-110186811D01*
X137973580Y-110059328D01*
X138000500Y-109923993D01*
X138000500Y-109786007D01*
X138000500Y-109786004D01*
X137973581Y-109650677D01*
X137973580Y-109650676D01*
X137973580Y-109650672D01*
X137971850Y-109646495D01*
X148524499Y-109646495D01*
X148551418Y-109781822D01*
X148551421Y-109781832D01*
X148604221Y-109909304D01*
X148604228Y-109909317D01*
X148680885Y-110024041D01*
X148680888Y-110024045D01*
X148778454Y-110121611D01*
X148778458Y-110121614D01*
X148893182Y-110198271D01*
X148893195Y-110198278D01*
X149020667Y-110251078D01*
X149020672Y-110251080D01*
X149020676Y-110251080D01*
X149020677Y-110251081D01*
X149156004Y-110278000D01*
X149156007Y-110278000D01*
X149293995Y-110278000D01*
X149385041Y-110259889D01*
X149429328Y-110251080D01*
X149556811Y-110198275D01*
X149671542Y-110121614D01*
X149769114Y-110024042D01*
X149845775Y-109909311D01*
X149898580Y-109781828D01*
X149925500Y-109646493D01*
X149925500Y-109508507D01*
X149925500Y-109508504D01*
X149898581Y-109373177D01*
X149898580Y-109373176D01*
X149898580Y-109373172D01*
X149898578Y-109373167D01*
X149845778Y-109245695D01*
X149845771Y-109245682D01*
X149769114Y-109130958D01*
X149769111Y-109130954D01*
X149671545Y-109033388D01*
X149671541Y-109033385D01*
X149556817Y-108956728D01*
X149556804Y-108956721D01*
X149429332Y-108903921D01*
X149429322Y-108903918D01*
X149293995Y-108877000D01*
X149293993Y-108877000D01*
X149156007Y-108877000D01*
X149156005Y-108877000D01*
X149020677Y-108903918D01*
X149020667Y-108903921D01*
X148893195Y-108956721D01*
X148893182Y-108956728D01*
X148778458Y-109033385D01*
X148778454Y-109033388D01*
X148680888Y-109130954D01*
X148680885Y-109130958D01*
X148604228Y-109245682D01*
X148604221Y-109245695D01*
X148551421Y-109373167D01*
X148551418Y-109373177D01*
X148524500Y-109508504D01*
X148524500Y-109508507D01*
X148524500Y-109646493D01*
X148524500Y-109646495D01*
X148524499Y-109646495D01*
X137971850Y-109646495D01*
X137922758Y-109527978D01*
X137915290Y-109458511D01*
X137927966Y-109422065D01*
X137930771Y-109416816D01*
X137930775Y-109416811D01*
X137983580Y-109289328D01*
X138005044Y-109181421D01*
X138010500Y-109153995D01*
X138010500Y-109016004D01*
X137983581Y-108880677D01*
X137983580Y-108880676D01*
X137983580Y-108880672D01*
X137945746Y-108789332D01*
X137930778Y-108753195D01*
X137930771Y-108753182D01*
X137864496Y-108653995D01*
X155101999Y-108653995D01*
X155128918Y-108789322D01*
X155128921Y-108789332D01*
X155181721Y-108916804D01*
X155181728Y-108916817D01*
X155258385Y-109031541D01*
X155258388Y-109031545D01*
X155355954Y-109129111D01*
X155355958Y-109129114D01*
X155470682Y-109205771D01*
X155470695Y-109205778D01*
X155598167Y-109258578D01*
X155598172Y-109258580D01*
X155598176Y-109258580D01*
X155598177Y-109258581D01*
X155733504Y-109285500D01*
X155733507Y-109285500D01*
X155871495Y-109285500D01*
X155962541Y-109267389D01*
X156006828Y-109258580D01*
X156134311Y-109205775D01*
X156249042Y-109129114D01*
X156346614Y-109031542D01*
X156423275Y-108916811D01*
X156476080Y-108789328D01*
X156494272Y-108697870D01*
X156503000Y-108653995D01*
X156503000Y-108516004D01*
X156476081Y-108380677D01*
X156476080Y-108380676D01*
X156476080Y-108380672D01*
X156476078Y-108380667D01*
X156423278Y-108253195D01*
X156423271Y-108253182D01*
X156346614Y-108138458D01*
X156346611Y-108138454D01*
X156249045Y-108040888D01*
X156249041Y-108040885D01*
X156134317Y-107964228D01*
X156134304Y-107964221D01*
X156006832Y-107911421D01*
X156006822Y-107911418D01*
X155871495Y-107884500D01*
X155871493Y-107884500D01*
X155733507Y-107884500D01*
X155733505Y-107884500D01*
X155598177Y-107911418D01*
X155598167Y-107911421D01*
X155470695Y-107964221D01*
X155470682Y-107964228D01*
X155355958Y-108040885D01*
X155355954Y-108040888D01*
X155258388Y-108138454D01*
X155258385Y-108138458D01*
X155181728Y-108253182D01*
X155181721Y-108253195D01*
X155128921Y-108380667D01*
X155128918Y-108380677D01*
X155102000Y-108516004D01*
X155102000Y-108516007D01*
X155102000Y-108653993D01*
X155102000Y-108653995D01*
X155101999Y-108653995D01*
X137864496Y-108653995D01*
X137854114Y-108638458D01*
X137854111Y-108638454D01*
X137756545Y-108540888D01*
X137756541Y-108540885D01*
X137641817Y-108464228D01*
X137641804Y-108464221D01*
X137514332Y-108411421D01*
X137514322Y-108411418D01*
X137378995Y-108384500D01*
X137378993Y-108384500D01*
X137241007Y-108384500D01*
X137241005Y-108384500D01*
X137105677Y-108411418D01*
X137105667Y-108411421D01*
X136978195Y-108464221D01*
X136978182Y-108464228D01*
X136863458Y-108540885D01*
X136863454Y-108540888D01*
X136765888Y-108638454D01*
X136765885Y-108638458D01*
X136689228Y-108753182D01*
X136689221Y-108753195D01*
X136636421Y-108880667D01*
X136636418Y-108880677D01*
X136609500Y-109016004D01*
X136609500Y-109057013D01*
X136589815Y-109124052D01*
X136537011Y-109169807D01*
X136467853Y-109179751D01*
X136461309Y-109178630D01*
X136339997Y-109154500D01*
X136339993Y-109154500D01*
X136202007Y-109154500D01*
X136202005Y-109154500D01*
X136066677Y-109181418D01*
X136066667Y-109181421D01*
X135939195Y-109234221D01*
X135939182Y-109234228D01*
X135824458Y-109310885D01*
X135824454Y-109310888D01*
X135726888Y-109408454D01*
X135726885Y-109408458D01*
X135650228Y-109523182D01*
X135650221Y-109523195D01*
X135597421Y-109650667D01*
X135597418Y-109650677D01*
X135570500Y-109786004D01*
X135570500Y-109786007D01*
X135570500Y-109923993D01*
X135570500Y-109923995D01*
X135570499Y-109923995D01*
X127200500Y-109923995D01*
X127200500Y-105315513D01*
X129609500Y-105315513D01*
X129609500Y-105504486D01*
X129639059Y-105691118D01*
X129697454Y-105870836D01*
X129739887Y-105954114D01*
X129783240Y-106039199D01*
X129894310Y-106192073D01*
X130027927Y-106325690D01*
X130142582Y-106408992D01*
X130180802Y-106436761D01*
X130257170Y-106475672D01*
X130328097Y-106511811D01*
X130334386Y-106515015D01*
X130385183Y-106562989D01*
X130401978Y-106630810D01*
X130379441Y-106696945D01*
X130324726Y-106740397D01*
X130278093Y-106749500D01*
X130062130Y-106749500D01*
X130062123Y-106749501D01*
X130002516Y-106755908D01*
X129867671Y-106806202D01*
X129867664Y-106806206D01*
X129752455Y-106892452D01*
X129752452Y-106892455D01*
X129666206Y-107007664D01*
X129666202Y-107007671D01*
X129615908Y-107142517D01*
X129609501Y-107202116D01*
X129609501Y-107202123D01*
X129609500Y-107202135D01*
X129609500Y-108697870D01*
X129609501Y-108697876D01*
X129615908Y-108757483D01*
X129666202Y-108892328D01*
X129666206Y-108892335D01*
X129752452Y-109007544D01*
X129752455Y-109007547D01*
X129867664Y-109093793D01*
X129867671Y-109093797D01*
X130002517Y-109144091D01*
X130002516Y-109144091D01*
X130009444Y-109144835D01*
X130062127Y-109150500D01*
X131557872Y-109150499D01*
X131617483Y-109144091D01*
X131752331Y-109093796D01*
X131867546Y-109007546D01*
X131953796Y-108892331D01*
X132004091Y-108757483D01*
X132010500Y-108697873D01*
X132010499Y-107202128D01*
X132004091Y-107142517D01*
X131998132Y-107126541D01*
X131953797Y-107007671D01*
X131953793Y-107007664D01*
X131867547Y-106892455D01*
X131867544Y-106892452D01*
X131752335Y-106806206D01*
X131752328Y-106806202D01*
X131617482Y-106755908D01*
X131617483Y-106755908D01*
X131557883Y-106749501D01*
X131557881Y-106749500D01*
X131557873Y-106749500D01*
X131557865Y-106749500D01*
X131341909Y-106749500D01*
X131340189Y-106748995D01*
X136459499Y-106748995D01*
X136486418Y-106884322D01*
X136486421Y-106884332D01*
X136539221Y-107011804D01*
X136539228Y-107011817D01*
X136615885Y-107126541D01*
X136615888Y-107126545D01*
X136713454Y-107224111D01*
X136713458Y-107224114D01*
X136828182Y-107300771D01*
X136828195Y-107300778D01*
X136955667Y-107353578D01*
X136955672Y-107353580D01*
X136955676Y-107353580D01*
X136955677Y-107353581D01*
X137091004Y-107380500D01*
X137091007Y-107380500D01*
X137228995Y-107380500D01*
X137320041Y-107362389D01*
X137364328Y-107353580D01*
X137491811Y-107300775D01*
X137606542Y-107224114D01*
X137704114Y-107126542D01*
X137780775Y-107011811D01*
X137833580Y-106884328D01*
X137850949Y-106797010D01*
X137860500Y-106748995D01*
X137860500Y-106611004D01*
X137833581Y-106475677D01*
X137833580Y-106475676D01*
X137833580Y-106475672D01*
X137795746Y-106384332D01*
X137780778Y-106348195D01*
X137780771Y-106348182D01*
X137714496Y-106248995D01*
X154951999Y-106248995D01*
X154978918Y-106384322D01*
X154978921Y-106384332D01*
X155031721Y-106511804D01*
X155031728Y-106511817D01*
X155108385Y-106626541D01*
X155108388Y-106626545D01*
X155205954Y-106724111D01*
X155205958Y-106724114D01*
X155320682Y-106800771D01*
X155320695Y-106800778D01*
X155427417Y-106844983D01*
X155448172Y-106853580D01*
X155448176Y-106853580D01*
X155448177Y-106853581D01*
X155583504Y-106880500D01*
X155583507Y-106880500D01*
X155721495Y-106880500D01*
X155812541Y-106862389D01*
X155856828Y-106853580D01*
X155984311Y-106800775D01*
X156099042Y-106724114D01*
X156196614Y-106626542D01*
X156273275Y-106511811D01*
X156326080Y-106384328D01*
X156353000Y-106248993D01*
X156353000Y-106202035D01*
X156372685Y-106134996D01*
X156425489Y-106089241D01*
X156494647Y-106079297D01*
X156513002Y-106083377D01*
X156513672Y-106083580D01*
X156649004Y-106110500D01*
X156649007Y-106110500D01*
X156786995Y-106110500D01*
X156893868Y-106089241D01*
X156922328Y-106083580D01*
X157049811Y-106030775D01*
X157164542Y-105954114D01*
X157262114Y-105856542D01*
X157338775Y-105741811D01*
X157391580Y-105614328D01*
X157418500Y-105478993D01*
X157418500Y-105341007D01*
X157418500Y-105341004D01*
X157391581Y-105205677D01*
X157391580Y-105205676D01*
X157391580Y-105205672D01*
X157359773Y-105128882D01*
X157338778Y-105078195D01*
X157338771Y-105078182D01*
X157262114Y-104963458D01*
X157262111Y-104963454D01*
X157164545Y-104865888D01*
X157164541Y-104865885D01*
X157049817Y-104789228D01*
X157049804Y-104789221D01*
X157011527Y-104773367D01*
X157011526Y-104773367D01*
X156922328Y-104736420D01*
X156922322Y-104736418D01*
X156786995Y-104709500D01*
X156786993Y-104709500D01*
X156649007Y-104709500D01*
X156649005Y-104709500D01*
X156513677Y-104736418D01*
X156513667Y-104736421D01*
X156386195Y-104789221D01*
X156386182Y-104789228D01*
X156286373Y-104855919D01*
X156219695Y-104876797D01*
X156152315Y-104858312D01*
X156148591Y-104855919D01*
X156148540Y-104855885D01*
X156036170Y-104780801D01*
X156033816Y-104779228D01*
X156033804Y-104779221D01*
X155906332Y-104726421D01*
X155906322Y-104726418D01*
X155770995Y-104699500D01*
X155770993Y-104699500D01*
X155633007Y-104699500D01*
X155633005Y-104699500D01*
X155497677Y-104726418D01*
X155497667Y-104726421D01*
X155370195Y-104779221D01*
X155370182Y-104779228D01*
X155255458Y-104855885D01*
X155255454Y-104855888D01*
X155157888Y-104953454D01*
X155157885Y-104953458D01*
X155081228Y-105068182D01*
X155081221Y-105068195D01*
X155028421Y-105195667D01*
X155028418Y-105195677D01*
X155001500Y-105331004D01*
X155001500Y-105331007D01*
X155001500Y-105468993D01*
X155001500Y-105468995D01*
X155001499Y-105468995D01*
X155028418Y-105604322D01*
X155028420Y-105604328D01*
X155064369Y-105691118D01*
X155066676Y-105696686D01*
X155074145Y-105766156D01*
X155055218Y-105813029D01*
X155031723Y-105848192D01*
X154978921Y-105975667D01*
X154978918Y-105975677D01*
X154952000Y-106111004D01*
X154952000Y-106111007D01*
X154952000Y-106248993D01*
X154952000Y-106248995D01*
X154951999Y-106248995D01*
X137714496Y-106248995D01*
X137704114Y-106233458D01*
X137704111Y-106233454D01*
X137606545Y-106135888D01*
X137606541Y-106135885D01*
X137491817Y-106059228D01*
X137491804Y-106059221D01*
X137364332Y-106006421D01*
X137364322Y-106006418D01*
X137228995Y-105979500D01*
X137228993Y-105979500D01*
X137091007Y-105979500D01*
X137091005Y-105979500D01*
X136955677Y-106006418D01*
X136955667Y-106006421D01*
X136828195Y-106059221D01*
X136828182Y-106059228D01*
X136713458Y-106135885D01*
X136713454Y-106135888D01*
X136615888Y-106233454D01*
X136615885Y-106233458D01*
X136539228Y-106348182D01*
X136539221Y-106348195D01*
X136486421Y-106475667D01*
X136486418Y-106475677D01*
X136459500Y-106611004D01*
X136459500Y-106611007D01*
X136459500Y-106748993D01*
X136459500Y-106748995D01*
X136459499Y-106748995D01*
X131340189Y-106748995D01*
X131335796Y-106747705D01*
X131329535Y-106748881D01*
X131302676Y-106737979D01*
X131274870Y-106729815D01*
X131270698Y-106725001D01*
X131264795Y-106722605D01*
X131248091Y-106698910D01*
X131229115Y-106677011D01*
X131228208Y-106670707D01*
X131224537Y-106665499D01*
X131223295Y-106636539D01*
X131219171Y-106607853D01*
X131221817Y-106602057D01*
X131221545Y-106595693D01*
X131236154Y-106570663D01*
X131248196Y-106544297D01*
X131254361Y-106539472D01*
X131256767Y-106535351D01*
X131285614Y-106515015D01*
X131439199Y-106436760D01*
X131592073Y-106325690D01*
X131725690Y-106192073D01*
X131836760Y-106039199D01*
X131922547Y-105870832D01*
X131980940Y-105691118D01*
X131993102Y-105614332D01*
X132010500Y-105504486D01*
X132010500Y-105315513D01*
X131980940Y-105128881D01*
X131923941Y-104953458D01*
X131922547Y-104949168D01*
X131922545Y-104949165D01*
X131922545Y-104949163D01*
X131875017Y-104855885D01*
X131836760Y-104780801D01*
X131750544Y-104662135D01*
X160089500Y-104662135D01*
X160089500Y-106157870D01*
X160089501Y-106157876D01*
X160095908Y-106217483D01*
X160146202Y-106352328D01*
X160146206Y-106352335D01*
X160232452Y-106467544D01*
X160232455Y-106467547D01*
X160347664Y-106553793D01*
X160347671Y-106553797D01*
X160482517Y-106604091D01*
X160482516Y-106604091D01*
X160489444Y-106604835D01*
X160542127Y-106610500D01*
X160758091Y-106610499D01*
X160825129Y-106630183D01*
X160870884Y-106682987D01*
X160880828Y-106752145D01*
X160851803Y-106815701D01*
X160814385Y-106844983D01*
X160660805Y-106923236D01*
X160558885Y-106997286D01*
X160507927Y-107034310D01*
X160507925Y-107034312D01*
X160507924Y-107034312D01*
X160374312Y-107167924D01*
X160374312Y-107167925D01*
X160374310Y-107167927D01*
X160333490Y-107224111D01*
X160263240Y-107320800D01*
X160177454Y-107489163D01*
X160119059Y-107668881D01*
X160089500Y-107855513D01*
X160089500Y-108044486D01*
X160119059Y-108231118D01*
X160177454Y-108410836D01*
X160263240Y-108579199D01*
X160374310Y-108732073D01*
X160507927Y-108865690D01*
X160660801Y-108976760D01*
X160721218Y-109007544D01*
X160829163Y-109062545D01*
X160829165Y-109062545D01*
X160829168Y-109062547D01*
X160925333Y-109093793D01*
X161008881Y-109120940D01*
X161195514Y-109150500D01*
X161195519Y-109150500D01*
X161384486Y-109150500D01*
X161571118Y-109120940D01*
X161750832Y-109062547D01*
X161919199Y-108976760D01*
X162072073Y-108865690D01*
X162205690Y-108732073D01*
X162316760Y-108579199D01*
X162402547Y-108410832D01*
X162460940Y-108231118D01*
X162475616Y-108138458D01*
X162490500Y-108044486D01*
X162490500Y-107855513D01*
X162460940Y-107668881D01*
X162402545Y-107489163D01*
X162333462Y-107353581D01*
X162316760Y-107320801D01*
X162205690Y-107167927D01*
X162072073Y-107034310D01*
X161919199Y-106923240D01*
X161765611Y-106844983D01*
X161714816Y-106797010D01*
X161698021Y-106729189D01*
X161720558Y-106663054D01*
X161775273Y-106619602D01*
X161821906Y-106610499D01*
X162037872Y-106610499D01*
X162097483Y-106604091D01*
X162232331Y-106553796D01*
X162347546Y-106467546D01*
X162433796Y-106352331D01*
X162484091Y-106217483D01*
X162490500Y-106157873D01*
X162490499Y-104662128D01*
X162484091Y-104602517D01*
X162443732Y-104494310D01*
X162433797Y-104467671D01*
X162433793Y-104467664D01*
X162347547Y-104352455D01*
X162347544Y-104352452D01*
X162232335Y-104266206D01*
X162232328Y-104266202D01*
X162097482Y-104215908D01*
X162097483Y-104215908D01*
X162037883Y-104209501D01*
X162037881Y-104209500D01*
X162037873Y-104209500D01*
X162037864Y-104209500D01*
X160542129Y-104209500D01*
X160542123Y-104209501D01*
X160482516Y-104215908D01*
X160347671Y-104266202D01*
X160347664Y-104266206D01*
X160232455Y-104352452D01*
X160232452Y-104352455D01*
X160146206Y-104467664D01*
X160146202Y-104467671D01*
X160095908Y-104602517D01*
X160089501Y-104662116D01*
X160089501Y-104662123D01*
X160089500Y-104662135D01*
X131750544Y-104662135D01*
X131725690Y-104627927D01*
X131592073Y-104494310D01*
X131439199Y-104383240D01*
X131270836Y-104297454D01*
X131091118Y-104239059D01*
X130904486Y-104209500D01*
X130904481Y-104209500D01*
X130715519Y-104209500D01*
X130715514Y-104209500D01*
X130528881Y-104239059D01*
X130349163Y-104297454D01*
X130180800Y-104383240D01*
X130093579Y-104446610D01*
X130027927Y-104494310D01*
X130027925Y-104494312D01*
X130027924Y-104494312D01*
X129894312Y-104627924D01*
X129894312Y-104627925D01*
X129894310Y-104627927D01*
X129846610Y-104693579D01*
X129783240Y-104780800D01*
X129697454Y-104949163D01*
X129639059Y-105128881D01*
X129609500Y-105315513D01*
X127200500Y-105315513D01*
X127200500Y-98965513D01*
X147929500Y-98965513D01*
X147929500Y-99154486D01*
X147959059Y-99341118D01*
X148017454Y-99520836D01*
X148103240Y-99689199D01*
X148214310Y-99842073D01*
X148214312Y-99842075D01*
X148344556Y-99972319D01*
X148378041Y-100033642D01*
X148373057Y-100103334D01*
X148344556Y-100147681D01*
X148214312Y-100277924D01*
X148214312Y-100277925D01*
X148214310Y-100277927D01*
X148196052Y-100303057D01*
X148103240Y-100430800D01*
X148017454Y-100599163D01*
X147959059Y-100778881D01*
X147929500Y-100965513D01*
X147929500Y-101154486D01*
X147959059Y-101341118D01*
X148017454Y-101520836D01*
X148103240Y-101689199D01*
X148214310Y-101842073D01*
X148347927Y-101975690D01*
X148500801Y-102086760D01*
X148580347Y-102127290D01*
X148669163Y-102172545D01*
X148669165Y-102172545D01*
X148669168Y-102172547D01*
X148765497Y-102203846D01*
X148848881Y-102230940D01*
X149035514Y-102260500D01*
X149035519Y-102260500D01*
X149224486Y-102260500D01*
X149411118Y-102230940D01*
X149590832Y-102172547D01*
X149759199Y-102086760D01*
X149912073Y-101975690D01*
X150042319Y-101845444D01*
X150103642Y-101811959D01*
X150173334Y-101816943D01*
X150217681Y-101845444D01*
X150347927Y-101975690D01*
X150500801Y-102086760D01*
X150580347Y-102127290D01*
X150669163Y-102172545D01*
X150669165Y-102172545D01*
X150669168Y-102172547D01*
X150765497Y-102203846D01*
X150848881Y-102230940D01*
X151035514Y-102260500D01*
X151035519Y-102260500D01*
X151224486Y-102260500D01*
X151411118Y-102230940D01*
X151590832Y-102172547D01*
X151759199Y-102086760D01*
X151912073Y-101975690D01*
X152045690Y-101842073D01*
X152156760Y-101689199D01*
X152242547Y-101520832D01*
X152300940Y-101341118D01*
X152330500Y-101154486D01*
X152330500Y-100965513D01*
X152300940Y-100778881D01*
X152242545Y-100599163D01*
X152156759Y-100430800D01*
X152045690Y-100277927D01*
X151915444Y-100147681D01*
X151881959Y-100086358D01*
X151886943Y-100016666D01*
X151915444Y-99972319D01*
X152045690Y-99842073D01*
X152156760Y-99689199D01*
X152242547Y-99520832D01*
X152300940Y-99341118D01*
X152330500Y-99154486D01*
X152330500Y-98965513D01*
X152300940Y-98778881D01*
X152242545Y-98599163D01*
X152156759Y-98430800D01*
X152092041Y-98341724D01*
X152068561Y-98275918D01*
X152084386Y-98207864D01*
X152118044Y-98169574D01*
X152187546Y-98117546D01*
X152273796Y-98002331D01*
X152324091Y-97867483D01*
X152330500Y-97807873D01*
X152330499Y-96312128D01*
X152324091Y-96252517D01*
X152274369Y-96119206D01*
X152273797Y-96117671D01*
X152273793Y-96117664D01*
X152187547Y-96002455D01*
X152187544Y-96002452D01*
X152122814Y-95953995D01*
X156501999Y-95953995D01*
X156528918Y-96089322D01*
X156528921Y-96089332D01*
X156581721Y-96216804D01*
X156581728Y-96216817D01*
X156658385Y-96331541D01*
X156658388Y-96331545D01*
X156755954Y-96429111D01*
X156755958Y-96429114D01*
X156870682Y-96505771D01*
X156870695Y-96505778D01*
X156998167Y-96558578D01*
X156998172Y-96558580D01*
X156998176Y-96558580D01*
X156998177Y-96558581D01*
X157133504Y-96585500D01*
X157133507Y-96585500D01*
X157271495Y-96585500D01*
X157362541Y-96567389D01*
X157406828Y-96558580D01*
X157534311Y-96505775D01*
X157649042Y-96429114D01*
X157746614Y-96331542D01*
X157823275Y-96216811D01*
X157876080Y-96089328D01*
X157893360Y-96002455D01*
X157903000Y-95953995D01*
X157903000Y-95816004D01*
X157876081Y-95680677D01*
X157876080Y-95680676D01*
X157876080Y-95680672D01*
X157835128Y-95581804D01*
X157823278Y-95553195D01*
X157823271Y-95553182D01*
X157746614Y-95438458D01*
X157746611Y-95438454D01*
X157649045Y-95340888D01*
X157649041Y-95340885D01*
X157534317Y-95264228D01*
X157534304Y-95264221D01*
X157406832Y-95211421D01*
X157406822Y-95211418D01*
X157271495Y-95184500D01*
X157271493Y-95184500D01*
X157133507Y-95184500D01*
X157133505Y-95184500D01*
X156998177Y-95211418D01*
X156998167Y-95211421D01*
X156870695Y-95264221D01*
X156870682Y-95264228D01*
X156755958Y-95340885D01*
X156755954Y-95340888D01*
X156658388Y-95438454D01*
X156658385Y-95438458D01*
X156581728Y-95553182D01*
X156581721Y-95553195D01*
X156528921Y-95680667D01*
X156528918Y-95680677D01*
X156502000Y-95816004D01*
X156502000Y-95816007D01*
X156502000Y-95953993D01*
X156502000Y-95953995D01*
X156501999Y-95953995D01*
X152122814Y-95953995D01*
X152072335Y-95916206D01*
X152072328Y-95916202D01*
X151937482Y-95865908D01*
X151937483Y-95865908D01*
X151877883Y-95859501D01*
X151877881Y-95859500D01*
X151877873Y-95859500D01*
X151877864Y-95859500D01*
X150382129Y-95859500D01*
X150382123Y-95859501D01*
X150322516Y-95865908D01*
X150187671Y-95916202D01*
X150187664Y-95916206D01*
X150072455Y-96002452D01*
X150020128Y-96072352D01*
X149964194Y-96114222D01*
X149894502Y-96119206D01*
X149847977Y-96098358D01*
X149758940Y-96033670D01*
X149590637Y-95947914D01*
X149411002Y-95889548D01*
X149224447Y-95860000D01*
X149035553Y-95860000D01*
X148848997Y-95889548D01*
X148669362Y-95947914D01*
X148501060Y-96033669D01*
X148475670Y-96052116D01*
X148475669Y-96052116D01*
X149133553Y-96710000D01*
X149083922Y-96710000D01*
X148994905Y-96733852D01*
X148915095Y-96779930D01*
X148849930Y-96845095D01*
X148803852Y-96924905D01*
X148780000Y-97013922D01*
X148780000Y-97106078D01*
X148803852Y-97195095D01*
X148849930Y-97274905D01*
X148915095Y-97340070D01*
X148994905Y-97386148D01*
X149083922Y-97410000D01*
X149133552Y-97410000D01*
X148534083Y-98009469D01*
X148504931Y-98030651D01*
X148504957Y-98030693D01*
X148504435Y-98031012D01*
X148502712Y-98032265D01*
X148500810Y-98033234D01*
X148500803Y-98033238D01*
X148424364Y-98088775D01*
X148347927Y-98144310D01*
X148347925Y-98144312D01*
X148347924Y-98144312D01*
X148214312Y-98277924D01*
X148214312Y-98277925D01*
X148214310Y-98277927D01*
X148167959Y-98341724D01*
X148103240Y-98430800D01*
X148017454Y-98599163D01*
X147959059Y-98778881D01*
X147929500Y-98965513D01*
X127200500Y-98965513D01*
X127200500Y-96965552D01*
X147930000Y-96965552D01*
X147930000Y-97154447D01*
X147959548Y-97341002D01*
X148017914Y-97520637D01*
X148103666Y-97688933D01*
X148122116Y-97714328D01*
X148776446Y-97060000D01*
X148776446Y-97059999D01*
X148122116Y-96405669D01*
X148122116Y-96405670D01*
X148103669Y-96431060D01*
X148017914Y-96599362D01*
X147959548Y-96778997D01*
X147930000Y-96965552D01*
X127200500Y-96965552D01*
X127200500Y-95953995D01*
X134196999Y-95953995D01*
X134223918Y-96089322D01*
X134223921Y-96089332D01*
X134276721Y-96216804D01*
X134276728Y-96216817D01*
X134353385Y-96331541D01*
X134353388Y-96331545D01*
X134450954Y-96429111D01*
X134450958Y-96429114D01*
X134565682Y-96505771D01*
X134565695Y-96505778D01*
X134693167Y-96558578D01*
X134693172Y-96558580D01*
X134693176Y-96558580D01*
X134693177Y-96558581D01*
X134828504Y-96585500D01*
X134828507Y-96585500D01*
X134966495Y-96585500D01*
X135057541Y-96567389D01*
X135101828Y-96558580D01*
X135229311Y-96505775D01*
X135344042Y-96429114D01*
X135441614Y-96331542D01*
X135518275Y-96216811D01*
X135571080Y-96089328D01*
X135588360Y-96002455D01*
X135598000Y-95953995D01*
X135598000Y-95816004D01*
X135571081Y-95680677D01*
X135571080Y-95680676D01*
X135571080Y-95680672D01*
X135530128Y-95581804D01*
X135518278Y-95553195D01*
X135518271Y-95553182D01*
X135441614Y-95438458D01*
X135441611Y-95438454D01*
X135344045Y-95340888D01*
X135344041Y-95340885D01*
X135311281Y-95318995D01*
X139699499Y-95318995D01*
X139726418Y-95454322D01*
X139726421Y-95454332D01*
X139779221Y-95581804D01*
X139779228Y-95581817D01*
X139855885Y-95696541D01*
X139855888Y-95696545D01*
X139953454Y-95794111D01*
X139953458Y-95794114D01*
X140068182Y-95870771D01*
X140068195Y-95870778D01*
X140195667Y-95923578D01*
X140195672Y-95923580D01*
X140195676Y-95923580D01*
X140195677Y-95923581D01*
X140331004Y-95950500D01*
X140331007Y-95950500D01*
X140468995Y-95950500D01*
X140560041Y-95932389D01*
X140604328Y-95923580D01*
X140731811Y-95870775D01*
X140846542Y-95794114D01*
X140944114Y-95696542D01*
X141020775Y-95581811D01*
X141073580Y-95454328D01*
X141096145Y-95340886D01*
X141100500Y-95318995D01*
X141100500Y-95181004D01*
X141073581Y-95045677D01*
X141073580Y-95045676D01*
X141073580Y-95045672D01*
X141073578Y-95045667D01*
X141020778Y-94918195D01*
X141020771Y-94918182D01*
X140944114Y-94803458D01*
X140944111Y-94803454D01*
X140846545Y-94705888D01*
X140846541Y-94705885D01*
X140731817Y-94629228D01*
X140731804Y-94629221D01*
X140604332Y-94576421D01*
X140604322Y-94576418D01*
X140468995Y-94549500D01*
X140468993Y-94549500D01*
X140331007Y-94549500D01*
X140331005Y-94549500D01*
X140195677Y-94576418D01*
X140195667Y-94576421D01*
X140068195Y-94629221D01*
X140068182Y-94629228D01*
X139953458Y-94705885D01*
X139953454Y-94705888D01*
X139855888Y-94803454D01*
X139855885Y-94803458D01*
X139779228Y-94918182D01*
X139779221Y-94918195D01*
X139726421Y-95045667D01*
X139726418Y-95045677D01*
X139699500Y-95181004D01*
X139699500Y-95181007D01*
X139699500Y-95318993D01*
X139699500Y-95318995D01*
X139699499Y-95318995D01*
X135311281Y-95318995D01*
X135249953Y-95278017D01*
X135229317Y-95264228D01*
X135229304Y-95264221D01*
X135101832Y-95211421D01*
X135101822Y-95211418D01*
X134966495Y-95184500D01*
X134966493Y-95184500D01*
X134828507Y-95184500D01*
X134828505Y-95184500D01*
X134693177Y-95211418D01*
X134693167Y-95211421D01*
X134565695Y-95264221D01*
X134565682Y-95264228D01*
X134450958Y-95340885D01*
X134450954Y-95340888D01*
X134353388Y-95438454D01*
X134353385Y-95438458D01*
X134276728Y-95553182D01*
X134276721Y-95553195D01*
X134223921Y-95680667D01*
X134223918Y-95680677D01*
X134197000Y-95816004D01*
X134197000Y-95816007D01*
X134197000Y-95953993D01*
X134197000Y-95953995D01*
X134196999Y-95953995D01*
X127200500Y-95953995D01*
X127200500Y-86265513D01*
X129609500Y-86265513D01*
X129609500Y-86454486D01*
X129639059Y-86641118D01*
X129697454Y-86820836D01*
X129783240Y-86989199D01*
X129894310Y-87142073D01*
X130027927Y-87275690D01*
X130180801Y-87386760D01*
X130214623Y-87403993D01*
X130349163Y-87472545D01*
X130349165Y-87472545D01*
X130349168Y-87472547D01*
X130438734Y-87501649D01*
X130470803Y-87512069D01*
X130528478Y-87551507D01*
X130555676Y-87615866D01*
X130543761Y-87684712D01*
X130496516Y-87736188D01*
X130470803Y-87747931D01*
X130349163Y-87787454D01*
X130180800Y-87873240D01*
X130093579Y-87936610D01*
X130027927Y-87984310D01*
X130027925Y-87984312D01*
X130027924Y-87984312D01*
X129894312Y-88117924D01*
X129894312Y-88117925D01*
X129894310Y-88117927D01*
X129846610Y-88183579D01*
X129783240Y-88270800D01*
X129697454Y-88439163D01*
X129639059Y-88618881D01*
X129609500Y-88805513D01*
X129609500Y-88994486D01*
X129639059Y-89181118D01*
X129697454Y-89360836D01*
X129783240Y-89529199D01*
X129894310Y-89682073D01*
X130027927Y-89815690D01*
X130142582Y-89898992D01*
X130180802Y-89926761D01*
X130334386Y-90005015D01*
X130385183Y-90052989D01*
X130401978Y-90120810D01*
X130379441Y-90186945D01*
X130324726Y-90230397D01*
X130278093Y-90239500D01*
X130062130Y-90239500D01*
X130062123Y-90239501D01*
X130002516Y-90245908D01*
X129867671Y-90296202D01*
X129867664Y-90296206D01*
X129752455Y-90382452D01*
X129752452Y-90382455D01*
X129666206Y-90497664D01*
X129666202Y-90497671D01*
X129615908Y-90632517D01*
X129612646Y-90662863D01*
X129609501Y-90692123D01*
X129609500Y-90692135D01*
X129609500Y-92187870D01*
X129609501Y-92187876D01*
X129615908Y-92247483D01*
X129666202Y-92382328D01*
X129666206Y-92382335D01*
X129752452Y-92497544D01*
X129752455Y-92497547D01*
X129867664Y-92583793D01*
X129867671Y-92583797D01*
X130002517Y-92634091D01*
X130002516Y-92634091D01*
X130009444Y-92634835D01*
X130062127Y-92640500D01*
X131557872Y-92640499D01*
X131617483Y-92634091D01*
X131752331Y-92583796D01*
X131867546Y-92497546D01*
X131953796Y-92382331D01*
X132004091Y-92247483D01*
X132010500Y-92187873D01*
X132010500Y-91538543D01*
X136159499Y-91538543D01*
X136197947Y-91731829D01*
X136197950Y-91731839D01*
X136273364Y-91913907D01*
X136273371Y-91913920D01*
X136382860Y-92077781D01*
X136382863Y-92077785D01*
X136522214Y-92217136D01*
X136522218Y-92217139D01*
X136686079Y-92326628D01*
X136686092Y-92326635D01*
X136820549Y-92382328D01*
X136868165Y-92402051D01*
X136868169Y-92402051D01*
X136868170Y-92402052D01*
X137061456Y-92440500D01*
X137061459Y-92440500D01*
X137258543Y-92440500D01*
X137388582Y-92414632D01*
X137451835Y-92402051D01*
X137633914Y-92326632D01*
X137797782Y-92217139D01*
X137870926Y-92143995D01*
X139406999Y-92143995D01*
X139433918Y-92279322D01*
X139433921Y-92279332D01*
X139486721Y-92406804D01*
X139486728Y-92406817D01*
X139563385Y-92521541D01*
X139563388Y-92521545D01*
X139660954Y-92619111D01*
X139660958Y-92619114D01*
X139775682Y-92695771D01*
X139775695Y-92695778D01*
X139903167Y-92748578D01*
X139903172Y-92748580D01*
X139903176Y-92748580D01*
X139903177Y-92748581D01*
X140038504Y-92775500D01*
X140038507Y-92775500D01*
X140176495Y-92775500D01*
X140267541Y-92757389D01*
X140311828Y-92748580D01*
X140439311Y-92695775D01*
X140554042Y-92619114D01*
X140651614Y-92521542D01*
X140728275Y-92406811D01*
X140730248Y-92402049D01*
X140781078Y-92279332D01*
X140781080Y-92279328D01*
X140799272Y-92187870D01*
X140808000Y-92143995D01*
X143216999Y-92143995D01*
X143243918Y-92279322D01*
X143243921Y-92279332D01*
X143296721Y-92406804D01*
X143296728Y-92406817D01*
X143373385Y-92521541D01*
X143373388Y-92521545D01*
X143470954Y-92619111D01*
X143470958Y-92619114D01*
X143585682Y-92695771D01*
X143585695Y-92695778D01*
X143713167Y-92748578D01*
X143713172Y-92748580D01*
X143713176Y-92748580D01*
X143713177Y-92748581D01*
X143848504Y-92775500D01*
X143848507Y-92775500D01*
X143986495Y-92775500D01*
X144077541Y-92757389D01*
X144121828Y-92748580D01*
X144249311Y-92695775D01*
X144364042Y-92619114D01*
X144461614Y-92521542D01*
X144538275Y-92406811D01*
X144540248Y-92402049D01*
X144591078Y-92279332D01*
X144591080Y-92279328D01*
X144609272Y-92187870D01*
X144618000Y-92143995D01*
X144618000Y-92006004D01*
X144591081Y-91870677D01*
X144591080Y-91870676D01*
X144591080Y-91870672D01*
X144591078Y-91870667D01*
X144538278Y-91743195D01*
X144538271Y-91743182D01*
X144461614Y-91628458D01*
X144461611Y-91628454D01*
X144371700Y-91538543D01*
X148859499Y-91538543D01*
X148897947Y-91731829D01*
X148897950Y-91731839D01*
X148973364Y-91913907D01*
X148973371Y-91913920D01*
X149082860Y-92077781D01*
X149082863Y-92077785D01*
X149222214Y-92217136D01*
X149222218Y-92217139D01*
X149386079Y-92326628D01*
X149386092Y-92326635D01*
X149520549Y-92382328D01*
X149568165Y-92402051D01*
X149568169Y-92402051D01*
X149568170Y-92402052D01*
X149761456Y-92440500D01*
X149761459Y-92440500D01*
X149958543Y-92440500D01*
X150088582Y-92414632D01*
X150151835Y-92402051D01*
X150333914Y-92326632D01*
X150497782Y-92217139D01*
X150637139Y-92077782D01*
X150746632Y-91913914D01*
X150822051Y-91731835D01*
X150860500Y-91538543D01*
X153939499Y-91538543D01*
X153977947Y-91731829D01*
X153977950Y-91731839D01*
X154053364Y-91913907D01*
X154053371Y-91913920D01*
X154162860Y-92077781D01*
X154162863Y-92077785D01*
X154302214Y-92217136D01*
X154302218Y-92217139D01*
X154466079Y-92326628D01*
X154466092Y-92326635D01*
X154600549Y-92382328D01*
X154648165Y-92402051D01*
X154648169Y-92402051D01*
X154648170Y-92402052D01*
X154841456Y-92440500D01*
X154841459Y-92440500D01*
X155038543Y-92440500D01*
X155168582Y-92414632D01*
X155231835Y-92402051D01*
X155413914Y-92326632D01*
X155577782Y-92217139D01*
X155717139Y-92077782D01*
X155826632Y-91913914D01*
X155902051Y-91731835D01*
X155940500Y-91538541D01*
X155940500Y-91341459D01*
X155940500Y-91341456D01*
X155902052Y-91148170D01*
X155902051Y-91148169D01*
X155902051Y-91148165D01*
X155902049Y-91148160D01*
X155826635Y-90966092D01*
X155826628Y-90966079D01*
X155717139Y-90802218D01*
X155717136Y-90802214D01*
X155577785Y-90662863D01*
X155577781Y-90662860D01*
X155413920Y-90553371D01*
X155413907Y-90553364D01*
X155231839Y-90477950D01*
X155231829Y-90477947D01*
X155038543Y-90439500D01*
X155038541Y-90439500D01*
X154841459Y-90439500D01*
X154841457Y-90439500D01*
X154648170Y-90477947D01*
X154648160Y-90477950D01*
X154466092Y-90553364D01*
X154466079Y-90553371D01*
X154302218Y-90662860D01*
X154302214Y-90662863D01*
X154162863Y-90802214D01*
X154162860Y-90802218D01*
X154053371Y-90966079D01*
X154053364Y-90966092D01*
X153977950Y-91148160D01*
X153977947Y-91148170D01*
X153939500Y-91341456D01*
X153939500Y-91341459D01*
X153939500Y-91538541D01*
X153939500Y-91538543D01*
X153939499Y-91538543D01*
X150860500Y-91538543D01*
X150860500Y-91538541D01*
X150860500Y-91341459D01*
X150860500Y-91341456D01*
X150822052Y-91148170D01*
X150822051Y-91148169D01*
X150822051Y-91148165D01*
X150822049Y-91148160D01*
X150746635Y-90966092D01*
X150746628Y-90966079D01*
X150637139Y-90802218D01*
X150637136Y-90802214D01*
X150497785Y-90662863D01*
X150497781Y-90662860D01*
X150333920Y-90553371D01*
X150333907Y-90553364D01*
X150151839Y-90477950D01*
X150151829Y-90477947D01*
X149958543Y-90439500D01*
X149958541Y-90439500D01*
X149761459Y-90439500D01*
X149761457Y-90439500D01*
X149568170Y-90477947D01*
X149568160Y-90477950D01*
X149386092Y-90553364D01*
X149386079Y-90553371D01*
X149222218Y-90662860D01*
X149222214Y-90662863D01*
X149082863Y-90802214D01*
X149082860Y-90802218D01*
X148973371Y-90966079D01*
X148973364Y-90966092D01*
X148897950Y-91148160D01*
X148897947Y-91148170D01*
X148859500Y-91341456D01*
X148859500Y-91341459D01*
X148859500Y-91538541D01*
X148859500Y-91538543D01*
X148859499Y-91538543D01*
X144371700Y-91538543D01*
X144364045Y-91530888D01*
X144364041Y-91530885D01*
X144249317Y-91454228D01*
X144249310Y-91454224D01*
X144241654Y-91451053D01*
X144238938Y-91449928D01*
X144238937Y-91449927D01*
X144121832Y-91401421D01*
X144121822Y-91401418D01*
X143986495Y-91374500D01*
X143986493Y-91374500D01*
X143848507Y-91374500D01*
X143848505Y-91374500D01*
X143713177Y-91401418D01*
X143713167Y-91401421D01*
X143585695Y-91454221D01*
X143585682Y-91454228D01*
X143470958Y-91530885D01*
X143470954Y-91530888D01*
X143373388Y-91628454D01*
X143373385Y-91628458D01*
X143296728Y-91743182D01*
X143296721Y-91743195D01*
X143243921Y-91870667D01*
X143243918Y-91870677D01*
X143217000Y-92006004D01*
X143217000Y-92006007D01*
X143217000Y-92143993D01*
X143217000Y-92143995D01*
X143216999Y-92143995D01*
X140808000Y-92143995D01*
X140808000Y-92006004D01*
X140781081Y-91870677D01*
X140781080Y-91870676D01*
X140781080Y-91870672D01*
X140781078Y-91870667D01*
X140728278Y-91743195D01*
X140728271Y-91743182D01*
X140651614Y-91628458D01*
X140651611Y-91628454D01*
X140554045Y-91530888D01*
X140554041Y-91530885D01*
X140439317Y-91454228D01*
X140439304Y-91454221D01*
X140311832Y-91401421D01*
X140311822Y-91401418D01*
X140176495Y-91374500D01*
X140176493Y-91374500D01*
X140038507Y-91374500D01*
X140038505Y-91374500D01*
X139903177Y-91401418D01*
X139903167Y-91401421D01*
X139775695Y-91454221D01*
X139775682Y-91454228D01*
X139660958Y-91530885D01*
X139660954Y-91530888D01*
X139563388Y-91628454D01*
X139563385Y-91628458D01*
X139486728Y-91743182D01*
X139486721Y-91743195D01*
X139433921Y-91870667D01*
X139433918Y-91870677D01*
X139407000Y-92006004D01*
X139407000Y-92006007D01*
X139407000Y-92143993D01*
X139407000Y-92143995D01*
X139406999Y-92143995D01*
X137870926Y-92143995D01*
X137937139Y-92077782D01*
X137991990Y-91995691D01*
X138035200Y-91931024D01*
X138046628Y-91913920D01*
X138046628Y-91913919D01*
X138046632Y-91913914D01*
X138122051Y-91731835D01*
X138160500Y-91538541D01*
X138160500Y-91341459D01*
X138160500Y-91341456D01*
X138122052Y-91148170D01*
X138122051Y-91148169D01*
X138122051Y-91148165D01*
X138122049Y-91148160D01*
X138046635Y-90966092D01*
X138046628Y-90966079D01*
X137937139Y-90802218D01*
X137937136Y-90802214D01*
X137797785Y-90662863D01*
X137797781Y-90662860D01*
X137633920Y-90553371D01*
X137633907Y-90553364D01*
X137451839Y-90477950D01*
X137451829Y-90477947D01*
X137258543Y-90439500D01*
X137258541Y-90439500D01*
X137061459Y-90439500D01*
X137061457Y-90439500D01*
X136868170Y-90477947D01*
X136868160Y-90477950D01*
X136686092Y-90553364D01*
X136686079Y-90553371D01*
X136522218Y-90662860D01*
X136522214Y-90662863D01*
X136382863Y-90802214D01*
X136382860Y-90802218D01*
X136273371Y-90966079D01*
X136273364Y-90966092D01*
X136197950Y-91148160D01*
X136197947Y-91148170D01*
X136159500Y-91341456D01*
X136159500Y-91341459D01*
X136159500Y-91538541D01*
X136159500Y-91538543D01*
X136159499Y-91538543D01*
X132010500Y-91538543D01*
X132010499Y-90692128D01*
X132004091Y-90632517D01*
X131974571Y-90553371D01*
X131953797Y-90497671D01*
X131953793Y-90497664D01*
X131867547Y-90382455D01*
X131867544Y-90382452D01*
X131752335Y-90296206D01*
X131752328Y-90296202D01*
X131617482Y-90245908D01*
X131617483Y-90245908D01*
X131557883Y-90239501D01*
X131557881Y-90239500D01*
X131557873Y-90239500D01*
X131557865Y-90239500D01*
X131341909Y-90239500D01*
X131274870Y-90219815D01*
X131229115Y-90167011D01*
X131219171Y-90097853D01*
X131248196Y-90034297D01*
X131285614Y-90005015D01*
X131439199Y-89926760D01*
X131592073Y-89815690D01*
X131725690Y-89682073D01*
X131836760Y-89529199D01*
X131922547Y-89360832D01*
X131980940Y-89181118D01*
X132010500Y-88994486D01*
X132010500Y-88805513D01*
X131980940Y-88618881D01*
X131922545Y-88439163D01*
X131836759Y-88270800D01*
X131725690Y-88117927D01*
X131592073Y-87984310D01*
X131439199Y-87873240D01*
X131270836Y-87787454D01*
X131196472Y-87763291D01*
X131149195Y-87747930D01*
X131091521Y-87708493D01*
X131064323Y-87644134D01*
X131076238Y-87575288D01*
X131123482Y-87523812D01*
X131149194Y-87512069D01*
X131270832Y-87472547D01*
X131405373Y-87403995D01*
X143236999Y-87403995D01*
X143263918Y-87539322D01*
X143263921Y-87539332D01*
X143316721Y-87666804D01*
X143316728Y-87666817D01*
X143393385Y-87781541D01*
X143393388Y-87781545D01*
X143490954Y-87879111D01*
X143490958Y-87879114D01*
X143605682Y-87955771D01*
X143605695Y-87955778D01*
X143733167Y-88008578D01*
X143733172Y-88008580D01*
X143733176Y-88008580D01*
X143733177Y-88008581D01*
X143868504Y-88035500D01*
X143868507Y-88035500D01*
X144006495Y-88035500D01*
X144097541Y-88017389D01*
X144141828Y-88008580D01*
X144269311Y-87955775D01*
X144384042Y-87879114D01*
X144481614Y-87781542D01*
X144558275Y-87666811D01*
X144611080Y-87539328D01*
X144638000Y-87403993D01*
X144638000Y-87266007D01*
X144638000Y-87266004D01*
X144611081Y-87130677D01*
X144611080Y-87130676D01*
X144611080Y-87130672D01*
X144611078Y-87130667D01*
X144558278Y-87003195D01*
X144558271Y-87003182D01*
X144481614Y-86888458D01*
X144481611Y-86888454D01*
X144384045Y-86790888D01*
X144384041Y-86790885D01*
X144269317Y-86714228D01*
X144269304Y-86714221D01*
X144141832Y-86661421D01*
X144141822Y-86661418D01*
X144006495Y-86634500D01*
X144006493Y-86634500D01*
X143868507Y-86634500D01*
X143868505Y-86634500D01*
X143733177Y-86661418D01*
X143733167Y-86661421D01*
X143605695Y-86714221D01*
X143605682Y-86714228D01*
X143490958Y-86790885D01*
X143490954Y-86790888D01*
X143393388Y-86888454D01*
X143393385Y-86888458D01*
X143316728Y-87003182D01*
X143316721Y-87003195D01*
X143263921Y-87130667D01*
X143263918Y-87130677D01*
X143237000Y-87266004D01*
X143237000Y-87266007D01*
X143237000Y-87403993D01*
X143237000Y-87403995D01*
X143236999Y-87403995D01*
X131405373Y-87403995D01*
X131439199Y-87386760D01*
X131592073Y-87275690D01*
X131725690Y-87142073D01*
X131836760Y-86989199D01*
X131922547Y-86820832D01*
X131980940Y-86641118D01*
X132009857Y-86458543D01*
X136159499Y-86458543D01*
X136197947Y-86651829D01*
X136197950Y-86651839D01*
X136273364Y-86833907D01*
X136273371Y-86833920D01*
X136382860Y-86997781D01*
X136382863Y-86997785D01*
X136522214Y-87137136D01*
X136522218Y-87137139D01*
X136686079Y-87246628D01*
X136686092Y-87246635D01*
X136868160Y-87322049D01*
X136868165Y-87322051D01*
X136868169Y-87322051D01*
X136868170Y-87322052D01*
X137061456Y-87360500D01*
X137061459Y-87360500D01*
X137258543Y-87360500D01*
X137388582Y-87334632D01*
X137451835Y-87322051D01*
X137633914Y-87246632D01*
X137797782Y-87137139D01*
X137937139Y-86997782D01*
X138046632Y-86833914D01*
X138122051Y-86651835D01*
X138160500Y-86458543D01*
X153939499Y-86458543D01*
X153977947Y-86651829D01*
X153977950Y-86651839D01*
X154053364Y-86833907D01*
X154053371Y-86833920D01*
X154162860Y-86997781D01*
X154162863Y-86997785D01*
X154302214Y-87137136D01*
X154302218Y-87137139D01*
X154466079Y-87246628D01*
X154466092Y-87246635D01*
X154648160Y-87322049D01*
X154648165Y-87322051D01*
X154648169Y-87322051D01*
X154648170Y-87322052D01*
X154841456Y-87360500D01*
X154841459Y-87360500D01*
X155038543Y-87360500D01*
X155168582Y-87334632D01*
X155231835Y-87322051D01*
X155413914Y-87246632D01*
X155577782Y-87137139D01*
X155717139Y-86997782D01*
X155826632Y-86833914D01*
X155902051Y-86651835D01*
X155940500Y-86458541D01*
X155940500Y-86265513D01*
X160089500Y-86265513D01*
X160089500Y-86454486D01*
X160119059Y-86641118D01*
X160177454Y-86820836D01*
X160263240Y-86989199D01*
X160374310Y-87142073D01*
X160507927Y-87275690D01*
X160660801Y-87386760D01*
X160694623Y-87403993D01*
X160829163Y-87472545D01*
X160829165Y-87472545D01*
X160829168Y-87472547D01*
X160918734Y-87501649D01*
X160950803Y-87512069D01*
X161008478Y-87551507D01*
X161035676Y-87615866D01*
X161023761Y-87684712D01*
X160976516Y-87736188D01*
X160950803Y-87747931D01*
X160829163Y-87787454D01*
X160660800Y-87873240D01*
X160573579Y-87936610D01*
X160507927Y-87984310D01*
X160507925Y-87984312D01*
X160507924Y-87984312D01*
X160374312Y-88117924D01*
X160374312Y-88117925D01*
X160374310Y-88117927D01*
X160326610Y-88183579D01*
X160263240Y-88270800D01*
X160177454Y-88439163D01*
X160119059Y-88618881D01*
X160089500Y-88805513D01*
X160089500Y-88994486D01*
X160119059Y-89181118D01*
X160177454Y-89360836D01*
X160263240Y-89529199D01*
X160374310Y-89682073D01*
X160507927Y-89815690D01*
X160622582Y-89898992D01*
X160660802Y-89926761D01*
X160814386Y-90005015D01*
X160865183Y-90052989D01*
X160881978Y-90120810D01*
X160859441Y-90186945D01*
X160804726Y-90230397D01*
X160758093Y-90239500D01*
X160542130Y-90239500D01*
X160542123Y-90239501D01*
X160482516Y-90245908D01*
X160347671Y-90296202D01*
X160347664Y-90296206D01*
X160232455Y-90382452D01*
X160232452Y-90382455D01*
X160146206Y-90497664D01*
X160146202Y-90497671D01*
X160095908Y-90632517D01*
X160092646Y-90662863D01*
X160089501Y-90692123D01*
X160089500Y-90692135D01*
X160089500Y-92187870D01*
X160089501Y-92187876D01*
X160095908Y-92247483D01*
X160146202Y-92382328D01*
X160146206Y-92382335D01*
X160232452Y-92497544D01*
X160232455Y-92497547D01*
X160347664Y-92583793D01*
X160347671Y-92583797D01*
X160482517Y-92634091D01*
X160482516Y-92634091D01*
X160489444Y-92634835D01*
X160542127Y-92640500D01*
X162037872Y-92640499D01*
X162097483Y-92634091D01*
X162232331Y-92583796D01*
X162347546Y-92497546D01*
X162433796Y-92382331D01*
X162484091Y-92247483D01*
X162490500Y-92187873D01*
X162490499Y-90692128D01*
X162484091Y-90632517D01*
X162454571Y-90553371D01*
X162433797Y-90497671D01*
X162433793Y-90497664D01*
X162347547Y-90382455D01*
X162347544Y-90382452D01*
X162232335Y-90296206D01*
X162232328Y-90296202D01*
X162097482Y-90245908D01*
X162097483Y-90245908D01*
X162037883Y-90239501D01*
X162037881Y-90239500D01*
X162037873Y-90239500D01*
X162037865Y-90239500D01*
X161821909Y-90239500D01*
X161754870Y-90219815D01*
X161709115Y-90167011D01*
X161699171Y-90097853D01*
X161728196Y-90034297D01*
X161765614Y-90005015D01*
X161919199Y-89926760D01*
X162072073Y-89815690D01*
X162205690Y-89682073D01*
X162316760Y-89529199D01*
X162402547Y-89360832D01*
X162460940Y-89181118D01*
X162490500Y-88994486D01*
X162490500Y-88805513D01*
X162460940Y-88618881D01*
X162402545Y-88439163D01*
X162316759Y-88270800D01*
X162205690Y-88117927D01*
X162072073Y-87984310D01*
X161919199Y-87873240D01*
X161750836Y-87787454D01*
X161676472Y-87763291D01*
X161629195Y-87747930D01*
X161571521Y-87708493D01*
X161544323Y-87644134D01*
X161556238Y-87575288D01*
X161603482Y-87523812D01*
X161629194Y-87512069D01*
X161750832Y-87472547D01*
X161919199Y-87386760D01*
X162072073Y-87275690D01*
X162205690Y-87142073D01*
X162316760Y-86989199D01*
X162402547Y-86820832D01*
X162460940Y-86641118D01*
X162489857Y-86458543D01*
X162490500Y-86454486D01*
X162490500Y-86265513D01*
X162460940Y-86078881D01*
X162402545Y-85899163D01*
X162316759Y-85730800D01*
X162310521Y-85722214D01*
X162205690Y-85577927D01*
X162072073Y-85444310D01*
X161919199Y-85333240D01*
X161750836Y-85247454D01*
X161628387Y-85207668D01*
X161570712Y-85168230D01*
X161543514Y-85103871D01*
X161555429Y-85035025D01*
X161602673Y-84983549D01*
X161628389Y-84971806D01*
X161750635Y-84932086D01*
X161918937Y-84846331D01*
X161944328Y-84827883D01*
X161944328Y-84827882D01*
X161290001Y-84173554D01*
X161290000Y-84173554D01*
X160635669Y-84827882D01*
X160635670Y-84827883D01*
X160661059Y-84846329D01*
X160829362Y-84932085D01*
X160951611Y-84971806D01*
X161009286Y-85011243D01*
X161036485Y-85075602D01*
X161024571Y-85144448D01*
X160977327Y-85195924D01*
X160951612Y-85207668D01*
X160829163Y-85247454D01*
X160660800Y-85333240D01*
X160624657Y-85359500D01*
X160507927Y-85444310D01*
X160507925Y-85444312D01*
X160507924Y-85444312D01*
X160374312Y-85577924D01*
X160374312Y-85577925D01*
X160374310Y-85577927D01*
X160370724Y-85582863D01*
X160263240Y-85730800D01*
X160177454Y-85899163D01*
X160119059Y-86078881D01*
X160089500Y-86265513D01*
X155940500Y-86265513D01*
X155940500Y-86261459D01*
X155940500Y-86261456D01*
X155902052Y-86068170D01*
X155902051Y-86068169D01*
X155902051Y-86068165D01*
X155832049Y-85899163D01*
X155826635Y-85886092D01*
X155826628Y-85886079D01*
X155717139Y-85722218D01*
X155717136Y-85722214D01*
X155577785Y-85582863D01*
X155577781Y-85582860D01*
X155413920Y-85473371D01*
X155413907Y-85473364D01*
X155231839Y-85397950D01*
X155231829Y-85397947D01*
X155038543Y-85359500D01*
X155038541Y-85359500D01*
X154841459Y-85359500D01*
X154841457Y-85359500D01*
X154648170Y-85397947D01*
X154648160Y-85397950D01*
X154466092Y-85473364D01*
X154466079Y-85473371D01*
X154302218Y-85582860D01*
X154302214Y-85582863D01*
X154162863Y-85722214D01*
X154162860Y-85722218D01*
X154053371Y-85886079D01*
X154053364Y-85886092D01*
X153977950Y-86068160D01*
X153977947Y-86068170D01*
X153939500Y-86261456D01*
X153939500Y-86261459D01*
X153939500Y-86458541D01*
X153939500Y-86458543D01*
X153939499Y-86458543D01*
X138160500Y-86458543D01*
X138160500Y-86458541D01*
X138160500Y-86261459D01*
X138160500Y-86261456D01*
X138122052Y-86068170D01*
X138122051Y-86068169D01*
X138122051Y-86068165D01*
X138052049Y-85899163D01*
X138046635Y-85886092D01*
X138046628Y-85886079D01*
X137937139Y-85722218D01*
X137937136Y-85722214D01*
X137797785Y-85582863D01*
X137797781Y-85582860D01*
X137633920Y-85473371D01*
X137633907Y-85473364D01*
X137451839Y-85397950D01*
X137451829Y-85397947D01*
X137258543Y-85359500D01*
X137258541Y-85359500D01*
X137061459Y-85359500D01*
X137061457Y-85359500D01*
X136868170Y-85397947D01*
X136868160Y-85397950D01*
X136686092Y-85473364D01*
X136686079Y-85473371D01*
X136522218Y-85582860D01*
X136522214Y-85582863D01*
X136382863Y-85722214D01*
X136382860Y-85722218D01*
X136273371Y-85886079D01*
X136273364Y-85886092D01*
X136197950Y-86068160D01*
X136197947Y-86068170D01*
X136159500Y-86261456D01*
X136159500Y-86261459D01*
X136159500Y-86458541D01*
X136159500Y-86458543D01*
X136159499Y-86458543D01*
X132009857Y-86458543D01*
X132010500Y-86454486D01*
X132010500Y-86265515D01*
X132010499Y-86265511D01*
X131980940Y-86078881D01*
X131922545Y-85899163D01*
X131836759Y-85730800D01*
X131830521Y-85722214D01*
X131725690Y-85577927D01*
X131592073Y-85444310D01*
X131439199Y-85333240D01*
X131270836Y-85247454D01*
X131148387Y-85207668D01*
X131090712Y-85168230D01*
X131063514Y-85103871D01*
X131075429Y-85035025D01*
X131122673Y-84983549D01*
X131148389Y-84971806D01*
X131270635Y-84932086D01*
X131438937Y-84846331D01*
X131464328Y-84827883D01*
X131464328Y-84827882D01*
X130810001Y-84173554D01*
X130810000Y-84173554D01*
X130155669Y-84827882D01*
X130155670Y-84827883D01*
X130181059Y-84846329D01*
X130349362Y-84932085D01*
X130471611Y-84971806D01*
X130529286Y-85011243D01*
X130556485Y-85075602D01*
X130544571Y-85144448D01*
X130497327Y-85195924D01*
X130471612Y-85207668D01*
X130349163Y-85247454D01*
X130180800Y-85333240D01*
X130144657Y-85359500D01*
X130027927Y-85444310D01*
X130027925Y-85444312D01*
X130027924Y-85444312D01*
X129894312Y-85577924D01*
X129894312Y-85577925D01*
X129894310Y-85577927D01*
X129890724Y-85582863D01*
X129783240Y-85730800D01*
X129697454Y-85899163D01*
X129639059Y-86078881D01*
X129609500Y-86265513D01*
X127200500Y-86265513D01*
X127200500Y-83725552D01*
X129610000Y-83725552D01*
X129610000Y-83914447D01*
X129639548Y-84101002D01*
X129697914Y-84280637D01*
X129783666Y-84448933D01*
X129802116Y-84474328D01*
X130456446Y-83820000D01*
X130456446Y-83819999D01*
X130410369Y-83773922D01*
X130460000Y-83773922D01*
X130460000Y-83866078D01*
X130483852Y-83955095D01*
X130529930Y-84034905D01*
X130595095Y-84100070D01*
X130674905Y-84146148D01*
X130763922Y-84170000D01*
X130856078Y-84170000D01*
X130945095Y-84146148D01*
X131024905Y-84100070D01*
X131090070Y-84034905D01*
X131136148Y-83955095D01*
X131160000Y-83866078D01*
X131160000Y-83819999D01*
X131163554Y-83819999D01*
X131163554Y-83820000D01*
X131817882Y-84474328D01*
X131817883Y-84474328D01*
X131836331Y-84448937D01*
X131922085Y-84280637D01*
X131980451Y-84101002D01*
X132010000Y-83914447D01*
X132010000Y-83725552D01*
X131980451Y-83538997D01*
X131922085Y-83359362D01*
X131868398Y-83253995D01*
X144486999Y-83253995D01*
X144513918Y-83389322D01*
X144513921Y-83389332D01*
X144566721Y-83516804D01*
X144566728Y-83516817D01*
X144643385Y-83631541D01*
X144643388Y-83631545D01*
X144740954Y-83729111D01*
X144740958Y-83729114D01*
X144855682Y-83805771D01*
X144855695Y-83805778D01*
X144983167Y-83858578D01*
X144983172Y-83858580D01*
X144983176Y-83858580D01*
X144983177Y-83858581D01*
X145118504Y-83885500D01*
X145118507Y-83885500D01*
X145256495Y-83885500D01*
X145354133Y-83866078D01*
X145391828Y-83858580D01*
X145519311Y-83805775D01*
X145634042Y-83729114D01*
X145637604Y-83725552D01*
X160090000Y-83725552D01*
X160090000Y-83914447D01*
X160119548Y-84101002D01*
X160177914Y-84280637D01*
X160263666Y-84448933D01*
X160282116Y-84474328D01*
X160936446Y-83820000D01*
X160936446Y-83819999D01*
X160890369Y-83773922D01*
X160940000Y-83773922D01*
X160940000Y-83866078D01*
X160963852Y-83955095D01*
X161009930Y-84034905D01*
X161075095Y-84100070D01*
X161154905Y-84146148D01*
X161243922Y-84170000D01*
X161336078Y-84170000D01*
X161425095Y-84146148D01*
X161504905Y-84100070D01*
X161570070Y-84034905D01*
X161616148Y-83955095D01*
X161640000Y-83866078D01*
X161640000Y-83819999D01*
X161643554Y-83819999D01*
X161643554Y-83820000D01*
X162297882Y-84474328D01*
X162297883Y-84474328D01*
X162316331Y-84448937D01*
X162402085Y-84280637D01*
X162460451Y-84101002D01*
X162490000Y-83914447D01*
X162490000Y-83725552D01*
X162460451Y-83538997D01*
X162402085Y-83359362D01*
X162316329Y-83191059D01*
X162297883Y-83165670D01*
X162297882Y-83165669D01*
X161643554Y-83819999D01*
X161640000Y-83819999D01*
X161640000Y-83773922D01*
X161616148Y-83684905D01*
X161570070Y-83605095D01*
X161504905Y-83539930D01*
X161425095Y-83493852D01*
X161336078Y-83470000D01*
X161243922Y-83470000D01*
X161154905Y-83493852D01*
X161075095Y-83539930D01*
X161009930Y-83605095D01*
X160963852Y-83684905D01*
X160940000Y-83773922D01*
X160890369Y-83773922D01*
X160282116Y-83165669D01*
X160282116Y-83165670D01*
X160263669Y-83191060D01*
X160177914Y-83359362D01*
X160119548Y-83538997D01*
X160090000Y-83725552D01*
X145637604Y-83725552D01*
X145678251Y-83684905D01*
X145730152Y-83633005D01*
X145731611Y-83631545D01*
X145731614Y-83631542D01*
X145808275Y-83516811D01*
X145861080Y-83389328D01*
X145888000Y-83253993D01*
X145888000Y-83116007D01*
X145888000Y-83116004D01*
X145861081Y-82980677D01*
X145861080Y-82980676D01*
X145861080Y-82980672D01*
X145830493Y-82906827D01*
X145808278Y-82853195D01*
X145808271Y-82853182D01*
X145780831Y-82812116D01*
X160635669Y-82812116D01*
X161290000Y-83466446D01*
X161290001Y-83466446D01*
X161944328Y-82812116D01*
X161918933Y-82793666D01*
X161750637Y-82707914D01*
X161571002Y-82649548D01*
X161384447Y-82620000D01*
X161195553Y-82620000D01*
X161008997Y-82649548D01*
X160829362Y-82707914D01*
X160661060Y-82793669D01*
X160635670Y-82812116D01*
X160635669Y-82812116D01*
X145780831Y-82812116D01*
X145731614Y-82738458D01*
X145731611Y-82738454D01*
X145634045Y-82640888D01*
X145634041Y-82640885D01*
X145519317Y-82564228D01*
X145519304Y-82564221D01*
X145391832Y-82511421D01*
X145391822Y-82511418D01*
X145256495Y-82484500D01*
X145256493Y-82484500D01*
X145118507Y-82484500D01*
X145118505Y-82484500D01*
X144983177Y-82511418D01*
X144983167Y-82511421D01*
X144855695Y-82564221D01*
X144855682Y-82564228D01*
X144740958Y-82640885D01*
X144740954Y-82640888D01*
X144643388Y-82738454D01*
X144643385Y-82738458D01*
X144566728Y-82853182D01*
X144566721Y-82853195D01*
X144513921Y-82980667D01*
X144513918Y-82980677D01*
X144487000Y-83116004D01*
X144487000Y-83116007D01*
X144487000Y-83253993D01*
X144487000Y-83253995D01*
X144486999Y-83253995D01*
X131868398Y-83253995D01*
X131836331Y-83191061D01*
X131830330Y-83182802D01*
X131830328Y-83182800D01*
X131817882Y-83165669D01*
X131163554Y-83819999D01*
X131160000Y-83819999D01*
X131160000Y-83773922D01*
X131136148Y-83684905D01*
X131090070Y-83605095D01*
X131024905Y-83539930D01*
X130945095Y-83493852D01*
X130856078Y-83470000D01*
X130763922Y-83470000D01*
X130674905Y-83493852D01*
X130595095Y-83539930D01*
X130529930Y-83605095D01*
X130483852Y-83684905D01*
X130460000Y-83773922D01*
X130410369Y-83773922D01*
X129802116Y-83165669D01*
X129802116Y-83165670D01*
X129783669Y-83191060D01*
X129697914Y-83359362D01*
X129639548Y-83538997D01*
X129610000Y-83725552D01*
X127200500Y-83725552D01*
X127200500Y-82812116D01*
X130155669Y-82812116D01*
X130810000Y-83466446D01*
X130810001Y-83466446D01*
X131464328Y-82812116D01*
X131438933Y-82793666D01*
X131270637Y-82707914D01*
X131091002Y-82649548D01*
X130904447Y-82620000D01*
X130715553Y-82620000D01*
X130528997Y-82649548D01*
X130349362Y-82707914D01*
X130181060Y-82793669D01*
X130155670Y-82812116D01*
X130155669Y-82812116D01*
X127200500Y-82812116D01*
X127200500Y-79956694D01*
X127220185Y-79889655D01*
X127272989Y-79843900D01*
X127342147Y-79833956D01*
X127405703Y-79862981D01*
X127433986Y-79899973D01*
X127434469Y-79899707D01*
X127436150Y-79902749D01*
X127579568Y-80130998D01*
X127675346Y-80251099D01*
X128603708Y-79322736D01*
X128700967Y-79456602D01*
X128823398Y-79579033D01*
X128957262Y-79676290D01*
X128028899Y-80604652D01*
X128028900Y-80604653D01*
X128148993Y-80700427D01*
X128148997Y-80700429D01*
X128377247Y-80843847D01*
X128620104Y-80960801D01*
X128620118Y-80960807D01*
X128874536Y-81049832D01*
X128874548Y-81049836D01*
X129137348Y-81109818D01*
X129137366Y-81109821D01*
X129405212Y-81139999D01*
X129405216Y-81140000D01*
X129674784Y-81140000D01*
X129674787Y-81139999D01*
X129942633Y-81109821D01*
X129942651Y-81109818D01*
X130205451Y-81049836D01*
X130205463Y-81049832D01*
X130459881Y-80960807D01*
X130459895Y-80960801D01*
X130702752Y-80843847D01*
X130930999Y-80700431D01*
X131051098Y-80604653D01*
X131051099Y-80604652D01*
X130122737Y-79676290D01*
X130256602Y-79579033D01*
X130379033Y-79456602D01*
X130476290Y-79322737D01*
X131404652Y-80251099D01*
X131404653Y-80251098D01*
X131500431Y-80130999D01*
X131643847Y-79902752D01*
X131760801Y-79659895D01*
X131760807Y-79659881D01*
X131849832Y-79405463D01*
X131849836Y-79405451D01*
X131909818Y-79142651D01*
X131909821Y-79142633D01*
X131939999Y-78874787D01*
X131940000Y-78874783D01*
X131940000Y-78605216D01*
X131939999Y-78605212D01*
X131909821Y-78337366D01*
X131909818Y-78337348D01*
X131849836Y-78074548D01*
X131849832Y-78074536D01*
X131760807Y-77820118D01*
X131760801Y-77820104D01*
X131643847Y-77577247D01*
X131500429Y-77348997D01*
X131500427Y-77348993D01*
X131404653Y-77228900D01*
X131404652Y-77228899D01*
X130476290Y-78157262D01*
X130379033Y-78023398D01*
X130256602Y-77900967D01*
X130122736Y-77803708D01*
X131051099Y-76875346D01*
X130930998Y-76779568D01*
X130702749Y-76636150D01*
X130699707Y-76634469D01*
X130700121Y-76633719D01*
X130651030Y-76589392D01*
X130632721Y-76521964D01*
X130653773Y-76455341D01*
X130707501Y-76410676D01*
X130756695Y-76400500D01*
X161343305Y-76400500D01*
X161410344Y-76420185D01*
G37*
G04 #@! TD.AperFunction*
M02*
