G04 #@! TF.GenerationSoftware,KiCad,Pcbnew,9.0.0*
G04 #@! TF.CreationDate,2025-03-07T16:10:40-06:00*
G04 #@! TF.ProjectId,robo-roach-v1.0,726f626f-2d72-46f6-9163-682d76312e30,rev?*
G04 #@! TF.SameCoordinates,Original*
G04 #@! TF.FileFunction,Legend,Top*
G04 #@! TF.FilePolarity,Positive*
%FSLAX46Y46*%
G04 Gerber Fmt 4.6, Leading zero omitted, Abs format (unit mm)*
G04 Created by KiCad (PCBNEW 9.0.0) date 2025-03-07 16:10:40*
%MOMM*%
%LPD*%
G01*
G04 APERTURE LIST*
G04 Aperture macros list*
%AMRoundRect*
0 Rectangle with rounded corners*
0 $1 Rounding radius*
0 $2 $3 $4 $5 $6 $7 $8 $9 X,Y pos of 4 corners*
0 Add a 4 corners polygon primitive as box body*
4,1,4,$2,$3,$4,$5,$6,$7,$8,$9,$2,$3,0*
0 Add four circle primitives for the rounded corners*
1,1,$1+$1,$2,$3*
1,1,$1+$1,$4,$5*
1,1,$1+$1,$6,$7*
1,1,$1+$1,$8,$9*
0 Add four rect primitives between the rounded corners*
20,1,$1+$1,$2,$3,$4,$5,0*
20,1,$1+$1,$4,$5,$6,$7,0*
20,1,$1+$1,$6,$7,$8,$9,0*
20,1,$1+$1,$8,$9,$2,$3,0*%
G04 Aperture macros list end*
%ADD10C,0.200000*%
%ADD11C,0.250000*%
%ADD12C,0.150000*%
%ADD13C,0.120000*%
%ADD14C,0.100000*%
%ADD15RoundRect,0.237500X-0.250000X-0.237500X0.250000X-0.237500X0.250000X0.237500X-0.250000X0.237500X0*%
%ADD16RoundRect,0.237500X-0.237500X0.250000X-0.237500X-0.250000X0.237500X-0.250000X0.237500X0.250000X0*%
%ADD17RoundRect,0.250000X0.450000X-0.325000X0.450000X0.325000X-0.450000X0.325000X-0.450000X-0.325000X0*%
%ADD18C,3.800000*%
%ADD19C,1.000000*%
%ADD20RoundRect,0.237500X-0.237500X0.300000X-0.237500X-0.300000X0.237500X-0.300000X0.237500X0.300000X0*%
%ADD21RoundRect,0.237500X0.250000X0.237500X-0.250000X0.237500X-0.250000X-0.237500X0.250000X-0.237500X0*%
%ADD22RoundRect,0.237500X-0.300000X-0.237500X0.300000X-0.237500X0.300000X0.237500X-0.300000X0.237500X0*%
%ADD23C,1.700000*%
%ADD24R,1.400000X1.400000*%
%ADD25C,1.400000*%
%ADD26R,1.600000X1.600000*%
%ADD27C,1.600000*%
%ADD28RoundRect,0.250000X-0.325000X-0.450000X0.325000X-0.450000X0.325000X0.450000X-0.325000X0.450000X0*%
%ADD29RoundRect,0.150000X-0.587500X-0.150000X0.587500X-0.150000X0.587500X0.150000X-0.587500X0.150000X0*%
%ADD30RoundRect,0.237500X0.300000X0.237500X-0.300000X0.237500X-0.300000X-0.237500X0.300000X-0.237500X0*%
%ADD31RoundRect,0.150000X-0.825000X-0.150000X0.825000X-0.150000X0.825000X0.150000X-0.825000X0.150000X0*%
%ADD32RoundRect,0.087500X0.250000X0.087500X-0.250000X0.087500X-0.250000X-0.087500X0.250000X-0.087500X0*%
%ADD33RoundRect,0.150000X0.587500X0.150000X-0.587500X0.150000X-0.587500X-0.150000X0.587500X-0.150000X0*%
%ADD34RoundRect,0.237500X0.237500X-0.250000X0.237500X0.250000X-0.237500X0.250000X-0.237500X-0.250000X0*%
%ADD35RoundRect,0.150000X-0.512500X-0.150000X0.512500X-0.150000X0.512500X0.150000X-0.512500X0.150000X0*%
%ADD36RoundRect,0.237500X0.237500X-0.300000X0.237500X0.300000X-0.237500X0.300000X-0.237500X-0.300000X0*%
%ADD37RoundRect,0.087500X-0.250000X-0.087500X0.250000X-0.087500X0.250000X0.087500X-0.250000X0.087500X0*%
%ADD38RoundRect,0.125000X0.687500X0.125000X-0.687500X0.125000X-0.687500X-0.125000X0.687500X-0.125000X0*%
%ADD39RoundRect,0.175000X-0.175000X-0.625000X0.175000X-0.625000X0.175000X0.625000X-0.175000X0.625000X0*%
%ADD40RoundRect,0.200000X-0.200000X-0.600000X0.200000X-0.600000X0.200000X0.600000X-0.200000X0.600000X0*%
%ADD41RoundRect,0.225000X-0.225000X-0.575000X0.225000X-0.575000X0.225000X0.575000X-0.225000X0.575000X0*%
%ADD42O,1.000000X1.700000*%
%ADD43RoundRect,0.250001X0.462499X0.849999X-0.462499X0.849999X-0.462499X-0.849999X0.462499X-0.849999X0*%
%ADD44RoundRect,0.150000X-0.150000X0.587500X-0.150000X-0.587500X0.150000X-0.587500X0.150000X0.587500X0*%
G04 APERTURE END LIST*
D10*
X133350000Y-77470000D02*
X158750000Y-77470000D01*
X158750000Y-80010000D01*
X133350000Y-80010000D01*
X133350000Y-77470000D01*
D11*
X134323996Y-79239619D02*
X133990663Y-78763428D01*
X133752568Y-79239619D02*
X133752568Y-78239619D01*
X133752568Y-78239619D02*
X134133520Y-78239619D01*
X134133520Y-78239619D02*
X134228758Y-78287238D01*
X134228758Y-78287238D02*
X134276377Y-78334857D01*
X134276377Y-78334857D02*
X134323996Y-78430095D01*
X134323996Y-78430095D02*
X134323996Y-78572952D01*
X134323996Y-78572952D02*
X134276377Y-78668190D01*
X134276377Y-78668190D02*
X134228758Y-78715809D01*
X134228758Y-78715809D02*
X134133520Y-78763428D01*
X134133520Y-78763428D02*
X133752568Y-78763428D01*
X134895425Y-79239619D02*
X134800187Y-79192000D01*
X134800187Y-79192000D02*
X134752568Y-79144380D01*
X134752568Y-79144380D02*
X134704949Y-79049142D01*
X134704949Y-79049142D02*
X134704949Y-78763428D01*
X134704949Y-78763428D02*
X134752568Y-78668190D01*
X134752568Y-78668190D02*
X134800187Y-78620571D01*
X134800187Y-78620571D02*
X134895425Y-78572952D01*
X134895425Y-78572952D02*
X135038282Y-78572952D01*
X135038282Y-78572952D02*
X135133520Y-78620571D01*
X135133520Y-78620571D02*
X135181139Y-78668190D01*
X135181139Y-78668190D02*
X135228758Y-78763428D01*
X135228758Y-78763428D02*
X135228758Y-79049142D01*
X135228758Y-79049142D02*
X135181139Y-79144380D01*
X135181139Y-79144380D02*
X135133520Y-79192000D01*
X135133520Y-79192000D02*
X135038282Y-79239619D01*
X135038282Y-79239619D02*
X134895425Y-79239619D01*
X135657330Y-79239619D02*
X135657330Y-78239619D01*
X135657330Y-78620571D02*
X135752568Y-78572952D01*
X135752568Y-78572952D02*
X135943044Y-78572952D01*
X135943044Y-78572952D02*
X136038282Y-78620571D01*
X136038282Y-78620571D02*
X136085901Y-78668190D01*
X136085901Y-78668190D02*
X136133520Y-78763428D01*
X136133520Y-78763428D02*
X136133520Y-79049142D01*
X136133520Y-79049142D02*
X136085901Y-79144380D01*
X136085901Y-79144380D02*
X136038282Y-79192000D01*
X136038282Y-79192000D02*
X135943044Y-79239619D01*
X135943044Y-79239619D02*
X135752568Y-79239619D01*
X135752568Y-79239619D02*
X135657330Y-79192000D01*
X136704949Y-79239619D02*
X136609711Y-79192000D01*
X136609711Y-79192000D02*
X136562092Y-79144380D01*
X136562092Y-79144380D02*
X136514473Y-79049142D01*
X136514473Y-79049142D02*
X136514473Y-78763428D01*
X136514473Y-78763428D02*
X136562092Y-78668190D01*
X136562092Y-78668190D02*
X136609711Y-78620571D01*
X136609711Y-78620571D02*
X136704949Y-78572952D01*
X136704949Y-78572952D02*
X136847806Y-78572952D01*
X136847806Y-78572952D02*
X136943044Y-78620571D01*
X136943044Y-78620571D02*
X136990663Y-78668190D01*
X136990663Y-78668190D02*
X137038282Y-78763428D01*
X137038282Y-78763428D02*
X137038282Y-79049142D01*
X137038282Y-79049142D02*
X136990663Y-79144380D01*
X136990663Y-79144380D02*
X136943044Y-79192000D01*
X136943044Y-79192000D02*
X136847806Y-79239619D01*
X136847806Y-79239619D02*
X136704949Y-79239619D01*
X137466854Y-78858666D02*
X138228759Y-78858666D01*
X139276377Y-79239619D02*
X138943044Y-78763428D01*
X138704949Y-79239619D02*
X138704949Y-78239619D01*
X138704949Y-78239619D02*
X139085901Y-78239619D01*
X139085901Y-78239619D02*
X139181139Y-78287238D01*
X139181139Y-78287238D02*
X139228758Y-78334857D01*
X139228758Y-78334857D02*
X139276377Y-78430095D01*
X139276377Y-78430095D02*
X139276377Y-78572952D01*
X139276377Y-78572952D02*
X139228758Y-78668190D01*
X139228758Y-78668190D02*
X139181139Y-78715809D01*
X139181139Y-78715809D02*
X139085901Y-78763428D01*
X139085901Y-78763428D02*
X138704949Y-78763428D01*
X139847806Y-79239619D02*
X139752568Y-79192000D01*
X139752568Y-79192000D02*
X139704949Y-79144380D01*
X139704949Y-79144380D02*
X139657330Y-79049142D01*
X139657330Y-79049142D02*
X139657330Y-78763428D01*
X139657330Y-78763428D02*
X139704949Y-78668190D01*
X139704949Y-78668190D02*
X139752568Y-78620571D01*
X139752568Y-78620571D02*
X139847806Y-78572952D01*
X139847806Y-78572952D02*
X139990663Y-78572952D01*
X139990663Y-78572952D02*
X140085901Y-78620571D01*
X140085901Y-78620571D02*
X140133520Y-78668190D01*
X140133520Y-78668190D02*
X140181139Y-78763428D01*
X140181139Y-78763428D02*
X140181139Y-79049142D01*
X140181139Y-79049142D02*
X140133520Y-79144380D01*
X140133520Y-79144380D02*
X140085901Y-79192000D01*
X140085901Y-79192000D02*
X139990663Y-79239619D01*
X139990663Y-79239619D02*
X139847806Y-79239619D01*
X141038282Y-79239619D02*
X141038282Y-78715809D01*
X141038282Y-78715809D02*
X140990663Y-78620571D01*
X140990663Y-78620571D02*
X140895425Y-78572952D01*
X140895425Y-78572952D02*
X140704949Y-78572952D01*
X140704949Y-78572952D02*
X140609711Y-78620571D01*
X141038282Y-79192000D02*
X140943044Y-79239619D01*
X140943044Y-79239619D02*
X140704949Y-79239619D01*
X140704949Y-79239619D02*
X140609711Y-79192000D01*
X140609711Y-79192000D02*
X140562092Y-79096761D01*
X140562092Y-79096761D02*
X140562092Y-79001523D01*
X140562092Y-79001523D02*
X140609711Y-78906285D01*
X140609711Y-78906285D02*
X140704949Y-78858666D01*
X140704949Y-78858666D02*
X140943044Y-78858666D01*
X140943044Y-78858666D02*
X141038282Y-78811047D01*
X141943044Y-79192000D02*
X141847806Y-79239619D01*
X141847806Y-79239619D02*
X141657330Y-79239619D01*
X141657330Y-79239619D02*
X141562092Y-79192000D01*
X141562092Y-79192000D02*
X141514473Y-79144380D01*
X141514473Y-79144380D02*
X141466854Y-79049142D01*
X141466854Y-79049142D02*
X141466854Y-78763428D01*
X141466854Y-78763428D02*
X141514473Y-78668190D01*
X141514473Y-78668190D02*
X141562092Y-78620571D01*
X141562092Y-78620571D02*
X141657330Y-78572952D01*
X141657330Y-78572952D02*
X141847806Y-78572952D01*
X141847806Y-78572952D02*
X141943044Y-78620571D01*
X142371616Y-79239619D02*
X142371616Y-78239619D01*
X142800187Y-79239619D02*
X142800187Y-78715809D01*
X142800187Y-78715809D02*
X142752568Y-78620571D01*
X142752568Y-78620571D02*
X142657330Y-78572952D01*
X142657330Y-78572952D02*
X142514473Y-78572952D01*
X142514473Y-78572952D02*
X142419235Y-78620571D01*
X142419235Y-78620571D02*
X142371616Y-78668190D01*
X144609711Y-79144380D02*
X144562092Y-79192000D01*
X144562092Y-79192000D02*
X144419235Y-79239619D01*
X144419235Y-79239619D02*
X144323997Y-79239619D01*
X144323997Y-79239619D02*
X144181140Y-79192000D01*
X144181140Y-79192000D02*
X144085902Y-79096761D01*
X144085902Y-79096761D02*
X144038283Y-79001523D01*
X144038283Y-79001523D02*
X143990664Y-78811047D01*
X143990664Y-78811047D02*
X143990664Y-78668190D01*
X143990664Y-78668190D02*
X144038283Y-78477714D01*
X144038283Y-78477714D02*
X144085902Y-78382476D01*
X144085902Y-78382476D02*
X144181140Y-78287238D01*
X144181140Y-78287238D02*
X144323997Y-78239619D01*
X144323997Y-78239619D02*
X144419235Y-78239619D01*
X144419235Y-78239619D02*
X144562092Y-78287238D01*
X144562092Y-78287238D02*
X144609711Y-78334857D01*
X145181140Y-79239619D02*
X145085902Y-79192000D01*
X145085902Y-79192000D02*
X145038283Y-79144380D01*
X145038283Y-79144380D02*
X144990664Y-79049142D01*
X144990664Y-79049142D02*
X144990664Y-78763428D01*
X144990664Y-78763428D02*
X145038283Y-78668190D01*
X145038283Y-78668190D02*
X145085902Y-78620571D01*
X145085902Y-78620571D02*
X145181140Y-78572952D01*
X145181140Y-78572952D02*
X145323997Y-78572952D01*
X145323997Y-78572952D02*
X145419235Y-78620571D01*
X145419235Y-78620571D02*
X145466854Y-78668190D01*
X145466854Y-78668190D02*
X145514473Y-78763428D01*
X145514473Y-78763428D02*
X145514473Y-79049142D01*
X145514473Y-79049142D02*
X145466854Y-79144380D01*
X145466854Y-79144380D02*
X145419235Y-79192000D01*
X145419235Y-79192000D02*
X145323997Y-79239619D01*
X145323997Y-79239619D02*
X145181140Y-79239619D01*
X145943045Y-78572952D02*
X145943045Y-79239619D01*
X145943045Y-78668190D02*
X145990664Y-78620571D01*
X145990664Y-78620571D02*
X146085902Y-78572952D01*
X146085902Y-78572952D02*
X146228759Y-78572952D01*
X146228759Y-78572952D02*
X146323997Y-78620571D01*
X146323997Y-78620571D02*
X146371616Y-78715809D01*
X146371616Y-78715809D02*
X146371616Y-79239619D01*
X146704950Y-78572952D02*
X147085902Y-78572952D01*
X146847807Y-78239619D02*
X146847807Y-79096761D01*
X146847807Y-79096761D02*
X146895426Y-79192000D01*
X146895426Y-79192000D02*
X146990664Y-79239619D01*
X146990664Y-79239619D02*
X147085902Y-79239619D01*
X147419236Y-79239619D02*
X147419236Y-78572952D01*
X147419236Y-78763428D02*
X147466855Y-78668190D01*
X147466855Y-78668190D02*
X147514474Y-78620571D01*
X147514474Y-78620571D02*
X147609712Y-78572952D01*
X147609712Y-78572952D02*
X147704950Y-78572952D01*
X148181141Y-79239619D02*
X148085903Y-79192000D01*
X148085903Y-79192000D02*
X148038284Y-79144380D01*
X148038284Y-79144380D02*
X147990665Y-79049142D01*
X147990665Y-79049142D02*
X147990665Y-78763428D01*
X147990665Y-78763428D02*
X148038284Y-78668190D01*
X148038284Y-78668190D02*
X148085903Y-78620571D01*
X148085903Y-78620571D02*
X148181141Y-78572952D01*
X148181141Y-78572952D02*
X148323998Y-78572952D01*
X148323998Y-78572952D02*
X148419236Y-78620571D01*
X148419236Y-78620571D02*
X148466855Y-78668190D01*
X148466855Y-78668190D02*
X148514474Y-78763428D01*
X148514474Y-78763428D02*
X148514474Y-79049142D01*
X148514474Y-79049142D02*
X148466855Y-79144380D01*
X148466855Y-79144380D02*
X148419236Y-79192000D01*
X148419236Y-79192000D02*
X148323998Y-79239619D01*
X148323998Y-79239619D02*
X148181141Y-79239619D01*
X149085903Y-79239619D02*
X148990665Y-79192000D01*
X148990665Y-79192000D02*
X148943046Y-79096761D01*
X148943046Y-79096761D02*
X148943046Y-78239619D01*
X150562094Y-78715809D02*
X150704951Y-78763428D01*
X150704951Y-78763428D02*
X150752570Y-78811047D01*
X150752570Y-78811047D02*
X150800189Y-78906285D01*
X150800189Y-78906285D02*
X150800189Y-79049142D01*
X150800189Y-79049142D02*
X150752570Y-79144380D01*
X150752570Y-79144380D02*
X150704951Y-79192000D01*
X150704951Y-79192000D02*
X150609713Y-79239619D01*
X150609713Y-79239619D02*
X150228761Y-79239619D01*
X150228761Y-79239619D02*
X150228761Y-78239619D01*
X150228761Y-78239619D02*
X150562094Y-78239619D01*
X150562094Y-78239619D02*
X150657332Y-78287238D01*
X150657332Y-78287238D02*
X150704951Y-78334857D01*
X150704951Y-78334857D02*
X150752570Y-78430095D01*
X150752570Y-78430095D02*
X150752570Y-78525333D01*
X150752570Y-78525333D02*
X150704951Y-78620571D01*
X150704951Y-78620571D02*
X150657332Y-78668190D01*
X150657332Y-78668190D02*
X150562094Y-78715809D01*
X150562094Y-78715809D02*
X150228761Y-78715809D01*
X151371618Y-79239619D02*
X151276380Y-79192000D01*
X151276380Y-79192000D02*
X151228761Y-79144380D01*
X151228761Y-79144380D02*
X151181142Y-79049142D01*
X151181142Y-79049142D02*
X151181142Y-78763428D01*
X151181142Y-78763428D02*
X151228761Y-78668190D01*
X151228761Y-78668190D02*
X151276380Y-78620571D01*
X151276380Y-78620571D02*
X151371618Y-78572952D01*
X151371618Y-78572952D02*
X151514475Y-78572952D01*
X151514475Y-78572952D02*
X151609713Y-78620571D01*
X151609713Y-78620571D02*
X151657332Y-78668190D01*
X151657332Y-78668190D02*
X151704951Y-78763428D01*
X151704951Y-78763428D02*
X151704951Y-79049142D01*
X151704951Y-79049142D02*
X151657332Y-79144380D01*
X151657332Y-79144380D02*
X151609713Y-79192000D01*
X151609713Y-79192000D02*
X151514475Y-79239619D01*
X151514475Y-79239619D02*
X151371618Y-79239619D01*
X152562094Y-79239619D02*
X152562094Y-78715809D01*
X152562094Y-78715809D02*
X152514475Y-78620571D01*
X152514475Y-78620571D02*
X152419237Y-78572952D01*
X152419237Y-78572952D02*
X152228761Y-78572952D01*
X152228761Y-78572952D02*
X152133523Y-78620571D01*
X152562094Y-79192000D02*
X152466856Y-79239619D01*
X152466856Y-79239619D02*
X152228761Y-79239619D01*
X152228761Y-79239619D02*
X152133523Y-79192000D01*
X152133523Y-79192000D02*
X152085904Y-79096761D01*
X152085904Y-79096761D02*
X152085904Y-79001523D01*
X152085904Y-79001523D02*
X152133523Y-78906285D01*
X152133523Y-78906285D02*
X152228761Y-78858666D01*
X152228761Y-78858666D02*
X152466856Y-78858666D01*
X152466856Y-78858666D02*
X152562094Y-78811047D01*
X153038285Y-79239619D02*
X153038285Y-78572952D01*
X153038285Y-78763428D02*
X153085904Y-78668190D01*
X153085904Y-78668190D02*
X153133523Y-78620571D01*
X153133523Y-78620571D02*
X153228761Y-78572952D01*
X153228761Y-78572952D02*
X153323999Y-78572952D01*
X154085904Y-79239619D02*
X154085904Y-78239619D01*
X154085904Y-79192000D02*
X153990666Y-79239619D01*
X153990666Y-79239619D02*
X153800190Y-79239619D01*
X153800190Y-79239619D02*
X153704952Y-79192000D01*
X153704952Y-79192000D02*
X153657333Y-79144380D01*
X153657333Y-79144380D02*
X153609714Y-79049142D01*
X153609714Y-79049142D02*
X153609714Y-78763428D01*
X153609714Y-78763428D02*
X153657333Y-78668190D01*
X153657333Y-78668190D02*
X153704952Y-78620571D01*
X153704952Y-78620571D02*
X153800190Y-78572952D01*
X153800190Y-78572952D02*
X153990666Y-78572952D01*
X153990666Y-78572952D02*
X154085904Y-78620571D01*
X155228762Y-78572952D02*
X155466857Y-79239619D01*
X155466857Y-79239619D02*
X155704952Y-78572952D01*
X156609714Y-79239619D02*
X156038286Y-79239619D01*
X156324000Y-79239619D02*
X156324000Y-78239619D01*
X156324000Y-78239619D02*
X156228762Y-78382476D01*
X156228762Y-78382476D02*
X156133524Y-78477714D01*
X156133524Y-78477714D02*
X156038286Y-78525333D01*
X157038286Y-79144380D02*
X157085905Y-79192000D01*
X157085905Y-79192000D02*
X157038286Y-79239619D01*
X157038286Y-79239619D02*
X156990667Y-79192000D01*
X156990667Y-79192000D02*
X157038286Y-79144380D01*
X157038286Y-79144380D02*
X157038286Y-79239619D01*
X157704952Y-78239619D02*
X157800190Y-78239619D01*
X157800190Y-78239619D02*
X157895428Y-78287238D01*
X157895428Y-78287238D02*
X157943047Y-78334857D01*
X157943047Y-78334857D02*
X157990666Y-78430095D01*
X157990666Y-78430095D02*
X158038285Y-78620571D01*
X158038285Y-78620571D02*
X158038285Y-78858666D01*
X158038285Y-78858666D02*
X157990666Y-79049142D01*
X157990666Y-79049142D02*
X157943047Y-79144380D01*
X157943047Y-79144380D02*
X157895428Y-79192000D01*
X157895428Y-79192000D02*
X157800190Y-79239619D01*
X157800190Y-79239619D02*
X157704952Y-79239619D01*
X157704952Y-79239619D02*
X157609714Y-79192000D01*
X157609714Y-79192000D02*
X157562095Y-79144380D01*
X157562095Y-79144380D02*
X157514476Y-79049142D01*
X157514476Y-79049142D02*
X157466857Y-78858666D01*
X157466857Y-78858666D02*
X157466857Y-78620571D01*
X157466857Y-78620571D02*
X157514476Y-78430095D01*
X157514476Y-78430095D02*
X157562095Y-78334857D01*
X157562095Y-78334857D02*
X157609714Y-78287238D01*
X157609714Y-78287238D02*
X157704952Y-78239619D01*
D12*
X128162207Y-126266580D02*
X128114588Y-126314200D01*
X128114588Y-126314200D02*
X127971731Y-126361819D01*
X127971731Y-126361819D02*
X127876493Y-126361819D01*
X127876493Y-126361819D02*
X127733636Y-126314200D01*
X127733636Y-126314200D02*
X127638398Y-126218961D01*
X127638398Y-126218961D02*
X127590779Y-126123723D01*
X127590779Y-126123723D02*
X127543160Y-125933247D01*
X127543160Y-125933247D02*
X127543160Y-125790390D01*
X127543160Y-125790390D02*
X127590779Y-125599914D01*
X127590779Y-125599914D02*
X127638398Y-125504676D01*
X127638398Y-125504676D02*
X127733636Y-125409438D01*
X127733636Y-125409438D02*
X127876493Y-125361819D01*
X127876493Y-125361819D02*
X127971731Y-125361819D01*
X127971731Y-125361819D02*
X128114588Y-125409438D01*
X128114588Y-125409438D02*
X128162207Y-125457057D01*
X128590779Y-126361819D02*
X128590779Y-125361819D01*
X128590779Y-125838009D02*
X129162207Y-125838009D01*
X129162207Y-126361819D02*
X129162207Y-125361819D01*
X130162207Y-125409438D02*
X130066969Y-125361819D01*
X130066969Y-125361819D02*
X129924112Y-125361819D01*
X129924112Y-125361819D02*
X129781255Y-125409438D01*
X129781255Y-125409438D02*
X129686017Y-125504676D01*
X129686017Y-125504676D02*
X129638398Y-125599914D01*
X129638398Y-125599914D02*
X129590779Y-125790390D01*
X129590779Y-125790390D02*
X129590779Y-125933247D01*
X129590779Y-125933247D02*
X129638398Y-126123723D01*
X129638398Y-126123723D02*
X129686017Y-126218961D01*
X129686017Y-126218961D02*
X129781255Y-126314200D01*
X129781255Y-126314200D02*
X129924112Y-126361819D01*
X129924112Y-126361819D02*
X130019350Y-126361819D01*
X130019350Y-126361819D02*
X130162207Y-126314200D01*
X130162207Y-126314200D02*
X130209826Y-126266580D01*
X130209826Y-126266580D02*
X130209826Y-125933247D01*
X130209826Y-125933247D02*
X130019350Y-125933247D01*
X128035207Y-102231819D02*
X127701874Y-101755628D01*
X127463779Y-102231819D02*
X127463779Y-101231819D01*
X127463779Y-101231819D02*
X127844731Y-101231819D01*
X127844731Y-101231819D02*
X127939969Y-101279438D01*
X127939969Y-101279438D02*
X127987588Y-101327057D01*
X127987588Y-101327057D02*
X128035207Y-101422295D01*
X128035207Y-101422295D02*
X128035207Y-101565152D01*
X128035207Y-101565152D02*
X127987588Y-101660390D01*
X127987588Y-101660390D02*
X127939969Y-101708009D01*
X127939969Y-101708009D02*
X127844731Y-101755628D01*
X127844731Y-101755628D02*
X127463779Y-101755628D01*
X128368541Y-101231819D02*
X129035207Y-102231819D01*
X129035207Y-101231819D02*
X128368541Y-102231819D01*
X129178065Y-102327057D02*
X129939969Y-102327057D01*
X130749493Y-102231819D02*
X130416160Y-101755628D01*
X130178065Y-102231819D02*
X130178065Y-101231819D01*
X130178065Y-101231819D02*
X130559017Y-101231819D01*
X130559017Y-101231819D02*
X130654255Y-101279438D01*
X130654255Y-101279438D02*
X130701874Y-101327057D01*
X130701874Y-101327057D02*
X130749493Y-101422295D01*
X130749493Y-101422295D02*
X130749493Y-101565152D01*
X130749493Y-101565152D02*
X130701874Y-101660390D01*
X130701874Y-101660390D02*
X130654255Y-101708009D01*
X130654255Y-101708009D02*
X130559017Y-101755628D01*
X130559017Y-101755628D02*
X130178065Y-101755628D01*
X162071207Y-102231819D02*
X161737874Y-101755628D01*
X161499779Y-102231819D02*
X161499779Y-101231819D01*
X161499779Y-101231819D02*
X161880731Y-101231819D01*
X161880731Y-101231819D02*
X161975969Y-101279438D01*
X161975969Y-101279438D02*
X162023588Y-101327057D01*
X162023588Y-101327057D02*
X162071207Y-101422295D01*
X162071207Y-101422295D02*
X162071207Y-101565152D01*
X162071207Y-101565152D02*
X162023588Y-101660390D01*
X162023588Y-101660390D02*
X161975969Y-101708009D01*
X161975969Y-101708009D02*
X161880731Y-101755628D01*
X161880731Y-101755628D02*
X161499779Y-101755628D01*
X162404541Y-101231819D02*
X163071207Y-102231819D01*
X163071207Y-101231819D02*
X162404541Y-102231819D01*
X163214065Y-102327057D02*
X163975969Y-102327057D01*
X164690255Y-102231819D02*
X164214065Y-102231819D01*
X164214065Y-102231819D02*
X164214065Y-101231819D01*
X145227922Y-116852819D02*
X145799350Y-116852819D01*
X145513636Y-117852819D02*
X145513636Y-116852819D01*
X146037446Y-116852819D02*
X146704112Y-117852819D01*
X146704112Y-116852819D02*
X146037446Y-117852819D01*
X154297142Y-96339819D02*
X153963809Y-95863628D01*
X153725714Y-96339819D02*
X153725714Y-95339819D01*
X153725714Y-95339819D02*
X154106666Y-95339819D01*
X154106666Y-95339819D02*
X154201904Y-95387438D01*
X154201904Y-95387438D02*
X154249523Y-95435057D01*
X154249523Y-95435057D02*
X154297142Y-95530295D01*
X154297142Y-95530295D02*
X154297142Y-95673152D01*
X154297142Y-95673152D02*
X154249523Y-95768390D01*
X154249523Y-95768390D02*
X154201904Y-95816009D01*
X154201904Y-95816009D02*
X154106666Y-95863628D01*
X154106666Y-95863628D02*
X153725714Y-95863628D01*
X155249523Y-96339819D02*
X154678095Y-96339819D01*
X154963809Y-96339819D02*
X154963809Y-95339819D01*
X154963809Y-95339819D02*
X154868571Y-95482676D01*
X154868571Y-95482676D02*
X154773333Y-95577914D01*
X154773333Y-95577914D02*
X154678095Y-95625533D01*
X156154285Y-95339819D02*
X155678095Y-95339819D01*
X155678095Y-95339819D02*
X155630476Y-95816009D01*
X155630476Y-95816009D02*
X155678095Y-95768390D01*
X155678095Y-95768390D02*
X155773333Y-95720771D01*
X155773333Y-95720771D02*
X156011428Y-95720771D01*
X156011428Y-95720771D02*
X156106666Y-95768390D01*
X156106666Y-95768390D02*
X156154285Y-95816009D01*
X156154285Y-95816009D02*
X156201904Y-95911247D01*
X156201904Y-95911247D02*
X156201904Y-96149342D01*
X156201904Y-96149342D02*
X156154285Y-96244580D01*
X156154285Y-96244580D02*
X156106666Y-96292200D01*
X156106666Y-96292200D02*
X156011428Y-96339819D01*
X156011428Y-96339819D02*
X155773333Y-96339819D01*
X155773333Y-96339819D02*
X155678095Y-96292200D01*
X155678095Y-96292200D02*
X155630476Y-96244580D01*
X160728819Y-121292857D02*
X160252628Y-121626190D01*
X160728819Y-121864285D02*
X159728819Y-121864285D01*
X159728819Y-121864285D02*
X159728819Y-121483333D01*
X159728819Y-121483333D02*
X159776438Y-121388095D01*
X159776438Y-121388095D02*
X159824057Y-121340476D01*
X159824057Y-121340476D02*
X159919295Y-121292857D01*
X159919295Y-121292857D02*
X160062152Y-121292857D01*
X160062152Y-121292857D02*
X160157390Y-121340476D01*
X160157390Y-121340476D02*
X160205009Y-121388095D01*
X160205009Y-121388095D02*
X160252628Y-121483333D01*
X160252628Y-121483333D02*
X160252628Y-121864285D01*
X160728819Y-120340476D02*
X160728819Y-120911904D01*
X160728819Y-120626190D02*
X159728819Y-120626190D01*
X159728819Y-120626190D02*
X159871676Y-120721428D01*
X159871676Y-120721428D02*
X159966914Y-120816666D01*
X159966914Y-120816666D02*
X160014533Y-120911904D01*
X159728819Y-119721428D02*
X159728819Y-119626190D01*
X159728819Y-119626190D02*
X159776438Y-119530952D01*
X159776438Y-119530952D02*
X159824057Y-119483333D01*
X159824057Y-119483333D02*
X159919295Y-119435714D01*
X159919295Y-119435714D02*
X160109771Y-119388095D01*
X160109771Y-119388095D02*
X160347866Y-119388095D01*
X160347866Y-119388095D02*
X160538342Y-119435714D01*
X160538342Y-119435714D02*
X160633580Y-119483333D01*
X160633580Y-119483333D02*
X160681200Y-119530952D01*
X160681200Y-119530952D02*
X160728819Y-119626190D01*
X160728819Y-119626190D02*
X160728819Y-119721428D01*
X160728819Y-119721428D02*
X160681200Y-119816666D01*
X160681200Y-119816666D02*
X160633580Y-119864285D01*
X160633580Y-119864285D02*
X160538342Y-119911904D01*
X160538342Y-119911904D02*
X160347866Y-119959523D01*
X160347866Y-119959523D02*
X160109771Y-119959523D01*
X160109771Y-119959523D02*
X159919295Y-119911904D01*
X159919295Y-119911904D02*
X159824057Y-119864285D01*
X159824057Y-119864285D02*
X159776438Y-119816666D01*
X159776438Y-119816666D02*
X159728819Y-119721428D01*
X128166905Y-121104819D02*
X128166905Y-120104819D01*
X128166905Y-120104819D02*
X128405000Y-120104819D01*
X128405000Y-120104819D02*
X128547857Y-120152438D01*
X128547857Y-120152438D02*
X128643095Y-120247676D01*
X128643095Y-120247676D02*
X128690714Y-120342914D01*
X128690714Y-120342914D02*
X128738333Y-120533390D01*
X128738333Y-120533390D02*
X128738333Y-120676247D01*
X128738333Y-120676247D02*
X128690714Y-120866723D01*
X128690714Y-120866723D02*
X128643095Y-120961961D01*
X128643095Y-120961961D02*
X128547857Y-121057200D01*
X128547857Y-121057200D02*
X128405000Y-121104819D01*
X128405000Y-121104819D02*
X128166905Y-121104819D01*
X129595476Y-120104819D02*
X129405000Y-120104819D01*
X129405000Y-120104819D02*
X129309762Y-120152438D01*
X129309762Y-120152438D02*
X129262143Y-120200057D01*
X129262143Y-120200057D02*
X129166905Y-120342914D01*
X129166905Y-120342914D02*
X129119286Y-120533390D01*
X129119286Y-120533390D02*
X129119286Y-120914342D01*
X129119286Y-120914342D02*
X129166905Y-121009580D01*
X129166905Y-121009580D02*
X129214524Y-121057200D01*
X129214524Y-121057200D02*
X129309762Y-121104819D01*
X129309762Y-121104819D02*
X129500238Y-121104819D01*
X129500238Y-121104819D02*
X129595476Y-121057200D01*
X129595476Y-121057200D02*
X129643095Y-121009580D01*
X129643095Y-121009580D02*
X129690714Y-120914342D01*
X129690714Y-120914342D02*
X129690714Y-120676247D01*
X129690714Y-120676247D02*
X129643095Y-120581009D01*
X129643095Y-120581009D02*
X129595476Y-120533390D01*
X129595476Y-120533390D02*
X129500238Y-120485771D01*
X129500238Y-120485771D02*
X129309762Y-120485771D01*
X129309762Y-120485771D02*
X129214524Y-120533390D01*
X129214524Y-120533390D02*
X129166905Y-120581009D01*
X129166905Y-120581009D02*
X129119286Y-120676247D01*
X132088095Y-123736819D02*
X132659523Y-123736819D01*
X132373809Y-124736819D02*
X132373809Y-123736819D01*
X132992857Y-124736819D02*
X132992857Y-123736819D01*
X132992857Y-123736819D02*
X133373809Y-123736819D01*
X133373809Y-123736819D02*
X133469047Y-123784438D01*
X133469047Y-123784438D02*
X133516666Y-123832057D01*
X133516666Y-123832057D02*
X133564285Y-123927295D01*
X133564285Y-123927295D02*
X133564285Y-124070152D01*
X133564285Y-124070152D02*
X133516666Y-124165390D01*
X133516666Y-124165390D02*
X133469047Y-124213009D01*
X133469047Y-124213009D02*
X133373809Y-124260628D01*
X133373809Y-124260628D02*
X132992857Y-124260628D01*
X133945238Y-123832057D02*
X133992857Y-123784438D01*
X133992857Y-123784438D02*
X134088095Y-123736819D01*
X134088095Y-123736819D02*
X134326190Y-123736819D01*
X134326190Y-123736819D02*
X134421428Y-123784438D01*
X134421428Y-123784438D02*
X134469047Y-123832057D01*
X134469047Y-123832057D02*
X134516666Y-123927295D01*
X134516666Y-123927295D02*
X134516666Y-124022533D01*
X134516666Y-124022533D02*
X134469047Y-124165390D01*
X134469047Y-124165390D02*
X133897619Y-124736819D01*
X133897619Y-124736819D02*
X134516666Y-124736819D01*
X131278571Y-127353866D02*
X132040476Y-127353866D01*
X131659523Y-127734819D02*
X131659523Y-126972914D01*
X132849999Y-127211009D02*
X132992856Y-127258628D01*
X132992856Y-127258628D02*
X133040475Y-127306247D01*
X133040475Y-127306247D02*
X133088094Y-127401485D01*
X133088094Y-127401485D02*
X133088094Y-127544342D01*
X133088094Y-127544342D02*
X133040475Y-127639580D01*
X133040475Y-127639580D02*
X132992856Y-127687200D01*
X132992856Y-127687200D02*
X132897618Y-127734819D01*
X132897618Y-127734819D02*
X132516666Y-127734819D01*
X132516666Y-127734819D02*
X132516666Y-126734819D01*
X132516666Y-126734819D02*
X132849999Y-126734819D01*
X132849999Y-126734819D02*
X132945237Y-126782438D01*
X132945237Y-126782438D02*
X132992856Y-126830057D01*
X132992856Y-126830057D02*
X133040475Y-126925295D01*
X133040475Y-126925295D02*
X133040475Y-127020533D01*
X133040475Y-127020533D02*
X132992856Y-127115771D01*
X132992856Y-127115771D02*
X132945237Y-127163390D01*
X132945237Y-127163390D02*
X132849999Y-127211009D01*
X132849999Y-127211009D02*
X132516666Y-127211009D01*
X133469047Y-127449104D02*
X133945237Y-127449104D01*
X133373809Y-127734819D02*
X133707142Y-126734819D01*
X133707142Y-126734819D02*
X134040475Y-127734819D01*
X134230952Y-126734819D02*
X134802380Y-126734819D01*
X134516666Y-127734819D02*
X134516666Y-126734819D01*
X134992857Y-126734819D02*
X135564285Y-126734819D01*
X135278571Y-127734819D02*
X135278571Y-126734819D01*
X155535476Y-117564819D02*
X156202142Y-118564819D01*
X156202142Y-117564819D02*
X155535476Y-118564819D01*
X157154523Y-118469580D02*
X157106904Y-118517200D01*
X157106904Y-118517200D02*
X156964047Y-118564819D01*
X156964047Y-118564819D02*
X156868809Y-118564819D01*
X156868809Y-118564819D02*
X156725952Y-118517200D01*
X156725952Y-118517200D02*
X156630714Y-118421961D01*
X156630714Y-118421961D02*
X156583095Y-118326723D01*
X156583095Y-118326723D02*
X156535476Y-118136247D01*
X156535476Y-118136247D02*
X156535476Y-117993390D01*
X156535476Y-117993390D02*
X156583095Y-117802914D01*
X156583095Y-117802914D02*
X156630714Y-117707676D01*
X156630714Y-117707676D02*
X156725952Y-117612438D01*
X156725952Y-117612438D02*
X156868809Y-117564819D01*
X156868809Y-117564819D02*
X156964047Y-117564819D01*
X156964047Y-117564819D02*
X157106904Y-117612438D01*
X157106904Y-117612438D02*
X157154523Y-117660057D01*
X158059285Y-117564819D02*
X157583095Y-117564819D01*
X157583095Y-117564819D02*
X157535476Y-118041009D01*
X157535476Y-118041009D02*
X157583095Y-117993390D01*
X157583095Y-117993390D02*
X157678333Y-117945771D01*
X157678333Y-117945771D02*
X157916428Y-117945771D01*
X157916428Y-117945771D02*
X158011666Y-117993390D01*
X158011666Y-117993390D02*
X158059285Y-118041009D01*
X158059285Y-118041009D02*
X158106904Y-118136247D01*
X158106904Y-118136247D02*
X158106904Y-118374342D01*
X158106904Y-118374342D02*
X158059285Y-118469580D01*
X158059285Y-118469580D02*
X158011666Y-118517200D01*
X158011666Y-118517200D02*
X157916428Y-118564819D01*
X157916428Y-118564819D02*
X157678333Y-118564819D01*
X157678333Y-118564819D02*
X157583095Y-118517200D01*
X157583095Y-118517200D02*
X157535476Y-118469580D01*
X128166905Y-96974819D02*
X128166905Y-95974819D01*
X128166905Y-95974819D02*
X128405000Y-95974819D01*
X128405000Y-95974819D02*
X128547857Y-96022438D01*
X128547857Y-96022438D02*
X128643095Y-96117676D01*
X128643095Y-96117676D02*
X128690714Y-96212914D01*
X128690714Y-96212914D02*
X128738333Y-96403390D01*
X128738333Y-96403390D02*
X128738333Y-96546247D01*
X128738333Y-96546247D02*
X128690714Y-96736723D01*
X128690714Y-96736723D02*
X128643095Y-96831961D01*
X128643095Y-96831961D02*
X128547857Y-96927200D01*
X128547857Y-96927200D02*
X128405000Y-96974819D01*
X128405000Y-96974819D02*
X128166905Y-96974819D01*
X129309762Y-96403390D02*
X129214524Y-96355771D01*
X129214524Y-96355771D02*
X129166905Y-96308152D01*
X129166905Y-96308152D02*
X129119286Y-96212914D01*
X129119286Y-96212914D02*
X129119286Y-96165295D01*
X129119286Y-96165295D02*
X129166905Y-96070057D01*
X129166905Y-96070057D02*
X129214524Y-96022438D01*
X129214524Y-96022438D02*
X129309762Y-95974819D01*
X129309762Y-95974819D02*
X129500238Y-95974819D01*
X129500238Y-95974819D02*
X129595476Y-96022438D01*
X129595476Y-96022438D02*
X129643095Y-96070057D01*
X129643095Y-96070057D02*
X129690714Y-96165295D01*
X129690714Y-96165295D02*
X129690714Y-96212914D01*
X129690714Y-96212914D02*
X129643095Y-96308152D01*
X129643095Y-96308152D02*
X129595476Y-96355771D01*
X129595476Y-96355771D02*
X129500238Y-96403390D01*
X129500238Y-96403390D02*
X129309762Y-96403390D01*
X129309762Y-96403390D02*
X129214524Y-96451009D01*
X129214524Y-96451009D02*
X129166905Y-96498628D01*
X129166905Y-96498628D02*
X129119286Y-96593866D01*
X129119286Y-96593866D02*
X129119286Y-96784342D01*
X129119286Y-96784342D02*
X129166905Y-96879580D01*
X129166905Y-96879580D02*
X129214524Y-96927200D01*
X129214524Y-96927200D02*
X129309762Y-96974819D01*
X129309762Y-96974819D02*
X129500238Y-96974819D01*
X129500238Y-96974819D02*
X129595476Y-96927200D01*
X129595476Y-96927200D02*
X129643095Y-96879580D01*
X129643095Y-96879580D02*
X129690714Y-96784342D01*
X129690714Y-96784342D02*
X129690714Y-96593866D01*
X129690714Y-96593866D02*
X129643095Y-96498628D01*
X129643095Y-96498628D02*
X129595476Y-96451009D01*
X129595476Y-96451009D02*
X129500238Y-96403390D01*
X149852142Y-126184819D02*
X149518809Y-125708628D01*
X149280714Y-126184819D02*
X149280714Y-125184819D01*
X149280714Y-125184819D02*
X149661666Y-125184819D01*
X149661666Y-125184819D02*
X149756904Y-125232438D01*
X149756904Y-125232438D02*
X149804523Y-125280057D01*
X149804523Y-125280057D02*
X149852142Y-125375295D01*
X149852142Y-125375295D02*
X149852142Y-125518152D01*
X149852142Y-125518152D02*
X149804523Y-125613390D01*
X149804523Y-125613390D02*
X149756904Y-125661009D01*
X149756904Y-125661009D02*
X149661666Y-125708628D01*
X149661666Y-125708628D02*
X149280714Y-125708628D01*
X150804523Y-126184819D02*
X150233095Y-126184819D01*
X150518809Y-126184819D02*
X150518809Y-125184819D01*
X150518809Y-125184819D02*
X150423571Y-125327676D01*
X150423571Y-125327676D02*
X150328333Y-125422914D01*
X150328333Y-125422914D02*
X150233095Y-125470533D01*
X151185476Y-125280057D02*
X151233095Y-125232438D01*
X151233095Y-125232438D02*
X151328333Y-125184819D01*
X151328333Y-125184819D02*
X151566428Y-125184819D01*
X151566428Y-125184819D02*
X151661666Y-125232438D01*
X151661666Y-125232438D02*
X151709285Y-125280057D01*
X151709285Y-125280057D02*
X151756904Y-125375295D01*
X151756904Y-125375295D02*
X151756904Y-125470533D01*
X151756904Y-125470533D02*
X151709285Y-125613390D01*
X151709285Y-125613390D02*
X151137857Y-126184819D01*
X151137857Y-126184819D02*
X151756904Y-126184819D01*
X144740476Y-80734819D02*
X145407142Y-81734819D01*
X145407142Y-80734819D02*
X144740476Y-81734819D01*
X146359523Y-81639580D02*
X146311904Y-81687200D01*
X146311904Y-81687200D02*
X146169047Y-81734819D01*
X146169047Y-81734819D02*
X146073809Y-81734819D01*
X146073809Y-81734819D02*
X145930952Y-81687200D01*
X145930952Y-81687200D02*
X145835714Y-81591961D01*
X145835714Y-81591961D02*
X145788095Y-81496723D01*
X145788095Y-81496723D02*
X145740476Y-81306247D01*
X145740476Y-81306247D02*
X145740476Y-81163390D01*
X145740476Y-81163390D02*
X145788095Y-80972914D01*
X145788095Y-80972914D02*
X145835714Y-80877676D01*
X145835714Y-80877676D02*
X145930952Y-80782438D01*
X145930952Y-80782438D02*
X146073809Y-80734819D01*
X146073809Y-80734819D02*
X146169047Y-80734819D01*
X146169047Y-80734819D02*
X146311904Y-80782438D01*
X146311904Y-80782438D02*
X146359523Y-80830057D01*
X146835714Y-81734819D02*
X147026190Y-81734819D01*
X147026190Y-81734819D02*
X147121428Y-81687200D01*
X147121428Y-81687200D02*
X147169047Y-81639580D01*
X147169047Y-81639580D02*
X147264285Y-81496723D01*
X147264285Y-81496723D02*
X147311904Y-81306247D01*
X147311904Y-81306247D02*
X147311904Y-80925295D01*
X147311904Y-80925295D02*
X147264285Y-80830057D01*
X147264285Y-80830057D02*
X147216666Y-80782438D01*
X147216666Y-80782438D02*
X147121428Y-80734819D01*
X147121428Y-80734819D02*
X146930952Y-80734819D01*
X146930952Y-80734819D02*
X146835714Y-80782438D01*
X146835714Y-80782438D02*
X146788095Y-80830057D01*
X146788095Y-80830057D02*
X146740476Y-80925295D01*
X146740476Y-80925295D02*
X146740476Y-81163390D01*
X146740476Y-81163390D02*
X146788095Y-81258628D01*
X146788095Y-81258628D02*
X146835714Y-81306247D01*
X146835714Y-81306247D02*
X146930952Y-81353866D01*
X146930952Y-81353866D02*
X147121428Y-81353866D01*
X147121428Y-81353866D02*
X147216666Y-81306247D01*
X147216666Y-81306247D02*
X147264285Y-81258628D01*
X147264285Y-81258628D02*
X147311904Y-81163390D01*
X139636667Y-128677200D02*
X139779524Y-128724819D01*
X139779524Y-128724819D02*
X140017619Y-128724819D01*
X140017619Y-128724819D02*
X140112857Y-128677200D01*
X140112857Y-128677200D02*
X140160476Y-128629580D01*
X140160476Y-128629580D02*
X140208095Y-128534342D01*
X140208095Y-128534342D02*
X140208095Y-128439104D01*
X140208095Y-128439104D02*
X140160476Y-128343866D01*
X140160476Y-128343866D02*
X140112857Y-128296247D01*
X140112857Y-128296247D02*
X140017619Y-128248628D01*
X140017619Y-128248628D02*
X139827143Y-128201009D01*
X139827143Y-128201009D02*
X139731905Y-128153390D01*
X139731905Y-128153390D02*
X139684286Y-128105771D01*
X139684286Y-128105771D02*
X139636667Y-128010533D01*
X139636667Y-128010533D02*
X139636667Y-127915295D01*
X139636667Y-127915295D02*
X139684286Y-127820057D01*
X139684286Y-127820057D02*
X139731905Y-127772438D01*
X139731905Y-127772438D02*
X139827143Y-127724819D01*
X139827143Y-127724819D02*
X140065238Y-127724819D01*
X140065238Y-127724819D02*
X140208095Y-127772438D01*
X140541429Y-127724819D02*
X140779524Y-128724819D01*
X140779524Y-128724819D02*
X140970000Y-128010533D01*
X140970000Y-128010533D02*
X141160476Y-128724819D01*
X141160476Y-128724819D02*
X141398572Y-127724819D01*
X142303333Y-128724819D02*
X141731905Y-128724819D01*
X142017619Y-128724819D02*
X142017619Y-127724819D01*
X142017619Y-127724819D02*
X141922381Y-127867676D01*
X141922381Y-127867676D02*
X141827143Y-127962914D01*
X141827143Y-127962914D02*
X141731905Y-128010533D01*
X160956666Y-109690819D02*
X160956666Y-110405104D01*
X160956666Y-110405104D02*
X160909047Y-110547961D01*
X160909047Y-110547961D02*
X160813809Y-110643200D01*
X160813809Y-110643200D02*
X160670952Y-110690819D01*
X160670952Y-110690819D02*
X160575714Y-110690819D01*
X161337619Y-109690819D02*
X162004285Y-109690819D01*
X162004285Y-109690819D02*
X161575714Y-110690819D01*
X136390142Y-96339819D02*
X136056809Y-95863628D01*
X135818714Y-96339819D02*
X135818714Y-95339819D01*
X135818714Y-95339819D02*
X136199666Y-95339819D01*
X136199666Y-95339819D02*
X136294904Y-95387438D01*
X136294904Y-95387438D02*
X136342523Y-95435057D01*
X136342523Y-95435057D02*
X136390142Y-95530295D01*
X136390142Y-95530295D02*
X136390142Y-95673152D01*
X136390142Y-95673152D02*
X136342523Y-95768390D01*
X136342523Y-95768390D02*
X136294904Y-95816009D01*
X136294904Y-95816009D02*
X136199666Y-95863628D01*
X136199666Y-95863628D02*
X135818714Y-95863628D01*
X137342523Y-96339819D02*
X136771095Y-96339819D01*
X137056809Y-96339819D02*
X137056809Y-95339819D01*
X137056809Y-95339819D02*
X136961571Y-95482676D01*
X136961571Y-95482676D02*
X136866333Y-95577914D01*
X136866333Y-95577914D02*
X136771095Y-95625533D01*
X138199666Y-95339819D02*
X138009190Y-95339819D01*
X138009190Y-95339819D02*
X137913952Y-95387438D01*
X137913952Y-95387438D02*
X137866333Y-95435057D01*
X137866333Y-95435057D02*
X137771095Y-95577914D01*
X137771095Y-95577914D02*
X137723476Y-95768390D01*
X137723476Y-95768390D02*
X137723476Y-96149342D01*
X137723476Y-96149342D02*
X137771095Y-96244580D01*
X137771095Y-96244580D02*
X137818714Y-96292200D01*
X137818714Y-96292200D02*
X137913952Y-96339819D01*
X137913952Y-96339819D02*
X138104428Y-96339819D01*
X138104428Y-96339819D02*
X138199666Y-96292200D01*
X138199666Y-96292200D02*
X138247285Y-96244580D01*
X138247285Y-96244580D02*
X138294904Y-96149342D01*
X138294904Y-96149342D02*
X138294904Y-95911247D01*
X138294904Y-95911247D02*
X138247285Y-95816009D01*
X138247285Y-95816009D02*
X138199666Y-95768390D01*
X138199666Y-95768390D02*
X138104428Y-95720771D01*
X138104428Y-95720771D02*
X137913952Y-95720771D01*
X137913952Y-95720771D02*
X137818714Y-95768390D01*
X137818714Y-95768390D02*
X137771095Y-95816009D01*
X137771095Y-95816009D02*
X137723476Y-95911247D01*
X148598095Y-89446819D02*
X149169523Y-89446819D01*
X148883809Y-90446819D02*
X148883809Y-89446819D01*
X149502857Y-90446819D02*
X149502857Y-89446819D01*
X149502857Y-89446819D02*
X149883809Y-89446819D01*
X149883809Y-89446819D02*
X149979047Y-89494438D01*
X149979047Y-89494438D02*
X150026666Y-89542057D01*
X150026666Y-89542057D02*
X150074285Y-89637295D01*
X150074285Y-89637295D02*
X150074285Y-89780152D01*
X150074285Y-89780152D02*
X150026666Y-89875390D01*
X150026666Y-89875390D02*
X149979047Y-89923009D01*
X149979047Y-89923009D02*
X149883809Y-89970628D01*
X149883809Y-89970628D02*
X149502857Y-89970628D01*
X151026666Y-90446819D02*
X150455238Y-90446819D01*
X150740952Y-90446819D02*
X150740952Y-89446819D01*
X150740952Y-89446819D02*
X150645714Y-89589676D01*
X150645714Y-89589676D02*
X150550476Y-89684914D01*
X150550476Y-89684914D02*
X150455238Y-89732533D01*
X148574286Y-93063866D02*
X149336191Y-93063866D01*
X148955238Y-93444819D02*
X148955238Y-92682914D01*
X150288571Y-92444819D02*
X149812381Y-92444819D01*
X149812381Y-92444819D02*
X149764762Y-92921009D01*
X149764762Y-92921009D02*
X149812381Y-92873390D01*
X149812381Y-92873390D02*
X149907619Y-92825771D01*
X149907619Y-92825771D02*
X150145714Y-92825771D01*
X150145714Y-92825771D02*
X150240952Y-92873390D01*
X150240952Y-92873390D02*
X150288571Y-92921009D01*
X150288571Y-92921009D02*
X150336190Y-93016247D01*
X150336190Y-93016247D02*
X150336190Y-93254342D01*
X150336190Y-93254342D02*
X150288571Y-93349580D01*
X150288571Y-93349580D02*
X150240952Y-93397200D01*
X150240952Y-93397200D02*
X150145714Y-93444819D01*
X150145714Y-93444819D02*
X149907619Y-93444819D01*
X149907619Y-93444819D02*
X149812381Y-93397200D01*
X149812381Y-93397200D02*
X149764762Y-93349580D01*
X150621905Y-92444819D02*
X150955238Y-93444819D01*
X150955238Y-93444819D02*
X151288571Y-92444819D01*
X135898095Y-84366819D02*
X136469523Y-84366819D01*
X136183809Y-85366819D02*
X136183809Y-84366819D01*
X136802857Y-85366819D02*
X136802857Y-84366819D01*
X136802857Y-84366819D02*
X137183809Y-84366819D01*
X137183809Y-84366819D02*
X137279047Y-84414438D01*
X137279047Y-84414438D02*
X137326666Y-84462057D01*
X137326666Y-84462057D02*
X137374285Y-84557295D01*
X137374285Y-84557295D02*
X137374285Y-84700152D01*
X137374285Y-84700152D02*
X137326666Y-84795390D01*
X137326666Y-84795390D02*
X137279047Y-84843009D01*
X137279047Y-84843009D02*
X137183809Y-84890628D01*
X137183809Y-84890628D02*
X136802857Y-84890628D01*
X137707619Y-84366819D02*
X138374285Y-84366819D01*
X138374285Y-84366819D02*
X137945714Y-85366819D01*
X135779048Y-88364819D02*
X135779048Y-87364819D01*
X136826666Y-88364819D02*
X136493333Y-87888628D01*
X136255238Y-88364819D02*
X136255238Y-87364819D01*
X136255238Y-87364819D02*
X136636190Y-87364819D01*
X136636190Y-87364819D02*
X136731428Y-87412438D01*
X136731428Y-87412438D02*
X136779047Y-87460057D01*
X136779047Y-87460057D02*
X136826666Y-87555295D01*
X136826666Y-87555295D02*
X136826666Y-87698152D01*
X136826666Y-87698152D02*
X136779047Y-87793390D01*
X136779047Y-87793390D02*
X136731428Y-87841009D01*
X136731428Y-87841009D02*
X136636190Y-87888628D01*
X136636190Y-87888628D02*
X136255238Y-87888628D01*
X137017143Y-88460057D02*
X137779047Y-88460057D01*
X138588571Y-88364819D02*
X138255238Y-87888628D01*
X138017143Y-88364819D02*
X138017143Y-87364819D01*
X138017143Y-87364819D02*
X138398095Y-87364819D01*
X138398095Y-87364819D02*
X138493333Y-87412438D01*
X138493333Y-87412438D02*
X138540952Y-87460057D01*
X138540952Y-87460057D02*
X138588571Y-87555295D01*
X138588571Y-87555295D02*
X138588571Y-87698152D01*
X138588571Y-87698152D02*
X138540952Y-87793390D01*
X138540952Y-87793390D02*
X138493333Y-87841009D01*
X138493333Y-87841009D02*
X138398095Y-87888628D01*
X138398095Y-87888628D02*
X138017143Y-87888628D01*
X139533333Y-84179580D02*
X139485714Y-84227200D01*
X139485714Y-84227200D02*
X139342857Y-84274819D01*
X139342857Y-84274819D02*
X139247619Y-84274819D01*
X139247619Y-84274819D02*
X139104762Y-84227200D01*
X139104762Y-84227200D02*
X139009524Y-84131961D01*
X139009524Y-84131961D02*
X138961905Y-84036723D01*
X138961905Y-84036723D02*
X138914286Y-83846247D01*
X138914286Y-83846247D02*
X138914286Y-83703390D01*
X138914286Y-83703390D02*
X138961905Y-83512914D01*
X138961905Y-83512914D02*
X139009524Y-83417676D01*
X139009524Y-83417676D02*
X139104762Y-83322438D01*
X139104762Y-83322438D02*
X139247619Y-83274819D01*
X139247619Y-83274819D02*
X139342857Y-83274819D01*
X139342857Y-83274819D02*
X139485714Y-83322438D01*
X139485714Y-83322438D02*
X139533333Y-83370057D01*
X139914286Y-83370057D02*
X139961905Y-83322438D01*
X139961905Y-83322438D02*
X140057143Y-83274819D01*
X140057143Y-83274819D02*
X140295238Y-83274819D01*
X140295238Y-83274819D02*
X140390476Y-83322438D01*
X140390476Y-83322438D02*
X140438095Y-83370057D01*
X140438095Y-83370057D02*
X140485714Y-83465295D01*
X140485714Y-83465295D02*
X140485714Y-83560533D01*
X140485714Y-83560533D02*
X140438095Y-83703390D01*
X140438095Y-83703390D02*
X139866667Y-84274819D01*
X139866667Y-84274819D02*
X140485714Y-84274819D01*
X149796666Y-103467819D02*
X149796666Y-104182104D01*
X149796666Y-104182104D02*
X149749047Y-104324961D01*
X149749047Y-104324961D02*
X149653809Y-104420200D01*
X149653809Y-104420200D02*
X149510952Y-104467819D01*
X149510952Y-104467819D02*
X149415714Y-104467819D01*
X150796666Y-104467819D02*
X150225238Y-104467819D01*
X150510952Y-104467819D02*
X150510952Y-103467819D01*
X150510952Y-103467819D02*
X150415714Y-103610676D01*
X150415714Y-103610676D02*
X150320476Y-103705914D01*
X150320476Y-103705914D02*
X150225238Y-103753533D01*
X144928220Y-122279580D02*
X144880601Y-122327200D01*
X144880601Y-122327200D02*
X144737744Y-122374819D01*
X144737744Y-122374819D02*
X144642506Y-122374819D01*
X144642506Y-122374819D02*
X144499649Y-122327200D01*
X144499649Y-122327200D02*
X144404411Y-122231961D01*
X144404411Y-122231961D02*
X144356792Y-122136723D01*
X144356792Y-122136723D02*
X144309173Y-121946247D01*
X144309173Y-121946247D02*
X144309173Y-121803390D01*
X144309173Y-121803390D02*
X144356792Y-121612914D01*
X144356792Y-121612914D02*
X144404411Y-121517676D01*
X144404411Y-121517676D02*
X144499649Y-121422438D01*
X144499649Y-121422438D02*
X144642506Y-121374819D01*
X144642506Y-121374819D02*
X144737744Y-121374819D01*
X144737744Y-121374819D02*
X144880601Y-121422438D01*
X144880601Y-121422438D02*
X144928220Y-121470057D01*
X145261554Y-121374819D02*
X145880601Y-121374819D01*
X145880601Y-121374819D02*
X145547268Y-121755771D01*
X145547268Y-121755771D02*
X145690125Y-121755771D01*
X145690125Y-121755771D02*
X145785363Y-121803390D01*
X145785363Y-121803390D02*
X145832982Y-121851009D01*
X145832982Y-121851009D02*
X145880601Y-121946247D01*
X145880601Y-121946247D02*
X145880601Y-122184342D01*
X145880601Y-122184342D02*
X145832982Y-122279580D01*
X145832982Y-122279580D02*
X145785363Y-122327200D01*
X145785363Y-122327200D02*
X145690125Y-122374819D01*
X145690125Y-122374819D02*
X145404411Y-122374819D01*
X145404411Y-122374819D02*
X145309173Y-122327200D01*
X145309173Y-122327200D02*
X145261554Y-122279580D01*
X145311905Y-114374819D02*
X145311905Y-113374819D01*
X145311905Y-113374819D02*
X145550000Y-113374819D01*
X145550000Y-113374819D02*
X145692857Y-113422438D01*
X145692857Y-113422438D02*
X145788095Y-113517676D01*
X145788095Y-113517676D02*
X145835714Y-113612914D01*
X145835714Y-113612914D02*
X145883333Y-113803390D01*
X145883333Y-113803390D02*
X145883333Y-113946247D01*
X145883333Y-113946247D02*
X145835714Y-114136723D01*
X145835714Y-114136723D02*
X145788095Y-114231961D01*
X145788095Y-114231961D02*
X145692857Y-114327200D01*
X145692857Y-114327200D02*
X145550000Y-114374819D01*
X145550000Y-114374819D02*
X145311905Y-114374819D01*
X146788095Y-113374819D02*
X146311905Y-113374819D01*
X146311905Y-113374819D02*
X146264286Y-113851009D01*
X146264286Y-113851009D02*
X146311905Y-113803390D01*
X146311905Y-113803390D02*
X146407143Y-113755771D01*
X146407143Y-113755771D02*
X146645238Y-113755771D01*
X146645238Y-113755771D02*
X146740476Y-113803390D01*
X146740476Y-113803390D02*
X146788095Y-113851009D01*
X146788095Y-113851009D02*
X146835714Y-113946247D01*
X146835714Y-113946247D02*
X146835714Y-114184342D01*
X146835714Y-114184342D02*
X146788095Y-114279580D01*
X146788095Y-114279580D02*
X146740476Y-114327200D01*
X146740476Y-114327200D02*
X146645238Y-114374819D01*
X146645238Y-114374819D02*
X146407143Y-114374819D01*
X146407143Y-114374819D02*
X146311905Y-114327200D01*
X146311905Y-114327200D02*
X146264286Y-114279580D01*
X152233333Y-84179580D02*
X152185714Y-84227200D01*
X152185714Y-84227200D02*
X152042857Y-84274819D01*
X152042857Y-84274819D02*
X151947619Y-84274819D01*
X151947619Y-84274819D02*
X151804762Y-84227200D01*
X151804762Y-84227200D02*
X151709524Y-84131961D01*
X151709524Y-84131961D02*
X151661905Y-84036723D01*
X151661905Y-84036723D02*
X151614286Y-83846247D01*
X151614286Y-83846247D02*
X151614286Y-83703390D01*
X151614286Y-83703390D02*
X151661905Y-83512914D01*
X151661905Y-83512914D02*
X151709524Y-83417676D01*
X151709524Y-83417676D02*
X151804762Y-83322438D01*
X151804762Y-83322438D02*
X151947619Y-83274819D01*
X151947619Y-83274819D02*
X152042857Y-83274819D01*
X152042857Y-83274819D02*
X152185714Y-83322438D01*
X152185714Y-83322438D02*
X152233333Y-83370057D01*
X153185714Y-84274819D02*
X152614286Y-84274819D01*
X152900000Y-84274819D02*
X152900000Y-83274819D01*
X152900000Y-83274819D02*
X152804762Y-83417676D01*
X152804762Y-83417676D02*
X152709524Y-83512914D01*
X152709524Y-83512914D02*
X152614286Y-83560533D01*
X158019761Y-102150057D02*
X157924523Y-102102438D01*
X157924523Y-102102438D02*
X157829285Y-102007200D01*
X157829285Y-102007200D02*
X157686428Y-101864342D01*
X157686428Y-101864342D02*
X157591190Y-101816723D01*
X157591190Y-101816723D02*
X157495952Y-101816723D01*
X157543571Y-102054819D02*
X157448333Y-102007200D01*
X157448333Y-102007200D02*
X157353095Y-101911961D01*
X157353095Y-101911961D02*
X157305476Y-101721485D01*
X157305476Y-101721485D02*
X157305476Y-101388152D01*
X157305476Y-101388152D02*
X157353095Y-101197676D01*
X157353095Y-101197676D02*
X157448333Y-101102438D01*
X157448333Y-101102438D02*
X157543571Y-101054819D01*
X157543571Y-101054819D02*
X157734047Y-101054819D01*
X157734047Y-101054819D02*
X157829285Y-101102438D01*
X157829285Y-101102438D02*
X157924523Y-101197676D01*
X157924523Y-101197676D02*
X157972142Y-101388152D01*
X157972142Y-101388152D02*
X157972142Y-101721485D01*
X157972142Y-101721485D02*
X157924523Y-101911961D01*
X157924523Y-101911961D02*
X157829285Y-102007200D01*
X157829285Y-102007200D02*
X157734047Y-102054819D01*
X157734047Y-102054819D02*
X157543571Y-102054819D01*
X158353095Y-101150057D02*
X158400714Y-101102438D01*
X158400714Y-101102438D02*
X158495952Y-101054819D01*
X158495952Y-101054819D02*
X158734047Y-101054819D01*
X158734047Y-101054819D02*
X158829285Y-101102438D01*
X158829285Y-101102438D02*
X158876904Y-101150057D01*
X158876904Y-101150057D02*
X158924523Y-101245295D01*
X158924523Y-101245295D02*
X158924523Y-101340533D01*
X158924523Y-101340533D02*
X158876904Y-101483390D01*
X158876904Y-101483390D02*
X158305476Y-102054819D01*
X158305476Y-102054819D02*
X158924523Y-102054819D01*
X143470476Y-90259819D02*
X144137142Y-91259819D01*
X144137142Y-90259819D02*
X143470476Y-91259819D01*
X145089523Y-91164580D02*
X145041904Y-91212200D01*
X145041904Y-91212200D02*
X144899047Y-91259819D01*
X144899047Y-91259819D02*
X144803809Y-91259819D01*
X144803809Y-91259819D02*
X144660952Y-91212200D01*
X144660952Y-91212200D02*
X144565714Y-91116961D01*
X144565714Y-91116961D02*
X144518095Y-91021723D01*
X144518095Y-91021723D02*
X144470476Y-90831247D01*
X144470476Y-90831247D02*
X144470476Y-90688390D01*
X144470476Y-90688390D02*
X144518095Y-90497914D01*
X144518095Y-90497914D02*
X144565714Y-90402676D01*
X144565714Y-90402676D02*
X144660952Y-90307438D01*
X144660952Y-90307438D02*
X144803809Y-90259819D01*
X144803809Y-90259819D02*
X144899047Y-90259819D01*
X144899047Y-90259819D02*
X145041904Y-90307438D01*
X145041904Y-90307438D02*
X145089523Y-90355057D01*
X146041904Y-91259819D02*
X145470476Y-91259819D01*
X145756190Y-91259819D02*
X145756190Y-90259819D01*
X145756190Y-90259819D02*
X145660952Y-90402676D01*
X145660952Y-90402676D02*
X145565714Y-90497914D01*
X145565714Y-90497914D02*
X145470476Y-90545533D01*
X162456905Y-96974819D02*
X162456905Y-95974819D01*
X162456905Y-95974819D02*
X162695000Y-95974819D01*
X162695000Y-95974819D02*
X162837857Y-96022438D01*
X162837857Y-96022438D02*
X162933095Y-96117676D01*
X162933095Y-96117676D02*
X162980714Y-96212914D01*
X162980714Y-96212914D02*
X163028333Y-96403390D01*
X163028333Y-96403390D02*
X163028333Y-96546247D01*
X163028333Y-96546247D02*
X162980714Y-96736723D01*
X162980714Y-96736723D02*
X162933095Y-96831961D01*
X162933095Y-96831961D02*
X162837857Y-96927200D01*
X162837857Y-96927200D02*
X162695000Y-96974819D01*
X162695000Y-96974819D02*
X162456905Y-96974819D01*
X163361667Y-95974819D02*
X164028333Y-95974819D01*
X164028333Y-95974819D02*
X163599762Y-96974819D01*
X147774819Y-107481666D02*
X147298628Y-107814999D01*
X147774819Y-108053094D02*
X146774819Y-108053094D01*
X146774819Y-108053094D02*
X146774819Y-107672142D01*
X146774819Y-107672142D02*
X146822438Y-107576904D01*
X146822438Y-107576904D02*
X146870057Y-107529285D01*
X146870057Y-107529285D02*
X146965295Y-107481666D01*
X146965295Y-107481666D02*
X147108152Y-107481666D01*
X147108152Y-107481666D02*
X147203390Y-107529285D01*
X147203390Y-107529285D02*
X147251009Y-107576904D01*
X147251009Y-107576904D02*
X147298628Y-107672142D01*
X147298628Y-107672142D02*
X147298628Y-108053094D01*
X147108152Y-106624523D02*
X147774819Y-106624523D01*
X146727200Y-106862618D02*
X147441485Y-107100713D01*
X147441485Y-107100713D02*
X147441485Y-106481666D01*
X142113095Y-93234819D02*
X142113095Y-94044342D01*
X142113095Y-94044342D02*
X142160714Y-94139580D01*
X142160714Y-94139580D02*
X142208333Y-94187200D01*
X142208333Y-94187200D02*
X142303571Y-94234819D01*
X142303571Y-94234819D02*
X142494047Y-94234819D01*
X142494047Y-94234819D02*
X142589285Y-94187200D01*
X142589285Y-94187200D02*
X142636904Y-94139580D01*
X142636904Y-94139580D02*
X142684523Y-94044342D01*
X142684523Y-94044342D02*
X142684523Y-93234819D01*
X143684523Y-94234819D02*
X143113095Y-94234819D01*
X143398809Y-94234819D02*
X143398809Y-93234819D01*
X143398809Y-93234819D02*
X143303571Y-93377676D01*
X143303571Y-93377676D02*
X143208333Y-93472914D01*
X143208333Y-93472914D02*
X143113095Y-93520533D01*
X156202142Y-126184819D02*
X155868809Y-125708628D01*
X155630714Y-126184819D02*
X155630714Y-125184819D01*
X155630714Y-125184819D02*
X156011666Y-125184819D01*
X156011666Y-125184819D02*
X156106904Y-125232438D01*
X156106904Y-125232438D02*
X156154523Y-125280057D01*
X156154523Y-125280057D02*
X156202142Y-125375295D01*
X156202142Y-125375295D02*
X156202142Y-125518152D01*
X156202142Y-125518152D02*
X156154523Y-125613390D01*
X156154523Y-125613390D02*
X156106904Y-125661009D01*
X156106904Y-125661009D02*
X156011666Y-125708628D01*
X156011666Y-125708628D02*
X155630714Y-125708628D01*
X157154523Y-126184819D02*
X156583095Y-126184819D01*
X156868809Y-126184819D02*
X156868809Y-125184819D01*
X156868809Y-125184819D02*
X156773571Y-125327676D01*
X156773571Y-125327676D02*
X156678333Y-125422914D01*
X156678333Y-125422914D02*
X156583095Y-125470533D01*
X157487857Y-125184819D02*
X158106904Y-125184819D01*
X158106904Y-125184819D02*
X157773571Y-125565771D01*
X157773571Y-125565771D02*
X157916428Y-125565771D01*
X157916428Y-125565771D02*
X158011666Y-125613390D01*
X158011666Y-125613390D02*
X158059285Y-125661009D01*
X158059285Y-125661009D02*
X158106904Y-125756247D01*
X158106904Y-125756247D02*
X158106904Y-125994342D01*
X158106904Y-125994342D02*
X158059285Y-126089580D01*
X158059285Y-126089580D02*
X158011666Y-126137200D01*
X158011666Y-126137200D02*
X157916428Y-126184819D01*
X157916428Y-126184819D02*
X157630714Y-126184819D01*
X157630714Y-126184819D02*
X157535476Y-126137200D01*
X157535476Y-126137200D02*
X157487857Y-126089580D01*
X135898095Y-89446819D02*
X136469523Y-89446819D01*
X136183809Y-90446819D02*
X136183809Y-89446819D01*
X136802857Y-90446819D02*
X136802857Y-89446819D01*
X136802857Y-89446819D02*
X137183809Y-89446819D01*
X137183809Y-89446819D02*
X137279047Y-89494438D01*
X137279047Y-89494438D02*
X137326666Y-89542057D01*
X137326666Y-89542057D02*
X137374285Y-89637295D01*
X137374285Y-89637295D02*
X137374285Y-89780152D01*
X137374285Y-89780152D02*
X137326666Y-89875390D01*
X137326666Y-89875390D02*
X137279047Y-89923009D01*
X137279047Y-89923009D02*
X137183809Y-89970628D01*
X137183809Y-89970628D02*
X136802857Y-89970628D01*
X138231428Y-89780152D02*
X138231428Y-90446819D01*
X137993333Y-89399200D02*
X137755238Y-90113485D01*
X137755238Y-90113485D02*
X138374285Y-90113485D01*
X135540952Y-92444819D02*
X135874285Y-93444819D01*
X135874285Y-93444819D02*
X136207618Y-92444819D01*
X137017142Y-93444819D02*
X136540952Y-93444819D01*
X136540952Y-93444819D02*
X136540952Y-92444819D01*
X137112381Y-93540057D02*
X137874285Y-93540057D01*
X138683809Y-93444819D02*
X138350476Y-92968628D01*
X138112381Y-93444819D02*
X138112381Y-92444819D01*
X138112381Y-92444819D02*
X138493333Y-92444819D01*
X138493333Y-92444819D02*
X138588571Y-92492438D01*
X138588571Y-92492438D02*
X138636190Y-92540057D01*
X138636190Y-92540057D02*
X138683809Y-92635295D01*
X138683809Y-92635295D02*
X138683809Y-92778152D01*
X138683809Y-92778152D02*
X138636190Y-92873390D01*
X138636190Y-92873390D02*
X138588571Y-92921009D01*
X138588571Y-92921009D02*
X138493333Y-92968628D01*
X138493333Y-92968628D02*
X138112381Y-92968628D01*
X137260595Y-109689819D02*
X137260595Y-110499342D01*
X137260595Y-110499342D02*
X137308214Y-110594580D01*
X137308214Y-110594580D02*
X137355833Y-110642200D01*
X137355833Y-110642200D02*
X137451071Y-110689819D01*
X137451071Y-110689819D02*
X137641547Y-110689819D01*
X137641547Y-110689819D02*
X137736785Y-110642200D01*
X137736785Y-110642200D02*
X137784404Y-110594580D01*
X137784404Y-110594580D02*
X137832023Y-110499342D01*
X137832023Y-110499342D02*
X137832023Y-109689819D01*
X138212976Y-109689819D02*
X138832023Y-109689819D01*
X138832023Y-109689819D02*
X138498690Y-110070771D01*
X138498690Y-110070771D02*
X138641547Y-110070771D01*
X138641547Y-110070771D02*
X138736785Y-110118390D01*
X138736785Y-110118390D02*
X138784404Y-110166009D01*
X138784404Y-110166009D02*
X138832023Y-110261247D01*
X138832023Y-110261247D02*
X138832023Y-110499342D01*
X138832023Y-110499342D02*
X138784404Y-110594580D01*
X138784404Y-110594580D02*
X138736785Y-110642200D01*
X138736785Y-110642200D02*
X138641547Y-110689819D01*
X138641547Y-110689819D02*
X138355833Y-110689819D01*
X138355833Y-110689819D02*
X138260595Y-110642200D01*
X138260595Y-110642200D02*
X138212976Y-110594580D01*
X133889761Y-102150057D02*
X133794523Y-102102438D01*
X133794523Y-102102438D02*
X133699285Y-102007200D01*
X133699285Y-102007200D02*
X133556428Y-101864342D01*
X133556428Y-101864342D02*
X133461190Y-101816723D01*
X133461190Y-101816723D02*
X133365952Y-101816723D01*
X133413571Y-102054819D02*
X133318333Y-102007200D01*
X133318333Y-102007200D02*
X133223095Y-101911961D01*
X133223095Y-101911961D02*
X133175476Y-101721485D01*
X133175476Y-101721485D02*
X133175476Y-101388152D01*
X133175476Y-101388152D02*
X133223095Y-101197676D01*
X133223095Y-101197676D02*
X133318333Y-101102438D01*
X133318333Y-101102438D02*
X133413571Y-101054819D01*
X133413571Y-101054819D02*
X133604047Y-101054819D01*
X133604047Y-101054819D02*
X133699285Y-101102438D01*
X133699285Y-101102438D02*
X133794523Y-101197676D01*
X133794523Y-101197676D02*
X133842142Y-101388152D01*
X133842142Y-101388152D02*
X133842142Y-101721485D01*
X133842142Y-101721485D02*
X133794523Y-101911961D01*
X133794523Y-101911961D02*
X133699285Y-102007200D01*
X133699285Y-102007200D02*
X133604047Y-102054819D01*
X133604047Y-102054819D02*
X133413571Y-102054819D01*
X134175476Y-101054819D02*
X134794523Y-101054819D01*
X134794523Y-101054819D02*
X134461190Y-101435771D01*
X134461190Y-101435771D02*
X134604047Y-101435771D01*
X134604047Y-101435771D02*
X134699285Y-101483390D01*
X134699285Y-101483390D02*
X134746904Y-101531009D01*
X134746904Y-101531009D02*
X134794523Y-101626247D01*
X134794523Y-101626247D02*
X134794523Y-101864342D01*
X134794523Y-101864342D02*
X134746904Y-101959580D01*
X134746904Y-101959580D02*
X134699285Y-102007200D01*
X134699285Y-102007200D02*
X134604047Y-102054819D01*
X134604047Y-102054819D02*
X134318333Y-102054819D01*
X134318333Y-102054819D02*
X134223095Y-102007200D01*
X134223095Y-102007200D02*
X134175476Y-101959580D01*
X132374819Y-121292857D02*
X131898628Y-121626190D01*
X132374819Y-121864285D02*
X131374819Y-121864285D01*
X131374819Y-121864285D02*
X131374819Y-121483333D01*
X131374819Y-121483333D02*
X131422438Y-121388095D01*
X131422438Y-121388095D02*
X131470057Y-121340476D01*
X131470057Y-121340476D02*
X131565295Y-121292857D01*
X131565295Y-121292857D02*
X131708152Y-121292857D01*
X131708152Y-121292857D02*
X131803390Y-121340476D01*
X131803390Y-121340476D02*
X131851009Y-121388095D01*
X131851009Y-121388095D02*
X131898628Y-121483333D01*
X131898628Y-121483333D02*
X131898628Y-121864285D01*
X132374819Y-120340476D02*
X132374819Y-120911904D01*
X132374819Y-120626190D02*
X131374819Y-120626190D01*
X131374819Y-120626190D02*
X131517676Y-120721428D01*
X131517676Y-120721428D02*
X131612914Y-120816666D01*
X131612914Y-120816666D02*
X131660533Y-120911904D01*
X131708152Y-119483333D02*
X132374819Y-119483333D01*
X131327200Y-119721428D02*
X132041485Y-119959523D01*
X132041485Y-119959523D02*
X132041485Y-119340476D01*
X137668095Y-117564819D02*
X137668095Y-118374342D01*
X137668095Y-118374342D02*
X137715714Y-118469580D01*
X137715714Y-118469580D02*
X137763333Y-118517200D01*
X137763333Y-118517200D02*
X137858571Y-118564819D01*
X137858571Y-118564819D02*
X138049047Y-118564819D01*
X138049047Y-118564819D02*
X138144285Y-118517200D01*
X138144285Y-118517200D02*
X138191904Y-118469580D01*
X138191904Y-118469580D02*
X138239523Y-118374342D01*
X138239523Y-118374342D02*
X138239523Y-117564819D01*
X138620476Y-117564819D02*
X139287142Y-117564819D01*
X139287142Y-117564819D02*
X138858571Y-118564819D01*
X141438333Y-84274819D02*
X141105000Y-83798628D01*
X140866905Y-84274819D02*
X140866905Y-83274819D01*
X140866905Y-83274819D02*
X141247857Y-83274819D01*
X141247857Y-83274819D02*
X141343095Y-83322438D01*
X141343095Y-83322438D02*
X141390714Y-83370057D01*
X141390714Y-83370057D02*
X141438333Y-83465295D01*
X141438333Y-83465295D02*
X141438333Y-83608152D01*
X141438333Y-83608152D02*
X141390714Y-83703390D01*
X141390714Y-83703390D02*
X141343095Y-83751009D01*
X141343095Y-83751009D02*
X141247857Y-83798628D01*
X141247857Y-83798628D02*
X140866905Y-83798628D01*
X142295476Y-83274819D02*
X142105000Y-83274819D01*
X142105000Y-83274819D02*
X142009762Y-83322438D01*
X142009762Y-83322438D02*
X141962143Y-83370057D01*
X141962143Y-83370057D02*
X141866905Y-83512914D01*
X141866905Y-83512914D02*
X141819286Y-83703390D01*
X141819286Y-83703390D02*
X141819286Y-84084342D01*
X141819286Y-84084342D02*
X141866905Y-84179580D01*
X141866905Y-84179580D02*
X141914524Y-84227200D01*
X141914524Y-84227200D02*
X142009762Y-84274819D01*
X142009762Y-84274819D02*
X142200238Y-84274819D01*
X142200238Y-84274819D02*
X142295476Y-84227200D01*
X142295476Y-84227200D02*
X142343095Y-84179580D01*
X142343095Y-84179580D02*
X142390714Y-84084342D01*
X142390714Y-84084342D02*
X142390714Y-83846247D01*
X142390714Y-83846247D02*
X142343095Y-83751009D01*
X142343095Y-83751009D02*
X142295476Y-83703390D01*
X142295476Y-83703390D02*
X142200238Y-83655771D01*
X142200238Y-83655771D02*
X142009762Y-83655771D01*
X142009762Y-83655771D02*
X141914524Y-83703390D01*
X141914524Y-83703390D02*
X141866905Y-83751009D01*
X141866905Y-83751009D02*
X141819286Y-83846247D01*
X149852142Y-124279819D02*
X149518809Y-123803628D01*
X149280714Y-124279819D02*
X149280714Y-123279819D01*
X149280714Y-123279819D02*
X149661666Y-123279819D01*
X149661666Y-123279819D02*
X149756904Y-123327438D01*
X149756904Y-123327438D02*
X149804523Y-123375057D01*
X149804523Y-123375057D02*
X149852142Y-123470295D01*
X149852142Y-123470295D02*
X149852142Y-123613152D01*
X149852142Y-123613152D02*
X149804523Y-123708390D01*
X149804523Y-123708390D02*
X149756904Y-123756009D01*
X149756904Y-123756009D02*
X149661666Y-123803628D01*
X149661666Y-123803628D02*
X149280714Y-123803628D01*
X150804523Y-124279819D02*
X150233095Y-124279819D01*
X150518809Y-124279819D02*
X150518809Y-123279819D01*
X150518809Y-123279819D02*
X150423571Y-123422676D01*
X150423571Y-123422676D02*
X150328333Y-123517914D01*
X150328333Y-123517914D02*
X150233095Y-123565533D01*
X151756904Y-124279819D02*
X151185476Y-124279819D01*
X151471190Y-124279819D02*
X151471190Y-123279819D01*
X151471190Y-123279819D02*
X151375952Y-123422676D01*
X151375952Y-123422676D02*
X151280714Y-123517914D01*
X151280714Y-123517914D02*
X151185476Y-123565533D01*
X161298095Y-119926819D02*
X161869523Y-119926819D01*
X161583809Y-120926819D02*
X161583809Y-119926819D01*
X162202857Y-120926819D02*
X162202857Y-119926819D01*
X162202857Y-119926819D02*
X162583809Y-119926819D01*
X162583809Y-119926819D02*
X162679047Y-119974438D01*
X162679047Y-119974438D02*
X162726666Y-120022057D01*
X162726666Y-120022057D02*
X162774285Y-120117295D01*
X162774285Y-120117295D02*
X162774285Y-120260152D01*
X162774285Y-120260152D02*
X162726666Y-120355390D01*
X162726666Y-120355390D02*
X162679047Y-120403009D01*
X162679047Y-120403009D02*
X162583809Y-120450628D01*
X162583809Y-120450628D02*
X162202857Y-120450628D01*
X163107619Y-119926819D02*
X163726666Y-119926819D01*
X163726666Y-119926819D02*
X163393333Y-120307771D01*
X163393333Y-120307771D02*
X163536190Y-120307771D01*
X163536190Y-120307771D02*
X163631428Y-120355390D01*
X163631428Y-120355390D02*
X163679047Y-120403009D01*
X163679047Y-120403009D02*
X163726666Y-120498247D01*
X163726666Y-120498247D02*
X163726666Y-120736342D01*
X163726666Y-120736342D02*
X163679047Y-120831580D01*
X163679047Y-120831580D02*
X163631428Y-120879200D01*
X163631428Y-120879200D02*
X163536190Y-120926819D01*
X163536190Y-120926819D02*
X163250476Y-120926819D01*
X163250476Y-120926819D02*
X163155238Y-120879200D01*
X163155238Y-120879200D02*
X163107619Y-120831580D01*
X160726667Y-122924819D02*
X161060000Y-123924819D01*
X161060000Y-123924819D02*
X161393333Y-122924819D01*
X162060000Y-123401009D02*
X162202857Y-123448628D01*
X162202857Y-123448628D02*
X162250476Y-123496247D01*
X162250476Y-123496247D02*
X162298095Y-123591485D01*
X162298095Y-123591485D02*
X162298095Y-123734342D01*
X162298095Y-123734342D02*
X162250476Y-123829580D01*
X162250476Y-123829580D02*
X162202857Y-123877200D01*
X162202857Y-123877200D02*
X162107619Y-123924819D01*
X162107619Y-123924819D02*
X161726667Y-123924819D01*
X161726667Y-123924819D02*
X161726667Y-122924819D01*
X161726667Y-122924819D02*
X162060000Y-122924819D01*
X162060000Y-122924819D02*
X162155238Y-122972438D01*
X162155238Y-122972438D02*
X162202857Y-123020057D01*
X162202857Y-123020057D02*
X162250476Y-123115295D01*
X162250476Y-123115295D02*
X162250476Y-123210533D01*
X162250476Y-123210533D02*
X162202857Y-123305771D01*
X162202857Y-123305771D02*
X162155238Y-123353390D01*
X162155238Y-123353390D02*
X162060000Y-123401009D01*
X162060000Y-123401009D02*
X161726667Y-123401009D01*
X162726667Y-122924819D02*
X162726667Y-123734342D01*
X162726667Y-123734342D02*
X162774286Y-123829580D01*
X162774286Y-123829580D02*
X162821905Y-123877200D01*
X162821905Y-123877200D02*
X162917143Y-123924819D01*
X162917143Y-123924819D02*
X163107619Y-123924819D01*
X163107619Y-123924819D02*
X163202857Y-123877200D01*
X163202857Y-123877200D02*
X163250476Y-123829580D01*
X163250476Y-123829580D02*
X163298095Y-123734342D01*
X163298095Y-123734342D02*
X163298095Y-122924819D01*
X163726667Y-123877200D02*
X163869524Y-123924819D01*
X163869524Y-123924819D02*
X164107619Y-123924819D01*
X164107619Y-123924819D02*
X164202857Y-123877200D01*
X164202857Y-123877200D02*
X164250476Y-123829580D01*
X164250476Y-123829580D02*
X164298095Y-123734342D01*
X164298095Y-123734342D02*
X164298095Y-123639104D01*
X164298095Y-123639104D02*
X164250476Y-123543866D01*
X164250476Y-123543866D02*
X164202857Y-123496247D01*
X164202857Y-123496247D02*
X164107619Y-123448628D01*
X164107619Y-123448628D02*
X163917143Y-123401009D01*
X163917143Y-123401009D02*
X163821905Y-123353390D01*
X163821905Y-123353390D02*
X163774286Y-123305771D01*
X163774286Y-123305771D02*
X163726667Y-123210533D01*
X163726667Y-123210533D02*
X163726667Y-123115295D01*
X163726667Y-123115295D02*
X163774286Y-123020057D01*
X163774286Y-123020057D02*
X163821905Y-122972438D01*
X163821905Y-122972438D02*
X163917143Y-122924819D01*
X163917143Y-122924819D02*
X164155238Y-122924819D01*
X164155238Y-122924819D02*
X164298095Y-122972438D01*
X147774819Y-105576666D02*
X147298628Y-105909999D01*
X147774819Y-106148094D02*
X146774819Y-106148094D01*
X146774819Y-106148094D02*
X146774819Y-105767142D01*
X146774819Y-105767142D02*
X146822438Y-105671904D01*
X146822438Y-105671904D02*
X146870057Y-105624285D01*
X146870057Y-105624285D02*
X146965295Y-105576666D01*
X146965295Y-105576666D02*
X147108152Y-105576666D01*
X147108152Y-105576666D02*
X147203390Y-105624285D01*
X147203390Y-105624285D02*
X147251009Y-105671904D01*
X147251009Y-105671904D02*
X147298628Y-105767142D01*
X147298628Y-105767142D02*
X147298628Y-106148094D01*
X146774819Y-105243332D02*
X146774819Y-104624285D01*
X146774819Y-104624285D02*
X147155771Y-104957618D01*
X147155771Y-104957618D02*
X147155771Y-104814761D01*
X147155771Y-104814761D02*
X147203390Y-104719523D01*
X147203390Y-104719523D02*
X147251009Y-104671904D01*
X147251009Y-104671904D02*
X147346247Y-104624285D01*
X147346247Y-104624285D02*
X147584342Y-104624285D01*
X147584342Y-104624285D02*
X147679580Y-104671904D01*
X147679580Y-104671904D02*
X147727200Y-104719523D01*
X147727200Y-104719523D02*
X147774819Y-104814761D01*
X147774819Y-104814761D02*
X147774819Y-105100475D01*
X147774819Y-105100475D02*
X147727200Y-105195713D01*
X147727200Y-105195713D02*
X147679580Y-105243332D01*
X142489819Y-121959523D02*
X143489819Y-121292857D01*
X142489819Y-121292857D02*
X143489819Y-121959523D01*
X143394580Y-120340476D02*
X143442200Y-120388095D01*
X143442200Y-120388095D02*
X143489819Y-120530952D01*
X143489819Y-120530952D02*
X143489819Y-120626190D01*
X143489819Y-120626190D02*
X143442200Y-120769047D01*
X143442200Y-120769047D02*
X143346961Y-120864285D01*
X143346961Y-120864285D02*
X143251723Y-120911904D01*
X143251723Y-120911904D02*
X143061247Y-120959523D01*
X143061247Y-120959523D02*
X142918390Y-120959523D01*
X142918390Y-120959523D02*
X142727914Y-120911904D01*
X142727914Y-120911904D02*
X142632676Y-120864285D01*
X142632676Y-120864285D02*
X142537438Y-120769047D01*
X142537438Y-120769047D02*
X142489819Y-120626190D01*
X142489819Y-120626190D02*
X142489819Y-120530952D01*
X142489819Y-120530952D02*
X142537438Y-120388095D01*
X142537438Y-120388095D02*
X142585057Y-120340476D01*
X142489819Y-120007142D02*
X142489819Y-119388095D01*
X142489819Y-119388095D02*
X142870771Y-119721428D01*
X142870771Y-119721428D02*
X142870771Y-119578571D01*
X142870771Y-119578571D02*
X142918390Y-119483333D01*
X142918390Y-119483333D02*
X142966009Y-119435714D01*
X142966009Y-119435714D02*
X143061247Y-119388095D01*
X143061247Y-119388095D02*
X143299342Y-119388095D01*
X143299342Y-119388095D02*
X143394580Y-119435714D01*
X143394580Y-119435714D02*
X143442200Y-119483333D01*
X143442200Y-119483333D02*
X143489819Y-119578571D01*
X143489819Y-119578571D02*
X143489819Y-119864285D01*
X143489819Y-119864285D02*
X143442200Y-119959523D01*
X143442200Y-119959523D02*
X143394580Y-120007142D01*
X150328333Y-84274819D02*
X149995000Y-83798628D01*
X149756905Y-84274819D02*
X149756905Y-83274819D01*
X149756905Y-83274819D02*
X150137857Y-83274819D01*
X150137857Y-83274819D02*
X150233095Y-83322438D01*
X150233095Y-83322438D02*
X150280714Y-83370057D01*
X150280714Y-83370057D02*
X150328333Y-83465295D01*
X150328333Y-83465295D02*
X150328333Y-83608152D01*
X150328333Y-83608152D02*
X150280714Y-83703390D01*
X150280714Y-83703390D02*
X150233095Y-83751009D01*
X150233095Y-83751009D02*
X150137857Y-83798628D01*
X150137857Y-83798628D02*
X149756905Y-83798628D01*
X151280714Y-84274819D02*
X150709286Y-84274819D01*
X150995000Y-84274819D02*
X150995000Y-83274819D01*
X150995000Y-83274819D02*
X150899762Y-83417676D01*
X150899762Y-83417676D02*
X150804524Y-83512914D01*
X150804524Y-83512914D02*
X150709286Y-83560533D01*
X152908095Y-117564819D02*
X152908095Y-118374342D01*
X152908095Y-118374342D02*
X152955714Y-118469580D01*
X152955714Y-118469580D02*
X153003333Y-118517200D01*
X153003333Y-118517200D02*
X153098571Y-118564819D01*
X153098571Y-118564819D02*
X153289047Y-118564819D01*
X153289047Y-118564819D02*
X153384285Y-118517200D01*
X153384285Y-118517200D02*
X153431904Y-118469580D01*
X153431904Y-118469580D02*
X153479523Y-118374342D01*
X153479523Y-118374342D02*
X153479523Y-117564819D01*
X154098571Y-117993390D02*
X154003333Y-117945771D01*
X154003333Y-117945771D02*
X153955714Y-117898152D01*
X153955714Y-117898152D02*
X153908095Y-117802914D01*
X153908095Y-117802914D02*
X153908095Y-117755295D01*
X153908095Y-117755295D02*
X153955714Y-117660057D01*
X153955714Y-117660057D02*
X154003333Y-117612438D01*
X154003333Y-117612438D02*
X154098571Y-117564819D01*
X154098571Y-117564819D02*
X154289047Y-117564819D01*
X154289047Y-117564819D02*
X154384285Y-117612438D01*
X154384285Y-117612438D02*
X154431904Y-117660057D01*
X154431904Y-117660057D02*
X154479523Y-117755295D01*
X154479523Y-117755295D02*
X154479523Y-117802914D01*
X154479523Y-117802914D02*
X154431904Y-117898152D01*
X154431904Y-117898152D02*
X154384285Y-117945771D01*
X154384285Y-117945771D02*
X154289047Y-117993390D01*
X154289047Y-117993390D02*
X154098571Y-117993390D01*
X154098571Y-117993390D02*
X154003333Y-118041009D01*
X154003333Y-118041009D02*
X153955714Y-118088628D01*
X153955714Y-118088628D02*
X153908095Y-118183866D01*
X153908095Y-118183866D02*
X153908095Y-118374342D01*
X153908095Y-118374342D02*
X153955714Y-118469580D01*
X153955714Y-118469580D02*
X154003333Y-118517200D01*
X154003333Y-118517200D02*
X154098571Y-118564819D01*
X154098571Y-118564819D02*
X154289047Y-118564819D01*
X154289047Y-118564819D02*
X154384285Y-118517200D01*
X154384285Y-118517200D02*
X154431904Y-118469580D01*
X154431904Y-118469580D02*
X154479523Y-118374342D01*
X154479523Y-118374342D02*
X154479523Y-118183866D01*
X154479523Y-118183866D02*
X154431904Y-118088628D01*
X154431904Y-118088628D02*
X154384285Y-118041009D01*
X154384285Y-118041009D02*
X154289047Y-117993390D01*
X140978095Y-113576819D02*
X141549523Y-113576819D01*
X141263809Y-114576819D02*
X141263809Y-113576819D01*
X141882857Y-114576819D02*
X141882857Y-113576819D01*
X141882857Y-113576819D02*
X142263809Y-113576819D01*
X142263809Y-113576819D02*
X142359047Y-113624438D01*
X142359047Y-113624438D02*
X142406666Y-113672057D01*
X142406666Y-113672057D02*
X142454285Y-113767295D01*
X142454285Y-113767295D02*
X142454285Y-113910152D01*
X142454285Y-113910152D02*
X142406666Y-114005390D01*
X142406666Y-114005390D02*
X142359047Y-114053009D01*
X142359047Y-114053009D02*
X142263809Y-114100628D01*
X142263809Y-114100628D02*
X141882857Y-114100628D01*
X143025714Y-114005390D02*
X142930476Y-113957771D01*
X142930476Y-113957771D02*
X142882857Y-113910152D01*
X142882857Y-113910152D02*
X142835238Y-113814914D01*
X142835238Y-113814914D02*
X142835238Y-113767295D01*
X142835238Y-113767295D02*
X142882857Y-113672057D01*
X142882857Y-113672057D02*
X142930476Y-113624438D01*
X142930476Y-113624438D02*
X143025714Y-113576819D01*
X143025714Y-113576819D02*
X143216190Y-113576819D01*
X143216190Y-113576819D02*
X143311428Y-113624438D01*
X143311428Y-113624438D02*
X143359047Y-113672057D01*
X143359047Y-113672057D02*
X143406666Y-113767295D01*
X143406666Y-113767295D02*
X143406666Y-113814914D01*
X143406666Y-113814914D02*
X143359047Y-113910152D01*
X143359047Y-113910152D02*
X143311428Y-113957771D01*
X143311428Y-113957771D02*
X143216190Y-114005390D01*
X143216190Y-114005390D02*
X143025714Y-114005390D01*
X143025714Y-114005390D02*
X142930476Y-114053009D01*
X142930476Y-114053009D02*
X142882857Y-114100628D01*
X142882857Y-114100628D02*
X142835238Y-114195866D01*
X142835238Y-114195866D02*
X142835238Y-114386342D01*
X142835238Y-114386342D02*
X142882857Y-114481580D01*
X142882857Y-114481580D02*
X142930476Y-114529200D01*
X142930476Y-114529200D02*
X143025714Y-114576819D01*
X143025714Y-114576819D02*
X143216190Y-114576819D01*
X143216190Y-114576819D02*
X143311428Y-114529200D01*
X143311428Y-114529200D02*
X143359047Y-114481580D01*
X143359047Y-114481580D02*
X143406666Y-114386342D01*
X143406666Y-114386342D02*
X143406666Y-114195866D01*
X143406666Y-114195866D02*
X143359047Y-114100628D01*
X143359047Y-114100628D02*
X143311428Y-114053009D01*
X143311428Y-114053009D02*
X143216190Y-114005390D01*
X141478095Y-116622438D02*
X141382857Y-116574819D01*
X141382857Y-116574819D02*
X141240000Y-116574819D01*
X141240000Y-116574819D02*
X141097143Y-116622438D01*
X141097143Y-116622438D02*
X141001905Y-116717676D01*
X141001905Y-116717676D02*
X140954286Y-116812914D01*
X140954286Y-116812914D02*
X140906667Y-117003390D01*
X140906667Y-117003390D02*
X140906667Y-117146247D01*
X140906667Y-117146247D02*
X140954286Y-117336723D01*
X140954286Y-117336723D02*
X141001905Y-117431961D01*
X141001905Y-117431961D02*
X141097143Y-117527200D01*
X141097143Y-117527200D02*
X141240000Y-117574819D01*
X141240000Y-117574819D02*
X141335238Y-117574819D01*
X141335238Y-117574819D02*
X141478095Y-117527200D01*
X141478095Y-117527200D02*
X141525714Y-117479580D01*
X141525714Y-117479580D02*
X141525714Y-117146247D01*
X141525714Y-117146247D02*
X141335238Y-117146247D01*
X141954286Y-117574819D02*
X141954286Y-116574819D01*
X141954286Y-116574819D02*
X142525714Y-117574819D01*
X142525714Y-117574819D02*
X142525714Y-116574819D01*
X143001905Y-117574819D02*
X143001905Y-116574819D01*
X143001905Y-116574819D02*
X143240000Y-116574819D01*
X143240000Y-116574819D02*
X143382857Y-116622438D01*
X143382857Y-116622438D02*
X143478095Y-116717676D01*
X143478095Y-116717676D02*
X143525714Y-116812914D01*
X143525714Y-116812914D02*
X143573333Y-117003390D01*
X143573333Y-117003390D02*
X143573333Y-117146247D01*
X143573333Y-117146247D02*
X143525714Y-117336723D01*
X143525714Y-117336723D02*
X143478095Y-117431961D01*
X143478095Y-117431961D02*
X143382857Y-117527200D01*
X143382857Y-117527200D02*
X143240000Y-117574819D01*
X143240000Y-117574819D02*
X143001905Y-117574819D01*
X139660476Y-90259819D02*
X140327142Y-91259819D01*
X140327142Y-90259819D02*
X139660476Y-91259819D01*
X141279523Y-91164580D02*
X141231904Y-91212200D01*
X141231904Y-91212200D02*
X141089047Y-91259819D01*
X141089047Y-91259819D02*
X140993809Y-91259819D01*
X140993809Y-91259819D02*
X140850952Y-91212200D01*
X140850952Y-91212200D02*
X140755714Y-91116961D01*
X140755714Y-91116961D02*
X140708095Y-91021723D01*
X140708095Y-91021723D02*
X140660476Y-90831247D01*
X140660476Y-90831247D02*
X140660476Y-90688390D01*
X140660476Y-90688390D02*
X140708095Y-90497914D01*
X140708095Y-90497914D02*
X140755714Y-90402676D01*
X140755714Y-90402676D02*
X140850952Y-90307438D01*
X140850952Y-90307438D02*
X140993809Y-90259819D01*
X140993809Y-90259819D02*
X141089047Y-90259819D01*
X141089047Y-90259819D02*
X141231904Y-90307438D01*
X141231904Y-90307438D02*
X141279523Y-90355057D01*
X141660476Y-90355057D02*
X141708095Y-90307438D01*
X141708095Y-90307438D02*
X141803333Y-90259819D01*
X141803333Y-90259819D02*
X142041428Y-90259819D01*
X142041428Y-90259819D02*
X142136666Y-90307438D01*
X142136666Y-90307438D02*
X142184285Y-90355057D01*
X142184285Y-90355057D02*
X142231904Y-90450295D01*
X142231904Y-90450295D02*
X142231904Y-90545533D01*
X142231904Y-90545533D02*
X142184285Y-90688390D01*
X142184285Y-90688390D02*
X141612857Y-91259819D01*
X141612857Y-91259819D02*
X142231904Y-91259819D01*
X160480476Y-117310819D02*
X160480476Y-118025104D01*
X160480476Y-118025104D02*
X160432857Y-118167961D01*
X160432857Y-118167961D02*
X160337619Y-118263200D01*
X160337619Y-118263200D02*
X160194762Y-118310819D01*
X160194762Y-118310819D02*
X160099524Y-118310819D01*
X161480476Y-118310819D02*
X160909048Y-118310819D01*
X161194762Y-118310819D02*
X161194762Y-117310819D01*
X161194762Y-117310819D02*
X161099524Y-117453676D01*
X161099524Y-117453676D02*
X161004286Y-117548914D01*
X161004286Y-117548914D02*
X160909048Y-117596533D01*
X161813810Y-117310819D02*
X162432857Y-117310819D01*
X162432857Y-117310819D02*
X162099524Y-117691771D01*
X162099524Y-117691771D02*
X162242381Y-117691771D01*
X162242381Y-117691771D02*
X162337619Y-117739390D01*
X162337619Y-117739390D02*
X162385238Y-117787009D01*
X162385238Y-117787009D02*
X162432857Y-117882247D01*
X162432857Y-117882247D02*
X162432857Y-118120342D01*
X162432857Y-118120342D02*
X162385238Y-118215580D01*
X162385238Y-118215580D02*
X162337619Y-118263200D01*
X162337619Y-118263200D02*
X162242381Y-118310819D01*
X162242381Y-118310819D02*
X161956667Y-118310819D01*
X161956667Y-118310819D02*
X161861429Y-118263200D01*
X161861429Y-118263200D02*
X161813810Y-118215580D01*
X160956666Y-93434819D02*
X160956666Y-94149104D01*
X160956666Y-94149104D02*
X160909047Y-94291961D01*
X160909047Y-94291961D02*
X160813809Y-94387200D01*
X160813809Y-94387200D02*
X160670952Y-94434819D01*
X160670952Y-94434819D02*
X160575714Y-94434819D01*
X161909047Y-93434819D02*
X161432857Y-93434819D01*
X161432857Y-93434819D02*
X161385238Y-93911009D01*
X161385238Y-93911009D02*
X161432857Y-93863390D01*
X161432857Y-93863390D02*
X161528095Y-93815771D01*
X161528095Y-93815771D02*
X161766190Y-93815771D01*
X161766190Y-93815771D02*
X161861428Y-93863390D01*
X161861428Y-93863390D02*
X161909047Y-93911009D01*
X161909047Y-93911009D02*
X161956666Y-94006247D01*
X161956666Y-94006247D02*
X161956666Y-94244342D01*
X161956666Y-94244342D02*
X161909047Y-94339580D01*
X161909047Y-94339580D02*
X161861428Y-94387200D01*
X161861428Y-94387200D02*
X161766190Y-94434819D01*
X161766190Y-94434819D02*
X161528095Y-94434819D01*
X161528095Y-94434819D02*
X161432857Y-94387200D01*
X161432857Y-94387200D02*
X161385238Y-94339580D01*
X148519819Y-121959523D02*
X149519819Y-121292857D01*
X148519819Y-121292857D02*
X149519819Y-121959523D01*
X149424580Y-120340476D02*
X149472200Y-120388095D01*
X149472200Y-120388095D02*
X149519819Y-120530952D01*
X149519819Y-120530952D02*
X149519819Y-120626190D01*
X149519819Y-120626190D02*
X149472200Y-120769047D01*
X149472200Y-120769047D02*
X149376961Y-120864285D01*
X149376961Y-120864285D02*
X149281723Y-120911904D01*
X149281723Y-120911904D02*
X149091247Y-120959523D01*
X149091247Y-120959523D02*
X148948390Y-120959523D01*
X148948390Y-120959523D02*
X148757914Y-120911904D01*
X148757914Y-120911904D02*
X148662676Y-120864285D01*
X148662676Y-120864285D02*
X148567438Y-120769047D01*
X148567438Y-120769047D02*
X148519819Y-120626190D01*
X148519819Y-120626190D02*
X148519819Y-120530952D01*
X148519819Y-120530952D02*
X148567438Y-120388095D01*
X148567438Y-120388095D02*
X148615057Y-120340476D01*
X148853152Y-119483333D02*
X149519819Y-119483333D01*
X148472200Y-119721428D02*
X149186485Y-119959523D01*
X149186485Y-119959523D02*
X149186485Y-119340476D01*
X154178095Y-104484819D02*
X154178095Y-105294342D01*
X154178095Y-105294342D02*
X154225714Y-105389580D01*
X154225714Y-105389580D02*
X154273333Y-105437200D01*
X154273333Y-105437200D02*
X154368571Y-105484819D01*
X154368571Y-105484819D02*
X154559047Y-105484819D01*
X154559047Y-105484819D02*
X154654285Y-105437200D01*
X154654285Y-105437200D02*
X154701904Y-105389580D01*
X154701904Y-105389580D02*
X154749523Y-105294342D01*
X154749523Y-105294342D02*
X154749523Y-104484819D01*
X155178095Y-104580057D02*
X155225714Y-104532438D01*
X155225714Y-104532438D02*
X155320952Y-104484819D01*
X155320952Y-104484819D02*
X155559047Y-104484819D01*
X155559047Y-104484819D02*
X155654285Y-104532438D01*
X155654285Y-104532438D02*
X155701904Y-104580057D01*
X155701904Y-104580057D02*
X155749523Y-104675295D01*
X155749523Y-104675295D02*
X155749523Y-104770533D01*
X155749523Y-104770533D02*
X155701904Y-104913390D01*
X155701904Y-104913390D02*
X155130476Y-105484819D01*
X155130476Y-105484819D02*
X155749523Y-105484819D01*
X145288095Y-88354819D02*
X145288095Y-89164342D01*
X145288095Y-89164342D02*
X145335714Y-89259580D01*
X145335714Y-89259580D02*
X145383333Y-89307200D01*
X145383333Y-89307200D02*
X145478571Y-89354819D01*
X145478571Y-89354819D02*
X145669047Y-89354819D01*
X145669047Y-89354819D02*
X145764285Y-89307200D01*
X145764285Y-89307200D02*
X145811904Y-89259580D01*
X145811904Y-89259580D02*
X145859523Y-89164342D01*
X145859523Y-89164342D02*
X145859523Y-88354819D01*
X146764285Y-88688152D02*
X146764285Y-89354819D01*
X146526190Y-88307200D02*
X146288095Y-89021485D01*
X146288095Y-89021485D02*
X146907142Y-89021485D01*
X153336666Y-126919819D02*
X153336666Y-127634104D01*
X153336666Y-127634104D02*
X153289047Y-127776961D01*
X153289047Y-127776961D02*
X153193809Y-127872200D01*
X153193809Y-127872200D02*
X153050952Y-127919819D01*
X153050952Y-127919819D02*
X152955714Y-127919819D01*
X153765238Y-127015057D02*
X153812857Y-126967438D01*
X153812857Y-126967438D02*
X153908095Y-126919819D01*
X153908095Y-126919819D02*
X154146190Y-126919819D01*
X154146190Y-126919819D02*
X154241428Y-126967438D01*
X154241428Y-126967438D02*
X154289047Y-127015057D01*
X154289047Y-127015057D02*
X154336666Y-127110295D01*
X154336666Y-127110295D02*
X154336666Y-127205533D01*
X154336666Y-127205533D02*
X154289047Y-127348390D01*
X154289047Y-127348390D02*
X153717619Y-127919819D01*
X153717619Y-127919819D02*
X154336666Y-127919819D01*
X136712976Y-104704819D02*
X137379642Y-105704819D01*
X137379642Y-104704819D02*
X136712976Y-105704819D01*
X138332023Y-105609580D02*
X138284404Y-105657200D01*
X138284404Y-105657200D02*
X138141547Y-105704819D01*
X138141547Y-105704819D02*
X138046309Y-105704819D01*
X138046309Y-105704819D02*
X137903452Y-105657200D01*
X137903452Y-105657200D02*
X137808214Y-105561961D01*
X137808214Y-105561961D02*
X137760595Y-105466723D01*
X137760595Y-105466723D02*
X137712976Y-105276247D01*
X137712976Y-105276247D02*
X137712976Y-105133390D01*
X137712976Y-105133390D02*
X137760595Y-104942914D01*
X137760595Y-104942914D02*
X137808214Y-104847676D01*
X137808214Y-104847676D02*
X137903452Y-104752438D01*
X137903452Y-104752438D02*
X138046309Y-104704819D01*
X138046309Y-104704819D02*
X138141547Y-104704819D01*
X138141547Y-104704819D02*
X138284404Y-104752438D01*
X138284404Y-104752438D02*
X138332023Y-104800057D01*
X138903452Y-105133390D02*
X138808214Y-105085771D01*
X138808214Y-105085771D02*
X138760595Y-105038152D01*
X138760595Y-105038152D02*
X138712976Y-104942914D01*
X138712976Y-104942914D02*
X138712976Y-104895295D01*
X138712976Y-104895295D02*
X138760595Y-104800057D01*
X138760595Y-104800057D02*
X138808214Y-104752438D01*
X138808214Y-104752438D02*
X138903452Y-104704819D01*
X138903452Y-104704819D02*
X139093928Y-104704819D01*
X139093928Y-104704819D02*
X139189166Y-104752438D01*
X139189166Y-104752438D02*
X139236785Y-104800057D01*
X139236785Y-104800057D02*
X139284404Y-104895295D01*
X139284404Y-104895295D02*
X139284404Y-104942914D01*
X139284404Y-104942914D02*
X139236785Y-105038152D01*
X139236785Y-105038152D02*
X139189166Y-105085771D01*
X139189166Y-105085771D02*
X139093928Y-105133390D01*
X139093928Y-105133390D02*
X138903452Y-105133390D01*
X138903452Y-105133390D02*
X138808214Y-105181009D01*
X138808214Y-105181009D02*
X138760595Y-105228628D01*
X138760595Y-105228628D02*
X138712976Y-105323866D01*
X138712976Y-105323866D02*
X138712976Y-105514342D01*
X138712976Y-105514342D02*
X138760595Y-105609580D01*
X138760595Y-105609580D02*
X138808214Y-105657200D01*
X138808214Y-105657200D02*
X138903452Y-105704819D01*
X138903452Y-105704819D02*
X139093928Y-105704819D01*
X139093928Y-105704819D02*
X139189166Y-105657200D01*
X139189166Y-105657200D02*
X139236785Y-105609580D01*
X139236785Y-105609580D02*
X139284404Y-105514342D01*
X139284404Y-105514342D02*
X139284404Y-105323866D01*
X139284404Y-105323866D02*
X139236785Y-105228628D01*
X139236785Y-105228628D02*
X139189166Y-105181009D01*
X139189166Y-105181009D02*
X139093928Y-105133390D01*
X140803333Y-124279819D02*
X140470000Y-123803628D01*
X140231905Y-124279819D02*
X140231905Y-123279819D01*
X140231905Y-123279819D02*
X140612857Y-123279819D01*
X140612857Y-123279819D02*
X140708095Y-123327438D01*
X140708095Y-123327438D02*
X140755714Y-123375057D01*
X140755714Y-123375057D02*
X140803333Y-123470295D01*
X140803333Y-123470295D02*
X140803333Y-123613152D01*
X140803333Y-123613152D02*
X140755714Y-123708390D01*
X140755714Y-123708390D02*
X140708095Y-123756009D01*
X140708095Y-123756009D02*
X140612857Y-123803628D01*
X140612857Y-123803628D02*
X140231905Y-123803628D01*
X141374762Y-123708390D02*
X141279524Y-123660771D01*
X141279524Y-123660771D02*
X141231905Y-123613152D01*
X141231905Y-123613152D02*
X141184286Y-123517914D01*
X141184286Y-123517914D02*
X141184286Y-123470295D01*
X141184286Y-123470295D02*
X141231905Y-123375057D01*
X141231905Y-123375057D02*
X141279524Y-123327438D01*
X141279524Y-123327438D02*
X141374762Y-123279819D01*
X141374762Y-123279819D02*
X141565238Y-123279819D01*
X141565238Y-123279819D02*
X141660476Y-123327438D01*
X141660476Y-123327438D02*
X141708095Y-123375057D01*
X141708095Y-123375057D02*
X141755714Y-123470295D01*
X141755714Y-123470295D02*
X141755714Y-123517914D01*
X141755714Y-123517914D02*
X141708095Y-123613152D01*
X141708095Y-123613152D02*
X141660476Y-123660771D01*
X141660476Y-123660771D02*
X141565238Y-123708390D01*
X141565238Y-123708390D02*
X141374762Y-123708390D01*
X141374762Y-123708390D02*
X141279524Y-123756009D01*
X141279524Y-123756009D02*
X141231905Y-123803628D01*
X141231905Y-123803628D02*
X141184286Y-123898866D01*
X141184286Y-123898866D02*
X141184286Y-124089342D01*
X141184286Y-124089342D02*
X141231905Y-124184580D01*
X141231905Y-124184580D02*
X141279524Y-124232200D01*
X141279524Y-124232200D02*
X141374762Y-124279819D01*
X141374762Y-124279819D02*
X141565238Y-124279819D01*
X141565238Y-124279819D02*
X141660476Y-124232200D01*
X141660476Y-124232200D02*
X141708095Y-124184580D01*
X141708095Y-124184580D02*
X141755714Y-124089342D01*
X141755714Y-124089342D02*
X141755714Y-123898866D01*
X141755714Y-123898866D02*
X141708095Y-123803628D01*
X141708095Y-123803628D02*
X141660476Y-123756009D01*
X141660476Y-123756009D02*
X141565238Y-123708390D01*
X151584819Y-110656666D02*
X151108628Y-110989999D01*
X151584819Y-111228094D02*
X150584819Y-111228094D01*
X150584819Y-111228094D02*
X150584819Y-110847142D01*
X150584819Y-110847142D02*
X150632438Y-110751904D01*
X150632438Y-110751904D02*
X150680057Y-110704285D01*
X150680057Y-110704285D02*
X150775295Y-110656666D01*
X150775295Y-110656666D02*
X150918152Y-110656666D01*
X150918152Y-110656666D02*
X151013390Y-110704285D01*
X151013390Y-110704285D02*
X151061009Y-110751904D01*
X151061009Y-110751904D02*
X151108628Y-110847142D01*
X151108628Y-110847142D02*
X151108628Y-111228094D01*
X150584819Y-110323332D02*
X150584819Y-109656666D01*
X150584819Y-109656666D02*
X151584819Y-110085237D01*
X130476666Y-93434819D02*
X130476666Y-94149104D01*
X130476666Y-94149104D02*
X130429047Y-94291961D01*
X130429047Y-94291961D02*
X130333809Y-94387200D01*
X130333809Y-94387200D02*
X130190952Y-94434819D01*
X130190952Y-94434819D02*
X130095714Y-94434819D01*
X131381428Y-93434819D02*
X131190952Y-93434819D01*
X131190952Y-93434819D02*
X131095714Y-93482438D01*
X131095714Y-93482438D02*
X131048095Y-93530057D01*
X131048095Y-93530057D02*
X130952857Y-93672914D01*
X130952857Y-93672914D02*
X130905238Y-93863390D01*
X130905238Y-93863390D02*
X130905238Y-94244342D01*
X130905238Y-94244342D02*
X130952857Y-94339580D01*
X130952857Y-94339580D02*
X131000476Y-94387200D01*
X131000476Y-94387200D02*
X131095714Y-94434819D01*
X131095714Y-94434819D02*
X131286190Y-94434819D01*
X131286190Y-94434819D02*
X131381428Y-94387200D01*
X131381428Y-94387200D02*
X131429047Y-94339580D01*
X131429047Y-94339580D02*
X131476666Y-94244342D01*
X131476666Y-94244342D02*
X131476666Y-94006247D01*
X131476666Y-94006247D02*
X131429047Y-93911009D01*
X131429047Y-93911009D02*
X131381428Y-93863390D01*
X131381428Y-93863390D02*
X131286190Y-93815771D01*
X131286190Y-93815771D02*
X131095714Y-93815771D01*
X131095714Y-93815771D02*
X131000476Y-93863390D01*
X131000476Y-93863390D02*
X130952857Y-93911009D01*
X130952857Y-93911009D02*
X130905238Y-94006247D01*
X153678095Y-89446819D02*
X154249523Y-89446819D01*
X153963809Y-90446819D02*
X153963809Y-89446819D01*
X154582857Y-90446819D02*
X154582857Y-89446819D01*
X154582857Y-89446819D02*
X154963809Y-89446819D01*
X154963809Y-89446819D02*
X155059047Y-89494438D01*
X155059047Y-89494438D02*
X155106666Y-89542057D01*
X155106666Y-89542057D02*
X155154285Y-89637295D01*
X155154285Y-89637295D02*
X155154285Y-89780152D01*
X155154285Y-89780152D02*
X155106666Y-89875390D01*
X155106666Y-89875390D02*
X155059047Y-89923009D01*
X155059047Y-89923009D02*
X154963809Y-89970628D01*
X154963809Y-89970628D02*
X154582857Y-89970628D01*
X156059047Y-89446819D02*
X155582857Y-89446819D01*
X155582857Y-89446819D02*
X155535238Y-89923009D01*
X155535238Y-89923009D02*
X155582857Y-89875390D01*
X155582857Y-89875390D02*
X155678095Y-89827771D01*
X155678095Y-89827771D02*
X155916190Y-89827771D01*
X155916190Y-89827771D02*
X156011428Y-89875390D01*
X156011428Y-89875390D02*
X156059047Y-89923009D01*
X156059047Y-89923009D02*
X156106666Y-90018247D01*
X156106666Y-90018247D02*
X156106666Y-90256342D01*
X156106666Y-90256342D02*
X156059047Y-90351580D01*
X156059047Y-90351580D02*
X156011428Y-90399200D01*
X156011428Y-90399200D02*
X155916190Y-90446819D01*
X155916190Y-90446819D02*
X155678095Y-90446819D01*
X155678095Y-90446819D02*
X155582857Y-90399200D01*
X155582857Y-90399200D02*
X155535238Y-90351580D01*
X153416190Y-92444819D02*
X153749523Y-93444819D01*
X153749523Y-93444819D02*
X154082856Y-92444819D01*
X154892380Y-93444819D02*
X154416190Y-93444819D01*
X154416190Y-93444819D02*
X154416190Y-92444819D01*
X154987619Y-93540057D02*
X155749523Y-93540057D01*
X156463809Y-93444819D02*
X155987619Y-93444819D01*
X155987619Y-93444819D02*
X155987619Y-92444819D01*
X153630476Y-109469819D02*
X154297142Y-110469819D01*
X154297142Y-109469819D02*
X153630476Y-110469819D01*
X155249523Y-110374580D02*
X155201904Y-110422200D01*
X155201904Y-110422200D02*
X155059047Y-110469819D01*
X155059047Y-110469819D02*
X154963809Y-110469819D01*
X154963809Y-110469819D02*
X154820952Y-110422200D01*
X154820952Y-110422200D02*
X154725714Y-110326961D01*
X154725714Y-110326961D02*
X154678095Y-110231723D01*
X154678095Y-110231723D02*
X154630476Y-110041247D01*
X154630476Y-110041247D02*
X154630476Y-109898390D01*
X154630476Y-109898390D02*
X154678095Y-109707914D01*
X154678095Y-109707914D02*
X154725714Y-109612676D01*
X154725714Y-109612676D02*
X154820952Y-109517438D01*
X154820952Y-109517438D02*
X154963809Y-109469819D01*
X154963809Y-109469819D02*
X155059047Y-109469819D01*
X155059047Y-109469819D02*
X155201904Y-109517438D01*
X155201904Y-109517438D02*
X155249523Y-109565057D01*
X155582857Y-109469819D02*
X156249523Y-109469819D01*
X156249523Y-109469819D02*
X155820952Y-110469819D01*
X150328333Y-116024819D02*
X149852143Y-116024819D01*
X149852143Y-116024819D02*
X149852143Y-115024819D01*
X151185476Y-116024819D02*
X150614048Y-116024819D01*
X150899762Y-116024819D02*
X150899762Y-115024819D01*
X150899762Y-115024819D02*
X150804524Y-115167676D01*
X150804524Y-115167676D02*
X150709286Y-115262914D01*
X150709286Y-115262914D02*
X150614048Y-115310533D01*
X137120476Y-114389819D02*
X137787142Y-115389819D01*
X137787142Y-114389819D02*
X137120476Y-115389819D01*
X138739523Y-115294580D02*
X138691904Y-115342200D01*
X138691904Y-115342200D02*
X138549047Y-115389819D01*
X138549047Y-115389819D02*
X138453809Y-115389819D01*
X138453809Y-115389819D02*
X138310952Y-115342200D01*
X138310952Y-115342200D02*
X138215714Y-115246961D01*
X138215714Y-115246961D02*
X138168095Y-115151723D01*
X138168095Y-115151723D02*
X138120476Y-114961247D01*
X138120476Y-114961247D02*
X138120476Y-114818390D01*
X138120476Y-114818390D02*
X138168095Y-114627914D01*
X138168095Y-114627914D02*
X138215714Y-114532676D01*
X138215714Y-114532676D02*
X138310952Y-114437438D01*
X138310952Y-114437438D02*
X138453809Y-114389819D01*
X138453809Y-114389819D02*
X138549047Y-114389819D01*
X138549047Y-114389819D02*
X138691904Y-114437438D01*
X138691904Y-114437438D02*
X138739523Y-114485057D01*
X139596666Y-114389819D02*
X139406190Y-114389819D01*
X139406190Y-114389819D02*
X139310952Y-114437438D01*
X139310952Y-114437438D02*
X139263333Y-114485057D01*
X139263333Y-114485057D02*
X139168095Y-114627914D01*
X139168095Y-114627914D02*
X139120476Y-114818390D01*
X139120476Y-114818390D02*
X139120476Y-115199342D01*
X139120476Y-115199342D02*
X139168095Y-115294580D01*
X139168095Y-115294580D02*
X139215714Y-115342200D01*
X139215714Y-115342200D02*
X139310952Y-115389819D01*
X139310952Y-115389819D02*
X139501428Y-115389819D01*
X139501428Y-115389819D02*
X139596666Y-115342200D01*
X139596666Y-115342200D02*
X139644285Y-115294580D01*
X139644285Y-115294580D02*
X139691904Y-115199342D01*
X139691904Y-115199342D02*
X139691904Y-114961247D01*
X139691904Y-114961247D02*
X139644285Y-114866009D01*
X139644285Y-114866009D02*
X139596666Y-114818390D01*
X139596666Y-114818390D02*
X139501428Y-114770771D01*
X139501428Y-114770771D02*
X139310952Y-114770771D01*
X139310952Y-114770771D02*
X139215714Y-114818390D01*
X139215714Y-114818390D02*
X139168095Y-114866009D01*
X139168095Y-114866009D02*
X139120476Y-114961247D01*
X135088333Y-118564819D02*
X134755000Y-118088628D01*
X134516905Y-118564819D02*
X134516905Y-117564819D01*
X134516905Y-117564819D02*
X134897857Y-117564819D01*
X134897857Y-117564819D02*
X134993095Y-117612438D01*
X134993095Y-117612438D02*
X135040714Y-117660057D01*
X135040714Y-117660057D02*
X135088333Y-117755295D01*
X135088333Y-117755295D02*
X135088333Y-117898152D01*
X135088333Y-117898152D02*
X135040714Y-117993390D01*
X135040714Y-117993390D02*
X134993095Y-118041009D01*
X134993095Y-118041009D02*
X134897857Y-118088628D01*
X134897857Y-118088628D02*
X134516905Y-118088628D01*
X135564524Y-118564819D02*
X135755000Y-118564819D01*
X135755000Y-118564819D02*
X135850238Y-118517200D01*
X135850238Y-118517200D02*
X135897857Y-118469580D01*
X135897857Y-118469580D02*
X135993095Y-118326723D01*
X135993095Y-118326723D02*
X136040714Y-118136247D01*
X136040714Y-118136247D02*
X136040714Y-117755295D01*
X136040714Y-117755295D02*
X135993095Y-117660057D01*
X135993095Y-117660057D02*
X135945476Y-117612438D01*
X135945476Y-117612438D02*
X135850238Y-117564819D01*
X135850238Y-117564819D02*
X135659762Y-117564819D01*
X135659762Y-117564819D02*
X135564524Y-117612438D01*
X135564524Y-117612438D02*
X135516905Y-117660057D01*
X135516905Y-117660057D02*
X135469286Y-117755295D01*
X135469286Y-117755295D02*
X135469286Y-117993390D01*
X135469286Y-117993390D02*
X135516905Y-118088628D01*
X135516905Y-118088628D02*
X135564524Y-118136247D01*
X135564524Y-118136247D02*
X135659762Y-118183866D01*
X135659762Y-118183866D02*
X135850238Y-118183866D01*
X135850238Y-118183866D02*
X135945476Y-118136247D01*
X135945476Y-118136247D02*
X135993095Y-118088628D01*
X135993095Y-118088628D02*
X136040714Y-117993390D01*
X147870057Y-110585238D02*
X147822438Y-110680476D01*
X147822438Y-110680476D02*
X147727200Y-110775714D01*
X147727200Y-110775714D02*
X147584342Y-110918571D01*
X147584342Y-110918571D02*
X147536723Y-111013809D01*
X147536723Y-111013809D02*
X147536723Y-111109047D01*
X147774819Y-111061428D02*
X147727200Y-111156666D01*
X147727200Y-111156666D02*
X147631961Y-111251904D01*
X147631961Y-111251904D02*
X147441485Y-111299523D01*
X147441485Y-111299523D02*
X147108152Y-111299523D01*
X147108152Y-111299523D02*
X146917676Y-111251904D01*
X146917676Y-111251904D02*
X146822438Y-111156666D01*
X146822438Y-111156666D02*
X146774819Y-111061428D01*
X146774819Y-111061428D02*
X146774819Y-110870952D01*
X146774819Y-110870952D02*
X146822438Y-110775714D01*
X146822438Y-110775714D02*
X146917676Y-110680476D01*
X146917676Y-110680476D02*
X147108152Y-110632857D01*
X147108152Y-110632857D02*
X147441485Y-110632857D01*
X147441485Y-110632857D02*
X147631961Y-110680476D01*
X147631961Y-110680476D02*
X147727200Y-110775714D01*
X147727200Y-110775714D02*
X147774819Y-110870952D01*
X147774819Y-110870952D02*
X147774819Y-111061428D01*
X147774819Y-109680476D02*
X147774819Y-110251904D01*
X147774819Y-109966190D02*
X146774819Y-109966190D01*
X146774819Y-109966190D02*
X146917676Y-110061428D01*
X146917676Y-110061428D02*
X147012914Y-110156666D01*
X147012914Y-110156666D02*
X147060533Y-110251904D01*
X130000476Y-117310819D02*
X130000476Y-118025104D01*
X130000476Y-118025104D02*
X129952857Y-118167961D01*
X129952857Y-118167961D02*
X129857619Y-118263200D01*
X129857619Y-118263200D02*
X129714762Y-118310819D01*
X129714762Y-118310819D02*
X129619524Y-118310819D01*
X131000476Y-118310819D02*
X130429048Y-118310819D01*
X130714762Y-118310819D02*
X130714762Y-117310819D01*
X130714762Y-117310819D02*
X130619524Y-117453676D01*
X130619524Y-117453676D02*
X130524286Y-117548914D01*
X130524286Y-117548914D02*
X130429048Y-117596533D01*
X131857619Y-117644152D02*
X131857619Y-118310819D01*
X131619524Y-117263200D02*
X131381429Y-117977485D01*
X131381429Y-117977485D02*
X132000476Y-117977485D01*
X130024285Y-129471009D02*
X130167142Y-129518628D01*
X130167142Y-129518628D02*
X130214761Y-129566247D01*
X130214761Y-129566247D02*
X130262380Y-129661485D01*
X130262380Y-129661485D02*
X130262380Y-129804342D01*
X130262380Y-129804342D02*
X130214761Y-129899580D01*
X130214761Y-129899580D02*
X130167142Y-129947200D01*
X130167142Y-129947200D02*
X130071904Y-129994819D01*
X130071904Y-129994819D02*
X129690952Y-129994819D01*
X129690952Y-129994819D02*
X129690952Y-128994819D01*
X129690952Y-128994819D02*
X130024285Y-128994819D01*
X130024285Y-128994819D02*
X130119523Y-129042438D01*
X130119523Y-129042438D02*
X130167142Y-129090057D01*
X130167142Y-129090057D02*
X130214761Y-129185295D01*
X130214761Y-129185295D02*
X130214761Y-129280533D01*
X130214761Y-129280533D02*
X130167142Y-129375771D01*
X130167142Y-129375771D02*
X130119523Y-129423390D01*
X130119523Y-129423390D02*
X130024285Y-129471009D01*
X130024285Y-129471009D02*
X129690952Y-129471009D01*
X130548095Y-128994819D02*
X131119523Y-128994819D01*
X130833809Y-129994819D02*
X130833809Y-128994819D01*
X131976666Y-129994819D02*
X131405238Y-129994819D01*
X131690952Y-129994819D02*
X131690952Y-128994819D01*
X131690952Y-128994819D02*
X131595714Y-129137676D01*
X131595714Y-129137676D02*
X131500476Y-129232914D01*
X131500476Y-129232914D02*
X131405238Y-129280533D01*
X153678095Y-84366819D02*
X154249523Y-84366819D01*
X153963809Y-85366819D02*
X153963809Y-84366819D01*
X154582857Y-85366819D02*
X154582857Y-84366819D01*
X154582857Y-84366819D02*
X154963809Y-84366819D01*
X154963809Y-84366819D02*
X155059047Y-84414438D01*
X155059047Y-84414438D02*
X155106666Y-84462057D01*
X155106666Y-84462057D02*
X155154285Y-84557295D01*
X155154285Y-84557295D02*
X155154285Y-84700152D01*
X155154285Y-84700152D02*
X155106666Y-84795390D01*
X155106666Y-84795390D02*
X155059047Y-84843009D01*
X155059047Y-84843009D02*
X154963809Y-84890628D01*
X154963809Y-84890628D02*
X154582857Y-84890628D01*
X156011428Y-84366819D02*
X155820952Y-84366819D01*
X155820952Y-84366819D02*
X155725714Y-84414438D01*
X155725714Y-84414438D02*
X155678095Y-84462057D01*
X155678095Y-84462057D02*
X155582857Y-84604914D01*
X155582857Y-84604914D02*
X155535238Y-84795390D01*
X155535238Y-84795390D02*
X155535238Y-85176342D01*
X155535238Y-85176342D02*
X155582857Y-85271580D01*
X155582857Y-85271580D02*
X155630476Y-85319200D01*
X155630476Y-85319200D02*
X155725714Y-85366819D01*
X155725714Y-85366819D02*
X155916190Y-85366819D01*
X155916190Y-85366819D02*
X156011428Y-85319200D01*
X156011428Y-85319200D02*
X156059047Y-85271580D01*
X156059047Y-85271580D02*
X156106666Y-85176342D01*
X156106666Y-85176342D02*
X156106666Y-84938247D01*
X156106666Y-84938247D02*
X156059047Y-84843009D01*
X156059047Y-84843009D02*
X156011428Y-84795390D01*
X156011428Y-84795390D02*
X155916190Y-84747771D01*
X155916190Y-84747771D02*
X155725714Y-84747771D01*
X155725714Y-84747771D02*
X155630476Y-84795390D01*
X155630476Y-84795390D02*
X155582857Y-84843009D01*
X155582857Y-84843009D02*
X155535238Y-84938247D01*
X153654286Y-88364819D02*
X153654286Y-87364819D01*
X154701904Y-88364819D02*
X154368571Y-87888628D01*
X154130476Y-88364819D02*
X154130476Y-87364819D01*
X154130476Y-87364819D02*
X154511428Y-87364819D01*
X154511428Y-87364819D02*
X154606666Y-87412438D01*
X154606666Y-87412438D02*
X154654285Y-87460057D01*
X154654285Y-87460057D02*
X154701904Y-87555295D01*
X154701904Y-87555295D02*
X154701904Y-87698152D01*
X154701904Y-87698152D02*
X154654285Y-87793390D01*
X154654285Y-87793390D02*
X154606666Y-87841009D01*
X154606666Y-87841009D02*
X154511428Y-87888628D01*
X154511428Y-87888628D02*
X154130476Y-87888628D01*
X154892381Y-88460057D02*
X155654285Y-88460057D01*
X156368571Y-88364819D02*
X155892381Y-88364819D01*
X155892381Y-88364819D02*
X155892381Y-87364819D01*
X130000476Y-109690819D02*
X130000476Y-110405104D01*
X130000476Y-110405104D02*
X129952857Y-110547961D01*
X129952857Y-110547961D02*
X129857619Y-110643200D01*
X129857619Y-110643200D02*
X129714762Y-110690819D01*
X129714762Y-110690819D02*
X129619524Y-110690819D01*
X131000476Y-110690819D02*
X130429048Y-110690819D01*
X130714762Y-110690819D02*
X130714762Y-109690819D01*
X130714762Y-109690819D02*
X130619524Y-109833676D01*
X130619524Y-109833676D02*
X130524286Y-109928914D01*
X130524286Y-109928914D02*
X130429048Y-109976533D01*
X131619524Y-109690819D02*
X131714762Y-109690819D01*
X131714762Y-109690819D02*
X131810000Y-109738438D01*
X131810000Y-109738438D02*
X131857619Y-109786057D01*
X131857619Y-109786057D02*
X131905238Y-109881295D01*
X131905238Y-109881295D02*
X131952857Y-110071771D01*
X131952857Y-110071771D02*
X131952857Y-110309866D01*
X131952857Y-110309866D02*
X131905238Y-110500342D01*
X131905238Y-110500342D02*
X131857619Y-110595580D01*
X131857619Y-110595580D02*
X131810000Y-110643200D01*
X131810000Y-110643200D02*
X131714762Y-110690819D01*
X131714762Y-110690819D02*
X131619524Y-110690819D01*
X131619524Y-110690819D02*
X131524286Y-110643200D01*
X131524286Y-110643200D02*
X131476667Y-110595580D01*
X131476667Y-110595580D02*
X131429048Y-110500342D01*
X131429048Y-110500342D02*
X131381429Y-110309866D01*
X131381429Y-110309866D02*
X131381429Y-110071771D01*
X131381429Y-110071771D02*
X131429048Y-109881295D01*
X131429048Y-109881295D02*
X131476667Y-109786057D01*
X131476667Y-109786057D02*
X131524286Y-109738438D01*
X131524286Y-109738438D02*
X131619524Y-109690819D01*
D13*
X157860276Y-95362500D02*
X158369724Y-95362500D01*
X157860276Y-96407500D02*
X158369724Y-96407500D01*
X158227500Y-120395276D02*
X158227500Y-120904724D01*
X159272500Y-120395276D02*
X159272500Y-120904724D01*
X127945000Y-122190000D02*
X127945000Y-125050000D01*
X127945000Y-125050000D02*
X129865000Y-125050000D01*
X129865000Y-125050000D02*
X129865000Y-122190000D01*
X134050000Y-125730000D02*
G75*
G02*
X132650000Y-125730000I-700000J0D01*
G01*
X132650000Y-125730000D02*
G75*
G02*
X134050000Y-125730000I700000J0D01*
G01*
X156335000Y-120503733D02*
X156335000Y-120796267D01*
X157355000Y-120503733D02*
X157355000Y-120796267D01*
X127945000Y-98060000D02*
X127945000Y-100920000D01*
X127945000Y-100920000D02*
X129865000Y-100920000D01*
X129865000Y-100920000D02*
X129865000Y-98060000D01*
X150749724Y-126477500D02*
X150240276Y-126477500D01*
X150749724Y-127522500D02*
X150240276Y-127522500D01*
X145903733Y-82675000D02*
X146196267Y-82675000D01*
X145903733Y-83695000D02*
X146196267Y-83695000D01*
X134620000Y-129285000D02*
X147320000Y-129285000D01*
X147320000Y-136145000D01*
X134620000Y-136145000D01*
X134620000Y-129285000D01*
X158750000Y-106680000D02*
X158750000Y-109220000D01*
X158750000Y-109220000D02*
X161290000Y-109220000D01*
X163830000Y-104140000D02*
X161290000Y-104140000D01*
X163830000Y-104140000D02*
X163830000Y-106680000D01*
D14*
X163830000Y-106680000D02*
X163830000Y-104140000D01*
D13*
X134239724Y-95362500D02*
X133730276Y-95362500D01*
X134239724Y-96407500D02*
X133730276Y-96407500D01*
X150560000Y-91440000D02*
G75*
G02*
X149160000Y-91440000I-700000J0D01*
G01*
X149160000Y-91440000D02*
G75*
G02*
X150560000Y-91440000I700000J0D01*
G01*
X137860000Y-86360000D02*
G75*
G02*
X136460000Y-86360000I-700000J0D01*
G01*
X136460000Y-86360000D02*
G75*
G02*
X137860000Y-86360000I700000J0D01*
G01*
X139190000Y-86213733D02*
X139190000Y-86506267D01*
X140210000Y-86213733D02*
X140210000Y-86506267D01*
X152630000Y-95110000D02*
X147630000Y-95110000D01*
X147630000Y-103010000D01*
X152630000Y-103010000D01*
X152630000Y-95110000D01*
X142449000Y-126014000D02*
X142449000Y-125446000D01*
X142489000Y-126248000D02*
X142489000Y-125212000D01*
X142529000Y-126407000D02*
X142529000Y-125053000D01*
X142569000Y-126535000D02*
X142569000Y-124925000D01*
X142609000Y-126645000D02*
X142609000Y-124815000D01*
X142649000Y-126741000D02*
X142649000Y-124719000D01*
X142689000Y-126828000D02*
X142689000Y-124632000D01*
X142729000Y-126908000D02*
X142729000Y-124552000D01*
X142769000Y-126981000D02*
X142769000Y-124479000D01*
X142809000Y-127049000D02*
X142809000Y-124411000D01*
X142849000Y-127113000D02*
X142849000Y-124347000D01*
X142889000Y-127173000D02*
X142889000Y-124287000D01*
X142929000Y-127230000D02*
X142929000Y-124230000D01*
X142969000Y-127284000D02*
X142969000Y-124176000D01*
X143009000Y-127335000D02*
X143009000Y-124125000D01*
X143049000Y-124690000D02*
X143049000Y-124077000D01*
X143049000Y-127383000D02*
X143049000Y-126770000D01*
X143089000Y-124690000D02*
X143089000Y-124031000D01*
X143089000Y-127429000D02*
X143089000Y-126770000D01*
X143129000Y-124690000D02*
X143129000Y-123987000D01*
X143129000Y-127473000D02*
X143129000Y-126770000D01*
X143169000Y-124690000D02*
X143169000Y-123945000D01*
X143169000Y-127515000D02*
X143169000Y-126770000D01*
X143209000Y-124690000D02*
X143209000Y-123904000D01*
X143209000Y-127556000D02*
X143209000Y-126770000D01*
X143249000Y-124690000D02*
X143249000Y-123866000D01*
X143249000Y-127594000D02*
X143249000Y-126770000D01*
X143289000Y-124690000D02*
X143289000Y-123829000D01*
X143289000Y-127631000D02*
X143289000Y-126770000D01*
X143329000Y-124690000D02*
X143329000Y-123793000D01*
X143329000Y-127667000D02*
X143329000Y-126770000D01*
X143369000Y-124690000D02*
X143369000Y-123759000D01*
X143369000Y-127701000D02*
X143369000Y-126770000D01*
X143409000Y-124690000D02*
X143409000Y-123726000D01*
X143409000Y-127734000D02*
X143409000Y-126770000D01*
X143449000Y-124690000D02*
X143449000Y-123695000D01*
X143449000Y-127765000D02*
X143449000Y-126770000D01*
X143489000Y-124690000D02*
X143489000Y-123665000D01*
X143489000Y-127795000D02*
X143489000Y-126770000D01*
X143529000Y-124690000D02*
X143529000Y-123635000D01*
X143529000Y-127825000D02*
X143529000Y-126770000D01*
X143569000Y-124690000D02*
X143569000Y-123608000D01*
X143569000Y-127852000D02*
X143569000Y-126770000D01*
X143609000Y-124690000D02*
X143609000Y-123581000D01*
X143609000Y-127879000D02*
X143609000Y-126770000D01*
X143649000Y-124690000D02*
X143649000Y-123555000D01*
X143649000Y-127905000D02*
X143649000Y-126770000D01*
X143689000Y-124690000D02*
X143689000Y-123530000D01*
X143689000Y-127930000D02*
X143689000Y-126770000D01*
X143729000Y-124690000D02*
X143729000Y-123506000D01*
X143729000Y-127954000D02*
X143729000Y-126770000D01*
X143769000Y-124690000D02*
X143769000Y-123483000D01*
X143769000Y-127977000D02*
X143769000Y-126770000D01*
X143809000Y-124690000D02*
X143809000Y-123462000D01*
X143809000Y-127998000D02*
X143809000Y-126770000D01*
X143849000Y-124690000D02*
X143849000Y-123440000D01*
X143849000Y-128020000D02*
X143849000Y-126770000D01*
X143889000Y-124690000D02*
X143889000Y-123420000D01*
X143889000Y-128040000D02*
X143889000Y-126770000D01*
X143929000Y-124690000D02*
X143929000Y-123401000D01*
X143929000Y-128059000D02*
X143929000Y-126770000D01*
X143969000Y-124690000D02*
X143969000Y-123382000D01*
X143969000Y-128078000D02*
X143969000Y-126770000D01*
X144009000Y-124690000D02*
X144009000Y-123365000D01*
X144009000Y-128095000D02*
X144009000Y-126770000D01*
X144049000Y-124690000D02*
X144049000Y-123348000D01*
X144049000Y-128112000D02*
X144049000Y-126770000D01*
X144089000Y-124690000D02*
X144089000Y-123332000D01*
X144089000Y-128128000D02*
X144089000Y-126770000D01*
X144129000Y-124690000D02*
X144129000Y-123316000D01*
X144129000Y-128144000D02*
X144129000Y-126770000D01*
X144169000Y-124690000D02*
X144169000Y-123302000D01*
X144169000Y-128158000D02*
X144169000Y-126770000D01*
X144209000Y-124690000D02*
X144209000Y-123288000D01*
X144209000Y-128172000D02*
X144209000Y-126770000D01*
X144249000Y-124690000D02*
X144249000Y-123275000D01*
X144249000Y-128185000D02*
X144249000Y-126770000D01*
X144289000Y-124690000D02*
X144289000Y-123262000D01*
X144289000Y-128198000D02*
X144289000Y-126770000D01*
X144329000Y-124690000D02*
X144329000Y-123250000D01*
X144329000Y-128210000D02*
X144329000Y-126770000D01*
X144370000Y-124690000D02*
X144370000Y-123239000D01*
X144370000Y-128221000D02*
X144370000Y-126770000D01*
X144410000Y-124690000D02*
X144410000Y-123229000D01*
X144410000Y-128231000D02*
X144410000Y-126770000D01*
X144450000Y-124690000D02*
X144450000Y-123219000D01*
X144450000Y-128241000D02*
X144450000Y-126770000D01*
X144490000Y-124690000D02*
X144490000Y-123210000D01*
X144490000Y-128250000D02*
X144490000Y-126770000D01*
X144530000Y-124690000D02*
X144530000Y-123202000D01*
X144530000Y-128258000D02*
X144530000Y-126770000D01*
X144570000Y-124690000D02*
X144570000Y-123194000D01*
X144570000Y-128266000D02*
X144570000Y-126770000D01*
X144610000Y-124690000D02*
X144610000Y-123187000D01*
X144610000Y-128273000D02*
X144610000Y-126770000D01*
X144650000Y-124690000D02*
X144650000Y-123180000D01*
X144650000Y-128280000D02*
X144650000Y-126770000D01*
X144690000Y-124690000D02*
X144690000Y-123174000D01*
X144690000Y-128286000D02*
X144690000Y-126770000D01*
X144730000Y-124690000D02*
X144730000Y-123169000D01*
X144730000Y-128291000D02*
X144730000Y-126770000D01*
X144770000Y-124690000D02*
X144770000Y-123165000D01*
X144770000Y-128295000D02*
X144770000Y-126770000D01*
X144810000Y-124690000D02*
X144810000Y-123161000D01*
X144810000Y-128299000D02*
X144810000Y-126770000D01*
X144850000Y-124690000D02*
X144850000Y-123157000D01*
X144850000Y-128303000D02*
X144850000Y-126770000D01*
X144890000Y-124690000D02*
X144890000Y-123154000D01*
X144890000Y-128306000D02*
X144890000Y-126770000D01*
X144930000Y-124690000D02*
X144930000Y-123152000D01*
X144930000Y-128308000D02*
X144930000Y-126770000D01*
X144970000Y-124690000D02*
X144970000Y-123151000D01*
X144970000Y-128309000D02*
X144970000Y-126770000D01*
X145010000Y-124690000D02*
X145010000Y-123150000D01*
X145010000Y-128310000D02*
X145010000Y-126770000D01*
X145050000Y-124690000D02*
X145050000Y-123150000D01*
X145050000Y-128310000D02*
X145050000Y-126770000D01*
X147604775Y-127455000D02*
X147604775Y-126955000D01*
X147854775Y-127205000D02*
X147354775Y-127205000D01*
X147670000Y-125730000D02*
G75*
G02*
X142430000Y-125730000I-2620000J0D01*
G01*
X142430000Y-125730000D02*
G75*
G02*
X147670000Y-125730000I2620000J0D01*
G01*
X144190000Y-114610000D02*
X144190000Y-116530000D01*
X144190000Y-116530000D02*
X147050000Y-116530000D01*
X147050000Y-114610000D02*
X144190000Y-114610000D01*
X151890000Y-86213733D02*
X151890000Y-86506267D01*
X152910000Y-86213733D02*
X152910000Y-86506267D01*
X158115000Y-97500000D02*
X157465000Y-97500000D01*
X158115000Y-97500000D02*
X158765000Y-97500000D01*
X158115000Y-100620000D02*
X157465000Y-100620000D01*
X158115000Y-100620000D02*
X158765000Y-100620000D01*
X156952500Y-97550000D02*
X156712500Y-97220000D01*
X157192500Y-97220000D01*
X156952500Y-97550000D01*
G36*
X156952500Y-97550000D02*
G01*
X156712500Y-97220000D01*
X157192500Y-97220000D01*
X156952500Y-97550000D01*
G37*
X144926267Y-91565000D02*
X144633733Y-91565000D01*
X144926267Y-92585000D02*
X144633733Y-92585000D01*
X162235000Y-98060000D02*
X162235000Y-100920000D01*
X162235000Y-100920000D02*
X164155000Y-100920000D01*
X164155000Y-100920000D02*
X164155000Y-98060000D01*
X145034724Y-106792500D02*
X144525276Y-106792500D01*
X145034724Y-107837500D02*
X144525276Y-107837500D01*
X142875000Y-94625000D02*
X140925000Y-94625000D01*
X142875000Y-94625000D02*
X144825000Y-94625000D01*
X142875000Y-103495000D02*
X140925000Y-103495000D01*
X142875000Y-103495000D02*
X144825000Y-103495000D01*
X140175000Y-94690000D02*
X139935000Y-94360000D01*
X140415000Y-94360000D01*
X140175000Y-94690000D01*
G36*
X140175000Y-94690000D02*
G01*
X139935000Y-94360000D01*
X140415000Y-94360000D01*
X140175000Y-94690000D01*
G37*
X157099724Y-126477500D02*
X156590276Y-126477500D01*
X157099724Y-127522500D02*
X156590276Y-127522500D01*
X137860000Y-91440000D02*
G75*
G02*
X136460000Y-91440000I-700000J0D01*
G01*
X136460000Y-91440000D02*
G75*
G02*
X137860000Y-91440000I700000J0D01*
G01*
X138022500Y-107650000D02*
X137422500Y-107650000D01*
X138022500Y-107650000D02*
X138622500Y-107650000D01*
X138022500Y-109520000D02*
X137422500Y-109520000D01*
X138022500Y-109520000D02*
X138622500Y-109520000D01*
X139662500Y-109325000D02*
X139332500Y-109085000D01*
X139662500Y-108845000D01*
X139662500Y-109325000D01*
G36*
X139662500Y-109325000D02*
G01*
X139332500Y-109085000D01*
X139662500Y-108845000D01*
X139662500Y-109325000D01*
G37*
X133985000Y-97500000D02*
X133335000Y-97500000D01*
X133985000Y-97500000D02*
X134635000Y-97500000D01*
X133985000Y-100620000D02*
X133335000Y-100620000D01*
X133985000Y-100620000D02*
X134635000Y-100620000D01*
X135387500Y-100900000D02*
X134907500Y-100900000D01*
X135147500Y-100570000D01*
X135387500Y-100900000D01*
G36*
X135387500Y-100900000D02*
G01*
X134907500Y-100900000D01*
X135147500Y-100570000D01*
X135387500Y-100900000D01*
G37*
X132827500Y-120904724D02*
X132827500Y-120395276D01*
X133872500Y-120904724D02*
X133872500Y-120395276D01*
X138430000Y-119090000D02*
X137630000Y-119090000D01*
X138430000Y-119090000D02*
X139230000Y-119090000D01*
X138430000Y-122210000D02*
X137630000Y-122210000D01*
X138430000Y-122210000D02*
X139230000Y-122210000D01*
X137130000Y-119140000D02*
X136890000Y-118810000D01*
X137370000Y-118810000D01*
X137130000Y-119140000D01*
G36*
X137130000Y-119140000D02*
G01*
X136890000Y-118810000D01*
X137370000Y-118810000D01*
X137130000Y-119140000D01*
G37*
X141082500Y-86105276D02*
X141082500Y-86614724D01*
X142127500Y-86105276D02*
X142127500Y-86614724D01*
X153924724Y-123302500D02*
X153415276Y-123302500D01*
X153924724Y-124347500D02*
X153415276Y-124347500D01*
X163260000Y-121920000D02*
G75*
G02*
X161860000Y-121920000I-700000J0D01*
G01*
X161860000Y-121920000D02*
G75*
G02*
X163260000Y-121920000I700000J0D01*
G01*
X144525276Y-104887500D02*
X145034724Y-104887500D01*
X144525276Y-105932500D02*
X145034724Y-105932500D01*
X141095000Y-120503733D02*
X141095000Y-120796267D01*
X142115000Y-120503733D02*
X142115000Y-120796267D01*
X149972500Y-86105276D02*
X149972500Y-86614724D01*
X151017500Y-86105276D02*
X151017500Y-86614724D01*
X153670000Y-119090000D02*
X152870000Y-119090000D01*
X153670000Y-119090000D02*
X154470000Y-119090000D01*
X153670000Y-122210000D02*
X152870000Y-122210000D01*
X153670000Y-122210000D02*
X154470000Y-122210000D01*
X152370000Y-119140000D02*
X152130000Y-118810000D01*
X152610000Y-118810000D01*
X152370000Y-119140000D01*
G36*
X152370000Y-119140000D02*
G01*
X152130000Y-118810000D01*
X152610000Y-118810000D01*
X152370000Y-119140000D01*
G37*
X142940000Y-115570000D02*
G75*
G02*
X141540000Y-115570000I-700000J0D01*
G01*
X141540000Y-115570000D02*
G75*
G02*
X142940000Y-115570000I700000J0D01*
G01*
X141116267Y-91565000D02*
X140823733Y-91565000D01*
X141116267Y-92585000D02*
X140823733Y-92585000D01*
X158750000Y-114300000D02*
X158750000Y-116840000D01*
X158750000Y-116840000D02*
X161290000Y-116840000D01*
X163830000Y-111760000D02*
X161290000Y-111760000D01*
X163830000Y-111760000D02*
X163830000Y-114300000D01*
D14*
X163830000Y-114300000D02*
X163830000Y-111760000D01*
D13*
X158750000Y-90170000D02*
X158750000Y-92710000D01*
X158750000Y-92710000D02*
X161290000Y-92710000D01*
X163830000Y-82550000D02*
X161290000Y-82550000D01*
X163830000Y-85090000D02*
X163830000Y-82550000D01*
X149985000Y-120796267D02*
X149985000Y-120503733D01*
X151005000Y-120796267D02*
X151005000Y-120503733D01*
X154940000Y-105745000D02*
X154340000Y-105745000D01*
X154940000Y-105745000D02*
X155540000Y-105745000D01*
X154940000Y-107615000D02*
X154340000Y-107615000D01*
X154940000Y-107615000D02*
X155540000Y-107615000D01*
X153630000Y-106180000D02*
X153300000Y-106420000D01*
X153300000Y-105940000D01*
X153630000Y-106180000D01*
G36*
X153630000Y-106180000D02*
G01*
X153300000Y-106420000D01*
X153300000Y-105940000D01*
X153630000Y-106180000D01*
G37*
X146050000Y-84750000D02*
X144550000Y-84750000D01*
X146050000Y-84750000D02*
X147550000Y-84750000D01*
X146050000Y-87970000D02*
X144550000Y-87970000D01*
X146050000Y-87970000D02*
X147550000Y-87970000D01*
X148502500Y-88175000D02*
X148022500Y-88175000D01*
X148262500Y-87845000D01*
X148502500Y-88175000D01*
G36*
X148502500Y-88175000D02*
G01*
X148022500Y-88175000D01*
X148262500Y-87845000D01*
X148502500Y-88175000D01*
G37*
X149090000Y-130815000D02*
X149090000Y-132815000D01*
X149090000Y-134715000D02*
X149090000Y-136225000D01*
X149090000Y-136225000D02*
X158250000Y-136225000D01*
X158250000Y-130815000D02*
X158250000Y-132815000D01*
X158250000Y-134715000D02*
X158250000Y-136225000D01*
X137876233Y-106170000D02*
X138168767Y-106170000D01*
X137876233Y-107190000D02*
X138168767Y-107190000D01*
X138684724Y-123302500D02*
X138175276Y-123302500D01*
X138684724Y-124347500D02*
X138175276Y-124347500D01*
X148702500Y-110235276D02*
X148702500Y-110744724D01*
X149747500Y-110235276D02*
X149747500Y-110744724D01*
X128270000Y-90170000D02*
X128270000Y-92710000D01*
X128270000Y-92710000D02*
X130810000Y-92710000D01*
X133350000Y-82550000D02*
X130810000Y-82550000D01*
X133350000Y-85090000D02*
X133350000Y-82550000D01*
X155640000Y-91440000D02*
G75*
G02*
X154240000Y-91440000I-700000J0D01*
G01*
X154240000Y-91440000D02*
G75*
G02*
X155640000Y-91440000I700000J0D01*
G01*
X155086267Y-108075000D02*
X154793733Y-108075000D01*
X155086267Y-109095000D02*
X154793733Y-109095000D01*
X153931252Y-114460000D02*
X153408748Y-114460000D01*
X153931252Y-116680000D02*
X153408748Y-116680000D01*
X138283733Y-115695000D02*
X138576267Y-115695000D01*
X138283733Y-116715000D02*
X138576267Y-116715000D01*
X134732500Y-120904724D02*
X134732500Y-120395276D01*
X135777500Y-120904724D02*
X135777500Y-120395276D01*
X143220000Y-110490000D02*
X143220000Y-109840000D01*
X143220000Y-110490000D02*
X143220000Y-111140000D01*
X146340000Y-110490000D02*
X146340000Y-109840000D01*
X146340000Y-110490000D02*
X146340000Y-111140000D01*
X146620000Y-109567500D02*
X146290000Y-109327500D01*
X146620000Y-109087500D01*
X146620000Y-109567500D01*
G36*
X146620000Y-109567500D02*
G01*
X146290000Y-109327500D01*
X146620000Y-109087500D01*
X146620000Y-109567500D01*
G37*
X128270000Y-114300000D02*
X128270000Y-116840000D01*
X128270000Y-116840000D02*
X130810000Y-116840000D01*
X133350000Y-111760000D02*
X130810000Y-111760000D01*
X133350000Y-111760000D02*
X133350000Y-114300000D01*
D14*
X133350000Y-114300000D02*
X133350000Y-111760000D01*
D13*
X128270000Y-130810000D02*
X128270000Y-133350000D01*
X130810000Y-130810000D02*
X128270000Y-130810000D01*
D14*
X130810000Y-135890000D02*
X133350000Y-135890000D01*
D13*
X133350000Y-135890000D02*
X130810000Y-135890000D01*
X133350000Y-135890000D02*
X133350000Y-133350000D01*
X155640000Y-86360000D02*
G75*
G02*
X154240000Y-86360000I-700000J0D01*
G01*
X154240000Y-86360000D02*
G75*
G02*
X155640000Y-86360000I700000J0D01*
G01*
D14*
X128270000Y-106680000D02*
X128270000Y-109220000D01*
D13*
X128270000Y-109220000D02*
X128270000Y-106680000D01*
X128270000Y-109220000D02*
X130810000Y-109220000D01*
X133350000Y-104140000D02*
X130810000Y-104140000D01*
X133350000Y-106680000D02*
X133350000Y-104140000D01*
%LPC*%
D15*
X157202500Y-95885000D03*
X159027500Y-95885000D03*
D16*
X158750000Y-119737500D03*
X158750000Y-121562500D03*
D17*
X128905000Y-124215000D03*
X128905000Y-122165000D03*
D18*
X129540000Y-78740000D03*
D19*
X133350000Y-125730000D03*
D20*
X156845000Y-119787500D03*
X156845000Y-121512500D03*
D17*
X128905000Y-100085000D03*
X128905000Y-98035000D03*
D21*
X151407500Y-127000000D03*
X149582500Y-127000000D03*
D22*
X145187500Y-83185000D03*
X146912500Y-83185000D03*
D23*
X136270000Y-132715000D03*
X140970000Y-132715000D03*
X145670000Y-132715000D03*
D24*
X161290000Y-105410000D03*
D25*
X161290000Y-107950000D03*
D21*
X134897500Y-95885000D03*
X133072500Y-95885000D03*
D18*
X162560000Y-78740000D03*
D19*
X149860000Y-91440000D03*
X137160000Y-86360000D03*
D20*
X139700000Y-85497500D03*
X139700000Y-87222500D03*
D24*
X151130000Y-97060000D03*
D25*
X151130000Y-99060000D03*
X151130000Y-101060000D03*
X149130000Y-97060000D03*
X149130000Y-99060000D03*
X149130000Y-101060000D03*
D26*
X146050000Y-125730000D03*
D27*
X144050000Y-125730000D03*
D28*
X145025000Y-115570000D03*
X147075000Y-115570000D03*
D20*
X152400000Y-85497500D03*
X152400000Y-87222500D03*
D29*
X157177500Y-98110000D03*
X157177500Y-100010000D03*
X159052500Y-99060000D03*
D30*
X145642500Y-92075000D03*
X143917500Y-92075000D03*
D17*
X163195000Y-100085000D03*
X163195000Y-98035000D03*
D21*
X145692500Y-107315000D03*
X143867500Y-107315000D03*
D18*
X162560000Y-134620000D03*
D31*
X140400000Y-95250000D03*
X140400000Y-96520000D03*
X140400000Y-97790000D03*
X140400000Y-99060000D03*
X140400000Y-100330000D03*
X140400000Y-101600000D03*
X140400000Y-102870000D03*
X145350000Y-102870000D03*
X145350000Y-101600000D03*
X145350000Y-100330000D03*
X145350000Y-99060000D03*
X145350000Y-97790000D03*
X145350000Y-96520000D03*
X145350000Y-95250000D03*
D21*
X157757500Y-127000000D03*
X155932500Y-127000000D03*
D19*
X137160000Y-91440000D03*
D32*
X138735000Y-109085000D03*
X138735000Y-108585000D03*
X138735000Y-108085000D03*
X137310000Y-108085000D03*
X137310000Y-108585000D03*
X137310000Y-109085000D03*
D33*
X134922500Y-100010000D03*
X134922500Y-98110000D03*
X133047500Y-99060000D03*
D34*
X133350000Y-121562500D03*
X133350000Y-119737500D03*
D35*
X137292500Y-119700000D03*
X137292500Y-120650000D03*
X137292500Y-121600000D03*
X139567500Y-121600000D03*
X139567500Y-120650000D03*
X139567500Y-119700000D03*
D16*
X141605000Y-85447500D03*
X141605000Y-87272500D03*
D21*
X154582500Y-123825000D03*
X152757500Y-123825000D03*
D19*
X162560000Y-121920000D03*
D15*
X143867500Y-105410000D03*
X145692500Y-105410000D03*
D20*
X141605000Y-119787500D03*
X141605000Y-121512500D03*
D16*
X150495000Y-85447500D03*
X150495000Y-87272500D03*
D35*
X152532500Y-119700000D03*
X152532500Y-120650000D03*
X152532500Y-121600000D03*
X154807500Y-121600000D03*
X154807500Y-120650000D03*
X154807500Y-119700000D03*
D19*
X142240000Y-115570000D03*
D30*
X141832500Y-92075000D03*
X140107500Y-92075000D03*
D24*
X161290000Y-113030000D03*
D25*
X161290000Y-115570000D03*
D24*
X161290000Y-91440000D03*
D25*
X161290000Y-88900000D03*
X161290000Y-86360000D03*
X161290000Y-83820000D03*
D36*
X150495000Y-121512500D03*
X150495000Y-119787500D03*
D37*
X154227500Y-106180000D03*
X154227500Y-106680000D03*
X154227500Y-107180000D03*
X155652500Y-107180000D03*
X155652500Y-106680000D03*
X155652500Y-106180000D03*
D38*
X148162500Y-87335000D03*
X148162500Y-86685000D03*
X148162500Y-86035000D03*
X148162500Y-85385000D03*
X143937500Y-85385000D03*
X143937500Y-86035000D03*
X143937500Y-86685000D03*
X143937500Y-87335000D03*
D39*
X153170000Y-129535000D03*
D40*
X155190000Y-129535000D03*
D41*
X156420000Y-129535000D03*
D39*
X154170000Y-129535000D03*
D40*
X152150000Y-129535000D03*
D41*
X150920000Y-129535000D03*
D42*
X149350000Y-129715000D03*
X149350000Y-133515000D03*
X157990000Y-129715000D03*
X157990000Y-133515000D03*
D22*
X137160000Y-106680000D03*
X138885000Y-106680000D03*
D21*
X139342500Y-123825000D03*
X137517500Y-123825000D03*
D16*
X149225000Y-109577500D03*
X149225000Y-111402500D03*
D24*
X130810000Y-91440000D03*
D25*
X130810000Y-88900000D03*
X130810000Y-86360000D03*
X130810000Y-83820000D03*
D19*
X154940000Y-91440000D03*
D30*
X155802500Y-108585000D03*
X154077500Y-108585000D03*
D43*
X154832500Y-115570000D03*
X152507500Y-115570000D03*
D22*
X137567500Y-116205000D03*
X139292500Y-116205000D03*
D34*
X135255000Y-121562500D03*
X135255000Y-119737500D03*
D44*
X145730000Y-109552500D03*
X143830000Y-109552500D03*
X144780000Y-111427500D03*
D24*
X130810000Y-113030000D03*
D25*
X130810000Y-115570000D03*
D24*
X132080000Y-133350000D03*
D25*
X129540000Y-133350000D03*
D19*
X154940000Y-86360000D03*
D24*
X130810000Y-107950000D03*
D25*
X130810000Y-105410000D03*
%LPD*%
M02*
