G04 #@! TF.GenerationSoftware,KiCad,Pcbnew,9.0.0*
G04 #@! TF.CreationDate,2025-03-07T16:10:40-06:00*
G04 #@! TF.ProjectId,robo-roach-v1.0,726f626f-2d72-46f6-9163-682d76312e30,rev?*
G04 #@! TF.SameCoordinates,Original*
G04 #@! TF.FileFunction,Soldermask,Top*
G04 #@! TF.FilePolarity,Negative*
%FSLAX46Y46*%
G04 Gerber Fmt 4.6, Leading zero omitted, Abs format (unit mm)*
G04 Created by KiCad (PCBNEW 9.0.0) date 2025-03-07 16:10:40*
%MOMM*%
%LPD*%
G01*
G04 APERTURE LIST*
G04 Aperture macros list*
%AMRoundRect*
0 Rectangle with rounded corners*
0 $1 Rounding radius*
0 $2 $3 $4 $5 $6 $7 $8 $9 X,Y pos of 4 corners*
0 Add a 4 corners polygon primitive as box body*
4,1,4,$2,$3,$4,$5,$6,$7,$8,$9,$2,$3,0*
0 Add four circle primitives for the rounded corners*
1,1,$1+$1,$2,$3*
1,1,$1+$1,$4,$5*
1,1,$1+$1,$6,$7*
1,1,$1+$1,$8,$9*
0 Add four rect primitives between the rounded corners*
20,1,$1+$1,$2,$3,$4,$5,0*
20,1,$1+$1,$4,$5,$6,$7,0*
20,1,$1+$1,$6,$7,$8,$9,0*
20,1,$1+$1,$8,$9,$2,$3,0*%
G04 Aperture macros list end*
%ADD10RoundRect,0.237500X-0.250000X-0.237500X0.250000X-0.237500X0.250000X0.237500X-0.250000X0.237500X0*%
%ADD11RoundRect,0.237500X-0.237500X0.250000X-0.237500X-0.250000X0.237500X-0.250000X0.237500X0.250000X0*%
%ADD12RoundRect,0.250000X0.450000X-0.325000X0.450000X0.325000X-0.450000X0.325000X-0.450000X-0.325000X0*%
%ADD13C,3.800000*%
%ADD14C,1.000000*%
%ADD15RoundRect,0.237500X-0.237500X0.300000X-0.237500X-0.300000X0.237500X-0.300000X0.237500X0.300000X0*%
%ADD16RoundRect,0.237500X0.250000X0.237500X-0.250000X0.237500X-0.250000X-0.237500X0.250000X-0.237500X0*%
%ADD17RoundRect,0.237500X-0.300000X-0.237500X0.300000X-0.237500X0.300000X0.237500X-0.300000X0.237500X0*%
%ADD18C,1.700000*%
%ADD19R,1.400000X1.400000*%
%ADD20C,1.400000*%
%ADD21R,1.600000X1.600000*%
%ADD22C,1.600000*%
%ADD23RoundRect,0.250000X-0.325000X-0.450000X0.325000X-0.450000X0.325000X0.450000X-0.325000X0.450000X0*%
%ADD24RoundRect,0.150000X-0.587500X-0.150000X0.587500X-0.150000X0.587500X0.150000X-0.587500X0.150000X0*%
%ADD25RoundRect,0.237500X0.300000X0.237500X-0.300000X0.237500X-0.300000X-0.237500X0.300000X-0.237500X0*%
%ADD26RoundRect,0.150000X-0.825000X-0.150000X0.825000X-0.150000X0.825000X0.150000X-0.825000X0.150000X0*%
%ADD27RoundRect,0.087500X0.250000X0.087500X-0.250000X0.087500X-0.250000X-0.087500X0.250000X-0.087500X0*%
%ADD28RoundRect,0.150000X0.587500X0.150000X-0.587500X0.150000X-0.587500X-0.150000X0.587500X-0.150000X0*%
%ADD29RoundRect,0.237500X0.237500X-0.250000X0.237500X0.250000X-0.237500X0.250000X-0.237500X-0.250000X0*%
%ADD30RoundRect,0.150000X-0.512500X-0.150000X0.512500X-0.150000X0.512500X0.150000X-0.512500X0.150000X0*%
%ADD31RoundRect,0.237500X0.237500X-0.300000X0.237500X0.300000X-0.237500X0.300000X-0.237500X-0.300000X0*%
%ADD32RoundRect,0.087500X-0.250000X-0.087500X0.250000X-0.087500X0.250000X0.087500X-0.250000X0.087500X0*%
%ADD33RoundRect,0.125000X0.687500X0.125000X-0.687500X0.125000X-0.687500X-0.125000X0.687500X-0.125000X0*%
%ADD34RoundRect,0.175000X-0.175000X-0.625000X0.175000X-0.625000X0.175000X0.625000X-0.175000X0.625000X0*%
%ADD35RoundRect,0.200000X-0.200000X-0.600000X0.200000X-0.600000X0.200000X0.600000X-0.200000X0.600000X0*%
%ADD36RoundRect,0.225000X-0.225000X-0.575000X0.225000X-0.575000X0.225000X0.575000X-0.225000X0.575000X0*%
%ADD37O,1.000000X1.700000*%
%ADD38RoundRect,0.250001X0.462499X0.849999X-0.462499X0.849999X-0.462499X-0.849999X0.462499X-0.849999X0*%
%ADD39RoundRect,0.150000X-0.150000X0.587500X-0.150000X-0.587500X0.150000X-0.587500X0.150000X0.587500X0*%
G04 APERTURE END LIST*
D10*
X157202500Y-95885000D03*
X159027500Y-95885000D03*
D11*
X158750000Y-119737500D03*
X158750000Y-121562500D03*
D12*
X128905000Y-124215000D03*
X128905000Y-122165000D03*
D13*
X129540000Y-78740000D03*
D14*
X133350000Y-125730000D03*
D15*
X156845000Y-119787500D03*
X156845000Y-121512500D03*
D12*
X128905000Y-100085000D03*
X128905000Y-98035000D03*
D16*
X151407500Y-127000000D03*
X149582500Y-127000000D03*
D17*
X145187500Y-83185000D03*
X146912500Y-83185000D03*
D18*
X136270000Y-132715000D03*
X140970000Y-132715000D03*
X145670000Y-132715000D03*
D19*
X161290000Y-105410000D03*
D20*
X161290000Y-107950000D03*
D16*
X134897500Y-95885000D03*
X133072500Y-95885000D03*
D13*
X162560000Y-78740000D03*
D14*
X149860000Y-91440000D03*
X137160000Y-86360000D03*
D15*
X139700000Y-85497500D03*
X139700000Y-87222500D03*
D19*
X151130000Y-97060000D03*
D20*
X151130000Y-99060000D03*
X151130000Y-101060000D03*
X149130000Y-97060000D03*
X149130000Y-99060000D03*
X149130000Y-101060000D03*
D21*
X146050000Y-125730000D03*
D22*
X144050000Y-125730000D03*
D23*
X145025000Y-115570000D03*
X147075000Y-115570000D03*
D15*
X152400000Y-85497500D03*
X152400000Y-87222500D03*
D24*
X157177500Y-98110000D03*
X157177500Y-100010000D03*
X159052500Y-99060000D03*
D25*
X145642500Y-92075000D03*
X143917500Y-92075000D03*
D12*
X163195000Y-100085000D03*
X163195000Y-98035000D03*
D16*
X145692500Y-107315000D03*
X143867500Y-107315000D03*
D13*
X162560000Y-134620000D03*
D26*
X140400000Y-95250000D03*
X140400000Y-96520000D03*
X140400000Y-97790000D03*
X140400000Y-99060000D03*
X140400000Y-100330000D03*
X140400000Y-101600000D03*
X140400000Y-102870000D03*
X145350000Y-102870000D03*
X145350000Y-101600000D03*
X145350000Y-100330000D03*
X145350000Y-99060000D03*
X145350000Y-97790000D03*
X145350000Y-96520000D03*
X145350000Y-95250000D03*
D16*
X157757500Y-127000000D03*
X155932500Y-127000000D03*
D14*
X137160000Y-91440000D03*
D27*
X138735000Y-109085000D03*
X138735000Y-108585000D03*
X138735000Y-108085000D03*
X137310000Y-108085000D03*
X137310000Y-108585000D03*
X137310000Y-109085000D03*
D28*
X134922500Y-100010000D03*
X134922500Y-98110000D03*
X133047500Y-99060000D03*
D29*
X133350000Y-121562500D03*
X133350000Y-119737500D03*
D30*
X137292500Y-119700000D03*
X137292500Y-120650000D03*
X137292500Y-121600000D03*
X139567500Y-121600000D03*
X139567500Y-120650000D03*
X139567500Y-119700000D03*
D11*
X141605000Y-85447500D03*
X141605000Y-87272500D03*
D16*
X154582500Y-123825000D03*
X152757500Y-123825000D03*
D14*
X162560000Y-121920000D03*
D10*
X143867500Y-105410000D03*
X145692500Y-105410000D03*
D15*
X141605000Y-119787500D03*
X141605000Y-121512500D03*
D11*
X150495000Y-85447500D03*
X150495000Y-87272500D03*
D30*
X152532500Y-119700000D03*
X152532500Y-120650000D03*
X152532500Y-121600000D03*
X154807500Y-121600000D03*
X154807500Y-120650000D03*
X154807500Y-119700000D03*
D14*
X142240000Y-115570000D03*
D25*
X141832500Y-92075000D03*
X140107500Y-92075000D03*
D19*
X161290000Y-113030000D03*
D20*
X161290000Y-115570000D03*
D19*
X161290000Y-91440000D03*
D20*
X161290000Y-88900000D03*
X161290000Y-86360000D03*
X161290000Y-83820000D03*
D31*
X150495000Y-121512500D03*
X150495000Y-119787500D03*
D32*
X154227500Y-106180000D03*
X154227500Y-106680000D03*
X154227500Y-107180000D03*
X155652500Y-107180000D03*
X155652500Y-106680000D03*
X155652500Y-106180000D03*
D33*
X148162500Y-87335000D03*
X148162500Y-86685000D03*
X148162500Y-86035000D03*
X148162500Y-85385000D03*
X143937500Y-85385000D03*
X143937500Y-86035000D03*
X143937500Y-86685000D03*
X143937500Y-87335000D03*
D34*
X153170000Y-129535000D03*
D35*
X155190000Y-129535000D03*
D36*
X156420000Y-129535000D03*
D34*
X154170000Y-129535000D03*
D35*
X152150000Y-129535000D03*
D36*
X150920000Y-129535000D03*
D37*
X149350000Y-129715000D03*
X149350000Y-133515000D03*
X157990000Y-129715000D03*
X157990000Y-133515000D03*
D17*
X137160000Y-106680000D03*
X138885000Y-106680000D03*
D16*
X139342500Y-123825000D03*
X137517500Y-123825000D03*
D11*
X149225000Y-109577500D03*
X149225000Y-111402500D03*
D19*
X130810000Y-91440000D03*
D20*
X130810000Y-88900000D03*
X130810000Y-86360000D03*
X130810000Y-83820000D03*
D14*
X154940000Y-91440000D03*
D25*
X155802500Y-108585000D03*
X154077500Y-108585000D03*
D38*
X154832500Y-115570000D03*
X152507500Y-115570000D03*
D17*
X137567500Y-116205000D03*
X139292500Y-116205000D03*
D29*
X135255000Y-121562500D03*
X135255000Y-119737500D03*
D39*
X145730000Y-109552500D03*
X143830000Y-109552500D03*
X144780000Y-111427500D03*
D19*
X130810000Y-113030000D03*
D20*
X130810000Y-115570000D03*
D19*
X132080000Y-133350000D03*
D20*
X129540000Y-133350000D03*
D14*
X154940000Y-86360000D03*
D19*
X130810000Y-107950000D03*
D20*
X130810000Y-105410000D03*
M02*
