G04 #@! TF.GenerationSoftware,KiCad,Pcbnew,9.0.0*
G04 #@! TF.CreationDate,2025-03-07T15:22:54-06:00*
G04 #@! TF.ProjectId,robo-roach-v1.0,726f626f-2d72-46f6-9163-682d76312e30,rev?*
G04 #@! TF.SameCoordinates,Original*
G04 #@! TF.FileFunction,Soldermask,Bot*
G04 #@! TF.FilePolarity,Negative*
%FSLAX46Y46*%
G04 Gerber Fmt 4.6, Leading zero omitted, Abs format (unit mm)*
G04 Created by KiCad (PCBNEW 9.0.0) date 2025-03-07 15:22:54*
%MOMM*%
%LPD*%
G01*
G04 APERTURE LIST*
%ADD10R,1.400000X1.400000*%
%ADD11C,1.400000*%
%ADD12C,1.000000*%
%ADD13O,1.000000X1.700000*%
%ADD14R,1.600000X1.600000*%
%ADD15C,1.600000*%
%ADD16C,3.800000*%
%ADD17C,1.700000*%
G04 APERTURE END LIST*
D10*
X130810000Y-91440000D03*
D11*
X130810000Y-88900000D03*
X130810000Y-86360000D03*
X130810000Y-83820000D03*
D12*
X154940000Y-86360000D03*
D10*
X132080000Y-133350000D03*
D11*
X129540000Y-133350000D03*
D13*
X149350000Y-129715000D03*
X149350000Y-133515000D03*
X157990000Y-129715000D03*
X157990000Y-133515000D03*
D10*
X130810000Y-113030000D03*
D11*
X130810000Y-115570000D03*
D12*
X137160000Y-91440000D03*
D10*
X161290000Y-91440000D03*
D11*
X161290000Y-88900000D03*
X161290000Y-86360000D03*
X161290000Y-83820000D03*
D12*
X162560000Y-121920000D03*
D14*
X146050000Y-125730000D03*
D15*
X144050000Y-125730000D03*
D16*
X162560000Y-134620000D03*
D10*
X151130000Y-97060000D03*
D11*
X151130000Y-99060000D03*
X151130000Y-101060000D03*
X149130000Y-97060000D03*
X149130000Y-99060000D03*
X149130000Y-101060000D03*
D16*
X162560000Y-78740000D03*
D10*
X161290000Y-105410000D03*
D11*
X161290000Y-107950000D03*
D12*
X149860000Y-91440000D03*
D17*
X136270000Y-132715000D03*
X140970000Y-132715000D03*
X145670000Y-132715000D03*
D12*
X133350000Y-125730000D03*
D16*
X129540000Y-78740000D03*
D12*
X154940000Y-91440000D03*
X137160000Y-86360000D03*
D10*
X161290000Y-113030000D03*
D11*
X161290000Y-115570000D03*
D12*
X142240000Y-115570000D03*
D10*
X130810000Y-107950000D03*
D11*
X130810000Y-105410000D03*
M02*
