G04 #@! TF.GenerationSoftware,KiCad,Pcbnew,9.0.0*
G04 #@! TF.CreationDate,2025-03-07T16:10:40-06:00*
G04 #@! TF.ProjectId,robo-roach-v1.0,726f626f-2d72-46f6-9163-682d76312e30,rev?*
G04 #@! TF.SameCoordinates,Original*
G04 #@! TF.FileFunction,Copper,L3,Inr*
G04 #@! TF.FilePolarity,Positive*
%FSLAX46Y46*%
G04 Gerber Fmt 4.6, Leading zero omitted, Abs format (unit mm)*
G04 Created by KiCad (PCBNEW 9.0.0) date 2025-03-07 16:10:40*
%MOMM*%
%LPD*%
G01*
G04 APERTURE LIST*
G04 #@! TA.AperFunction,ComponentPad*
%ADD10C,3.800000*%
G04 #@! TD*
G04 #@! TA.AperFunction,ComponentPad*
%ADD11C,1.000000*%
G04 #@! TD*
G04 #@! TA.AperFunction,ComponentPad*
%ADD12C,1.700000*%
G04 #@! TD*
G04 #@! TA.AperFunction,ComponentPad*
%ADD13R,1.400000X1.400000*%
G04 #@! TD*
G04 #@! TA.AperFunction,ComponentPad*
%ADD14C,1.400000*%
G04 #@! TD*
G04 #@! TA.AperFunction,ComponentPad*
%ADD15R,1.600000X1.600000*%
G04 #@! TD*
G04 #@! TA.AperFunction,ComponentPad*
%ADD16C,1.600000*%
G04 #@! TD*
G04 #@! TA.AperFunction,HeatsinkPad*
%ADD17O,1.000000X1.700000*%
G04 #@! TD*
G04 #@! TA.AperFunction,ViaPad*
%ADD18C,0.400000*%
G04 #@! TD*
G04 APERTURE END LIST*
D10*
X129540000Y-78740000D03*
D11*
X133350000Y-125730000D03*
D12*
X136270000Y-132715000D03*
X140970000Y-132715000D03*
X145670000Y-132715000D03*
D13*
X161290000Y-105410000D03*
D14*
X161290000Y-107950000D03*
D10*
X162560000Y-78740000D03*
D11*
X149860000Y-91440000D03*
X137160000Y-86360000D03*
D13*
X151130000Y-97060000D03*
D14*
X151130000Y-99060000D03*
X151130000Y-101060000D03*
X149130000Y-97060000D03*
X149130000Y-99060000D03*
X149130000Y-101060000D03*
D15*
X146050000Y-125730000D03*
D16*
X144050000Y-125730000D03*
D10*
X162560000Y-134620000D03*
D11*
X137160000Y-91440000D03*
X162560000Y-121920000D03*
X142240000Y-115570000D03*
D13*
X161290000Y-113030000D03*
D14*
X161290000Y-115570000D03*
D13*
X161290000Y-91440000D03*
D14*
X161290000Y-88900000D03*
X161290000Y-86360000D03*
X161290000Y-83820000D03*
D17*
X149350000Y-129715000D03*
X149350000Y-133515000D03*
X157990000Y-129715000D03*
X157990000Y-133515000D03*
D13*
X130810000Y-91440000D03*
D14*
X130810000Y-88900000D03*
X130810000Y-86360000D03*
X130810000Y-83820000D03*
D11*
X154940000Y-91440000D03*
D13*
X130810000Y-113030000D03*
D14*
X130810000Y-115570000D03*
D13*
X132080000Y-133350000D03*
D14*
X129540000Y-133350000D03*
D11*
X154940000Y-86360000D03*
D13*
X130810000Y-107950000D03*
D14*
X130810000Y-105410000D03*
D18*
X145350000Y-99060000D03*
X157757500Y-127000000D03*
X145350000Y-95250000D03*
X157177500Y-100010000D03*
X153670000Y-96520000D03*
X141605000Y-121512500D03*
X150500000Y-118600000D03*
X140970000Y-81280000D03*
X154077500Y-108585000D03*
X143937500Y-86035000D03*
X150920000Y-129535000D03*
X140970000Y-127000000D03*
X138735000Y-108085000D03*
X153670000Y-127000000D03*
X139567500Y-120650000D03*
X153670000Y-88900000D03*
X153670000Y-111760000D03*
X137517500Y-123825000D03*
X148162500Y-85385000D03*
X148162500Y-86685000D03*
X153670000Y-134620000D03*
X149582500Y-127000000D03*
X140970000Y-88900000D03*
X151400000Y-118600000D03*
X143867500Y-107315000D03*
X134922500Y-98110000D03*
X138885000Y-106680000D03*
X146912500Y-83185000D03*
X140970000Y-134620000D03*
X153100000Y-108600000D03*
X156420000Y-129535000D03*
X140970000Y-111760000D03*
X152757500Y-123825000D03*
X135255000Y-121562500D03*
X129540000Y-127000000D03*
X149600000Y-118600000D03*
X145642500Y-92075000D03*
X139900000Y-108077000D03*
X152532500Y-120650000D03*
X139900000Y-106700000D03*
X150495000Y-119787500D03*
X156845000Y-121512500D03*
X153100000Y-107200000D03*
X162538288Y-127000000D03*
X153670000Y-81280000D03*
X153670000Y-104140000D03*
X154227500Y-107180000D03*
X141832500Y-92075000D03*
X139292500Y-116205000D03*
X143830000Y-109552500D03*
X155702000Y-105400000D03*
X128905000Y-122165000D03*
X136271000Y-109855000D03*
X154832500Y-118900000D03*
X151500000Y-122600000D03*
X156718000Y-105410000D03*
X150500000Y-122600000D03*
X137292500Y-120650000D03*
X137567500Y-116205000D03*
X154832500Y-118300000D03*
X137300000Y-109855000D03*
X137310000Y-109085000D03*
X154832500Y-117100000D03*
X150495000Y-121512500D03*
X155802500Y-108585000D03*
X137160000Y-106680000D03*
X152532500Y-121600000D03*
X152500000Y-122600000D03*
X155652500Y-106180000D03*
X154832500Y-117700000D03*
X140107500Y-92075000D03*
X143937500Y-87335000D03*
X140400000Y-95250000D03*
X156845000Y-119787500D03*
X145187500Y-83185000D03*
X134897500Y-95885000D03*
X149225000Y-109577500D03*
X154807500Y-120650000D03*
X158750000Y-119737500D03*
X157202500Y-95885000D03*
X143917500Y-92075000D03*
G04 #@! TA.AperFunction,Conductor*
G36*
X162901601Y-76400604D02*
G01*
X163157788Y-76417396D01*
X163164122Y-76418229D01*
X163414373Y-76468007D01*
X163420534Y-76469657D01*
X163662142Y-76551673D01*
X163668054Y-76554122D01*
X163896878Y-76666966D01*
X163902413Y-76670161D01*
X164057414Y-76773730D01*
X164114548Y-76811906D01*
X164119633Y-76815808D01*
X164311445Y-76984022D01*
X164315977Y-76988554D01*
X164484191Y-77180366D01*
X164488093Y-77185451D01*
X164629833Y-77397578D01*
X164633036Y-77403126D01*
X164640445Y-77418149D01*
X164745875Y-77631941D01*
X164748328Y-77637862D01*
X164830339Y-77879457D01*
X164831994Y-77885636D01*
X164881767Y-78135859D01*
X164882603Y-78142213D01*
X164899395Y-78398398D01*
X164899500Y-78401603D01*
X164899500Y-134958396D01*
X164899395Y-134961601D01*
X164882603Y-135217786D01*
X164881767Y-135224137D01*
X164831995Y-135474359D01*
X164830339Y-135480542D01*
X164748328Y-135722137D01*
X164745875Y-135728058D01*
X164633038Y-135956870D01*
X164629833Y-135962421D01*
X164488093Y-136174548D01*
X164484191Y-136179633D01*
X164315977Y-136371445D01*
X164311445Y-136375977D01*
X164119633Y-136544191D01*
X164114548Y-136548093D01*
X163902421Y-136689833D01*
X163896870Y-136693038D01*
X163668058Y-136805875D01*
X163662137Y-136808328D01*
X163420542Y-136890339D01*
X163414359Y-136891995D01*
X163164137Y-136941767D01*
X163157786Y-136942603D01*
X162901602Y-136959395D01*
X162898397Y-136959500D01*
X153710500Y-136959500D01*
X153675852Y-136945148D01*
X153661500Y-136910500D01*
X153661500Y-134969500D01*
X153675852Y-134934852D01*
X153706541Y-134922139D01*
X153706381Y-134920919D01*
X153709562Y-134920500D01*
X153785989Y-134900021D01*
X153854511Y-134860460D01*
X153910460Y-134804511D01*
X153950021Y-134735989D01*
X153970500Y-134659562D01*
X153970500Y-134580438D01*
X153970500Y-134580436D01*
X153961843Y-134548134D01*
X153950021Y-134504011D01*
X153950020Y-134504009D01*
X153950020Y-134504008D01*
X153941286Y-134488880D01*
X160559500Y-134488880D01*
X160559500Y-134751120D01*
X160593730Y-135011116D01*
X160593731Y-135011120D01*
X160593732Y-135011127D01*
X160661599Y-135264412D01*
X160661602Y-135264419D01*
X160761957Y-135506697D01*
X160761959Y-135506700D01*
X160893074Y-135733800D01*
X160893084Y-135733815D01*
X161052709Y-135941841D01*
X161052720Y-135941853D01*
X161238146Y-136127279D01*
X161238158Y-136127290D01*
X161446184Y-136286915D01*
X161446193Y-136286921D01*
X161446197Y-136286924D01*
X161673303Y-136418043D01*
X161915581Y-136518398D01*
X161915584Y-136518398D01*
X161915587Y-136518400D01*
X162168872Y-136586267D01*
X162168873Y-136586267D01*
X162168884Y-136586270D01*
X162428880Y-136620500D01*
X162428883Y-136620500D01*
X162691117Y-136620500D01*
X162691120Y-136620500D01*
X162951116Y-136586270D01*
X163093595Y-136548093D01*
X163204412Y-136518400D01*
X163204412Y-136518399D01*
X163204419Y-136518398D01*
X163446697Y-136418043D01*
X163673803Y-136286924D01*
X163673815Y-136286915D01*
X163881841Y-136127290D01*
X163881843Y-136127287D01*
X163881851Y-136127282D01*
X164067282Y-135941851D01*
X164226924Y-135733803D01*
X164358043Y-135506697D01*
X164458398Y-135264419D01*
X164526270Y-135011116D01*
X164560500Y-134751120D01*
X164560500Y-134488880D01*
X164526270Y-134228884D01*
X164458398Y-133975581D01*
X164358043Y-133733303D01*
X164226924Y-133506197D01*
X164226921Y-133506193D01*
X164226915Y-133506184D01*
X164067290Y-133298158D01*
X164067279Y-133298146D01*
X163881853Y-133112720D01*
X163881841Y-133112709D01*
X163673815Y-132953084D01*
X163673800Y-132953074D01*
X163446700Y-132821959D01*
X163446701Y-132821959D01*
X163446697Y-132821957D01*
X163263209Y-132745953D01*
X163204422Y-132721603D01*
X163204412Y-132721599D01*
X162951127Y-132653732D01*
X162951120Y-132653731D01*
X162951116Y-132653730D01*
X162691120Y-132619500D01*
X162428880Y-132619500D01*
X162168884Y-132653730D01*
X162168880Y-132653730D01*
X162168872Y-132653732D01*
X161915587Y-132721599D01*
X161915577Y-132721603D01*
X161756435Y-132787522D01*
X161673303Y-132821957D01*
X161673300Y-132821958D01*
X161673299Y-132821959D01*
X161446199Y-132953074D01*
X161446184Y-132953084D01*
X161238158Y-133112709D01*
X161238146Y-133112720D01*
X161052720Y-133298146D01*
X161052709Y-133298158D01*
X160893084Y-133506184D01*
X160893074Y-133506199D01*
X160761959Y-133733299D01*
X160761957Y-133733303D01*
X160732582Y-133804220D01*
X160661603Y-133975577D01*
X160661599Y-133975587D01*
X160593732Y-134228872D01*
X160593730Y-134228880D01*
X160593730Y-134228884D01*
X160559500Y-134488880D01*
X153941286Y-134488880D01*
X153910459Y-134435488D01*
X153854511Y-134379540D01*
X153785990Y-134339979D01*
X153709562Y-134319499D01*
X153706381Y-134319081D01*
X153706541Y-134317860D01*
X153675852Y-134305148D01*
X153661500Y-134270500D01*
X153661500Y-133085939D01*
X157389500Y-133085939D01*
X157389500Y-133944060D01*
X157430422Y-134096782D01*
X157430423Y-134096786D01*
X157509475Y-134233709D01*
X157509478Y-134233713D01*
X157509480Y-134233716D01*
X157621284Y-134345520D01*
X157621287Y-134345521D01*
X157621290Y-134345524D01*
X157758213Y-134424576D01*
X157758215Y-134424576D01*
X157758216Y-134424577D01*
X157878665Y-134456851D01*
X157910939Y-134465499D01*
X157910940Y-134465500D01*
X157910943Y-134465500D01*
X158069060Y-134465500D01*
X158069060Y-134465499D01*
X158094653Y-134458641D01*
X158164428Y-134439946D01*
X158193075Y-134432269D01*
X158221784Y-134424577D01*
X158358716Y-134345520D01*
X158470520Y-134233716D01*
X158549577Y-134096784D01*
X158590499Y-133944060D01*
X158590500Y-133944060D01*
X158590500Y-133085940D01*
X158590499Y-133085939D01*
X158569191Y-133006418D01*
X158549577Y-132933216D01*
X158549576Y-132933215D01*
X158549576Y-132933213D01*
X158470524Y-132796290D01*
X158470521Y-132796287D01*
X158470520Y-132796284D01*
X158358716Y-132684480D01*
X158358713Y-132684478D01*
X158358709Y-132684475D01*
X158221786Y-132605423D01*
X158221782Y-132605422D01*
X158069060Y-132564500D01*
X158069057Y-132564500D01*
X157910943Y-132564500D01*
X157910940Y-132564500D01*
X157758217Y-132605422D01*
X157758213Y-132605423D01*
X157621290Y-132684475D01*
X157621281Y-132684482D01*
X157509482Y-132796281D01*
X157509475Y-132796290D01*
X157430423Y-132933213D01*
X157430422Y-132933217D01*
X157389500Y-133085939D01*
X153661500Y-133085939D01*
X153661500Y-129495436D01*
X156119500Y-129495436D01*
X156119500Y-129574563D01*
X156139979Y-129650989D01*
X156139979Y-129650991D01*
X156179540Y-129719511D01*
X156235489Y-129775460D01*
X156304011Y-129815021D01*
X156339478Y-129824524D01*
X156380436Y-129835500D01*
X156380438Y-129835500D01*
X156459564Y-129835500D01*
X156486230Y-129828354D01*
X156535989Y-129815021D01*
X156604511Y-129775460D01*
X156660460Y-129719511D01*
X156700021Y-129650989D01*
X156720500Y-129574562D01*
X156720500Y-129495438D01*
X156720500Y-129495436D01*
X156711843Y-129463134D01*
X156700021Y-129419011D01*
X156700020Y-129419009D01*
X156700020Y-129419008D01*
X156660459Y-129350488D01*
X156604511Y-129294540D01*
X156589614Y-129285939D01*
X157389500Y-129285939D01*
X157389500Y-130144060D01*
X157430422Y-130296782D01*
X157430423Y-130296786D01*
X157509475Y-130433709D01*
X157509478Y-130433713D01*
X157509480Y-130433716D01*
X157621284Y-130545520D01*
X157621287Y-130545521D01*
X157621290Y-130545524D01*
X157758213Y-130624576D01*
X157758215Y-130624576D01*
X157758216Y-130624577D01*
X157878665Y-130656851D01*
X157910939Y-130665499D01*
X157910940Y-130665500D01*
X157910943Y-130665500D01*
X158069060Y-130665500D01*
X158069060Y-130665499D01*
X158221784Y-130624577D01*
X158358716Y-130545520D01*
X158470520Y-130433716D01*
X158549577Y-130296784D01*
X158590499Y-130144060D01*
X158590500Y-130144060D01*
X158590500Y-129285940D01*
X158590499Y-129285939D01*
X158549577Y-129133217D01*
X158549576Y-129133213D01*
X158470524Y-128996290D01*
X158470521Y-128996287D01*
X158470520Y-128996284D01*
X158358716Y-128884480D01*
X158358713Y-128884478D01*
X158358709Y-128884475D01*
X158221786Y-128805423D01*
X158221782Y-128805422D01*
X158069060Y-128764500D01*
X158069057Y-128764500D01*
X157910943Y-128764500D01*
X157910940Y-128764500D01*
X157758217Y-128805422D01*
X157758213Y-128805423D01*
X157621290Y-128884475D01*
X157621281Y-128884482D01*
X157509482Y-128996281D01*
X157509475Y-128996290D01*
X157430423Y-129133213D01*
X157430422Y-129133217D01*
X157389500Y-129285939D01*
X156589614Y-129285939D01*
X156535990Y-129254979D01*
X156459564Y-129234500D01*
X156459562Y-129234500D01*
X156380438Y-129234500D01*
X156380436Y-129234500D01*
X156304010Y-129254979D01*
X156304008Y-129254979D01*
X156235488Y-129294540D01*
X156235488Y-129294541D01*
X156179541Y-129350488D01*
X156179540Y-129350488D01*
X156139979Y-129419008D01*
X156139979Y-129419010D01*
X156119500Y-129495436D01*
X153661500Y-129495436D01*
X153661500Y-127349500D01*
X153675852Y-127314852D01*
X153706541Y-127302139D01*
X153706381Y-127300919D01*
X153709562Y-127300500D01*
X153785989Y-127280021D01*
X153854511Y-127240460D01*
X153910460Y-127184511D01*
X153950021Y-127115989D01*
X153970500Y-127039562D01*
X153970500Y-126960438D01*
X153970500Y-126960436D01*
X157457000Y-126960436D01*
X157457000Y-127039563D01*
X157477479Y-127115989D01*
X157477479Y-127115991D01*
X157517040Y-127184511D01*
X157572989Y-127240460D01*
X157641511Y-127280021D01*
X157676978Y-127289524D01*
X157717936Y-127300500D01*
X157717938Y-127300500D01*
X157797064Y-127300500D01*
X157823730Y-127293354D01*
X157873489Y-127280021D01*
X157942011Y-127240460D01*
X157997960Y-127184511D01*
X158037521Y-127115989D01*
X158058000Y-127039562D01*
X158058000Y-126960438D01*
X158058000Y-126960436D01*
X162237788Y-126960436D01*
X162237788Y-127039563D01*
X162258267Y-127115989D01*
X162258267Y-127115991D01*
X162297828Y-127184511D01*
X162353777Y-127240460D01*
X162422299Y-127280021D01*
X162457766Y-127289524D01*
X162498724Y-127300500D01*
X162498726Y-127300500D01*
X162577852Y-127300500D01*
X162604518Y-127293354D01*
X162654277Y-127280021D01*
X162722799Y-127240460D01*
X162778748Y-127184511D01*
X162818309Y-127115989D01*
X162838788Y-127039562D01*
X162838788Y-126960438D01*
X162838788Y-126960436D01*
X162827408Y-126917969D01*
X162818309Y-126884011D01*
X162818308Y-126884009D01*
X162818308Y-126884008D01*
X162779067Y-126816042D01*
X162778748Y-126815489D01*
X162722799Y-126759540D01*
X162654278Y-126719979D01*
X162577852Y-126699500D01*
X162577850Y-126699500D01*
X162498726Y-126699500D01*
X162498724Y-126699500D01*
X162422298Y-126719979D01*
X162422296Y-126719979D01*
X162353776Y-126759540D01*
X162353776Y-126759541D01*
X162297829Y-126815488D01*
X162297828Y-126815488D01*
X162258267Y-126884008D01*
X162258267Y-126884010D01*
X162237788Y-126960436D01*
X158058000Y-126960436D01*
X158046620Y-126917969D01*
X158037521Y-126884011D01*
X158037520Y-126884009D01*
X158037520Y-126884008D01*
X157998279Y-126816042D01*
X157997960Y-126815489D01*
X157942011Y-126759540D01*
X157873490Y-126719979D01*
X157797064Y-126699500D01*
X157797062Y-126699500D01*
X157717938Y-126699500D01*
X157717936Y-126699500D01*
X157641510Y-126719979D01*
X157641508Y-126719979D01*
X157572988Y-126759540D01*
X157572988Y-126759541D01*
X157517041Y-126815488D01*
X157517040Y-126815488D01*
X157477479Y-126884008D01*
X157477479Y-126884010D01*
X157457000Y-126960436D01*
X153970500Y-126960436D01*
X153959120Y-126917969D01*
X153950021Y-126884011D01*
X153950020Y-126884009D01*
X153950020Y-126884008D01*
X153910779Y-126816042D01*
X153910460Y-126815489D01*
X153854511Y-126759540D01*
X153785990Y-126719979D01*
X153709562Y-126699499D01*
X153706381Y-126699081D01*
X153706541Y-126697860D01*
X153675852Y-126685148D01*
X153661500Y-126650500D01*
X153661500Y-121840939D01*
X161959500Y-121840939D01*
X161959500Y-121999060D01*
X162000422Y-122151782D01*
X162000423Y-122151786D01*
X162079475Y-122288709D01*
X162079478Y-122288713D01*
X162079480Y-122288716D01*
X162191284Y-122400520D01*
X162191287Y-122400521D01*
X162191290Y-122400524D01*
X162328213Y-122479576D01*
X162328215Y-122479576D01*
X162328216Y-122479577D01*
X162448665Y-122511851D01*
X162480939Y-122520499D01*
X162480940Y-122520500D01*
X162480943Y-122520500D01*
X162639060Y-122520500D01*
X162639060Y-122520499D01*
X162791784Y-122479577D01*
X162928716Y-122400520D01*
X163040520Y-122288716D01*
X163119577Y-122151784D01*
X163160499Y-121999060D01*
X163160500Y-121999060D01*
X163160500Y-121840940D01*
X163160499Y-121840939D01*
X163121934Y-121697012D01*
X163119577Y-121688216D01*
X163119576Y-121688215D01*
X163119576Y-121688213D01*
X163040524Y-121551290D01*
X163040521Y-121551287D01*
X163040520Y-121551284D01*
X162928716Y-121439480D01*
X162928713Y-121439478D01*
X162928709Y-121439475D01*
X162791786Y-121360423D01*
X162791782Y-121360422D01*
X162639060Y-121319500D01*
X162639057Y-121319500D01*
X162480943Y-121319500D01*
X162480940Y-121319500D01*
X162328217Y-121360422D01*
X162328213Y-121360423D01*
X162191290Y-121439475D01*
X162191281Y-121439482D01*
X162079482Y-121551281D01*
X162079475Y-121551290D01*
X162000423Y-121688213D01*
X162000422Y-121688217D01*
X161959500Y-121840939D01*
X153661500Y-121840939D01*
X153661500Y-121472936D01*
X156544500Y-121472936D01*
X156544500Y-121552063D01*
X156564979Y-121628489D01*
X156564979Y-121628491D01*
X156599460Y-121688213D01*
X156604540Y-121697011D01*
X156660489Y-121752960D01*
X156729011Y-121792521D01*
X156764478Y-121802024D01*
X156805436Y-121813000D01*
X156805438Y-121813000D01*
X156884564Y-121813000D01*
X156911230Y-121805854D01*
X156960989Y-121792521D01*
X157029511Y-121752960D01*
X157085460Y-121697011D01*
X157125021Y-121628489D01*
X157145500Y-121552062D01*
X157145500Y-121472938D01*
X157145500Y-121472936D01*
X157136533Y-121439475D01*
X157125021Y-121396511D01*
X157125020Y-121396509D01*
X157125020Y-121396508D01*
X157085459Y-121327988D01*
X157029511Y-121272040D01*
X156960990Y-121232479D01*
X156884564Y-121212000D01*
X156884562Y-121212000D01*
X156805438Y-121212000D01*
X156805436Y-121212000D01*
X156729010Y-121232479D01*
X156729008Y-121232479D01*
X156660488Y-121272040D01*
X156660488Y-121272041D01*
X156604541Y-121327988D01*
X156604540Y-121327988D01*
X156564979Y-121396508D01*
X156564979Y-121396510D01*
X156544500Y-121472936D01*
X153661500Y-121472936D01*
X153661500Y-120314500D01*
X153675852Y-120279852D01*
X153710500Y-120265500D01*
X155906998Y-120265500D01*
X155907000Y-120265500D01*
X155947374Y-120257469D01*
X155947376Y-120257468D01*
X155982013Y-120243121D01*
X155982024Y-120243116D01*
X155996769Y-120235603D01*
X155996768Y-120235603D01*
X155996771Y-120235602D01*
X156039117Y-120186022D01*
X156053469Y-120151374D01*
X156061500Y-120111000D01*
X156061500Y-117502500D01*
X156075852Y-117467852D01*
X156110500Y-117453500D01*
X158319998Y-117453500D01*
X158320000Y-117453500D01*
X158360374Y-117445469D01*
X158360376Y-117445468D01*
X158395013Y-117431121D01*
X158395024Y-117431116D01*
X158409769Y-117423603D01*
X158409768Y-117423603D01*
X158409771Y-117423602D01*
X158452117Y-117374022D01*
X158466469Y-117339374D01*
X158474500Y-117299000D01*
X158474500Y-116577883D01*
X160635669Y-116577883D01*
X160661063Y-116596331D01*
X160829361Y-116682084D01*
X161008998Y-116740451D01*
X161009001Y-116740452D01*
X161195559Y-116770000D01*
X161384441Y-116770000D01*
X161570998Y-116740452D01*
X161571001Y-116740451D01*
X161750638Y-116682084D01*
X161918933Y-116596333D01*
X161944328Y-116577882D01*
X161290000Y-115923554D01*
X160635669Y-116577883D01*
X158474500Y-116577883D01*
X158474500Y-115475558D01*
X160090000Y-115475558D01*
X160090000Y-115664441D01*
X160119547Y-115850998D01*
X160119548Y-115851001D01*
X160177915Y-116030638D01*
X160263669Y-116198939D01*
X160263671Y-116198943D01*
X160282115Y-116224328D01*
X160282116Y-116224328D01*
X160936446Y-115570000D01*
X160936446Y-115569999D01*
X160890369Y-115523922D01*
X160940000Y-115523922D01*
X160940000Y-115616078D01*
X160963852Y-115705095D01*
X161009930Y-115784905D01*
X161075095Y-115850070D01*
X161154905Y-115896148D01*
X161243922Y-115920000D01*
X161336078Y-115920000D01*
X161425095Y-115896148D01*
X161504905Y-115850070D01*
X161570070Y-115784905D01*
X161616148Y-115705095D01*
X161640000Y-115616078D01*
X161640000Y-115569999D01*
X161643554Y-115569999D01*
X161643554Y-115570000D01*
X162297882Y-116224328D01*
X162316333Y-116198933D01*
X162402084Y-116030638D01*
X162460451Y-115851001D01*
X162460452Y-115850998D01*
X162490000Y-115664441D01*
X162490000Y-115475558D01*
X162460452Y-115289001D01*
X162460451Y-115288998D01*
X162402084Y-115109361D01*
X162316331Y-114941063D01*
X162297883Y-114915669D01*
X161643554Y-115569999D01*
X161640000Y-115569999D01*
X161640000Y-115523922D01*
X161616148Y-115434905D01*
X161570070Y-115355095D01*
X161504905Y-115289930D01*
X161425095Y-115243852D01*
X161336078Y-115220000D01*
X161243922Y-115220000D01*
X161154905Y-115243852D01*
X161075095Y-115289930D01*
X161009930Y-115355095D01*
X160963852Y-115434905D01*
X160940000Y-115523922D01*
X160890369Y-115523922D01*
X160282117Y-114915670D01*
X160263666Y-114941066D01*
X160177915Y-115109361D01*
X160119548Y-115288998D01*
X160119547Y-115289001D01*
X160090000Y-115475558D01*
X158474500Y-115475558D01*
X158474500Y-114562117D01*
X160635670Y-114562117D01*
X161289999Y-115216446D01*
X161944328Y-114562116D01*
X161944328Y-114562115D01*
X161918943Y-114543671D01*
X161918939Y-114543669D01*
X161750638Y-114457915D01*
X161571001Y-114399548D01*
X161570998Y-114399547D01*
X161384441Y-114370000D01*
X161195559Y-114370000D01*
X161009001Y-114399547D01*
X161008998Y-114399548D01*
X160829361Y-114457915D01*
X160661066Y-114543666D01*
X160635670Y-114562117D01*
X158474500Y-114562117D01*
X158474500Y-112320095D01*
X160489500Y-112320095D01*
X160489500Y-113739894D01*
X160489501Y-113739898D01*
X160495331Y-113769213D01*
X160495331Y-113769214D01*
X160495332Y-113769215D01*
X160495332Y-113769216D01*
X160517542Y-113802456D01*
X160517543Y-113802457D01*
X160550787Y-113824669D01*
X160580101Y-113830500D01*
X161999898Y-113830499D01*
X162029213Y-113824669D01*
X162062457Y-113802457D01*
X162084669Y-113769213D01*
X162090500Y-113739899D01*
X162090499Y-112320102D01*
X162084669Y-112290787D01*
X162084667Y-112290784D01*
X162084667Y-112290783D01*
X162062457Y-112257543D01*
X162029212Y-112235330D01*
X161999901Y-112229500D01*
X160580105Y-112229500D01*
X160580104Y-112229500D01*
X160580102Y-112229501D01*
X160550787Y-112235331D01*
X160550786Y-112235331D01*
X160550784Y-112235332D01*
X160550783Y-112235332D01*
X160517543Y-112257542D01*
X160495330Y-112290786D01*
X160495330Y-112290787D01*
X160489500Y-112320095D01*
X158474500Y-112320095D01*
X158474500Y-107871152D01*
X160489500Y-107871152D01*
X160489500Y-108028847D01*
X160520260Y-108183487D01*
X160520263Y-108183498D01*
X160575751Y-108317459D01*
X160580606Y-108329179D01*
X160668211Y-108460289D01*
X160779711Y-108571789D01*
X160910821Y-108659394D01*
X161056503Y-108719737D01*
X161056509Y-108719738D01*
X161056512Y-108719739D01*
X161211152Y-108750499D01*
X161211158Y-108750500D01*
X161368842Y-108750500D01*
X161523497Y-108719737D01*
X161669179Y-108659394D01*
X161800289Y-108571789D01*
X161911789Y-108460289D01*
X161999394Y-108329179D01*
X162059737Y-108183497D01*
X162090500Y-108028842D01*
X162090500Y-107871158D01*
X162059737Y-107716503D01*
X161999394Y-107570821D01*
X161911789Y-107439711D01*
X161800289Y-107328211D01*
X161669179Y-107240606D01*
X161669176Y-107240604D01*
X161669175Y-107240604D01*
X161523498Y-107180263D01*
X161523487Y-107180260D01*
X161368847Y-107149500D01*
X161368842Y-107149500D01*
X161211158Y-107149500D01*
X161211152Y-107149500D01*
X161056512Y-107180260D01*
X161056501Y-107180263D01*
X160910824Y-107240604D01*
X160779711Y-107328210D01*
X160668210Y-107439711D01*
X160580604Y-107570824D01*
X160520263Y-107716501D01*
X160520260Y-107716512D01*
X160489500Y-107871152D01*
X158474500Y-107871152D01*
X158474500Y-104986000D01*
X158466469Y-104945626D01*
X158466468Y-104945623D01*
X158452121Y-104910986D01*
X158452116Y-104910975D01*
X158444603Y-104896230D01*
X158444602Y-104896229D01*
X158395022Y-104853883D01*
X158360374Y-104839531D01*
X158320000Y-104831500D01*
X151433000Y-104831500D01*
X151412813Y-104835515D01*
X151392624Y-104839531D01*
X151392623Y-104839531D01*
X151357986Y-104853878D01*
X151357975Y-104853883D01*
X151343230Y-104861396D01*
X151300883Y-104910978D01*
X151286531Y-104945626D01*
X151278500Y-104986002D01*
X151278500Y-113510500D01*
X151264148Y-113545148D01*
X151229500Y-113559500D01*
X139600500Y-113559500D01*
X139565852Y-113545148D01*
X139551500Y-113510500D01*
X139551500Y-111720436D01*
X140669500Y-111720436D01*
X140669500Y-111799563D01*
X140689979Y-111875989D01*
X140689979Y-111875991D01*
X140729540Y-111944511D01*
X140785489Y-112000460D01*
X140854011Y-112040021D01*
X140889478Y-112049524D01*
X140930436Y-112060500D01*
X140930438Y-112060500D01*
X141009564Y-112060500D01*
X141036230Y-112053354D01*
X141085989Y-112040021D01*
X141154511Y-112000460D01*
X141210460Y-111944511D01*
X141250021Y-111875989D01*
X141270500Y-111799562D01*
X141270500Y-111720438D01*
X141270500Y-111720436D01*
X141261843Y-111688134D01*
X141250021Y-111644011D01*
X141250020Y-111644009D01*
X141250020Y-111644008D01*
X141210459Y-111575488D01*
X141154511Y-111519540D01*
X141085990Y-111479979D01*
X141009564Y-111459500D01*
X141009562Y-111459500D01*
X140930438Y-111459500D01*
X140930436Y-111459500D01*
X140854010Y-111479979D01*
X140854008Y-111479979D01*
X140785488Y-111519540D01*
X140785488Y-111519541D01*
X140729541Y-111575488D01*
X140729540Y-111575488D01*
X140689979Y-111644008D01*
X140689979Y-111644010D01*
X140669500Y-111720436D01*
X139551500Y-111720436D01*
X139551500Y-109512936D01*
X143529500Y-109512936D01*
X143529500Y-109592063D01*
X143549979Y-109668489D01*
X143549979Y-109668491D01*
X143589540Y-109737011D01*
X143645489Y-109792960D01*
X143714011Y-109832521D01*
X143749478Y-109842024D01*
X143790436Y-109853000D01*
X143790438Y-109853000D01*
X143869564Y-109853000D01*
X143896230Y-109845854D01*
X143945989Y-109832521D01*
X144014511Y-109792960D01*
X144070460Y-109737011D01*
X144110021Y-109668489D01*
X144130500Y-109592062D01*
X144130500Y-109512938D01*
X144130500Y-109512936D01*
X144121843Y-109480634D01*
X144110021Y-109436511D01*
X144110020Y-109436509D01*
X144110020Y-109436508D01*
X144070459Y-109367988D01*
X144014511Y-109312040D01*
X143945990Y-109272479D01*
X143869564Y-109252000D01*
X143869562Y-109252000D01*
X143790438Y-109252000D01*
X143790436Y-109252000D01*
X143714010Y-109272479D01*
X143714008Y-109272479D01*
X143645488Y-109312040D01*
X143645488Y-109312041D01*
X143589541Y-109367988D01*
X143589540Y-109367988D01*
X143549979Y-109436508D01*
X143549979Y-109436510D01*
X143529500Y-109512936D01*
X139551500Y-109512936D01*
X139551500Y-108257250D01*
X139565852Y-108222602D01*
X139600500Y-108208250D01*
X139635148Y-108222602D01*
X139642934Y-108232749D01*
X139659540Y-108261511D01*
X139715489Y-108317460D01*
X139784011Y-108357021D01*
X139819478Y-108366524D01*
X139860436Y-108377500D01*
X139860438Y-108377500D01*
X139939564Y-108377500D01*
X139966230Y-108370354D01*
X140015989Y-108357021D01*
X140084511Y-108317460D01*
X140140460Y-108261511D01*
X140180021Y-108192989D01*
X140200500Y-108116562D01*
X140200500Y-108037438D01*
X140200500Y-108037436D01*
X140191843Y-108005134D01*
X140180021Y-107961011D01*
X140180020Y-107961009D01*
X140180020Y-107961008D01*
X140150241Y-107909430D01*
X140140460Y-107892489D01*
X140084511Y-107836540D01*
X140015990Y-107796979D01*
X139939564Y-107776500D01*
X139939562Y-107776500D01*
X139860438Y-107776500D01*
X139860436Y-107776500D01*
X139784010Y-107796979D01*
X139784008Y-107796979D01*
X139715488Y-107836540D01*
X139715488Y-107836541D01*
X139659542Y-107892486D01*
X139659540Y-107892488D01*
X139659540Y-107892489D01*
X139649759Y-107909430D01*
X139642935Y-107921250D01*
X139613181Y-107944080D01*
X139575999Y-107939184D01*
X139553169Y-107909430D01*
X139551500Y-107896749D01*
X139551500Y-107275436D01*
X143567000Y-107275436D01*
X143567000Y-107354563D01*
X143587479Y-107430989D01*
X143587479Y-107430991D01*
X143627040Y-107499511D01*
X143682989Y-107555460D01*
X143751511Y-107595021D01*
X143786978Y-107604524D01*
X143827936Y-107615500D01*
X143827938Y-107615500D01*
X143907064Y-107615500D01*
X143933730Y-107608354D01*
X143983489Y-107595021D01*
X144052011Y-107555460D01*
X144107960Y-107499511D01*
X144147521Y-107430989D01*
X144168000Y-107354562D01*
X144168000Y-107275438D01*
X144168000Y-107275436D01*
X144158532Y-107240104D01*
X144147521Y-107199011D01*
X144147520Y-107199009D01*
X144147520Y-107199008D01*
X144122302Y-107155330D01*
X144107960Y-107130489D01*
X144052011Y-107074540D01*
X143983490Y-107034979D01*
X143907064Y-107014500D01*
X143907062Y-107014500D01*
X143827938Y-107014500D01*
X143827936Y-107014500D01*
X143751510Y-107034979D01*
X143751508Y-107034979D01*
X143682988Y-107074540D01*
X143682988Y-107074541D01*
X143627041Y-107130488D01*
X143627040Y-107130488D01*
X143587479Y-107199008D01*
X143587479Y-107199010D01*
X143567000Y-107275436D01*
X139551500Y-107275436D01*
X139551500Y-106880250D01*
X139565852Y-106845602D01*
X139600500Y-106831250D01*
X139635148Y-106845602D01*
X139642934Y-106855749D01*
X139659540Y-106884511D01*
X139715489Y-106940460D01*
X139784011Y-106980021D01*
X139819478Y-106989524D01*
X139860436Y-107000500D01*
X139860438Y-107000500D01*
X139939564Y-107000500D01*
X139966230Y-106993354D01*
X140015989Y-106980021D01*
X140084511Y-106940460D01*
X140140460Y-106884511D01*
X140180021Y-106815989D01*
X140200500Y-106739562D01*
X140200500Y-106660438D01*
X140200500Y-106660436D01*
X140191843Y-106628134D01*
X140180021Y-106584011D01*
X140180020Y-106584009D01*
X140180020Y-106584008D01*
X140150241Y-106532430D01*
X140140460Y-106515489D01*
X140084511Y-106459540D01*
X140015990Y-106419979D01*
X139939564Y-106399500D01*
X139939562Y-106399500D01*
X139860438Y-106399500D01*
X139860436Y-106399500D01*
X139784010Y-106419979D01*
X139784008Y-106419979D01*
X139715488Y-106459540D01*
X139715488Y-106459541D01*
X139659542Y-106515486D01*
X139659540Y-106515488D01*
X139659540Y-106515489D01*
X139649759Y-106532430D01*
X139642935Y-106544250D01*
X139613181Y-106567080D01*
X139575999Y-106562184D01*
X139553169Y-106532430D01*
X139551500Y-106519749D01*
X139551500Y-105586002D01*
X139551500Y-105586000D01*
X139543469Y-105545626D01*
X139543468Y-105545623D01*
X139529121Y-105510986D01*
X139529116Y-105510975D01*
X139521603Y-105496230D01*
X139512953Y-105488842D01*
X139472022Y-105453883D01*
X139437374Y-105439531D01*
X139397000Y-105431500D01*
X133780000Y-105431500D01*
X133759813Y-105435515D01*
X133739624Y-105439531D01*
X133739623Y-105439531D01*
X133704986Y-105453878D01*
X133704975Y-105453883D01*
X133690230Y-105461396D01*
X133647883Y-105510978D01*
X133633531Y-105545626D01*
X133625500Y-105586002D01*
X133625500Y-117193500D01*
X133611148Y-117228148D01*
X133576500Y-117242500D01*
X127249500Y-117242500D01*
X127214852Y-117228148D01*
X127200500Y-117193500D01*
X127200500Y-116577883D01*
X130155669Y-116577883D01*
X130181063Y-116596331D01*
X130349361Y-116682084D01*
X130528998Y-116740451D01*
X130529001Y-116740452D01*
X130715559Y-116770000D01*
X130904441Y-116770000D01*
X131090998Y-116740452D01*
X131091001Y-116740451D01*
X131270638Y-116682084D01*
X131438933Y-116596333D01*
X131464328Y-116577882D01*
X130810000Y-115923554D01*
X130155669Y-116577883D01*
X127200500Y-116577883D01*
X127200500Y-115475558D01*
X129610000Y-115475558D01*
X129610000Y-115664441D01*
X129639547Y-115850998D01*
X129639548Y-115851001D01*
X129697915Y-116030638D01*
X129783669Y-116198939D01*
X129783671Y-116198943D01*
X129802115Y-116224328D01*
X129802116Y-116224328D01*
X130456446Y-115570000D01*
X130456446Y-115569999D01*
X130410369Y-115523922D01*
X130460000Y-115523922D01*
X130460000Y-115616078D01*
X130483852Y-115705095D01*
X130529930Y-115784905D01*
X130595095Y-115850070D01*
X130674905Y-115896148D01*
X130763922Y-115920000D01*
X130856078Y-115920000D01*
X130945095Y-115896148D01*
X131024905Y-115850070D01*
X131090070Y-115784905D01*
X131136148Y-115705095D01*
X131160000Y-115616078D01*
X131160000Y-115569999D01*
X131163554Y-115569999D01*
X131163554Y-115570000D01*
X131817882Y-116224328D01*
X131836333Y-116198933D01*
X131922084Y-116030638D01*
X131980451Y-115851001D01*
X131980452Y-115850998D01*
X132010000Y-115664441D01*
X132010000Y-115475558D01*
X131980452Y-115289001D01*
X131980451Y-115288998D01*
X131922084Y-115109361D01*
X131836331Y-114941063D01*
X131817883Y-114915669D01*
X131163554Y-115569999D01*
X131160000Y-115569999D01*
X131160000Y-115523922D01*
X131136148Y-115434905D01*
X131090070Y-115355095D01*
X131024905Y-115289930D01*
X130945095Y-115243852D01*
X130856078Y-115220000D01*
X130763922Y-115220000D01*
X130674905Y-115243852D01*
X130595095Y-115289930D01*
X130529930Y-115355095D01*
X130483852Y-115434905D01*
X130460000Y-115523922D01*
X130410369Y-115523922D01*
X129802117Y-114915670D01*
X129783666Y-114941066D01*
X129697915Y-115109361D01*
X129639548Y-115288998D01*
X129639547Y-115289001D01*
X129610000Y-115475558D01*
X127200500Y-115475558D01*
X127200500Y-114562117D01*
X130155670Y-114562117D01*
X130809999Y-115216446D01*
X131464328Y-114562116D01*
X131464328Y-114562115D01*
X131438943Y-114543671D01*
X131438939Y-114543669D01*
X131270638Y-114457915D01*
X131091001Y-114399548D01*
X131090998Y-114399547D01*
X130904441Y-114370000D01*
X130715559Y-114370000D01*
X130529001Y-114399547D01*
X130528998Y-114399548D01*
X130349361Y-114457915D01*
X130181066Y-114543666D01*
X130155670Y-114562117D01*
X127200500Y-114562117D01*
X127200500Y-112320095D01*
X130009500Y-112320095D01*
X130009500Y-113739894D01*
X130009501Y-113739898D01*
X130015331Y-113769213D01*
X130015331Y-113769214D01*
X130015332Y-113769215D01*
X130015332Y-113769216D01*
X130037542Y-113802456D01*
X130037543Y-113802457D01*
X130070787Y-113824669D01*
X130100101Y-113830500D01*
X131519898Y-113830499D01*
X131549213Y-113824669D01*
X131582457Y-113802457D01*
X131604669Y-113769213D01*
X131610500Y-113739899D01*
X131610499Y-112320102D01*
X131604669Y-112290787D01*
X131604667Y-112290784D01*
X131604667Y-112290783D01*
X131582457Y-112257543D01*
X131549212Y-112235330D01*
X131519901Y-112229500D01*
X130100105Y-112229500D01*
X130100104Y-112229500D01*
X130100102Y-112229501D01*
X130070787Y-112235331D01*
X130070786Y-112235331D01*
X130070784Y-112235332D01*
X130070783Y-112235332D01*
X130037543Y-112257542D01*
X130015330Y-112290786D01*
X130015330Y-112290787D01*
X130009500Y-112320095D01*
X127200500Y-112320095D01*
X127200500Y-107240095D01*
X130009500Y-107240095D01*
X130009500Y-108659894D01*
X130009501Y-108659898D01*
X130015331Y-108689213D01*
X130015331Y-108689214D01*
X130015332Y-108689215D01*
X130015332Y-108689216D01*
X130035727Y-108719739D01*
X130037543Y-108722457D01*
X130070787Y-108744669D01*
X130100101Y-108750500D01*
X131519898Y-108750499D01*
X131549213Y-108744669D01*
X131582457Y-108722457D01*
X131604669Y-108689213D01*
X131610500Y-108659899D01*
X131610499Y-107240102D01*
X131604669Y-107210787D01*
X131604667Y-107210784D01*
X131604667Y-107210783D01*
X131582457Y-107177543D01*
X131549212Y-107155330D01*
X131519901Y-107149500D01*
X130100105Y-107149500D01*
X130100104Y-107149500D01*
X130100102Y-107149501D01*
X130070787Y-107155331D01*
X130070786Y-107155331D01*
X130070784Y-107155332D01*
X130070783Y-107155332D01*
X130037543Y-107177542D01*
X130015330Y-107210786D01*
X130015330Y-107210787D01*
X130009500Y-107240095D01*
X127200500Y-107240095D01*
X127200500Y-105331152D01*
X130009500Y-105331152D01*
X130009500Y-105488847D01*
X130040260Y-105643487D01*
X130040263Y-105643497D01*
X130100606Y-105789179D01*
X130188211Y-105920289D01*
X130299711Y-106031789D01*
X130430821Y-106119394D01*
X130576503Y-106179737D01*
X130576509Y-106179738D01*
X130576512Y-106179739D01*
X130731152Y-106210499D01*
X130731158Y-106210500D01*
X130888842Y-106210500D01*
X131043497Y-106179737D01*
X131189179Y-106119394D01*
X131320289Y-106031789D01*
X131431789Y-105920289D01*
X131519394Y-105789179D01*
X131579737Y-105643497D01*
X131610500Y-105488842D01*
X131610500Y-105331158D01*
X131579737Y-105176503D01*
X131519394Y-105030821D01*
X131431789Y-104899711D01*
X131320289Y-104788211D01*
X131189179Y-104700606D01*
X131189176Y-104700604D01*
X131189175Y-104700604D01*
X131187946Y-104700095D01*
X160489500Y-104700095D01*
X160489500Y-106119894D01*
X160489501Y-106119898D01*
X160495331Y-106149213D01*
X160495331Y-106149214D01*
X160495332Y-106149215D01*
X160495332Y-106149216D01*
X160515727Y-106179739D01*
X160517543Y-106182457D01*
X160550787Y-106204669D01*
X160580101Y-106210500D01*
X161999898Y-106210499D01*
X162029213Y-106204669D01*
X162062457Y-106182457D01*
X162084669Y-106149213D01*
X162090500Y-106119899D01*
X162090499Y-104700102D01*
X162084669Y-104670787D01*
X162084667Y-104670784D01*
X162084667Y-104670783D01*
X162062457Y-104637543D01*
X162029212Y-104615330D01*
X161999901Y-104609500D01*
X160580105Y-104609500D01*
X160580104Y-104609500D01*
X160580102Y-104609501D01*
X160550787Y-104615331D01*
X160550786Y-104615331D01*
X160550784Y-104615332D01*
X160550783Y-104615332D01*
X160517543Y-104637542D01*
X160495330Y-104670786D01*
X160495330Y-104670787D01*
X160489500Y-104700095D01*
X131187946Y-104700095D01*
X131043498Y-104640263D01*
X131043487Y-104640260D01*
X130888847Y-104609500D01*
X130888842Y-104609500D01*
X130731158Y-104609500D01*
X130731152Y-104609500D01*
X130576512Y-104640260D01*
X130576501Y-104640263D01*
X130430824Y-104700604D01*
X130299711Y-104788210D01*
X130188210Y-104899711D01*
X130100604Y-105030824D01*
X130040263Y-105176501D01*
X130040260Y-105176512D01*
X130009500Y-105331152D01*
X127200500Y-105331152D01*
X127200500Y-104100436D01*
X153369500Y-104100436D01*
X153369500Y-104179563D01*
X153389979Y-104255989D01*
X153389979Y-104255991D01*
X153429540Y-104324511D01*
X153485489Y-104380460D01*
X153554011Y-104420021D01*
X153589478Y-104429524D01*
X153630436Y-104440500D01*
X153630438Y-104440500D01*
X153709564Y-104440500D01*
X153736230Y-104433354D01*
X153785989Y-104420021D01*
X153854511Y-104380460D01*
X153910460Y-104324511D01*
X153950021Y-104255989D01*
X153970500Y-104179562D01*
X153970500Y-104100438D01*
X153970500Y-104100436D01*
X153961843Y-104068134D01*
X153950021Y-104024011D01*
X153950020Y-104024009D01*
X153950020Y-104024008D01*
X153910459Y-103955488D01*
X153854511Y-103899540D01*
X153785990Y-103859979D01*
X153709564Y-103839500D01*
X153709562Y-103839500D01*
X153630438Y-103839500D01*
X153630436Y-103839500D01*
X153554010Y-103859979D01*
X153554008Y-103859979D01*
X153485488Y-103899540D01*
X153485488Y-103899541D01*
X153429541Y-103955488D01*
X153429540Y-103955488D01*
X153389979Y-104024008D01*
X153389979Y-104024010D01*
X153369500Y-104100436D01*
X127200500Y-104100436D01*
X127200500Y-102067883D01*
X148475669Y-102067883D01*
X148501063Y-102086331D01*
X148669361Y-102172084D01*
X148848998Y-102230451D01*
X148849001Y-102230452D01*
X149035559Y-102260000D01*
X149224441Y-102260000D01*
X149410998Y-102230452D01*
X149411001Y-102230451D01*
X149590638Y-102172084D01*
X149758933Y-102086333D01*
X149784328Y-102067882D01*
X149130000Y-101413554D01*
X148475669Y-102067883D01*
X127200500Y-102067883D01*
X127200500Y-100965558D01*
X147930000Y-100965558D01*
X147930000Y-101154441D01*
X147959547Y-101340998D01*
X147959548Y-101341001D01*
X148017915Y-101520638D01*
X148103669Y-101688939D01*
X148103671Y-101688943D01*
X148122115Y-101714328D01*
X148122116Y-101714328D01*
X148776446Y-101060000D01*
X148776446Y-101059999D01*
X148730369Y-101013922D01*
X148780000Y-101013922D01*
X148780000Y-101106078D01*
X148803852Y-101195095D01*
X148849930Y-101274905D01*
X148915095Y-101340070D01*
X148994905Y-101386148D01*
X149083922Y-101410000D01*
X149176078Y-101410000D01*
X149265095Y-101386148D01*
X149344905Y-101340070D01*
X149410070Y-101274905D01*
X149456148Y-101195095D01*
X149480000Y-101106078D01*
X149480000Y-101059999D01*
X149483554Y-101059999D01*
X149483554Y-101060000D01*
X150137882Y-101714328D01*
X150156333Y-101688933D01*
X150242084Y-101520638D01*
X150294350Y-101359778D01*
X150318706Y-101331261D01*
X150356094Y-101328318D01*
X150384611Y-101352674D01*
X150386222Y-101356169D01*
X150420604Y-101439175D01*
X150420606Y-101439179D01*
X150508211Y-101570289D01*
X150619711Y-101681789D01*
X150750821Y-101769394D01*
X150896503Y-101829737D01*
X150896509Y-101829738D01*
X150896512Y-101829739D01*
X151051152Y-101860499D01*
X151051158Y-101860500D01*
X151208842Y-101860500D01*
X151363497Y-101829737D01*
X151509179Y-101769394D01*
X151640289Y-101681789D01*
X151751789Y-101570289D01*
X151839394Y-101439179D01*
X151899737Y-101293497D01*
X151930500Y-101138842D01*
X151930500Y-100981158D01*
X151899737Y-100826503D01*
X151839394Y-100680821D01*
X151751789Y-100549711D01*
X151640289Y-100438211D01*
X151629591Y-100431063D01*
X151591588Y-100405670D01*
X151509179Y-100350606D01*
X151509176Y-100350604D01*
X151509175Y-100350604D01*
X151363498Y-100290263D01*
X151363487Y-100290260D01*
X151208847Y-100259500D01*
X151208842Y-100259500D01*
X151051158Y-100259500D01*
X151051152Y-100259500D01*
X150896512Y-100290260D01*
X150896501Y-100290263D01*
X150750824Y-100350604D01*
X150619711Y-100438210D01*
X150508210Y-100549711D01*
X150420605Y-100680822D01*
X150386222Y-100763831D01*
X150359703Y-100790349D01*
X150322200Y-100790349D01*
X150295682Y-100763830D01*
X150294350Y-100760221D01*
X150242084Y-100599361D01*
X150156331Y-100431063D01*
X150137883Y-100405669D01*
X149483554Y-101059999D01*
X149480000Y-101059999D01*
X149480000Y-101013922D01*
X149456148Y-100924905D01*
X149410070Y-100845095D01*
X149344905Y-100779930D01*
X149265095Y-100733852D01*
X149176078Y-100710000D01*
X149083922Y-100710000D01*
X148994905Y-100733852D01*
X148915095Y-100779930D01*
X148849930Y-100845095D01*
X148803852Y-100924905D01*
X148780000Y-101013922D01*
X148730369Y-101013922D01*
X148122117Y-100405670D01*
X148103666Y-100431066D01*
X148017915Y-100599361D01*
X147959548Y-100778998D01*
X147959547Y-100779001D01*
X147930000Y-100965558D01*
X127200500Y-100965558D01*
X127200500Y-99020436D01*
X145049500Y-99020436D01*
X145049500Y-99099563D01*
X145069979Y-99175989D01*
X145069979Y-99175991D01*
X145109540Y-99244511D01*
X145165489Y-99300460D01*
X145234011Y-99340021D01*
X145269478Y-99349524D01*
X145310436Y-99360500D01*
X145310438Y-99360500D01*
X145389564Y-99360500D01*
X145416230Y-99353354D01*
X145465989Y-99340021D01*
X145534511Y-99300460D01*
X145590460Y-99244511D01*
X145630021Y-99175989D01*
X145650500Y-99099562D01*
X145650500Y-99020438D01*
X145650500Y-99020435D01*
X145650499Y-99020434D01*
X145642729Y-98991433D01*
X145639974Y-98981152D01*
X148329500Y-98981152D01*
X148329500Y-99138847D01*
X148360260Y-99293487D01*
X148360263Y-99293498D01*
X148388016Y-99360500D01*
X148420606Y-99439179D01*
X148508211Y-99570289D01*
X148619711Y-99681789D01*
X148750821Y-99769394D01*
X148751176Y-99769541D01*
X148833830Y-99803777D01*
X148860349Y-99830295D01*
X148860349Y-99867798D01*
X148833831Y-99894317D01*
X148830221Y-99895649D01*
X148669361Y-99947915D01*
X148501066Y-100033666D01*
X148475670Y-100052117D01*
X149129999Y-100706446D01*
X149784328Y-100052116D01*
X149784328Y-100052115D01*
X149758943Y-100033671D01*
X149758939Y-100033669D01*
X149714223Y-100010885D01*
X149634838Y-99970436D01*
X156877000Y-99970436D01*
X156877000Y-100049563D01*
X156897479Y-100125989D01*
X156897479Y-100125991D01*
X156937040Y-100194511D01*
X156992989Y-100250460D01*
X157061511Y-100290021D01*
X157096978Y-100299524D01*
X157137936Y-100310500D01*
X157137938Y-100310500D01*
X157217064Y-100310500D01*
X157243730Y-100303354D01*
X157293489Y-100290021D01*
X157362011Y-100250460D01*
X157417960Y-100194511D01*
X157457521Y-100125989D01*
X157473671Y-100065713D01*
X157478000Y-100049563D01*
X157478000Y-99970436D01*
X157469343Y-99938134D01*
X157457521Y-99894011D01*
X157457520Y-99894009D01*
X157457520Y-99894008D01*
X157422819Y-99833905D01*
X157417960Y-99825489D01*
X157362011Y-99769540D01*
X157361758Y-99769394D01*
X157293490Y-99729979D01*
X157217064Y-99709500D01*
X157217062Y-99709500D01*
X157137938Y-99709500D01*
X157137936Y-99709500D01*
X157061510Y-99729979D01*
X157061508Y-99729979D01*
X156992988Y-99769540D01*
X156992988Y-99769541D01*
X156937041Y-99825488D01*
X156937040Y-99825488D01*
X156897479Y-99894008D01*
X156897479Y-99894010D01*
X156877000Y-99970436D01*
X149634838Y-99970436D01*
X149590638Y-99947915D01*
X149429778Y-99895649D01*
X149401261Y-99871293D01*
X149398318Y-99833905D01*
X149422674Y-99805388D01*
X149426156Y-99803782D01*
X149509179Y-99769394D01*
X149640289Y-99681789D01*
X149751789Y-99570289D01*
X149839394Y-99439179D01*
X149899737Y-99293497D01*
X149930500Y-99138842D01*
X149930500Y-98981158D01*
X149930499Y-98981152D01*
X150329500Y-98981152D01*
X150329500Y-99138847D01*
X150360260Y-99293487D01*
X150360263Y-99293498D01*
X150388016Y-99360500D01*
X150420606Y-99439179D01*
X150508211Y-99570289D01*
X150619711Y-99681789D01*
X150750821Y-99769394D01*
X150896503Y-99829737D01*
X150896509Y-99829738D01*
X150896512Y-99829739D01*
X151051152Y-99860499D01*
X151051158Y-99860500D01*
X151208842Y-99860500D01*
X151363497Y-99829737D01*
X151509179Y-99769394D01*
X151640289Y-99681789D01*
X151751789Y-99570289D01*
X151839394Y-99439179D01*
X151899737Y-99293497D01*
X151930500Y-99138842D01*
X151930500Y-98981158D01*
X151923111Y-98944010D01*
X151899739Y-98826512D01*
X151899736Y-98826501D01*
X151880466Y-98779979D01*
X151839394Y-98680821D01*
X151751789Y-98549711D01*
X151640289Y-98438211D01*
X151509179Y-98350606D01*
X151509176Y-98350604D01*
X151509175Y-98350604D01*
X151363498Y-98290263D01*
X151363487Y-98290260D01*
X151208847Y-98259500D01*
X151208842Y-98259500D01*
X151051158Y-98259500D01*
X151051152Y-98259500D01*
X150896512Y-98290260D01*
X150896501Y-98290263D01*
X150750824Y-98350604D01*
X150619711Y-98438210D01*
X150508210Y-98549711D01*
X150420604Y-98680824D01*
X150360263Y-98826501D01*
X150360260Y-98826512D01*
X150329500Y-98981152D01*
X149930499Y-98981152D01*
X149923111Y-98944010D01*
X149899739Y-98826512D01*
X149899736Y-98826501D01*
X149880466Y-98779979D01*
X149839394Y-98680821D01*
X149751789Y-98549711D01*
X149640289Y-98438211D01*
X149509179Y-98350606D01*
X149509176Y-98350604D01*
X149509175Y-98350604D01*
X149363498Y-98290263D01*
X149363487Y-98290260D01*
X149208847Y-98259500D01*
X149208842Y-98259500D01*
X149051158Y-98259500D01*
X149051152Y-98259500D01*
X148896512Y-98290260D01*
X148896501Y-98290263D01*
X148750824Y-98350604D01*
X148619711Y-98438210D01*
X148508210Y-98549711D01*
X148420604Y-98680824D01*
X148360263Y-98826501D01*
X148360260Y-98826512D01*
X148329500Y-98981152D01*
X145639974Y-98981152D01*
X145635282Y-98963645D01*
X145630021Y-98944011D01*
X145630020Y-98944009D01*
X145630020Y-98944008D01*
X145590459Y-98875488D01*
X145534511Y-98819540D01*
X145465990Y-98779979D01*
X145389564Y-98759500D01*
X145389562Y-98759500D01*
X145310438Y-98759500D01*
X145310436Y-98759500D01*
X145234010Y-98779979D01*
X145234008Y-98779979D01*
X145165488Y-98819540D01*
X145165488Y-98819541D01*
X145109541Y-98875488D01*
X145109540Y-98875488D01*
X145069979Y-98944008D01*
X145069979Y-98944010D01*
X145049500Y-99020436D01*
X127200500Y-99020436D01*
X127200500Y-98070436D01*
X134622000Y-98070436D01*
X134622000Y-98149563D01*
X134642479Y-98225989D01*
X134642479Y-98225991D01*
X134661826Y-98259500D01*
X134682040Y-98294511D01*
X134737989Y-98350460D01*
X134806511Y-98390021D01*
X134841978Y-98399524D01*
X134882936Y-98410500D01*
X134882938Y-98410500D01*
X134962064Y-98410500D01*
X134988730Y-98403354D01*
X135038489Y-98390021D01*
X135107011Y-98350460D01*
X135162960Y-98294511D01*
X135202521Y-98225989D01*
X135223000Y-98149562D01*
X135223000Y-98070438D01*
X135223000Y-98070436D01*
X135214343Y-98038134D01*
X135202521Y-97994011D01*
X135202520Y-97994009D01*
X135202520Y-97994008D01*
X135162959Y-97925488D01*
X135107011Y-97869540D01*
X135038490Y-97829979D01*
X134962064Y-97809500D01*
X134962062Y-97809500D01*
X134882938Y-97809500D01*
X134882936Y-97809500D01*
X134806510Y-97829979D01*
X134806508Y-97829979D01*
X134737988Y-97869540D01*
X134737988Y-97869541D01*
X134682041Y-97925488D01*
X134682040Y-97925488D01*
X134642479Y-97994008D01*
X134642479Y-97994010D01*
X134622000Y-98070436D01*
X127200500Y-98070436D01*
X127200500Y-96981152D01*
X148329500Y-96981152D01*
X148329500Y-97138847D01*
X148360260Y-97293487D01*
X148360263Y-97293497D01*
X148420606Y-97439179D01*
X148508211Y-97570289D01*
X148619711Y-97681789D01*
X148750821Y-97769394D01*
X148896503Y-97829737D01*
X148896509Y-97829738D01*
X148896512Y-97829739D01*
X149051152Y-97860499D01*
X149051158Y-97860500D01*
X149208842Y-97860500D01*
X149363497Y-97829737D01*
X149509179Y-97769394D01*
X149640289Y-97681789D01*
X149751789Y-97570289D01*
X149839394Y-97439179D01*
X149899737Y-97293497D01*
X149930500Y-97138842D01*
X149930500Y-96981158D01*
X149899737Y-96826503D01*
X149839394Y-96680821D01*
X149751789Y-96549711D01*
X149640289Y-96438211D01*
X149509179Y-96350606D01*
X149509176Y-96350604D01*
X149509175Y-96350604D01*
X149507946Y-96350095D01*
X150329500Y-96350095D01*
X150329500Y-97769894D01*
X150329501Y-97769898D01*
X150335331Y-97799213D01*
X150335331Y-97799214D01*
X150335332Y-97799215D01*
X150335332Y-97799216D01*
X150355727Y-97829739D01*
X150357543Y-97832457D01*
X150390787Y-97854669D01*
X150420101Y-97860500D01*
X151839898Y-97860499D01*
X151869213Y-97854669D01*
X151902457Y-97832457D01*
X151924669Y-97799213D01*
X151930500Y-97769899D01*
X151930499Y-96480436D01*
X153369500Y-96480436D01*
X153369500Y-96559563D01*
X153389979Y-96635989D01*
X153389979Y-96635991D01*
X153415864Y-96680824D01*
X153429540Y-96704511D01*
X153485489Y-96760460D01*
X153554011Y-96800021D01*
X153589478Y-96809524D01*
X153630436Y-96820500D01*
X153630438Y-96820500D01*
X153709564Y-96820500D01*
X153736230Y-96813354D01*
X153785989Y-96800021D01*
X153854511Y-96760460D01*
X153910460Y-96704511D01*
X153950021Y-96635989D01*
X153970500Y-96559562D01*
X153970500Y-96480438D01*
X153970500Y-96480436D01*
X153959185Y-96438210D01*
X153950021Y-96404011D01*
X153950020Y-96404009D01*
X153950020Y-96404008D01*
X153919188Y-96350606D01*
X153910460Y-96335489D01*
X153854511Y-96279540D01*
X153829902Y-96265332D01*
X153785990Y-96239979D01*
X153709564Y-96219500D01*
X153709562Y-96219500D01*
X153630438Y-96219500D01*
X153630436Y-96219500D01*
X153554010Y-96239979D01*
X153554008Y-96239979D01*
X153485488Y-96279540D01*
X153485488Y-96279541D01*
X153429541Y-96335488D01*
X153429540Y-96335488D01*
X153389979Y-96404008D01*
X153389979Y-96404010D01*
X153369500Y-96480436D01*
X151930499Y-96480436D01*
X151930499Y-96350102D01*
X151924669Y-96320787D01*
X151924667Y-96320784D01*
X151924667Y-96320783D01*
X151902457Y-96287543D01*
X151869212Y-96265330D01*
X151839901Y-96259500D01*
X150420105Y-96259500D01*
X150420104Y-96259500D01*
X150420102Y-96259501D01*
X150390787Y-96265331D01*
X150390786Y-96265331D01*
X150390784Y-96265332D01*
X150390783Y-96265332D01*
X150357543Y-96287542D01*
X150335330Y-96320786D01*
X150335330Y-96320787D01*
X150329500Y-96350095D01*
X149507946Y-96350095D01*
X149363498Y-96290263D01*
X149363487Y-96290260D01*
X149208847Y-96259500D01*
X149208842Y-96259500D01*
X149051158Y-96259500D01*
X149051152Y-96259500D01*
X148896512Y-96290260D01*
X148896501Y-96290263D01*
X148750824Y-96350604D01*
X148619711Y-96438210D01*
X148508210Y-96549711D01*
X148420604Y-96680824D01*
X148360263Y-96826501D01*
X148360260Y-96826512D01*
X148329500Y-96981152D01*
X127200500Y-96981152D01*
X127200500Y-95210436D01*
X145049500Y-95210436D01*
X145049500Y-95289563D01*
X145069979Y-95365989D01*
X145069979Y-95365991D01*
X145109540Y-95434511D01*
X145165489Y-95490460D01*
X145234011Y-95530021D01*
X145269478Y-95539524D01*
X145310436Y-95550500D01*
X145310438Y-95550500D01*
X145389564Y-95550500D01*
X145416230Y-95543354D01*
X145465989Y-95530021D01*
X145534511Y-95490460D01*
X145590460Y-95434511D01*
X145630021Y-95365989D01*
X145650500Y-95289562D01*
X145650500Y-95210438D01*
X145650500Y-95210436D01*
X145641843Y-95178134D01*
X145630021Y-95134011D01*
X145630020Y-95134009D01*
X145630020Y-95134008D01*
X145590459Y-95065488D01*
X145534511Y-95009540D01*
X145465990Y-94969979D01*
X145389564Y-94949500D01*
X145389562Y-94949500D01*
X145310438Y-94949500D01*
X145310436Y-94949500D01*
X145234010Y-94969979D01*
X145234008Y-94969979D01*
X145165488Y-95009540D01*
X145165488Y-95009541D01*
X145109541Y-95065488D01*
X145109540Y-95065488D01*
X145069979Y-95134008D01*
X145069979Y-95134010D01*
X145049500Y-95210436D01*
X127200500Y-95210436D01*
X127200500Y-92624721D01*
X129978829Y-92624721D01*
X130002625Y-92633598D01*
X130002629Y-92633599D01*
X130062165Y-92640000D01*
X131557835Y-92640000D01*
X131617370Y-92633599D01*
X131617374Y-92633598D01*
X131641170Y-92624722D01*
X131641169Y-92624721D01*
X160458829Y-92624721D01*
X160482625Y-92633598D01*
X160482629Y-92633599D01*
X160542165Y-92640000D01*
X162037835Y-92640000D01*
X162097370Y-92633599D01*
X162097374Y-92633598D01*
X162121170Y-92624722D01*
X161290000Y-91793552D01*
X160458829Y-92624721D01*
X131641169Y-92624721D01*
X130810000Y-91793552D01*
X129978829Y-92624721D01*
X127200500Y-92624721D01*
X127200500Y-90692165D01*
X129610000Y-90692165D01*
X129610000Y-92187834D01*
X129616401Y-92247376D01*
X129625276Y-92271169D01*
X129625276Y-92271170D01*
X130456448Y-91440000D01*
X130456448Y-91439999D01*
X130410371Y-91393922D01*
X130460000Y-91393922D01*
X130460000Y-91486078D01*
X130483852Y-91575095D01*
X130529930Y-91654905D01*
X130595095Y-91720070D01*
X130674905Y-91766148D01*
X130763922Y-91790000D01*
X130856078Y-91790000D01*
X130945095Y-91766148D01*
X131024905Y-91720070D01*
X131090070Y-91654905D01*
X131136148Y-91575095D01*
X131160000Y-91486078D01*
X131160000Y-91439999D01*
X131163552Y-91439999D01*
X131163552Y-91440000D01*
X131994722Y-92271170D01*
X132003598Y-92247374D01*
X132003599Y-92247370D01*
X132010000Y-92187834D01*
X132010000Y-91360939D01*
X136559500Y-91360939D01*
X136559500Y-91519060D01*
X136600422Y-91671782D01*
X136600423Y-91671786D01*
X136679475Y-91808709D01*
X136679478Y-91808713D01*
X136679480Y-91808716D01*
X136791284Y-91920520D01*
X136791287Y-91920521D01*
X136791290Y-91920524D01*
X136928213Y-91999576D01*
X136928215Y-91999576D01*
X136928216Y-91999577D01*
X137048665Y-92031851D01*
X137080939Y-92040499D01*
X137080940Y-92040500D01*
X137080943Y-92040500D01*
X137239060Y-92040500D01*
X137239060Y-92040499D01*
X137257955Y-92035436D01*
X141532000Y-92035436D01*
X141532000Y-92114563D01*
X141552479Y-92190989D01*
X141552479Y-92190991D01*
X141585030Y-92247370D01*
X141592040Y-92259511D01*
X141647989Y-92315460D01*
X141716511Y-92355021D01*
X141751978Y-92364524D01*
X141792936Y-92375500D01*
X141792938Y-92375500D01*
X141872064Y-92375500D01*
X141898730Y-92368354D01*
X141948489Y-92355021D01*
X142017011Y-92315460D01*
X142072960Y-92259511D01*
X142112521Y-92190989D01*
X142133000Y-92114562D01*
X142133000Y-92035438D01*
X142133000Y-92035436D01*
X145342000Y-92035436D01*
X145342000Y-92114563D01*
X145362479Y-92190989D01*
X145362479Y-92190991D01*
X145395030Y-92247370D01*
X145402040Y-92259511D01*
X145457989Y-92315460D01*
X145526511Y-92355021D01*
X145561978Y-92364524D01*
X145602936Y-92375500D01*
X145602938Y-92375500D01*
X145682064Y-92375500D01*
X145708730Y-92368354D01*
X145758489Y-92355021D01*
X145827011Y-92315460D01*
X145839899Y-92302572D01*
X149350978Y-92302572D01*
X149386324Y-92326190D01*
X149568310Y-92401570D01*
X149761512Y-92440000D01*
X149958488Y-92440000D01*
X150151689Y-92401570D01*
X150151690Y-92401570D01*
X150333672Y-92326191D01*
X150369019Y-92302572D01*
X149860000Y-91793553D01*
X149350978Y-92302572D01*
X145839899Y-92302572D01*
X145882960Y-92259511D01*
X145922521Y-92190989D01*
X145943000Y-92114562D01*
X145943000Y-92035438D01*
X145943000Y-92035436D01*
X145930768Y-91989789D01*
X145922521Y-91959011D01*
X145922520Y-91959009D01*
X145922520Y-91959008D01*
X145882959Y-91890488D01*
X145827011Y-91834540D01*
X145758490Y-91794979D01*
X145682064Y-91774500D01*
X145682062Y-91774500D01*
X145602938Y-91774500D01*
X145602936Y-91774500D01*
X145526510Y-91794979D01*
X145526508Y-91794979D01*
X145457988Y-91834540D01*
X145457988Y-91834541D01*
X145402041Y-91890488D01*
X145402040Y-91890488D01*
X145362479Y-91959008D01*
X145362479Y-91959010D01*
X145342000Y-92035436D01*
X142133000Y-92035436D01*
X142120768Y-91989789D01*
X142112521Y-91959011D01*
X142112520Y-91959009D01*
X142112520Y-91959008D01*
X142072959Y-91890488D01*
X142017011Y-91834540D01*
X141948490Y-91794979D01*
X141872064Y-91774500D01*
X141872062Y-91774500D01*
X141792938Y-91774500D01*
X141792936Y-91774500D01*
X141716510Y-91794979D01*
X141716508Y-91794979D01*
X141647988Y-91834540D01*
X141647988Y-91834541D01*
X141592041Y-91890488D01*
X141592040Y-91890488D01*
X141552479Y-91959008D01*
X141552479Y-91959010D01*
X141532000Y-92035436D01*
X137257955Y-92035436D01*
X137391784Y-91999577D01*
X137408736Y-91989789D01*
X137408738Y-91989789D01*
X137528709Y-91920524D01*
X137528708Y-91920524D01*
X137528716Y-91920520D01*
X137640520Y-91808716D01*
X137719577Y-91671784D01*
X137760499Y-91519060D01*
X137760500Y-91519060D01*
X137760500Y-91360942D01*
X137758046Y-91351783D01*
X137758046Y-91351781D01*
X137755294Y-91341512D01*
X148860000Y-91341512D01*
X148860000Y-91538487D01*
X148898429Y-91731689D01*
X148898429Y-91731690D01*
X148973810Y-91913677D01*
X148997426Y-91949020D01*
X149506446Y-91440000D01*
X149506446Y-91439999D01*
X149456719Y-91390272D01*
X149610000Y-91390272D01*
X149610000Y-91489728D01*
X149648060Y-91581614D01*
X149718386Y-91651940D01*
X149810272Y-91690000D01*
X149909728Y-91690000D01*
X150001614Y-91651940D01*
X150071940Y-91581614D01*
X150110000Y-91489728D01*
X150110000Y-91439999D01*
X150213553Y-91439999D01*
X150213553Y-91440000D01*
X150722572Y-91949019D01*
X150746191Y-91913672D01*
X150821570Y-91731690D01*
X150821570Y-91731689D01*
X150860000Y-91538487D01*
X150860000Y-91360939D01*
X154339500Y-91360939D01*
X154339500Y-91519060D01*
X154380422Y-91671782D01*
X154380423Y-91671786D01*
X154459475Y-91808709D01*
X154459478Y-91808713D01*
X154459480Y-91808716D01*
X154571284Y-91920520D01*
X154571287Y-91920521D01*
X154571290Y-91920524D01*
X154708213Y-91999576D01*
X154708215Y-91999576D01*
X154708216Y-91999577D01*
X154828665Y-92031851D01*
X154860939Y-92040499D01*
X154860940Y-92040500D01*
X154860943Y-92040500D01*
X155019060Y-92040500D01*
X155019060Y-92040499D01*
X155171784Y-91999577D01*
X155188738Y-91989789D01*
X155308709Y-91920524D01*
X155308708Y-91920524D01*
X155308716Y-91920520D01*
X155420520Y-91808716D01*
X155499577Y-91671784D01*
X155540499Y-91519060D01*
X155540500Y-91519060D01*
X155540500Y-91360940D01*
X155540499Y-91360939D01*
X155504894Y-91228060D01*
X155499577Y-91208216D01*
X155499576Y-91208215D01*
X155499576Y-91208213D01*
X155420524Y-91071290D01*
X155420521Y-91071287D01*
X155420520Y-91071284D01*
X155308716Y-90959480D01*
X155308713Y-90959478D01*
X155308709Y-90959475D01*
X155171786Y-90880423D01*
X155171782Y-90880422D01*
X155019060Y-90839500D01*
X155019057Y-90839500D01*
X154860943Y-90839500D01*
X154860940Y-90839500D01*
X154708217Y-90880422D01*
X154708213Y-90880423D01*
X154571290Y-90959475D01*
X154571281Y-90959482D01*
X154459482Y-91071281D01*
X154459475Y-91071290D01*
X154380423Y-91208213D01*
X154380422Y-91208217D01*
X154339500Y-91360939D01*
X150860000Y-91360939D01*
X150860000Y-91341512D01*
X150821570Y-91148310D01*
X150821570Y-91148309D01*
X150746190Y-90966324D01*
X150722572Y-90930978D01*
X150213553Y-91439999D01*
X150110000Y-91439999D01*
X150110000Y-91390272D01*
X150071940Y-91298386D01*
X150001614Y-91228060D01*
X149909728Y-91190000D01*
X149810272Y-91190000D01*
X149718386Y-91228060D01*
X149648060Y-91298386D01*
X149610000Y-91390272D01*
X149456719Y-91390272D01*
X148997426Y-90930979D01*
X148997425Y-90930979D01*
X148973810Y-90966321D01*
X148898429Y-91148309D01*
X148898429Y-91148310D01*
X148860000Y-91341512D01*
X137755294Y-91341512D01*
X137719577Y-91208217D01*
X137719576Y-91208213D01*
X137640524Y-91071290D01*
X137640521Y-91071287D01*
X137640520Y-91071284D01*
X137528716Y-90959480D01*
X137528713Y-90959478D01*
X137528709Y-90959475D01*
X137391786Y-90880423D01*
X137391782Y-90880422D01*
X137239060Y-90839500D01*
X137239057Y-90839500D01*
X137080943Y-90839500D01*
X137080940Y-90839500D01*
X136928217Y-90880422D01*
X136928213Y-90880423D01*
X136791290Y-90959475D01*
X136791281Y-90959482D01*
X136679482Y-91071281D01*
X136679475Y-91071290D01*
X136600423Y-91208213D01*
X136600422Y-91208217D01*
X136559500Y-91360939D01*
X132010000Y-91360939D01*
X132010000Y-90692165D01*
X132003599Y-90632629D01*
X132003597Y-90632622D01*
X131996208Y-90612811D01*
X131994721Y-90608828D01*
X131163552Y-91439999D01*
X131160000Y-91439999D01*
X131160000Y-91393922D01*
X131136148Y-91304905D01*
X131090070Y-91225095D01*
X131024905Y-91159930D01*
X130945095Y-91113852D01*
X130856078Y-91090000D01*
X130763922Y-91090000D01*
X130674905Y-91113852D01*
X130595095Y-91159930D01*
X130529930Y-91225095D01*
X130483852Y-91304905D01*
X130460000Y-91393922D01*
X130410371Y-91393922D01*
X129625277Y-90608828D01*
X129625276Y-90608828D01*
X129616403Y-90632619D01*
X129616401Y-90632627D01*
X129610000Y-90692165D01*
X127200500Y-90692165D01*
X127200500Y-90255276D01*
X129978828Y-90255276D01*
X129978828Y-90255277D01*
X130809999Y-91086448D01*
X131319021Y-90577425D01*
X149350979Y-90577425D01*
X149350979Y-90577426D01*
X149859999Y-91086446D01*
X150254282Y-90692165D01*
X160090000Y-90692165D01*
X160090000Y-92187834D01*
X160096401Y-92247376D01*
X160105276Y-92271169D01*
X160105276Y-92271170D01*
X160936448Y-91440000D01*
X160936448Y-91439999D01*
X160890371Y-91393922D01*
X160940000Y-91393922D01*
X160940000Y-91486078D01*
X160963852Y-91575095D01*
X161009930Y-91654905D01*
X161075095Y-91720070D01*
X161154905Y-91766148D01*
X161243922Y-91790000D01*
X161336078Y-91790000D01*
X161425095Y-91766148D01*
X161504905Y-91720070D01*
X161570070Y-91654905D01*
X161616148Y-91575095D01*
X161640000Y-91486078D01*
X161640000Y-91439999D01*
X161643552Y-91439999D01*
X161643552Y-91440000D01*
X162474722Y-92271170D01*
X162483598Y-92247374D01*
X162483599Y-92247370D01*
X162490000Y-92187834D01*
X162490000Y-90692165D01*
X162483599Y-90632629D01*
X162483598Y-90632625D01*
X162474721Y-90608829D01*
X161643552Y-91439999D01*
X161640000Y-91439999D01*
X161640000Y-91393922D01*
X161616148Y-91304905D01*
X161570070Y-91225095D01*
X161504905Y-91159930D01*
X161425095Y-91113852D01*
X161336078Y-91090000D01*
X161243922Y-91090000D01*
X161154905Y-91113852D01*
X161075095Y-91159930D01*
X161009930Y-91225095D01*
X160963852Y-91304905D01*
X160940000Y-91393922D01*
X160890371Y-91393922D01*
X160105277Y-90608828D01*
X160105276Y-90608828D01*
X160096403Y-90632619D01*
X160096401Y-90632627D01*
X160090000Y-90692165D01*
X150254282Y-90692165D01*
X150290235Y-90656212D01*
X150369020Y-90577426D01*
X150333677Y-90553810D01*
X150151689Y-90478429D01*
X149958488Y-90440000D01*
X149761512Y-90440000D01*
X149568310Y-90478429D01*
X149568309Y-90478429D01*
X149386321Y-90553810D01*
X149350979Y-90577425D01*
X131319021Y-90577425D01*
X131641170Y-90255276D01*
X160458828Y-90255276D01*
X160458828Y-90255277D01*
X161289999Y-91086448D01*
X162121170Y-90255276D01*
X162097375Y-90246401D01*
X162097376Y-90246401D01*
X162037835Y-90240000D01*
X160542166Y-90240000D01*
X160482627Y-90246401D01*
X160482619Y-90246403D01*
X160458828Y-90255276D01*
X131641170Y-90255276D01*
X131617375Y-90246401D01*
X131617376Y-90246401D01*
X131557835Y-90240000D01*
X130062166Y-90240000D01*
X130002627Y-90246401D01*
X130002619Y-90246403D01*
X129978828Y-90255276D01*
X127200500Y-90255276D01*
X127200500Y-88821152D01*
X130009500Y-88821152D01*
X130009500Y-88978847D01*
X130040260Y-89133487D01*
X130040263Y-89133498D01*
X130068016Y-89200500D01*
X130100606Y-89279179D01*
X130188211Y-89410289D01*
X130299711Y-89521789D01*
X130430821Y-89609394D01*
X130576503Y-89669737D01*
X130576509Y-89669738D01*
X130576512Y-89669739D01*
X130731152Y-89700499D01*
X130731158Y-89700500D01*
X130888842Y-89700500D01*
X131043497Y-89669737D01*
X131189179Y-89609394D01*
X131320289Y-89521789D01*
X131431789Y-89410289D01*
X131519394Y-89279179D01*
X131579737Y-89133497D01*
X131610500Y-88978842D01*
X131610500Y-88860436D01*
X140669500Y-88860436D01*
X140669500Y-88939563D01*
X140689979Y-89015989D01*
X140689979Y-89015991D01*
X140729540Y-89084511D01*
X140785489Y-89140460D01*
X140854011Y-89180021D01*
X140889478Y-89189524D01*
X140930436Y-89200500D01*
X140930438Y-89200500D01*
X141009564Y-89200500D01*
X141036230Y-89193354D01*
X141085989Y-89180021D01*
X141154511Y-89140460D01*
X141210460Y-89084511D01*
X141250021Y-89015989D01*
X141270500Y-88939562D01*
X141270500Y-88860438D01*
X141270500Y-88860436D01*
X153369500Y-88860436D01*
X153369500Y-88939563D01*
X153389979Y-89015989D01*
X153389979Y-89015991D01*
X153429540Y-89084511D01*
X153485489Y-89140460D01*
X153554011Y-89180021D01*
X153589478Y-89189524D01*
X153630436Y-89200500D01*
X153630438Y-89200500D01*
X153709564Y-89200500D01*
X153736230Y-89193354D01*
X153785989Y-89180021D01*
X153854511Y-89140460D01*
X153910460Y-89084511D01*
X153950021Y-89015989D01*
X153970500Y-88939562D01*
X153970500Y-88860438D01*
X153970500Y-88860435D01*
X153970499Y-88860434D01*
X153962729Y-88831433D01*
X153959974Y-88821152D01*
X160489500Y-88821152D01*
X160489500Y-88978847D01*
X160520260Y-89133487D01*
X160520263Y-89133498D01*
X160548016Y-89200500D01*
X160580606Y-89279179D01*
X160668211Y-89410289D01*
X160779711Y-89521789D01*
X160910821Y-89609394D01*
X161056503Y-89669737D01*
X161056509Y-89669738D01*
X161056512Y-89669739D01*
X161211152Y-89700499D01*
X161211158Y-89700500D01*
X161368842Y-89700500D01*
X161523497Y-89669737D01*
X161669179Y-89609394D01*
X161800289Y-89521789D01*
X161911789Y-89410289D01*
X161999394Y-89279179D01*
X162059737Y-89133497D01*
X162090500Y-88978842D01*
X162090500Y-88821158D01*
X162083111Y-88784010D01*
X162059739Y-88666512D01*
X162059736Y-88666501D01*
X162040466Y-88619979D01*
X161999394Y-88520821D01*
X161911789Y-88389711D01*
X161800289Y-88278211D01*
X161669179Y-88190606D01*
X161669176Y-88190604D01*
X161669175Y-88190604D01*
X161523498Y-88130263D01*
X161523487Y-88130260D01*
X161368847Y-88099500D01*
X161368842Y-88099500D01*
X161211158Y-88099500D01*
X161211152Y-88099500D01*
X161056512Y-88130260D01*
X161056501Y-88130263D01*
X160910824Y-88190604D01*
X160779711Y-88278210D01*
X160668210Y-88389711D01*
X160580604Y-88520824D01*
X160520263Y-88666501D01*
X160520260Y-88666512D01*
X160489500Y-88821152D01*
X153959974Y-88821152D01*
X153955282Y-88803645D01*
X153950021Y-88784011D01*
X153950020Y-88784009D01*
X153950020Y-88784008D01*
X153910459Y-88715488D01*
X153854511Y-88659540D01*
X153785990Y-88619979D01*
X153709564Y-88599500D01*
X153709562Y-88599500D01*
X153630438Y-88599500D01*
X153630436Y-88599500D01*
X153554010Y-88619979D01*
X153554008Y-88619979D01*
X153485488Y-88659540D01*
X153485488Y-88659541D01*
X153429541Y-88715488D01*
X153429540Y-88715488D01*
X153389979Y-88784008D01*
X153389979Y-88784010D01*
X153369500Y-88860436D01*
X141270500Y-88860436D01*
X141259973Y-88821152D01*
X141250021Y-88784011D01*
X141250020Y-88784009D01*
X141250020Y-88784008D01*
X141210459Y-88715488D01*
X141154511Y-88659540D01*
X141085990Y-88619979D01*
X141009564Y-88599500D01*
X141009562Y-88599500D01*
X140930438Y-88599500D01*
X140930436Y-88599500D01*
X140854010Y-88619979D01*
X140854008Y-88619979D01*
X140785488Y-88659540D01*
X140785488Y-88659541D01*
X140729541Y-88715488D01*
X140729540Y-88715488D01*
X140689979Y-88784008D01*
X140689979Y-88784010D01*
X140669500Y-88860436D01*
X131610500Y-88860436D01*
X131610500Y-88821158D01*
X131603111Y-88784010D01*
X131579739Y-88666512D01*
X131579736Y-88666501D01*
X131560466Y-88619979D01*
X131519394Y-88520821D01*
X131431789Y-88389711D01*
X131320289Y-88278211D01*
X131189179Y-88190606D01*
X131189176Y-88190604D01*
X131189175Y-88190604D01*
X131043498Y-88130263D01*
X131043487Y-88130260D01*
X130888847Y-88099500D01*
X130888842Y-88099500D01*
X130731158Y-88099500D01*
X130731152Y-88099500D01*
X130576512Y-88130260D01*
X130576501Y-88130263D01*
X130430824Y-88190604D01*
X130299711Y-88278210D01*
X130188210Y-88389711D01*
X130100604Y-88520824D01*
X130040263Y-88666501D01*
X130040260Y-88666512D01*
X130009500Y-88821152D01*
X127200500Y-88821152D01*
X127200500Y-86281152D01*
X130009500Y-86281152D01*
X130009500Y-86438847D01*
X130040260Y-86593487D01*
X130040263Y-86593498D01*
X130094551Y-86724562D01*
X130100606Y-86739179D01*
X130141906Y-86800989D01*
X130187691Y-86869512D01*
X130188211Y-86870289D01*
X130299711Y-86981789D01*
X130430821Y-87069394D01*
X130576503Y-87129737D01*
X130576509Y-87129738D01*
X130576512Y-87129739D01*
X130731152Y-87160499D01*
X130731158Y-87160500D01*
X130888842Y-87160500D01*
X131043497Y-87129737D01*
X131189179Y-87069394D01*
X131320289Y-86981789D01*
X131431789Y-86870289D01*
X131519394Y-86739179D01*
X131579737Y-86593497D01*
X131610500Y-86438842D01*
X131610500Y-86281158D01*
X131610500Y-86281155D01*
X131610457Y-86280939D01*
X136559500Y-86280939D01*
X136559500Y-86439060D01*
X136600422Y-86591782D01*
X136600423Y-86591786D01*
X136679475Y-86728709D01*
X136679478Y-86728713D01*
X136679480Y-86728716D01*
X136791284Y-86840520D01*
X136791287Y-86840521D01*
X136791290Y-86840524D01*
X136928213Y-86919576D01*
X136928215Y-86919576D01*
X136928216Y-86919577D01*
X137048665Y-86951851D01*
X137080939Y-86960499D01*
X137080940Y-86960500D01*
X137080943Y-86960500D01*
X137239060Y-86960500D01*
X137239060Y-86960499D01*
X137391784Y-86919577D01*
X137528716Y-86840520D01*
X137640520Y-86728716D01*
X137688600Y-86645438D01*
X137688601Y-86645436D01*
X147862000Y-86645436D01*
X147862000Y-86724563D01*
X147882479Y-86800989D01*
X147882479Y-86800991D01*
X147905300Y-86840517D01*
X147922040Y-86869511D01*
X147977989Y-86925460D01*
X148028149Y-86954420D01*
X148038678Y-86960499D01*
X148046511Y-86965021D01*
X148081978Y-86974524D01*
X148122936Y-86985500D01*
X148122938Y-86985500D01*
X148202064Y-86985500D01*
X148228730Y-86978354D01*
X148278489Y-86965021D01*
X148347011Y-86925460D01*
X148402960Y-86869511D01*
X148442521Y-86800989D01*
X148459084Y-86739175D01*
X148463000Y-86724563D01*
X148463000Y-86645436D01*
X148449079Y-86593487D01*
X148442521Y-86569011D01*
X148442520Y-86569009D01*
X148442520Y-86569008D01*
X148402959Y-86500488D01*
X148347011Y-86444540D01*
X148278490Y-86404979D01*
X148202064Y-86384500D01*
X148202062Y-86384500D01*
X148122938Y-86384500D01*
X148122936Y-86384500D01*
X148046510Y-86404979D01*
X148046508Y-86404979D01*
X147977988Y-86444540D01*
X147977988Y-86444541D01*
X147922041Y-86500488D01*
X147922040Y-86500488D01*
X147882479Y-86569008D01*
X147882479Y-86569010D01*
X147862000Y-86645436D01*
X137688601Y-86645436D01*
X137704600Y-86617726D01*
X137719576Y-86591786D01*
X137719576Y-86591785D01*
X137719577Y-86591784D01*
X137760499Y-86439060D01*
X137760500Y-86439060D01*
X137760500Y-86280940D01*
X137760499Y-86280939D01*
X137744039Y-86219511D01*
X137719577Y-86128216D01*
X137719576Y-86128215D01*
X137719576Y-86128213D01*
X137655209Y-86016726D01*
X137655208Y-86016725D01*
X137642917Y-85995436D01*
X143637000Y-85995436D01*
X143637000Y-86074563D01*
X143657479Y-86150989D01*
X143657479Y-86150991D01*
X143697040Y-86219511D01*
X143752989Y-86275460D01*
X143821511Y-86315021D01*
X143856978Y-86324524D01*
X143897936Y-86335500D01*
X143897938Y-86335500D01*
X143977064Y-86335500D01*
X144003730Y-86328354D01*
X144053489Y-86315021D01*
X144112521Y-86280939D01*
X154339500Y-86280939D01*
X154339500Y-86439060D01*
X154380422Y-86591782D01*
X154380423Y-86591786D01*
X154459475Y-86728709D01*
X154459478Y-86728713D01*
X154459480Y-86728716D01*
X154571284Y-86840520D01*
X154571287Y-86840521D01*
X154571290Y-86840524D01*
X154708213Y-86919576D01*
X154708215Y-86919576D01*
X154708216Y-86919577D01*
X154828665Y-86951851D01*
X154860939Y-86960499D01*
X154860940Y-86960500D01*
X154860943Y-86960500D01*
X155019060Y-86960500D01*
X155019060Y-86960499D01*
X155171784Y-86919577D01*
X155308716Y-86840520D01*
X155420520Y-86728716D01*
X155484600Y-86617726D01*
X155499576Y-86591786D01*
X155499576Y-86591785D01*
X155499577Y-86591784D01*
X155540499Y-86439060D01*
X155540500Y-86439060D01*
X155540500Y-86281152D01*
X160489500Y-86281152D01*
X160489500Y-86438847D01*
X160520260Y-86593487D01*
X160520263Y-86593498D01*
X160574551Y-86724562D01*
X160580606Y-86739179D01*
X160621906Y-86800989D01*
X160667691Y-86869512D01*
X160668211Y-86870289D01*
X160779711Y-86981789D01*
X160910821Y-87069394D01*
X161056503Y-87129737D01*
X161056509Y-87129738D01*
X161056512Y-87129739D01*
X161211152Y-87160499D01*
X161211158Y-87160500D01*
X161368842Y-87160500D01*
X161523497Y-87129737D01*
X161669179Y-87069394D01*
X161800289Y-86981789D01*
X161911789Y-86870289D01*
X161999394Y-86739179D01*
X162059737Y-86593497D01*
X162090500Y-86438842D01*
X162090500Y-86281158D01*
X162090499Y-86281152D01*
X162059739Y-86126512D01*
X162059736Y-86126501D01*
X162014266Y-86016725D01*
X161999394Y-85980821D01*
X161911789Y-85849711D01*
X161800289Y-85738211D01*
X161794735Y-85734500D01*
X161756978Y-85709271D01*
X161669179Y-85650606D01*
X161669176Y-85650604D01*
X161669175Y-85650604D01*
X161523498Y-85590263D01*
X161523487Y-85590260D01*
X161368847Y-85559500D01*
X161368842Y-85559500D01*
X161211158Y-85559500D01*
X161211152Y-85559500D01*
X161056512Y-85590260D01*
X161056501Y-85590263D01*
X160910824Y-85650604D01*
X160779711Y-85738210D01*
X160668210Y-85849711D01*
X160580604Y-85980824D01*
X160520263Y-86126501D01*
X160520260Y-86126512D01*
X160489500Y-86281152D01*
X155540500Y-86281152D01*
X155540500Y-86280940D01*
X155540499Y-86280939D01*
X155524039Y-86219511D01*
X155499577Y-86128216D01*
X155499576Y-86128215D01*
X155499576Y-86128213D01*
X155420524Y-85991290D01*
X155420521Y-85991287D01*
X155420520Y-85991284D01*
X155308716Y-85879480D01*
X155308713Y-85879478D01*
X155308709Y-85879475D01*
X155171786Y-85800423D01*
X155171782Y-85800422D01*
X155019060Y-85759500D01*
X155019057Y-85759500D01*
X154860943Y-85759500D01*
X154860940Y-85759500D01*
X154708217Y-85800422D01*
X154708213Y-85800423D01*
X154571290Y-85879475D01*
X154571281Y-85879482D01*
X154459482Y-85991281D01*
X154459475Y-85991290D01*
X154380423Y-86128213D01*
X154380422Y-86128217D01*
X154339500Y-86280939D01*
X144112521Y-86280939D01*
X144122011Y-86275460D01*
X144177960Y-86219511D01*
X144217521Y-86150989D01*
X144238000Y-86074562D01*
X144238000Y-85995438D01*
X144238000Y-85995436D01*
X144229343Y-85963134D01*
X144217521Y-85919011D01*
X144217520Y-85919009D01*
X144217520Y-85919008D01*
X144177959Y-85850488D01*
X144122011Y-85794540D01*
X144053490Y-85754979D01*
X143977064Y-85734500D01*
X143977062Y-85734500D01*
X143897938Y-85734500D01*
X143897936Y-85734500D01*
X143821510Y-85754979D01*
X143821508Y-85754979D01*
X143752988Y-85794540D01*
X143752988Y-85794541D01*
X143697041Y-85850488D01*
X143697040Y-85850488D01*
X143657479Y-85919008D01*
X143657479Y-85919010D01*
X143637000Y-85995436D01*
X137642917Y-85995436D01*
X137640522Y-85991287D01*
X137640517Y-85991281D01*
X137528718Y-85879482D01*
X137528716Y-85879480D01*
X137528713Y-85879478D01*
X137528709Y-85879475D01*
X137391786Y-85800423D01*
X137391782Y-85800422D01*
X137239060Y-85759500D01*
X137239057Y-85759500D01*
X137080943Y-85759500D01*
X137080940Y-85759500D01*
X136928217Y-85800422D01*
X136928213Y-85800423D01*
X136791290Y-85879475D01*
X136791281Y-85879482D01*
X136679482Y-85991281D01*
X136679475Y-85991290D01*
X136600423Y-86128213D01*
X136600422Y-86128217D01*
X136559500Y-86280939D01*
X131610457Y-86280939D01*
X131579739Y-86126512D01*
X131579736Y-86126501D01*
X131534266Y-86016725D01*
X131519394Y-85980821D01*
X131431789Y-85849711D01*
X131320289Y-85738211D01*
X131314735Y-85734500D01*
X131276978Y-85709271D01*
X131189179Y-85650606D01*
X131189176Y-85650604D01*
X131189175Y-85650604D01*
X131043498Y-85590263D01*
X131043487Y-85590260D01*
X130888847Y-85559500D01*
X130888842Y-85559500D01*
X130731158Y-85559500D01*
X130731152Y-85559500D01*
X130576512Y-85590260D01*
X130576501Y-85590263D01*
X130430824Y-85650604D01*
X130299711Y-85738210D01*
X130188210Y-85849711D01*
X130100604Y-85980824D01*
X130040263Y-86126501D01*
X130040260Y-86126512D01*
X130009500Y-86281152D01*
X127200500Y-86281152D01*
X127200500Y-85345436D01*
X147862000Y-85345436D01*
X147862000Y-85424563D01*
X147882479Y-85500989D01*
X147882479Y-85500991D01*
X147916260Y-85559500D01*
X147922040Y-85569511D01*
X147977989Y-85625460D01*
X148046511Y-85665021D01*
X148081978Y-85674524D01*
X148122936Y-85685500D01*
X148122938Y-85685500D01*
X148202064Y-85685500D01*
X148228730Y-85678354D01*
X148278489Y-85665021D01*
X148347011Y-85625460D01*
X148402960Y-85569511D01*
X148442521Y-85500989D01*
X148463000Y-85424562D01*
X148463000Y-85345438D01*
X148463000Y-85345436D01*
X148454343Y-85313134D01*
X148442521Y-85269011D01*
X148442520Y-85269009D01*
X148442520Y-85269008D01*
X148402959Y-85200488D01*
X148347011Y-85144540D01*
X148278490Y-85104979D01*
X148202064Y-85084500D01*
X148202062Y-85084500D01*
X148122938Y-85084500D01*
X148122936Y-85084500D01*
X148046510Y-85104979D01*
X148046508Y-85104979D01*
X147977988Y-85144540D01*
X147977988Y-85144541D01*
X147922041Y-85200488D01*
X147922040Y-85200488D01*
X147882479Y-85269008D01*
X147882479Y-85269010D01*
X147862000Y-85345436D01*
X127200500Y-85345436D01*
X127200500Y-83741152D01*
X130009500Y-83741152D01*
X130009500Y-83898847D01*
X130040260Y-84053487D01*
X130040263Y-84053497D01*
X130100606Y-84199179D01*
X130188211Y-84330289D01*
X130299711Y-84441789D01*
X130430821Y-84529394D01*
X130576503Y-84589737D01*
X130576509Y-84589738D01*
X130576512Y-84589739D01*
X130731152Y-84620499D01*
X130731158Y-84620500D01*
X130888842Y-84620500D01*
X131043497Y-84589737D01*
X131189179Y-84529394D01*
X131320289Y-84441789D01*
X131431789Y-84330289D01*
X131519394Y-84199179D01*
X131579737Y-84053497D01*
X131610500Y-83898842D01*
X131610500Y-83741158D01*
X131610499Y-83741152D01*
X160489500Y-83741152D01*
X160489500Y-83898847D01*
X160520260Y-84053487D01*
X160520263Y-84053497D01*
X160580606Y-84199179D01*
X160668211Y-84330289D01*
X160779711Y-84441789D01*
X160910821Y-84529394D01*
X161056503Y-84589737D01*
X161056509Y-84589738D01*
X161056512Y-84589739D01*
X161211152Y-84620499D01*
X161211158Y-84620500D01*
X161368842Y-84620500D01*
X161523497Y-84589737D01*
X161669179Y-84529394D01*
X161800289Y-84441789D01*
X161911789Y-84330289D01*
X161999394Y-84199179D01*
X162059737Y-84053497D01*
X162090500Y-83898842D01*
X162090500Y-83741158D01*
X162059737Y-83586503D01*
X161999394Y-83440821D01*
X161911789Y-83309711D01*
X161800289Y-83198211D01*
X161669179Y-83110606D01*
X161669176Y-83110604D01*
X161669175Y-83110604D01*
X161523498Y-83050263D01*
X161523487Y-83050260D01*
X161368847Y-83019500D01*
X161368842Y-83019500D01*
X161211158Y-83019500D01*
X161211152Y-83019500D01*
X161056512Y-83050260D01*
X161056501Y-83050263D01*
X160910824Y-83110604D01*
X160779711Y-83198210D01*
X160668210Y-83309711D01*
X160580604Y-83440824D01*
X160520263Y-83586501D01*
X160520260Y-83586512D01*
X160489500Y-83741152D01*
X131610499Y-83741152D01*
X131579737Y-83586503D01*
X131519394Y-83440821D01*
X131431789Y-83309711D01*
X131320289Y-83198211D01*
X131241306Y-83145436D01*
X146612000Y-83145436D01*
X146612000Y-83224563D01*
X146632479Y-83300989D01*
X146632479Y-83300991D01*
X146672040Y-83369511D01*
X146727989Y-83425460D01*
X146796511Y-83465021D01*
X146831978Y-83474524D01*
X146872936Y-83485500D01*
X146872938Y-83485500D01*
X146952064Y-83485500D01*
X146978730Y-83478354D01*
X147028489Y-83465021D01*
X147097011Y-83425460D01*
X147152960Y-83369511D01*
X147192521Y-83300989D01*
X147213000Y-83224562D01*
X147213000Y-83145438D01*
X147213000Y-83145436D01*
X147203666Y-83110604D01*
X147192521Y-83069011D01*
X147192520Y-83069009D01*
X147192520Y-83069008D01*
X147152959Y-83000488D01*
X147097011Y-82944540D01*
X147028490Y-82904979D01*
X146952064Y-82884500D01*
X146952062Y-82884500D01*
X146872938Y-82884500D01*
X146872936Y-82884500D01*
X146796510Y-82904979D01*
X146796508Y-82904979D01*
X146727988Y-82944540D01*
X146727988Y-82944541D01*
X146672041Y-83000488D01*
X146672040Y-83000488D01*
X146632479Y-83069008D01*
X146632479Y-83069010D01*
X146612000Y-83145436D01*
X131241306Y-83145436D01*
X131189179Y-83110606D01*
X131189176Y-83110604D01*
X131189175Y-83110604D01*
X131043498Y-83050263D01*
X131043487Y-83050260D01*
X130888847Y-83019500D01*
X130888842Y-83019500D01*
X130731158Y-83019500D01*
X130731152Y-83019500D01*
X130576512Y-83050260D01*
X130576501Y-83050263D01*
X130430824Y-83110604D01*
X130299711Y-83198210D01*
X130188210Y-83309711D01*
X130100604Y-83440824D01*
X130040263Y-83586501D01*
X130040260Y-83586512D01*
X130009500Y-83741152D01*
X127200500Y-83741152D01*
X127200500Y-81240436D01*
X140669500Y-81240436D01*
X140669500Y-81319563D01*
X140689979Y-81395989D01*
X140689979Y-81395991D01*
X140729540Y-81464511D01*
X140785489Y-81520460D01*
X140854011Y-81560021D01*
X140889478Y-81569524D01*
X140930436Y-81580500D01*
X140930438Y-81580500D01*
X141009564Y-81580500D01*
X141036230Y-81573354D01*
X141085989Y-81560021D01*
X141154511Y-81520460D01*
X141210460Y-81464511D01*
X141250021Y-81395989D01*
X141270500Y-81319562D01*
X141270500Y-81240438D01*
X141270500Y-81240436D01*
X153369500Y-81240436D01*
X153369500Y-81319563D01*
X153389979Y-81395989D01*
X153389979Y-81395991D01*
X153429540Y-81464511D01*
X153485489Y-81520460D01*
X153554011Y-81560021D01*
X153589478Y-81569524D01*
X153630436Y-81580500D01*
X153630438Y-81580500D01*
X153709564Y-81580500D01*
X153736230Y-81573354D01*
X153785989Y-81560021D01*
X153854511Y-81520460D01*
X153910460Y-81464511D01*
X153950021Y-81395989D01*
X153970500Y-81319562D01*
X153970500Y-81240438D01*
X153970500Y-81240436D01*
X153961843Y-81208134D01*
X153950021Y-81164011D01*
X153950020Y-81164009D01*
X153950020Y-81164008D01*
X153910459Y-81095488D01*
X153854511Y-81039540D01*
X153785990Y-80999979D01*
X153709564Y-80979500D01*
X153709562Y-80979500D01*
X153630438Y-80979500D01*
X153630436Y-80979500D01*
X153554010Y-80999979D01*
X153554008Y-80999979D01*
X153485488Y-81039540D01*
X153485488Y-81039541D01*
X153429541Y-81095488D01*
X153429540Y-81095488D01*
X153389979Y-81164008D01*
X153389979Y-81164010D01*
X153369500Y-81240436D01*
X141270500Y-81240436D01*
X141261843Y-81208134D01*
X141250021Y-81164011D01*
X141250020Y-81164009D01*
X141250020Y-81164008D01*
X141210459Y-81095488D01*
X141154511Y-81039540D01*
X141085990Y-80999979D01*
X141009564Y-80979500D01*
X141009562Y-80979500D01*
X140930438Y-80979500D01*
X140930436Y-80979500D01*
X140854010Y-80999979D01*
X140854008Y-80999979D01*
X140785488Y-81039540D01*
X140785488Y-81039541D01*
X140729541Y-81095488D01*
X140729540Y-81095488D01*
X140689979Y-81164008D01*
X140689979Y-81164010D01*
X140669500Y-81240436D01*
X127200500Y-81240436D01*
X127200500Y-78608880D01*
X127539500Y-78608880D01*
X127539500Y-78871120D01*
X127573730Y-79131116D01*
X127573731Y-79131120D01*
X127573732Y-79131127D01*
X127641599Y-79384412D01*
X127641602Y-79384419D01*
X127741957Y-79626697D01*
X127741959Y-79626700D01*
X127873074Y-79853800D01*
X127873084Y-79853815D01*
X128032709Y-80061841D01*
X128032720Y-80061853D01*
X128218146Y-80247279D01*
X128218158Y-80247290D01*
X128426184Y-80406915D01*
X128426193Y-80406921D01*
X128426197Y-80406924D01*
X128653303Y-80538043D01*
X128895581Y-80638398D01*
X128895584Y-80638398D01*
X128895587Y-80638400D01*
X129148872Y-80706267D01*
X129148873Y-80706267D01*
X129148884Y-80706270D01*
X129408880Y-80740500D01*
X129408883Y-80740500D01*
X129671117Y-80740500D01*
X129671120Y-80740500D01*
X129931116Y-80706270D01*
X130184419Y-80638398D01*
X130426697Y-80538043D01*
X130653803Y-80406924D01*
X130861851Y-80247282D01*
X131047282Y-80061851D01*
X131206924Y-79853803D01*
X131338043Y-79626697D01*
X131438398Y-79384419D01*
X131506270Y-79131116D01*
X131540500Y-78871120D01*
X131540500Y-78608880D01*
X160559500Y-78608880D01*
X160559500Y-78871120D01*
X160593730Y-79131116D01*
X160593731Y-79131120D01*
X160593732Y-79131127D01*
X160661599Y-79384412D01*
X160661602Y-79384419D01*
X160761957Y-79626697D01*
X160761959Y-79626700D01*
X160893074Y-79853800D01*
X160893084Y-79853815D01*
X161052709Y-80061841D01*
X161052720Y-80061853D01*
X161238146Y-80247279D01*
X161238158Y-80247290D01*
X161446184Y-80406915D01*
X161446193Y-80406921D01*
X161446197Y-80406924D01*
X161673303Y-80538043D01*
X161915581Y-80638398D01*
X161915584Y-80638398D01*
X161915587Y-80638400D01*
X162168872Y-80706267D01*
X162168873Y-80706267D01*
X162168884Y-80706270D01*
X162428880Y-80740500D01*
X162428883Y-80740500D01*
X162691117Y-80740500D01*
X162691120Y-80740500D01*
X162951116Y-80706270D01*
X163204419Y-80638398D01*
X163446697Y-80538043D01*
X163673803Y-80406924D01*
X163881851Y-80247282D01*
X164067282Y-80061851D01*
X164226924Y-79853803D01*
X164358043Y-79626697D01*
X164458398Y-79384419D01*
X164526270Y-79131116D01*
X164560500Y-78871120D01*
X164560500Y-78608880D01*
X164526270Y-78348884D01*
X164526267Y-78348872D01*
X164458400Y-78095587D01*
X164458396Y-78095577D01*
X164358043Y-77853303D01*
X164226924Y-77626197D01*
X164226921Y-77626193D01*
X164226915Y-77626184D01*
X164067290Y-77418158D01*
X164067279Y-77418146D01*
X163881853Y-77232720D01*
X163881841Y-77232709D01*
X163673815Y-77073084D01*
X163673800Y-77073074D01*
X163527406Y-76988554D01*
X163446697Y-76941957D01*
X163263209Y-76865953D01*
X163204422Y-76841603D01*
X163204412Y-76841599D01*
X162951127Y-76773732D01*
X162951120Y-76773731D01*
X162951116Y-76773730D01*
X162691120Y-76739500D01*
X162428880Y-76739500D01*
X162168884Y-76773730D01*
X162168880Y-76773730D01*
X162168872Y-76773732D01*
X161915587Y-76841599D01*
X161915577Y-76841603D01*
X161756435Y-76907522D01*
X161673303Y-76941957D01*
X161673300Y-76941958D01*
X161673299Y-76941959D01*
X161446199Y-77073074D01*
X161446184Y-77073084D01*
X161238158Y-77232709D01*
X161238146Y-77232720D01*
X161052720Y-77418146D01*
X161052709Y-77418158D01*
X160893084Y-77626184D01*
X160893074Y-77626199D01*
X160761959Y-77853299D01*
X160661603Y-78095577D01*
X160661599Y-78095587D01*
X160593732Y-78348872D01*
X160593730Y-78348880D01*
X160593730Y-78348884D01*
X160559500Y-78608880D01*
X131540500Y-78608880D01*
X131506270Y-78348884D01*
X131506267Y-78348872D01*
X131438400Y-78095587D01*
X131438396Y-78095577D01*
X131338043Y-77853303D01*
X131206924Y-77626197D01*
X131206921Y-77626193D01*
X131206915Y-77626184D01*
X131047290Y-77418158D01*
X131047279Y-77418146D01*
X130861853Y-77232720D01*
X130861841Y-77232709D01*
X130653815Y-77073084D01*
X130653800Y-77073074D01*
X130507406Y-76988554D01*
X130426697Y-76941957D01*
X130243209Y-76865953D01*
X130184422Y-76841603D01*
X130184412Y-76841599D01*
X129931127Y-76773732D01*
X129931120Y-76773731D01*
X129931116Y-76773730D01*
X129671120Y-76739500D01*
X129408880Y-76739500D01*
X129148884Y-76773730D01*
X129148880Y-76773730D01*
X129148872Y-76773732D01*
X128895587Y-76841599D01*
X128895577Y-76841603D01*
X128736435Y-76907522D01*
X128653303Y-76941957D01*
X128653300Y-76941958D01*
X128653299Y-76941959D01*
X128426199Y-77073074D01*
X128426184Y-77073084D01*
X128218158Y-77232709D01*
X128218146Y-77232720D01*
X128032720Y-77418146D01*
X128032709Y-77418158D01*
X127873084Y-77626184D01*
X127873074Y-77626199D01*
X127741959Y-77853299D01*
X127641603Y-78095577D01*
X127641599Y-78095587D01*
X127573732Y-78348872D01*
X127573730Y-78348880D01*
X127573730Y-78348884D01*
X127539500Y-78608880D01*
X127200500Y-78608880D01*
X127200500Y-78401603D01*
X127200605Y-78398398D01*
X127217396Y-78142213D01*
X127218229Y-78135879D01*
X127268008Y-77885622D01*
X127269656Y-77879469D01*
X127351675Y-77637852D01*
X127354120Y-77631950D01*
X127466969Y-77403114D01*
X127470157Y-77397593D01*
X127611910Y-77185444D01*
X127615802Y-77180373D01*
X127784029Y-76988546D01*
X127788546Y-76984029D01*
X127980373Y-76815802D01*
X127985444Y-76811910D01*
X128197593Y-76670157D01*
X128203114Y-76666969D01*
X128431950Y-76554120D01*
X128437852Y-76551675D01*
X128679469Y-76469656D01*
X128685622Y-76468008D01*
X128935879Y-76418229D01*
X128942209Y-76417396D01*
X129198398Y-76400604D01*
X129201603Y-76400500D01*
X129239882Y-76400500D01*
X162860118Y-76400500D01*
X162898397Y-76400500D01*
X162901601Y-76400604D01*
G37*
G04 #@! TD.AperFunction*
G04 #@! TA.AperFunction,Conductor*
G36*
X158354648Y-104951352D02*
G01*
X158369000Y-104986000D01*
X158369000Y-117299000D01*
X158354648Y-117333648D01*
X158320000Y-117348000D01*
X155956000Y-117348000D01*
X155956000Y-120111000D01*
X155941648Y-120145648D01*
X155907000Y-120160000D01*
X153556000Y-120160000D01*
X153556000Y-126690540D01*
X153541648Y-126725188D01*
X153531501Y-126732975D01*
X153485486Y-126759542D01*
X153429541Y-126815488D01*
X153429540Y-126815488D01*
X153389979Y-126884008D01*
X153389979Y-126884010D01*
X153369500Y-126960436D01*
X153369500Y-127039563D01*
X153389979Y-127115989D01*
X153389979Y-127115991D01*
X153429540Y-127184511D01*
X153485489Y-127240460D01*
X153531500Y-127267024D01*
X153554330Y-127296777D01*
X153556000Y-127309459D01*
X153556000Y-134310540D01*
X153541648Y-134345188D01*
X153531501Y-134352975D01*
X153485486Y-134379542D01*
X153429541Y-134435488D01*
X153429540Y-134435488D01*
X153389979Y-134504008D01*
X153389979Y-134504010D01*
X153369500Y-134580436D01*
X153369500Y-134659563D01*
X153389979Y-134735989D01*
X153389979Y-134735991D01*
X153429540Y-134804511D01*
X153485489Y-134860460D01*
X153531500Y-134887024D01*
X153554330Y-134916777D01*
X153556000Y-134929459D01*
X153556000Y-136910500D01*
X153541648Y-136945148D01*
X153507000Y-136959500D01*
X129201603Y-136959500D01*
X129198398Y-136959395D01*
X128942213Y-136942603D01*
X128935864Y-136941767D01*
X128685636Y-136891994D01*
X128679457Y-136890339D01*
X128437862Y-136808328D01*
X128431941Y-136805875D01*
X128203129Y-136693038D01*
X128197582Y-136689835D01*
X128090876Y-136618536D01*
X127985451Y-136548093D01*
X127980366Y-136544191D01*
X127788554Y-136375977D01*
X127784022Y-136371445D01*
X127615808Y-136179633D01*
X127611906Y-136174548D01*
X127603750Y-136162342D01*
X127470161Y-135962413D01*
X127466966Y-135956878D01*
X127354122Y-135728054D01*
X127351671Y-135722137D01*
X127335827Y-135675462D01*
X127269657Y-135480534D01*
X127268007Y-135474373D01*
X127218229Y-135224122D01*
X127217396Y-135217786D01*
X127200605Y-134961601D01*
X127200500Y-134958396D01*
X127200500Y-134580436D01*
X140669500Y-134580436D01*
X140669500Y-134659563D01*
X140689979Y-134735989D01*
X140689979Y-134735991D01*
X140729540Y-134804511D01*
X140785489Y-134860460D01*
X140854011Y-134900021D01*
X140889478Y-134909524D01*
X140930436Y-134920500D01*
X140930438Y-134920500D01*
X141009564Y-134920500D01*
X141036230Y-134913354D01*
X141085989Y-134900021D01*
X141154511Y-134860460D01*
X141210460Y-134804511D01*
X141250021Y-134735989D01*
X141270500Y-134659562D01*
X141270500Y-134580438D01*
X141270500Y-134580436D01*
X141261843Y-134548134D01*
X141250021Y-134504011D01*
X141250020Y-134504009D01*
X141250020Y-134504008D01*
X141210459Y-134435488D01*
X141154511Y-134379540D01*
X141085990Y-134339979D01*
X141009564Y-134319500D01*
X141009562Y-134319500D01*
X140930438Y-134319500D01*
X140930436Y-134319500D01*
X140854010Y-134339979D01*
X140854008Y-134339979D01*
X140785488Y-134379540D01*
X140785488Y-134379541D01*
X140729541Y-134435488D01*
X140729540Y-134435488D01*
X140689979Y-134504008D01*
X140689979Y-134504010D01*
X140669500Y-134580436D01*
X127200500Y-134580436D01*
X127200500Y-133271152D01*
X128739500Y-133271152D01*
X128739500Y-133428847D01*
X128770260Y-133583487D01*
X128770263Y-133583498D01*
X128804229Y-133665500D01*
X128830606Y-133729179D01*
X128885675Y-133811596D01*
X128898153Y-133830271D01*
X128918211Y-133860289D01*
X129029711Y-133971789D01*
X129160821Y-134059394D01*
X129306503Y-134119737D01*
X129306509Y-134119738D01*
X129306512Y-134119739D01*
X129461152Y-134150499D01*
X129461158Y-134150500D01*
X129618842Y-134150500D01*
X129773497Y-134119737D01*
X129919179Y-134059394D01*
X130050289Y-133971789D01*
X130161789Y-133860289D01*
X130249394Y-133729179D01*
X130309737Y-133583497D01*
X130340500Y-133428842D01*
X130340500Y-133271158D01*
X130332953Y-133233218D01*
X130309739Y-133116512D01*
X130309736Y-133116501D01*
X130258272Y-132992254D01*
X130249394Y-132970821D01*
X130161789Y-132839711D01*
X130050289Y-132728211D01*
X130030517Y-132715000D01*
X129984841Y-132684480D01*
X129919179Y-132640606D01*
X129919176Y-132640604D01*
X129919175Y-132640604D01*
X129917946Y-132640095D01*
X131279500Y-132640095D01*
X131279500Y-134059894D01*
X131279501Y-134059898D01*
X131285331Y-134089213D01*
X131285331Y-134089214D01*
X131285332Y-134089215D01*
X131285332Y-134089216D01*
X131305727Y-134119739D01*
X131307543Y-134122457D01*
X131340787Y-134144669D01*
X131370101Y-134150500D01*
X132789898Y-134150499D01*
X132819213Y-134144669D01*
X132852457Y-134122457D01*
X132874669Y-134089213D01*
X132880500Y-134059899D01*
X132880499Y-133320908D01*
X132880499Y-132640105D01*
X132880499Y-132640102D01*
X132874669Y-132610787D01*
X132874667Y-132610784D01*
X132874667Y-132610783D01*
X132873311Y-132608753D01*
X134920000Y-132608753D01*
X134920000Y-132821246D01*
X134953241Y-133031123D01*
X134953242Y-133031126D01*
X135018905Y-133233218D01*
X135115378Y-133422556D01*
X135115380Y-133422560D01*
X135154727Y-133476716D01*
X135154728Y-133476716D01*
X135787037Y-132844408D01*
X135804075Y-132907993D01*
X135869901Y-133022007D01*
X135962993Y-133115099D01*
X136077007Y-133180925D01*
X136140591Y-133197962D01*
X135508281Y-133830271D01*
X135562440Y-133869619D01*
X135562443Y-133869621D01*
X135751781Y-133966094D01*
X135953873Y-134031757D01*
X135953876Y-134031758D01*
X136163754Y-134065000D01*
X136376246Y-134065000D01*
X136586123Y-134031758D01*
X136586126Y-134031757D01*
X136788218Y-133966094D01*
X136977553Y-133869622D01*
X137031717Y-133830271D01*
X136399408Y-133197962D01*
X136462993Y-133180925D01*
X136577007Y-133115099D01*
X136670099Y-133022007D01*
X136735925Y-132907993D01*
X136752962Y-132844408D01*
X137385271Y-133476717D01*
X137424622Y-133422553D01*
X137521094Y-133233218D01*
X137586757Y-133031126D01*
X137586758Y-133031123D01*
X137620000Y-132821246D01*
X137620000Y-132621384D01*
X140019500Y-132621384D01*
X140019500Y-132808616D01*
X140039267Y-132907993D01*
X140056026Y-132992248D01*
X140056029Y-132992258D01*
X140127675Y-133165225D01*
X140127676Y-133165227D01*
X140127678Y-133165231D01*
X140231698Y-133320908D01*
X140364092Y-133453302D01*
X140519769Y-133557322D01*
X140519774Y-133557324D01*
X140692741Y-133628970D01*
X140692743Y-133628970D01*
X140692749Y-133628973D01*
X140876384Y-133665500D01*
X140876387Y-133665500D01*
X141063613Y-133665500D01*
X141063616Y-133665500D01*
X141247251Y-133628973D01*
X141420231Y-133557322D01*
X141575908Y-133453302D01*
X141708302Y-133320908D01*
X141812322Y-133165231D01*
X141883973Y-132992251D01*
X141920500Y-132808616D01*
X141920500Y-132621384D01*
X144719500Y-132621384D01*
X144719500Y-132808616D01*
X144739267Y-132907993D01*
X144756026Y-132992248D01*
X144756029Y-132992258D01*
X144827675Y-133165225D01*
X144827676Y-133165227D01*
X144827678Y-133165231D01*
X144931698Y-133320908D01*
X145064092Y-133453302D01*
X145219769Y-133557322D01*
X145219774Y-133557324D01*
X145392741Y-133628970D01*
X145392743Y-133628970D01*
X145392749Y-133628973D01*
X145576384Y-133665500D01*
X145576387Y-133665500D01*
X145763613Y-133665500D01*
X145763616Y-133665500D01*
X145947251Y-133628973D01*
X146120231Y-133557322D01*
X146275908Y-133453302D01*
X146408302Y-133320908D01*
X146512322Y-133165231D01*
X146545166Y-133085939D01*
X148749500Y-133085939D01*
X148749500Y-133944060D01*
X148790422Y-134096782D01*
X148790423Y-134096786D01*
X148869475Y-134233709D01*
X148869478Y-134233713D01*
X148869480Y-134233716D01*
X148981284Y-134345520D01*
X148981287Y-134345521D01*
X148981290Y-134345524D01*
X149118213Y-134424576D01*
X149118215Y-134424576D01*
X149118216Y-134424577D01*
X149238665Y-134456851D01*
X149270939Y-134465499D01*
X149270940Y-134465500D01*
X149270943Y-134465500D01*
X149429060Y-134465500D01*
X149429060Y-134465499D01*
X149581784Y-134424577D01*
X149718716Y-134345520D01*
X149830520Y-134233716D01*
X149878565Y-134150499D01*
X149909576Y-134096786D01*
X149909576Y-134096785D01*
X149909577Y-134096784D01*
X149950499Y-133944060D01*
X149950500Y-133944060D01*
X149950500Y-133085940D01*
X149950499Y-133085939D01*
X149925395Y-132992251D01*
X149909577Y-132933216D01*
X149909576Y-132933215D01*
X149909576Y-132933213D01*
X149830524Y-132796290D01*
X149830521Y-132796287D01*
X149830520Y-132796284D01*
X149718716Y-132684480D01*
X149718713Y-132684478D01*
X149718709Y-132684475D01*
X149581786Y-132605423D01*
X149581782Y-132605422D01*
X149429060Y-132564500D01*
X149429057Y-132564500D01*
X149270943Y-132564500D01*
X149270940Y-132564500D01*
X149118217Y-132605422D01*
X149118213Y-132605423D01*
X148981290Y-132684475D01*
X148981281Y-132684482D01*
X148869482Y-132796281D01*
X148869475Y-132796290D01*
X148790423Y-132933213D01*
X148790422Y-132933217D01*
X148749500Y-133085939D01*
X146545166Y-133085939D01*
X146583973Y-132992251D01*
X146620500Y-132808616D01*
X146620500Y-132621384D01*
X146583973Y-132437749D01*
X146512322Y-132264769D01*
X146408302Y-132109092D01*
X146275908Y-131976698D01*
X146240863Y-131953282D01*
X146237381Y-131950955D01*
X146120231Y-131872678D01*
X146120227Y-131872676D01*
X146120225Y-131872675D01*
X145947258Y-131801029D01*
X145947248Y-131801026D01*
X145873194Y-131786296D01*
X145763616Y-131764500D01*
X145576384Y-131764500D01*
X145484986Y-131782680D01*
X145392751Y-131801026D01*
X145392741Y-131801029D01*
X145219774Y-131872675D01*
X145219770Y-131872677D01*
X145219769Y-131872678D01*
X145180195Y-131899120D01*
X145064092Y-131976697D01*
X144931697Y-132109092D01*
X144854120Y-132225195D01*
X144838165Y-132249075D01*
X144827675Y-132264774D01*
X144756029Y-132437741D01*
X144756026Y-132437751D01*
X144739267Y-132522007D01*
X144719500Y-132621384D01*
X141920500Y-132621384D01*
X141883973Y-132437749D01*
X141812322Y-132264769D01*
X141708302Y-132109092D01*
X141575908Y-131976698D01*
X141540863Y-131953282D01*
X141537381Y-131950955D01*
X141420231Y-131872678D01*
X141420227Y-131872676D01*
X141420225Y-131872675D01*
X141247258Y-131801029D01*
X141247248Y-131801026D01*
X141173194Y-131786296D01*
X141063616Y-131764500D01*
X140876384Y-131764500D01*
X140784986Y-131782680D01*
X140692751Y-131801026D01*
X140692741Y-131801029D01*
X140519774Y-131872675D01*
X140519770Y-131872677D01*
X140519769Y-131872678D01*
X140480195Y-131899120D01*
X140364092Y-131976697D01*
X140231697Y-132109092D01*
X140154120Y-132225195D01*
X140138165Y-132249075D01*
X140127675Y-132264774D01*
X140056029Y-132437741D01*
X140056026Y-132437751D01*
X140039267Y-132522007D01*
X140019500Y-132621384D01*
X137620000Y-132621384D01*
X137620000Y-132608753D01*
X137586758Y-132398876D01*
X137586757Y-132398873D01*
X137521094Y-132196781D01*
X137424621Y-132007443D01*
X137424619Y-132007440D01*
X137385271Y-131953281D01*
X136752962Y-132585590D01*
X136735925Y-132522007D01*
X136670099Y-132407993D01*
X136577007Y-132314901D01*
X136462993Y-132249075D01*
X136399407Y-132232036D01*
X137031716Y-131599728D01*
X137031716Y-131599727D01*
X136977560Y-131560380D01*
X136977556Y-131560378D01*
X136788218Y-131463905D01*
X136586126Y-131398242D01*
X136586123Y-131398241D01*
X136376246Y-131365000D01*
X136163754Y-131365000D01*
X135953876Y-131398241D01*
X135953873Y-131398242D01*
X135751781Y-131463905D01*
X135562447Y-131560376D01*
X135562442Y-131560379D01*
X135508282Y-131599727D01*
X135508282Y-131599728D01*
X136140591Y-132232037D01*
X136077007Y-132249075D01*
X135962993Y-132314901D01*
X135869901Y-132407993D01*
X135804075Y-132522007D01*
X135787037Y-132585591D01*
X135154728Y-131953282D01*
X135154727Y-131953282D01*
X135115379Y-132007442D01*
X135115376Y-132007447D01*
X135018905Y-132196781D01*
X134953242Y-132398873D01*
X134953241Y-132398876D01*
X134920000Y-132608753D01*
X132873311Y-132608753D01*
X132852457Y-132577543D01*
X132819212Y-132555330D01*
X132789901Y-132549500D01*
X131370105Y-132549500D01*
X131370104Y-132549500D01*
X131370102Y-132549501D01*
X131340787Y-132555331D01*
X131340786Y-132555331D01*
X131340784Y-132555332D01*
X131340783Y-132555332D01*
X131307543Y-132577542D01*
X131285330Y-132610786D01*
X131285330Y-132610787D01*
X131279500Y-132640095D01*
X129917946Y-132640095D01*
X129773498Y-132580263D01*
X129773487Y-132580260D01*
X129618847Y-132549500D01*
X129618842Y-132549500D01*
X129461158Y-132549500D01*
X129461152Y-132549500D01*
X129306512Y-132580260D01*
X129306501Y-132580263D01*
X129160824Y-132640604D01*
X129029711Y-132728210D01*
X128918210Y-132839711D01*
X128830604Y-132970824D01*
X128770263Y-133116501D01*
X128770260Y-133116512D01*
X128739500Y-133271152D01*
X127200500Y-133271152D01*
X127200500Y-129285939D01*
X148749500Y-129285939D01*
X148749500Y-130144060D01*
X148790422Y-130296782D01*
X148790423Y-130296786D01*
X148869475Y-130433709D01*
X148869478Y-130433713D01*
X148869480Y-130433716D01*
X148981284Y-130545520D01*
X148981287Y-130545521D01*
X148981290Y-130545524D01*
X149118213Y-130624576D01*
X149118215Y-130624576D01*
X149118216Y-130624577D01*
X149238665Y-130656851D01*
X149270939Y-130665499D01*
X149270940Y-130665500D01*
X149270943Y-130665500D01*
X149429060Y-130665500D01*
X149429060Y-130665499D01*
X149581784Y-130624577D01*
X149718716Y-130545520D01*
X149830520Y-130433716D01*
X149909577Y-130296784D01*
X149950499Y-130144060D01*
X149950500Y-130144060D01*
X149950500Y-129495436D01*
X150619500Y-129495436D01*
X150619500Y-129574563D01*
X150639979Y-129650989D01*
X150639979Y-129650991D01*
X150679540Y-129719511D01*
X150735489Y-129775460D01*
X150804011Y-129815021D01*
X150839478Y-129824524D01*
X150880436Y-129835500D01*
X150880438Y-129835500D01*
X150959564Y-129835500D01*
X150986230Y-129828354D01*
X151035989Y-129815021D01*
X151104511Y-129775460D01*
X151160460Y-129719511D01*
X151200021Y-129650989D01*
X151220500Y-129574562D01*
X151220500Y-129495438D01*
X151220500Y-129495436D01*
X151211843Y-129463134D01*
X151200021Y-129419011D01*
X151200020Y-129419009D01*
X151200020Y-129419008D01*
X151160459Y-129350488D01*
X151104511Y-129294540D01*
X151035990Y-129254979D01*
X150959564Y-129234500D01*
X150959562Y-129234500D01*
X150880438Y-129234500D01*
X150880436Y-129234500D01*
X150804010Y-129254979D01*
X150804008Y-129254979D01*
X150735488Y-129294540D01*
X150735488Y-129294541D01*
X150679541Y-129350488D01*
X150679540Y-129350488D01*
X150639979Y-129419008D01*
X150639979Y-129419010D01*
X150619500Y-129495436D01*
X149950500Y-129495436D01*
X149950500Y-129285940D01*
X149950499Y-129285939D01*
X149909577Y-129133217D01*
X149909576Y-129133213D01*
X149830524Y-128996290D01*
X149830521Y-128996287D01*
X149830520Y-128996284D01*
X149718716Y-128884480D01*
X149718713Y-128884478D01*
X149718709Y-128884475D01*
X149581786Y-128805423D01*
X149581782Y-128805422D01*
X149429060Y-128764500D01*
X149429057Y-128764500D01*
X149270943Y-128764500D01*
X149270940Y-128764500D01*
X149118217Y-128805422D01*
X149118213Y-128805423D01*
X148981290Y-128884475D01*
X148981281Y-128884482D01*
X148869482Y-128996281D01*
X148869475Y-128996290D01*
X148790423Y-129133213D01*
X148790422Y-129133217D01*
X148749500Y-129285939D01*
X127200500Y-129285939D01*
X127200500Y-126960436D01*
X129239500Y-126960436D01*
X129239500Y-127039563D01*
X129259979Y-127115989D01*
X129259979Y-127115991D01*
X129299540Y-127184511D01*
X129355489Y-127240460D01*
X129424011Y-127280021D01*
X129459478Y-127289524D01*
X129500436Y-127300500D01*
X129500438Y-127300500D01*
X129579564Y-127300500D01*
X129606230Y-127293354D01*
X129655989Y-127280021D01*
X129724511Y-127240460D01*
X129780460Y-127184511D01*
X129820021Y-127115989D01*
X129840500Y-127039562D01*
X129840500Y-126960438D01*
X129840500Y-126960436D01*
X140669500Y-126960436D01*
X140669500Y-127039563D01*
X140689979Y-127115989D01*
X140689979Y-127115991D01*
X140729540Y-127184511D01*
X140785489Y-127240460D01*
X140854011Y-127280021D01*
X140889478Y-127289524D01*
X140930436Y-127300500D01*
X140930438Y-127300500D01*
X141009564Y-127300500D01*
X141036230Y-127293354D01*
X141085989Y-127280021D01*
X141154511Y-127240460D01*
X141210460Y-127184511D01*
X141250021Y-127115989D01*
X141270500Y-127039562D01*
X141270500Y-126960438D01*
X141270500Y-126960436D01*
X141261843Y-126928134D01*
X141250021Y-126884011D01*
X141250020Y-126884009D01*
X141250020Y-126884008D01*
X141210459Y-126815488D01*
X141154511Y-126759540D01*
X141085990Y-126719979D01*
X141009564Y-126699500D01*
X141009562Y-126699500D01*
X140930438Y-126699500D01*
X140930436Y-126699500D01*
X140854010Y-126719979D01*
X140854008Y-126719979D01*
X140785488Y-126759540D01*
X140785488Y-126759541D01*
X140729541Y-126815488D01*
X140729540Y-126815488D01*
X140689979Y-126884008D01*
X140689979Y-126884010D01*
X140669500Y-126960436D01*
X129840500Y-126960436D01*
X129831843Y-126928134D01*
X129820021Y-126884011D01*
X129820020Y-126884009D01*
X129820020Y-126884008D01*
X129780459Y-126815488D01*
X129724511Y-126759540D01*
X129655990Y-126719979D01*
X129579564Y-126699500D01*
X129579562Y-126699500D01*
X129500438Y-126699500D01*
X129500436Y-126699500D01*
X129424010Y-126719979D01*
X129424008Y-126719979D01*
X129355488Y-126759540D01*
X129355488Y-126759541D01*
X129299541Y-126815488D01*
X129299540Y-126815488D01*
X129259979Y-126884008D01*
X129259979Y-126884010D01*
X129239500Y-126960436D01*
X127200500Y-126960436D01*
X127200500Y-126592572D01*
X132840978Y-126592572D01*
X132876324Y-126616190D01*
X133058310Y-126691570D01*
X133251512Y-126730000D01*
X133448488Y-126730000D01*
X133641689Y-126691570D01*
X133641690Y-126691570D01*
X133823672Y-126616191D01*
X133859019Y-126592572D01*
X133350000Y-126083553D01*
X132840978Y-126592572D01*
X127200500Y-126592572D01*
X127200500Y-125631512D01*
X132350000Y-125631512D01*
X132350000Y-125828487D01*
X132388429Y-126021689D01*
X132388429Y-126021690D01*
X132463810Y-126203677D01*
X132487426Y-126239020D01*
X132996446Y-125730000D01*
X132996446Y-125729999D01*
X132946719Y-125680272D01*
X133100000Y-125680272D01*
X133100000Y-125779728D01*
X133138060Y-125871614D01*
X133208386Y-125941940D01*
X133300272Y-125980000D01*
X133399728Y-125980000D01*
X133491614Y-125941940D01*
X133561940Y-125871614D01*
X133600000Y-125779728D01*
X133600000Y-125729999D01*
X133703553Y-125729999D01*
X133703553Y-125730000D01*
X134212572Y-126239019D01*
X134236191Y-126203672D01*
X134311570Y-126021690D01*
X134311570Y-126021689D01*
X134350000Y-125828487D01*
X134350000Y-125641303D01*
X143149500Y-125641303D01*
X143149500Y-125818696D01*
X143184103Y-125992656D01*
X143184106Y-125992667D01*
X143196128Y-126021690D01*
X143251987Y-126156547D01*
X143291726Y-126216021D01*
X143350533Y-126304032D01*
X143475967Y-126429466D01*
X143534640Y-126468670D01*
X143623453Y-126528013D01*
X143787334Y-126595894D01*
X143787340Y-126595895D01*
X143787343Y-126595896D01*
X143961303Y-126630499D01*
X143961309Y-126630500D01*
X144138691Y-126630500D01*
X144312666Y-126595894D01*
X144476547Y-126528013D01*
X144624035Y-126429464D01*
X144666352Y-126387147D01*
X144701000Y-126372795D01*
X144735648Y-126387147D01*
X144750000Y-126421795D01*
X144750000Y-126577834D01*
X144756401Y-126637372D01*
X144756401Y-126637373D01*
X144806648Y-126772091D01*
X144892811Y-126887188D01*
X145007908Y-126973351D01*
X145142626Y-127023598D01*
X145202166Y-127030000D01*
X145800000Y-127030000D01*
X145800000Y-126045686D01*
X145804394Y-126050080D01*
X145895606Y-126102741D01*
X145997339Y-126130000D01*
X146102661Y-126130000D01*
X146204394Y-126102741D01*
X146295606Y-126050080D01*
X146300000Y-126045686D01*
X146300000Y-127030000D01*
X146897834Y-127030000D01*
X146957372Y-127023598D01*
X146957373Y-127023598D01*
X147092091Y-126973351D01*
X147109343Y-126960436D01*
X149282000Y-126960436D01*
X149282000Y-127039563D01*
X149302479Y-127115989D01*
X149302479Y-127115991D01*
X149342040Y-127184511D01*
X149397989Y-127240460D01*
X149466511Y-127280021D01*
X149501978Y-127289524D01*
X149542936Y-127300500D01*
X149542938Y-127300500D01*
X149622064Y-127300500D01*
X149648730Y-127293354D01*
X149698489Y-127280021D01*
X149767011Y-127240460D01*
X149822960Y-127184511D01*
X149862521Y-127115989D01*
X149883000Y-127039562D01*
X149883000Y-126960438D01*
X149883000Y-126960436D01*
X149874343Y-126928134D01*
X149862521Y-126884011D01*
X149862520Y-126884009D01*
X149862520Y-126884008D01*
X149822959Y-126815488D01*
X149767011Y-126759540D01*
X149698490Y-126719979D01*
X149622064Y-126699500D01*
X149622062Y-126699500D01*
X149542938Y-126699500D01*
X149542936Y-126699500D01*
X149466510Y-126719979D01*
X149466508Y-126719979D01*
X149397988Y-126759540D01*
X149397988Y-126759541D01*
X149342041Y-126815488D01*
X149342040Y-126815488D01*
X149302479Y-126884008D01*
X149302479Y-126884010D01*
X149282000Y-126960436D01*
X147109343Y-126960436D01*
X147166031Y-126918000D01*
X147207188Y-126887188D01*
X147293351Y-126772091D01*
X147343598Y-126637373D01*
X147343598Y-126637372D01*
X147350000Y-126577834D01*
X147350000Y-125980000D01*
X146365686Y-125980000D01*
X146370080Y-125975606D01*
X146422741Y-125884394D01*
X146450000Y-125782661D01*
X146450000Y-125677339D01*
X146422741Y-125575606D01*
X146370080Y-125484394D01*
X146365686Y-125480000D01*
X147350000Y-125480000D01*
X147350000Y-124882165D01*
X147343598Y-124822627D01*
X147343598Y-124822626D01*
X147293351Y-124687908D01*
X147207188Y-124572811D01*
X147092091Y-124486648D01*
X146957373Y-124436401D01*
X146897834Y-124430000D01*
X146300000Y-124430000D01*
X146300000Y-125414314D01*
X146295606Y-125409920D01*
X146204394Y-125357259D01*
X146102661Y-125330000D01*
X145997339Y-125330000D01*
X145895606Y-125357259D01*
X145804394Y-125409920D01*
X145800000Y-125414314D01*
X145800000Y-124430000D01*
X145202166Y-124430000D01*
X145142627Y-124436401D01*
X145142626Y-124436401D01*
X145007908Y-124486648D01*
X144892811Y-124572811D01*
X144806648Y-124687908D01*
X144756401Y-124822626D01*
X144756401Y-124822627D01*
X144750000Y-124882165D01*
X144750000Y-125038205D01*
X144735648Y-125072853D01*
X144701000Y-125087205D01*
X144666352Y-125072853D01*
X144624032Y-125030533D01*
X144536021Y-124971726D01*
X144476547Y-124931987D01*
X144476544Y-124931985D01*
X144476543Y-124931985D01*
X144312667Y-124864106D01*
X144312656Y-124864103D01*
X144138696Y-124829500D01*
X144138691Y-124829500D01*
X143961309Y-124829500D01*
X143961303Y-124829500D01*
X143787343Y-124864103D01*
X143787332Y-124864106D01*
X143623456Y-124931985D01*
X143475967Y-125030533D01*
X143350533Y-125155967D01*
X143251985Y-125303456D01*
X143184106Y-125467332D01*
X143184103Y-125467343D01*
X143149500Y-125641303D01*
X134350000Y-125641303D01*
X134350000Y-125631512D01*
X134311570Y-125438310D01*
X134311570Y-125438309D01*
X134236190Y-125256324D01*
X134212572Y-125220978D01*
X133703553Y-125729999D01*
X133600000Y-125729999D01*
X133600000Y-125680272D01*
X133561940Y-125588386D01*
X133491614Y-125518060D01*
X133399728Y-125480000D01*
X133300272Y-125480000D01*
X133208386Y-125518060D01*
X133138060Y-125588386D01*
X133100000Y-125680272D01*
X132946719Y-125680272D01*
X132487426Y-125220979D01*
X132487425Y-125220979D01*
X132463810Y-125256321D01*
X132388429Y-125438309D01*
X132388429Y-125438310D01*
X132350000Y-125631512D01*
X127200500Y-125631512D01*
X127200500Y-124867425D01*
X132840979Y-124867425D01*
X132840979Y-124867426D01*
X133349999Y-125376446D01*
X133859020Y-124867426D01*
X133823677Y-124843810D01*
X133641689Y-124768429D01*
X133448488Y-124730000D01*
X133251512Y-124730000D01*
X133058310Y-124768429D01*
X133058309Y-124768429D01*
X132876321Y-124843810D01*
X132840979Y-124867425D01*
X127200500Y-124867425D01*
X127200500Y-123785436D01*
X137217000Y-123785436D01*
X137217000Y-123864563D01*
X137237479Y-123940989D01*
X137237479Y-123940991D01*
X137277040Y-124009511D01*
X137332989Y-124065460D01*
X137401511Y-124105021D01*
X137436978Y-124114524D01*
X137477936Y-124125500D01*
X137477938Y-124125500D01*
X137557064Y-124125500D01*
X137583730Y-124118354D01*
X137633489Y-124105021D01*
X137702011Y-124065460D01*
X137757960Y-124009511D01*
X137797521Y-123940989D01*
X137818000Y-123864562D01*
X137818000Y-123785438D01*
X137818000Y-123785436D01*
X152457000Y-123785436D01*
X152457000Y-123864563D01*
X152477479Y-123940989D01*
X152477479Y-123940991D01*
X152517040Y-124009511D01*
X152572989Y-124065460D01*
X152641511Y-124105021D01*
X152676978Y-124114524D01*
X152717936Y-124125500D01*
X152717938Y-124125500D01*
X152797064Y-124125500D01*
X152823730Y-124118354D01*
X152873489Y-124105021D01*
X152942011Y-124065460D01*
X152997960Y-124009511D01*
X153037521Y-123940989D01*
X153058000Y-123864562D01*
X153058000Y-123785438D01*
X153058000Y-123785436D01*
X153049343Y-123753134D01*
X153037521Y-123709011D01*
X153037520Y-123709009D01*
X153037520Y-123709008D01*
X152997959Y-123640488D01*
X152942011Y-123584540D01*
X152873490Y-123544979D01*
X152797064Y-123524500D01*
X152797062Y-123524500D01*
X152717938Y-123524500D01*
X152717936Y-123524500D01*
X152641510Y-123544979D01*
X152641508Y-123544979D01*
X152572988Y-123584540D01*
X152572988Y-123584541D01*
X152517041Y-123640488D01*
X152517040Y-123640488D01*
X152477479Y-123709008D01*
X152477479Y-123709010D01*
X152457000Y-123785436D01*
X137818000Y-123785436D01*
X137809343Y-123753134D01*
X137797521Y-123709011D01*
X137797520Y-123709009D01*
X137797520Y-123709008D01*
X137757959Y-123640488D01*
X137702011Y-123584540D01*
X137633490Y-123544979D01*
X137557064Y-123524500D01*
X137557062Y-123524500D01*
X137477938Y-123524500D01*
X137477936Y-123524500D01*
X137401510Y-123544979D01*
X137401508Y-123544979D01*
X137332988Y-123584540D01*
X137332988Y-123584541D01*
X137277041Y-123640488D01*
X137277040Y-123640488D01*
X137237479Y-123709008D01*
X137237479Y-123709010D01*
X137217000Y-123785436D01*
X127200500Y-123785436D01*
X127200500Y-121522936D01*
X134954500Y-121522936D01*
X134954500Y-121602063D01*
X134974979Y-121678489D01*
X134974979Y-121678491D01*
X135014540Y-121747011D01*
X135070489Y-121802960D01*
X135139011Y-121842521D01*
X135174478Y-121852024D01*
X135215436Y-121863000D01*
X135215438Y-121863000D01*
X135294564Y-121863000D01*
X135321230Y-121855854D01*
X135370989Y-121842521D01*
X135439511Y-121802960D01*
X135495460Y-121747011D01*
X135535021Y-121678489D01*
X135555500Y-121602062D01*
X135555500Y-121522938D01*
X135555500Y-121522936D01*
X135544640Y-121482409D01*
X135544640Y-121482408D01*
X135542102Y-121472936D01*
X141304500Y-121472936D01*
X141304500Y-121552063D01*
X141324979Y-121628489D01*
X141324979Y-121628491D01*
X141364540Y-121697011D01*
X141420489Y-121752960D01*
X141489011Y-121792521D01*
X141524478Y-121802024D01*
X141565436Y-121813000D01*
X141565438Y-121813000D01*
X141644564Y-121813000D01*
X141671230Y-121805854D01*
X141720989Y-121792521D01*
X141789511Y-121752960D01*
X141845460Y-121697011D01*
X141885021Y-121628489D01*
X141905500Y-121552062D01*
X141905500Y-121472938D01*
X141905500Y-121472936D01*
X141896843Y-121440634D01*
X141885021Y-121396511D01*
X141885020Y-121396509D01*
X141885020Y-121396508D01*
X141845459Y-121327988D01*
X141789511Y-121272040D01*
X141720990Y-121232479D01*
X141644564Y-121212000D01*
X141644562Y-121212000D01*
X141565438Y-121212000D01*
X141565436Y-121212000D01*
X141489010Y-121232479D01*
X141489008Y-121232479D01*
X141420488Y-121272040D01*
X141420488Y-121272041D01*
X141364541Y-121327988D01*
X141364540Y-121327988D01*
X141324979Y-121396508D01*
X141324979Y-121396510D01*
X141304500Y-121472936D01*
X135542102Y-121472936D01*
X135535021Y-121446512D01*
X135535020Y-121446508D01*
X135495459Y-121377988D01*
X135439511Y-121322040D01*
X135370990Y-121282479D01*
X135294564Y-121262000D01*
X135294562Y-121262000D01*
X135215438Y-121262000D01*
X135215436Y-121262000D01*
X135139010Y-121282479D01*
X135139008Y-121282479D01*
X135070488Y-121322040D01*
X135070488Y-121322041D01*
X135014541Y-121377988D01*
X135014540Y-121377988D01*
X134974979Y-121446508D01*
X134974979Y-121446510D01*
X134954500Y-121522936D01*
X127200500Y-121522936D01*
X127200500Y-120610436D01*
X139267000Y-120610436D01*
X139267000Y-120689563D01*
X139287479Y-120765989D01*
X139287479Y-120765991D01*
X139327040Y-120834511D01*
X139382989Y-120890460D01*
X139451511Y-120930021D01*
X139486978Y-120939524D01*
X139527936Y-120950500D01*
X139527938Y-120950500D01*
X139607064Y-120950500D01*
X139633730Y-120943354D01*
X139683489Y-120930021D01*
X139752011Y-120890460D01*
X139807960Y-120834511D01*
X139847521Y-120765989D01*
X139868000Y-120689562D01*
X139868000Y-120610438D01*
X139868000Y-120610436D01*
X152232000Y-120610436D01*
X152232000Y-120689563D01*
X152252479Y-120765989D01*
X152252479Y-120765991D01*
X152292040Y-120834511D01*
X152347989Y-120890460D01*
X152416511Y-120930021D01*
X152451978Y-120939524D01*
X152492936Y-120950500D01*
X152492938Y-120950500D01*
X152572064Y-120950500D01*
X152598730Y-120943354D01*
X152648489Y-120930021D01*
X152717011Y-120890460D01*
X152772960Y-120834511D01*
X152812521Y-120765989D01*
X152833000Y-120689562D01*
X152833000Y-120610438D01*
X152833000Y-120610436D01*
X152824343Y-120578134D01*
X152812521Y-120534011D01*
X152812520Y-120534009D01*
X152812520Y-120534008D01*
X152772959Y-120465488D01*
X152717011Y-120409540D01*
X152648490Y-120369979D01*
X152572064Y-120349500D01*
X152572062Y-120349500D01*
X152492938Y-120349500D01*
X152492936Y-120349500D01*
X152416510Y-120369979D01*
X152416508Y-120369979D01*
X152347988Y-120409540D01*
X152347988Y-120409541D01*
X152292041Y-120465488D01*
X152292040Y-120465488D01*
X152252479Y-120534008D01*
X152252479Y-120534010D01*
X152232000Y-120610436D01*
X139868000Y-120610436D01*
X139859343Y-120578134D01*
X139847521Y-120534011D01*
X139847520Y-120534009D01*
X139847520Y-120534008D01*
X139807959Y-120465488D01*
X139752011Y-120409540D01*
X139683490Y-120369979D01*
X139607064Y-120349500D01*
X139607062Y-120349500D01*
X139527938Y-120349500D01*
X139527936Y-120349500D01*
X139451510Y-120369979D01*
X139451508Y-120369979D01*
X139382988Y-120409540D01*
X139382988Y-120409541D01*
X139327041Y-120465488D01*
X139327040Y-120465488D01*
X139287479Y-120534008D01*
X139287479Y-120534010D01*
X139267000Y-120610436D01*
X127200500Y-120610436D01*
X127200500Y-119747936D01*
X150194500Y-119747936D01*
X150194500Y-119827063D01*
X150214979Y-119903489D01*
X150214979Y-119903491D01*
X150254540Y-119972011D01*
X150310489Y-120027960D01*
X150379011Y-120067521D01*
X150414478Y-120077024D01*
X150455436Y-120088000D01*
X150455438Y-120088000D01*
X150534564Y-120088000D01*
X150561230Y-120080854D01*
X150610989Y-120067521D01*
X150679511Y-120027960D01*
X150735460Y-119972011D01*
X150775021Y-119903489D01*
X150795500Y-119827062D01*
X150795500Y-119747938D01*
X150795500Y-119747936D01*
X150782102Y-119697938D01*
X150775021Y-119671511D01*
X150775020Y-119671509D01*
X150775020Y-119671508D01*
X150735459Y-119602988D01*
X150679511Y-119547040D01*
X150610990Y-119507479D01*
X150534564Y-119487000D01*
X150534562Y-119487000D01*
X150455438Y-119487000D01*
X150455436Y-119487000D01*
X150379010Y-119507479D01*
X150379008Y-119507479D01*
X150310488Y-119547040D01*
X150310488Y-119547041D01*
X150254541Y-119602988D01*
X150254540Y-119602988D01*
X150214979Y-119671508D01*
X150214979Y-119671510D01*
X150194500Y-119747936D01*
X127200500Y-119747936D01*
X127200500Y-118560436D01*
X149299500Y-118560436D01*
X149299500Y-118639563D01*
X149319979Y-118715989D01*
X149319979Y-118715991D01*
X149359540Y-118784511D01*
X149415489Y-118840460D01*
X149484011Y-118880021D01*
X149519478Y-118889524D01*
X149560436Y-118900500D01*
X149560438Y-118900500D01*
X149639564Y-118900500D01*
X149666230Y-118893354D01*
X149715989Y-118880021D01*
X149784511Y-118840460D01*
X149840460Y-118784511D01*
X149880021Y-118715989D01*
X149900500Y-118639562D01*
X149900500Y-118560438D01*
X149900500Y-118560436D01*
X150199500Y-118560436D01*
X150199500Y-118639563D01*
X150219979Y-118715989D01*
X150219979Y-118715991D01*
X150259540Y-118784511D01*
X150315489Y-118840460D01*
X150384011Y-118880021D01*
X150419478Y-118889524D01*
X150460436Y-118900500D01*
X150460438Y-118900500D01*
X150539564Y-118900500D01*
X150566230Y-118893354D01*
X150615989Y-118880021D01*
X150684511Y-118840460D01*
X150740460Y-118784511D01*
X150780021Y-118715989D01*
X150800500Y-118639562D01*
X150800500Y-118560438D01*
X150800500Y-118560436D01*
X151099500Y-118560436D01*
X151099500Y-118639563D01*
X151119979Y-118715989D01*
X151119979Y-118715991D01*
X151159540Y-118784511D01*
X151215489Y-118840460D01*
X151284011Y-118880021D01*
X151319478Y-118889524D01*
X151360436Y-118900500D01*
X151360438Y-118900500D01*
X151439564Y-118900500D01*
X151466230Y-118893354D01*
X151515989Y-118880021D01*
X151584511Y-118840460D01*
X151640460Y-118784511D01*
X151680021Y-118715989D01*
X151700500Y-118639562D01*
X151700500Y-118560438D01*
X151700500Y-118560436D01*
X151691843Y-118528134D01*
X151680021Y-118484011D01*
X151680020Y-118484009D01*
X151680020Y-118484008D01*
X151640459Y-118415488D01*
X151584511Y-118359540D01*
X151515990Y-118319979D01*
X151439564Y-118299500D01*
X151439562Y-118299500D01*
X151360438Y-118299500D01*
X151360436Y-118299500D01*
X151284010Y-118319979D01*
X151284008Y-118319979D01*
X151215488Y-118359540D01*
X151215488Y-118359541D01*
X151159541Y-118415488D01*
X151159540Y-118415488D01*
X151119979Y-118484008D01*
X151119979Y-118484010D01*
X151099500Y-118560436D01*
X150800500Y-118560436D01*
X150791843Y-118528134D01*
X150780021Y-118484011D01*
X150780020Y-118484009D01*
X150780020Y-118484008D01*
X150740459Y-118415488D01*
X150684511Y-118359540D01*
X150615990Y-118319979D01*
X150539564Y-118299500D01*
X150539562Y-118299500D01*
X150460438Y-118299500D01*
X150460436Y-118299500D01*
X150384010Y-118319979D01*
X150384008Y-118319979D01*
X150315488Y-118359540D01*
X150315488Y-118359541D01*
X150259541Y-118415488D01*
X150259540Y-118415488D01*
X150219979Y-118484008D01*
X150219979Y-118484010D01*
X150199500Y-118560436D01*
X149900500Y-118560436D01*
X149891843Y-118528134D01*
X149880021Y-118484011D01*
X149880020Y-118484009D01*
X149880020Y-118484008D01*
X149840459Y-118415488D01*
X149784511Y-118359540D01*
X149715990Y-118319979D01*
X149639564Y-118299500D01*
X149639562Y-118299500D01*
X149560438Y-118299500D01*
X149560436Y-118299500D01*
X149484010Y-118319979D01*
X149484008Y-118319979D01*
X149415488Y-118359540D01*
X149415488Y-118359541D01*
X149359541Y-118415488D01*
X149359540Y-118415488D01*
X149319979Y-118484008D01*
X149319979Y-118484010D01*
X149299500Y-118560436D01*
X127200500Y-118560436D01*
X127200500Y-117397000D01*
X127214852Y-117362352D01*
X127249500Y-117348000D01*
X133731000Y-117348000D01*
X133731000Y-116165436D01*
X138992000Y-116165436D01*
X138992000Y-116244563D01*
X139012479Y-116320989D01*
X139012479Y-116320991D01*
X139041064Y-116370500D01*
X139052040Y-116389511D01*
X139107989Y-116445460D01*
X139176511Y-116485021D01*
X139211978Y-116494524D01*
X139252936Y-116505500D01*
X139252938Y-116505500D01*
X139332064Y-116505500D01*
X139358730Y-116498354D01*
X139408489Y-116485021D01*
X139477011Y-116445460D01*
X139532960Y-116389511D01*
X139572521Y-116320989D01*
X139593000Y-116244562D01*
X139593000Y-116165438D01*
X139593000Y-116165436D01*
X139583391Y-116129576D01*
X139572521Y-116089011D01*
X139572520Y-116089009D01*
X139572520Y-116089008D01*
X139532959Y-116020488D01*
X139477011Y-115964540D01*
X139408490Y-115924979D01*
X139332064Y-115904500D01*
X139332062Y-115904500D01*
X139252938Y-115904500D01*
X139252936Y-115904500D01*
X139176510Y-115924979D01*
X139176508Y-115924979D01*
X139107988Y-115964540D01*
X139107988Y-115964541D01*
X139052041Y-116020488D01*
X139052040Y-116020488D01*
X139012479Y-116089008D01*
X139012479Y-116089010D01*
X138992000Y-116165436D01*
X133731000Y-116165436D01*
X133731000Y-115490939D01*
X141639500Y-115490939D01*
X141639500Y-115649060D01*
X141680422Y-115801782D01*
X141680423Y-115801786D01*
X141759475Y-115938709D01*
X141759478Y-115938713D01*
X141759480Y-115938716D01*
X141871284Y-116050520D01*
X141871287Y-116050521D01*
X141871290Y-116050524D01*
X142008213Y-116129576D01*
X142008215Y-116129576D01*
X142008216Y-116129577D01*
X142128665Y-116161851D01*
X142160939Y-116170499D01*
X142160940Y-116170500D01*
X142160943Y-116170500D01*
X142319060Y-116170500D01*
X142319060Y-116170499D01*
X142471784Y-116129577D01*
X142608716Y-116050520D01*
X142720520Y-115938716D01*
X142799577Y-115801784D01*
X142840499Y-115649060D01*
X142840500Y-115649060D01*
X142840500Y-115490940D01*
X142840499Y-115490939D01*
X142799577Y-115338217D01*
X142799576Y-115338213D01*
X142720524Y-115201290D01*
X142720521Y-115201287D01*
X142720520Y-115201284D01*
X142608716Y-115089480D01*
X142608713Y-115089478D01*
X142608709Y-115089475D01*
X142471786Y-115010423D01*
X142471782Y-115010422D01*
X142319060Y-114969500D01*
X142319057Y-114969500D01*
X142160943Y-114969500D01*
X142160940Y-114969500D01*
X142008217Y-115010422D01*
X142008213Y-115010423D01*
X141871290Y-115089475D01*
X141871281Y-115089482D01*
X141759482Y-115201281D01*
X141759475Y-115201290D01*
X141680423Y-115338213D01*
X141680422Y-115338217D01*
X141639500Y-115490939D01*
X133731000Y-115490939D01*
X133731000Y-108045436D01*
X138434500Y-108045436D01*
X138434500Y-108124563D01*
X138454979Y-108200989D01*
X138454979Y-108200991D01*
X138489921Y-108261511D01*
X138494540Y-108269511D01*
X138550489Y-108325460D01*
X138600649Y-108354420D01*
X138609517Y-108359540D01*
X138619011Y-108365021D01*
X138654478Y-108374524D01*
X138695436Y-108385500D01*
X138695438Y-108385500D01*
X138774564Y-108385500D01*
X138804418Y-108377500D01*
X138850989Y-108365021D01*
X138919511Y-108325460D01*
X138975460Y-108269511D01*
X139015021Y-108200989D01*
X139035500Y-108124562D01*
X139035500Y-108045438D01*
X139035500Y-108045436D01*
X139026843Y-108013134D01*
X139015021Y-107969011D01*
X139015020Y-107969009D01*
X139015020Y-107969008D01*
X138975459Y-107900488D01*
X138919511Y-107844540D01*
X138850990Y-107804979D01*
X138774564Y-107784500D01*
X138774562Y-107784500D01*
X138695438Y-107784500D01*
X138695436Y-107784500D01*
X138619010Y-107804979D01*
X138619008Y-107804979D01*
X138550488Y-107844540D01*
X138550488Y-107844541D01*
X138494541Y-107900488D01*
X138494540Y-107900488D01*
X138454979Y-107969008D01*
X138454979Y-107969010D01*
X138434500Y-108045436D01*
X133731000Y-108045436D01*
X133731000Y-106640436D01*
X138584500Y-106640436D01*
X138584500Y-106719563D01*
X138604979Y-106795989D01*
X138604979Y-106795991D01*
X138644540Y-106864511D01*
X138700489Y-106920460D01*
X138735130Y-106940460D01*
X138768179Y-106959541D01*
X138769011Y-106960021D01*
X138804478Y-106969524D01*
X138845436Y-106980500D01*
X138845438Y-106980500D01*
X138924564Y-106980500D01*
X138951230Y-106973354D01*
X139000989Y-106960021D01*
X139001821Y-106959541D01*
X139010170Y-106954720D01*
X139069511Y-106920460D01*
X139125460Y-106864511D01*
X139165021Y-106795989D01*
X139185500Y-106719562D01*
X139185500Y-106640438D01*
X139185500Y-106640436D01*
X139170380Y-106584011D01*
X139165021Y-106564011D01*
X139165020Y-106564009D01*
X139165020Y-106564008D01*
X139125459Y-106495488D01*
X139069511Y-106439540D01*
X139000990Y-106399979D01*
X138924564Y-106379500D01*
X138924562Y-106379500D01*
X138845438Y-106379500D01*
X138845436Y-106379500D01*
X138769010Y-106399979D01*
X138769008Y-106399979D01*
X138700488Y-106439540D01*
X138700488Y-106439541D01*
X138644541Y-106495488D01*
X138644540Y-106495488D01*
X138604979Y-106564008D01*
X138604979Y-106564010D01*
X138584500Y-106640436D01*
X133731000Y-106640436D01*
X133731000Y-105586000D01*
X133745352Y-105551352D01*
X133780000Y-105537000D01*
X139397000Y-105537000D01*
X139431648Y-105551352D01*
X139446000Y-105586000D01*
X139446000Y-113665000D01*
X151384000Y-113665000D01*
X151384000Y-111720436D01*
X153369500Y-111720436D01*
X153369500Y-111799563D01*
X153389979Y-111875989D01*
X153389979Y-111875991D01*
X153429540Y-111944511D01*
X153485489Y-112000460D01*
X153554011Y-112040021D01*
X153589478Y-112049524D01*
X153630436Y-112060500D01*
X153630438Y-112060500D01*
X153709564Y-112060500D01*
X153736230Y-112053354D01*
X153785989Y-112040021D01*
X153854511Y-112000460D01*
X153910460Y-111944511D01*
X153950021Y-111875989D01*
X153970500Y-111799562D01*
X153970500Y-111720438D01*
X153970500Y-111720436D01*
X153961843Y-111688134D01*
X153950021Y-111644011D01*
X153950020Y-111644009D01*
X153950020Y-111644008D01*
X153910459Y-111575488D01*
X153854511Y-111519540D01*
X153785990Y-111479979D01*
X153709564Y-111459500D01*
X153709562Y-111459500D01*
X153630438Y-111459500D01*
X153630436Y-111459500D01*
X153554010Y-111479979D01*
X153554008Y-111479979D01*
X153485488Y-111519540D01*
X153485488Y-111519541D01*
X153429541Y-111575488D01*
X153429540Y-111575488D01*
X153389979Y-111644008D01*
X153389979Y-111644010D01*
X153369500Y-111720436D01*
X151384000Y-111720436D01*
X151384000Y-108560436D01*
X152799500Y-108560436D01*
X152799500Y-108639563D01*
X152819979Y-108715989D01*
X152819979Y-108715991D01*
X152850880Y-108769511D01*
X152859540Y-108784511D01*
X152915489Y-108840460D01*
X152984011Y-108880021D01*
X153019478Y-108889524D01*
X153060436Y-108900500D01*
X153060438Y-108900500D01*
X153139564Y-108900500D01*
X153166230Y-108893354D01*
X153215989Y-108880021D01*
X153284511Y-108840460D01*
X153340460Y-108784511D01*
X153380021Y-108715989D01*
X153400500Y-108639562D01*
X153400500Y-108560438D01*
X153400500Y-108560435D01*
X153399019Y-108554908D01*
X153396481Y-108545436D01*
X153777000Y-108545436D01*
X153777000Y-108624563D01*
X153797479Y-108700989D01*
X153797479Y-108700991D01*
X153826063Y-108750499D01*
X153837040Y-108769511D01*
X153892989Y-108825460D01*
X153961511Y-108865021D01*
X153996978Y-108874524D01*
X154037936Y-108885500D01*
X154037938Y-108885500D01*
X154117064Y-108885500D01*
X154143730Y-108878354D01*
X154193489Y-108865021D01*
X154262011Y-108825460D01*
X154317960Y-108769511D01*
X154357521Y-108700989D01*
X154378000Y-108624562D01*
X154378000Y-108545438D01*
X154378000Y-108545436D01*
X154361540Y-108484010D01*
X154357521Y-108469011D01*
X154357520Y-108469009D01*
X154357520Y-108469008D01*
X154326620Y-108415489D01*
X154317960Y-108400489D01*
X154262011Y-108344540D01*
X154193490Y-108304979D01*
X154117064Y-108284500D01*
X154117062Y-108284500D01*
X154037938Y-108284500D01*
X154037936Y-108284500D01*
X153961510Y-108304979D01*
X153961508Y-108304979D01*
X153892988Y-108344540D01*
X153892988Y-108344541D01*
X153837041Y-108400488D01*
X153837040Y-108400488D01*
X153797479Y-108469008D01*
X153797479Y-108469010D01*
X153777000Y-108545436D01*
X153396481Y-108545436D01*
X153389149Y-108518078D01*
X153380021Y-108484011D01*
X153380020Y-108484009D01*
X153380020Y-108484008D01*
X153340459Y-108415488D01*
X153284511Y-108359540D01*
X153215990Y-108319979D01*
X153139564Y-108299500D01*
X153139562Y-108299500D01*
X153060438Y-108299500D01*
X153060436Y-108299500D01*
X152984010Y-108319979D01*
X152984008Y-108319979D01*
X152915488Y-108359540D01*
X152915488Y-108359541D01*
X152859541Y-108415488D01*
X152859540Y-108415488D01*
X152819979Y-108484008D01*
X152819979Y-108484010D01*
X152799500Y-108560436D01*
X151384000Y-108560436D01*
X151384000Y-107160436D01*
X152799500Y-107160436D01*
X152799500Y-107239563D01*
X152819979Y-107315989D01*
X152819979Y-107315991D01*
X152859540Y-107384511D01*
X152915489Y-107440460D01*
X152984011Y-107480021D01*
X153019478Y-107489524D01*
X153060436Y-107500500D01*
X153060438Y-107500500D01*
X153139564Y-107500500D01*
X153166230Y-107493354D01*
X153215989Y-107480021D01*
X153284511Y-107440460D01*
X153340460Y-107384511D01*
X153380021Y-107315989D01*
X153396171Y-107255713D01*
X153400500Y-107239563D01*
X153400500Y-107160436D01*
X153397679Y-107149909D01*
X153395141Y-107140436D01*
X153927000Y-107140436D01*
X153927000Y-107219563D01*
X153947479Y-107295989D01*
X153947479Y-107295991D01*
X153981296Y-107354562D01*
X153987040Y-107364511D01*
X154042989Y-107420460D01*
X154111511Y-107460021D01*
X154146978Y-107469524D01*
X154187936Y-107480500D01*
X154187938Y-107480500D01*
X154267064Y-107480500D01*
X154293730Y-107473354D01*
X154343489Y-107460021D01*
X154412011Y-107420460D01*
X154467960Y-107364511D01*
X154507521Y-107295989D01*
X154528000Y-107219562D01*
X154528000Y-107140438D01*
X154528000Y-107140436D01*
X154512880Y-107084011D01*
X154507521Y-107064011D01*
X154507520Y-107064009D01*
X154507520Y-107064008D01*
X154467959Y-106995488D01*
X154412011Y-106939540D01*
X154343490Y-106899979D01*
X154267064Y-106879500D01*
X154267062Y-106879500D01*
X154187938Y-106879500D01*
X154187936Y-106879500D01*
X154111510Y-106899979D01*
X154111508Y-106899979D01*
X154042988Y-106939540D01*
X154042988Y-106939541D01*
X153987041Y-106995488D01*
X153987040Y-106995488D01*
X153947479Y-107064008D01*
X153947479Y-107064010D01*
X153927000Y-107140436D01*
X153395141Y-107140436D01*
X153392475Y-107130489D01*
X153380021Y-107084011D01*
X153380020Y-107084009D01*
X153380020Y-107084008D01*
X153354939Y-107040568D01*
X153340460Y-107015489D01*
X153284511Y-106959540D01*
X153215990Y-106919979D01*
X153139564Y-106899500D01*
X153139562Y-106899500D01*
X153060438Y-106899500D01*
X153060436Y-106899500D01*
X152984010Y-106919979D01*
X152984008Y-106919979D01*
X152915488Y-106959540D01*
X152915488Y-106959541D01*
X152859541Y-107015488D01*
X152859540Y-107015488D01*
X152819979Y-107084008D01*
X152819979Y-107084010D01*
X152799500Y-107160436D01*
X151384000Y-107160436D01*
X151384000Y-104986000D01*
X151398352Y-104951352D01*
X151433000Y-104937000D01*
X158320000Y-104937000D01*
X158354648Y-104951352D01*
G37*
G04 #@! TD.AperFunction*
M02*
